G04 #@! TF.GenerationSoftware,KiCad,Pcbnew,5.0.2+dfsg1-1*
G04 #@! TF.CreationDate,2019-10-20T13:45:48+02:00*
G04 #@! TF.ProjectId,xling,786c696e-672e-46b6-9963-61645f706362,3.1*
G04 #@! TF.SameCoordinates,Original*
G04 #@! TF.FileFunction,Copper,L2,Bot*
G04 #@! TF.FilePolarity,Positive*
%FSLAX46Y46*%
G04 Gerber Fmt 4.6, Leading zero omitted, Abs format (unit mm)*
G04 Created by KiCad (PCBNEW 5.0.2+dfsg1-1) date Sun 20 Oct 2019 13:45:48 CEST*
%MOMM*%
%LPD*%
G01*
G04 APERTURE LIST*
G04 #@! TA.AperFunction,EtchedComponent*
%ADD10C,0.010000*%
G04 #@! TD*
G04 #@! TA.AperFunction,SMDPad,CuDef*
%ADD11R,0.800000X0.700000*%
G04 #@! TD*
G04 #@! TA.AperFunction,ComponentPad*
%ADD12O,1.200000X1.900000*%
G04 #@! TD*
G04 #@! TA.AperFunction,ComponentPad*
%ADD13C,1.450000*%
G04 #@! TD*
G04 #@! TA.AperFunction,BGAPad,CuDef*
%ADD14C,2.000000*%
G04 #@! TD*
G04 #@! TA.AperFunction,ViaPad*
%ADD15C,0.700000*%
G04 #@! TD*
G04 #@! TA.AperFunction,Conductor*
%ADD16C,0.600000*%
G04 #@! TD*
G04 #@! TA.AperFunction,Conductor*
%ADD17C,0.250000*%
G04 #@! TD*
G04 #@! TA.AperFunction,Conductor*
%ADD18C,0.200000*%
G04 #@! TD*
G04 #@! TA.AperFunction,Conductor*
%ADD19C,0.254000*%
G04 #@! TD*
G04 APERTURE END LIST*
D10*
G04 #@! TO.C,OH1*
G36*
X56946291Y-59410930D02*
X56877856Y-59411447D01*
X56816434Y-59412241D01*
X56763919Y-59413273D01*
X56722203Y-59414504D01*
X56693178Y-59415895D01*
X56678737Y-59417407D01*
X56677649Y-59417786D01*
X56673354Y-59427786D01*
X56666462Y-59453313D01*
X56657222Y-59493202D01*
X56645885Y-59546289D01*
X56632702Y-59611408D01*
X56617921Y-59687395D01*
X56604831Y-59756750D01*
X56591081Y-59829669D01*
X56577998Y-59897442D01*
X56565958Y-59958248D01*
X56555335Y-60010263D01*
X56546503Y-60051665D01*
X56539838Y-60080629D01*
X56535712Y-60095334D01*
X56534997Y-60096723D01*
X56524586Y-60102619D01*
X56501081Y-60113527D01*
X56466872Y-60128482D01*
X56424350Y-60146518D01*
X56375903Y-60166667D01*
X56323923Y-60187965D01*
X56270799Y-60209443D01*
X56218921Y-60230137D01*
X56170680Y-60249080D01*
X56128465Y-60265305D01*
X56094667Y-60277847D01*
X56071676Y-60285738D01*
X56061881Y-60288013D01*
X56061869Y-60288008D01*
X56053020Y-60282556D01*
X56031793Y-60268548D01*
X55999752Y-60247042D01*
X55958459Y-60219096D01*
X55909476Y-60185768D01*
X55854365Y-60148116D01*
X55794689Y-60107199D01*
X55780239Y-60097270D01*
X55719524Y-60055795D01*
X55662752Y-60017511D01*
X55611523Y-59983458D01*
X55567434Y-59954678D01*
X55532084Y-59932211D01*
X55507073Y-59917098D01*
X55493997Y-59910381D01*
X55492856Y-59910133D01*
X55483320Y-59915986D01*
X55463663Y-59932488D01*
X55435467Y-59958053D01*
X55400318Y-59991097D01*
X55359800Y-60030034D01*
X55315499Y-60073278D01*
X55268999Y-60119245D01*
X55221885Y-60166349D01*
X55175741Y-60213005D01*
X55132152Y-60257628D01*
X55092703Y-60298631D01*
X55058979Y-60334431D01*
X55032564Y-60363441D01*
X55015043Y-60384077D01*
X55008001Y-60394752D01*
X55007933Y-60395231D01*
X55012594Y-60405430D01*
X55025867Y-60427884D01*
X55046685Y-60460954D01*
X55073983Y-60502998D01*
X55106695Y-60552377D01*
X55143755Y-60607449D01*
X55184097Y-60666575D01*
X55186685Y-60670342D01*
X55227510Y-60729877D01*
X55265500Y-60785566D01*
X55299533Y-60835740D01*
X55328485Y-60878731D01*
X55351233Y-60912870D01*
X55366654Y-60936488D01*
X55373623Y-60947917D01*
X55373719Y-60948117D01*
X55375026Y-60955986D01*
X55373146Y-60969052D01*
X55367501Y-60988906D01*
X55357512Y-61017140D01*
X55342598Y-61055345D01*
X55322181Y-61105112D01*
X55295682Y-61168033D01*
X55281751Y-61200753D01*
X55254636Y-61263421D01*
X55229647Y-61319517D01*
X55207615Y-61367281D01*
X55189374Y-61404953D01*
X55175756Y-61430776D01*
X55167594Y-61442988D01*
X55166816Y-61443580D01*
X55155399Y-61446881D01*
X55129253Y-61452837D01*
X55090306Y-61461058D01*
X55040486Y-61471153D01*
X54981721Y-61482733D01*
X54915940Y-61495407D01*
X54845070Y-61508786D01*
X54837317Y-61510234D01*
X54756090Y-61525635D01*
X54684578Y-61539703D01*
X54624015Y-61552171D01*
X54575635Y-61562772D01*
X54540672Y-61571240D01*
X54520358Y-61577307D01*
X54515581Y-61579857D01*
X54514047Y-61590494D01*
X54512624Y-61616172D01*
X54511352Y-61654997D01*
X54510269Y-61705079D01*
X54509414Y-61764523D01*
X54508827Y-61831439D01*
X54508547Y-61903932D01*
X54508530Y-61922046D01*
X54508584Y-62007913D01*
X54508856Y-62078335D01*
X54509395Y-62134800D01*
X54510255Y-62178795D01*
X54511486Y-62211808D01*
X54513140Y-62235327D01*
X54515268Y-62250839D01*
X54517922Y-62259832D01*
X54520341Y-62263236D01*
X54531174Y-62266999D01*
X54556728Y-62273333D01*
X54595058Y-62281830D01*
X54644214Y-62292084D01*
X54702249Y-62303689D01*
X54767215Y-62316238D01*
X54835724Y-62329060D01*
X54912649Y-62343496D01*
X54981669Y-62356969D01*
X55041229Y-62369143D01*
X55089772Y-62379686D01*
X55125742Y-62388264D01*
X55147584Y-62394542D01*
X55153456Y-62397222D01*
X55160159Y-62407976D01*
X55171810Y-62431979D01*
X55187476Y-62466915D01*
X55206228Y-62510471D01*
X55227135Y-62560334D01*
X55249266Y-62614189D01*
X55271691Y-62669725D01*
X55293479Y-62724626D01*
X55313700Y-62776580D01*
X55331423Y-62823272D01*
X55345718Y-62862390D01*
X55355653Y-62891619D01*
X55360299Y-62908646D01*
X55360406Y-62911737D01*
X55354831Y-62920931D01*
X55340753Y-62942437D01*
X55319272Y-62974623D01*
X55291489Y-63015854D01*
X55258505Y-63064498D01*
X55221420Y-63118920D01*
X55182147Y-63176304D01*
X55142188Y-63234995D01*
X55105456Y-63289770D01*
X55073029Y-63338958D01*
X55045985Y-63380886D01*
X55025403Y-63413884D01*
X55012361Y-63436281D01*
X55007933Y-63446314D01*
X55013771Y-63455763D01*
X55030229Y-63475362D01*
X55055727Y-63503525D01*
X55088683Y-63538663D01*
X55127515Y-63579191D01*
X55170643Y-63623520D01*
X55216486Y-63670065D01*
X55263461Y-63717237D01*
X55309987Y-63763451D01*
X55354484Y-63807119D01*
X55395370Y-63846654D01*
X55431063Y-63880468D01*
X55459983Y-63906976D01*
X55480548Y-63924590D01*
X55491176Y-63931723D01*
X55491679Y-63931800D01*
X55501471Y-63927148D01*
X55523517Y-63913914D01*
X55556162Y-63893175D01*
X55597755Y-63866011D01*
X55646642Y-63833501D01*
X55701170Y-63796725D01*
X55757542Y-63758233D01*
X55816013Y-63718346D01*
X55870510Y-63681689D01*
X55919368Y-63649342D01*
X55960921Y-63622387D01*
X55993505Y-63601903D01*
X56015455Y-63588972D01*
X56024979Y-63584667D01*
X56037356Y-63588534D01*
X56061509Y-63599176D01*
X56094405Y-63615151D01*
X56133014Y-63635018D01*
X56150750Y-63644470D01*
X56193333Y-63666579D01*
X56230477Y-63684292D01*
X56259380Y-63696370D01*
X56277239Y-63701574D01*
X56279961Y-63701620D01*
X56284274Y-63699295D01*
X56289875Y-63692754D01*
X56297222Y-63680968D01*
X56306770Y-63662912D01*
X56318976Y-63637557D01*
X56334299Y-63603876D01*
X56353193Y-63560842D01*
X56376117Y-63507429D01*
X56403527Y-63442608D01*
X56435880Y-63365353D01*
X56473632Y-63274637D01*
X56517242Y-63169433D01*
X56524899Y-63150932D01*
X56562571Y-63059547D01*
X56598147Y-62972571D01*
X56631119Y-62891292D01*
X56660977Y-62816997D01*
X56687212Y-62750977D01*
X56709313Y-62694517D01*
X56726772Y-62648906D01*
X56739080Y-62615433D01*
X56745726Y-62595386D01*
X56746732Y-62590016D01*
X56738085Y-62580162D01*
X56718461Y-62563379D01*
X56690943Y-62542171D01*
X56664378Y-62523049D01*
X56594120Y-62471285D01*
X56536745Y-62422385D01*
X56489328Y-62373138D01*
X56448946Y-62320329D01*
X56412675Y-62260745D01*
X56394894Y-62226864D01*
X56355073Y-62129481D01*
X56331206Y-62028931D01*
X56323034Y-61926922D01*
X56330295Y-61825164D01*
X56352728Y-61725366D01*
X56390073Y-61629237D01*
X56442068Y-61538485D01*
X56508454Y-61454821D01*
X56513559Y-61449353D01*
X56592970Y-61376723D01*
X56681653Y-61317703D01*
X56780743Y-61271592D01*
X56828565Y-61255012D01*
X56856444Y-61246958D01*
X56882724Y-61241387D01*
X56911576Y-61237865D01*
X56947170Y-61235956D01*
X56993677Y-61235226D01*
X57018767Y-61235167D01*
X57071474Y-61235517D01*
X57111440Y-61236860D01*
X57142845Y-61239630D01*
X57169872Y-61244263D01*
X57196703Y-61251194D01*
X57209267Y-61255004D01*
X57312590Y-61295676D01*
X57406398Y-61349817D01*
X57489717Y-61416606D01*
X57561575Y-61495223D01*
X57620998Y-61584846D01*
X57637452Y-61616167D01*
X57671739Y-61694262D01*
X57694276Y-61768211D01*
X57706567Y-61844406D01*
X57710121Y-61925200D01*
X57702023Y-62033649D01*
X57678013Y-62137109D01*
X57638520Y-62234517D01*
X57583973Y-62324813D01*
X57516407Y-62405292D01*
X57486099Y-62433618D01*
X57446729Y-62466653D01*
X57403419Y-62500421D01*
X57361294Y-62530947D01*
X57325476Y-62554257D01*
X57321102Y-62556806D01*
X57301613Y-62571642D01*
X57289880Y-62587440D01*
X57289125Y-62589748D01*
X57291546Y-62600870D01*
X57300265Y-62626722D01*
X57314946Y-62666452D01*
X57335254Y-62719211D01*
X57360854Y-62784145D01*
X57391411Y-62860406D01*
X57426590Y-62947142D01*
X57466055Y-63043502D01*
X57505120Y-63138132D01*
X57542500Y-63228302D01*
X57578143Y-63314144D01*
X57611495Y-63394332D01*
X57642001Y-63467542D01*
X57669109Y-63532448D01*
X57692263Y-63587723D01*
X57710910Y-63632043D01*
X57724497Y-63664083D01*
X57732468Y-63682516D01*
X57734244Y-63686349D01*
X57747966Y-63699861D01*
X57759315Y-63703200D01*
X57772169Y-63699324D01*
X57796758Y-63688659D01*
X57830017Y-63672646D01*
X57868882Y-63652728D01*
X57886929Y-63643121D01*
X57936610Y-63617320D01*
X57975806Y-63598983D01*
X58003207Y-63588679D01*
X58016629Y-63586729D01*
X58028533Y-63592449D01*
X58052103Y-63606500D01*
X58085152Y-63627477D01*
X58125490Y-63653974D01*
X58170931Y-63684586D01*
X58199867Y-63704435D01*
X58278062Y-63758371D01*
X58343529Y-63803359D01*
X58397413Y-63840154D01*
X58440865Y-63869510D01*
X58475031Y-63892182D01*
X58501061Y-63908926D01*
X58520102Y-63920496D01*
X58533302Y-63927647D01*
X58541809Y-63931134D01*
X58545687Y-63931800D01*
X58554465Y-63925999D01*
X58573774Y-63909463D01*
X58602233Y-63883495D01*
X58638464Y-63849396D01*
X58681086Y-63808467D01*
X58728720Y-63762011D01*
X58779984Y-63711329D01*
X58790115Y-63701236D01*
X58841773Y-63649450D01*
X58889649Y-63600971D01*
X58932405Y-63557187D01*
X58968705Y-63519491D01*
X58997212Y-63489272D01*
X59016588Y-63467920D01*
X59025498Y-63456827D01*
X59025889Y-63456022D01*
X59027388Y-63451060D01*
X59027912Y-63445989D01*
X59026608Y-63439434D01*
X59022623Y-63430021D01*
X59015105Y-63416375D01*
X59003200Y-63397121D01*
X58986058Y-63370885D01*
X58962824Y-63336292D01*
X58932647Y-63291967D01*
X58894673Y-63236535D01*
X58848051Y-63168623D01*
X58843807Y-63162443D01*
X58804397Y-63104709D01*
X58768224Y-63051064D01*
X58736377Y-63003177D01*
X58709947Y-62962714D01*
X58690024Y-62931343D01*
X58677698Y-62910730D01*
X58674000Y-62902783D01*
X58677048Y-62892118D01*
X58685683Y-62867760D01*
X58699142Y-62831711D01*
X58716662Y-62785975D01*
X58737480Y-62732556D01*
X58760832Y-62673457D01*
X58772509Y-62644179D01*
X58802071Y-62570857D01*
X58826324Y-62512085D01*
X58845873Y-62466545D01*
X58861323Y-62432920D01*
X58873278Y-62409891D01*
X58882342Y-62396142D01*
X58888926Y-62390432D01*
X58901191Y-62387202D01*
X58928106Y-62381349D01*
X58967662Y-62373271D01*
X59017847Y-62363366D01*
X59076651Y-62352030D01*
X59142062Y-62339662D01*
X59206465Y-62327690D01*
X59275865Y-62314694D01*
X59340217Y-62302258D01*
X59397565Y-62290789D01*
X59445950Y-62280696D01*
X59483415Y-62272387D01*
X59508002Y-62266268D01*
X59517615Y-62262886D01*
X59520611Y-62257601D01*
X59523064Y-62246235D01*
X59525024Y-62227352D01*
X59526538Y-62199515D01*
X59527655Y-62161286D01*
X59528423Y-62111227D01*
X59528890Y-62047902D01*
X59529105Y-61969873D01*
X59529133Y-61920125D01*
X59529133Y-61586924D01*
X59510083Y-61575171D01*
X59497604Y-61571001D01*
X59470439Y-61564287D01*
X59430574Y-61555444D01*
X59379996Y-61544887D01*
X59320693Y-61533029D01*
X59254651Y-61520286D01*
X59183857Y-61507071D01*
X59182000Y-61506731D01*
X59111540Y-61493584D01*
X59046153Y-61480957D01*
X58987758Y-61469254D01*
X58938273Y-61458877D01*
X58899616Y-61450228D01*
X58873706Y-61443711D01*
X58862461Y-61439729D01*
X58862325Y-61439611D01*
X58856183Y-61429169D01*
X58844630Y-61405511D01*
X58828704Y-61371048D01*
X58809443Y-61328188D01*
X58787882Y-61279344D01*
X58765060Y-61226923D01*
X58742014Y-61173337D01*
X58719781Y-61120996D01*
X58699397Y-61072309D01*
X58681900Y-61029686D01*
X58668328Y-60995539D01*
X58659717Y-60972275D01*
X58657067Y-60962657D01*
X58661721Y-60952959D01*
X58674982Y-60930954D01*
X58695800Y-60898249D01*
X58723126Y-60856445D01*
X58755910Y-60807148D01*
X58793100Y-60751961D01*
X58833648Y-60692489D01*
X58840096Y-60683092D01*
X58881253Y-60622897D01*
X58919408Y-60566584D01*
X58953477Y-60515790D01*
X58982380Y-60472148D01*
X59005035Y-60437293D01*
X59020361Y-60412860D01*
X59027276Y-60400484D01*
X59027511Y-60399808D01*
X59026243Y-60392966D01*
X59019309Y-60381447D01*
X59005804Y-60364259D01*
X58984824Y-60340415D01*
X58955465Y-60308924D01*
X58916820Y-60268797D01*
X58867986Y-60219044D01*
X58808059Y-60158676D01*
X58796001Y-60146583D01*
X58735970Y-60086815D01*
X58682406Y-60034298D01*
X58636219Y-59989886D01*
X58598323Y-59954436D01*
X58569627Y-59928803D01*
X58551043Y-59913843D01*
X58544124Y-59910133D01*
X58533733Y-59914788D01*
X58511072Y-59928046D01*
X58477777Y-59948851D01*
X58435485Y-59976145D01*
X58385833Y-60008871D01*
X58330456Y-60045970D01*
X58270991Y-60086386D01*
X58264523Y-60090816D01*
X58204499Y-60131881D01*
X58148296Y-60170191D01*
X58097578Y-60204622D01*
X58054008Y-60234050D01*
X58019252Y-60257352D01*
X57994974Y-60273402D01*
X57982839Y-60281078D01*
X57982413Y-60281312D01*
X57974991Y-60283569D01*
X57964101Y-60283241D01*
X57947901Y-60279719D01*
X57924553Y-60272391D01*
X57892214Y-60260646D01*
X57849045Y-60243873D01*
X57793205Y-60221463D01*
X57753813Y-60205448D01*
X57684056Y-60176969D01*
X57628353Y-60154072D01*
X57585066Y-60135970D01*
X57552560Y-60121877D01*
X57529197Y-60111005D01*
X57513341Y-60102567D01*
X57503357Y-60095777D01*
X57497606Y-60089847D01*
X57494453Y-60083990D01*
X57493091Y-60080068D01*
X57490400Y-60068227D01*
X57485011Y-60041676D01*
X57477299Y-60002358D01*
X57467639Y-59952215D01*
X57456403Y-59893190D01*
X57443966Y-59827225D01*
X57430702Y-59756264D01*
X57429341Y-59748948D01*
X57415913Y-59677802D01*
X57403053Y-59611665D01*
X57391160Y-59552444D01*
X57380633Y-59502047D01*
X57371873Y-59462380D01*
X57365278Y-59435354D01*
X57361249Y-59422874D01*
X57360980Y-59422472D01*
X57355930Y-59419395D01*
X57345395Y-59416881D01*
X57327894Y-59414878D01*
X57301945Y-59413336D01*
X57266067Y-59412203D01*
X57218780Y-59411428D01*
X57158601Y-59410961D01*
X57084050Y-59410751D01*
X57019847Y-59410729D01*
X56946291Y-59410930D01*
X56946291Y-59410930D01*
G37*
X56946291Y-59410930D02*
X56877856Y-59411447D01*
X56816434Y-59412241D01*
X56763919Y-59413273D01*
X56722203Y-59414504D01*
X56693178Y-59415895D01*
X56678737Y-59417407D01*
X56677649Y-59417786D01*
X56673354Y-59427786D01*
X56666462Y-59453313D01*
X56657222Y-59493202D01*
X56645885Y-59546289D01*
X56632702Y-59611408D01*
X56617921Y-59687395D01*
X56604831Y-59756750D01*
X56591081Y-59829669D01*
X56577998Y-59897442D01*
X56565958Y-59958248D01*
X56555335Y-60010263D01*
X56546503Y-60051665D01*
X56539838Y-60080629D01*
X56535712Y-60095334D01*
X56534997Y-60096723D01*
X56524586Y-60102619D01*
X56501081Y-60113527D01*
X56466872Y-60128482D01*
X56424350Y-60146518D01*
X56375903Y-60166667D01*
X56323923Y-60187965D01*
X56270799Y-60209443D01*
X56218921Y-60230137D01*
X56170680Y-60249080D01*
X56128465Y-60265305D01*
X56094667Y-60277847D01*
X56071676Y-60285738D01*
X56061881Y-60288013D01*
X56061869Y-60288008D01*
X56053020Y-60282556D01*
X56031793Y-60268548D01*
X55999752Y-60247042D01*
X55958459Y-60219096D01*
X55909476Y-60185768D01*
X55854365Y-60148116D01*
X55794689Y-60107199D01*
X55780239Y-60097270D01*
X55719524Y-60055795D01*
X55662752Y-60017511D01*
X55611523Y-59983458D01*
X55567434Y-59954678D01*
X55532084Y-59932211D01*
X55507073Y-59917098D01*
X55493997Y-59910381D01*
X55492856Y-59910133D01*
X55483320Y-59915986D01*
X55463663Y-59932488D01*
X55435467Y-59958053D01*
X55400318Y-59991097D01*
X55359800Y-60030034D01*
X55315499Y-60073278D01*
X55268999Y-60119245D01*
X55221885Y-60166349D01*
X55175741Y-60213005D01*
X55132152Y-60257628D01*
X55092703Y-60298631D01*
X55058979Y-60334431D01*
X55032564Y-60363441D01*
X55015043Y-60384077D01*
X55008001Y-60394752D01*
X55007933Y-60395231D01*
X55012594Y-60405430D01*
X55025867Y-60427884D01*
X55046685Y-60460954D01*
X55073983Y-60502998D01*
X55106695Y-60552377D01*
X55143755Y-60607449D01*
X55184097Y-60666575D01*
X55186685Y-60670342D01*
X55227510Y-60729877D01*
X55265500Y-60785566D01*
X55299533Y-60835740D01*
X55328485Y-60878731D01*
X55351233Y-60912870D01*
X55366654Y-60936488D01*
X55373623Y-60947917D01*
X55373719Y-60948117D01*
X55375026Y-60955986D01*
X55373146Y-60969052D01*
X55367501Y-60988906D01*
X55357512Y-61017140D01*
X55342598Y-61055345D01*
X55322181Y-61105112D01*
X55295682Y-61168033D01*
X55281751Y-61200753D01*
X55254636Y-61263421D01*
X55229647Y-61319517D01*
X55207615Y-61367281D01*
X55189374Y-61404953D01*
X55175756Y-61430776D01*
X55167594Y-61442988D01*
X55166816Y-61443580D01*
X55155399Y-61446881D01*
X55129253Y-61452837D01*
X55090306Y-61461058D01*
X55040486Y-61471153D01*
X54981721Y-61482733D01*
X54915940Y-61495407D01*
X54845070Y-61508786D01*
X54837317Y-61510234D01*
X54756090Y-61525635D01*
X54684578Y-61539703D01*
X54624015Y-61552171D01*
X54575635Y-61562772D01*
X54540672Y-61571240D01*
X54520358Y-61577307D01*
X54515581Y-61579857D01*
X54514047Y-61590494D01*
X54512624Y-61616172D01*
X54511352Y-61654997D01*
X54510269Y-61705079D01*
X54509414Y-61764523D01*
X54508827Y-61831439D01*
X54508547Y-61903932D01*
X54508530Y-61922046D01*
X54508584Y-62007913D01*
X54508856Y-62078335D01*
X54509395Y-62134800D01*
X54510255Y-62178795D01*
X54511486Y-62211808D01*
X54513140Y-62235327D01*
X54515268Y-62250839D01*
X54517922Y-62259832D01*
X54520341Y-62263236D01*
X54531174Y-62266999D01*
X54556728Y-62273333D01*
X54595058Y-62281830D01*
X54644214Y-62292084D01*
X54702249Y-62303689D01*
X54767215Y-62316238D01*
X54835724Y-62329060D01*
X54912649Y-62343496D01*
X54981669Y-62356969D01*
X55041229Y-62369143D01*
X55089772Y-62379686D01*
X55125742Y-62388264D01*
X55147584Y-62394542D01*
X55153456Y-62397222D01*
X55160159Y-62407976D01*
X55171810Y-62431979D01*
X55187476Y-62466915D01*
X55206228Y-62510471D01*
X55227135Y-62560334D01*
X55249266Y-62614189D01*
X55271691Y-62669725D01*
X55293479Y-62724626D01*
X55313700Y-62776580D01*
X55331423Y-62823272D01*
X55345718Y-62862390D01*
X55355653Y-62891619D01*
X55360299Y-62908646D01*
X55360406Y-62911737D01*
X55354831Y-62920931D01*
X55340753Y-62942437D01*
X55319272Y-62974623D01*
X55291489Y-63015854D01*
X55258505Y-63064498D01*
X55221420Y-63118920D01*
X55182147Y-63176304D01*
X55142188Y-63234995D01*
X55105456Y-63289770D01*
X55073029Y-63338958D01*
X55045985Y-63380886D01*
X55025403Y-63413884D01*
X55012361Y-63436281D01*
X55007933Y-63446314D01*
X55013771Y-63455763D01*
X55030229Y-63475362D01*
X55055727Y-63503525D01*
X55088683Y-63538663D01*
X55127515Y-63579191D01*
X55170643Y-63623520D01*
X55216486Y-63670065D01*
X55263461Y-63717237D01*
X55309987Y-63763451D01*
X55354484Y-63807119D01*
X55395370Y-63846654D01*
X55431063Y-63880468D01*
X55459983Y-63906976D01*
X55480548Y-63924590D01*
X55491176Y-63931723D01*
X55491679Y-63931800D01*
X55501471Y-63927148D01*
X55523517Y-63913914D01*
X55556162Y-63893175D01*
X55597755Y-63866011D01*
X55646642Y-63833501D01*
X55701170Y-63796725D01*
X55757542Y-63758233D01*
X55816013Y-63718346D01*
X55870510Y-63681689D01*
X55919368Y-63649342D01*
X55960921Y-63622387D01*
X55993505Y-63601903D01*
X56015455Y-63588972D01*
X56024979Y-63584667D01*
X56037356Y-63588534D01*
X56061509Y-63599176D01*
X56094405Y-63615151D01*
X56133014Y-63635018D01*
X56150750Y-63644470D01*
X56193333Y-63666579D01*
X56230477Y-63684292D01*
X56259380Y-63696370D01*
X56277239Y-63701574D01*
X56279961Y-63701620D01*
X56284274Y-63699295D01*
X56289875Y-63692754D01*
X56297222Y-63680968D01*
X56306770Y-63662912D01*
X56318976Y-63637557D01*
X56334299Y-63603876D01*
X56353193Y-63560842D01*
X56376117Y-63507429D01*
X56403527Y-63442608D01*
X56435880Y-63365353D01*
X56473632Y-63274637D01*
X56517242Y-63169433D01*
X56524899Y-63150932D01*
X56562571Y-63059547D01*
X56598147Y-62972571D01*
X56631119Y-62891292D01*
X56660977Y-62816997D01*
X56687212Y-62750977D01*
X56709313Y-62694517D01*
X56726772Y-62648906D01*
X56739080Y-62615433D01*
X56745726Y-62595386D01*
X56746732Y-62590016D01*
X56738085Y-62580162D01*
X56718461Y-62563379D01*
X56690943Y-62542171D01*
X56664378Y-62523049D01*
X56594120Y-62471285D01*
X56536745Y-62422385D01*
X56489328Y-62373138D01*
X56448946Y-62320329D01*
X56412675Y-62260745D01*
X56394894Y-62226864D01*
X56355073Y-62129481D01*
X56331206Y-62028931D01*
X56323034Y-61926922D01*
X56330295Y-61825164D01*
X56352728Y-61725366D01*
X56390073Y-61629237D01*
X56442068Y-61538485D01*
X56508454Y-61454821D01*
X56513559Y-61449353D01*
X56592970Y-61376723D01*
X56681653Y-61317703D01*
X56780743Y-61271592D01*
X56828565Y-61255012D01*
X56856444Y-61246958D01*
X56882724Y-61241387D01*
X56911576Y-61237865D01*
X56947170Y-61235956D01*
X56993677Y-61235226D01*
X57018767Y-61235167D01*
X57071474Y-61235517D01*
X57111440Y-61236860D01*
X57142845Y-61239630D01*
X57169872Y-61244263D01*
X57196703Y-61251194D01*
X57209267Y-61255004D01*
X57312590Y-61295676D01*
X57406398Y-61349817D01*
X57489717Y-61416606D01*
X57561575Y-61495223D01*
X57620998Y-61584846D01*
X57637452Y-61616167D01*
X57671739Y-61694262D01*
X57694276Y-61768211D01*
X57706567Y-61844406D01*
X57710121Y-61925200D01*
X57702023Y-62033649D01*
X57678013Y-62137109D01*
X57638520Y-62234517D01*
X57583973Y-62324813D01*
X57516407Y-62405292D01*
X57486099Y-62433618D01*
X57446729Y-62466653D01*
X57403419Y-62500421D01*
X57361294Y-62530947D01*
X57325476Y-62554257D01*
X57321102Y-62556806D01*
X57301613Y-62571642D01*
X57289880Y-62587440D01*
X57289125Y-62589748D01*
X57291546Y-62600870D01*
X57300265Y-62626722D01*
X57314946Y-62666452D01*
X57335254Y-62719211D01*
X57360854Y-62784145D01*
X57391411Y-62860406D01*
X57426590Y-62947142D01*
X57466055Y-63043502D01*
X57505120Y-63138132D01*
X57542500Y-63228302D01*
X57578143Y-63314144D01*
X57611495Y-63394332D01*
X57642001Y-63467542D01*
X57669109Y-63532448D01*
X57692263Y-63587723D01*
X57710910Y-63632043D01*
X57724497Y-63664083D01*
X57732468Y-63682516D01*
X57734244Y-63686349D01*
X57747966Y-63699861D01*
X57759315Y-63703200D01*
X57772169Y-63699324D01*
X57796758Y-63688659D01*
X57830017Y-63672646D01*
X57868882Y-63652728D01*
X57886929Y-63643121D01*
X57936610Y-63617320D01*
X57975806Y-63598983D01*
X58003207Y-63588679D01*
X58016629Y-63586729D01*
X58028533Y-63592449D01*
X58052103Y-63606500D01*
X58085152Y-63627477D01*
X58125490Y-63653974D01*
X58170931Y-63684586D01*
X58199867Y-63704435D01*
X58278062Y-63758371D01*
X58343529Y-63803359D01*
X58397413Y-63840154D01*
X58440865Y-63869510D01*
X58475031Y-63892182D01*
X58501061Y-63908926D01*
X58520102Y-63920496D01*
X58533302Y-63927647D01*
X58541809Y-63931134D01*
X58545687Y-63931800D01*
X58554465Y-63925999D01*
X58573774Y-63909463D01*
X58602233Y-63883495D01*
X58638464Y-63849396D01*
X58681086Y-63808467D01*
X58728720Y-63762011D01*
X58779984Y-63711329D01*
X58790115Y-63701236D01*
X58841773Y-63649450D01*
X58889649Y-63600971D01*
X58932405Y-63557187D01*
X58968705Y-63519491D01*
X58997212Y-63489272D01*
X59016588Y-63467920D01*
X59025498Y-63456827D01*
X59025889Y-63456022D01*
X59027388Y-63451060D01*
X59027912Y-63445989D01*
X59026608Y-63439434D01*
X59022623Y-63430021D01*
X59015105Y-63416375D01*
X59003200Y-63397121D01*
X58986058Y-63370885D01*
X58962824Y-63336292D01*
X58932647Y-63291967D01*
X58894673Y-63236535D01*
X58848051Y-63168623D01*
X58843807Y-63162443D01*
X58804397Y-63104709D01*
X58768224Y-63051064D01*
X58736377Y-63003177D01*
X58709947Y-62962714D01*
X58690024Y-62931343D01*
X58677698Y-62910730D01*
X58674000Y-62902783D01*
X58677048Y-62892118D01*
X58685683Y-62867760D01*
X58699142Y-62831711D01*
X58716662Y-62785975D01*
X58737480Y-62732556D01*
X58760832Y-62673457D01*
X58772509Y-62644179D01*
X58802071Y-62570857D01*
X58826324Y-62512085D01*
X58845873Y-62466545D01*
X58861323Y-62432920D01*
X58873278Y-62409891D01*
X58882342Y-62396142D01*
X58888926Y-62390432D01*
X58901191Y-62387202D01*
X58928106Y-62381349D01*
X58967662Y-62373271D01*
X59017847Y-62363366D01*
X59076651Y-62352030D01*
X59142062Y-62339662D01*
X59206465Y-62327690D01*
X59275865Y-62314694D01*
X59340217Y-62302258D01*
X59397565Y-62290789D01*
X59445950Y-62280696D01*
X59483415Y-62272387D01*
X59508002Y-62266268D01*
X59517615Y-62262886D01*
X59520611Y-62257601D01*
X59523064Y-62246235D01*
X59525024Y-62227352D01*
X59526538Y-62199515D01*
X59527655Y-62161286D01*
X59528423Y-62111227D01*
X59528890Y-62047902D01*
X59529105Y-61969873D01*
X59529133Y-61920125D01*
X59529133Y-61586924D01*
X59510083Y-61575171D01*
X59497604Y-61571001D01*
X59470439Y-61564287D01*
X59430574Y-61555444D01*
X59379996Y-61544887D01*
X59320693Y-61533029D01*
X59254651Y-61520286D01*
X59183857Y-61507071D01*
X59182000Y-61506731D01*
X59111540Y-61493584D01*
X59046153Y-61480957D01*
X58987758Y-61469254D01*
X58938273Y-61458877D01*
X58899616Y-61450228D01*
X58873706Y-61443711D01*
X58862461Y-61439729D01*
X58862325Y-61439611D01*
X58856183Y-61429169D01*
X58844630Y-61405511D01*
X58828704Y-61371048D01*
X58809443Y-61328188D01*
X58787882Y-61279344D01*
X58765060Y-61226923D01*
X58742014Y-61173337D01*
X58719781Y-61120996D01*
X58699397Y-61072309D01*
X58681900Y-61029686D01*
X58668328Y-60995539D01*
X58659717Y-60972275D01*
X58657067Y-60962657D01*
X58661721Y-60952959D01*
X58674982Y-60930954D01*
X58695800Y-60898249D01*
X58723126Y-60856445D01*
X58755910Y-60807148D01*
X58793100Y-60751961D01*
X58833648Y-60692489D01*
X58840096Y-60683092D01*
X58881253Y-60622897D01*
X58919408Y-60566584D01*
X58953477Y-60515790D01*
X58982380Y-60472148D01*
X59005035Y-60437293D01*
X59020361Y-60412860D01*
X59027276Y-60400484D01*
X59027511Y-60399808D01*
X59026243Y-60392966D01*
X59019309Y-60381447D01*
X59005804Y-60364259D01*
X58984824Y-60340415D01*
X58955465Y-60308924D01*
X58916820Y-60268797D01*
X58867986Y-60219044D01*
X58808059Y-60158676D01*
X58796001Y-60146583D01*
X58735970Y-60086815D01*
X58682406Y-60034298D01*
X58636219Y-59989886D01*
X58598323Y-59954436D01*
X58569627Y-59928803D01*
X58551043Y-59913843D01*
X58544124Y-59910133D01*
X58533733Y-59914788D01*
X58511072Y-59928046D01*
X58477777Y-59948851D01*
X58435485Y-59976145D01*
X58385833Y-60008871D01*
X58330456Y-60045970D01*
X58270991Y-60086386D01*
X58264523Y-60090816D01*
X58204499Y-60131881D01*
X58148296Y-60170191D01*
X58097578Y-60204622D01*
X58054008Y-60234050D01*
X58019252Y-60257352D01*
X57994974Y-60273402D01*
X57982839Y-60281078D01*
X57982413Y-60281312D01*
X57974991Y-60283569D01*
X57964101Y-60283241D01*
X57947901Y-60279719D01*
X57924553Y-60272391D01*
X57892214Y-60260646D01*
X57849045Y-60243873D01*
X57793205Y-60221463D01*
X57753813Y-60205448D01*
X57684056Y-60176969D01*
X57628353Y-60154072D01*
X57585066Y-60135970D01*
X57552560Y-60121877D01*
X57529197Y-60111005D01*
X57513341Y-60102567D01*
X57503357Y-60095777D01*
X57497606Y-60089847D01*
X57494453Y-60083990D01*
X57493091Y-60080068D01*
X57490400Y-60068227D01*
X57485011Y-60041676D01*
X57477299Y-60002358D01*
X57467639Y-59952215D01*
X57456403Y-59893190D01*
X57443966Y-59827225D01*
X57430702Y-59756264D01*
X57429341Y-59748948D01*
X57415913Y-59677802D01*
X57403053Y-59611665D01*
X57391160Y-59552444D01*
X57380633Y-59502047D01*
X57371873Y-59462380D01*
X57365278Y-59435354D01*
X57361249Y-59422874D01*
X57360980Y-59422472D01*
X57355930Y-59419395D01*
X57345395Y-59416881D01*
X57327894Y-59414878D01*
X57301945Y-59413336D01*
X57266067Y-59412203D01*
X57218780Y-59411428D01*
X57158601Y-59410961D01*
X57084050Y-59410751D01*
X57019847Y-59410729D01*
X56946291Y-59410930D01*
G04 #@! TD*
D11*
G04 #@! TO.P,SW1,2*
G04 #@! TO.N,GND*
X80432000Y-73560000D03*
X75932000Y-73560000D03*
G04 #@! TO.P,SW1,1*
G04 #@! TO.N,Net-(R5-Pad1)*
X80432000Y-77060000D03*
X75932000Y-77060000D03*
G04 #@! TD*
G04 #@! TO.P,SW2,2*
G04 #@! TO.N,GND*
X71932000Y-75110000D03*
X67432000Y-75110000D03*
G04 #@! TO.P,SW2,1*
G04 #@! TO.N,Net-(R6-Pad1)*
X71932000Y-78610000D03*
X67432000Y-78610000D03*
G04 #@! TD*
G04 #@! TO.P,SW3,2*
G04 #@! TO.N,GND*
X63432000Y-73710000D03*
X58932000Y-73710000D03*
G04 #@! TO.P,SW3,1*
G04 #@! TO.N,Net-(R10-Pad2)*
X63432000Y-77210000D03*
X58932000Y-77210000D03*
G04 #@! TD*
D12*
G04 #@! TO.P,J2,6*
G04 #@! TO.N,GND*
X68282000Y-84347500D03*
X61282000Y-84347500D03*
D13*
X67282000Y-81647500D03*
X62282000Y-81647500D03*
G04 #@! TD*
D14*
G04 #@! TO.P,TP1,1*
G04 #@! TO.N,+3V3*
X62230000Y-53213000D03*
G04 #@! TD*
G04 #@! TO.P,TP2,1*
G04 #@! TO.N,/BAT*
X55689500Y-53276500D03*
G04 #@! TD*
G04 #@! TO.P,TP5,1*
G04 #@! TO.N,GND*
X58928000Y-53213000D03*
G04 #@! TD*
G04 #@! TO.P,TP3,1*
G04 #@! TO.N,SCK*
X69913500Y-54546500D03*
G04 #@! TD*
G04 #@! TO.P,TP4,1*
G04 #@! TO.N,MOSI*
X73025000Y-54546500D03*
G04 #@! TD*
G04 #@! TO.P,TP6,1*
G04 #@! TO.N,OLED_CS*
X65532000Y-48577500D03*
G04 #@! TD*
G04 #@! TO.P,TP7,1*
G04 #@! TO.N,OLED_DC*
X59118500Y-48577500D03*
G04 #@! TD*
G04 #@! TO.P,TP8,1*
G04 #@! TO.N,OLED_RST*
X62357000Y-48577500D03*
G04 #@! TD*
D15*
G04 #@! TO.N,+3V3*
X60248800Y-80314800D03*
X66548000Y-77419200D03*
X80391000Y-59944000D03*
X70485000Y-52387500D03*
X72136000Y-52387500D03*
X61874500Y-55255500D03*
G04 #@! TO.N,GND*
X70485000Y-63119000D03*
X75057000Y-62420500D03*
X76517500Y-68262500D03*
X70929500Y-69151500D03*
X78359000Y-40259000D03*
X69900800Y-73355200D03*
X53086000Y-57150000D03*
X53086000Y-62230000D03*
X53086000Y-67310000D03*
X53086000Y-72390000D03*
X53086000Y-77470000D03*
X53086000Y-82550000D03*
X57277000Y-85344000D03*
X53086000Y-52070000D03*
X53086000Y-46609000D03*
X60833000Y-40259000D03*
X80111600Y-45872400D03*
X86207600Y-46634400D03*
X72644000Y-41021000D03*
X66675000Y-41021000D03*
X86233000Y-50800000D03*
X86233000Y-66040000D03*
X86233000Y-71120000D03*
X86233000Y-76200000D03*
X86233000Y-80010000D03*
X72390000Y-85344000D03*
X66192400Y-79857600D03*
X65341500Y-69532500D03*
X81534000Y-65913000D03*
X73914000Y-75133200D03*
X85217000Y-85090000D03*
X86233000Y-60960000D03*
X86233000Y-55880000D03*
X81788000Y-61595000D03*
X63373000Y-59182000D03*
X63754000Y-64516000D03*
X60198000Y-68834000D03*
X59499500Y-45529500D03*
G04 #@! TO.N,Net-(R6-Pad1)*
X82169000Y-74041000D03*
G04 #@! TO.N,Net-(L2-Pad1)*
X56134000Y-65786000D03*
X54356000Y-76327000D03*
G04 #@! TO.N,Net-(R5-Pad1)*
X84328000Y-64770000D03*
X84772500Y-70612000D03*
G04 #@! TO.N,Net-(R10-Pad2)*
X67716400Y-77419200D03*
G04 #@! TO.N,Net-(C1-Pad1)*
X65278000Y-58674000D03*
X55880000Y-77978000D03*
G04 #@! TO.N,BTN2*
X79121000Y-66167000D03*
X83820000Y-69786500D03*
G04 #@! TO.N,MOSI*
X75692000Y-75120500D03*
X73152000Y-56769000D03*
G04 #@! TO.N,SCK*
X77343000Y-74422000D03*
X71374000Y-56769000D03*
G04 #@! TO.N,OLED_RST*
X66802000Y-57023000D03*
X68643500Y-46482000D03*
G04 #@! TO.N,OLED_CS*
X65405000Y-57023000D03*
X67945000Y-47180500D03*
G04 #@! TO.N,/BAT*
X54118000Y-54657500D03*
G04 #@! TO.N,OLED_DC*
X68072000Y-57023000D03*
X69342000Y-47117000D03*
G04 #@! TD*
D16*
G04 #@! TO.N,+3V3*
X61417200Y-79146400D02*
X60248800Y-80314800D01*
X66548000Y-77419200D02*
X64820800Y-79146400D01*
X64820800Y-79146400D02*
X61417200Y-79146400D01*
X80391000Y-59944000D02*
X80391000Y-57213500D01*
X80391000Y-57213500D02*
X75565000Y-52387500D01*
X75565000Y-52387500D02*
X70485000Y-52387500D01*
X62230000Y-54900000D02*
X61874500Y-55255500D01*
X62230000Y-53213000D02*
X62230000Y-54900000D01*
D17*
G04 #@! TO.N,GND*
X58882000Y-73710000D02*
X58932000Y-73710000D01*
D18*
G04 #@! TO.N,Net-(R6-Pad1)*
X68032000Y-78610000D02*
X71932000Y-78610000D01*
X67432000Y-78610000D02*
X68032000Y-78610000D01*
X82169000Y-76523002D02*
X80079002Y-78613000D01*
X82169000Y-74041000D02*
X82169000Y-76523002D01*
X80076002Y-78610000D02*
X71932000Y-78610000D01*
X80079002Y-78613000D02*
X80076002Y-78610000D01*
D16*
G04 #@! TO.N,Net-(L2-Pad1)*
X54356000Y-67564000D02*
X54356000Y-76327000D01*
X56134000Y-65786000D02*
X54356000Y-67564000D01*
D18*
G04 #@! TO.N,Net-(R5-Pad1)*
X75932000Y-77060000D02*
X80432000Y-77060000D01*
X80432000Y-77060000D02*
X80482000Y-77060000D01*
X80432000Y-76510000D02*
X80432000Y-77060000D01*
X81534000Y-75408000D02*
X80432000Y-76510000D01*
X81534000Y-72009000D02*
X81534000Y-75408000D01*
X84150526Y-70739000D02*
X82804000Y-70739000D01*
X84277526Y-70612000D02*
X84150526Y-70739000D01*
X84772500Y-70612000D02*
X84277526Y-70612000D01*
X82804000Y-70739000D02*
X81534000Y-72009000D01*
X84772500Y-65214500D02*
X84328000Y-64770000D01*
X84772500Y-70612000D02*
X84772500Y-65214500D01*
G04 #@! TO.N,Net-(R10-Pad2)*
X59532000Y-77210000D02*
X63432000Y-77210000D01*
X58932000Y-77210000D02*
X59532000Y-77210000D01*
X66814700Y-76517500D02*
X67716400Y-77419200D01*
X65474500Y-77210000D02*
X66167000Y-76517500D01*
X66167000Y-76517500D02*
X66814700Y-76517500D01*
X63432000Y-77210000D02*
X65474500Y-77210000D01*
G04 #@! TO.N,Net-(C1-Pad1)*
X62738000Y-63500000D02*
X62738000Y-61214000D01*
X62738000Y-61214000D02*
X65278000Y-58674000D01*
X56832500Y-69405500D02*
X62738000Y-63500000D01*
X55880000Y-77978000D02*
X56832500Y-77025500D01*
X56832500Y-77025500D02*
X56832500Y-69405500D01*
G04 #@! TO.N,BTN2*
X82740500Y-69786500D02*
X83820000Y-69786500D01*
X79121000Y-66167000D02*
X82740500Y-69786500D01*
G04 #@! TO.N,MOSI*
X76186974Y-75120500D02*
X75692000Y-75120500D01*
X76631474Y-75565000D02*
X76186974Y-75120500D01*
X77883510Y-63373000D02*
X77883510Y-64737490D01*
X77883510Y-64737490D02*
X77185010Y-65435990D01*
X73614001Y-57231001D02*
X73614001Y-59103491D01*
X73614001Y-59103491D02*
X77883510Y-63373000D01*
X78359000Y-74993500D02*
X77787500Y-75565000D01*
X77787500Y-75565000D02*
X76631474Y-75565000D01*
X73152000Y-56769000D02*
X73614001Y-57231001D01*
X77185010Y-65435990D02*
X77185010Y-66802000D01*
X77185010Y-66802000D02*
X77883510Y-67500500D01*
X77883510Y-73311510D02*
X78359000Y-73787000D01*
X77883510Y-67500500D02*
X77883510Y-73311510D01*
X78359000Y-73787000D02*
X78359000Y-74993500D01*
X73152000Y-54673500D02*
X73025000Y-54546500D01*
X73152000Y-56769000D02*
X73152000Y-54673500D01*
G04 #@! TO.N,SCK*
X77533500Y-73279000D02*
X77343000Y-73469500D01*
X77533500Y-67691000D02*
X77533500Y-73279000D01*
X77343000Y-73469500D02*
X77343000Y-74422000D01*
X76835000Y-66992500D02*
X77533500Y-67691000D01*
X71374000Y-56769000D02*
X72136000Y-57531000D01*
X72136000Y-57531000D02*
X72136000Y-58229500D01*
X72136000Y-58229500D02*
X77533500Y-63627000D01*
X76835000Y-65278000D02*
X76835000Y-66992500D01*
X77533500Y-64579500D02*
X76835000Y-65278000D01*
X77533500Y-63627000D02*
X77533500Y-64579500D01*
X70721787Y-56769000D02*
X71374000Y-56769000D01*
X69913500Y-54546500D02*
X69913500Y-55960713D01*
X69913500Y-55960713D02*
X70721787Y-56769000D01*
G04 #@! TO.N,OLED_RST*
X68643500Y-50940012D02*
X67691000Y-51892512D01*
X67691000Y-56134000D02*
X66802000Y-57023000D01*
X67691000Y-51892512D02*
X67691000Y-56134000D01*
X68643500Y-50940012D02*
X68643500Y-46482000D01*
X64452500Y-46482000D02*
X62357000Y-48577500D01*
X68643500Y-46482000D02*
X64452500Y-46482000D01*
G04 #@! TO.N,OLED_CS*
X67945000Y-51143524D02*
X67310000Y-51778524D01*
X67310000Y-51778524D02*
X67310000Y-55499000D01*
X66336001Y-56472999D02*
X67310000Y-55499000D01*
X65955001Y-56472999D02*
X66336001Y-56472999D01*
X65405000Y-57023000D02*
X65955001Y-56472999D01*
X67945000Y-51143524D02*
X67945000Y-47180500D01*
X66929000Y-47180500D02*
X65532000Y-48577500D01*
X67945000Y-47180500D02*
X66929000Y-47180500D01*
G04 #@! TO.N,/BAT*
X55499000Y-53276500D02*
X55689500Y-53276500D01*
X54118000Y-54657500D02*
X55499000Y-53276500D01*
G04 #@! TO.N,OLED_DC*
X69342000Y-50736500D02*
X68072000Y-52006500D01*
X68072000Y-52006500D02*
X68072000Y-57023000D01*
X69342000Y-50736500D02*
X69342000Y-47117000D01*
X60118499Y-47577501D02*
X59118500Y-48577500D01*
X61814001Y-45881999D02*
X60118499Y-47577501D01*
X68931501Y-45881999D02*
X61814001Y-45881999D01*
X69342000Y-46292498D02*
X68931501Y-45881999D01*
X69342000Y-47117000D02*
X69342000Y-46292498D01*
G04 #@! TD*
D19*
G04 #@! TO.N,GND*
G36*
X62938518Y-40743060D02*
X63045217Y-40814354D01*
X63135270Y-40832267D01*
X63221701Y-40863237D01*
X63349853Y-40857000D01*
X76014147Y-40857000D01*
X76142298Y-40863237D01*
X76228728Y-40832267D01*
X76318783Y-40814354D01*
X76425481Y-40743060D01*
X77505583Y-40095000D01*
X79447001Y-40095000D01*
X79447000Y-43432387D01*
X79454506Y-43470123D01*
X79515817Y-44056735D01*
X79523561Y-44091330D01*
X79526548Y-44126660D01*
X79550158Y-44214567D01*
X79771590Y-44873162D01*
X79788567Y-44909185D01*
X79800962Y-44947033D01*
X79844161Y-45027150D01*
X80211163Y-45617141D01*
X80235972Y-45648293D01*
X80256741Y-45682273D01*
X80317213Y-45750303D01*
X80810098Y-46240042D01*
X80841412Y-46264654D01*
X80869439Y-46292943D01*
X80943939Y-46345238D01*
X81536270Y-46708452D01*
X81572408Y-46725201D01*
X81606187Y-46746281D01*
X81690718Y-46780034D01*
X81690724Y-46780036D01*
X82350720Y-46997242D01*
X82389732Y-47005226D01*
X82427466Y-47017974D01*
X82517496Y-47031375D01*
X83209762Y-47090923D01*
X83249566Y-47089718D01*
X83289218Y-47093443D01*
X83379915Y-47085773D01*
X84067316Y-46984469D01*
X84105780Y-46974138D01*
X84145221Y-46968642D01*
X84231722Y-46940313D01*
X84877379Y-46683589D01*
X84912428Y-46664691D01*
X84949553Y-46650266D01*
X85027217Y-46602797D01*
X85405439Y-46338125D01*
X86447000Y-46342159D01*
X86447001Y-76625000D01*
X86109612Y-76625000D01*
X86038611Y-76639123D01*
X86038610Y-76639123D01*
X85847268Y-76677183D01*
X85847266Y-76677184D01*
X85847263Y-76677184D01*
X85646600Y-76760303D01*
X85582315Y-76786930D01*
X85582314Y-76786931D01*
X85582311Y-76786932D01*
X85420100Y-76895319D01*
X85314323Y-77001097D01*
X85217319Y-77098100D01*
X85108932Y-77260311D01*
X85108931Y-77260314D01*
X85108930Y-77260315D01*
X85073114Y-77346783D01*
X84999184Y-77525263D01*
X84999184Y-77525265D01*
X84999183Y-77525267D01*
X84961123Y-77716610D01*
X84961123Y-78003390D01*
X84999183Y-78194733D01*
X84999184Y-78194735D01*
X84999184Y-78194737D01*
X85029673Y-78268343D01*
X85079873Y-78389534D01*
X85108932Y-78459689D01*
X85217319Y-78621900D01*
X85298432Y-78703012D01*
X85420100Y-78824681D01*
X85582311Y-78933068D01*
X85582314Y-78933069D01*
X85582315Y-78933070D01*
X85646600Y-78959697D01*
X85847263Y-79042816D01*
X85847266Y-79042816D01*
X85847268Y-79042817D01*
X86038610Y-79080877D01*
X86038611Y-79080877D01*
X86109612Y-79095000D01*
X86447000Y-79095000D01*
X86447001Y-83317290D01*
X86381405Y-83879918D01*
X86202809Y-84371944D01*
X85915810Y-84809689D01*
X85535807Y-85169670D01*
X85083180Y-85432576D01*
X84572584Y-85587220D01*
X84149269Y-85625000D01*
X69094931Y-85625000D01*
X69374390Y-85287447D01*
X69517000Y-84824500D01*
X69517000Y-84474500D01*
X68409000Y-84474500D01*
X68409000Y-84494500D01*
X68155000Y-84494500D01*
X68155000Y-84474500D01*
X67047000Y-84474500D01*
X67047000Y-84824500D01*
X67189610Y-85287447D01*
X67469069Y-85625000D01*
X62094931Y-85625000D01*
X62374390Y-85287447D01*
X62517000Y-84824500D01*
X62517000Y-84474500D01*
X61409000Y-84474500D01*
X61409000Y-84494500D01*
X61155000Y-84494500D01*
X61155000Y-84474500D01*
X60047000Y-84474500D01*
X60047000Y-84824500D01*
X60189610Y-85287447D01*
X60469069Y-85625000D01*
X55224702Y-85625000D01*
X54662082Y-85559405D01*
X54170056Y-85380809D01*
X53732311Y-85093810D01*
X53372330Y-84713807D01*
X53109424Y-84261180D01*
X52991099Y-83870500D01*
X60047000Y-83870500D01*
X60047000Y-84220500D01*
X61155000Y-84220500D01*
X61155000Y-82928769D01*
X61409000Y-82928769D01*
X61409000Y-84220500D01*
X62517000Y-84220500D01*
X62517000Y-83870500D01*
X62374390Y-83407553D01*
X62065474Y-83034420D01*
X61946232Y-82971342D01*
X62083146Y-83019812D01*
X62623444Y-82991449D01*
X62990878Y-82839253D01*
X63055793Y-82600898D01*
X66508207Y-82600898D01*
X66573122Y-82839253D01*
X67083146Y-83019812D01*
X67574945Y-82993995D01*
X67498526Y-83034420D01*
X67189610Y-83407553D01*
X67047000Y-83870500D01*
X67047000Y-84220500D01*
X68155000Y-84220500D01*
X68155000Y-82928769D01*
X68409000Y-82928769D01*
X68409000Y-84220500D01*
X69517000Y-84220500D01*
X69517000Y-83870500D01*
X69374390Y-83407553D01*
X69065474Y-83034420D01*
X68637281Y-82807908D01*
X68599609Y-82804038D01*
X68409000Y-82928769D01*
X68155000Y-82928769D01*
X67995012Y-82824076D01*
X68055793Y-82600898D01*
X67282000Y-81827105D01*
X66508207Y-82600898D01*
X63055793Y-82600898D01*
X62282000Y-81827105D01*
X61508207Y-82600898D01*
X61568988Y-82824076D01*
X61409000Y-82928769D01*
X61155000Y-82928769D01*
X60964391Y-82804038D01*
X60926719Y-82807908D01*
X60498526Y-83034420D01*
X60189610Y-83407553D01*
X60047000Y-83870500D01*
X52991099Y-83870500D01*
X52954780Y-83750584D01*
X52917000Y-83327269D01*
X52917000Y-81448646D01*
X60909688Y-81448646D01*
X60938051Y-81988944D01*
X61090247Y-82356378D01*
X61328602Y-82421293D01*
X62102395Y-81647500D01*
X62461605Y-81647500D01*
X63235398Y-82421293D01*
X63473753Y-82356378D01*
X63654312Y-81846354D01*
X63633435Y-81448646D01*
X65909688Y-81448646D01*
X65938051Y-81988944D01*
X66090247Y-82356378D01*
X66328602Y-82421293D01*
X67102395Y-81647500D01*
X67461605Y-81647500D01*
X68235398Y-82421293D01*
X68473753Y-82356378D01*
X68654312Y-81846354D01*
X68625949Y-81306056D01*
X68473753Y-80938622D01*
X68235398Y-80873707D01*
X67461605Y-81647500D01*
X67102395Y-81647500D01*
X66328602Y-80873707D01*
X66090247Y-80938622D01*
X65909688Y-81448646D01*
X63633435Y-81448646D01*
X63625949Y-81306056D01*
X63473753Y-80938622D01*
X63235398Y-80873707D01*
X62461605Y-81647500D01*
X62102395Y-81647500D01*
X61328602Y-80873707D01*
X61090247Y-80938622D01*
X60909688Y-81448646D01*
X52917000Y-81448646D01*
X52917000Y-77782071D01*
X54895000Y-77782071D01*
X54895000Y-78173929D01*
X55044958Y-78535958D01*
X55322042Y-78813042D01*
X55684071Y-78963000D01*
X56075929Y-78963000D01*
X56437958Y-78813042D01*
X56715042Y-78535958D01*
X56865000Y-78173929D01*
X56865000Y-78032446D01*
X57301038Y-77596409D01*
X57362405Y-77555405D01*
X57524854Y-77312283D01*
X57567500Y-77097888D01*
X57567500Y-77097885D01*
X57581898Y-77025501D01*
X57567500Y-76953117D01*
X57567500Y-73995750D01*
X57897000Y-73995750D01*
X57897000Y-74186310D01*
X57993673Y-74419699D01*
X58172302Y-74598327D01*
X58405691Y-74695000D01*
X58646250Y-74695000D01*
X58805000Y-74536250D01*
X58805000Y-73837000D01*
X59059000Y-73837000D01*
X59059000Y-74536250D01*
X59217750Y-74695000D01*
X59458309Y-74695000D01*
X59691698Y-74598327D01*
X59870327Y-74419699D01*
X59967000Y-74186310D01*
X59967000Y-73995750D01*
X62397000Y-73995750D01*
X62397000Y-74186310D01*
X62493673Y-74419699D01*
X62672302Y-74598327D01*
X62905691Y-74695000D01*
X63146250Y-74695000D01*
X63305000Y-74536250D01*
X63305000Y-73837000D01*
X63559000Y-73837000D01*
X63559000Y-74536250D01*
X63717750Y-74695000D01*
X63958309Y-74695000D01*
X64106324Y-74633690D01*
X66397000Y-74633690D01*
X66397000Y-74824250D01*
X66555750Y-74983000D01*
X67305000Y-74983000D01*
X67305000Y-74283750D01*
X67559000Y-74283750D01*
X67559000Y-74983000D01*
X68308250Y-74983000D01*
X68467000Y-74824250D01*
X68467000Y-74633690D01*
X70897000Y-74633690D01*
X70897000Y-74824250D01*
X71055750Y-74983000D01*
X71805000Y-74983000D01*
X71805000Y-74283750D01*
X72059000Y-74283750D01*
X72059000Y-74983000D01*
X72808250Y-74983000D01*
X72967000Y-74824250D01*
X72967000Y-74633690D01*
X72870327Y-74400301D01*
X72691698Y-74221673D01*
X72458309Y-74125000D01*
X72217750Y-74125000D01*
X72059000Y-74283750D01*
X71805000Y-74283750D01*
X71646250Y-74125000D01*
X71405691Y-74125000D01*
X71172302Y-74221673D01*
X70993673Y-74400301D01*
X70897000Y-74633690D01*
X68467000Y-74633690D01*
X68370327Y-74400301D01*
X68191698Y-74221673D01*
X67958309Y-74125000D01*
X67717750Y-74125000D01*
X67559000Y-74283750D01*
X67305000Y-74283750D01*
X67146250Y-74125000D01*
X66905691Y-74125000D01*
X66672302Y-74221673D01*
X66493673Y-74400301D01*
X66397000Y-74633690D01*
X64106324Y-74633690D01*
X64191698Y-74598327D01*
X64370327Y-74419699D01*
X64467000Y-74186310D01*
X64467000Y-73995750D01*
X64308250Y-73837000D01*
X63559000Y-73837000D01*
X63305000Y-73837000D01*
X62555750Y-73837000D01*
X62397000Y-73995750D01*
X59967000Y-73995750D01*
X59808250Y-73837000D01*
X59059000Y-73837000D01*
X58805000Y-73837000D01*
X58055750Y-73837000D01*
X57897000Y-73995750D01*
X57567500Y-73995750D01*
X57567500Y-73233690D01*
X57897000Y-73233690D01*
X57897000Y-73424250D01*
X58055750Y-73583000D01*
X58805000Y-73583000D01*
X58805000Y-72883750D01*
X59059000Y-72883750D01*
X59059000Y-73583000D01*
X59808250Y-73583000D01*
X59967000Y-73424250D01*
X59967000Y-73233690D01*
X62397000Y-73233690D01*
X62397000Y-73424250D01*
X62555750Y-73583000D01*
X63305000Y-73583000D01*
X63305000Y-72883750D01*
X63559000Y-72883750D01*
X63559000Y-73583000D01*
X64308250Y-73583000D01*
X64467000Y-73424250D01*
X64467000Y-73233690D01*
X64404868Y-73083690D01*
X74897000Y-73083690D01*
X74897000Y-73274250D01*
X75055750Y-73433000D01*
X75805000Y-73433000D01*
X75805000Y-72733750D01*
X75646250Y-72575000D01*
X75405691Y-72575000D01*
X75172302Y-72671673D01*
X74993673Y-72850301D01*
X74897000Y-73083690D01*
X64404868Y-73083690D01*
X64370327Y-73000301D01*
X64191698Y-72821673D01*
X63958309Y-72725000D01*
X63717750Y-72725000D01*
X63559000Y-72883750D01*
X63305000Y-72883750D01*
X63146250Y-72725000D01*
X62905691Y-72725000D01*
X62672302Y-72821673D01*
X62493673Y-73000301D01*
X62397000Y-73233690D01*
X59967000Y-73233690D01*
X59870327Y-73000301D01*
X59691698Y-72821673D01*
X59458309Y-72725000D01*
X59217750Y-72725000D01*
X59059000Y-72883750D01*
X58805000Y-72883750D01*
X58646250Y-72725000D01*
X58405691Y-72725000D01*
X58172302Y-72821673D01*
X57993673Y-73000301D01*
X57897000Y-73233690D01*
X57567500Y-73233690D01*
X57567500Y-69709946D01*
X63206538Y-64070909D01*
X63267905Y-64029905D01*
X63430354Y-63786783D01*
X63473000Y-63572388D01*
X63473000Y-63572385D01*
X63487398Y-63500001D01*
X63473000Y-63427617D01*
X63473000Y-61518446D01*
X65332447Y-59659000D01*
X65473929Y-59659000D01*
X65835958Y-59509042D01*
X66113042Y-59231958D01*
X66263000Y-58869929D01*
X66263000Y-58478071D01*
X66113042Y-58116042D01*
X65886650Y-57889650D01*
X65962958Y-57858042D01*
X66103500Y-57717500D01*
X66244042Y-57858042D01*
X66606071Y-58008000D01*
X66997929Y-58008000D01*
X67359958Y-57858042D01*
X67437000Y-57781000D01*
X67514042Y-57858042D01*
X67876071Y-58008000D01*
X68267929Y-58008000D01*
X68629958Y-57858042D01*
X68907042Y-57580958D01*
X69057000Y-57218929D01*
X69057000Y-56827071D01*
X68907042Y-56465042D01*
X68807000Y-56365000D01*
X68807000Y-55752239D01*
X68987347Y-55932586D01*
X69173876Y-56009849D01*
X69221146Y-56247495D01*
X69278112Y-56332750D01*
X69383596Y-56490618D01*
X69444963Y-56531622D01*
X70150877Y-57237537D01*
X70191882Y-57298905D01*
X70435004Y-57461354D01*
X70649399Y-57504000D01*
X70649402Y-57504000D01*
X70721786Y-57518398D01*
X70728969Y-57516969D01*
X70816042Y-57604042D01*
X71178071Y-57754000D01*
X71319553Y-57754000D01*
X71401000Y-57835447D01*
X71401000Y-58157116D01*
X71386602Y-58229500D01*
X71401000Y-58301884D01*
X71401000Y-58301888D01*
X71411385Y-58354093D01*
X71443646Y-58516282D01*
X71549031Y-58674001D01*
X71606096Y-58759405D01*
X71667463Y-58800409D01*
X76798500Y-63931447D01*
X76798501Y-64275053D01*
X76366465Y-64707089D01*
X76305095Y-64748095D01*
X76142646Y-64991218D01*
X76100000Y-65205613D01*
X76100000Y-65205616D01*
X76085602Y-65278000D01*
X76100000Y-65350385D01*
X76100001Y-66920111D01*
X76085602Y-66992500D01*
X76142646Y-67279282D01*
X76142647Y-67279283D01*
X76305096Y-67522405D01*
X76366463Y-67563409D01*
X76798500Y-67995447D01*
X76798501Y-72778475D01*
X76691698Y-72671673D01*
X76458309Y-72575000D01*
X76217750Y-72575000D01*
X76059000Y-72733750D01*
X76059000Y-73433000D01*
X76079000Y-73433000D01*
X76079000Y-73687000D01*
X76059000Y-73687000D01*
X76059000Y-73707000D01*
X75805000Y-73707000D01*
X75805000Y-73687000D01*
X75055750Y-73687000D01*
X74897000Y-73845750D01*
X74897000Y-74036310D01*
X74993673Y-74269699D01*
X75071737Y-74347763D01*
X74856958Y-74562542D01*
X74707000Y-74924571D01*
X74707000Y-75316429D01*
X74856958Y-75678458D01*
X75134042Y-75955542D01*
X75437693Y-76081319D01*
X75284235Y-76111843D01*
X75074191Y-76252191D01*
X74933843Y-76462235D01*
X74884560Y-76710000D01*
X74884560Y-77410000D01*
X74933843Y-77657765D01*
X75074191Y-77867809D01*
X75084953Y-77875000D01*
X72838459Y-77875000D01*
X72789809Y-77802191D01*
X72579765Y-77661843D01*
X72332000Y-77612560D01*
X71532000Y-77612560D01*
X71284235Y-77661843D01*
X71074191Y-77802191D01*
X71025541Y-77875000D01*
X68593757Y-77875000D01*
X68701400Y-77615129D01*
X68701400Y-77223271D01*
X68551442Y-76861242D01*
X68274358Y-76584158D01*
X67912329Y-76434200D01*
X67770846Y-76434200D01*
X67385611Y-76048965D01*
X67344605Y-75987595D01*
X67290084Y-75951166D01*
X67305000Y-75936250D01*
X67305000Y-75237000D01*
X67559000Y-75237000D01*
X67559000Y-75936250D01*
X67717750Y-76095000D01*
X67958309Y-76095000D01*
X68191698Y-75998327D01*
X68370327Y-75819699D01*
X68467000Y-75586310D01*
X68467000Y-75395750D01*
X70897000Y-75395750D01*
X70897000Y-75586310D01*
X70993673Y-75819699D01*
X71172302Y-75998327D01*
X71405691Y-76095000D01*
X71646250Y-76095000D01*
X71805000Y-75936250D01*
X71805000Y-75237000D01*
X72059000Y-75237000D01*
X72059000Y-75936250D01*
X72217750Y-76095000D01*
X72458309Y-76095000D01*
X72691698Y-75998327D01*
X72870327Y-75819699D01*
X72967000Y-75586310D01*
X72967000Y-75395750D01*
X72808250Y-75237000D01*
X72059000Y-75237000D01*
X71805000Y-75237000D01*
X71055750Y-75237000D01*
X70897000Y-75395750D01*
X68467000Y-75395750D01*
X68308250Y-75237000D01*
X67559000Y-75237000D01*
X67305000Y-75237000D01*
X66555750Y-75237000D01*
X66397000Y-75395750D01*
X66397000Y-75586310D01*
X66478265Y-75782500D01*
X66239384Y-75782500D01*
X66167000Y-75768102D01*
X66094616Y-75782500D01*
X66094612Y-75782500D01*
X65880217Y-75825146D01*
X65637095Y-75987595D01*
X65596090Y-76048963D01*
X65170054Y-76475000D01*
X64338459Y-76475000D01*
X64289809Y-76402191D01*
X64079765Y-76261843D01*
X63832000Y-76212560D01*
X63032000Y-76212560D01*
X62784235Y-76261843D01*
X62574191Y-76402191D01*
X62525541Y-76475000D01*
X59838459Y-76475000D01*
X59789809Y-76402191D01*
X59579765Y-76261843D01*
X59332000Y-76212560D01*
X58532000Y-76212560D01*
X58284235Y-76261843D01*
X58074191Y-76402191D01*
X57933843Y-76612235D01*
X57884560Y-76860000D01*
X57884560Y-77560000D01*
X57933843Y-77807765D01*
X58074191Y-78017809D01*
X58284235Y-78158157D01*
X58532000Y-78207440D01*
X59332000Y-78207440D01*
X59579765Y-78158157D01*
X59789809Y-78017809D01*
X59838459Y-77945000D01*
X62525541Y-77945000D01*
X62574191Y-78017809D01*
X62784235Y-78158157D01*
X63032000Y-78207440D01*
X63832000Y-78207440D01*
X64079765Y-78158157D01*
X64289809Y-78017809D01*
X64338459Y-77945000D01*
X64699911Y-77945000D01*
X64433511Y-78211400D01*
X61509285Y-78211400D01*
X61417199Y-78193083D01*
X61109733Y-78254242D01*
X61052381Y-78265650D01*
X60743103Y-78472303D01*
X60690941Y-78550369D01*
X59811553Y-79429758D01*
X59690842Y-79479758D01*
X59413758Y-79756842D01*
X59263800Y-80118871D01*
X59263800Y-80510729D01*
X59413758Y-80872758D01*
X59690842Y-81149842D01*
X60052871Y-81299800D01*
X60444729Y-81299800D01*
X60806758Y-81149842D01*
X61083842Y-80872758D01*
X61133842Y-80752047D01*
X61191787Y-80694102D01*
X61508207Y-80694102D01*
X62282000Y-81467895D01*
X63055793Y-80694102D01*
X66508207Y-80694102D01*
X67282000Y-81467895D01*
X68055793Y-80694102D01*
X67990878Y-80455747D01*
X67480854Y-80275188D01*
X66940556Y-80303551D01*
X66573122Y-80455747D01*
X66508207Y-80694102D01*
X63055793Y-80694102D01*
X62990878Y-80455747D01*
X62480854Y-80275188D01*
X61940556Y-80303551D01*
X61573122Y-80455747D01*
X61508207Y-80694102D01*
X61191787Y-80694102D01*
X61804490Y-80081400D01*
X64728714Y-80081400D01*
X64820800Y-80099717D01*
X64912886Y-80081400D01*
X65185619Y-80027150D01*
X65494897Y-79820497D01*
X65547061Y-79742428D01*
X66384560Y-78904929D01*
X66384560Y-78960000D01*
X66433843Y-79207765D01*
X66574191Y-79417809D01*
X66784235Y-79558157D01*
X67032000Y-79607440D01*
X67832000Y-79607440D01*
X68079765Y-79558157D01*
X68289809Y-79417809D01*
X68338459Y-79345000D01*
X71025541Y-79345000D01*
X71074191Y-79417809D01*
X71284235Y-79558157D01*
X71532000Y-79607440D01*
X72332000Y-79607440D01*
X72579765Y-79558157D01*
X72789809Y-79417809D01*
X72838459Y-79345000D01*
X79991532Y-79345000D01*
X80079002Y-79362399D01*
X80365784Y-79305354D01*
X80608907Y-79142905D01*
X80649913Y-79081535D01*
X82637537Y-77093912D01*
X82698905Y-77052907D01*
X82861354Y-76809785D01*
X82904000Y-76595390D01*
X82918399Y-76523002D01*
X82904000Y-76450614D01*
X82904000Y-74699000D01*
X83004042Y-74598958D01*
X83154000Y-74236929D01*
X83154000Y-73845071D01*
X83004042Y-73483042D01*
X82726958Y-73205958D01*
X82364929Y-73056000D01*
X82269000Y-73056000D01*
X82269000Y-72313446D01*
X83108447Y-71474000D01*
X84078142Y-71474000D01*
X84150526Y-71488398D01*
X84222910Y-71474000D01*
X84222914Y-71474000D01*
X84261226Y-71466379D01*
X84576571Y-71597000D01*
X84968429Y-71597000D01*
X85330458Y-71447042D01*
X85607542Y-71169958D01*
X85757500Y-70807929D01*
X85757500Y-70416071D01*
X85607542Y-70054042D01*
X85507500Y-69954000D01*
X85507500Y-65286884D01*
X85521898Y-65214500D01*
X85507500Y-65142116D01*
X85507500Y-65142112D01*
X85464854Y-64927717D01*
X85313000Y-64700452D01*
X85313000Y-64574071D01*
X85163042Y-64212042D01*
X84885958Y-63934958D01*
X84523929Y-63785000D01*
X84132071Y-63785000D01*
X83770042Y-63934958D01*
X83492958Y-64212042D01*
X83343000Y-64574071D01*
X83343000Y-64965929D01*
X83492958Y-65327958D01*
X83770042Y-65605042D01*
X84037501Y-65715828D01*
X84037500Y-68810435D01*
X84015929Y-68801500D01*
X83624071Y-68801500D01*
X83262042Y-68951458D01*
X83162000Y-69051500D01*
X83044947Y-69051500D01*
X80106000Y-66112554D01*
X80106000Y-65971071D01*
X79956042Y-65609042D01*
X79678958Y-65331958D01*
X79316929Y-65182000D01*
X78925071Y-65182000D01*
X78563042Y-65331958D01*
X78285958Y-65609042D01*
X78136000Y-65971071D01*
X78136000Y-66362929D01*
X78285958Y-66724958D01*
X78563042Y-67002042D01*
X78925071Y-67152000D01*
X79066554Y-67152000D01*
X82169591Y-70255038D01*
X82201203Y-70302350D01*
X81065465Y-71438089D01*
X81004095Y-71479095D01*
X80841646Y-71722218D01*
X80799000Y-71936613D01*
X80799000Y-71936616D01*
X80784602Y-72009000D01*
X80799000Y-72081384D01*
X80799000Y-72575000D01*
X80717750Y-72575000D01*
X80559000Y-72733750D01*
X80559000Y-73433000D01*
X80579000Y-73433000D01*
X80579000Y-73687000D01*
X80559000Y-73687000D01*
X80559000Y-74386250D01*
X80717750Y-74545000D01*
X80799001Y-74545000D01*
X80799001Y-75103552D01*
X79963465Y-75939089D01*
X79902095Y-75980095D01*
X79818636Y-76105000D01*
X79784235Y-76111843D01*
X79574191Y-76252191D01*
X79525541Y-76325000D01*
X76838459Y-76325000D01*
X76821754Y-76300000D01*
X77715116Y-76300000D01*
X77787500Y-76314398D01*
X77859884Y-76300000D01*
X77859888Y-76300000D01*
X78074283Y-76257354D01*
X78317405Y-76094905D01*
X78358411Y-76033535D01*
X78827537Y-75564410D01*
X78888905Y-75523405D01*
X79051354Y-75280283D01*
X79094000Y-75065888D01*
X79094000Y-75065885D01*
X79108398Y-74993501D01*
X79094000Y-74921117D01*
X79094000Y-73859383D01*
X79096711Y-73845750D01*
X79397000Y-73845750D01*
X79397000Y-74036310D01*
X79493673Y-74269699D01*
X79672302Y-74448327D01*
X79905691Y-74545000D01*
X80146250Y-74545000D01*
X80305000Y-74386250D01*
X80305000Y-73687000D01*
X79555750Y-73687000D01*
X79397000Y-73845750D01*
X79096711Y-73845750D01*
X79108398Y-73786999D01*
X79094000Y-73714613D01*
X79094000Y-73714612D01*
X79051354Y-73500217D01*
X78888905Y-73257095D01*
X78827538Y-73216091D01*
X78695137Y-73083690D01*
X79397000Y-73083690D01*
X79397000Y-73274250D01*
X79555750Y-73433000D01*
X80305000Y-73433000D01*
X80305000Y-72733750D01*
X80146250Y-72575000D01*
X79905691Y-72575000D01*
X79672302Y-72671673D01*
X79493673Y-72850301D01*
X79397000Y-73083690D01*
X78695137Y-73083690D01*
X78618510Y-73007064D01*
X78618510Y-67572883D01*
X78632908Y-67500499D01*
X78618510Y-67428113D01*
X78618510Y-67428112D01*
X78575864Y-67213717D01*
X78413415Y-66970595D01*
X78352048Y-66929591D01*
X77920010Y-66497554D01*
X77920010Y-65740436D01*
X78352047Y-65308400D01*
X78413415Y-65267395D01*
X78575864Y-65024273D01*
X78618510Y-64809878D01*
X78618510Y-64809875D01*
X78632908Y-64737491D01*
X78618510Y-64665107D01*
X78618510Y-63445388D01*
X78632909Y-63373000D01*
X78610193Y-63258798D01*
X78575864Y-63086217D01*
X78413415Y-62843095D01*
X78352048Y-62802091D01*
X74349001Y-58799045D01*
X74349001Y-57303384D01*
X74363399Y-57231000D01*
X74349001Y-57158614D01*
X74349001Y-57158613D01*
X74306355Y-56944218D01*
X74143906Y-56701096D01*
X74137000Y-56696482D01*
X74137000Y-56573071D01*
X73987042Y-56211042D01*
X73887000Y-56111000D01*
X73887000Y-55959159D01*
X73951153Y-55932586D01*
X74411086Y-55472653D01*
X74660000Y-54871722D01*
X74660000Y-54221278D01*
X74411086Y-53620347D01*
X74113239Y-53322500D01*
X75177711Y-53322500D01*
X79456001Y-57600790D01*
X79456000Y-59627361D01*
X79406000Y-59748071D01*
X79406000Y-60139929D01*
X79555958Y-60501958D01*
X79833042Y-60779042D01*
X80195071Y-60929000D01*
X80586929Y-60929000D01*
X80948958Y-60779042D01*
X81226042Y-60501958D01*
X81376000Y-60139929D01*
X81376000Y-59748071D01*
X81326000Y-59627361D01*
X81326000Y-57305586D01*
X81344317Y-57213500D01*
X81290754Y-56944218D01*
X81271750Y-56848681D01*
X81065097Y-56539403D01*
X80987028Y-56487239D01*
X76291261Y-51791472D01*
X76239097Y-51713403D01*
X75929819Y-51506750D01*
X75657086Y-51452500D01*
X75565000Y-51434183D01*
X75472914Y-51452500D01*
X72452639Y-51452500D01*
X72331929Y-51402500D01*
X71940071Y-51402500D01*
X71819361Y-51452500D01*
X70801639Y-51452500D01*
X70680929Y-51402500D01*
X70289071Y-51402500D01*
X69927042Y-51552458D01*
X69649958Y-51829542D01*
X69500000Y-52191571D01*
X69500000Y-52583429D01*
X69635892Y-52911500D01*
X69588278Y-52911500D01*
X68987347Y-53160414D01*
X68807000Y-53340761D01*
X68807000Y-52310946D01*
X69810538Y-51307409D01*
X69871905Y-51266405D01*
X70034354Y-51023283D01*
X70077000Y-50808888D01*
X70077000Y-50808885D01*
X70091398Y-50736501D01*
X70077000Y-50664117D01*
X70077000Y-47775000D01*
X70177042Y-47674958D01*
X70327000Y-47312929D01*
X70327000Y-46921071D01*
X70177042Y-46559042D01*
X70077000Y-46459000D01*
X70077000Y-46364881D01*
X70091398Y-46292497D01*
X70077000Y-46220113D01*
X70077000Y-46220110D01*
X70034354Y-46005715D01*
X69871905Y-45762593D01*
X69810535Y-45721587D01*
X69683948Y-45595000D01*
X77254388Y-45595000D01*
X77325389Y-45580877D01*
X77325391Y-45580877D01*
X77708074Y-45504757D01*
X77973027Y-45395010D01*
X78297451Y-45178238D01*
X78448538Y-45027150D01*
X78500237Y-44975451D01*
X78717010Y-44651027D01*
X78755780Y-44557428D01*
X78826757Y-44386074D01*
X78902877Y-44003391D01*
X78902877Y-43716607D01*
X78826757Y-43333926D01*
X78717010Y-43068974D01*
X78717010Y-43068973D01*
X78500237Y-42744549D01*
X78412243Y-42656555D01*
X78297451Y-42541762D01*
X77973027Y-42324990D01*
X77708074Y-42215243D01*
X77325391Y-42139123D01*
X77325389Y-42139123D01*
X77254388Y-42125000D01*
X62109612Y-42125000D01*
X62038611Y-42139123D01*
X62038609Y-42139123D01*
X61655926Y-42215243D01*
X61468576Y-42292846D01*
X61390973Y-42324990D01*
X61066549Y-42541763D01*
X60998954Y-42609359D01*
X60863762Y-42744549D01*
X60646990Y-43068973D01*
X60572820Y-43248035D01*
X60537243Y-43333926D01*
X60461123Y-43716607D01*
X60461123Y-44003391D01*
X60537243Y-44386074D01*
X60646990Y-44651027D01*
X60863762Y-44975451D01*
X60968406Y-45080094D01*
X61066549Y-45178237D01*
X61305420Y-45337846D01*
X61284096Y-45352094D01*
X61243091Y-45413462D01*
X59649964Y-47006590D01*
X59649961Y-47006592D01*
X59634875Y-47021678D01*
X59443722Y-46942500D01*
X58793278Y-46942500D01*
X58192347Y-47191414D01*
X57732414Y-47651347D01*
X57483500Y-48252278D01*
X57483500Y-48902722D01*
X57732414Y-49503653D01*
X58192347Y-49963586D01*
X58793278Y-50212500D01*
X59443722Y-50212500D01*
X60044653Y-49963586D01*
X60504586Y-49503653D01*
X60737750Y-48940746D01*
X60970914Y-49503653D01*
X61430847Y-49963586D01*
X62031778Y-50212500D01*
X62682222Y-50212500D01*
X63283153Y-49963586D01*
X63743086Y-49503653D01*
X63944500Y-49017397D01*
X64145914Y-49503653D01*
X64605847Y-49963586D01*
X65206778Y-50212500D01*
X65857222Y-50212500D01*
X66458153Y-49963586D01*
X66918086Y-49503653D01*
X67167000Y-48902722D01*
X67167000Y-48252278D01*
X67087822Y-48061125D01*
X67210001Y-47938946D01*
X67210000Y-50839077D01*
X66841465Y-51207613D01*
X66780095Y-51248619D01*
X66617646Y-51491742D01*
X66575000Y-51706137D01*
X66575000Y-51706140D01*
X66560602Y-51778524D01*
X66575000Y-51850908D01*
X66575001Y-55194552D01*
X66031555Y-55737999D01*
X66027385Y-55737999D01*
X65955001Y-55723601D01*
X65882617Y-55737999D01*
X65882613Y-55737999D01*
X65668218Y-55780645D01*
X65425096Y-55943094D01*
X65384091Y-56004462D01*
X65350553Y-56038000D01*
X65209071Y-56038000D01*
X64847042Y-56187958D01*
X64569958Y-56465042D01*
X64420000Y-56827071D01*
X64420000Y-57218929D01*
X64569958Y-57580958D01*
X64796350Y-57807350D01*
X64720042Y-57838958D01*
X64442958Y-58116042D01*
X64293000Y-58478071D01*
X64293000Y-58619553D01*
X62269463Y-60643091D01*
X62208096Y-60684095D01*
X62167092Y-60745462D01*
X62167091Y-60745463D01*
X62045646Y-60927218D01*
X61988602Y-61214000D01*
X62003001Y-61286389D01*
X62003000Y-63195553D01*
X56363963Y-68834591D01*
X56302596Y-68875595D01*
X56261592Y-68936962D01*
X56261591Y-68936963D01*
X56140146Y-69118718D01*
X56083102Y-69405500D01*
X56097501Y-69477889D01*
X56097500Y-76721053D01*
X55825554Y-76993000D01*
X55684071Y-76993000D01*
X55322042Y-77142958D01*
X55044958Y-77420042D01*
X54895000Y-77782071D01*
X52917000Y-77782071D01*
X52917000Y-76131071D01*
X53371000Y-76131071D01*
X53371000Y-76522929D01*
X53520958Y-76884958D01*
X53798042Y-77162042D01*
X54160071Y-77312000D01*
X54551929Y-77312000D01*
X54913958Y-77162042D01*
X55191042Y-76884958D01*
X55341000Y-76522929D01*
X55341000Y-76131071D01*
X55291000Y-76010361D01*
X55291000Y-67951289D01*
X56571248Y-66671042D01*
X56691958Y-66621042D01*
X56969042Y-66343958D01*
X57119000Y-65981929D01*
X57119000Y-65590071D01*
X56969042Y-65228042D01*
X56691958Y-64950958D01*
X56329929Y-64801000D01*
X55938071Y-64801000D01*
X55576042Y-64950958D01*
X55298958Y-65228042D01*
X55248958Y-65348752D01*
X53759972Y-66837739D01*
X53681903Y-66889903D01*
X53564982Y-67064888D01*
X53475250Y-67199182D01*
X53402683Y-67564000D01*
X53421000Y-67656086D01*
X53421001Y-76010359D01*
X53371000Y-76131071D01*
X52917000Y-76131071D01*
X52917000Y-61921445D01*
X53868530Y-61921445D01*
X53868629Y-61921947D01*
X53868530Y-61922448D01*
X53868584Y-62008315D01*
X53868791Y-62009350D01*
X53868589Y-62010385D01*
X53868861Y-62080807D01*
X53869229Y-62082622D01*
X53868885Y-62084444D01*
X53869424Y-62140909D01*
X53870090Y-62144099D01*
X53869517Y-62147308D01*
X53870377Y-62191303D01*
X53871614Y-62196942D01*
X53870699Y-62202643D01*
X53871930Y-62235656D01*
X53874411Y-62246080D01*
X53873063Y-62256706D01*
X53874717Y-62280225D01*
X53880365Y-62300909D01*
X53879079Y-62322310D01*
X53881207Y-62337822D01*
X53893204Y-62372543D01*
X53894072Y-62402701D01*
X53899976Y-62415869D01*
X53901441Y-62431991D01*
X53904095Y-62440983D01*
X53931672Y-62493527D01*
X53944354Y-62542232D01*
X53958130Y-62560451D01*
X53962758Y-62573845D01*
X53979035Y-62592203D01*
X53996233Y-62630562D01*
X53998652Y-62633966D01*
X54011987Y-62646554D01*
X54020143Y-62662095D01*
X54060282Y-62695547D01*
X54094966Y-62741416D01*
X54136368Y-62765711D01*
X54151196Y-62781991D01*
X54159671Y-62785974D01*
X54180235Y-62805387D01*
X54202051Y-62813697D01*
X54211974Y-62821966D01*
X54255169Y-62835426D01*
X54310337Y-62867800D01*
X54321170Y-62871563D01*
X54350444Y-62875628D01*
X54377198Y-62888201D01*
X54402752Y-62894535D01*
X54410823Y-62894912D01*
X54418215Y-62898164D01*
X54456546Y-62906661D01*
X54460616Y-62906750D01*
X54464366Y-62908344D01*
X54513522Y-62918598D01*
X54516224Y-62918623D01*
X54518720Y-62919660D01*
X54575460Y-62931006D01*
X54573910Y-62933317D01*
X54572924Y-62935687D01*
X54571121Y-62937512D01*
X54538694Y-62986700D01*
X54537467Y-62989714D01*
X54535202Y-62992054D01*
X54508158Y-63033982D01*
X54506340Y-63038580D01*
X54502958Y-63042181D01*
X54482376Y-63075179D01*
X54478883Y-63084422D01*
X54472339Y-63091828D01*
X54459296Y-63114226D01*
X54447574Y-63148343D01*
X54426850Y-63177869D01*
X54422422Y-63187902D01*
X54409585Y-63245503D01*
X54385074Y-63299186D01*
X54383840Y-63333833D01*
X54378151Y-63350389D01*
X54379901Y-63378693D01*
X54368101Y-63431638D01*
X54378284Y-63489768D01*
X54376183Y-63548744D01*
X54393238Y-63594459D01*
X54393558Y-63599629D01*
X54399418Y-63611624D01*
X54403464Y-63648443D01*
X54407307Y-63655441D01*
X54411190Y-63677608D01*
X54442841Y-63727412D01*
X54463470Y-63782707D01*
X54469308Y-63792156D01*
X54501160Y-63826361D01*
X54523656Y-63867330D01*
X54540115Y-63886930D01*
X54549566Y-63894510D01*
X54555790Y-63904906D01*
X54581288Y-63933069D01*
X54585889Y-63936485D01*
X54588917Y-63941347D01*
X54621873Y-63976485D01*
X54624700Y-63978508D01*
X54626569Y-63981439D01*
X54665401Y-64021967D01*
X54667440Y-64023393D01*
X54668795Y-64025483D01*
X54711923Y-64069811D01*
X54713570Y-64070944D01*
X54714669Y-64072617D01*
X54760512Y-64119162D01*
X54761999Y-64120172D01*
X54762992Y-64121665D01*
X54809967Y-64168837D01*
X54811444Y-64169829D01*
X54812438Y-64171305D01*
X54858963Y-64217519D01*
X54860606Y-64218609D01*
X54861714Y-64220234D01*
X54906211Y-64263903D01*
X54908228Y-64265224D01*
X54909601Y-64267205D01*
X54950487Y-64306740D01*
X54953290Y-64308545D01*
X54955216Y-64311266D01*
X54990909Y-64345081D01*
X54995448Y-64347939D01*
X54998617Y-64352263D01*
X55027537Y-64378771D01*
X55036893Y-64384450D01*
X55043656Y-64393054D01*
X55064221Y-64410668D01*
X55097199Y-64429197D01*
X55123892Y-64456000D01*
X55134520Y-64463133D01*
X55148463Y-64468942D01*
X55159607Y-64479137D01*
X55221709Y-64501683D01*
X55277112Y-64534760D01*
X55322364Y-64541393D01*
X55365030Y-64559168D01*
X55380135Y-64559199D01*
X55394332Y-64564353D01*
X55394835Y-64564430D01*
X55459821Y-64561540D01*
X55524188Y-64570974D01*
X55569316Y-64559587D01*
X55584667Y-64559618D01*
X55595804Y-64560158D01*
X55597237Y-64559644D01*
X55614745Y-64559680D01*
X55628439Y-64554041D01*
X55644304Y-64553335D01*
X55703239Y-64525794D01*
X55766314Y-64509879D01*
X55776106Y-64505227D01*
X55801301Y-64486474D01*
X55830865Y-64475873D01*
X55852911Y-64462639D01*
X55859016Y-64457099D01*
X55866704Y-64454120D01*
X55899349Y-64433381D01*
X55902314Y-64430550D01*
X55906118Y-64429021D01*
X55947711Y-64401857D01*
X55949646Y-64399962D01*
X55952149Y-64398932D01*
X56001036Y-64366422D01*
X56002542Y-64364922D01*
X56004501Y-64364101D01*
X56059030Y-64327325D01*
X56060347Y-64325997D01*
X56062067Y-64325264D01*
X56082363Y-64311406D01*
X56098194Y-64316019D01*
X56183111Y-64323442D01*
X56183340Y-64323492D01*
X56184927Y-64324091D01*
X56185957Y-64324058D01*
X56266425Y-64341483D01*
X56269147Y-64341529D01*
X56306826Y-64334694D01*
X56327893Y-64336693D01*
X56333673Y-64337385D01*
X56334054Y-64337278D01*
X56344945Y-64338312D01*
X56346777Y-64337749D01*
X56346960Y-64337765D01*
X56355777Y-64334984D01*
X56414923Y-64316814D01*
X56434518Y-64316194D01*
X56451769Y-64308401D01*
X56514852Y-64296957D01*
X56543529Y-64278489D01*
X56574100Y-64269909D01*
X56578267Y-64266633D01*
X56583650Y-64264979D01*
X56587963Y-64262654D01*
X56630064Y-64227852D01*
X56662088Y-64213385D01*
X56688789Y-64184940D01*
X56724797Y-64161750D01*
X56740520Y-64139059D01*
X56770403Y-64115563D01*
X56776004Y-64109022D01*
X56777898Y-64105650D01*
X56780434Y-64103554D01*
X56800210Y-64066239D01*
X56832992Y-64031315D01*
X56840339Y-64019530D01*
X56848470Y-63997998D01*
X56862989Y-63980145D01*
X56872537Y-63962090D01*
X56876048Y-63950329D01*
X56883429Y-63940518D01*
X56895634Y-63915163D01*
X56897398Y-63908322D01*
X56901523Y-63902584D01*
X56916846Y-63868903D01*
X56917833Y-63864699D01*
X56920306Y-63861161D01*
X56939200Y-63818127D01*
X56939783Y-63815485D01*
X56941315Y-63813255D01*
X56964240Y-63759841D01*
X56964602Y-63758134D01*
X56965583Y-63756689D01*
X56992993Y-63691868D01*
X56993222Y-63690760D01*
X56993852Y-63689825D01*
X57017631Y-63633044D01*
X57020570Y-63640111D01*
X57020689Y-63640288D01*
X57020731Y-63640498D01*
X57051237Y-63713709D01*
X57051385Y-63713930D01*
X57051438Y-63714191D01*
X57078546Y-63779096D01*
X57078738Y-63779381D01*
X57078806Y-63779718D01*
X57101960Y-63834994D01*
X57102246Y-63835419D01*
X57102349Y-63835921D01*
X57120996Y-63880241D01*
X57121513Y-63881006D01*
X57121700Y-63881906D01*
X57135287Y-63913946D01*
X57136583Y-63915852D01*
X57137068Y-63918105D01*
X57145039Y-63936539D01*
X57149802Y-63943435D01*
X57151774Y-63951578D01*
X57153550Y-63955410D01*
X57182661Y-63995316D01*
X57186087Y-64006278D01*
X57221806Y-64049065D01*
X57285199Y-64142373D01*
X57298921Y-64155885D01*
X57300597Y-64156986D01*
X57300717Y-64157151D01*
X57302547Y-64158267D01*
X57325632Y-64173437D01*
X57346118Y-64197976D01*
X57419182Y-64236245D01*
X57456688Y-64267129D01*
X57478219Y-64273699D01*
X57507615Y-64293015D01*
X57539014Y-64299009D01*
X57567327Y-64313839D01*
X57578676Y-64317178D01*
X57638283Y-64322545D01*
X57695530Y-64340014D01*
X57734193Y-64336270D01*
X57752901Y-64339842D01*
X57768421Y-64336630D01*
X57782757Y-64339236D01*
X57794788Y-64336635D01*
X57827385Y-64339570D01*
X57884512Y-64321716D01*
X57944083Y-64315948D01*
X57954741Y-64312735D01*
X57981063Y-64330823D01*
X57981946Y-64331202D01*
X57982619Y-64331889D01*
X58036503Y-64368684D01*
X58037992Y-64369319D01*
X58039133Y-64370471D01*
X58082585Y-64399827D01*
X58085079Y-64400875D01*
X58086996Y-64402780D01*
X58121162Y-64425452D01*
X58125456Y-64427215D01*
X58128794Y-64430438D01*
X58154823Y-64447182D01*
X58162578Y-64450237D01*
X58168718Y-64455870D01*
X58187759Y-64467440D01*
X58199658Y-64471779D01*
X58200345Y-64472431D01*
X58203878Y-64473787D01*
X58215248Y-64483225D01*
X58228448Y-64490376D01*
X58261624Y-64500643D01*
X58290568Y-64519829D01*
X58299075Y-64523317D01*
X58362499Y-64535690D01*
X58417643Y-64558860D01*
X58425668Y-64558901D01*
X58433483Y-64561900D01*
X58437361Y-64562566D01*
X58459803Y-64561976D01*
X58467001Y-64564204D01*
X58495232Y-64561583D01*
X58498280Y-64562178D01*
X58505102Y-64564092D01*
X58506955Y-64563870D01*
X58544170Y-64571130D01*
X58600113Y-64559787D01*
X58667355Y-64560129D01*
X58676798Y-64556274D01*
X58686990Y-64556006D01*
X58729024Y-64537287D01*
X58753047Y-64534411D01*
X58768732Y-64525599D01*
X58788906Y-64521509D01*
X58830399Y-64493562D01*
X58898545Y-64465740D01*
X58907323Y-64459938D01*
X58911096Y-64456203D01*
X58915107Y-64454417D01*
X58937554Y-64430758D01*
X58970760Y-64412104D01*
X58990069Y-64395568D01*
X58996394Y-64387522D01*
X59005159Y-64382229D01*
X59033618Y-64356261D01*
X59036600Y-64352212D01*
X59040861Y-64349548D01*
X59077092Y-64315449D01*
X59078992Y-64312784D01*
X59081751Y-64311020D01*
X59124374Y-64270090D01*
X59125819Y-64268020D01*
X59127933Y-64266645D01*
X59175568Y-64220189D01*
X59176826Y-64218357D01*
X59178677Y-64217135D01*
X59229942Y-64166453D01*
X59230642Y-64165419D01*
X59231681Y-64164727D01*
X59241813Y-64154634D01*
X59242380Y-64153789D01*
X59243223Y-64153224D01*
X59294881Y-64101438D01*
X59295789Y-64100075D01*
X59297145Y-64099157D01*
X59345021Y-64050678D01*
X59346029Y-64049148D01*
X59347541Y-64048112D01*
X59390297Y-64004328D01*
X59391539Y-64002420D01*
X59393409Y-64001119D01*
X59429709Y-63963423D01*
X59431518Y-63960601D01*
X59434248Y-63958660D01*
X59462755Y-63928441D01*
X59466099Y-63923106D01*
X59471159Y-63919358D01*
X59490535Y-63898006D01*
X59500590Y-63881253D01*
X59515562Y-63868700D01*
X59524472Y-63857608D01*
X59546749Y-63814853D01*
X59560059Y-63801543D01*
X59567941Y-63782513D01*
X59590365Y-63755455D01*
X59592829Y-63747469D01*
X59601183Y-63736446D01*
X59601574Y-63735640D01*
X59612066Y-63695524D01*
X59619045Y-63683896D01*
X59619629Y-63679973D01*
X59619777Y-63679748D01*
X59620800Y-63674389D01*
X59638543Y-63641102D01*
X59640042Y-63636141D01*
X59643567Y-63599927D01*
X59655617Y-63570834D01*
X59655616Y-63544004D01*
X59663998Y-63516843D01*
X59664522Y-63511772D01*
X59663362Y-63499388D01*
X59664758Y-63494051D01*
X59660758Y-63465013D01*
X59666589Y-63434459D01*
X59661885Y-63411735D01*
X59664234Y-63387600D01*
X59658012Y-63367174D01*
X59658694Y-63359217D01*
X59655613Y-63349504D01*
X59655612Y-63321119D01*
X59654308Y-63314564D01*
X59643641Y-63288813D01*
X59641237Y-63263144D01*
X59624612Y-63231679D01*
X59615969Y-63189928D01*
X59611984Y-63180515D01*
X59593257Y-63152955D01*
X59583181Y-63121193D01*
X59575663Y-63107547D01*
X59565158Y-63095073D01*
X59559453Y-63079797D01*
X59547549Y-63060543D01*
X59542008Y-63054597D01*
X59538976Y-63047058D01*
X59521834Y-63020821D01*
X59518939Y-63017866D01*
X59517348Y-63014050D01*
X59494114Y-62979457D01*
X59492658Y-62978008D01*
X59491857Y-62976120D01*
X59461680Y-62931795D01*
X59461007Y-62931134D01*
X59460858Y-62930785D01*
X59461650Y-62930632D01*
X59463609Y-62929833D01*
X59465725Y-62929831D01*
X59523073Y-62918362D01*
X59525562Y-62917328D01*
X59528254Y-62917303D01*
X59576639Y-62907210D01*
X59580417Y-62905604D01*
X59584522Y-62905514D01*
X59621987Y-62897205D01*
X59629632Y-62893840D01*
X59637978Y-62893443D01*
X59662565Y-62887324D01*
X59676882Y-62880579D01*
X59688127Y-62879753D01*
X59702418Y-62872565D01*
X59720402Y-62869995D01*
X59730016Y-62866613D01*
X59815491Y-62815997D01*
X59867504Y-62795434D01*
X59876877Y-62786360D01*
X59888467Y-62780900D01*
X59891673Y-62777373D01*
X59911213Y-62767545D01*
X59925745Y-62750709D01*
X59944884Y-62739375D01*
X59996480Y-62670574D01*
X60046919Y-62621744D01*
X60056862Y-62598798D01*
X60074376Y-62578507D01*
X60077372Y-62573222D01*
X60083592Y-62554412D01*
X60094704Y-62539595D01*
X60112323Y-62470812D01*
X60146207Y-62392617D01*
X60148660Y-62381250D01*
X60149062Y-62356430D01*
X60155774Y-62336134D01*
X60155103Y-62327001D01*
X60159644Y-62312310D01*
X60161604Y-62293428D01*
X60160125Y-62277555D01*
X60164080Y-62262109D01*
X60165594Y-62234272D01*
X60164436Y-62226176D01*
X60166265Y-62218207D01*
X60167382Y-62179978D01*
X60166630Y-62175523D01*
X60167580Y-62171104D01*
X60168348Y-62121045D01*
X60167881Y-62118491D01*
X60168406Y-62115947D01*
X60168873Y-62052621D01*
X60168590Y-62051142D01*
X60168888Y-62049665D01*
X60169103Y-61971637D01*
X60168965Y-61970934D01*
X60169105Y-61970233D01*
X60169133Y-61920485D01*
X60169097Y-61920305D01*
X60169133Y-61920125D01*
X60169133Y-61586924D01*
X60154598Y-61513850D01*
X60151897Y-61439396D01*
X60130468Y-61392542D01*
X60120416Y-61342007D01*
X60079022Y-61280057D01*
X60048035Y-61212304D01*
X60010306Y-61177216D01*
X59981681Y-61134376D01*
X59942143Y-61107957D01*
X59929772Y-61091993D01*
X59901006Y-61075567D01*
X59865176Y-61042245D01*
X59846126Y-61030492D01*
X59801138Y-61013741D01*
X59774050Y-60995641D01*
X59754082Y-60991669D01*
X59712921Y-60968165D01*
X59700442Y-60963995D01*
X59674678Y-60960728D01*
X59651163Y-60949696D01*
X59623998Y-60942982D01*
X59616189Y-60942623D01*
X59609037Y-60939475D01*
X59569172Y-60930632D01*
X59565095Y-60930543D01*
X59561341Y-60928946D01*
X59510763Y-60918389D01*
X59508019Y-60918363D01*
X59505484Y-60917310D01*
X59460790Y-60908373D01*
X59484990Y-60872292D01*
X59485724Y-60870529D01*
X59487068Y-60869174D01*
X59515971Y-60825532D01*
X59517033Y-60822938D01*
X59518989Y-60820932D01*
X59541644Y-60786077D01*
X59543593Y-60781197D01*
X59547201Y-60777375D01*
X59562527Y-60752942D01*
X59568386Y-60737559D01*
X59579064Y-60725031D01*
X59585979Y-60712655D01*
X59603309Y-60659141D01*
X59631790Y-60610633D01*
X59632025Y-60609957D01*
X59637587Y-60569972D01*
X59647054Y-60547938D01*
X59647357Y-60547294D01*
X59647360Y-60547225D01*
X59653524Y-60532879D01*
X59653917Y-60502864D01*
X59662913Y-60475086D01*
X59658496Y-60419658D01*
X59666430Y-60362623D01*
X59657668Y-60328940D01*
X59659136Y-60297856D01*
X59656693Y-60291068D01*
X59656796Y-60283186D01*
X59655528Y-60276343D01*
X59644966Y-60249869D01*
X59643077Y-60226160D01*
X59635807Y-60211927D01*
X59635560Y-60208719D01*
X59616759Y-60171673D01*
X59603565Y-60120950D01*
X59588087Y-60100470D01*
X59574563Y-60062898D01*
X59567629Y-60051379D01*
X59564335Y-60047759D01*
X59562997Y-60044404D01*
X59540397Y-60021204D01*
X59522551Y-59986039D01*
X59509046Y-59968851D01*
X59495339Y-59957106D01*
X59486288Y-59941488D01*
X59465308Y-59917644D01*
X59457869Y-59911955D01*
X59452941Y-59903990D01*
X59423582Y-59872499D01*
X59419297Y-59869413D01*
X59416446Y-59864968D01*
X59377801Y-59824841D01*
X59375261Y-59823074D01*
X59373567Y-59820487D01*
X59324733Y-59770734D01*
X59323209Y-59769695D01*
X59322190Y-59768158D01*
X59262263Y-59707790D01*
X59261663Y-59707386D01*
X59261262Y-59706784D01*
X59249205Y-59694691D01*
X59248218Y-59694029D01*
X59247555Y-59693042D01*
X59187524Y-59633274D01*
X59185440Y-59631888D01*
X59184030Y-59629822D01*
X59130466Y-59577305D01*
X59127814Y-59575571D01*
X59126003Y-59572972D01*
X59079816Y-59528560D01*
X59076044Y-59526145D01*
X59073432Y-59522505D01*
X59035536Y-59487056D01*
X59029182Y-59483110D01*
X59024680Y-59477131D01*
X58995984Y-59451499D01*
X58981636Y-59443040D01*
X58970948Y-59430264D01*
X58952364Y-59415304D01*
X58899520Y-59387696D01*
X58853480Y-59349811D01*
X58846561Y-59346101D01*
X58807068Y-59334064D01*
X58772106Y-59312117D01*
X58746566Y-59307789D01*
X58731033Y-59299674D01*
X58698050Y-59296740D01*
X58695812Y-59295652D01*
X58677434Y-59294554D01*
X58607694Y-59273298D01*
X58566603Y-59277291D01*
X58525901Y-59270393D01*
X58491171Y-59278335D01*
X58482299Y-59277546D01*
X58467984Y-59282036D01*
X58446541Y-59280755D01*
X58413568Y-59292160D01*
X58359148Y-59297448D01*
X58322718Y-59316859D01*
X58282470Y-59326063D01*
X58272079Y-59330718D01*
X58243578Y-59350959D01*
X58210545Y-59362385D01*
X58187884Y-59375643D01*
X58180792Y-59381935D01*
X58171924Y-59385295D01*
X58138629Y-59406100D01*
X58135162Y-59409361D01*
X58130737Y-59411112D01*
X58088444Y-59438406D01*
X58086187Y-59440593D01*
X58083278Y-59441776D01*
X58033626Y-59474502D01*
X58031883Y-59476223D01*
X58029622Y-59477163D01*
X58028915Y-59477637D01*
X58018632Y-59426433D01*
X58017663Y-59424106D01*
X58017639Y-59421584D01*
X58007112Y-59371187D01*
X58005653Y-59367758D01*
X58005575Y-59364036D01*
X57996815Y-59324369D01*
X57993937Y-59317813D01*
X57993629Y-59310657D01*
X57987034Y-59283631D01*
X57983067Y-59275109D01*
X57982915Y-59271485D01*
X57976541Y-59257750D01*
X57974326Y-59238731D01*
X57970297Y-59226251D01*
X57927128Y-59148825D01*
X57908091Y-59102954D01*
X57901162Y-59084250D01*
X57899654Y-59082623D01*
X57893150Y-59066951D01*
X57892881Y-59066548D01*
X57883420Y-59057100D01*
X57877792Y-59044973D01*
X57860209Y-59028802D01*
X57848692Y-59008146D01*
X57780858Y-58954463D01*
X57731404Y-58901110D01*
X57723654Y-58897550D01*
X57716186Y-58890092D01*
X57703830Y-58884984D01*
X57693990Y-58875934D01*
X57688940Y-58872856D01*
X57668104Y-58865229D01*
X57652877Y-58853179D01*
X57609801Y-58840943D01*
X57607455Y-58839165D01*
X57582145Y-58832548D01*
X57504484Y-58796875D01*
X57493949Y-58794361D01*
X57472241Y-58793538D01*
X57454440Y-58787022D01*
X57438879Y-58787673D01*
X57418168Y-58781032D01*
X57400667Y-58779029D01*
X57383005Y-58780488D01*
X57365859Y-58776005D01*
X57339910Y-58774463D01*
X57330953Y-58775698D01*
X57322146Y-58773655D01*
X57286268Y-58772522D01*
X57281389Y-58773333D01*
X57276554Y-58772289D01*
X57229268Y-58771514D01*
X57226502Y-58772017D01*
X57223747Y-58771447D01*
X57163567Y-58770980D01*
X57161982Y-58771283D01*
X57160403Y-58770964D01*
X57085853Y-58770754D01*
X57085062Y-58770909D01*
X57084269Y-58770751D01*
X57020066Y-58770729D01*
X57019083Y-58770924D01*
X57018098Y-58770731D01*
X56944542Y-58770932D01*
X56943000Y-58771243D01*
X56941456Y-58770948D01*
X56873021Y-58771465D01*
X56871306Y-58771820D01*
X56869583Y-58771500D01*
X56808161Y-58772294D01*
X56806015Y-58772750D01*
X56803859Y-58772365D01*
X56751344Y-58773397D01*
X56748210Y-58774085D01*
X56745041Y-58773551D01*
X56703325Y-58774782D01*
X56697487Y-58776123D01*
X56691566Y-58775238D01*
X56662542Y-58776629D01*
X56644773Y-58781057D01*
X56626533Y-58779374D01*
X56612092Y-58780886D01*
X56541446Y-58802791D01*
X56468204Y-58813027D01*
X56467116Y-58813406D01*
X56454648Y-58820737D01*
X56440425Y-58823375D01*
X56408789Y-58843925D01*
X56373580Y-58854842D01*
X56317768Y-58901223D01*
X56251856Y-58939979D01*
X56243142Y-58951524D01*
X56231011Y-58959404D01*
X56208723Y-58991841D01*
X56181524Y-59014444D01*
X56172244Y-59032065D01*
X56166350Y-59037214D01*
X56143194Y-59083944D01*
X56101418Y-59139294D01*
X56097785Y-59153296D01*
X56089594Y-59165217D01*
X56085299Y-59175216D01*
X56077485Y-59211999D01*
X56065165Y-59235393D01*
X56064482Y-59242795D01*
X56055478Y-59260966D01*
X56048586Y-59286493D01*
X56047797Y-59298194D01*
X56042971Y-59308886D01*
X56033731Y-59348775D01*
X56033555Y-59354386D01*
X56031335Y-59359541D01*
X56019998Y-59412628D01*
X56019949Y-59416098D01*
X56018610Y-59419300D01*
X56006786Y-59477704D01*
X55965813Y-59450468D01*
X55963301Y-59449434D01*
X55961359Y-59447534D01*
X55917270Y-59418754D01*
X55913590Y-59417276D01*
X55910724Y-59414538D01*
X55875375Y-59392071D01*
X55868511Y-59389410D01*
X55863073Y-59384446D01*
X55838062Y-59369333D01*
X55817027Y-59361721D01*
X55799507Y-59347816D01*
X55786431Y-59341099D01*
X55711068Y-59319575D01*
X55641818Y-59287711D01*
X55635653Y-59287473D01*
X55629930Y-59284983D01*
X55628788Y-59284735D01*
X55586456Y-59283987D01*
X55546316Y-59272523D01*
X55471422Y-59281137D01*
X55392288Y-59278084D01*
X55385910Y-59280442D01*
X55379112Y-59280322D01*
X55338084Y-59296473D01*
X55298236Y-59301056D01*
X55234778Y-59336320D01*
X55158069Y-59364681D01*
X55148533Y-59370534D01*
X55147486Y-59371503D01*
X55146752Y-59371792D01*
X55136880Y-59381321D01*
X55113576Y-59402894D01*
X55071821Y-59425814D01*
X55052165Y-59442316D01*
X55044409Y-59451984D01*
X55033776Y-59458360D01*
X55005580Y-59483925D01*
X55002081Y-59488645D01*
X54997097Y-59491757D01*
X54961948Y-59524801D01*
X54959872Y-59527709D01*
X54956862Y-59529635D01*
X54916344Y-59568572D01*
X54914885Y-59570664D01*
X54912748Y-59572055D01*
X54868447Y-59615299D01*
X54867283Y-59616997D01*
X54865567Y-59618129D01*
X54819067Y-59664096D01*
X54818033Y-59665624D01*
X54816499Y-59666649D01*
X54769385Y-59713753D01*
X54768367Y-59715276D01*
X54766847Y-59716304D01*
X54720703Y-59762960D01*
X54719588Y-59764649D01*
X54717920Y-59765792D01*
X54674330Y-59810415D01*
X54672979Y-59812490D01*
X54670948Y-59813904D01*
X54631499Y-59854907D01*
X54629647Y-59857798D01*
X54626849Y-59859791D01*
X54593125Y-59895591D01*
X54590198Y-59900268D01*
X54585761Y-59903543D01*
X54559346Y-59932553D01*
X54553528Y-59942209D01*
X54544694Y-59949215D01*
X54527173Y-59969851D01*
X54508220Y-60003926D01*
X54480812Y-60031660D01*
X54473770Y-60042335D01*
X54467716Y-60057199D01*
X54457011Y-60069159D01*
X54437879Y-60123701D01*
X54408226Y-60171733D01*
X54399767Y-60224020D01*
X54379572Y-60273602D01*
X54379667Y-60289652D01*
X54374354Y-60304798D01*
X54374286Y-60305277D01*
X54377432Y-60362083D01*
X54368347Y-60418244D01*
X54380410Y-60469231D01*
X54378960Y-60495476D01*
X54380915Y-60501048D01*
X54381047Y-60523313D01*
X54387167Y-60537846D01*
X54388096Y-60554610D01*
X54412740Y-60605886D01*
X54425839Y-60661251D01*
X54430500Y-60671451D01*
X54450394Y-60699024D01*
X54461652Y-60731103D01*
X54474925Y-60753557D01*
X54480997Y-60760340D01*
X54484250Y-60768839D01*
X54505068Y-60801909D01*
X54508210Y-60805226D01*
X54509903Y-60809472D01*
X54537201Y-60851516D01*
X54539299Y-60853670D01*
X54540439Y-60856454D01*
X54573151Y-60905832D01*
X54574813Y-60907507D01*
X54575401Y-60908914D01*
X54561043Y-60911739D01*
X54558394Y-60912830D01*
X54555529Y-60912849D01*
X54494966Y-60925317D01*
X54491161Y-60926923D01*
X54487029Y-60927003D01*
X54438649Y-60937604D01*
X54432111Y-60940462D01*
X54424984Y-60940756D01*
X54390020Y-60949224D01*
X54374525Y-60956405D01*
X54357523Y-60958006D01*
X54337209Y-60964073D01*
X54280442Y-60994102D01*
X54218973Y-61012712D01*
X54214196Y-61015262D01*
X54176377Y-61046265D01*
X54132262Y-61067348D01*
X54123448Y-61077152D01*
X54116476Y-61080840D01*
X54091387Y-61111144D01*
X54087233Y-61113599D01*
X54075996Y-61128553D01*
X54021077Y-61173574D01*
X53998002Y-61216687D01*
X53965311Y-61253050D01*
X53958915Y-61271156D01*
X53957230Y-61273191D01*
X53950649Y-61294555D01*
X53950107Y-61296088D01*
X53937222Y-61313236D01*
X53928800Y-61345986D01*
X53903241Y-61393740D01*
X53898422Y-61442398D01*
X53882134Y-61488505D01*
X53880600Y-61499142D01*
X53882110Y-61527539D01*
X53875027Y-61555082D01*
X53873604Y-61580759D01*
X53874638Y-61588047D01*
X53872967Y-61595215D01*
X53871695Y-61634040D01*
X53872286Y-61637620D01*
X53871502Y-61641160D01*
X53870419Y-61691243D01*
X53870829Y-61693566D01*
X53870335Y-61695875D01*
X53869480Y-61755319D01*
X53869811Y-61757119D01*
X53869439Y-61758909D01*
X53868852Y-61825825D01*
X53869150Y-61827398D01*
X53868832Y-61828967D01*
X53868552Y-61901460D01*
X53868734Y-61902395D01*
X53868547Y-61903331D01*
X53868530Y-61921445D01*
X52917000Y-61921445D01*
X52917000Y-54461571D01*
X53133000Y-54461571D01*
X53133000Y-54853429D01*
X53282958Y-55215458D01*
X53560042Y-55492542D01*
X53922071Y-55642500D01*
X54313929Y-55642500D01*
X54675958Y-55492542D01*
X54953042Y-55215458D01*
X55103000Y-54853429D01*
X55103000Y-54803275D01*
X55364278Y-54911500D01*
X56014722Y-54911500D01*
X56615653Y-54662586D01*
X56912707Y-54365532D01*
X57955073Y-54365532D01*
X58053736Y-54632387D01*
X58663461Y-54858908D01*
X59313460Y-54834856D01*
X59802264Y-54632387D01*
X59900927Y-54365532D01*
X58928000Y-53392605D01*
X57955073Y-54365532D01*
X56912707Y-54365532D01*
X57075586Y-54202653D01*
X57315998Y-53622249D01*
X57508613Y-54087264D01*
X57775468Y-54185927D01*
X58748395Y-53213000D01*
X59107605Y-53213000D01*
X60080532Y-54185927D01*
X60347387Y-54087264D01*
X60573908Y-53477539D01*
X60552085Y-52887778D01*
X60595000Y-52887778D01*
X60595000Y-53538222D01*
X60843914Y-54139153D01*
X61220881Y-54516120D01*
X61039458Y-54697542D01*
X60889500Y-55059571D01*
X60889500Y-55451429D01*
X61039458Y-55813458D01*
X61316542Y-56090542D01*
X61678571Y-56240500D01*
X62070429Y-56240500D01*
X62432458Y-56090542D01*
X62709542Y-55813458D01*
X62759543Y-55692746D01*
X62826028Y-55626261D01*
X62904097Y-55574097D01*
X63110750Y-55264819D01*
X63165000Y-54992086D01*
X63183317Y-54900000D01*
X63165000Y-54807914D01*
X63165000Y-54590239D01*
X63616086Y-54139153D01*
X63865000Y-53538222D01*
X63865000Y-52887778D01*
X63616086Y-52286847D01*
X63156153Y-51826914D01*
X62555222Y-51578000D01*
X61904778Y-51578000D01*
X61303847Y-51826914D01*
X60843914Y-52286847D01*
X60595000Y-52887778D01*
X60552085Y-52887778D01*
X60549856Y-52827540D01*
X60347387Y-52338736D01*
X60080532Y-52240073D01*
X59107605Y-53213000D01*
X58748395Y-53213000D01*
X57775468Y-52240073D01*
X57508613Y-52338736D01*
X57301592Y-52895973D01*
X57075586Y-52350347D01*
X56785707Y-52060468D01*
X57955073Y-52060468D01*
X58928000Y-53033395D01*
X59900927Y-52060468D01*
X59802264Y-51793613D01*
X59192539Y-51567092D01*
X58542540Y-51591144D01*
X58053736Y-51793613D01*
X57955073Y-52060468D01*
X56785707Y-52060468D01*
X56615653Y-51890414D01*
X56014722Y-51641500D01*
X55364278Y-51641500D01*
X54763347Y-51890414D01*
X54303414Y-52350347D01*
X54054500Y-52951278D01*
X54054500Y-53601722D01*
X54077882Y-53658171D01*
X54063554Y-53672500D01*
X53922071Y-53672500D01*
X53560042Y-53822458D01*
X53282958Y-54099542D01*
X53133000Y-54461571D01*
X52917000Y-54461571D01*
X52917000Y-46344999D01*
X53945546Y-46344998D01*
X54261917Y-46572056D01*
X54292921Y-46589254D01*
X54321308Y-46610490D01*
X54402695Y-46651246D01*
X55044262Y-46924236D01*
X55082467Y-46935480D01*
X55118988Y-46951360D01*
X55207568Y-46972300D01*
X55894729Y-47090376D01*
X55934494Y-47092529D01*
X55973690Y-47099582D01*
X56064712Y-47099582D01*
X56760606Y-47056410D01*
X56799802Y-47049357D01*
X56839567Y-47047204D01*
X56928148Y-47026264D01*
X57595445Y-46824159D01*
X57631966Y-46808279D01*
X57670171Y-46797035D01*
X57751558Y-46756279D01*
X58354464Y-46406083D01*
X58386352Y-46382227D01*
X58420945Y-46362496D01*
X58490774Y-46304111D01*
X58996947Y-45824610D01*
X59022494Y-45794055D01*
X59051618Y-45766897D01*
X59106142Y-45694013D01*
X59488429Y-45110929D01*
X59506260Y-45075320D01*
X59528357Y-45042188D01*
X59564652Y-44958715D01*
X59802548Y-44303323D01*
X59811709Y-44264570D01*
X59825592Y-44227240D01*
X59841710Y-44137657D01*
X59919146Y-43473471D01*
X59927582Y-43430477D01*
X59918913Y-40095000D01*
X61858419Y-40095000D01*
X62938518Y-40743060D01*
X62938518Y-40743060D01*
G37*
X62938518Y-40743060D02*
X63045217Y-40814354D01*
X63135270Y-40832267D01*
X63221701Y-40863237D01*
X63349853Y-40857000D01*
X76014147Y-40857000D01*
X76142298Y-40863237D01*
X76228728Y-40832267D01*
X76318783Y-40814354D01*
X76425481Y-40743060D01*
X77505583Y-40095000D01*
X79447001Y-40095000D01*
X79447000Y-43432387D01*
X79454506Y-43470123D01*
X79515817Y-44056735D01*
X79523561Y-44091330D01*
X79526548Y-44126660D01*
X79550158Y-44214567D01*
X79771590Y-44873162D01*
X79788567Y-44909185D01*
X79800962Y-44947033D01*
X79844161Y-45027150D01*
X80211163Y-45617141D01*
X80235972Y-45648293D01*
X80256741Y-45682273D01*
X80317213Y-45750303D01*
X80810098Y-46240042D01*
X80841412Y-46264654D01*
X80869439Y-46292943D01*
X80943939Y-46345238D01*
X81536270Y-46708452D01*
X81572408Y-46725201D01*
X81606187Y-46746281D01*
X81690718Y-46780034D01*
X81690724Y-46780036D01*
X82350720Y-46997242D01*
X82389732Y-47005226D01*
X82427466Y-47017974D01*
X82517496Y-47031375D01*
X83209762Y-47090923D01*
X83249566Y-47089718D01*
X83289218Y-47093443D01*
X83379915Y-47085773D01*
X84067316Y-46984469D01*
X84105780Y-46974138D01*
X84145221Y-46968642D01*
X84231722Y-46940313D01*
X84877379Y-46683589D01*
X84912428Y-46664691D01*
X84949553Y-46650266D01*
X85027217Y-46602797D01*
X85405439Y-46338125D01*
X86447000Y-46342159D01*
X86447001Y-76625000D01*
X86109612Y-76625000D01*
X86038611Y-76639123D01*
X86038610Y-76639123D01*
X85847268Y-76677183D01*
X85847266Y-76677184D01*
X85847263Y-76677184D01*
X85646600Y-76760303D01*
X85582315Y-76786930D01*
X85582314Y-76786931D01*
X85582311Y-76786932D01*
X85420100Y-76895319D01*
X85314323Y-77001097D01*
X85217319Y-77098100D01*
X85108932Y-77260311D01*
X85108931Y-77260314D01*
X85108930Y-77260315D01*
X85073114Y-77346783D01*
X84999184Y-77525263D01*
X84999184Y-77525265D01*
X84999183Y-77525267D01*
X84961123Y-77716610D01*
X84961123Y-78003390D01*
X84999183Y-78194733D01*
X84999184Y-78194735D01*
X84999184Y-78194737D01*
X85029673Y-78268343D01*
X85079873Y-78389534D01*
X85108932Y-78459689D01*
X85217319Y-78621900D01*
X85298432Y-78703012D01*
X85420100Y-78824681D01*
X85582311Y-78933068D01*
X85582314Y-78933069D01*
X85582315Y-78933070D01*
X85646600Y-78959697D01*
X85847263Y-79042816D01*
X85847266Y-79042816D01*
X85847268Y-79042817D01*
X86038610Y-79080877D01*
X86038611Y-79080877D01*
X86109612Y-79095000D01*
X86447000Y-79095000D01*
X86447001Y-83317290D01*
X86381405Y-83879918D01*
X86202809Y-84371944D01*
X85915810Y-84809689D01*
X85535807Y-85169670D01*
X85083180Y-85432576D01*
X84572584Y-85587220D01*
X84149269Y-85625000D01*
X69094931Y-85625000D01*
X69374390Y-85287447D01*
X69517000Y-84824500D01*
X69517000Y-84474500D01*
X68409000Y-84474500D01*
X68409000Y-84494500D01*
X68155000Y-84494500D01*
X68155000Y-84474500D01*
X67047000Y-84474500D01*
X67047000Y-84824500D01*
X67189610Y-85287447D01*
X67469069Y-85625000D01*
X62094931Y-85625000D01*
X62374390Y-85287447D01*
X62517000Y-84824500D01*
X62517000Y-84474500D01*
X61409000Y-84474500D01*
X61409000Y-84494500D01*
X61155000Y-84494500D01*
X61155000Y-84474500D01*
X60047000Y-84474500D01*
X60047000Y-84824500D01*
X60189610Y-85287447D01*
X60469069Y-85625000D01*
X55224702Y-85625000D01*
X54662082Y-85559405D01*
X54170056Y-85380809D01*
X53732311Y-85093810D01*
X53372330Y-84713807D01*
X53109424Y-84261180D01*
X52991099Y-83870500D01*
X60047000Y-83870500D01*
X60047000Y-84220500D01*
X61155000Y-84220500D01*
X61155000Y-82928769D01*
X61409000Y-82928769D01*
X61409000Y-84220500D01*
X62517000Y-84220500D01*
X62517000Y-83870500D01*
X62374390Y-83407553D01*
X62065474Y-83034420D01*
X61946232Y-82971342D01*
X62083146Y-83019812D01*
X62623444Y-82991449D01*
X62990878Y-82839253D01*
X63055793Y-82600898D01*
X66508207Y-82600898D01*
X66573122Y-82839253D01*
X67083146Y-83019812D01*
X67574945Y-82993995D01*
X67498526Y-83034420D01*
X67189610Y-83407553D01*
X67047000Y-83870500D01*
X67047000Y-84220500D01*
X68155000Y-84220500D01*
X68155000Y-82928769D01*
X68409000Y-82928769D01*
X68409000Y-84220500D01*
X69517000Y-84220500D01*
X69517000Y-83870500D01*
X69374390Y-83407553D01*
X69065474Y-83034420D01*
X68637281Y-82807908D01*
X68599609Y-82804038D01*
X68409000Y-82928769D01*
X68155000Y-82928769D01*
X67995012Y-82824076D01*
X68055793Y-82600898D01*
X67282000Y-81827105D01*
X66508207Y-82600898D01*
X63055793Y-82600898D01*
X62282000Y-81827105D01*
X61508207Y-82600898D01*
X61568988Y-82824076D01*
X61409000Y-82928769D01*
X61155000Y-82928769D01*
X60964391Y-82804038D01*
X60926719Y-82807908D01*
X60498526Y-83034420D01*
X60189610Y-83407553D01*
X60047000Y-83870500D01*
X52991099Y-83870500D01*
X52954780Y-83750584D01*
X52917000Y-83327269D01*
X52917000Y-81448646D01*
X60909688Y-81448646D01*
X60938051Y-81988944D01*
X61090247Y-82356378D01*
X61328602Y-82421293D01*
X62102395Y-81647500D01*
X62461605Y-81647500D01*
X63235398Y-82421293D01*
X63473753Y-82356378D01*
X63654312Y-81846354D01*
X63633435Y-81448646D01*
X65909688Y-81448646D01*
X65938051Y-81988944D01*
X66090247Y-82356378D01*
X66328602Y-82421293D01*
X67102395Y-81647500D01*
X67461605Y-81647500D01*
X68235398Y-82421293D01*
X68473753Y-82356378D01*
X68654312Y-81846354D01*
X68625949Y-81306056D01*
X68473753Y-80938622D01*
X68235398Y-80873707D01*
X67461605Y-81647500D01*
X67102395Y-81647500D01*
X66328602Y-80873707D01*
X66090247Y-80938622D01*
X65909688Y-81448646D01*
X63633435Y-81448646D01*
X63625949Y-81306056D01*
X63473753Y-80938622D01*
X63235398Y-80873707D01*
X62461605Y-81647500D01*
X62102395Y-81647500D01*
X61328602Y-80873707D01*
X61090247Y-80938622D01*
X60909688Y-81448646D01*
X52917000Y-81448646D01*
X52917000Y-77782071D01*
X54895000Y-77782071D01*
X54895000Y-78173929D01*
X55044958Y-78535958D01*
X55322042Y-78813042D01*
X55684071Y-78963000D01*
X56075929Y-78963000D01*
X56437958Y-78813042D01*
X56715042Y-78535958D01*
X56865000Y-78173929D01*
X56865000Y-78032446D01*
X57301038Y-77596409D01*
X57362405Y-77555405D01*
X57524854Y-77312283D01*
X57567500Y-77097888D01*
X57567500Y-77097885D01*
X57581898Y-77025501D01*
X57567500Y-76953117D01*
X57567500Y-73995750D01*
X57897000Y-73995750D01*
X57897000Y-74186310D01*
X57993673Y-74419699D01*
X58172302Y-74598327D01*
X58405691Y-74695000D01*
X58646250Y-74695000D01*
X58805000Y-74536250D01*
X58805000Y-73837000D01*
X59059000Y-73837000D01*
X59059000Y-74536250D01*
X59217750Y-74695000D01*
X59458309Y-74695000D01*
X59691698Y-74598327D01*
X59870327Y-74419699D01*
X59967000Y-74186310D01*
X59967000Y-73995750D01*
X62397000Y-73995750D01*
X62397000Y-74186310D01*
X62493673Y-74419699D01*
X62672302Y-74598327D01*
X62905691Y-74695000D01*
X63146250Y-74695000D01*
X63305000Y-74536250D01*
X63305000Y-73837000D01*
X63559000Y-73837000D01*
X63559000Y-74536250D01*
X63717750Y-74695000D01*
X63958309Y-74695000D01*
X64106324Y-74633690D01*
X66397000Y-74633690D01*
X66397000Y-74824250D01*
X66555750Y-74983000D01*
X67305000Y-74983000D01*
X67305000Y-74283750D01*
X67559000Y-74283750D01*
X67559000Y-74983000D01*
X68308250Y-74983000D01*
X68467000Y-74824250D01*
X68467000Y-74633690D01*
X70897000Y-74633690D01*
X70897000Y-74824250D01*
X71055750Y-74983000D01*
X71805000Y-74983000D01*
X71805000Y-74283750D01*
X72059000Y-74283750D01*
X72059000Y-74983000D01*
X72808250Y-74983000D01*
X72967000Y-74824250D01*
X72967000Y-74633690D01*
X72870327Y-74400301D01*
X72691698Y-74221673D01*
X72458309Y-74125000D01*
X72217750Y-74125000D01*
X72059000Y-74283750D01*
X71805000Y-74283750D01*
X71646250Y-74125000D01*
X71405691Y-74125000D01*
X71172302Y-74221673D01*
X70993673Y-74400301D01*
X70897000Y-74633690D01*
X68467000Y-74633690D01*
X68370327Y-74400301D01*
X68191698Y-74221673D01*
X67958309Y-74125000D01*
X67717750Y-74125000D01*
X67559000Y-74283750D01*
X67305000Y-74283750D01*
X67146250Y-74125000D01*
X66905691Y-74125000D01*
X66672302Y-74221673D01*
X66493673Y-74400301D01*
X66397000Y-74633690D01*
X64106324Y-74633690D01*
X64191698Y-74598327D01*
X64370327Y-74419699D01*
X64467000Y-74186310D01*
X64467000Y-73995750D01*
X64308250Y-73837000D01*
X63559000Y-73837000D01*
X63305000Y-73837000D01*
X62555750Y-73837000D01*
X62397000Y-73995750D01*
X59967000Y-73995750D01*
X59808250Y-73837000D01*
X59059000Y-73837000D01*
X58805000Y-73837000D01*
X58055750Y-73837000D01*
X57897000Y-73995750D01*
X57567500Y-73995750D01*
X57567500Y-73233690D01*
X57897000Y-73233690D01*
X57897000Y-73424250D01*
X58055750Y-73583000D01*
X58805000Y-73583000D01*
X58805000Y-72883750D01*
X59059000Y-72883750D01*
X59059000Y-73583000D01*
X59808250Y-73583000D01*
X59967000Y-73424250D01*
X59967000Y-73233690D01*
X62397000Y-73233690D01*
X62397000Y-73424250D01*
X62555750Y-73583000D01*
X63305000Y-73583000D01*
X63305000Y-72883750D01*
X63559000Y-72883750D01*
X63559000Y-73583000D01*
X64308250Y-73583000D01*
X64467000Y-73424250D01*
X64467000Y-73233690D01*
X64404868Y-73083690D01*
X74897000Y-73083690D01*
X74897000Y-73274250D01*
X75055750Y-73433000D01*
X75805000Y-73433000D01*
X75805000Y-72733750D01*
X75646250Y-72575000D01*
X75405691Y-72575000D01*
X75172302Y-72671673D01*
X74993673Y-72850301D01*
X74897000Y-73083690D01*
X64404868Y-73083690D01*
X64370327Y-73000301D01*
X64191698Y-72821673D01*
X63958309Y-72725000D01*
X63717750Y-72725000D01*
X63559000Y-72883750D01*
X63305000Y-72883750D01*
X63146250Y-72725000D01*
X62905691Y-72725000D01*
X62672302Y-72821673D01*
X62493673Y-73000301D01*
X62397000Y-73233690D01*
X59967000Y-73233690D01*
X59870327Y-73000301D01*
X59691698Y-72821673D01*
X59458309Y-72725000D01*
X59217750Y-72725000D01*
X59059000Y-72883750D01*
X58805000Y-72883750D01*
X58646250Y-72725000D01*
X58405691Y-72725000D01*
X58172302Y-72821673D01*
X57993673Y-73000301D01*
X57897000Y-73233690D01*
X57567500Y-73233690D01*
X57567500Y-69709946D01*
X63206538Y-64070909D01*
X63267905Y-64029905D01*
X63430354Y-63786783D01*
X63473000Y-63572388D01*
X63473000Y-63572385D01*
X63487398Y-63500001D01*
X63473000Y-63427617D01*
X63473000Y-61518446D01*
X65332447Y-59659000D01*
X65473929Y-59659000D01*
X65835958Y-59509042D01*
X66113042Y-59231958D01*
X66263000Y-58869929D01*
X66263000Y-58478071D01*
X66113042Y-58116042D01*
X65886650Y-57889650D01*
X65962958Y-57858042D01*
X66103500Y-57717500D01*
X66244042Y-57858042D01*
X66606071Y-58008000D01*
X66997929Y-58008000D01*
X67359958Y-57858042D01*
X67437000Y-57781000D01*
X67514042Y-57858042D01*
X67876071Y-58008000D01*
X68267929Y-58008000D01*
X68629958Y-57858042D01*
X68907042Y-57580958D01*
X69057000Y-57218929D01*
X69057000Y-56827071D01*
X68907042Y-56465042D01*
X68807000Y-56365000D01*
X68807000Y-55752239D01*
X68987347Y-55932586D01*
X69173876Y-56009849D01*
X69221146Y-56247495D01*
X69278112Y-56332750D01*
X69383596Y-56490618D01*
X69444963Y-56531622D01*
X70150877Y-57237537D01*
X70191882Y-57298905D01*
X70435004Y-57461354D01*
X70649399Y-57504000D01*
X70649402Y-57504000D01*
X70721786Y-57518398D01*
X70728969Y-57516969D01*
X70816042Y-57604042D01*
X71178071Y-57754000D01*
X71319553Y-57754000D01*
X71401000Y-57835447D01*
X71401000Y-58157116D01*
X71386602Y-58229500D01*
X71401000Y-58301884D01*
X71401000Y-58301888D01*
X71411385Y-58354093D01*
X71443646Y-58516282D01*
X71549031Y-58674001D01*
X71606096Y-58759405D01*
X71667463Y-58800409D01*
X76798500Y-63931447D01*
X76798501Y-64275053D01*
X76366465Y-64707089D01*
X76305095Y-64748095D01*
X76142646Y-64991218D01*
X76100000Y-65205613D01*
X76100000Y-65205616D01*
X76085602Y-65278000D01*
X76100000Y-65350385D01*
X76100001Y-66920111D01*
X76085602Y-66992500D01*
X76142646Y-67279282D01*
X76142647Y-67279283D01*
X76305096Y-67522405D01*
X76366463Y-67563409D01*
X76798500Y-67995447D01*
X76798501Y-72778475D01*
X76691698Y-72671673D01*
X76458309Y-72575000D01*
X76217750Y-72575000D01*
X76059000Y-72733750D01*
X76059000Y-73433000D01*
X76079000Y-73433000D01*
X76079000Y-73687000D01*
X76059000Y-73687000D01*
X76059000Y-73707000D01*
X75805000Y-73707000D01*
X75805000Y-73687000D01*
X75055750Y-73687000D01*
X74897000Y-73845750D01*
X74897000Y-74036310D01*
X74993673Y-74269699D01*
X75071737Y-74347763D01*
X74856958Y-74562542D01*
X74707000Y-74924571D01*
X74707000Y-75316429D01*
X74856958Y-75678458D01*
X75134042Y-75955542D01*
X75437693Y-76081319D01*
X75284235Y-76111843D01*
X75074191Y-76252191D01*
X74933843Y-76462235D01*
X74884560Y-76710000D01*
X74884560Y-77410000D01*
X74933843Y-77657765D01*
X75074191Y-77867809D01*
X75084953Y-77875000D01*
X72838459Y-77875000D01*
X72789809Y-77802191D01*
X72579765Y-77661843D01*
X72332000Y-77612560D01*
X71532000Y-77612560D01*
X71284235Y-77661843D01*
X71074191Y-77802191D01*
X71025541Y-77875000D01*
X68593757Y-77875000D01*
X68701400Y-77615129D01*
X68701400Y-77223271D01*
X68551442Y-76861242D01*
X68274358Y-76584158D01*
X67912329Y-76434200D01*
X67770846Y-76434200D01*
X67385611Y-76048965D01*
X67344605Y-75987595D01*
X67290084Y-75951166D01*
X67305000Y-75936250D01*
X67305000Y-75237000D01*
X67559000Y-75237000D01*
X67559000Y-75936250D01*
X67717750Y-76095000D01*
X67958309Y-76095000D01*
X68191698Y-75998327D01*
X68370327Y-75819699D01*
X68467000Y-75586310D01*
X68467000Y-75395750D01*
X70897000Y-75395750D01*
X70897000Y-75586310D01*
X70993673Y-75819699D01*
X71172302Y-75998327D01*
X71405691Y-76095000D01*
X71646250Y-76095000D01*
X71805000Y-75936250D01*
X71805000Y-75237000D01*
X72059000Y-75237000D01*
X72059000Y-75936250D01*
X72217750Y-76095000D01*
X72458309Y-76095000D01*
X72691698Y-75998327D01*
X72870327Y-75819699D01*
X72967000Y-75586310D01*
X72967000Y-75395750D01*
X72808250Y-75237000D01*
X72059000Y-75237000D01*
X71805000Y-75237000D01*
X71055750Y-75237000D01*
X70897000Y-75395750D01*
X68467000Y-75395750D01*
X68308250Y-75237000D01*
X67559000Y-75237000D01*
X67305000Y-75237000D01*
X66555750Y-75237000D01*
X66397000Y-75395750D01*
X66397000Y-75586310D01*
X66478265Y-75782500D01*
X66239384Y-75782500D01*
X66167000Y-75768102D01*
X66094616Y-75782500D01*
X66094612Y-75782500D01*
X65880217Y-75825146D01*
X65637095Y-75987595D01*
X65596090Y-76048963D01*
X65170054Y-76475000D01*
X64338459Y-76475000D01*
X64289809Y-76402191D01*
X64079765Y-76261843D01*
X63832000Y-76212560D01*
X63032000Y-76212560D01*
X62784235Y-76261843D01*
X62574191Y-76402191D01*
X62525541Y-76475000D01*
X59838459Y-76475000D01*
X59789809Y-76402191D01*
X59579765Y-76261843D01*
X59332000Y-76212560D01*
X58532000Y-76212560D01*
X58284235Y-76261843D01*
X58074191Y-76402191D01*
X57933843Y-76612235D01*
X57884560Y-76860000D01*
X57884560Y-77560000D01*
X57933843Y-77807765D01*
X58074191Y-78017809D01*
X58284235Y-78158157D01*
X58532000Y-78207440D01*
X59332000Y-78207440D01*
X59579765Y-78158157D01*
X59789809Y-78017809D01*
X59838459Y-77945000D01*
X62525541Y-77945000D01*
X62574191Y-78017809D01*
X62784235Y-78158157D01*
X63032000Y-78207440D01*
X63832000Y-78207440D01*
X64079765Y-78158157D01*
X64289809Y-78017809D01*
X64338459Y-77945000D01*
X64699911Y-77945000D01*
X64433511Y-78211400D01*
X61509285Y-78211400D01*
X61417199Y-78193083D01*
X61109733Y-78254242D01*
X61052381Y-78265650D01*
X60743103Y-78472303D01*
X60690941Y-78550369D01*
X59811553Y-79429758D01*
X59690842Y-79479758D01*
X59413758Y-79756842D01*
X59263800Y-80118871D01*
X59263800Y-80510729D01*
X59413758Y-80872758D01*
X59690842Y-81149842D01*
X60052871Y-81299800D01*
X60444729Y-81299800D01*
X60806758Y-81149842D01*
X61083842Y-80872758D01*
X61133842Y-80752047D01*
X61191787Y-80694102D01*
X61508207Y-80694102D01*
X62282000Y-81467895D01*
X63055793Y-80694102D01*
X66508207Y-80694102D01*
X67282000Y-81467895D01*
X68055793Y-80694102D01*
X67990878Y-80455747D01*
X67480854Y-80275188D01*
X66940556Y-80303551D01*
X66573122Y-80455747D01*
X66508207Y-80694102D01*
X63055793Y-80694102D01*
X62990878Y-80455747D01*
X62480854Y-80275188D01*
X61940556Y-80303551D01*
X61573122Y-80455747D01*
X61508207Y-80694102D01*
X61191787Y-80694102D01*
X61804490Y-80081400D01*
X64728714Y-80081400D01*
X64820800Y-80099717D01*
X64912886Y-80081400D01*
X65185619Y-80027150D01*
X65494897Y-79820497D01*
X65547061Y-79742428D01*
X66384560Y-78904929D01*
X66384560Y-78960000D01*
X66433843Y-79207765D01*
X66574191Y-79417809D01*
X66784235Y-79558157D01*
X67032000Y-79607440D01*
X67832000Y-79607440D01*
X68079765Y-79558157D01*
X68289809Y-79417809D01*
X68338459Y-79345000D01*
X71025541Y-79345000D01*
X71074191Y-79417809D01*
X71284235Y-79558157D01*
X71532000Y-79607440D01*
X72332000Y-79607440D01*
X72579765Y-79558157D01*
X72789809Y-79417809D01*
X72838459Y-79345000D01*
X79991532Y-79345000D01*
X80079002Y-79362399D01*
X80365784Y-79305354D01*
X80608907Y-79142905D01*
X80649913Y-79081535D01*
X82637537Y-77093912D01*
X82698905Y-77052907D01*
X82861354Y-76809785D01*
X82904000Y-76595390D01*
X82918399Y-76523002D01*
X82904000Y-76450614D01*
X82904000Y-74699000D01*
X83004042Y-74598958D01*
X83154000Y-74236929D01*
X83154000Y-73845071D01*
X83004042Y-73483042D01*
X82726958Y-73205958D01*
X82364929Y-73056000D01*
X82269000Y-73056000D01*
X82269000Y-72313446D01*
X83108447Y-71474000D01*
X84078142Y-71474000D01*
X84150526Y-71488398D01*
X84222910Y-71474000D01*
X84222914Y-71474000D01*
X84261226Y-71466379D01*
X84576571Y-71597000D01*
X84968429Y-71597000D01*
X85330458Y-71447042D01*
X85607542Y-71169958D01*
X85757500Y-70807929D01*
X85757500Y-70416071D01*
X85607542Y-70054042D01*
X85507500Y-69954000D01*
X85507500Y-65286884D01*
X85521898Y-65214500D01*
X85507500Y-65142116D01*
X85507500Y-65142112D01*
X85464854Y-64927717D01*
X85313000Y-64700452D01*
X85313000Y-64574071D01*
X85163042Y-64212042D01*
X84885958Y-63934958D01*
X84523929Y-63785000D01*
X84132071Y-63785000D01*
X83770042Y-63934958D01*
X83492958Y-64212042D01*
X83343000Y-64574071D01*
X83343000Y-64965929D01*
X83492958Y-65327958D01*
X83770042Y-65605042D01*
X84037501Y-65715828D01*
X84037500Y-68810435D01*
X84015929Y-68801500D01*
X83624071Y-68801500D01*
X83262042Y-68951458D01*
X83162000Y-69051500D01*
X83044947Y-69051500D01*
X80106000Y-66112554D01*
X80106000Y-65971071D01*
X79956042Y-65609042D01*
X79678958Y-65331958D01*
X79316929Y-65182000D01*
X78925071Y-65182000D01*
X78563042Y-65331958D01*
X78285958Y-65609042D01*
X78136000Y-65971071D01*
X78136000Y-66362929D01*
X78285958Y-66724958D01*
X78563042Y-67002042D01*
X78925071Y-67152000D01*
X79066554Y-67152000D01*
X82169591Y-70255038D01*
X82201203Y-70302350D01*
X81065465Y-71438089D01*
X81004095Y-71479095D01*
X80841646Y-71722218D01*
X80799000Y-71936613D01*
X80799000Y-71936616D01*
X80784602Y-72009000D01*
X80799000Y-72081384D01*
X80799000Y-72575000D01*
X80717750Y-72575000D01*
X80559000Y-72733750D01*
X80559000Y-73433000D01*
X80579000Y-73433000D01*
X80579000Y-73687000D01*
X80559000Y-73687000D01*
X80559000Y-74386250D01*
X80717750Y-74545000D01*
X80799001Y-74545000D01*
X80799001Y-75103552D01*
X79963465Y-75939089D01*
X79902095Y-75980095D01*
X79818636Y-76105000D01*
X79784235Y-76111843D01*
X79574191Y-76252191D01*
X79525541Y-76325000D01*
X76838459Y-76325000D01*
X76821754Y-76300000D01*
X77715116Y-76300000D01*
X77787500Y-76314398D01*
X77859884Y-76300000D01*
X77859888Y-76300000D01*
X78074283Y-76257354D01*
X78317405Y-76094905D01*
X78358411Y-76033535D01*
X78827537Y-75564410D01*
X78888905Y-75523405D01*
X79051354Y-75280283D01*
X79094000Y-75065888D01*
X79094000Y-75065885D01*
X79108398Y-74993501D01*
X79094000Y-74921117D01*
X79094000Y-73859383D01*
X79096711Y-73845750D01*
X79397000Y-73845750D01*
X79397000Y-74036310D01*
X79493673Y-74269699D01*
X79672302Y-74448327D01*
X79905691Y-74545000D01*
X80146250Y-74545000D01*
X80305000Y-74386250D01*
X80305000Y-73687000D01*
X79555750Y-73687000D01*
X79397000Y-73845750D01*
X79096711Y-73845750D01*
X79108398Y-73786999D01*
X79094000Y-73714613D01*
X79094000Y-73714612D01*
X79051354Y-73500217D01*
X78888905Y-73257095D01*
X78827538Y-73216091D01*
X78695137Y-73083690D01*
X79397000Y-73083690D01*
X79397000Y-73274250D01*
X79555750Y-73433000D01*
X80305000Y-73433000D01*
X80305000Y-72733750D01*
X80146250Y-72575000D01*
X79905691Y-72575000D01*
X79672302Y-72671673D01*
X79493673Y-72850301D01*
X79397000Y-73083690D01*
X78695137Y-73083690D01*
X78618510Y-73007064D01*
X78618510Y-67572883D01*
X78632908Y-67500499D01*
X78618510Y-67428113D01*
X78618510Y-67428112D01*
X78575864Y-67213717D01*
X78413415Y-66970595D01*
X78352048Y-66929591D01*
X77920010Y-66497554D01*
X77920010Y-65740436D01*
X78352047Y-65308400D01*
X78413415Y-65267395D01*
X78575864Y-65024273D01*
X78618510Y-64809878D01*
X78618510Y-64809875D01*
X78632908Y-64737491D01*
X78618510Y-64665107D01*
X78618510Y-63445388D01*
X78632909Y-63373000D01*
X78610193Y-63258798D01*
X78575864Y-63086217D01*
X78413415Y-62843095D01*
X78352048Y-62802091D01*
X74349001Y-58799045D01*
X74349001Y-57303384D01*
X74363399Y-57231000D01*
X74349001Y-57158614D01*
X74349001Y-57158613D01*
X74306355Y-56944218D01*
X74143906Y-56701096D01*
X74137000Y-56696482D01*
X74137000Y-56573071D01*
X73987042Y-56211042D01*
X73887000Y-56111000D01*
X73887000Y-55959159D01*
X73951153Y-55932586D01*
X74411086Y-55472653D01*
X74660000Y-54871722D01*
X74660000Y-54221278D01*
X74411086Y-53620347D01*
X74113239Y-53322500D01*
X75177711Y-53322500D01*
X79456001Y-57600790D01*
X79456000Y-59627361D01*
X79406000Y-59748071D01*
X79406000Y-60139929D01*
X79555958Y-60501958D01*
X79833042Y-60779042D01*
X80195071Y-60929000D01*
X80586929Y-60929000D01*
X80948958Y-60779042D01*
X81226042Y-60501958D01*
X81376000Y-60139929D01*
X81376000Y-59748071D01*
X81326000Y-59627361D01*
X81326000Y-57305586D01*
X81344317Y-57213500D01*
X81290754Y-56944218D01*
X81271750Y-56848681D01*
X81065097Y-56539403D01*
X80987028Y-56487239D01*
X76291261Y-51791472D01*
X76239097Y-51713403D01*
X75929819Y-51506750D01*
X75657086Y-51452500D01*
X75565000Y-51434183D01*
X75472914Y-51452500D01*
X72452639Y-51452500D01*
X72331929Y-51402500D01*
X71940071Y-51402500D01*
X71819361Y-51452500D01*
X70801639Y-51452500D01*
X70680929Y-51402500D01*
X70289071Y-51402500D01*
X69927042Y-51552458D01*
X69649958Y-51829542D01*
X69500000Y-52191571D01*
X69500000Y-52583429D01*
X69635892Y-52911500D01*
X69588278Y-52911500D01*
X68987347Y-53160414D01*
X68807000Y-53340761D01*
X68807000Y-52310946D01*
X69810538Y-51307409D01*
X69871905Y-51266405D01*
X70034354Y-51023283D01*
X70077000Y-50808888D01*
X70077000Y-50808885D01*
X70091398Y-50736501D01*
X70077000Y-50664117D01*
X70077000Y-47775000D01*
X70177042Y-47674958D01*
X70327000Y-47312929D01*
X70327000Y-46921071D01*
X70177042Y-46559042D01*
X70077000Y-46459000D01*
X70077000Y-46364881D01*
X70091398Y-46292497D01*
X70077000Y-46220113D01*
X70077000Y-46220110D01*
X70034354Y-46005715D01*
X69871905Y-45762593D01*
X69810535Y-45721587D01*
X69683948Y-45595000D01*
X77254388Y-45595000D01*
X77325389Y-45580877D01*
X77325391Y-45580877D01*
X77708074Y-45504757D01*
X77973027Y-45395010D01*
X78297451Y-45178238D01*
X78448538Y-45027150D01*
X78500237Y-44975451D01*
X78717010Y-44651027D01*
X78755780Y-44557428D01*
X78826757Y-44386074D01*
X78902877Y-44003391D01*
X78902877Y-43716607D01*
X78826757Y-43333926D01*
X78717010Y-43068974D01*
X78717010Y-43068973D01*
X78500237Y-42744549D01*
X78412243Y-42656555D01*
X78297451Y-42541762D01*
X77973027Y-42324990D01*
X77708074Y-42215243D01*
X77325391Y-42139123D01*
X77325389Y-42139123D01*
X77254388Y-42125000D01*
X62109612Y-42125000D01*
X62038611Y-42139123D01*
X62038609Y-42139123D01*
X61655926Y-42215243D01*
X61468576Y-42292846D01*
X61390973Y-42324990D01*
X61066549Y-42541763D01*
X60998954Y-42609359D01*
X60863762Y-42744549D01*
X60646990Y-43068973D01*
X60572820Y-43248035D01*
X60537243Y-43333926D01*
X60461123Y-43716607D01*
X60461123Y-44003391D01*
X60537243Y-44386074D01*
X60646990Y-44651027D01*
X60863762Y-44975451D01*
X60968406Y-45080094D01*
X61066549Y-45178237D01*
X61305420Y-45337846D01*
X61284096Y-45352094D01*
X61243091Y-45413462D01*
X59649964Y-47006590D01*
X59649961Y-47006592D01*
X59634875Y-47021678D01*
X59443722Y-46942500D01*
X58793278Y-46942500D01*
X58192347Y-47191414D01*
X57732414Y-47651347D01*
X57483500Y-48252278D01*
X57483500Y-48902722D01*
X57732414Y-49503653D01*
X58192347Y-49963586D01*
X58793278Y-50212500D01*
X59443722Y-50212500D01*
X60044653Y-49963586D01*
X60504586Y-49503653D01*
X60737750Y-48940746D01*
X60970914Y-49503653D01*
X61430847Y-49963586D01*
X62031778Y-50212500D01*
X62682222Y-50212500D01*
X63283153Y-49963586D01*
X63743086Y-49503653D01*
X63944500Y-49017397D01*
X64145914Y-49503653D01*
X64605847Y-49963586D01*
X65206778Y-50212500D01*
X65857222Y-50212500D01*
X66458153Y-49963586D01*
X66918086Y-49503653D01*
X67167000Y-48902722D01*
X67167000Y-48252278D01*
X67087822Y-48061125D01*
X67210001Y-47938946D01*
X67210000Y-50839077D01*
X66841465Y-51207613D01*
X66780095Y-51248619D01*
X66617646Y-51491742D01*
X66575000Y-51706137D01*
X66575000Y-51706140D01*
X66560602Y-51778524D01*
X66575000Y-51850908D01*
X66575001Y-55194552D01*
X66031555Y-55737999D01*
X66027385Y-55737999D01*
X65955001Y-55723601D01*
X65882617Y-55737999D01*
X65882613Y-55737999D01*
X65668218Y-55780645D01*
X65425096Y-55943094D01*
X65384091Y-56004462D01*
X65350553Y-56038000D01*
X65209071Y-56038000D01*
X64847042Y-56187958D01*
X64569958Y-56465042D01*
X64420000Y-56827071D01*
X64420000Y-57218929D01*
X64569958Y-57580958D01*
X64796350Y-57807350D01*
X64720042Y-57838958D01*
X64442958Y-58116042D01*
X64293000Y-58478071D01*
X64293000Y-58619553D01*
X62269463Y-60643091D01*
X62208096Y-60684095D01*
X62167092Y-60745462D01*
X62167091Y-60745463D01*
X62045646Y-60927218D01*
X61988602Y-61214000D01*
X62003001Y-61286389D01*
X62003000Y-63195553D01*
X56363963Y-68834591D01*
X56302596Y-68875595D01*
X56261592Y-68936962D01*
X56261591Y-68936963D01*
X56140146Y-69118718D01*
X56083102Y-69405500D01*
X56097501Y-69477889D01*
X56097500Y-76721053D01*
X55825554Y-76993000D01*
X55684071Y-76993000D01*
X55322042Y-77142958D01*
X55044958Y-77420042D01*
X54895000Y-77782071D01*
X52917000Y-77782071D01*
X52917000Y-76131071D01*
X53371000Y-76131071D01*
X53371000Y-76522929D01*
X53520958Y-76884958D01*
X53798042Y-77162042D01*
X54160071Y-77312000D01*
X54551929Y-77312000D01*
X54913958Y-77162042D01*
X55191042Y-76884958D01*
X55341000Y-76522929D01*
X55341000Y-76131071D01*
X55291000Y-76010361D01*
X55291000Y-67951289D01*
X56571248Y-66671042D01*
X56691958Y-66621042D01*
X56969042Y-66343958D01*
X57119000Y-65981929D01*
X57119000Y-65590071D01*
X56969042Y-65228042D01*
X56691958Y-64950958D01*
X56329929Y-64801000D01*
X55938071Y-64801000D01*
X55576042Y-64950958D01*
X55298958Y-65228042D01*
X55248958Y-65348752D01*
X53759972Y-66837739D01*
X53681903Y-66889903D01*
X53564982Y-67064888D01*
X53475250Y-67199182D01*
X53402683Y-67564000D01*
X53421000Y-67656086D01*
X53421001Y-76010359D01*
X53371000Y-76131071D01*
X52917000Y-76131071D01*
X52917000Y-61921445D01*
X53868530Y-61921445D01*
X53868629Y-61921947D01*
X53868530Y-61922448D01*
X53868584Y-62008315D01*
X53868791Y-62009350D01*
X53868589Y-62010385D01*
X53868861Y-62080807D01*
X53869229Y-62082622D01*
X53868885Y-62084444D01*
X53869424Y-62140909D01*
X53870090Y-62144099D01*
X53869517Y-62147308D01*
X53870377Y-62191303D01*
X53871614Y-62196942D01*
X53870699Y-62202643D01*
X53871930Y-62235656D01*
X53874411Y-62246080D01*
X53873063Y-62256706D01*
X53874717Y-62280225D01*
X53880365Y-62300909D01*
X53879079Y-62322310D01*
X53881207Y-62337822D01*
X53893204Y-62372543D01*
X53894072Y-62402701D01*
X53899976Y-62415869D01*
X53901441Y-62431991D01*
X53904095Y-62440983D01*
X53931672Y-62493527D01*
X53944354Y-62542232D01*
X53958130Y-62560451D01*
X53962758Y-62573845D01*
X53979035Y-62592203D01*
X53996233Y-62630562D01*
X53998652Y-62633966D01*
X54011987Y-62646554D01*
X54020143Y-62662095D01*
X54060282Y-62695547D01*
X54094966Y-62741416D01*
X54136368Y-62765711D01*
X54151196Y-62781991D01*
X54159671Y-62785974D01*
X54180235Y-62805387D01*
X54202051Y-62813697D01*
X54211974Y-62821966D01*
X54255169Y-62835426D01*
X54310337Y-62867800D01*
X54321170Y-62871563D01*
X54350444Y-62875628D01*
X54377198Y-62888201D01*
X54402752Y-62894535D01*
X54410823Y-62894912D01*
X54418215Y-62898164D01*
X54456546Y-62906661D01*
X54460616Y-62906750D01*
X54464366Y-62908344D01*
X54513522Y-62918598D01*
X54516224Y-62918623D01*
X54518720Y-62919660D01*
X54575460Y-62931006D01*
X54573910Y-62933317D01*
X54572924Y-62935687D01*
X54571121Y-62937512D01*
X54538694Y-62986700D01*
X54537467Y-62989714D01*
X54535202Y-62992054D01*
X54508158Y-63033982D01*
X54506340Y-63038580D01*
X54502958Y-63042181D01*
X54482376Y-63075179D01*
X54478883Y-63084422D01*
X54472339Y-63091828D01*
X54459296Y-63114226D01*
X54447574Y-63148343D01*
X54426850Y-63177869D01*
X54422422Y-63187902D01*
X54409585Y-63245503D01*
X54385074Y-63299186D01*
X54383840Y-63333833D01*
X54378151Y-63350389D01*
X54379901Y-63378693D01*
X54368101Y-63431638D01*
X54378284Y-63489768D01*
X54376183Y-63548744D01*
X54393238Y-63594459D01*
X54393558Y-63599629D01*
X54399418Y-63611624D01*
X54403464Y-63648443D01*
X54407307Y-63655441D01*
X54411190Y-63677608D01*
X54442841Y-63727412D01*
X54463470Y-63782707D01*
X54469308Y-63792156D01*
X54501160Y-63826361D01*
X54523656Y-63867330D01*
X54540115Y-63886930D01*
X54549566Y-63894510D01*
X54555790Y-63904906D01*
X54581288Y-63933069D01*
X54585889Y-63936485D01*
X54588917Y-63941347D01*
X54621873Y-63976485D01*
X54624700Y-63978508D01*
X54626569Y-63981439D01*
X54665401Y-64021967D01*
X54667440Y-64023393D01*
X54668795Y-64025483D01*
X54711923Y-64069811D01*
X54713570Y-64070944D01*
X54714669Y-64072617D01*
X54760512Y-64119162D01*
X54761999Y-64120172D01*
X54762992Y-64121665D01*
X54809967Y-64168837D01*
X54811444Y-64169829D01*
X54812438Y-64171305D01*
X54858963Y-64217519D01*
X54860606Y-64218609D01*
X54861714Y-64220234D01*
X54906211Y-64263903D01*
X54908228Y-64265224D01*
X54909601Y-64267205D01*
X54950487Y-64306740D01*
X54953290Y-64308545D01*
X54955216Y-64311266D01*
X54990909Y-64345081D01*
X54995448Y-64347939D01*
X54998617Y-64352263D01*
X55027537Y-64378771D01*
X55036893Y-64384450D01*
X55043656Y-64393054D01*
X55064221Y-64410668D01*
X55097199Y-64429197D01*
X55123892Y-64456000D01*
X55134520Y-64463133D01*
X55148463Y-64468942D01*
X55159607Y-64479137D01*
X55221709Y-64501683D01*
X55277112Y-64534760D01*
X55322364Y-64541393D01*
X55365030Y-64559168D01*
X55380135Y-64559199D01*
X55394332Y-64564353D01*
X55394835Y-64564430D01*
X55459821Y-64561540D01*
X55524188Y-64570974D01*
X55569316Y-64559587D01*
X55584667Y-64559618D01*
X55595804Y-64560158D01*
X55597237Y-64559644D01*
X55614745Y-64559680D01*
X55628439Y-64554041D01*
X55644304Y-64553335D01*
X55703239Y-64525794D01*
X55766314Y-64509879D01*
X55776106Y-64505227D01*
X55801301Y-64486474D01*
X55830865Y-64475873D01*
X55852911Y-64462639D01*
X55859016Y-64457099D01*
X55866704Y-64454120D01*
X55899349Y-64433381D01*
X55902314Y-64430550D01*
X55906118Y-64429021D01*
X55947711Y-64401857D01*
X55949646Y-64399962D01*
X55952149Y-64398932D01*
X56001036Y-64366422D01*
X56002542Y-64364922D01*
X56004501Y-64364101D01*
X56059030Y-64327325D01*
X56060347Y-64325997D01*
X56062067Y-64325264D01*
X56082363Y-64311406D01*
X56098194Y-64316019D01*
X56183111Y-64323442D01*
X56183340Y-64323492D01*
X56184927Y-64324091D01*
X56185957Y-64324058D01*
X56266425Y-64341483D01*
X56269147Y-64341529D01*
X56306826Y-64334694D01*
X56327893Y-64336693D01*
X56333673Y-64337385D01*
X56334054Y-64337278D01*
X56344945Y-64338312D01*
X56346777Y-64337749D01*
X56346960Y-64337765D01*
X56355777Y-64334984D01*
X56414923Y-64316814D01*
X56434518Y-64316194D01*
X56451769Y-64308401D01*
X56514852Y-64296957D01*
X56543529Y-64278489D01*
X56574100Y-64269909D01*
X56578267Y-64266633D01*
X56583650Y-64264979D01*
X56587963Y-64262654D01*
X56630064Y-64227852D01*
X56662088Y-64213385D01*
X56688789Y-64184940D01*
X56724797Y-64161750D01*
X56740520Y-64139059D01*
X56770403Y-64115563D01*
X56776004Y-64109022D01*
X56777898Y-64105650D01*
X56780434Y-64103554D01*
X56800210Y-64066239D01*
X56832992Y-64031315D01*
X56840339Y-64019530D01*
X56848470Y-63997998D01*
X56862989Y-63980145D01*
X56872537Y-63962090D01*
X56876048Y-63950329D01*
X56883429Y-63940518D01*
X56895634Y-63915163D01*
X56897398Y-63908322D01*
X56901523Y-63902584D01*
X56916846Y-63868903D01*
X56917833Y-63864699D01*
X56920306Y-63861161D01*
X56939200Y-63818127D01*
X56939783Y-63815485D01*
X56941315Y-63813255D01*
X56964240Y-63759841D01*
X56964602Y-63758134D01*
X56965583Y-63756689D01*
X56992993Y-63691868D01*
X56993222Y-63690760D01*
X56993852Y-63689825D01*
X57017631Y-63633044D01*
X57020570Y-63640111D01*
X57020689Y-63640288D01*
X57020731Y-63640498D01*
X57051237Y-63713709D01*
X57051385Y-63713930D01*
X57051438Y-63714191D01*
X57078546Y-63779096D01*
X57078738Y-63779381D01*
X57078806Y-63779718D01*
X57101960Y-63834994D01*
X57102246Y-63835419D01*
X57102349Y-63835921D01*
X57120996Y-63880241D01*
X57121513Y-63881006D01*
X57121700Y-63881906D01*
X57135287Y-63913946D01*
X57136583Y-63915852D01*
X57137068Y-63918105D01*
X57145039Y-63936539D01*
X57149802Y-63943435D01*
X57151774Y-63951578D01*
X57153550Y-63955410D01*
X57182661Y-63995316D01*
X57186087Y-64006278D01*
X57221806Y-64049065D01*
X57285199Y-64142373D01*
X57298921Y-64155885D01*
X57300597Y-64156986D01*
X57300717Y-64157151D01*
X57302547Y-64158267D01*
X57325632Y-64173437D01*
X57346118Y-64197976D01*
X57419182Y-64236245D01*
X57456688Y-64267129D01*
X57478219Y-64273699D01*
X57507615Y-64293015D01*
X57539014Y-64299009D01*
X57567327Y-64313839D01*
X57578676Y-64317178D01*
X57638283Y-64322545D01*
X57695530Y-64340014D01*
X57734193Y-64336270D01*
X57752901Y-64339842D01*
X57768421Y-64336630D01*
X57782757Y-64339236D01*
X57794788Y-64336635D01*
X57827385Y-64339570D01*
X57884512Y-64321716D01*
X57944083Y-64315948D01*
X57954741Y-64312735D01*
X57981063Y-64330823D01*
X57981946Y-64331202D01*
X57982619Y-64331889D01*
X58036503Y-64368684D01*
X58037992Y-64369319D01*
X58039133Y-64370471D01*
X58082585Y-64399827D01*
X58085079Y-64400875D01*
X58086996Y-64402780D01*
X58121162Y-64425452D01*
X58125456Y-64427215D01*
X58128794Y-64430438D01*
X58154823Y-64447182D01*
X58162578Y-64450237D01*
X58168718Y-64455870D01*
X58187759Y-64467440D01*
X58199658Y-64471779D01*
X58200345Y-64472431D01*
X58203878Y-64473787D01*
X58215248Y-64483225D01*
X58228448Y-64490376D01*
X58261624Y-64500643D01*
X58290568Y-64519829D01*
X58299075Y-64523317D01*
X58362499Y-64535690D01*
X58417643Y-64558860D01*
X58425668Y-64558901D01*
X58433483Y-64561900D01*
X58437361Y-64562566D01*
X58459803Y-64561976D01*
X58467001Y-64564204D01*
X58495232Y-64561583D01*
X58498280Y-64562178D01*
X58505102Y-64564092D01*
X58506955Y-64563870D01*
X58544170Y-64571130D01*
X58600113Y-64559787D01*
X58667355Y-64560129D01*
X58676798Y-64556274D01*
X58686990Y-64556006D01*
X58729024Y-64537287D01*
X58753047Y-64534411D01*
X58768732Y-64525599D01*
X58788906Y-64521509D01*
X58830399Y-64493562D01*
X58898545Y-64465740D01*
X58907323Y-64459938D01*
X58911096Y-64456203D01*
X58915107Y-64454417D01*
X58937554Y-64430758D01*
X58970760Y-64412104D01*
X58990069Y-64395568D01*
X58996394Y-64387522D01*
X59005159Y-64382229D01*
X59033618Y-64356261D01*
X59036600Y-64352212D01*
X59040861Y-64349548D01*
X59077092Y-64315449D01*
X59078992Y-64312784D01*
X59081751Y-64311020D01*
X59124374Y-64270090D01*
X59125819Y-64268020D01*
X59127933Y-64266645D01*
X59175568Y-64220189D01*
X59176826Y-64218357D01*
X59178677Y-64217135D01*
X59229942Y-64166453D01*
X59230642Y-64165419D01*
X59231681Y-64164727D01*
X59241813Y-64154634D01*
X59242380Y-64153789D01*
X59243223Y-64153224D01*
X59294881Y-64101438D01*
X59295789Y-64100075D01*
X59297145Y-64099157D01*
X59345021Y-64050678D01*
X59346029Y-64049148D01*
X59347541Y-64048112D01*
X59390297Y-64004328D01*
X59391539Y-64002420D01*
X59393409Y-64001119D01*
X59429709Y-63963423D01*
X59431518Y-63960601D01*
X59434248Y-63958660D01*
X59462755Y-63928441D01*
X59466099Y-63923106D01*
X59471159Y-63919358D01*
X59490535Y-63898006D01*
X59500590Y-63881253D01*
X59515562Y-63868700D01*
X59524472Y-63857608D01*
X59546749Y-63814853D01*
X59560059Y-63801543D01*
X59567941Y-63782513D01*
X59590365Y-63755455D01*
X59592829Y-63747469D01*
X59601183Y-63736446D01*
X59601574Y-63735640D01*
X59612066Y-63695524D01*
X59619045Y-63683896D01*
X59619629Y-63679973D01*
X59619777Y-63679748D01*
X59620800Y-63674389D01*
X59638543Y-63641102D01*
X59640042Y-63636141D01*
X59643567Y-63599927D01*
X59655617Y-63570834D01*
X59655616Y-63544004D01*
X59663998Y-63516843D01*
X59664522Y-63511772D01*
X59663362Y-63499388D01*
X59664758Y-63494051D01*
X59660758Y-63465013D01*
X59666589Y-63434459D01*
X59661885Y-63411735D01*
X59664234Y-63387600D01*
X59658012Y-63367174D01*
X59658694Y-63359217D01*
X59655613Y-63349504D01*
X59655612Y-63321119D01*
X59654308Y-63314564D01*
X59643641Y-63288813D01*
X59641237Y-63263144D01*
X59624612Y-63231679D01*
X59615969Y-63189928D01*
X59611984Y-63180515D01*
X59593257Y-63152955D01*
X59583181Y-63121193D01*
X59575663Y-63107547D01*
X59565158Y-63095073D01*
X59559453Y-63079797D01*
X59547549Y-63060543D01*
X59542008Y-63054597D01*
X59538976Y-63047058D01*
X59521834Y-63020821D01*
X59518939Y-63017866D01*
X59517348Y-63014050D01*
X59494114Y-62979457D01*
X59492658Y-62978008D01*
X59491857Y-62976120D01*
X59461680Y-62931795D01*
X59461007Y-62931134D01*
X59460858Y-62930785D01*
X59461650Y-62930632D01*
X59463609Y-62929833D01*
X59465725Y-62929831D01*
X59523073Y-62918362D01*
X59525562Y-62917328D01*
X59528254Y-62917303D01*
X59576639Y-62907210D01*
X59580417Y-62905604D01*
X59584522Y-62905514D01*
X59621987Y-62897205D01*
X59629632Y-62893840D01*
X59637978Y-62893443D01*
X59662565Y-62887324D01*
X59676882Y-62880579D01*
X59688127Y-62879753D01*
X59702418Y-62872565D01*
X59720402Y-62869995D01*
X59730016Y-62866613D01*
X59815491Y-62815997D01*
X59867504Y-62795434D01*
X59876877Y-62786360D01*
X59888467Y-62780900D01*
X59891673Y-62777373D01*
X59911213Y-62767545D01*
X59925745Y-62750709D01*
X59944884Y-62739375D01*
X59996480Y-62670574D01*
X60046919Y-62621744D01*
X60056862Y-62598798D01*
X60074376Y-62578507D01*
X60077372Y-62573222D01*
X60083592Y-62554412D01*
X60094704Y-62539595D01*
X60112323Y-62470812D01*
X60146207Y-62392617D01*
X60148660Y-62381250D01*
X60149062Y-62356430D01*
X60155774Y-62336134D01*
X60155103Y-62327001D01*
X60159644Y-62312310D01*
X60161604Y-62293428D01*
X60160125Y-62277555D01*
X60164080Y-62262109D01*
X60165594Y-62234272D01*
X60164436Y-62226176D01*
X60166265Y-62218207D01*
X60167382Y-62179978D01*
X60166630Y-62175523D01*
X60167580Y-62171104D01*
X60168348Y-62121045D01*
X60167881Y-62118491D01*
X60168406Y-62115947D01*
X60168873Y-62052621D01*
X60168590Y-62051142D01*
X60168888Y-62049665D01*
X60169103Y-61971637D01*
X60168965Y-61970934D01*
X60169105Y-61970233D01*
X60169133Y-61920485D01*
X60169097Y-61920305D01*
X60169133Y-61920125D01*
X60169133Y-61586924D01*
X60154598Y-61513850D01*
X60151897Y-61439396D01*
X60130468Y-61392542D01*
X60120416Y-61342007D01*
X60079022Y-61280057D01*
X60048035Y-61212304D01*
X60010306Y-61177216D01*
X59981681Y-61134376D01*
X59942143Y-61107957D01*
X59929772Y-61091993D01*
X59901006Y-61075567D01*
X59865176Y-61042245D01*
X59846126Y-61030492D01*
X59801138Y-61013741D01*
X59774050Y-60995641D01*
X59754082Y-60991669D01*
X59712921Y-60968165D01*
X59700442Y-60963995D01*
X59674678Y-60960728D01*
X59651163Y-60949696D01*
X59623998Y-60942982D01*
X59616189Y-60942623D01*
X59609037Y-60939475D01*
X59569172Y-60930632D01*
X59565095Y-60930543D01*
X59561341Y-60928946D01*
X59510763Y-60918389D01*
X59508019Y-60918363D01*
X59505484Y-60917310D01*
X59460790Y-60908373D01*
X59484990Y-60872292D01*
X59485724Y-60870529D01*
X59487068Y-60869174D01*
X59515971Y-60825532D01*
X59517033Y-60822938D01*
X59518989Y-60820932D01*
X59541644Y-60786077D01*
X59543593Y-60781197D01*
X59547201Y-60777375D01*
X59562527Y-60752942D01*
X59568386Y-60737559D01*
X59579064Y-60725031D01*
X59585979Y-60712655D01*
X59603309Y-60659141D01*
X59631790Y-60610633D01*
X59632025Y-60609957D01*
X59637587Y-60569972D01*
X59647054Y-60547938D01*
X59647357Y-60547294D01*
X59647360Y-60547225D01*
X59653524Y-60532879D01*
X59653917Y-60502864D01*
X59662913Y-60475086D01*
X59658496Y-60419658D01*
X59666430Y-60362623D01*
X59657668Y-60328940D01*
X59659136Y-60297856D01*
X59656693Y-60291068D01*
X59656796Y-60283186D01*
X59655528Y-60276343D01*
X59644966Y-60249869D01*
X59643077Y-60226160D01*
X59635807Y-60211927D01*
X59635560Y-60208719D01*
X59616759Y-60171673D01*
X59603565Y-60120950D01*
X59588087Y-60100470D01*
X59574563Y-60062898D01*
X59567629Y-60051379D01*
X59564335Y-60047759D01*
X59562997Y-60044404D01*
X59540397Y-60021204D01*
X59522551Y-59986039D01*
X59509046Y-59968851D01*
X59495339Y-59957106D01*
X59486288Y-59941488D01*
X59465308Y-59917644D01*
X59457869Y-59911955D01*
X59452941Y-59903990D01*
X59423582Y-59872499D01*
X59419297Y-59869413D01*
X59416446Y-59864968D01*
X59377801Y-59824841D01*
X59375261Y-59823074D01*
X59373567Y-59820487D01*
X59324733Y-59770734D01*
X59323209Y-59769695D01*
X59322190Y-59768158D01*
X59262263Y-59707790D01*
X59261663Y-59707386D01*
X59261262Y-59706784D01*
X59249205Y-59694691D01*
X59248218Y-59694029D01*
X59247555Y-59693042D01*
X59187524Y-59633274D01*
X59185440Y-59631888D01*
X59184030Y-59629822D01*
X59130466Y-59577305D01*
X59127814Y-59575571D01*
X59126003Y-59572972D01*
X59079816Y-59528560D01*
X59076044Y-59526145D01*
X59073432Y-59522505D01*
X59035536Y-59487056D01*
X59029182Y-59483110D01*
X59024680Y-59477131D01*
X58995984Y-59451499D01*
X58981636Y-59443040D01*
X58970948Y-59430264D01*
X58952364Y-59415304D01*
X58899520Y-59387696D01*
X58853480Y-59349811D01*
X58846561Y-59346101D01*
X58807068Y-59334064D01*
X58772106Y-59312117D01*
X58746566Y-59307789D01*
X58731033Y-59299674D01*
X58698050Y-59296740D01*
X58695812Y-59295652D01*
X58677434Y-59294554D01*
X58607694Y-59273298D01*
X58566603Y-59277291D01*
X58525901Y-59270393D01*
X58491171Y-59278335D01*
X58482299Y-59277546D01*
X58467984Y-59282036D01*
X58446541Y-59280755D01*
X58413568Y-59292160D01*
X58359148Y-59297448D01*
X58322718Y-59316859D01*
X58282470Y-59326063D01*
X58272079Y-59330718D01*
X58243578Y-59350959D01*
X58210545Y-59362385D01*
X58187884Y-59375643D01*
X58180792Y-59381935D01*
X58171924Y-59385295D01*
X58138629Y-59406100D01*
X58135162Y-59409361D01*
X58130737Y-59411112D01*
X58088444Y-59438406D01*
X58086187Y-59440593D01*
X58083278Y-59441776D01*
X58033626Y-59474502D01*
X58031883Y-59476223D01*
X58029622Y-59477163D01*
X58028915Y-59477637D01*
X58018632Y-59426433D01*
X58017663Y-59424106D01*
X58017639Y-59421584D01*
X58007112Y-59371187D01*
X58005653Y-59367758D01*
X58005575Y-59364036D01*
X57996815Y-59324369D01*
X57993937Y-59317813D01*
X57993629Y-59310657D01*
X57987034Y-59283631D01*
X57983067Y-59275109D01*
X57982915Y-59271485D01*
X57976541Y-59257750D01*
X57974326Y-59238731D01*
X57970297Y-59226251D01*
X57927128Y-59148825D01*
X57908091Y-59102954D01*
X57901162Y-59084250D01*
X57899654Y-59082623D01*
X57893150Y-59066951D01*
X57892881Y-59066548D01*
X57883420Y-59057100D01*
X57877792Y-59044973D01*
X57860209Y-59028802D01*
X57848692Y-59008146D01*
X57780858Y-58954463D01*
X57731404Y-58901110D01*
X57723654Y-58897550D01*
X57716186Y-58890092D01*
X57703830Y-58884984D01*
X57693990Y-58875934D01*
X57688940Y-58872856D01*
X57668104Y-58865229D01*
X57652877Y-58853179D01*
X57609801Y-58840943D01*
X57607455Y-58839165D01*
X57582145Y-58832548D01*
X57504484Y-58796875D01*
X57493949Y-58794361D01*
X57472241Y-58793538D01*
X57454440Y-58787022D01*
X57438879Y-58787673D01*
X57418168Y-58781032D01*
X57400667Y-58779029D01*
X57383005Y-58780488D01*
X57365859Y-58776005D01*
X57339910Y-58774463D01*
X57330953Y-58775698D01*
X57322146Y-58773655D01*
X57286268Y-58772522D01*
X57281389Y-58773333D01*
X57276554Y-58772289D01*
X57229268Y-58771514D01*
X57226502Y-58772017D01*
X57223747Y-58771447D01*
X57163567Y-58770980D01*
X57161982Y-58771283D01*
X57160403Y-58770964D01*
X57085853Y-58770754D01*
X57085062Y-58770909D01*
X57084269Y-58770751D01*
X57020066Y-58770729D01*
X57019083Y-58770924D01*
X57018098Y-58770731D01*
X56944542Y-58770932D01*
X56943000Y-58771243D01*
X56941456Y-58770948D01*
X56873021Y-58771465D01*
X56871306Y-58771820D01*
X56869583Y-58771500D01*
X56808161Y-58772294D01*
X56806015Y-58772750D01*
X56803859Y-58772365D01*
X56751344Y-58773397D01*
X56748210Y-58774085D01*
X56745041Y-58773551D01*
X56703325Y-58774782D01*
X56697487Y-58776123D01*
X56691566Y-58775238D01*
X56662542Y-58776629D01*
X56644773Y-58781057D01*
X56626533Y-58779374D01*
X56612092Y-58780886D01*
X56541446Y-58802791D01*
X56468204Y-58813027D01*
X56467116Y-58813406D01*
X56454648Y-58820737D01*
X56440425Y-58823375D01*
X56408789Y-58843925D01*
X56373580Y-58854842D01*
X56317768Y-58901223D01*
X56251856Y-58939979D01*
X56243142Y-58951524D01*
X56231011Y-58959404D01*
X56208723Y-58991841D01*
X56181524Y-59014444D01*
X56172244Y-59032065D01*
X56166350Y-59037214D01*
X56143194Y-59083944D01*
X56101418Y-59139294D01*
X56097785Y-59153296D01*
X56089594Y-59165217D01*
X56085299Y-59175216D01*
X56077485Y-59211999D01*
X56065165Y-59235393D01*
X56064482Y-59242795D01*
X56055478Y-59260966D01*
X56048586Y-59286493D01*
X56047797Y-59298194D01*
X56042971Y-59308886D01*
X56033731Y-59348775D01*
X56033555Y-59354386D01*
X56031335Y-59359541D01*
X56019998Y-59412628D01*
X56019949Y-59416098D01*
X56018610Y-59419300D01*
X56006786Y-59477704D01*
X55965813Y-59450468D01*
X55963301Y-59449434D01*
X55961359Y-59447534D01*
X55917270Y-59418754D01*
X55913590Y-59417276D01*
X55910724Y-59414538D01*
X55875375Y-59392071D01*
X55868511Y-59389410D01*
X55863073Y-59384446D01*
X55838062Y-59369333D01*
X55817027Y-59361721D01*
X55799507Y-59347816D01*
X55786431Y-59341099D01*
X55711068Y-59319575D01*
X55641818Y-59287711D01*
X55635653Y-59287473D01*
X55629930Y-59284983D01*
X55628788Y-59284735D01*
X55586456Y-59283987D01*
X55546316Y-59272523D01*
X55471422Y-59281137D01*
X55392288Y-59278084D01*
X55385910Y-59280442D01*
X55379112Y-59280322D01*
X55338084Y-59296473D01*
X55298236Y-59301056D01*
X55234778Y-59336320D01*
X55158069Y-59364681D01*
X55148533Y-59370534D01*
X55147486Y-59371503D01*
X55146752Y-59371792D01*
X55136880Y-59381321D01*
X55113576Y-59402894D01*
X55071821Y-59425814D01*
X55052165Y-59442316D01*
X55044409Y-59451984D01*
X55033776Y-59458360D01*
X55005580Y-59483925D01*
X55002081Y-59488645D01*
X54997097Y-59491757D01*
X54961948Y-59524801D01*
X54959872Y-59527709D01*
X54956862Y-59529635D01*
X54916344Y-59568572D01*
X54914885Y-59570664D01*
X54912748Y-59572055D01*
X54868447Y-59615299D01*
X54867283Y-59616997D01*
X54865567Y-59618129D01*
X54819067Y-59664096D01*
X54818033Y-59665624D01*
X54816499Y-59666649D01*
X54769385Y-59713753D01*
X54768367Y-59715276D01*
X54766847Y-59716304D01*
X54720703Y-59762960D01*
X54719588Y-59764649D01*
X54717920Y-59765792D01*
X54674330Y-59810415D01*
X54672979Y-59812490D01*
X54670948Y-59813904D01*
X54631499Y-59854907D01*
X54629647Y-59857798D01*
X54626849Y-59859791D01*
X54593125Y-59895591D01*
X54590198Y-59900268D01*
X54585761Y-59903543D01*
X54559346Y-59932553D01*
X54553528Y-59942209D01*
X54544694Y-59949215D01*
X54527173Y-59969851D01*
X54508220Y-60003926D01*
X54480812Y-60031660D01*
X54473770Y-60042335D01*
X54467716Y-60057199D01*
X54457011Y-60069159D01*
X54437879Y-60123701D01*
X54408226Y-60171733D01*
X54399767Y-60224020D01*
X54379572Y-60273602D01*
X54379667Y-60289652D01*
X54374354Y-60304798D01*
X54374286Y-60305277D01*
X54377432Y-60362083D01*
X54368347Y-60418244D01*
X54380410Y-60469231D01*
X54378960Y-60495476D01*
X54380915Y-60501048D01*
X54381047Y-60523313D01*
X54387167Y-60537846D01*
X54388096Y-60554610D01*
X54412740Y-60605886D01*
X54425839Y-60661251D01*
X54430500Y-60671451D01*
X54450394Y-60699024D01*
X54461652Y-60731103D01*
X54474925Y-60753557D01*
X54480997Y-60760340D01*
X54484250Y-60768839D01*
X54505068Y-60801909D01*
X54508210Y-60805226D01*
X54509903Y-60809472D01*
X54537201Y-60851516D01*
X54539299Y-60853670D01*
X54540439Y-60856454D01*
X54573151Y-60905832D01*
X54574813Y-60907507D01*
X54575401Y-60908914D01*
X54561043Y-60911739D01*
X54558394Y-60912830D01*
X54555529Y-60912849D01*
X54494966Y-60925317D01*
X54491161Y-60926923D01*
X54487029Y-60927003D01*
X54438649Y-60937604D01*
X54432111Y-60940462D01*
X54424984Y-60940756D01*
X54390020Y-60949224D01*
X54374525Y-60956405D01*
X54357523Y-60958006D01*
X54337209Y-60964073D01*
X54280442Y-60994102D01*
X54218973Y-61012712D01*
X54214196Y-61015262D01*
X54176377Y-61046265D01*
X54132262Y-61067348D01*
X54123448Y-61077152D01*
X54116476Y-61080840D01*
X54091387Y-61111144D01*
X54087233Y-61113599D01*
X54075996Y-61128553D01*
X54021077Y-61173574D01*
X53998002Y-61216687D01*
X53965311Y-61253050D01*
X53958915Y-61271156D01*
X53957230Y-61273191D01*
X53950649Y-61294555D01*
X53950107Y-61296088D01*
X53937222Y-61313236D01*
X53928800Y-61345986D01*
X53903241Y-61393740D01*
X53898422Y-61442398D01*
X53882134Y-61488505D01*
X53880600Y-61499142D01*
X53882110Y-61527539D01*
X53875027Y-61555082D01*
X53873604Y-61580759D01*
X53874638Y-61588047D01*
X53872967Y-61595215D01*
X53871695Y-61634040D01*
X53872286Y-61637620D01*
X53871502Y-61641160D01*
X53870419Y-61691243D01*
X53870829Y-61693566D01*
X53870335Y-61695875D01*
X53869480Y-61755319D01*
X53869811Y-61757119D01*
X53869439Y-61758909D01*
X53868852Y-61825825D01*
X53869150Y-61827398D01*
X53868832Y-61828967D01*
X53868552Y-61901460D01*
X53868734Y-61902395D01*
X53868547Y-61903331D01*
X53868530Y-61921445D01*
X52917000Y-61921445D01*
X52917000Y-54461571D01*
X53133000Y-54461571D01*
X53133000Y-54853429D01*
X53282958Y-55215458D01*
X53560042Y-55492542D01*
X53922071Y-55642500D01*
X54313929Y-55642500D01*
X54675958Y-55492542D01*
X54953042Y-55215458D01*
X55103000Y-54853429D01*
X55103000Y-54803275D01*
X55364278Y-54911500D01*
X56014722Y-54911500D01*
X56615653Y-54662586D01*
X56912707Y-54365532D01*
X57955073Y-54365532D01*
X58053736Y-54632387D01*
X58663461Y-54858908D01*
X59313460Y-54834856D01*
X59802264Y-54632387D01*
X59900927Y-54365532D01*
X58928000Y-53392605D01*
X57955073Y-54365532D01*
X56912707Y-54365532D01*
X57075586Y-54202653D01*
X57315998Y-53622249D01*
X57508613Y-54087264D01*
X57775468Y-54185927D01*
X58748395Y-53213000D01*
X59107605Y-53213000D01*
X60080532Y-54185927D01*
X60347387Y-54087264D01*
X60573908Y-53477539D01*
X60552085Y-52887778D01*
X60595000Y-52887778D01*
X60595000Y-53538222D01*
X60843914Y-54139153D01*
X61220881Y-54516120D01*
X61039458Y-54697542D01*
X60889500Y-55059571D01*
X60889500Y-55451429D01*
X61039458Y-55813458D01*
X61316542Y-56090542D01*
X61678571Y-56240500D01*
X62070429Y-56240500D01*
X62432458Y-56090542D01*
X62709542Y-55813458D01*
X62759543Y-55692746D01*
X62826028Y-55626261D01*
X62904097Y-55574097D01*
X63110750Y-55264819D01*
X63165000Y-54992086D01*
X63183317Y-54900000D01*
X63165000Y-54807914D01*
X63165000Y-54590239D01*
X63616086Y-54139153D01*
X63865000Y-53538222D01*
X63865000Y-52887778D01*
X63616086Y-52286847D01*
X63156153Y-51826914D01*
X62555222Y-51578000D01*
X61904778Y-51578000D01*
X61303847Y-51826914D01*
X60843914Y-52286847D01*
X60595000Y-52887778D01*
X60552085Y-52887778D01*
X60549856Y-52827540D01*
X60347387Y-52338736D01*
X60080532Y-52240073D01*
X59107605Y-53213000D01*
X58748395Y-53213000D01*
X57775468Y-52240073D01*
X57508613Y-52338736D01*
X57301592Y-52895973D01*
X57075586Y-52350347D01*
X56785707Y-52060468D01*
X57955073Y-52060468D01*
X58928000Y-53033395D01*
X59900927Y-52060468D01*
X59802264Y-51793613D01*
X59192539Y-51567092D01*
X58542540Y-51591144D01*
X58053736Y-51793613D01*
X57955073Y-52060468D01*
X56785707Y-52060468D01*
X56615653Y-51890414D01*
X56014722Y-51641500D01*
X55364278Y-51641500D01*
X54763347Y-51890414D01*
X54303414Y-52350347D01*
X54054500Y-52951278D01*
X54054500Y-53601722D01*
X54077882Y-53658171D01*
X54063554Y-53672500D01*
X53922071Y-53672500D01*
X53560042Y-53822458D01*
X53282958Y-54099542D01*
X53133000Y-54461571D01*
X52917000Y-54461571D01*
X52917000Y-46344999D01*
X53945546Y-46344998D01*
X54261917Y-46572056D01*
X54292921Y-46589254D01*
X54321308Y-46610490D01*
X54402695Y-46651246D01*
X55044262Y-46924236D01*
X55082467Y-46935480D01*
X55118988Y-46951360D01*
X55207568Y-46972300D01*
X55894729Y-47090376D01*
X55934494Y-47092529D01*
X55973690Y-47099582D01*
X56064712Y-47099582D01*
X56760606Y-47056410D01*
X56799802Y-47049357D01*
X56839567Y-47047204D01*
X56928148Y-47026264D01*
X57595445Y-46824159D01*
X57631966Y-46808279D01*
X57670171Y-46797035D01*
X57751558Y-46756279D01*
X58354464Y-46406083D01*
X58386352Y-46382227D01*
X58420945Y-46362496D01*
X58490774Y-46304111D01*
X58996947Y-45824610D01*
X59022494Y-45794055D01*
X59051618Y-45766897D01*
X59106142Y-45694013D01*
X59488429Y-45110929D01*
X59506260Y-45075320D01*
X59528357Y-45042188D01*
X59564652Y-44958715D01*
X59802548Y-44303323D01*
X59811709Y-44264570D01*
X59825592Y-44227240D01*
X59841710Y-44137657D01*
X59919146Y-43473471D01*
X59927582Y-43430477D01*
X59918913Y-40095000D01*
X61858419Y-40095000D01*
X62938518Y-40743060D01*
G04 #@! TD*
M02*
