G04 #@! TF.GenerationSoftware,KiCad,Pcbnew,5.1.9*
G04 #@! TF.CreationDate,2021-04-02T18:31:16+02:00*
G04 #@! TF.ProjectId,xling,786c696e-672e-46b6-9963-61645f706362,4.1*
G04 #@! TF.SameCoordinates,Original*
G04 #@! TF.FileFunction,Soldermask,Bot*
G04 #@! TF.FilePolarity,Negative*
%FSLAX46Y46*%
G04 Gerber Fmt 4.6, Leading zero omitted, Abs format (unit mm)*
G04 Created by KiCad (PCBNEW 5.1.9) date 2021-04-02 18:31:16*
%MOMM*%
%LPD*%
G01*
G04 APERTURE LIST*
%ADD10O,1.600000X2.300000*%
%ADD11C,1.850000*%
G04 APERTURE END LIST*
G36*
G01*
X57652800Y-76801400D02*
X57652800Y-76101400D01*
G75*
G02*
X57852800Y-75901400I200000J0D01*
G01*
X58652800Y-75901400D01*
G75*
G02*
X58852800Y-76101400I0J-200000D01*
G01*
X58852800Y-76801400D01*
G75*
G02*
X58652800Y-77001400I-200000J0D01*
G01*
X57852800Y-77001400D01*
G75*
G02*
X57652800Y-76801400I0J200000D01*
G01*
G37*
G36*
G01*
X62152800Y-76801400D02*
X62152800Y-76101400D01*
G75*
G02*
X62352800Y-75901400I200000J0D01*
G01*
X63152800Y-75901400D01*
G75*
G02*
X63352800Y-76101400I0J-200000D01*
G01*
X63352800Y-76801400D01*
G75*
G02*
X63152800Y-77001400I-200000J0D01*
G01*
X62352800Y-77001400D01*
G75*
G02*
X62152800Y-76801400I0J200000D01*
G01*
G37*
G36*
G01*
X57652800Y-73301400D02*
X57652800Y-72601400D01*
G75*
G02*
X57852800Y-72401400I200000J0D01*
G01*
X58652800Y-72401400D01*
G75*
G02*
X58852800Y-72601400I0J-200000D01*
G01*
X58852800Y-73301400D01*
G75*
G02*
X58652800Y-73501400I-200000J0D01*
G01*
X57852800Y-73501400D01*
G75*
G02*
X57652800Y-73301400I0J200000D01*
G01*
G37*
G36*
G01*
X62152800Y-73301400D02*
X62152800Y-72601400D01*
G75*
G02*
X62352800Y-72401400I200000J0D01*
G01*
X63152800Y-72401400D01*
G75*
G02*
X63352800Y-72601400I0J-200000D01*
G01*
X63352800Y-73301400D01*
G75*
G02*
X63152800Y-73501400I-200000J0D01*
G01*
X62352800Y-73501400D01*
G75*
G02*
X62152800Y-73301400I0J200000D01*
G01*
G37*
G36*
G01*
X71322200Y-74800000D02*
X71322200Y-74100000D01*
G75*
G02*
X71522200Y-73900000I200000J0D01*
G01*
X72322200Y-73900000D01*
G75*
G02*
X72522200Y-74100000I0J-200000D01*
G01*
X72522200Y-74800000D01*
G75*
G02*
X72322200Y-75000000I-200000J0D01*
G01*
X71522200Y-75000000D01*
G75*
G02*
X71322200Y-74800000I0J200000D01*
G01*
G37*
G36*
G01*
X66822200Y-74800000D02*
X66822200Y-74100000D01*
G75*
G02*
X67022200Y-73900000I200000J0D01*
G01*
X67822200Y-73900000D01*
G75*
G02*
X68022200Y-74100000I0J-200000D01*
G01*
X68022200Y-74800000D01*
G75*
G02*
X67822200Y-75000000I-200000J0D01*
G01*
X67022200Y-75000000D01*
G75*
G02*
X66822200Y-74800000I0J200000D01*
G01*
G37*
G36*
G01*
X71322200Y-78300000D02*
X71322200Y-77600000D01*
G75*
G02*
X71522200Y-77400000I200000J0D01*
G01*
X72322200Y-77400000D01*
G75*
G02*
X72522200Y-77600000I0J-200000D01*
G01*
X72522200Y-78300000D01*
G75*
G02*
X72322200Y-78500000I-200000J0D01*
G01*
X71522200Y-78500000D01*
G75*
G02*
X71322200Y-78300000I0J200000D01*
G01*
G37*
G36*
G01*
X66822200Y-78300000D02*
X66822200Y-77600000D01*
G75*
G02*
X67022200Y-77400000I200000J0D01*
G01*
X67822200Y-77400000D01*
G75*
G02*
X68022200Y-77600000I0J-200000D01*
G01*
X68022200Y-78300000D01*
G75*
G02*
X67822200Y-78500000I-200000J0D01*
G01*
X67022200Y-78500000D01*
G75*
G02*
X66822200Y-78300000I0J200000D01*
G01*
G37*
G36*
G01*
X80542400Y-73301400D02*
X80542400Y-72601400D01*
G75*
G02*
X80742400Y-72401400I200000J0D01*
G01*
X81542400Y-72401400D01*
G75*
G02*
X81742400Y-72601400I0J-200000D01*
G01*
X81742400Y-73301400D01*
G75*
G02*
X81542400Y-73501400I-200000J0D01*
G01*
X80742400Y-73501400D01*
G75*
G02*
X80542400Y-73301400I0J200000D01*
G01*
G37*
G36*
G01*
X76042400Y-73301400D02*
X76042400Y-72601400D01*
G75*
G02*
X76242400Y-72401400I200000J0D01*
G01*
X77042400Y-72401400D01*
G75*
G02*
X77242400Y-72601400I0J-200000D01*
G01*
X77242400Y-73301400D01*
G75*
G02*
X77042400Y-73501400I-200000J0D01*
G01*
X76242400Y-73501400D01*
G75*
G02*
X76042400Y-73301400I0J200000D01*
G01*
G37*
G36*
G01*
X80542400Y-76801400D02*
X80542400Y-76101400D01*
G75*
G02*
X80742400Y-75901400I200000J0D01*
G01*
X81542400Y-75901400D01*
G75*
G02*
X81742400Y-76101400I0J-200000D01*
G01*
X81742400Y-76801400D01*
G75*
G02*
X81542400Y-77001400I-200000J0D01*
G01*
X80742400Y-77001400D01*
G75*
G02*
X80542400Y-76801400I0J200000D01*
G01*
G37*
G36*
G01*
X76042400Y-76801400D02*
X76042400Y-76101400D01*
G75*
G02*
X76242400Y-75901400I200000J0D01*
G01*
X77042400Y-75901400D01*
G75*
G02*
X77242400Y-76101400I0J-200000D01*
G01*
X77242400Y-76801400D01*
G75*
G02*
X77042400Y-77001400I-200000J0D01*
G01*
X76242400Y-77001400D01*
G75*
G02*
X76042400Y-76801400I0J200000D01*
G01*
G37*
D10*
X68282000Y-84347500D03*
X61282000Y-84347500D03*
D11*
X67282000Y-81647500D03*
X62282000Y-81647500D03*
M02*
