G04 #@! TF.GenerationSoftware,KiCad,Pcbnew,5.1.9*
G04 #@! TF.CreationDate,2021-04-02T18:31:15+02:00*
G04 #@! TF.ProjectId,xling,786c696e-672e-46b6-9963-61645f706362,4.1*
G04 #@! TF.SameCoordinates,Original*
G04 #@! TF.FileFunction,Soldermask,Top*
G04 #@! TF.FilePolarity,Negative*
%FSLAX46Y46*%
G04 Gerber Fmt 4.6, Leading zero omitted, Abs format (unit mm)*
G04 Created by KiCad (PCBNEW 5.1.9) date 2021-04-02 18:31:15*
%MOMM*%
%LPD*%
G01*
G04 APERTURE LIST*
%ADD10C,1.400000*%
%ADD11C,0.900000*%
%ADD12O,1.600000X2.300000*%
%ADD13C,1.850000*%
%ADD14C,0.100000*%
G04 APERTURE END LIST*
D10*
X61379100Y-52285900D03*
D11*
X77520800Y-74447400D03*
X59334400Y-57404000D03*
X59842400Y-66065400D03*
X55245000Y-75158600D03*
X66649600Y-69392800D03*
X65862200Y-68834000D03*
X67233800Y-56642000D03*
X68961000Y-56972200D03*
X64592200Y-57353200D03*
X75031600Y-75133200D03*
X70662800Y-56972200D03*
X53492400Y-73863200D03*
X74244200Y-75742800D03*
G36*
G01*
X55342000Y-55431000D02*
X57942000Y-55431000D01*
G75*
G02*
X58342000Y-55831000I0J-400000D01*
G01*
X58342000Y-56631000D01*
G75*
G02*
X57942000Y-57031000I-400000J0D01*
G01*
X55342000Y-57031000D01*
G75*
G02*
X54942000Y-56631000I0J400000D01*
G01*
X54942000Y-55831000D01*
G75*
G02*
X55342000Y-55431000I400000J0D01*
G01*
G37*
G36*
G01*
X55342000Y-52891000D02*
X57942000Y-52891000D01*
G75*
G02*
X58342000Y-53291000I0J-400000D01*
G01*
X58342000Y-54091000D01*
G75*
G02*
X57942000Y-54491000I-400000J0D01*
G01*
X55342000Y-54491000D01*
G75*
G02*
X54942000Y-54091000I0J400000D01*
G01*
X54942000Y-53291000D01*
G75*
G02*
X55342000Y-52891000I400000J0D01*
G01*
G37*
G36*
G01*
X84759100Y-80069700D02*
X86259100Y-80069700D01*
G75*
G02*
X86459100Y-80269700I0J-200000D01*
G01*
X86459100Y-81269700D01*
G75*
G02*
X86259100Y-81469700I-200000J0D01*
G01*
X84759100Y-81469700D01*
G75*
G02*
X84559100Y-81269700I0J200000D01*
G01*
X84559100Y-80269700D01*
G75*
G02*
X84759100Y-80069700I200000J0D01*
G01*
G37*
G36*
G01*
X84759100Y-81369700D02*
X86259100Y-81369700D01*
G75*
G02*
X86459100Y-81569700I0J-200000D01*
G01*
X86459100Y-82569700D01*
G75*
G02*
X86259100Y-82769700I-200000J0D01*
G01*
X84759100Y-82769700D01*
G75*
G02*
X84559100Y-82569700I0J200000D01*
G01*
X84559100Y-81569700D01*
G75*
G02*
X84759100Y-81369700I200000J0D01*
G01*
G37*
G36*
G01*
X55225200Y-72420200D02*
X55225200Y-73020200D01*
G75*
G02*
X54925200Y-73320200I-300000J0D01*
G01*
X54225200Y-73320200D01*
G75*
G02*
X53925200Y-73020200I0J300000D01*
G01*
X53925200Y-72420200D01*
G75*
G02*
X54225200Y-72120200I300000J0D01*
G01*
X54925200Y-72120200D01*
G75*
G02*
X55225200Y-72420200I0J-300000D01*
G01*
G37*
G36*
G01*
X57225200Y-71470200D02*
X57225200Y-72070200D01*
G75*
G02*
X56925200Y-72370200I-300000J0D01*
G01*
X56225200Y-72370200D01*
G75*
G02*
X55925200Y-72070200I0J300000D01*
G01*
X55925200Y-71470200D01*
G75*
G02*
X56225200Y-71170200I300000J0D01*
G01*
X56925200Y-71170200D01*
G75*
G02*
X57225200Y-71470200I0J-300000D01*
G01*
G37*
G36*
G01*
X57225200Y-73370200D02*
X57225200Y-73970200D01*
G75*
G02*
X56925200Y-74270200I-300000J0D01*
G01*
X56225200Y-74270200D01*
G75*
G02*
X55925200Y-73970200I0J300000D01*
G01*
X55925200Y-73370200D01*
G75*
G02*
X56225200Y-73070200I300000J0D01*
G01*
X56925200Y-73070200D01*
G75*
G02*
X57225200Y-73370200I0J-300000D01*
G01*
G37*
G36*
G01*
X62034000Y-74460000D02*
X62034000Y-75560000D01*
G75*
G02*
X61834000Y-75760000I-200000J0D01*
G01*
X61234000Y-75760000D01*
G75*
G02*
X61034000Y-75560000I0J200000D01*
G01*
X61034000Y-74460000D01*
G75*
G02*
X61234000Y-74260000I200000J0D01*
G01*
X61834000Y-74260000D01*
G75*
G02*
X62034000Y-74460000I0J-200000D01*
G01*
G37*
G36*
G01*
X62034000Y-71660000D02*
X62034000Y-72760000D01*
G75*
G02*
X61834000Y-72960000I-200000J0D01*
G01*
X61234000Y-72960000D01*
G75*
G02*
X61034000Y-72760000I0J200000D01*
G01*
X61034000Y-71660000D01*
G75*
G02*
X61234000Y-71460000I200000J0D01*
G01*
X61834000Y-71460000D01*
G75*
G02*
X62034000Y-71660000I0J-200000D01*
G01*
G37*
G36*
G01*
X62984000Y-71660000D02*
X62984000Y-72760000D01*
G75*
G02*
X62784000Y-72960000I-200000J0D01*
G01*
X62184000Y-72960000D01*
G75*
G02*
X61984000Y-72760000I0J200000D01*
G01*
X61984000Y-71660000D01*
G75*
G02*
X62184000Y-71460000I200000J0D01*
G01*
X62784000Y-71460000D01*
G75*
G02*
X62984000Y-71660000I0J-200000D01*
G01*
G37*
G36*
G01*
X63934000Y-71660000D02*
X63934000Y-72760000D01*
G75*
G02*
X63734000Y-72960000I-200000J0D01*
G01*
X63134000Y-72960000D01*
G75*
G02*
X62934000Y-72760000I0J200000D01*
G01*
X62934000Y-71660000D01*
G75*
G02*
X63134000Y-71460000I200000J0D01*
G01*
X63734000Y-71460000D01*
G75*
G02*
X63934000Y-71660000I0J-200000D01*
G01*
G37*
G36*
G01*
X63934000Y-74460000D02*
X63934000Y-75560000D01*
G75*
G02*
X63734000Y-75760000I-200000J0D01*
G01*
X63134000Y-75760000D01*
G75*
G02*
X62934000Y-75560000I0J200000D01*
G01*
X62934000Y-74460000D01*
G75*
G02*
X63134000Y-74260000I200000J0D01*
G01*
X63734000Y-74260000D01*
G75*
G02*
X63934000Y-74460000I0J-200000D01*
G01*
G37*
G36*
G01*
X58257500Y-63204000D02*
X59257500Y-63204000D01*
G75*
G02*
X59457500Y-63404000I0J-200000D01*
G01*
X59457500Y-64104000D01*
G75*
G02*
X59257500Y-64304000I-200000J0D01*
G01*
X58257500Y-64304000D01*
G75*
G02*
X58057500Y-64104000I0J200000D01*
G01*
X58057500Y-63404000D01*
G75*
G02*
X58257500Y-63204000I200000J0D01*
G01*
G37*
G36*
G01*
X58257500Y-62254000D02*
X59257500Y-62254000D01*
G75*
G02*
X59457500Y-62454000I0J-200000D01*
G01*
X59457500Y-63154000D01*
G75*
G02*
X59257500Y-63354000I-200000J0D01*
G01*
X58257500Y-63354000D01*
G75*
G02*
X58057500Y-63154000I0J200000D01*
G01*
X58057500Y-62454000D01*
G75*
G02*
X58257500Y-62254000I200000J0D01*
G01*
G37*
G36*
G01*
X58257500Y-64154000D02*
X59257500Y-64154000D01*
G75*
G02*
X59457500Y-64354000I0J-200000D01*
G01*
X59457500Y-65054000D01*
G75*
G02*
X59257500Y-65254000I-200000J0D01*
G01*
X58257500Y-65254000D01*
G75*
G02*
X58057500Y-65054000I0J200000D01*
G01*
X58057500Y-64354000D01*
G75*
G02*
X58257500Y-64154000I200000J0D01*
G01*
G37*
G36*
G01*
X56058500Y-64154000D02*
X57058500Y-64154000D01*
G75*
G02*
X57258500Y-64354000I0J-200000D01*
G01*
X57258500Y-65054000D01*
G75*
G02*
X57058500Y-65254000I-200000J0D01*
G01*
X56058500Y-65254000D01*
G75*
G02*
X55858500Y-65054000I0J200000D01*
G01*
X55858500Y-64354000D01*
G75*
G02*
X56058500Y-64154000I200000J0D01*
G01*
G37*
G36*
G01*
X56058500Y-63204000D02*
X57058500Y-63204000D01*
G75*
G02*
X57258500Y-63404000I0J-200000D01*
G01*
X57258500Y-64104000D01*
G75*
G02*
X57058500Y-64304000I-200000J0D01*
G01*
X56058500Y-64304000D01*
G75*
G02*
X55858500Y-64104000I0J200000D01*
G01*
X55858500Y-63404000D01*
G75*
G02*
X56058500Y-63204000I200000J0D01*
G01*
G37*
G36*
G01*
X56058500Y-62254000D02*
X57058500Y-62254000D01*
G75*
G02*
X57258500Y-62454000I0J-200000D01*
G01*
X57258500Y-63154000D01*
G75*
G02*
X57058500Y-63354000I-200000J0D01*
G01*
X56058500Y-63354000D01*
G75*
G02*
X55858500Y-63154000I0J200000D01*
G01*
X55858500Y-62454000D01*
G75*
G02*
X56058500Y-62254000I200000J0D01*
G01*
G37*
G36*
G01*
X72681215Y-72032731D02*
X73070123Y-72421639D01*
G75*
G02*
X73070123Y-72704481I-141421J-141421D01*
G01*
X72009463Y-73765141D01*
G75*
G02*
X71726621Y-73765141I-141421J141421D01*
G01*
X71337713Y-73376233D01*
G75*
G02*
X71337713Y-73093391I141421J141421D01*
G01*
X72398373Y-72032731D01*
G75*
G02*
X72681215Y-72032731I141421J-141421D01*
G01*
G37*
G36*
G01*
X72115530Y-71467045D02*
X72504438Y-71855953D01*
G75*
G02*
X72504438Y-72138795I-141421J-141421D01*
G01*
X71443778Y-73199455D01*
G75*
G02*
X71160936Y-73199455I-141421J141421D01*
G01*
X70772028Y-72810547D01*
G75*
G02*
X70772028Y-72527705I141421J141421D01*
G01*
X71832688Y-71467045D01*
G75*
G02*
X72115530Y-71467045I141421J-141421D01*
G01*
G37*
G36*
G01*
X71549845Y-70901360D02*
X71938753Y-71290268D01*
G75*
G02*
X71938753Y-71573110I-141421J-141421D01*
G01*
X70878093Y-72633770D01*
G75*
G02*
X70595251Y-72633770I-141421J141421D01*
G01*
X70206343Y-72244862D01*
G75*
G02*
X70206343Y-71962020I141421J141421D01*
G01*
X71267003Y-70901360D01*
G75*
G02*
X71549845Y-70901360I141421J-141421D01*
G01*
G37*
G36*
G01*
X70984159Y-70335675D02*
X71373067Y-70724583D01*
G75*
G02*
X71373067Y-71007425I-141421J-141421D01*
G01*
X70312407Y-72068085D01*
G75*
G02*
X70029565Y-72068085I-141421J141421D01*
G01*
X69640657Y-71679177D01*
G75*
G02*
X69640657Y-71396335I141421J141421D01*
G01*
X70701317Y-70335675D01*
G75*
G02*
X70984159Y-70335675I141421J-141421D01*
G01*
G37*
G36*
G01*
X70418474Y-69769989D02*
X70807382Y-70158897D01*
G75*
G02*
X70807382Y-70441739I-141421J-141421D01*
G01*
X69746722Y-71502399D01*
G75*
G02*
X69463880Y-71502399I-141421J141421D01*
G01*
X69074972Y-71113491D01*
G75*
G02*
X69074972Y-70830649I141421J141421D01*
G01*
X70135632Y-69769989D01*
G75*
G02*
X70418474Y-69769989I141421J-141421D01*
G01*
G37*
G36*
G01*
X69852788Y-69204304D02*
X70241696Y-69593212D01*
G75*
G02*
X70241696Y-69876054I-141421J-141421D01*
G01*
X69181036Y-70936714D01*
G75*
G02*
X68898194Y-70936714I-141421J141421D01*
G01*
X68509286Y-70547806D01*
G75*
G02*
X68509286Y-70264964I141421J141421D01*
G01*
X69569946Y-69204304D01*
G75*
G02*
X69852788Y-69204304I141421J-141421D01*
G01*
G37*
G36*
G01*
X69287103Y-68638618D02*
X69676011Y-69027526D01*
G75*
G02*
X69676011Y-69310368I-141421J-141421D01*
G01*
X68615351Y-70371028D01*
G75*
G02*
X68332509Y-70371028I-141421J141421D01*
G01*
X67943601Y-69982120D01*
G75*
G02*
X67943601Y-69699278I141421J141421D01*
G01*
X69004261Y-68638618D01*
G75*
G02*
X69287103Y-68638618I141421J-141421D01*
G01*
G37*
G36*
G01*
X68721417Y-68072933D02*
X69110325Y-68461841D01*
G75*
G02*
X69110325Y-68744683I-141421J-141421D01*
G01*
X68049665Y-69805343D01*
G75*
G02*
X67766823Y-69805343I-141421J141421D01*
G01*
X67377915Y-69416435D01*
G75*
G02*
X67377915Y-69133593I141421J141421D01*
G01*
X68438575Y-68072933D01*
G75*
G02*
X68721417Y-68072933I141421J-141421D01*
G01*
G37*
G36*
G01*
X68155732Y-67507247D02*
X68544640Y-67896155D01*
G75*
G02*
X68544640Y-68178997I-141421J-141421D01*
G01*
X67483980Y-69239657D01*
G75*
G02*
X67201138Y-69239657I-141421J141421D01*
G01*
X66812230Y-68850749D01*
G75*
G02*
X66812230Y-68567907I141421J141421D01*
G01*
X67872890Y-67507247D01*
G75*
G02*
X68155732Y-67507247I141421J-141421D01*
G01*
G37*
G36*
G01*
X67590047Y-66941562D02*
X67978955Y-67330470D01*
G75*
G02*
X67978955Y-67613312I-141421J-141421D01*
G01*
X66918295Y-68673972D01*
G75*
G02*
X66635453Y-68673972I-141421J141421D01*
G01*
X66246545Y-68285064D01*
G75*
G02*
X66246545Y-68002222I141421J141421D01*
G01*
X67307205Y-66941562D01*
G75*
G02*
X67590047Y-66941562I141421J-141421D01*
G01*
G37*
G36*
G01*
X67024361Y-66375877D02*
X67413269Y-66764785D01*
G75*
G02*
X67413269Y-67047627I-141421J-141421D01*
G01*
X66352609Y-68108287D01*
G75*
G02*
X66069767Y-68108287I-141421J141421D01*
G01*
X65680859Y-67719379D01*
G75*
G02*
X65680859Y-67436537I141421J141421D01*
G01*
X66741519Y-66375877D01*
G75*
G02*
X67024361Y-66375877I141421J-141421D01*
G01*
G37*
G36*
G01*
X67413269Y-65315215D02*
X67024361Y-65704123D01*
G75*
G02*
X66741519Y-65704123I-141421J141421D01*
G01*
X65680859Y-64643463D01*
G75*
G02*
X65680859Y-64360621I141421J141421D01*
G01*
X66069767Y-63971713D01*
G75*
G02*
X66352609Y-63971713I141421J-141421D01*
G01*
X67413269Y-65032373D01*
G75*
G02*
X67413269Y-65315215I-141421J-141421D01*
G01*
G37*
G36*
G01*
X67978955Y-64749530D02*
X67590047Y-65138438D01*
G75*
G02*
X67307205Y-65138438I-141421J141421D01*
G01*
X66246545Y-64077778D01*
G75*
G02*
X66246545Y-63794936I141421J141421D01*
G01*
X66635453Y-63406028D01*
G75*
G02*
X66918295Y-63406028I141421J-141421D01*
G01*
X67978955Y-64466688D01*
G75*
G02*
X67978955Y-64749530I-141421J-141421D01*
G01*
G37*
G36*
G01*
X68544640Y-64183845D02*
X68155732Y-64572753D01*
G75*
G02*
X67872890Y-64572753I-141421J141421D01*
G01*
X66812230Y-63512093D01*
G75*
G02*
X66812230Y-63229251I141421J141421D01*
G01*
X67201138Y-62840343D01*
G75*
G02*
X67483980Y-62840343I141421J-141421D01*
G01*
X68544640Y-63901003D01*
G75*
G02*
X68544640Y-64183845I-141421J-141421D01*
G01*
G37*
G36*
G01*
X69110325Y-63618159D02*
X68721417Y-64007067D01*
G75*
G02*
X68438575Y-64007067I-141421J141421D01*
G01*
X67377915Y-62946407D01*
G75*
G02*
X67377915Y-62663565I141421J141421D01*
G01*
X67766823Y-62274657D01*
G75*
G02*
X68049665Y-62274657I141421J-141421D01*
G01*
X69110325Y-63335317D01*
G75*
G02*
X69110325Y-63618159I-141421J-141421D01*
G01*
G37*
G36*
G01*
X69676011Y-63052474D02*
X69287103Y-63441382D01*
G75*
G02*
X69004261Y-63441382I-141421J141421D01*
G01*
X67943601Y-62380722D01*
G75*
G02*
X67943601Y-62097880I141421J141421D01*
G01*
X68332509Y-61708972D01*
G75*
G02*
X68615351Y-61708972I141421J-141421D01*
G01*
X69676011Y-62769632D01*
G75*
G02*
X69676011Y-63052474I-141421J-141421D01*
G01*
G37*
G36*
G01*
X70241696Y-62486788D02*
X69852788Y-62875696D01*
G75*
G02*
X69569946Y-62875696I-141421J141421D01*
G01*
X68509286Y-61815036D01*
G75*
G02*
X68509286Y-61532194I141421J141421D01*
G01*
X68898194Y-61143286D01*
G75*
G02*
X69181036Y-61143286I141421J-141421D01*
G01*
X70241696Y-62203946D01*
G75*
G02*
X70241696Y-62486788I-141421J-141421D01*
G01*
G37*
G36*
G01*
X70807382Y-61921103D02*
X70418474Y-62310011D01*
G75*
G02*
X70135632Y-62310011I-141421J141421D01*
G01*
X69074972Y-61249351D01*
G75*
G02*
X69074972Y-60966509I141421J141421D01*
G01*
X69463880Y-60577601D01*
G75*
G02*
X69746722Y-60577601I141421J-141421D01*
G01*
X70807382Y-61638261D01*
G75*
G02*
X70807382Y-61921103I-141421J-141421D01*
G01*
G37*
G36*
G01*
X71373067Y-61355417D02*
X70984159Y-61744325D01*
G75*
G02*
X70701317Y-61744325I-141421J141421D01*
G01*
X69640657Y-60683665D01*
G75*
G02*
X69640657Y-60400823I141421J141421D01*
G01*
X70029565Y-60011915D01*
G75*
G02*
X70312407Y-60011915I141421J-141421D01*
G01*
X71373067Y-61072575D01*
G75*
G02*
X71373067Y-61355417I-141421J-141421D01*
G01*
G37*
G36*
G01*
X71938753Y-60789732D02*
X71549845Y-61178640D01*
G75*
G02*
X71267003Y-61178640I-141421J141421D01*
G01*
X70206343Y-60117980D01*
G75*
G02*
X70206343Y-59835138I141421J141421D01*
G01*
X70595251Y-59446230D01*
G75*
G02*
X70878093Y-59446230I141421J-141421D01*
G01*
X71938753Y-60506890D01*
G75*
G02*
X71938753Y-60789732I-141421J-141421D01*
G01*
G37*
G36*
G01*
X72504438Y-60224047D02*
X72115530Y-60612955D01*
G75*
G02*
X71832688Y-60612955I-141421J141421D01*
G01*
X70772028Y-59552295D01*
G75*
G02*
X70772028Y-59269453I141421J141421D01*
G01*
X71160936Y-58880545D01*
G75*
G02*
X71443778Y-58880545I141421J-141421D01*
G01*
X72504438Y-59941205D01*
G75*
G02*
X72504438Y-60224047I-141421J-141421D01*
G01*
G37*
G36*
G01*
X73070123Y-59658361D02*
X72681215Y-60047269D01*
G75*
G02*
X72398373Y-60047269I-141421J141421D01*
G01*
X71337713Y-58986609D01*
G75*
G02*
X71337713Y-58703767I141421J141421D01*
G01*
X71726621Y-58314859D01*
G75*
G02*
X72009463Y-58314859I141421J-141421D01*
G01*
X73070123Y-59375519D01*
G75*
G02*
X73070123Y-59658361I-141421J-141421D01*
G01*
G37*
G36*
G01*
X75085379Y-58314859D02*
X75474287Y-58703767D01*
G75*
G02*
X75474287Y-58986609I-141421J-141421D01*
G01*
X74413627Y-60047269D01*
G75*
G02*
X74130785Y-60047269I-141421J141421D01*
G01*
X73741877Y-59658361D01*
G75*
G02*
X73741877Y-59375519I141421J141421D01*
G01*
X74802537Y-58314859D01*
G75*
G02*
X75085379Y-58314859I141421J-141421D01*
G01*
G37*
G36*
G01*
X75651064Y-58880545D02*
X76039972Y-59269453D01*
G75*
G02*
X76039972Y-59552295I-141421J-141421D01*
G01*
X74979312Y-60612955D01*
G75*
G02*
X74696470Y-60612955I-141421J141421D01*
G01*
X74307562Y-60224047D01*
G75*
G02*
X74307562Y-59941205I141421J141421D01*
G01*
X75368222Y-58880545D01*
G75*
G02*
X75651064Y-58880545I141421J-141421D01*
G01*
G37*
G36*
G01*
X76216749Y-59446230D02*
X76605657Y-59835138D01*
G75*
G02*
X76605657Y-60117980I-141421J-141421D01*
G01*
X75544997Y-61178640D01*
G75*
G02*
X75262155Y-61178640I-141421J141421D01*
G01*
X74873247Y-60789732D01*
G75*
G02*
X74873247Y-60506890I141421J141421D01*
G01*
X75933907Y-59446230D01*
G75*
G02*
X76216749Y-59446230I141421J-141421D01*
G01*
G37*
G36*
G01*
X76782435Y-60011915D02*
X77171343Y-60400823D01*
G75*
G02*
X77171343Y-60683665I-141421J-141421D01*
G01*
X76110683Y-61744325D01*
G75*
G02*
X75827841Y-61744325I-141421J141421D01*
G01*
X75438933Y-61355417D01*
G75*
G02*
X75438933Y-61072575I141421J141421D01*
G01*
X76499593Y-60011915D01*
G75*
G02*
X76782435Y-60011915I141421J-141421D01*
G01*
G37*
G36*
G01*
X77348120Y-60577601D02*
X77737028Y-60966509D01*
G75*
G02*
X77737028Y-61249351I-141421J-141421D01*
G01*
X76676368Y-62310011D01*
G75*
G02*
X76393526Y-62310011I-141421J141421D01*
G01*
X76004618Y-61921103D01*
G75*
G02*
X76004618Y-61638261I141421J141421D01*
G01*
X77065278Y-60577601D01*
G75*
G02*
X77348120Y-60577601I141421J-141421D01*
G01*
G37*
G36*
G01*
X77913806Y-61143286D02*
X78302714Y-61532194D01*
G75*
G02*
X78302714Y-61815036I-141421J-141421D01*
G01*
X77242054Y-62875696D01*
G75*
G02*
X76959212Y-62875696I-141421J141421D01*
G01*
X76570304Y-62486788D01*
G75*
G02*
X76570304Y-62203946I141421J141421D01*
G01*
X77630964Y-61143286D01*
G75*
G02*
X77913806Y-61143286I141421J-141421D01*
G01*
G37*
G36*
G01*
X78479491Y-61708972D02*
X78868399Y-62097880D01*
G75*
G02*
X78868399Y-62380722I-141421J-141421D01*
G01*
X77807739Y-63441382D01*
G75*
G02*
X77524897Y-63441382I-141421J141421D01*
G01*
X77135989Y-63052474D01*
G75*
G02*
X77135989Y-62769632I141421J141421D01*
G01*
X78196649Y-61708972D01*
G75*
G02*
X78479491Y-61708972I141421J-141421D01*
G01*
G37*
G36*
G01*
X79045177Y-62274657D02*
X79434085Y-62663565D01*
G75*
G02*
X79434085Y-62946407I-141421J-141421D01*
G01*
X78373425Y-64007067D01*
G75*
G02*
X78090583Y-64007067I-141421J141421D01*
G01*
X77701675Y-63618159D01*
G75*
G02*
X77701675Y-63335317I141421J141421D01*
G01*
X78762335Y-62274657D01*
G75*
G02*
X79045177Y-62274657I141421J-141421D01*
G01*
G37*
G36*
G01*
X79610862Y-62840343D02*
X79999770Y-63229251D01*
G75*
G02*
X79999770Y-63512093I-141421J-141421D01*
G01*
X78939110Y-64572753D01*
G75*
G02*
X78656268Y-64572753I-141421J141421D01*
G01*
X78267360Y-64183845D01*
G75*
G02*
X78267360Y-63901003I141421J141421D01*
G01*
X79328020Y-62840343D01*
G75*
G02*
X79610862Y-62840343I141421J-141421D01*
G01*
G37*
G36*
G01*
X80176547Y-63406028D02*
X80565455Y-63794936D01*
G75*
G02*
X80565455Y-64077778I-141421J-141421D01*
G01*
X79504795Y-65138438D01*
G75*
G02*
X79221953Y-65138438I-141421J141421D01*
G01*
X78833045Y-64749530D01*
G75*
G02*
X78833045Y-64466688I141421J141421D01*
G01*
X79893705Y-63406028D01*
G75*
G02*
X80176547Y-63406028I141421J-141421D01*
G01*
G37*
G36*
G01*
X80742233Y-63971713D02*
X81131141Y-64360621D01*
G75*
G02*
X81131141Y-64643463I-141421J-141421D01*
G01*
X80070481Y-65704123D01*
G75*
G02*
X79787639Y-65704123I-141421J141421D01*
G01*
X79398731Y-65315215D01*
G75*
G02*
X79398731Y-65032373I141421J141421D01*
G01*
X80459391Y-63971713D01*
G75*
G02*
X80742233Y-63971713I141421J-141421D01*
G01*
G37*
G36*
G01*
X81131141Y-67719379D02*
X80742233Y-68108287D01*
G75*
G02*
X80459391Y-68108287I-141421J141421D01*
G01*
X79398731Y-67047627D01*
G75*
G02*
X79398731Y-66764785I141421J141421D01*
G01*
X79787639Y-66375877D01*
G75*
G02*
X80070481Y-66375877I141421J-141421D01*
G01*
X81131141Y-67436537D01*
G75*
G02*
X81131141Y-67719379I-141421J-141421D01*
G01*
G37*
G36*
G01*
X80565455Y-68285064D02*
X80176547Y-68673972D01*
G75*
G02*
X79893705Y-68673972I-141421J141421D01*
G01*
X78833045Y-67613312D01*
G75*
G02*
X78833045Y-67330470I141421J141421D01*
G01*
X79221953Y-66941562D01*
G75*
G02*
X79504795Y-66941562I141421J-141421D01*
G01*
X80565455Y-68002222D01*
G75*
G02*
X80565455Y-68285064I-141421J-141421D01*
G01*
G37*
G36*
G01*
X79999770Y-68850749D02*
X79610862Y-69239657D01*
G75*
G02*
X79328020Y-69239657I-141421J141421D01*
G01*
X78267360Y-68178997D01*
G75*
G02*
X78267360Y-67896155I141421J141421D01*
G01*
X78656268Y-67507247D01*
G75*
G02*
X78939110Y-67507247I141421J-141421D01*
G01*
X79999770Y-68567907D01*
G75*
G02*
X79999770Y-68850749I-141421J-141421D01*
G01*
G37*
G36*
G01*
X79434085Y-69416435D02*
X79045177Y-69805343D01*
G75*
G02*
X78762335Y-69805343I-141421J141421D01*
G01*
X77701675Y-68744683D01*
G75*
G02*
X77701675Y-68461841I141421J141421D01*
G01*
X78090583Y-68072933D01*
G75*
G02*
X78373425Y-68072933I141421J-141421D01*
G01*
X79434085Y-69133593D01*
G75*
G02*
X79434085Y-69416435I-141421J-141421D01*
G01*
G37*
G36*
G01*
X78868399Y-69982120D02*
X78479491Y-70371028D01*
G75*
G02*
X78196649Y-70371028I-141421J141421D01*
G01*
X77135989Y-69310368D01*
G75*
G02*
X77135989Y-69027526I141421J141421D01*
G01*
X77524897Y-68638618D01*
G75*
G02*
X77807739Y-68638618I141421J-141421D01*
G01*
X78868399Y-69699278D01*
G75*
G02*
X78868399Y-69982120I-141421J-141421D01*
G01*
G37*
G36*
G01*
X78302714Y-70547806D02*
X77913806Y-70936714D01*
G75*
G02*
X77630964Y-70936714I-141421J141421D01*
G01*
X76570304Y-69876054D01*
G75*
G02*
X76570304Y-69593212I141421J141421D01*
G01*
X76959212Y-69204304D01*
G75*
G02*
X77242054Y-69204304I141421J-141421D01*
G01*
X78302714Y-70264964D01*
G75*
G02*
X78302714Y-70547806I-141421J-141421D01*
G01*
G37*
G36*
G01*
X77737028Y-71113491D02*
X77348120Y-71502399D01*
G75*
G02*
X77065278Y-71502399I-141421J141421D01*
G01*
X76004618Y-70441739D01*
G75*
G02*
X76004618Y-70158897I141421J141421D01*
G01*
X76393526Y-69769989D01*
G75*
G02*
X76676368Y-69769989I141421J-141421D01*
G01*
X77737028Y-70830649D01*
G75*
G02*
X77737028Y-71113491I-141421J-141421D01*
G01*
G37*
G36*
G01*
X77171343Y-71679177D02*
X76782435Y-72068085D01*
G75*
G02*
X76499593Y-72068085I-141421J141421D01*
G01*
X75438933Y-71007425D01*
G75*
G02*
X75438933Y-70724583I141421J141421D01*
G01*
X75827841Y-70335675D01*
G75*
G02*
X76110683Y-70335675I141421J-141421D01*
G01*
X77171343Y-71396335D01*
G75*
G02*
X77171343Y-71679177I-141421J-141421D01*
G01*
G37*
G36*
G01*
X76605657Y-72244862D02*
X76216749Y-72633770D01*
G75*
G02*
X75933907Y-72633770I-141421J141421D01*
G01*
X74873247Y-71573110D01*
G75*
G02*
X74873247Y-71290268I141421J141421D01*
G01*
X75262155Y-70901360D01*
G75*
G02*
X75544997Y-70901360I141421J-141421D01*
G01*
X76605657Y-71962020D01*
G75*
G02*
X76605657Y-72244862I-141421J-141421D01*
G01*
G37*
G36*
G01*
X76039972Y-72810547D02*
X75651064Y-73199455D01*
G75*
G02*
X75368222Y-73199455I-141421J141421D01*
G01*
X74307562Y-72138795D01*
G75*
G02*
X74307562Y-71855953I141421J141421D01*
G01*
X74696470Y-71467045D01*
G75*
G02*
X74979312Y-71467045I141421J-141421D01*
G01*
X76039972Y-72527705D01*
G75*
G02*
X76039972Y-72810547I-141421J-141421D01*
G01*
G37*
G36*
G01*
X75474287Y-73376233D02*
X75085379Y-73765141D01*
G75*
G02*
X74802537Y-73765141I-141421J141421D01*
G01*
X73741877Y-72704481D01*
G75*
G02*
X73741877Y-72421639I141421J141421D01*
G01*
X74130785Y-72032731D01*
G75*
G02*
X74413627Y-72032731I141421J-141421D01*
G01*
X75474287Y-73093391D01*
G75*
G02*
X75474287Y-73376233I-141421J-141421D01*
G01*
G37*
G36*
G01*
X57947000Y-74406000D02*
X59147000Y-74406000D01*
G75*
G02*
X59347000Y-74606000I0J-200000D01*
G01*
X59347000Y-75506000D01*
G75*
G02*
X59147000Y-75706000I-200000J0D01*
G01*
X57947000Y-75706000D01*
G75*
G02*
X57747000Y-75506000I0J200000D01*
G01*
X57747000Y-74606000D01*
G75*
G02*
X57947000Y-74406000I200000J0D01*
G01*
G37*
G36*
G01*
X57947000Y-71106000D02*
X59147000Y-71106000D01*
G75*
G02*
X59347000Y-71306000I0J-200000D01*
G01*
X59347000Y-72206000D01*
G75*
G02*
X59147000Y-72406000I-200000J0D01*
G01*
X57947000Y-72406000D01*
G75*
G02*
X57747000Y-72206000I0J200000D01*
G01*
X57747000Y-71306000D01*
G75*
G02*
X57947000Y-71106000I200000J0D01*
G01*
G37*
G36*
G01*
X62634000Y-77691000D02*
X62634000Y-76741000D01*
G75*
G02*
X62834000Y-76541000I200000J0D01*
G01*
X63709000Y-76541000D01*
G75*
G02*
X63909000Y-76741000I0J-200000D01*
G01*
X63909000Y-77691000D01*
G75*
G02*
X63709000Y-77891000I-200000J0D01*
G01*
X62834000Y-77891000D01*
G75*
G02*
X62634000Y-77691000I0J200000D01*
G01*
G37*
G36*
G01*
X61059000Y-77691000D02*
X61059000Y-76741000D01*
G75*
G02*
X61259000Y-76541000I200000J0D01*
G01*
X62134000Y-76541000D01*
G75*
G02*
X62334000Y-76741000I0J-200000D01*
G01*
X62334000Y-77691000D01*
G75*
G02*
X62134000Y-77891000I-200000J0D01*
G01*
X61259000Y-77891000D01*
G75*
G02*
X61059000Y-77691000I0J200000D01*
G01*
G37*
G36*
G01*
X56702000Y-78685000D02*
X56702000Y-81335000D01*
G75*
G02*
X56502000Y-81535000I-200000J0D01*
G01*
X55252000Y-81535000D01*
G75*
G02*
X55052000Y-81335000I0J200000D01*
G01*
X55052000Y-78685000D01*
G75*
G02*
X55252000Y-78485000I200000J0D01*
G01*
X56502000Y-78485000D01*
G75*
G02*
X56702000Y-78685000I0J-200000D01*
G01*
G37*
G36*
G01*
X59502000Y-78685000D02*
X59502000Y-81335000D01*
G75*
G02*
X59302000Y-81535000I-200000J0D01*
G01*
X58052000Y-81535000D01*
G75*
G02*
X57852000Y-81335000I0J200000D01*
G01*
X57852000Y-78685000D01*
G75*
G02*
X58052000Y-78485000I200000J0D01*
G01*
X59302000Y-78485000D01*
G75*
G02*
X59502000Y-78685000I0J-200000D01*
G01*
G37*
G36*
G01*
X57852000Y-85145000D02*
X57852000Y-82495000D01*
G75*
G02*
X58052000Y-82295000I200000J0D01*
G01*
X59302000Y-82295000D01*
G75*
G02*
X59502000Y-82495000I0J-200000D01*
G01*
X59502000Y-85145000D01*
G75*
G02*
X59302000Y-85345000I-200000J0D01*
G01*
X58052000Y-85345000D01*
G75*
G02*
X57852000Y-85145000I0J200000D01*
G01*
G37*
G36*
G01*
X55052000Y-85145000D02*
X55052000Y-82495000D01*
G75*
G02*
X55252000Y-82295000I200000J0D01*
G01*
X56502000Y-82295000D01*
G75*
G02*
X56702000Y-82495000I0J-200000D01*
G01*
X56702000Y-85145000D01*
G75*
G02*
X56502000Y-85345000I-200000J0D01*
G01*
X55252000Y-85345000D01*
G75*
G02*
X55052000Y-85145000I0J200000D01*
G01*
G37*
G36*
G01*
X68293000Y-54587000D02*
X67343000Y-54587000D01*
G75*
G02*
X67143000Y-54387000I0J200000D01*
G01*
X67143000Y-53512000D01*
G75*
G02*
X67343000Y-53312000I200000J0D01*
G01*
X68293000Y-53312000D01*
G75*
G02*
X68493000Y-53512000I0J-200000D01*
G01*
X68493000Y-54387000D01*
G75*
G02*
X68293000Y-54587000I-200000J0D01*
G01*
G37*
G36*
G01*
X68293000Y-56162000D02*
X67343000Y-56162000D01*
G75*
G02*
X67143000Y-55962000I0J200000D01*
G01*
X67143000Y-55087000D01*
G75*
G02*
X67343000Y-54887000I200000J0D01*
G01*
X68293000Y-54887000D01*
G75*
G02*
X68493000Y-55087000I0J-200000D01*
G01*
X68493000Y-55962000D01*
G75*
G02*
X68293000Y-56162000I-200000J0D01*
G01*
G37*
G36*
G01*
X66515000Y-54587000D02*
X65565000Y-54587000D01*
G75*
G02*
X65365000Y-54387000I0J200000D01*
G01*
X65365000Y-53512000D01*
G75*
G02*
X65565000Y-53312000I200000J0D01*
G01*
X66515000Y-53312000D01*
G75*
G02*
X66715000Y-53512000I0J-200000D01*
G01*
X66715000Y-54387000D01*
G75*
G02*
X66515000Y-54587000I-200000J0D01*
G01*
G37*
G36*
G01*
X66515000Y-56162000D02*
X65565000Y-56162000D01*
G75*
G02*
X65365000Y-55962000I0J200000D01*
G01*
X65365000Y-55087000D01*
G75*
G02*
X65565000Y-54887000I200000J0D01*
G01*
X66515000Y-54887000D01*
G75*
G02*
X66715000Y-55087000I0J-200000D01*
G01*
X66715000Y-55962000D01*
G75*
G02*
X66515000Y-56162000I-200000J0D01*
G01*
G37*
G36*
G01*
X78679057Y-72414191D02*
X79350809Y-73085943D01*
G75*
G02*
X79350809Y-73368785I-141421J-141421D01*
G01*
X78732091Y-73987503D01*
G75*
G02*
X78449249Y-73987503I-141421J141421D01*
G01*
X77777497Y-73315751D01*
G75*
G02*
X77777497Y-73032909I141421J141421D01*
G01*
X78396215Y-72414191D01*
G75*
G02*
X78679057Y-72414191I141421J-141421D01*
G01*
G37*
G36*
G01*
X79792751Y-71300497D02*
X80464503Y-71972249D01*
G75*
G02*
X80464503Y-72255091I-141421J-141421D01*
G01*
X79845785Y-72873809D01*
G75*
G02*
X79562943Y-72873809I-141421J141421D01*
G01*
X78891191Y-72202057D01*
G75*
G02*
X78891191Y-71919215I141421J141421D01*
G01*
X79509909Y-71300497D01*
G75*
G02*
X79792751Y-71300497I141421J-141421D01*
G01*
G37*
G36*
G01*
X77183000Y-54587000D02*
X76233000Y-54587000D01*
G75*
G02*
X76033000Y-54387000I0J200000D01*
G01*
X76033000Y-53512000D01*
G75*
G02*
X76233000Y-53312000I200000J0D01*
G01*
X77183000Y-53312000D01*
G75*
G02*
X77383000Y-53512000I0J-200000D01*
G01*
X77383000Y-54387000D01*
G75*
G02*
X77183000Y-54587000I-200000J0D01*
G01*
G37*
G36*
G01*
X77183000Y-56162000D02*
X76233000Y-56162000D01*
G75*
G02*
X76033000Y-55962000I0J200000D01*
G01*
X76033000Y-55087000D01*
G75*
G02*
X76233000Y-54887000I200000J0D01*
G01*
X77183000Y-54887000D01*
G75*
G02*
X77383000Y-55087000I0J-200000D01*
G01*
X77383000Y-55962000D01*
G75*
G02*
X77183000Y-56162000I-200000J0D01*
G01*
G37*
G36*
G01*
X82235057Y-71398191D02*
X82906809Y-72069943D01*
G75*
G02*
X82906809Y-72352785I-141421J-141421D01*
G01*
X82288091Y-72971503D01*
G75*
G02*
X82005249Y-72971503I-141421J141421D01*
G01*
X81333497Y-72299751D01*
G75*
G02*
X81333497Y-72016909I141421J141421D01*
G01*
X81952215Y-71398191D01*
G75*
G02*
X82235057Y-71398191I141421J-141421D01*
G01*
G37*
G36*
G01*
X83348751Y-70284497D02*
X84020503Y-70956249D01*
G75*
G02*
X84020503Y-71239091I-141421J-141421D01*
G01*
X83401785Y-71857809D01*
G75*
G02*
X83118943Y-71857809I-141421J141421D01*
G01*
X82447191Y-71186057D01*
G75*
G02*
X82447191Y-70903215I141421J141421D01*
G01*
X83065909Y-70284497D01*
G75*
G02*
X83348751Y-70284497I141421J-141421D01*
G01*
G37*
G36*
G01*
X79949057Y-73684191D02*
X80620809Y-74355943D01*
G75*
G02*
X80620809Y-74638785I-141421J-141421D01*
G01*
X80002091Y-75257503D01*
G75*
G02*
X79719249Y-75257503I-141421J141421D01*
G01*
X79047497Y-74585751D01*
G75*
G02*
X79047497Y-74302909I141421J141421D01*
G01*
X79666215Y-73684191D01*
G75*
G02*
X79949057Y-73684191I141421J-141421D01*
G01*
G37*
G36*
G01*
X81062751Y-72570497D02*
X81734503Y-73242249D01*
G75*
G02*
X81734503Y-73525091I-141421J-141421D01*
G01*
X81115785Y-74143809D01*
G75*
G02*
X80832943Y-74143809I-141421J141421D01*
G01*
X80161191Y-73472057D01*
G75*
G02*
X80161191Y-73189215I141421J141421D01*
G01*
X80779909Y-72570497D01*
G75*
G02*
X81062751Y-72570497I141421J-141421D01*
G01*
G37*
G36*
G01*
X68379200Y-74353400D02*
X68379200Y-75303400D01*
G75*
G02*
X68179200Y-75503400I-200000J0D01*
G01*
X67304200Y-75503400D01*
G75*
G02*
X67104200Y-75303400I0J200000D01*
G01*
X67104200Y-74353400D01*
G75*
G02*
X67304200Y-74153400I200000J0D01*
G01*
X68179200Y-74153400D01*
G75*
G02*
X68379200Y-74353400I0J-200000D01*
G01*
G37*
G36*
G01*
X69954200Y-74353400D02*
X69954200Y-75303400D01*
G75*
G02*
X69754200Y-75503400I-200000J0D01*
G01*
X68879200Y-75503400D01*
G75*
G02*
X68679200Y-75303400I0J200000D01*
G01*
X68679200Y-74353400D01*
G75*
G02*
X68879200Y-74153400I200000J0D01*
G01*
X69754200Y-74153400D01*
G75*
G02*
X69954200Y-74353400I0J-200000D01*
G01*
G37*
G36*
G01*
X83336191Y-63052943D02*
X84007943Y-62381191D01*
G75*
G02*
X84290785Y-62381191I141421J-141421D01*
G01*
X84909503Y-62999909D01*
G75*
G02*
X84909503Y-63282751I-141421J-141421D01*
G01*
X84237751Y-63954503D01*
G75*
G02*
X83954909Y-63954503I-141421J141421D01*
G01*
X83336191Y-63335785D01*
G75*
G02*
X83336191Y-63052943I141421J141421D01*
G01*
G37*
G36*
G01*
X82222497Y-61939249D02*
X82894249Y-61267497D01*
G75*
G02*
X83177091Y-61267497I141421J-141421D01*
G01*
X83795809Y-61886215D01*
G75*
G02*
X83795809Y-62169057I-141421J-141421D01*
G01*
X83124057Y-62840809D01*
G75*
G02*
X82841215Y-62840809I-141421J141421D01*
G01*
X82222497Y-62222091D01*
G75*
G02*
X82222497Y-61939249I141421J141421D01*
G01*
G37*
G36*
G01*
X83505057Y-72668191D02*
X84176809Y-73339943D01*
G75*
G02*
X84176809Y-73622785I-141421J-141421D01*
G01*
X83558091Y-74241503D01*
G75*
G02*
X83275249Y-74241503I-141421J141421D01*
G01*
X82603497Y-73569751D01*
G75*
G02*
X82603497Y-73286909I141421J141421D01*
G01*
X83222215Y-72668191D01*
G75*
G02*
X83505057Y-72668191I141421J-141421D01*
G01*
G37*
G36*
G01*
X84618751Y-71554497D02*
X85290503Y-72226249D01*
G75*
G02*
X85290503Y-72509091I-141421J-141421D01*
G01*
X84671785Y-73127809D01*
G75*
G02*
X84388943Y-73127809I-141421J141421D01*
G01*
X83717191Y-72456057D01*
G75*
G02*
X83717191Y-72173215I141421J141421D01*
G01*
X84335909Y-71554497D01*
G75*
G02*
X84618751Y-71554497I141421J-141421D01*
G01*
G37*
G36*
G01*
X69954000Y-76080600D02*
X69954000Y-77030600D01*
G75*
G02*
X69754000Y-77230600I-200000J0D01*
G01*
X68879000Y-77230600D01*
G75*
G02*
X68679000Y-77030600I0J200000D01*
G01*
X68679000Y-76080600D01*
G75*
G02*
X68879000Y-75880600I200000J0D01*
G01*
X69754000Y-75880600D01*
G75*
G02*
X69954000Y-76080600I0J-200000D01*
G01*
G37*
G36*
G01*
X71529000Y-76080600D02*
X71529000Y-77030600D01*
G75*
G02*
X71329000Y-77230600I-200000J0D01*
G01*
X70454000Y-77230600D01*
G75*
G02*
X70254000Y-77030600I0J200000D01*
G01*
X70254000Y-76080600D01*
G75*
G02*
X70454000Y-75880600I200000J0D01*
G01*
X71329000Y-75880600D01*
G75*
G02*
X71529000Y-76080600I0J-200000D01*
G01*
G37*
G36*
G01*
X57808000Y-67658000D02*
X57808000Y-66708000D01*
G75*
G02*
X58008000Y-66508000I200000J0D01*
G01*
X58883000Y-66508000D01*
G75*
G02*
X59083000Y-66708000I0J-200000D01*
G01*
X59083000Y-67658000D01*
G75*
G02*
X58883000Y-67858000I-200000J0D01*
G01*
X58008000Y-67858000D01*
G75*
G02*
X57808000Y-67658000I0J200000D01*
G01*
G37*
G36*
G01*
X56233000Y-67658000D02*
X56233000Y-66708000D01*
G75*
G02*
X56433000Y-66508000I200000J0D01*
G01*
X57308000Y-66508000D01*
G75*
G02*
X57508000Y-66708000I0J-200000D01*
G01*
X57508000Y-67658000D01*
G75*
G02*
X57308000Y-67858000I-200000J0D01*
G01*
X56433000Y-67858000D01*
G75*
G02*
X56233000Y-67658000I0J200000D01*
G01*
G37*
G36*
G01*
X61237000Y-59276000D02*
X61237000Y-58326000D01*
G75*
G02*
X61437000Y-58126000I200000J0D01*
G01*
X62312000Y-58126000D01*
G75*
G02*
X62512000Y-58326000I0J-200000D01*
G01*
X62512000Y-59276000D01*
G75*
G02*
X62312000Y-59476000I-200000J0D01*
G01*
X61437000Y-59476000D01*
G75*
G02*
X61237000Y-59276000I0J200000D01*
G01*
G37*
G36*
G01*
X59662000Y-59276000D02*
X59662000Y-58326000D01*
G75*
G02*
X59862000Y-58126000I200000J0D01*
G01*
X60737000Y-58126000D01*
G75*
G02*
X60937000Y-58326000I0J-200000D01*
G01*
X60937000Y-59276000D01*
G75*
G02*
X60737000Y-59476000I-200000J0D01*
G01*
X59862000Y-59476000D01*
G75*
G02*
X59662000Y-59276000I0J200000D01*
G01*
G37*
G36*
G01*
X61318000Y-64295000D02*
X61318000Y-65245000D01*
G75*
G02*
X61118000Y-65445000I-200000J0D01*
G01*
X60243000Y-65445000D01*
G75*
G02*
X60043000Y-65245000I0J200000D01*
G01*
X60043000Y-64295000D01*
G75*
G02*
X60243000Y-64095000I200000J0D01*
G01*
X61118000Y-64095000D01*
G75*
G02*
X61318000Y-64295000I0J-200000D01*
G01*
G37*
G36*
G01*
X62893000Y-64295000D02*
X62893000Y-65245000D01*
G75*
G02*
X62693000Y-65445000I-200000J0D01*
G01*
X61818000Y-65445000D01*
G75*
G02*
X61618000Y-65245000I0J200000D01*
G01*
X61618000Y-64295000D01*
G75*
G02*
X61818000Y-64095000I200000J0D01*
G01*
X62693000Y-64095000D01*
G75*
G02*
X62893000Y-64295000I0J-200000D01*
G01*
G37*
G36*
G01*
X62842000Y-68359000D02*
X62842000Y-69309000D01*
G75*
G02*
X62642000Y-69509000I-200000J0D01*
G01*
X61767000Y-69509000D01*
G75*
G02*
X61567000Y-69309000I0J200000D01*
G01*
X61567000Y-68359000D01*
G75*
G02*
X61767000Y-68159000I200000J0D01*
G01*
X62642000Y-68159000D01*
G75*
G02*
X62842000Y-68359000I0J-200000D01*
G01*
G37*
G36*
G01*
X64417000Y-68359000D02*
X64417000Y-69309000D01*
G75*
G02*
X64217000Y-69509000I-200000J0D01*
G01*
X63342000Y-69509000D01*
G75*
G02*
X63142000Y-69309000I0J200000D01*
G01*
X63142000Y-68359000D01*
G75*
G02*
X63342000Y-68159000I200000J0D01*
G01*
X64217000Y-68159000D01*
G75*
G02*
X64417000Y-68359000I0J-200000D01*
G01*
G37*
G36*
G01*
X64764900Y-75943600D02*
X65714900Y-75943600D01*
G75*
G02*
X65914900Y-76143600I0J-200000D01*
G01*
X65914900Y-77018600D01*
G75*
G02*
X65714900Y-77218600I-200000J0D01*
G01*
X64764900Y-77218600D01*
G75*
G02*
X64564900Y-77018600I0J200000D01*
G01*
X64564900Y-76143600D01*
G75*
G02*
X64764900Y-75943600I200000J0D01*
G01*
G37*
G36*
G01*
X64764900Y-74368600D02*
X65714900Y-74368600D01*
G75*
G02*
X65914900Y-74568600I0J-200000D01*
G01*
X65914900Y-75443600D01*
G75*
G02*
X65714900Y-75643600I-200000J0D01*
G01*
X64764900Y-75643600D01*
G75*
G02*
X64564900Y-75443600I0J200000D01*
G01*
X64564900Y-74568600D01*
G75*
G02*
X64764900Y-74368600I200000J0D01*
G01*
G37*
G36*
G01*
X62842000Y-66581000D02*
X62842000Y-67531000D01*
G75*
G02*
X62642000Y-67731000I-200000J0D01*
G01*
X61767000Y-67731000D01*
G75*
G02*
X61567000Y-67531000I0J200000D01*
G01*
X61567000Y-66581000D01*
G75*
G02*
X61767000Y-66381000I200000J0D01*
G01*
X62642000Y-66381000D01*
G75*
G02*
X62842000Y-66581000I0J-200000D01*
G01*
G37*
G36*
G01*
X64417000Y-66581000D02*
X64417000Y-67531000D01*
G75*
G02*
X64217000Y-67731000I-200000J0D01*
G01*
X63342000Y-67731000D01*
G75*
G02*
X63142000Y-67531000I0J200000D01*
G01*
X63142000Y-66581000D01*
G75*
G02*
X63342000Y-66381000I200000J0D01*
G01*
X64217000Y-66381000D01*
G75*
G02*
X64417000Y-66581000I0J-200000D01*
G01*
G37*
G36*
G01*
X57427000Y-61181000D02*
X57427000Y-60231000D01*
G75*
G02*
X57627000Y-60031000I200000J0D01*
G01*
X58502000Y-60031000D01*
G75*
G02*
X58702000Y-60231000I0J-200000D01*
G01*
X58702000Y-61181000D01*
G75*
G02*
X58502000Y-61381000I-200000J0D01*
G01*
X57627000Y-61381000D01*
G75*
G02*
X57427000Y-61181000I0J200000D01*
G01*
G37*
G36*
G01*
X55852000Y-61181000D02*
X55852000Y-60231000D01*
G75*
G02*
X56052000Y-60031000I200000J0D01*
G01*
X56927000Y-60031000D01*
G75*
G02*
X57127000Y-60231000I0J-200000D01*
G01*
X57127000Y-61181000D01*
G75*
G02*
X56927000Y-61381000I-200000J0D01*
G01*
X56052000Y-61381000D01*
G75*
G02*
X55852000Y-61181000I0J200000D01*
G01*
G37*
G36*
G01*
X71849000Y-54587000D02*
X70899000Y-54587000D01*
G75*
G02*
X70699000Y-54387000I0J200000D01*
G01*
X70699000Y-53512000D01*
G75*
G02*
X70899000Y-53312000I200000J0D01*
G01*
X71849000Y-53312000D01*
G75*
G02*
X72049000Y-53512000I0J-200000D01*
G01*
X72049000Y-54387000D01*
G75*
G02*
X71849000Y-54587000I-200000J0D01*
G01*
G37*
G36*
G01*
X71849000Y-56162000D02*
X70899000Y-56162000D01*
G75*
G02*
X70699000Y-55962000I0J200000D01*
G01*
X70699000Y-55087000D01*
G75*
G02*
X70899000Y-54887000I200000J0D01*
G01*
X71849000Y-54887000D01*
G75*
G02*
X72049000Y-55087000I0J-200000D01*
G01*
X72049000Y-55962000D01*
G75*
G02*
X71849000Y-56162000I-200000J0D01*
G01*
G37*
G36*
G01*
X75405000Y-54587000D02*
X74455000Y-54587000D01*
G75*
G02*
X74255000Y-54387000I0J200000D01*
G01*
X74255000Y-53512000D01*
G75*
G02*
X74455000Y-53312000I200000J0D01*
G01*
X75405000Y-53312000D01*
G75*
G02*
X75605000Y-53512000I0J-200000D01*
G01*
X75605000Y-54387000D01*
G75*
G02*
X75405000Y-54587000I-200000J0D01*
G01*
G37*
G36*
G01*
X75405000Y-56162000D02*
X74455000Y-56162000D01*
G75*
G02*
X74255000Y-55962000I0J200000D01*
G01*
X74255000Y-55087000D01*
G75*
G02*
X74455000Y-54887000I200000J0D01*
G01*
X75405000Y-54887000D01*
G75*
G02*
X75605000Y-55087000I0J-200000D01*
G01*
X75605000Y-55962000D01*
G75*
G02*
X75405000Y-56162000I-200000J0D01*
G01*
G37*
G36*
G01*
X64737000Y-54587000D02*
X63787000Y-54587000D01*
G75*
G02*
X63587000Y-54387000I0J200000D01*
G01*
X63587000Y-53512000D01*
G75*
G02*
X63787000Y-53312000I200000J0D01*
G01*
X64737000Y-53312000D01*
G75*
G02*
X64937000Y-53512000I0J-200000D01*
G01*
X64937000Y-54387000D01*
G75*
G02*
X64737000Y-54587000I-200000J0D01*
G01*
G37*
G36*
G01*
X64737000Y-56162000D02*
X63787000Y-56162000D01*
G75*
G02*
X63587000Y-55962000I0J200000D01*
G01*
X63587000Y-55087000D01*
G75*
G02*
X63787000Y-54887000I200000J0D01*
G01*
X64737000Y-54887000D01*
G75*
G02*
X64937000Y-55087000I0J-200000D01*
G01*
X64937000Y-55962000D01*
G75*
G02*
X64737000Y-56162000I-200000J0D01*
G01*
G37*
G36*
G01*
X73627000Y-54587000D02*
X72677000Y-54587000D01*
G75*
G02*
X72477000Y-54387000I0J200000D01*
G01*
X72477000Y-53512000D01*
G75*
G02*
X72677000Y-53312000I200000J0D01*
G01*
X73627000Y-53312000D01*
G75*
G02*
X73827000Y-53512000I0J-200000D01*
G01*
X73827000Y-54387000D01*
G75*
G02*
X73627000Y-54587000I-200000J0D01*
G01*
G37*
G36*
G01*
X73627000Y-56162000D02*
X72677000Y-56162000D01*
G75*
G02*
X72477000Y-55962000I0J200000D01*
G01*
X72477000Y-55087000D01*
G75*
G02*
X72677000Y-54887000I200000J0D01*
G01*
X73627000Y-54887000D01*
G75*
G02*
X73827000Y-55087000I0J-200000D01*
G01*
X73827000Y-55962000D01*
G75*
G02*
X73627000Y-56162000I-200000J0D01*
G01*
G37*
G36*
G01*
X70071000Y-54587000D02*
X69121000Y-54587000D01*
G75*
G02*
X68921000Y-54387000I0J200000D01*
G01*
X68921000Y-53512000D01*
G75*
G02*
X69121000Y-53312000I200000J0D01*
G01*
X70071000Y-53312000D01*
G75*
G02*
X70271000Y-53512000I0J-200000D01*
G01*
X70271000Y-54387000D01*
G75*
G02*
X70071000Y-54587000I-200000J0D01*
G01*
G37*
G36*
G01*
X70071000Y-56162000D02*
X69121000Y-56162000D01*
G75*
G02*
X68921000Y-55962000I0J200000D01*
G01*
X68921000Y-55087000D01*
G75*
G02*
X69121000Y-54887000I200000J0D01*
G01*
X70071000Y-54887000D01*
G75*
G02*
X70271000Y-55087000I0J-200000D01*
G01*
X70271000Y-55962000D01*
G75*
G02*
X70071000Y-56162000I-200000J0D01*
G01*
G37*
G36*
G01*
X65217057Y-59968191D02*
X65888809Y-60639943D01*
G75*
G02*
X65888809Y-60922785I-141421J-141421D01*
G01*
X65270091Y-61541503D01*
G75*
G02*
X64987249Y-61541503I-141421J141421D01*
G01*
X64315497Y-60869751D01*
G75*
G02*
X64315497Y-60586909I141421J141421D01*
G01*
X64934215Y-59968191D01*
G75*
G02*
X65217057Y-59968191I141421J-141421D01*
G01*
G37*
G36*
G01*
X66330751Y-58854497D02*
X67002503Y-59526249D01*
G75*
G02*
X67002503Y-59809091I-141421J-141421D01*
G01*
X66383785Y-60427809D01*
G75*
G02*
X66100943Y-60427809I-141421J141421D01*
G01*
X65429191Y-59756057D01*
G75*
G02*
X65429191Y-59473215I141421J141421D01*
G01*
X66047909Y-58854497D01*
G75*
G02*
X66330751Y-58854497I141421J-141421D01*
G01*
G37*
G36*
G01*
X81821000Y-49426000D02*
X82771000Y-49426000D01*
G75*
G02*
X82971000Y-49626000I0J-200000D01*
G01*
X82971000Y-50501000D01*
G75*
G02*
X82771000Y-50701000I-200000J0D01*
G01*
X81821000Y-50701000D01*
G75*
G02*
X81621000Y-50501000I0J200000D01*
G01*
X81621000Y-49626000D01*
G75*
G02*
X81821000Y-49426000I200000J0D01*
G01*
G37*
G36*
G01*
X81821000Y-47851000D02*
X82771000Y-47851000D01*
G75*
G02*
X82971000Y-48051000I0J-200000D01*
G01*
X82971000Y-48926000D01*
G75*
G02*
X82771000Y-49126000I-200000J0D01*
G01*
X81821000Y-49126000D01*
G75*
G02*
X81621000Y-48926000I0J200000D01*
G01*
X81621000Y-48051000D01*
G75*
G02*
X81821000Y-47851000I200000J0D01*
G01*
G37*
G36*
G01*
X67842191Y-72514443D02*
X68513943Y-71842691D01*
G75*
G02*
X68796785Y-71842691I141421J-141421D01*
G01*
X69415503Y-72461409D01*
G75*
G02*
X69415503Y-72744251I-141421J-141421D01*
G01*
X68743751Y-73416003D01*
G75*
G02*
X68460909Y-73416003I-141421J141421D01*
G01*
X67842191Y-72797285D01*
G75*
G02*
X67842191Y-72514443I141421J141421D01*
G01*
G37*
G36*
G01*
X66728497Y-71400749D02*
X67400249Y-70728997D01*
G75*
G02*
X67683091Y-70728997I141421J-141421D01*
G01*
X68301809Y-71347715D01*
G75*
G02*
X68301809Y-71630557I-141421J-141421D01*
G01*
X67630057Y-72302309D01*
G75*
G02*
X67347215Y-72302309I-141421J141421D01*
G01*
X66728497Y-71683591D01*
G75*
G02*
X66728497Y-71400749I141421J141421D01*
G01*
G37*
G36*
G01*
X83352500Y-59342000D02*
X83352500Y-60292000D01*
G75*
G02*
X83152500Y-60492000I-200000J0D01*
G01*
X82277500Y-60492000D01*
G75*
G02*
X82077500Y-60292000I0J200000D01*
G01*
X82077500Y-59342000D01*
G75*
G02*
X82277500Y-59142000I200000J0D01*
G01*
X83152500Y-59142000D01*
G75*
G02*
X83352500Y-59342000I0J-200000D01*
G01*
G37*
G36*
G01*
X84927500Y-59342000D02*
X84927500Y-60292000D01*
G75*
G02*
X84727500Y-60492000I-200000J0D01*
G01*
X83852500Y-60492000D01*
G75*
G02*
X83652500Y-60292000I0J200000D01*
G01*
X83652500Y-59342000D01*
G75*
G02*
X83852500Y-59142000I200000J0D01*
G01*
X84727500Y-59142000D01*
G75*
G02*
X84927500Y-59342000I0J-200000D01*
G01*
G37*
G36*
G01*
X83716000Y-53942000D02*
X83716000Y-52992000D01*
G75*
G02*
X83916000Y-52792000I200000J0D01*
G01*
X84791000Y-52792000D01*
G75*
G02*
X84991000Y-52992000I0J-200000D01*
G01*
X84991000Y-53942000D01*
G75*
G02*
X84791000Y-54142000I-200000J0D01*
G01*
X83916000Y-54142000D01*
G75*
G02*
X83716000Y-53942000I0J200000D01*
G01*
G37*
G36*
G01*
X82141000Y-53942000D02*
X82141000Y-52992000D01*
G75*
G02*
X82341000Y-52792000I200000J0D01*
G01*
X83216000Y-52792000D01*
G75*
G02*
X83416000Y-52992000I0J-200000D01*
G01*
X83416000Y-53942000D01*
G75*
G02*
X83216000Y-54142000I-200000J0D01*
G01*
X82341000Y-54142000D01*
G75*
G02*
X82141000Y-53942000I0J200000D01*
G01*
G37*
G36*
G01*
X66487057Y-61238191D02*
X67158809Y-61909943D01*
G75*
G02*
X67158809Y-62192785I-141421J-141421D01*
G01*
X66540091Y-62811503D01*
G75*
G02*
X66257249Y-62811503I-141421J141421D01*
G01*
X65585497Y-62139751D01*
G75*
G02*
X65585497Y-61856909I141421J141421D01*
G01*
X66204215Y-61238191D01*
G75*
G02*
X66487057Y-61238191I141421J-141421D01*
G01*
G37*
G36*
G01*
X67600751Y-60124497D02*
X68272503Y-60796249D01*
G75*
G02*
X68272503Y-61079091I-141421J-141421D01*
G01*
X67653785Y-61697809D01*
G75*
G02*
X67370943Y-61697809I-141421J141421D01*
G01*
X66699191Y-61026057D01*
G75*
G02*
X66699191Y-60743215I141421J141421D01*
G01*
X67317909Y-60124497D01*
G75*
G02*
X67600751Y-60124497I141421J-141421D01*
G01*
G37*
G36*
G01*
X57434500Y-49189500D02*
X56484500Y-49189500D01*
G75*
G02*
X56284500Y-48989500I0J200000D01*
G01*
X56284500Y-48114500D01*
G75*
G02*
X56484500Y-47914500I200000J0D01*
G01*
X57434500Y-47914500D01*
G75*
G02*
X57634500Y-48114500I0J-200000D01*
G01*
X57634500Y-48989500D01*
G75*
G02*
X57434500Y-49189500I-200000J0D01*
G01*
G37*
G36*
G01*
X57434500Y-50764500D02*
X56484500Y-50764500D01*
G75*
G02*
X56284500Y-50564500I0J200000D01*
G01*
X56284500Y-49689500D01*
G75*
G02*
X56484500Y-49489500I200000J0D01*
G01*
X57434500Y-49489500D01*
G75*
G02*
X57634500Y-49689500I0J-200000D01*
G01*
X57634500Y-50564500D01*
G75*
G02*
X57434500Y-50764500I-200000J0D01*
G01*
G37*
G36*
G01*
X55085000Y-49189500D02*
X54135000Y-49189500D01*
G75*
G02*
X53935000Y-48989500I0J200000D01*
G01*
X53935000Y-48114500D01*
G75*
G02*
X54135000Y-47914500I200000J0D01*
G01*
X55085000Y-47914500D01*
G75*
G02*
X55285000Y-48114500I0J-200000D01*
G01*
X55285000Y-48989500D01*
G75*
G02*
X55085000Y-49189500I-200000J0D01*
G01*
G37*
G36*
G01*
X55085000Y-50764500D02*
X54135000Y-50764500D01*
G75*
G02*
X53935000Y-50564500I0J200000D01*
G01*
X53935000Y-49689500D01*
G75*
G02*
X54135000Y-49489500I200000J0D01*
G01*
X55085000Y-49489500D01*
G75*
G02*
X55285000Y-49689500I0J-200000D01*
G01*
X55285000Y-50564500D01*
G75*
G02*
X55085000Y-50764500I-200000J0D01*
G01*
G37*
G36*
G01*
X79716691Y-61973443D02*
X80388443Y-61301691D01*
G75*
G02*
X80671285Y-61301691I141421J-141421D01*
G01*
X81290003Y-61920409D01*
G75*
G02*
X81290003Y-62203251I-141421J-141421D01*
G01*
X80618251Y-62875003D01*
G75*
G02*
X80335409Y-62875003I-141421J141421D01*
G01*
X79716691Y-62256285D01*
G75*
G02*
X79716691Y-61973443I141421J141421D01*
G01*
G37*
G36*
G01*
X78602997Y-60859749D02*
X79274749Y-60187997D01*
G75*
G02*
X79557591Y-60187997I141421J-141421D01*
G01*
X80176309Y-60806715D01*
G75*
G02*
X80176309Y-61089557I-141421J-141421D01*
G01*
X79504557Y-61761309D01*
G75*
G02*
X79221715Y-61761309I-141421J141421D01*
G01*
X78602997Y-61142591D01*
G75*
G02*
X78602997Y-60859749I141421J141421D01*
G01*
G37*
G36*
G01*
X83726000Y-49426000D02*
X84676000Y-49426000D01*
G75*
G02*
X84876000Y-49626000I0J-200000D01*
G01*
X84876000Y-50501000D01*
G75*
G02*
X84676000Y-50701000I-200000J0D01*
G01*
X83726000Y-50701000D01*
G75*
G02*
X83526000Y-50501000I0J200000D01*
G01*
X83526000Y-49626000D01*
G75*
G02*
X83726000Y-49426000I200000J0D01*
G01*
G37*
G36*
G01*
X83726000Y-47851000D02*
X84676000Y-47851000D01*
G75*
G02*
X84876000Y-48051000I0J-200000D01*
G01*
X84876000Y-48926000D01*
G75*
G02*
X84676000Y-49126000I-200000J0D01*
G01*
X83726000Y-49126000D01*
G75*
G02*
X83526000Y-48926000I0J200000D01*
G01*
X83526000Y-48051000D01*
G75*
G02*
X83726000Y-47851000I200000J0D01*
G01*
G37*
G36*
G01*
X83533000Y-76558000D02*
X82583000Y-76558000D01*
G75*
G02*
X82383000Y-76358000I0J200000D01*
G01*
X82383000Y-75483000D01*
G75*
G02*
X82583000Y-75283000I200000J0D01*
G01*
X83533000Y-75283000D01*
G75*
G02*
X83733000Y-75483000I0J-200000D01*
G01*
X83733000Y-76358000D01*
G75*
G02*
X83533000Y-76558000I-200000J0D01*
G01*
G37*
G36*
G01*
X83533000Y-78133000D02*
X82583000Y-78133000D01*
G75*
G02*
X82383000Y-77933000I0J200000D01*
G01*
X82383000Y-77058000D01*
G75*
G02*
X82583000Y-76858000I200000J0D01*
G01*
X83533000Y-76858000D01*
G75*
G02*
X83733000Y-77058000I0J-200000D01*
G01*
X83733000Y-77933000D01*
G75*
G02*
X83533000Y-78133000I-200000J0D01*
G01*
G37*
G36*
G01*
X82066191Y-64322943D02*
X82737943Y-63651191D01*
G75*
G02*
X83020785Y-63651191I141421J-141421D01*
G01*
X83639503Y-64269909D01*
G75*
G02*
X83639503Y-64552751I-141421J-141421D01*
G01*
X82967751Y-65224503D01*
G75*
G02*
X82684909Y-65224503I-141421J141421D01*
G01*
X82066191Y-64605785D01*
G75*
G02*
X82066191Y-64322943I141421J141421D01*
G01*
G37*
G36*
G01*
X80952497Y-63209249D02*
X81624249Y-62537497D01*
G75*
G02*
X81907091Y-62537497I141421J-141421D01*
G01*
X82525809Y-63156215D01*
G75*
G02*
X82525809Y-63439057I-141421J-141421D01*
G01*
X81854057Y-64110809D01*
G75*
G02*
X81571215Y-64110809I-141421J141421D01*
G01*
X80952497Y-63492091D01*
G75*
G02*
X80952497Y-63209249I141421J141421D01*
G01*
G37*
G36*
G01*
X85565000Y-68176000D02*
X84615000Y-68176000D01*
G75*
G02*
X84415000Y-67976000I0J200000D01*
G01*
X84415000Y-67101000D01*
G75*
G02*
X84615000Y-66901000I200000J0D01*
G01*
X85565000Y-66901000D01*
G75*
G02*
X85765000Y-67101000I0J-200000D01*
G01*
X85765000Y-67976000D01*
G75*
G02*
X85565000Y-68176000I-200000J0D01*
G01*
G37*
G36*
G01*
X85565000Y-69751000D02*
X84615000Y-69751000D01*
G75*
G02*
X84415000Y-69551000I0J200000D01*
G01*
X84415000Y-68676000D01*
G75*
G02*
X84615000Y-68476000I200000J0D01*
G01*
X85565000Y-68476000D01*
G75*
G02*
X85765000Y-68676000I0J-200000D01*
G01*
X85765000Y-69551000D01*
G75*
G02*
X85565000Y-69751000I-200000J0D01*
G01*
G37*
G36*
G01*
X69954000Y-77858600D02*
X69954000Y-78808600D01*
G75*
G02*
X69754000Y-79008600I-200000J0D01*
G01*
X68879000Y-79008600D01*
G75*
G02*
X68679000Y-78808600I0J200000D01*
G01*
X68679000Y-77858600D01*
G75*
G02*
X68879000Y-77658600I200000J0D01*
G01*
X69754000Y-77658600D01*
G75*
G02*
X69954000Y-77858600I0J-200000D01*
G01*
G37*
G36*
G01*
X71529000Y-77858600D02*
X71529000Y-78808600D01*
G75*
G02*
X71329000Y-79008600I-200000J0D01*
G01*
X70454000Y-79008600D01*
G75*
G02*
X70254000Y-78808600I0J200000D01*
G01*
X70254000Y-77858600D01*
G75*
G02*
X70454000Y-77658600I200000J0D01*
G01*
X71329000Y-77658600D01*
G75*
G02*
X71529000Y-77858600I0J-200000D01*
G01*
G37*
G36*
G01*
X60937000Y-60231000D02*
X60937000Y-61181000D01*
G75*
G02*
X60737000Y-61381000I-200000J0D01*
G01*
X59862000Y-61381000D01*
G75*
G02*
X59662000Y-61181000I0J200000D01*
G01*
X59662000Y-60231000D01*
G75*
G02*
X59862000Y-60031000I200000J0D01*
G01*
X60737000Y-60031000D01*
G75*
G02*
X60937000Y-60231000I0J-200000D01*
G01*
G37*
G36*
G01*
X62512000Y-60231000D02*
X62512000Y-61181000D01*
G75*
G02*
X62312000Y-61381000I-200000J0D01*
G01*
X61437000Y-61381000D01*
G75*
G02*
X61237000Y-61181000I0J200000D01*
G01*
X61237000Y-60231000D01*
G75*
G02*
X61437000Y-60031000I200000J0D01*
G01*
X62312000Y-60031000D01*
G75*
G02*
X62512000Y-60231000I0J-200000D01*
G01*
G37*
G36*
G01*
X57427000Y-59098200D02*
X57427000Y-58148200D01*
G75*
G02*
X57627000Y-57948200I200000J0D01*
G01*
X58502000Y-57948200D01*
G75*
G02*
X58702000Y-58148200I0J-200000D01*
G01*
X58702000Y-59098200D01*
G75*
G02*
X58502000Y-59298200I-200000J0D01*
G01*
X57627000Y-59298200D01*
G75*
G02*
X57427000Y-59098200I0J200000D01*
G01*
G37*
G36*
G01*
X55852000Y-59098200D02*
X55852000Y-58148200D01*
G75*
G02*
X56052000Y-57948200I200000J0D01*
G01*
X56927000Y-57948200D01*
G75*
G02*
X57127000Y-58148200I0J-200000D01*
G01*
X57127000Y-59098200D01*
G75*
G02*
X56927000Y-59298200I-200000J0D01*
G01*
X56052000Y-59298200D01*
G75*
G02*
X55852000Y-59098200I0J200000D01*
G01*
G37*
G36*
G01*
X57762000Y-76741000D02*
X57762000Y-77691000D01*
G75*
G02*
X57562000Y-77891000I-200000J0D01*
G01*
X56687000Y-77891000D01*
G75*
G02*
X56487000Y-77691000I0J200000D01*
G01*
X56487000Y-76741000D01*
G75*
G02*
X56687000Y-76541000I200000J0D01*
G01*
X57562000Y-76541000D01*
G75*
G02*
X57762000Y-76741000I0J-200000D01*
G01*
G37*
G36*
G01*
X59337000Y-76741000D02*
X59337000Y-77691000D01*
G75*
G02*
X59137000Y-77891000I-200000J0D01*
G01*
X58262000Y-77891000D01*
G75*
G02*
X58062000Y-77691000I0J200000D01*
G01*
X58062000Y-76741000D01*
G75*
G02*
X58262000Y-76541000I200000J0D01*
G01*
X59137000Y-76541000D01*
G75*
G02*
X59337000Y-76741000I0J-200000D01*
G01*
G37*
G36*
G01*
X57508000Y-68486000D02*
X57508000Y-69436000D01*
G75*
G02*
X57308000Y-69636000I-200000J0D01*
G01*
X56433000Y-69636000D01*
G75*
G02*
X56233000Y-69436000I0J200000D01*
G01*
X56233000Y-68486000D01*
G75*
G02*
X56433000Y-68286000I200000J0D01*
G01*
X57308000Y-68286000D01*
G75*
G02*
X57508000Y-68486000I0J-200000D01*
G01*
G37*
G36*
G01*
X59083000Y-68486000D02*
X59083000Y-69436000D01*
G75*
G02*
X58883000Y-69636000I-200000J0D01*
G01*
X58008000Y-69636000D01*
G75*
G02*
X57808000Y-69436000I0J200000D01*
G01*
X57808000Y-68486000D01*
G75*
G02*
X58008000Y-68286000I200000J0D01*
G01*
X58883000Y-68286000D01*
G75*
G02*
X59083000Y-68486000I0J-200000D01*
G01*
G37*
G36*
G01*
X62334000Y-78519000D02*
X62334000Y-79469000D01*
G75*
G02*
X62134000Y-79669000I-200000J0D01*
G01*
X61259000Y-79669000D01*
G75*
G02*
X61059000Y-79469000I0J200000D01*
G01*
X61059000Y-78519000D01*
G75*
G02*
X61259000Y-78319000I200000J0D01*
G01*
X62134000Y-78319000D01*
G75*
G02*
X62334000Y-78519000I0J-200000D01*
G01*
G37*
G36*
G01*
X63909000Y-78519000D02*
X63909000Y-79469000D01*
G75*
G02*
X63709000Y-79669000I-200000J0D01*
G01*
X62834000Y-79669000D01*
G75*
G02*
X62634000Y-79469000I0J200000D01*
G01*
X62634000Y-78519000D01*
G75*
G02*
X62834000Y-78319000I200000J0D01*
G01*
X63709000Y-78319000D01*
G75*
G02*
X63909000Y-78519000I0J-200000D01*
G01*
G37*
G36*
G01*
X64032191Y-63052943D02*
X64703943Y-62381191D01*
G75*
G02*
X64986785Y-62381191I141421J-141421D01*
G01*
X65605503Y-62999909D01*
G75*
G02*
X65605503Y-63282751I-141421J-141421D01*
G01*
X64933751Y-63954503D01*
G75*
G02*
X64650909Y-63954503I-141421J141421D01*
G01*
X64032191Y-63335785D01*
G75*
G02*
X64032191Y-63052943I141421J141421D01*
G01*
G37*
G36*
G01*
X62918497Y-61939249D02*
X63590249Y-61267497D01*
G75*
G02*
X63873091Y-61267497I141421J-141421D01*
G01*
X64491809Y-61886215D01*
G75*
G02*
X64491809Y-62169057I-141421J-141421D01*
G01*
X63820057Y-62840809D01*
G75*
G02*
X63537215Y-62840809I-141421J141421D01*
G01*
X62918497Y-62222091D01*
G75*
G02*
X62918497Y-61939249I141421J141421D01*
G01*
G37*
G36*
G01*
X81848943Y-70587809D02*
X81177191Y-69916057D01*
G75*
G02*
X81177191Y-69633215I141421J141421D01*
G01*
X81795909Y-69014497D01*
G75*
G02*
X82078751Y-69014497I141421J-141421D01*
G01*
X82750503Y-69686249D01*
G75*
G02*
X82750503Y-69969091I-141421J-141421D01*
G01*
X82131785Y-70587809D01*
G75*
G02*
X81848943Y-70587809I-141421J141421D01*
G01*
G37*
G36*
G01*
X80735249Y-71701503D02*
X80063497Y-71029751D01*
G75*
G02*
X80063497Y-70746909I141421J141421D01*
G01*
X80682215Y-70128191D01*
G75*
G02*
X80965057Y-70128191I141421J-141421D01*
G01*
X81636809Y-70799943D01*
G75*
G02*
X81636809Y-71082785I-141421J-141421D01*
G01*
X81018091Y-71701503D01*
G75*
G02*
X80735249Y-71701503I-141421J141421D01*
G01*
G37*
G36*
G01*
X61165600Y-55455800D02*
X61165600Y-56405800D01*
G75*
G02*
X60965600Y-56605800I-200000J0D01*
G01*
X60090600Y-56605800D01*
G75*
G02*
X59890600Y-56405800I0J200000D01*
G01*
X59890600Y-55455800D01*
G75*
G02*
X60090600Y-55255800I200000J0D01*
G01*
X60965600Y-55255800D01*
G75*
G02*
X61165600Y-55455800I0J-200000D01*
G01*
G37*
G36*
G01*
X62740600Y-55455800D02*
X62740600Y-56405800D01*
G75*
G02*
X62540600Y-56605800I-200000J0D01*
G01*
X61665600Y-56605800D01*
G75*
G02*
X61465600Y-56405800I0J200000D01*
G01*
X61465600Y-55455800D01*
G75*
G02*
X61665600Y-55255800I200000J0D01*
G01*
X62540600Y-55255800D01*
G75*
G02*
X62740600Y-55455800I0J-200000D01*
G01*
G37*
G36*
G01*
X78757000Y-50560000D02*
X78757000Y-48060000D01*
G75*
G02*
X78957000Y-47860000I200000J0D01*
G01*
X79307000Y-47860000D01*
G75*
G02*
X79507000Y-48060000I0J-200000D01*
G01*
X79507000Y-50560000D01*
G75*
G02*
X79307000Y-50760000I-200000J0D01*
G01*
X78957000Y-50760000D01*
G75*
G02*
X78757000Y-50560000I0J200000D01*
G01*
G37*
G36*
G01*
X79457000Y-50560000D02*
X79457000Y-48060000D01*
G75*
G02*
X79657000Y-47860000I200000J0D01*
G01*
X80007000Y-47860000D01*
G75*
G02*
X80207000Y-48060000I0J-200000D01*
G01*
X80207000Y-50560000D01*
G75*
G02*
X80007000Y-50760000I-200000J0D01*
G01*
X79657000Y-50760000D01*
G75*
G02*
X79457000Y-50560000I0J200000D01*
G01*
G37*
G36*
G01*
X72457000Y-50560000D02*
X72457000Y-48060000D01*
G75*
G02*
X72657000Y-47860000I200000J0D01*
G01*
X73007000Y-47860000D01*
G75*
G02*
X73207000Y-48060000I0J-200000D01*
G01*
X73207000Y-50560000D01*
G75*
G02*
X73007000Y-50760000I-200000J0D01*
G01*
X72657000Y-50760000D01*
G75*
G02*
X72457000Y-50560000I0J200000D01*
G01*
G37*
G36*
G01*
X77357000Y-50560000D02*
X77357000Y-48060000D01*
G75*
G02*
X77557000Y-47860000I200000J0D01*
G01*
X77907000Y-47860000D01*
G75*
G02*
X78107000Y-48060000I0J-200000D01*
G01*
X78107000Y-50560000D01*
G75*
G02*
X77907000Y-50760000I-200000J0D01*
G01*
X77557000Y-50760000D01*
G75*
G02*
X77357000Y-50560000I0J200000D01*
G01*
G37*
G36*
G01*
X78057000Y-50560000D02*
X78057000Y-48060000D01*
G75*
G02*
X78257000Y-47860000I200000J0D01*
G01*
X78607000Y-47860000D01*
G75*
G02*
X78807000Y-48060000I0J-200000D01*
G01*
X78807000Y-50560000D01*
G75*
G02*
X78607000Y-50760000I-200000J0D01*
G01*
X78257000Y-50760000D01*
G75*
G02*
X78057000Y-50560000I0J200000D01*
G01*
G37*
G36*
G01*
X76657000Y-50560000D02*
X76657000Y-48060000D01*
G75*
G02*
X76857000Y-47860000I200000J0D01*
G01*
X77207000Y-47860000D01*
G75*
G02*
X77407000Y-48060000I0J-200000D01*
G01*
X77407000Y-50560000D01*
G75*
G02*
X77207000Y-50760000I-200000J0D01*
G01*
X76857000Y-50760000D01*
G75*
G02*
X76657000Y-50560000I0J200000D01*
G01*
G37*
G36*
G01*
X75957000Y-50560000D02*
X75957000Y-48060000D01*
G75*
G02*
X76157000Y-47860000I200000J0D01*
G01*
X76507000Y-47860000D01*
G75*
G02*
X76707000Y-48060000I0J-200000D01*
G01*
X76707000Y-50560000D01*
G75*
G02*
X76507000Y-50760000I-200000J0D01*
G01*
X76157000Y-50760000D01*
G75*
G02*
X75957000Y-50560000I0J200000D01*
G01*
G37*
G36*
G01*
X75257000Y-50560000D02*
X75257000Y-48060000D01*
G75*
G02*
X75457000Y-47860000I200000J0D01*
G01*
X75807000Y-47860000D01*
G75*
G02*
X76007000Y-48060000I0J-200000D01*
G01*
X76007000Y-50560000D01*
G75*
G02*
X75807000Y-50760000I-200000J0D01*
G01*
X75457000Y-50760000D01*
G75*
G02*
X75257000Y-50560000I0J200000D01*
G01*
G37*
G36*
G01*
X74557000Y-50560000D02*
X74557000Y-48060000D01*
G75*
G02*
X74757000Y-47860000I200000J0D01*
G01*
X75107000Y-47860000D01*
G75*
G02*
X75307000Y-48060000I0J-200000D01*
G01*
X75307000Y-50560000D01*
G75*
G02*
X75107000Y-50760000I-200000J0D01*
G01*
X74757000Y-50760000D01*
G75*
G02*
X74557000Y-50560000I0J200000D01*
G01*
G37*
G36*
G01*
X73857000Y-50560000D02*
X73857000Y-48060000D01*
G75*
G02*
X74057000Y-47860000I200000J0D01*
G01*
X74407000Y-47860000D01*
G75*
G02*
X74607000Y-48060000I0J-200000D01*
G01*
X74607000Y-50560000D01*
G75*
G02*
X74407000Y-50760000I-200000J0D01*
G01*
X74057000Y-50760000D01*
G75*
G02*
X73857000Y-50560000I0J200000D01*
G01*
G37*
G36*
G01*
X73157000Y-50560000D02*
X73157000Y-48060000D01*
G75*
G02*
X73357000Y-47860000I200000J0D01*
G01*
X73707000Y-47860000D01*
G75*
G02*
X73907000Y-48060000I0J-200000D01*
G01*
X73907000Y-50560000D01*
G75*
G02*
X73707000Y-50760000I-200000J0D01*
G01*
X73357000Y-50760000D01*
G75*
G02*
X73157000Y-50560000I0J200000D01*
G01*
G37*
G36*
G01*
X71757000Y-50560000D02*
X71757000Y-48060000D01*
G75*
G02*
X71957000Y-47860000I200000J0D01*
G01*
X72307000Y-47860000D01*
G75*
G02*
X72507000Y-48060000I0J-200000D01*
G01*
X72507000Y-50560000D01*
G75*
G02*
X72307000Y-50760000I-200000J0D01*
G01*
X71957000Y-50760000D01*
G75*
G02*
X71757000Y-50560000I0J200000D01*
G01*
G37*
G36*
G01*
X71057000Y-50560000D02*
X71057000Y-48060000D01*
G75*
G02*
X71257000Y-47860000I200000J0D01*
G01*
X71607000Y-47860000D01*
G75*
G02*
X71807000Y-48060000I0J-200000D01*
G01*
X71807000Y-50560000D01*
G75*
G02*
X71607000Y-50760000I-200000J0D01*
G01*
X71257000Y-50760000D01*
G75*
G02*
X71057000Y-50560000I0J200000D01*
G01*
G37*
G36*
G01*
X70357000Y-50560000D02*
X70357000Y-48060000D01*
G75*
G02*
X70557000Y-47860000I200000J0D01*
G01*
X70907000Y-47860000D01*
G75*
G02*
X71107000Y-48060000I0J-200000D01*
G01*
X71107000Y-50560000D01*
G75*
G02*
X70907000Y-50760000I-200000J0D01*
G01*
X70557000Y-50760000D01*
G75*
G02*
X70357000Y-50560000I0J200000D01*
G01*
G37*
G36*
G01*
X69657000Y-50560000D02*
X69657000Y-48060000D01*
G75*
G02*
X69857000Y-47860000I200000J0D01*
G01*
X70207000Y-47860000D01*
G75*
G02*
X70407000Y-48060000I0J-200000D01*
G01*
X70407000Y-50560000D01*
G75*
G02*
X70207000Y-50760000I-200000J0D01*
G01*
X69857000Y-50760000D01*
G75*
G02*
X69657000Y-50560000I0J200000D01*
G01*
G37*
G36*
G01*
X68957000Y-50560000D02*
X68957000Y-48060000D01*
G75*
G02*
X69157000Y-47860000I200000J0D01*
G01*
X69507000Y-47860000D01*
G75*
G02*
X69707000Y-48060000I0J-200000D01*
G01*
X69707000Y-50560000D01*
G75*
G02*
X69507000Y-50760000I-200000J0D01*
G01*
X69157000Y-50760000D01*
G75*
G02*
X68957000Y-50560000I0J200000D01*
G01*
G37*
G36*
G01*
X67557000Y-50560000D02*
X67557000Y-48060000D01*
G75*
G02*
X67757000Y-47860000I200000J0D01*
G01*
X68107000Y-47860000D01*
G75*
G02*
X68307000Y-48060000I0J-200000D01*
G01*
X68307000Y-50560000D01*
G75*
G02*
X68107000Y-50760000I-200000J0D01*
G01*
X67757000Y-50760000D01*
G75*
G02*
X67557000Y-50560000I0J200000D01*
G01*
G37*
G36*
G01*
X68257000Y-50560000D02*
X68257000Y-48060000D01*
G75*
G02*
X68457000Y-47860000I200000J0D01*
G01*
X68807000Y-47860000D01*
G75*
G02*
X69007000Y-48060000I0J-200000D01*
G01*
X69007000Y-50560000D01*
G75*
G02*
X68807000Y-50760000I-200000J0D01*
G01*
X68457000Y-50760000D01*
G75*
G02*
X68257000Y-50560000I0J200000D01*
G01*
G37*
G36*
G01*
X66857000Y-50560000D02*
X66857000Y-48060000D01*
G75*
G02*
X67057000Y-47860000I200000J0D01*
G01*
X67407000Y-47860000D01*
G75*
G02*
X67607000Y-48060000I0J-200000D01*
G01*
X67607000Y-50560000D01*
G75*
G02*
X67407000Y-50760000I-200000J0D01*
G01*
X67057000Y-50760000D01*
G75*
G02*
X66857000Y-50560000I0J200000D01*
G01*
G37*
G36*
G01*
X66157000Y-50560000D02*
X66157000Y-48060000D01*
G75*
G02*
X66357000Y-47860000I200000J0D01*
G01*
X66707000Y-47860000D01*
G75*
G02*
X66907000Y-48060000I0J-200000D01*
G01*
X66907000Y-50560000D01*
G75*
G02*
X66707000Y-50760000I-200000J0D01*
G01*
X66357000Y-50760000D01*
G75*
G02*
X66157000Y-50560000I0J200000D01*
G01*
G37*
G36*
G01*
X65457000Y-50560000D02*
X65457000Y-48060000D01*
G75*
G02*
X65657000Y-47860000I200000J0D01*
G01*
X66007000Y-47860000D01*
G75*
G02*
X66207000Y-48060000I0J-200000D01*
G01*
X66207000Y-50560000D01*
G75*
G02*
X66007000Y-50760000I-200000J0D01*
G01*
X65657000Y-50760000D01*
G75*
G02*
X65457000Y-50560000I0J200000D01*
G01*
G37*
G36*
G01*
X64757000Y-50560000D02*
X64757000Y-48060000D01*
G75*
G02*
X64957000Y-47860000I200000J0D01*
G01*
X65307000Y-47860000D01*
G75*
G02*
X65507000Y-48060000I0J-200000D01*
G01*
X65507000Y-50560000D01*
G75*
G02*
X65307000Y-50760000I-200000J0D01*
G01*
X64957000Y-50760000D01*
G75*
G02*
X64757000Y-50560000I0J200000D01*
G01*
G37*
G36*
G01*
X64057000Y-50560000D02*
X64057000Y-48060000D01*
G75*
G02*
X64257000Y-47860000I200000J0D01*
G01*
X64607000Y-47860000D01*
G75*
G02*
X64807000Y-48060000I0J-200000D01*
G01*
X64807000Y-50560000D01*
G75*
G02*
X64607000Y-50760000I-200000J0D01*
G01*
X64257000Y-50760000D01*
G75*
G02*
X64057000Y-50560000I0J200000D01*
G01*
G37*
G36*
G01*
X63357000Y-50560000D02*
X63357000Y-48060000D01*
G75*
G02*
X63557000Y-47860000I200000J0D01*
G01*
X63907000Y-47860000D01*
G75*
G02*
X64107000Y-48060000I0J-200000D01*
G01*
X64107000Y-50560000D01*
G75*
G02*
X63907000Y-50760000I-200000J0D01*
G01*
X63557000Y-50760000D01*
G75*
G02*
X63357000Y-50560000I0J200000D01*
G01*
G37*
G36*
G01*
X62657000Y-50560000D02*
X62657000Y-48060000D01*
G75*
G02*
X62857000Y-47860000I200000J0D01*
G01*
X63207000Y-47860000D01*
G75*
G02*
X63407000Y-48060000I0J-200000D01*
G01*
X63407000Y-50560000D01*
G75*
G02*
X63207000Y-50760000I-200000J0D01*
G01*
X62857000Y-50760000D01*
G75*
G02*
X62657000Y-50560000I0J200000D01*
G01*
G37*
G36*
G01*
X61957000Y-50560000D02*
X61957000Y-48060000D01*
G75*
G02*
X62157000Y-47860000I200000J0D01*
G01*
X62507000Y-47860000D01*
G75*
G02*
X62707000Y-48060000I0J-200000D01*
G01*
X62707000Y-50560000D01*
G75*
G02*
X62507000Y-50760000I-200000J0D01*
G01*
X62157000Y-50760000D01*
G75*
G02*
X61957000Y-50560000I0J200000D01*
G01*
G37*
G36*
G01*
X61257000Y-50560000D02*
X61257000Y-48060000D01*
G75*
G02*
X61457000Y-47860000I200000J0D01*
G01*
X61807000Y-47860000D01*
G75*
G02*
X62007000Y-48060000I0J-200000D01*
G01*
X62007000Y-50560000D01*
G75*
G02*
X61807000Y-50760000I-200000J0D01*
G01*
X61457000Y-50760000D01*
G75*
G02*
X61257000Y-50560000I0J200000D01*
G01*
G37*
G36*
G01*
X60557000Y-50560000D02*
X60557000Y-48060000D01*
G75*
G02*
X60757000Y-47860000I200000J0D01*
G01*
X61107000Y-47860000D01*
G75*
G02*
X61307000Y-48060000I0J-200000D01*
G01*
X61307000Y-50560000D01*
G75*
G02*
X61107000Y-50760000I-200000J0D01*
G01*
X60757000Y-50760000D01*
G75*
G02*
X60557000Y-50560000I0J200000D01*
G01*
G37*
G36*
G01*
X59857000Y-50560000D02*
X59857000Y-48060000D01*
G75*
G02*
X60057000Y-47860000I200000J0D01*
G01*
X60407000Y-47860000D01*
G75*
G02*
X60607000Y-48060000I0J-200000D01*
G01*
X60607000Y-50560000D01*
G75*
G02*
X60407000Y-50760000I-200000J0D01*
G01*
X60057000Y-50760000D01*
G75*
G02*
X59857000Y-50560000I0J200000D01*
G01*
G37*
G36*
G01*
X59157000Y-50560000D02*
X59157000Y-48060000D01*
G75*
G02*
X59357000Y-47860000I200000J0D01*
G01*
X59707000Y-47860000D01*
G75*
G02*
X59907000Y-48060000I0J-200000D01*
G01*
X59907000Y-50560000D01*
G75*
G02*
X59707000Y-50760000I-200000J0D01*
G01*
X59357000Y-50760000D01*
G75*
G02*
X59157000Y-50560000I0J200000D01*
G01*
G37*
G36*
G01*
X85242000Y-54942000D02*
X85242000Y-56342000D01*
G75*
G02*
X85042000Y-56542000I-200000J0D01*
G01*
X83442000Y-56542000D01*
G75*
G02*
X83242000Y-56342000I0J200000D01*
G01*
X83242000Y-54942000D01*
G75*
G02*
X83442000Y-54742000I200000J0D01*
G01*
X85042000Y-54742000D01*
G75*
G02*
X85242000Y-54942000I0J-200000D01*
G01*
G37*
G36*
G01*
X81042000Y-54942000D02*
X81042000Y-56342000D01*
G75*
G02*
X80842000Y-56542000I-200000J0D01*
G01*
X79242000Y-56542000D01*
G75*
G02*
X79042000Y-56342000I0J200000D01*
G01*
X79042000Y-54942000D01*
G75*
G02*
X79242000Y-54742000I200000J0D01*
G01*
X80842000Y-54742000D01*
G75*
G02*
X81042000Y-54942000I0J-200000D01*
G01*
G37*
G36*
G01*
X81042000Y-57142000D02*
X81042000Y-58542000D01*
G75*
G02*
X80842000Y-58742000I-200000J0D01*
G01*
X79242000Y-58742000D01*
G75*
G02*
X79042000Y-58542000I0J200000D01*
G01*
X79042000Y-57142000D01*
G75*
G02*
X79242000Y-56942000I200000J0D01*
G01*
X80842000Y-56942000D01*
G75*
G02*
X81042000Y-57142000I0J-200000D01*
G01*
G37*
G36*
G01*
X85242000Y-57142000D02*
X85242000Y-58542000D01*
G75*
G02*
X85042000Y-58742000I-200000J0D01*
G01*
X83442000Y-58742000D01*
G75*
G02*
X83242000Y-58542000I0J200000D01*
G01*
X83242000Y-57142000D01*
G75*
G02*
X83442000Y-56942000I200000J0D01*
G01*
X85042000Y-56942000D01*
G75*
G02*
X85242000Y-57142000I0J-200000D01*
G01*
G37*
G36*
G01*
X71752000Y-83955000D02*
X71752000Y-85755000D01*
G75*
G02*
X71552000Y-85955000I-200000J0D01*
G01*
X70302000Y-85955000D01*
G75*
G02*
X70102000Y-85755000I0J200000D01*
G01*
X70102000Y-83955000D01*
G75*
G02*
X70302000Y-83755000I200000J0D01*
G01*
X71552000Y-83755000D01*
G75*
G02*
X71752000Y-83955000I0J-200000D01*
G01*
G37*
G36*
G01*
X84462000Y-83955000D02*
X84462000Y-85755000D01*
G75*
G02*
X84262000Y-85955000I-200000J0D01*
G01*
X83012000Y-85955000D01*
G75*
G02*
X82812000Y-85755000I0J200000D01*
G01*
X82812000Y-83955000D01*
G75*
G02*
X83012000Y-83755000I200000J0D01*
G01*
X84262000Y-83755000D01*
G75*
G02*
X84462000Y-83955000I0J-200000D01*
G01*
G37*
G36*
G01*
X74032000Y-79165000D02*
X74032000Y-80165000D01*
G75*
G02*
X73832000Y-80365000I-200000J0D01*
G01*
X73232000Y-80365000D01*
G75*
G02*
X73032000Y-80165000I0J200000D01*
G01*
X73032000Y-79165000D01*
G75*
G02*
X73232000Y-78965000I200000J0D01*
G01*
X73832000Y-78965000D01*
G75*
G02*
X74032000Y-79165000I0J-200000D01*
G01*
G37*
G36*
G01*
X75532000Y-79165000D02*
X75532000Y-80165000D01*
G75*
G02*
X75332000Y-80365000I-200000J0D01*
G01*
X74732000Y-80365000D01*
G75*
G02*
X74532000Y-80165000I0J200000D01*
G01*
X74532000Y-79165000D01*
G75*
G02*
X74732000Y-78965000I200000J0D01*
G01*
X75332000Y-78965000D01*
G75*
G02*
X75532000Y-79165000I0J-200000D01*
G01*
G37*
G36*
G01*
X77032000Y-79165000D02*
X77032000Y-80165000D01*
G75*
G02*
X76832000Y-80365000I-200000J0D01*
G01*
X76232000Y-80365000D01*
G75*
G02*
X76032000Y-80165000I0J200000D01*
G01*
X76032000Y-79165000D01*
G75*
G02*
X76232000Y-78965000I200000J0D01*
G01*
X76832000Y-78965000D01*
G75*
G02*
X77032000Y-79165000I0J-200000D01*
G01*
G37*
G36*
G01*
X78532000Y-79165000D02*
X78532000Y-80165000D01*
G75*
G02*
X78332000Y-80365000I-200000J0D01*
G01*
X77732000Y-80365000D01*
G75*
G02*
X77532000Y-80165000I0J200000D01*
G01*
X77532000Y-79165000D01*
G75*
G02*
X77732000Y-78965000I200000J0D01*
G01*
X78332000Y-78965000D01*
G75*
G02*
X78532000Y-79165000I0J-200000D01*
G01*
G37*
G36*
G01*
X80032000Y-79165000D02*
X80032000Y-80165000D01*
G75*
G02*
X79832000Y-80365000I-200000J0D01*
G01*
X79232000Y-80365000D01*
G75*
G02*
X79032000Y-80165000I0J200000D01*
G01*
X79032000Y-79165000D01*
G75*
G02*
X79232000Y-78965000I200000J0D01*
G01*
X79832000Y-78965000D01*
G75*
G02*
X80032000Y-79165000I0J-200000D01*
G01*
G37*
G36*
G01*
X81532000Y-79165000D02*
X81532000Y-80165000D01*
G75*
G02*
X81332000Y-80365000I-200000J0D01*
G01*
X80732000Y-80365000D01*
G75*
G02*
X80532000Y-80165000I0J200000D01*
G01*
X80532000Y-79165000D01*
G75*
G02*
X80732000Y-78965000I200000J0D01*
G01*
X81332000Y-78965000D01*
G75*
G02*
X81532000Y-79165000I0J-200000D01*
G01*
G37*
G36*
G01*
X61082000Y-85297500D02*
X61082000Y-83397500D01*
G75*
G02*
X61282000Y-83197500I200000J0D01*
G01*
X62482000Y-83197500D01*
G75*
G02*
X62682000Y-83397500I0J-200000D01*
G01*
X62682000Y-85297500D01*
G75*
G02*
X62482000Y-85497500I-200000J0D01*
G01*
X61282000Y-85497500D01*
G75*
G02*
X61082000Y-85297500I0J200000D01*
G01*
G37*
G36*
G01*
X66882000Y-85297500D02*
X66882000Y-83397500D01*
G75*
G02*
X67082000Y-83197500I200000J0D01*
G01*
X68282000Y-83197500D01*
G75*
G02*
X68482000Y-83397500I0J-200000D01*
G01*
X68482000Y-85297500D01*
G75*
G02*
X68282000Y-85497500I-200000J0D01*
G01*
X67082000Y-85497500D01*
G75*
G02*
X66882000Y-85297500I0J200000D01*
G01*
G37*
D12*
X68282000Y-84347500D03*
X61282000Y-84347500D03*
G36*
G01*
X62832000Y-85297500D02*
X62832000Y-83397500D01*
G75*
G02*
X63032000Y-83197500I200000J0D01*
G01*
X64532000Y-83197500D01*
G75*
G02*
X64732000Y-83397500I0J-200000D01*
G01*
X64732000Y-85297500D01*
G75*
G02*
X64532000Y-85497500I-200000J0D01*
G01*
X63032000Y-85497500D01*
G75*
G02*
X62832000Y-85297500I0J200000D01*
G01*
G37*
D13*
X67282000Y-81647500D03*
G36*
G01*
X64382000Y-82322500D02*
X64382000Y-80972500D01*
G75*
G02*
X64582000Y-80772500I200000J0D01*
G01*
X64982000Y-80772500D01*
G75*
G02*
X65182000Y-80972500I0J-200000D01*
G01*
X65182000Y-82322500D01*
G75*
G02*
X64982000Y-82522500I-200000J0D01*
G01*
X64582000Y-82522500D01*
G75*
G02*
X64382000Y-82322500I0J200000D01*
G01*
G37*
G36*
G01*
X65032000Y-82322500D02*
X65032000Y-80972500D01*
G75*
G02*
X65232000Y-80772500I200000J0D01*
G01*
X65632000Y-80772500D01*
G75*
G02*
X65832000Y-80972500I0J-200000D01*
G01*
X65832000Y-82322500D01*
G75*
G02*
X65632000Y-82522500I-200000J0D01*
G01*
X65232000Y-82522500D01*
G75*
G02*
X65032000Y-82322500I0J200000D01*
G01*
G37*
G36*
G01*
X65682000Y-82322500D02*
X65682000Y-80972500D01*
G75*
G02*
X65882000Y-80772500I200000J0D01*
G01*
X66282000Y-80772500D01*
G75*
G02*
X66482000Y-80972500I0J-200000D01*
G01*
X66482000Y-82322500D01*
G75*
G02*
X66282000Y-82522500I-200000J0D01*
G01*
X65882000Y-82522500D01*
G75*
G02*
X65682000Y-82322500I0J200000D01*
G01*
G37*
G36*
G01*
X63082000Y-82322500D02*
X63082000Y-80972500D01*
G75*
G02*
X63282000Y-80772500I200000J0D01*
G01*
X63682000Y-80772500D01*
G75*
G02*
X63882000Y-80972500I0J-200000D01*
G01*
X63882000Y-82322500D01*
G75*
G02*
X63682000Y-82522500I-200000J0D01*
G01*
X63282000Y-82522500D01*
G75*
G02*
X63082000Y-82322500I0J200000D01*
G01*
G37*
G36*
G01*
X63732000Y-82322500D02*
X63732000Y-80972500D01*
G75*
G02*
X63932000Y-80772500I200000J0D01*
G01*
X64332000Y-80772500D01*
G75*
G02*
X64532000Y-80972500I0J-200000D01*
G01*
X64532000Y-82322500D01*
G75*
G02*
X64332000Y-82522500I-200000J0D01*
G01*
X63932000Y-82522500D01*
G75*
G02*
X63732000Y-82322500I0J200000D01*
G01*
G37*
X62282000Y-81647500D03*
G36*
G01*
X64832000Y-85297500D02*
X64832000Y-83397500D01*
G75*
G02*
X65032000Y-83197500I200000J0D01*
G01*
X66532000Y-83197500D01*
G75*
G02*
X66732000Y-83397500I0J-200000D01*
G01*
X66732000Y-85297500D01*
G75*
G02*
X66532000Y-85497500I-200000J0D01*
G01*
X65032000Y-85497500D01*
G75*
G02*
X64832000Y-85297500I0J200000D01*
G01*
G37*
D14*
G36*
X66849201Y-68884893D02*
G01*
X67157507Y-69193199D01*
X67158025Y-69195131D01*
X67156611Y-69196545D01*
X67154824Y-69196159D01*
X67147406Y-69190071D01*
X67139108Y-69185636D01*
X67130104Y-69182906D01*
X67120744Y-69181983D01*
X67111384Y-69182906D01*
X67102380Y-69185636D01*
X67094082Y-69190071D01*
X67086810Y-69196039D01*
X67080842Y-69203311D01*
X67076407Y-69211609D01*
X67073677Y-69220613D01*
X67072754Y-69229973D01*
X67073676Y-69239332D01*
X67075754Y-69246180D01*
X67075300Y-69248128D01*
X67073386Y-69248709D01*
X67071992Y-69247526D01*
X67044692Y-69181618D01*
X66995901Y-69108597D01*
X66933803Y-69046499D01*
X66860782Y-68997708D01*
X66794874Y-68970408D01*
X66793656Y-68968821D01*
X66794421Y-68966973D01*
X66796220Y-68966646D01*
X66803069Y-68968724D01*
X66812428Y-68969646D01*
X66821788Y-68968723D01*
X66830792Y-68965993D01*
X66839090Y-68961557D01*
X66846361Y-68955589D01*
X66852329Y-68948317D01*
X66856764Y-68940019D01*
X66859494Y-68931015D01*
X66860417Y-68921655D01*
X66859494Y-68912295D01*
X66856764Y-68903291D01*
X66852328Y-68894993D01*
X66846241Y-68887576D01*
X66845915Y-68885602D01*
X66847461Y-68884334D01*
X66849201Y-68884893D01*
G37*
G36*
X66281995Y-68993383D02*
G01*
X66282322Y-68995182D01*
X66280245Y-69002028D01*
X66279323Y-69011387D01*
X66280245Y-69020747D01*
X66282977Y-69029752D01*
X66287412Y-69038049D01*
X66293380Y-69045321D01*
X66300651Y-69051289D01*
X66308949Y-69055723D01*
X66317954Y-69058455D01*
X66327313Y-69059377D01*
X66336673Y-69058455D01*
X66345678Y-69055723D01*
X66353975Y-69051288D01*
X66359494Y-69046759D01*
X66361468Y-69046433D01*
X66362736Y-69047979D01*
X66362177Y-69049719D01*
X66303299Y-69108597D01*
X66254508Y-69181618D01*
X66233240Y-69232964D01*
X66231653Y-69234182D01*
X66229805Y-69233417D01*
X66229478Y-69231618D01*
X66231555Y-69224772D01*
X66232477Y-69215413D01*
X66231555Y-69206053D01*
X66228823Y-69197048D01*
X66224388Y-69188751D01*
X66218420Y-69181479D01*
X66211149Y-69175511D01*
X66202851Y-69171077D01*
X66193846Y-69168345D01*
X66184487Y-69167423D01*
X66175127Y-69168345D01*
X66166122Y-69171077D01*
X66157825Y-69175512D01*
X66152306Y-69180041D01*
X66150332Y-69180367D01*
X66149064Y-69178821D01*
X66149623Y-69177081D01*
X66208501Y-69118203D01*
X66257292Y-69045182D01*
X66278560Y-68993836D01*
X66280147Y-68992618D01*
X66281995Y-68993383D01*
G37*
G36*
X67487631Y-56161000D02*
G01*
X67487631Y-56163000D01*
X67486095Y-56163990D01*
X67476539Y-56164932D01*
X67467535Y-56167662D01*
X67459237Y-56172097D01*
X67451965Y-56178065D01*
X67445997Y-56185337D01*
X67441562Y-56193635D01*
X67438832Y-56202639D01*
X67437909Y-56211999D01*
X67438832Y-56221359D01*
X67441562Y-56230363D01*
X67445997Y-56238661D01*
X67451965Y-56245933D01*
X67457489Y-56250466D01*
X67458193Y-56252338D01*
X67456925Y-56253884D01*
X67455109Y-56253675D01*
X67444982Y-56246908D01*
X67363846Y-56213301D01*
X67277709Y-56196167D01*
X67189891Y-56196167D01*
X67105498Y-56212954D01*
X67103604Y-56212311D01*
X67103214Y-56210349D01*
X67104527Y-56209078D01*
X67111367Y-56207003D01*
X67119664Y-56202568D01*
X67126936Y-56196600D01*
X67132903Y-56189328D01*
X67137339Y-56181030D01*
X67140069Y-56172026D01*
X67141000Y-56162573D01*
X67141000Y-56162000D01*
X67142000Y-56160268D01*
X67143000Y-56160000D01*
X67485899Y-56160000D01*
X67487631Y-56161000D01*
G37*
M02*
