G04 #@! TF.GenerationSoftware,KiCad,Pcbnew,5.0.2+dfsg1-1*
G04 #@! TF.CreationDate,2020-01-14T17:08:53+01:00*
G04 #@! TF.ProjectId,xling,786c696e-672e-46b6-9963-61645f706362,3.2*
G04 #@! TF.SameCoordinates,Original*
G04 #@! TF.FileFunction,Soldermask,Top*
G04 #@! TF.FilePolarity,Negative*
%FSLAX46Y46*%
G04 Gerber Fmt 4.6, Leading zero omitted, Abs format (unit mm)*
G04 Created by KiCad (PCBNEW 5.0.2+dfsg1-1) date Tue 14 Jan 2020 17:08:53 CET*
%MOMM*%
%LPD*%
G01*
G04 APERTURE LIST*
%ADD10C,0.100000*%
G04 APERTURE END LIST*
D10*
G36*
X84462000Y-85955000D02*
X82812000Y-85955000D01*
X82812000Y-83755000D01*
X84462000Y-83755000D01*
X84462000Y-85955000D01*
X84462000Y-85955000D01*
G37*
G36*
X71752000Y-85955000D02*
X70102000Y-85955000D01*
X70102000Y-83755000D01*
X71752000Y-83755000D01*
X71752000Y-85955000D01*
X71752000Y-85955000D01*
G37*
G36*
X61318848Y-83197259D02*
X61323749Y-83197500D01*
X62682000Y-83197500D01*
X62682000Y-85497500D01*
X61323748Y-85497500D01*
X61318847Y-85497741D01*
X61282000Y-85501370D01*
X61245152Y-85497741D01*
X61240251Y-85497500D01*
X61080234Y-85497500D01*
X61078194Y-85490776D01*
X61073573Y-85482131D01*
X61067355Y-85474555D01*
X61059779Y-85468337D01*
X61051134Y-85463716D01*
X61046514Y-85462063D01*
X60974372Y-85440180D01*
X60835393Y-85365893D01*
X60757457Y-85301932D01*
X60713578Y-85265922D01*
X60613607Y-85144105D01*
X60613605Y-85144102D01*
X60539320Y-85005127D01*
X60493576Y-84854326D01*
X60482000Y-84736794D01*
X60482000Y-83958205D01*
X60493576Y-83840673D01*
X60539321Y-83689872D01*
X60613608Y-83550893D01*
X60713579Y-83429078D01*
X60835394Y-83329107D01*
X60974373Y-83254820D01*
X61046514Y-83232937D01*
X61055570Y-83229186D01*
X61063719Y-83223741D01*
X61070650Y-83216810D01*
X61076096Y-83208660D01*
X61079847Y-83199604D01*
X61080265Y-83197500D01*
X61240252Y-83197500D01*
X61245153Y-83197259D01*
X61282000Y-83193630D01*
X61318848Y-83197259D01*
X61318848Y-83197259D01*
G37*
G36*
X68318847Y-83197259D02*
X68323748Y-83197500D01*
X68483766Y-83197500D01*
X68485806Y-83204224D01*
X68490427Y-83212869D01*
X68496645Y-83220445D01*
X68504221Y-83226663D01*
X68512866Y-83231284D01*
X68517486Y-83232937D01*
X68589627Y-83254820D01*
X68728602Y-83329105D01*
X68728603Y-83329106D01*
X68728605Y-83329107D01*
X68850422Y-83429078D01*
X68850424Y-83429081D01*
X68950393Y-83550893D01*
X69024680Y-83689872D01*
X69070424Y-83840673D01*
X69082000Y-83958205D01*
X69082000Y-84736795D01*
X69070424Y-84854327D01*
X69024680Y-85005128D01*
X68950393Y-85144107D01*
X68850422Y-85265922D01*
X68728607Y-85365893D01*
X68589628Y-85440180D01*
X68517486Y-85462063D01*
X68508431Y-85465814D01*
X68500281Y-85471259D01*
X68493350Y-85478190D01*
X68487904Y-85486340D01*
X68484153Y-85495395D01*
X68483734Y-85497500D01*
X68323749Y-85497500D01*
X68318848Y-85497741D01*
X68282000Y-85501370D01*
X68245153Y-85497741D01*
X68240252Y-85497500D01*
X66882000Y-85497500D01*
X66882000Y-83197500D01*
X68240251Y-83197500D01*
X68245152Y-83197259D01*
X68282000Y-83193630D01*
X68318847Y-83197259D01*
X68318847Y-83197259D01*
G37*
G36*
X66732000Y-85497500D02*
X62832000Y-85497500D01*
X62832000Y-83197500D01*
X66732000Y-83197500D01*
X66732000Y-85497500D01*
X66732000Y-85497500D01*
G37*
G36*
X59502000Y-85345000D02*
X57852000Y-85345000D01*
X57852000Y-82295000D01*
X59502000Y-82295000D01*
X59502000Y-85345000D01*
X59502000Y-85345000D01*
G37*
G36*
X56702000Y-85345000D02*
X55052000Y-85345000D01*
X55052000Y-82295000D01*
X56702000Y-82295000D01*
X56702000Y-85345000D01*
X56702000Y-85345000D01*
G37*
G36*
X62551811Y-80758046D02*
X62551814Y-80758047D01*
X62551813Y-80758047D01*
X62720152Y-80827775D01*
X62720155Y-80827777D01*
X62871653Y-80929004D01*
X62996645Y-81053996D01*
X63004221Y-81060214D01*
X63012866Y-81064835D01*
X63022245Y-81067680D01*
X63032000Y-81068641D01*
X63041755Y-81067680D01*
X63051134Y-81064835D01*
X63059779Y-81060214D01*
X63067355Y-81053996D01*
X63073573Y-81046420D01*
X63078194Y-81037775D01*
X63081039Y-81028396D01*
X63082000Y-81018641D01*
X63082000Y-80772500D01*
X66482000Y-80772500D01*
X66482000Y-81018641D01*
X66482961Y-81028396D01*
X66485806Y-81037775D01*
X66490427Y-81046420D01*
X66496645Y-81053996D01*
X66504221Y-81060214D01*
X66512866Y-81064835D01*
X66522245Y-81067680D01*
X66532000Y-81068641D01*
X66541755Y-81067680D01*
X66551134Y-81064835D01*
X66559779Y-81060214D01*
X66567355Y-81053996D01*
X66692347Y-80929004D01*
X66843845Y-80827777D01*
X66843848Y-80827775D01*
X67012187Y-80758047D01*
X67012186Y-80758047D01*
X67012189Y-80758046D01*
X67190894Y-80722500D01*
X67373106Y-80722500D01*
X67551811Y-80758046D01*
X67551814Y-80758047D01*
X67551813Y-80758047D01*
X67720152Y-80827775D01*
X67720155Y-80827777D01*
X67871653Y-80929004D01*
X68000496Y-81057847D01*
X68101723Y-81209345D01*
X68101725Y-81209348D01*
X68158575Y-81346596D01*
X68171454Y-81377689D01*
X68207000Y-81556394D01*
X68207000Y-81738606D01*
X68171454Y-81917311D01*
X68171453Y-81917313D01*
X68101725Y-82085652D01*
X68101723Y-82085655D01*
X68000496Y-82237153D01*
X67871653Y-82365996D01*
X67720155Y-82467223D01*
X67720152Y-82467225D01*
X67586706Y-82522500D01*
X67551811Y-82536954D01*
X67373106Y-82572500D01*
X67190894Y-82572500D01*
X67012189Y-82536954D01*
X66977294Y-82522500D01*
X66843848Y-82467225D01*
X66843845Y-82467223D01*
X66692347Y-82365996D01*
X66567355Y-82241004D01*
X66559779Y-82234786D01*
X66551134Y-82230165D01*
X66541755Y-82227320D01*
X66532000Y-82226359D01*
X66522245Y-82227320D01*
X66512866Y-82230165D01*
X66504221Y-82234786D01*
X66496645Y-82241004D01*
X66490427Y-82248580D01*
X66485806Y-82257225D01*
X66482961Y-82266604D01*
X66482000Y-82276359D01*
X66482000Y-82522500D01*
X63082000Y-82522500D01*
X63082000Y-82276359D01*
X63081039Y-82266604D01*
X63078194Y-82257225D01*
X63073573Y-82248580D01*
X63067355Y-82241004D01*
X63059779Y-82234786D01*
X63051134Y-82230165D01*
X63041755Y-82227320D01*
X63032000Y-82226359D01*
X63022245Y-82227320D01*
X63012866Y-82230165D01*
X63004221Y-82234786D01*
X62996645Y-82241004D01*
X62871653Y-82365996D01*
X62720155Y-82467223D01*
X62720152Y-82467225D01*
X62586706Y-82522500D01*
X62551811Y-82536954D01*
X62373106Y-82572500D01*
X62190894Y-82572500D01*
X62012189Y-82536954D01*
X61977294Y-82522500D01*
X61843848Y-82467225D01*
X61843845Y-82467223D01*
X61692347Y-82365996D01*
X61563504Y-82237153D01*
X61462277Y-82085655D01*
X61462275Y-82085652D01*
X61392547Y-81917313D01*
X61392546Y-81917311D01*
X61357000Y-81738606D01*
X61357000Y-81556394D01*
X61392546Y-81377689D01*
X61405425Y-81346596D01*
X61462275Y-81209348D01*
X61462277Y-81209345D01*
X61563504Y-81057847D01*
X61692347Y-80929004D01*
X61843845Y-80827777D01*
X61843848Y-80827775D01*
X62012187Y-80758047D01*
X62012186Y-80758047D01*
X62012189Y-80758046D01*
X62190894Y-80722500D01*
X62373106Y-80722500D01*
X62551811Y-80758046D01*
X62551811Y-80758046D01*
G37*
G36*
X56702000Y-81535000D02*
X55052000Y-81535000D01*
X55052000Y-78485000D01*
X56702000Y-78485000D01*
X56702000Y-81535000D01*
X56702000Y-81535000D01*
G37*
G36*
X59502000Y-81535000D02*
X57852000Y-81535000D01*
X57852000Y-78485000D01*
X59502000Y-78485000D01*
X59502000Y-81535000D01*
X59502000Y-81535000D01*
G37*
G36*
X74032000Y-80365000D02*
X73032000Y-80365000D01*
X73032000Y-78965000D01*
X74032000Y-78965000D01*
X74032000Y-80365000D01*
X74032000Y-80365000D01*
G37*
G36*
X75532000Y-80365000D02*
X74532000Y-80365000D01*
X74532000Y-78965000D01*
X75532000Y-78965000D01*
X75532000Y-80365000D01*
X75532000Y-80365000D01*
G37*
G36*
X77032000Y-80365000D02*
X76032000Y-80365000D01*
X76032000Y-78965000D01*
X77032000Y-78965000D01*
X77032000Y-80365000D01*
X77032000Y-80365000D01*
G37*
G36*
X80032000Y-80365000D02*
X79032000Y-80365000D01*
X79032000Y-78965000D01*
X80032000Y-78965000D01*
X80032000Y-80365000D01*
X80032000Y-80365000D01*
G37*
G36*
X78532000Y-80365000D02*
X77532000Y-80365000D01*
X77532000Y-78965000D01*
X78532000Y-78965000D01*
X78532000Y-80365000D01*
X78532000Y-80365000D01*
G37*
G36*
X81532000Y-80365000D02*
X80532000Y-80365000D01*
X80532000Y-78965000D01*
X81532000Y-78965000D01*
X81532000Y-80365000D01*
X81532000Y-80365000D01*
G37*
G36*
X63655000Y-79669000D02*
X62380000Y-79669000D01*
X62380000Y-78319000D01*
X63655000Y-78319000D01*
X63655000Y-79669000D01*
X63655000Y-79669000D01*
G37*
G36*
X62080000Y-79669000D02*
X60805000Y-79669000D01*
X60805000Y-78319000D01*
X62080000Y-78319000D01*
X62080000Y-79669000D01*
X62080000Y-79669000D01*
G37*
G36*
X71529000Y-79008600D02*
X70254000Y-79008600D01*
X70254000Y-77658600D01*
X71529000Y-77658600D01*
X71529000Y-79008600D01*
X71529000Y-79008600D01*
G37*
G36*
X69954000Y-79008600D02*
X68679000Y-79008600D01*
X68679000Y-77658600D01*
X69954000Y-77658600D01*
X69954000Y-79008600D01*
X69954000Y-79008600D01*
G37*
G36*
X83733000Y-78133000D02*
X82383000Y-78133000D01*
X82383000Y-76858000D01*
X83733000Y-76858000D01*
X83733000Y-78133000D01*
X83733000Y-78133000D01*
G37*
G36*
X59337000Y-77891000D02*
X58062000Y-77891000D01*
X58062000Y-76541000D01*
X59337000Y-76541000D01*
X59337000Y-77891000D01*
X59337000Y-77891000D01*
G37*
G36*
X57762000Y-77891000D02*
X56487000Y-77891000D01*
X56487000Y-76541000D01*
X57762000Y-76541000D01*
X57762000Y-77891000D01*
X57762000Y-77891000D01*
G37*
G36*
X63655000Y-77891000D02*
X62380000Y-77891000D01*
X62380000Y-76541000D01*
X63655000Y-76541000D01*
X63655000Y-77891000D01*
X63655000Y-77891000D01*
G37*
G36*
X62080000Y-77891000D02*
X60805000Y-77891000D01*
X60805000Y-76541000D01*
X62080000Y-76541000D01*
X62080000Y-77891000D01*
X62080000Y-77891000D01*
G37*
G36*
X65800600Y-77269400D02*
X64450600Y-77269400D01*
X64450600Y-75994400D01*
X65800600Y-75994400D01*
X65800600Y-77269400D01*
X65800600Y-77269400D01*
G37*
G36*
X71529000Y-77230600D02*
X70254000Y-77230600D01*
X70254000Y-75880600D01*
X71529000Y-75880600D01*
X71529000Y-77230600D01*
X71529000Y-77230600D01*
G37*
G36*
X69954000Y-77230600D02*
X68679000Y-77230600D01*
X68679000Y-75880600D01*
X69954000Y-75880600D01*
X69954000Y-77230600D01*
X69954000Y-77230600D01*
G37*
G36*
X83733000Y-76558000D02*
X82383000Y-76558000D01*
X82383000Y-75283000D01*
X83733000Y-75283000D01*
X83733000Y-76558000D01*
X83733000Y-76558000D01*
G37*
G36*
X63934000Y-75760000D02*
X62934000Y-75760000D01*
X62934000Y-74260000D01*
X63934000Y-74260000D01*
X63934000Y-75760000D01*
X63934000Y-75760000D01*
G37*
G36*
X62034000Y-75760000D02*
X61034000Y-75760000D01*
X61034000Y-74260000D01*
X62034000Y-74260000D01*
X62034000Y-75760000D01*
X62034000Y-75760000D01*
G37*
G36*
X59347000Y-75706000D02*
X57747000Y-75706000D01*
X57747000Y-74406000D01*
X59347000Y-74406000D01*
X59347000Y-75706000D01*
X59347000Y-75706000D01*
G37*
G36*
X65800600Y-75694400D02*
X64450600Y-75694400D01*
X64450600Y-74419400D01*
X65800600Y-74419400D01*
X65800600Y-75694400D01*
X65800600Y-75694400D01*
G37*
G36*
X68379200Y-75503400D02*
X67104200Y-75503400D01*
X67104200Y-74153400D01*
X68379200Y-74153400D01*
X68379200Y-75503400D01*
X68379200Y-75503400D01*
G37*
G36*
X69954200Y-75503400D02*
X68679200Y-75503400D01*
X68679200Y-74153400D01*
X69954200Y-74153400D01*
X69954200Y-75503400D01*
X69954200Y-75503400D01*
G37*
G36*
X80762231Y-74497364D02*
X79860670Y-75398925D01*
X78906075Y-74444330D01*
X79807636Y-73542769D01*
X80762231Y-74497364D01*
X80762231Y-74497364D01*
G37*
G36*
X56546602Y-73507521D02*
X56598145Y-73523156D01*
X56645648Y-73548547D01*
X56687284Y-73582716D01*
X56721453Y-73624352D01*
X56746844Y-73671855D01*
X56762479Y-73723398D01*
X56768000Y-73779454D01*
X56768000Y-74424546D01*
X56762479Y-74480602D01*
X56746844Y-74532145D01*
X56721453Y-74579648D01*
X56687284Y-74621284D01*
X56645648Y-74655453D01*
X56598145Y-74680844D01*
X56546602Y-74696479D01*
X56490546Y-74702000D01*
X55745454Y-74702000D01*
X55689398Y-74696479D01*
X55637855Y-74680844D01*
X55590352Y-74655453D01*
X55548716Y-74621284D01*
X55514547Y-74579648D01*
X55489156Y-74532145D01*
X55473521Y-74480602D01*
X55468000Y-74424546D01*
X55468000Y-73779454D01*
X55473521Y-73723398D01*
X55489156Y-73671855D01*
X55514547Y-73624352D01*
X55548716Y-73582716D01*
X55590352Y-73548547D01*
X55637855Y-73523156D01*
X55689398Y-73507521D01*
X55745454Y-73502000D01*
X56490546Y-73502000D01*
X56546602Y-73507521D01*
X56546602Y-73507521D01*
G37*
G36*
X84318231Y-73481364D02*
X83416670Y-74382925D01*
X82462075Y-73428330D01*
X83363636Y-72526769D01*
X84318231Y-73481364D01*
X84318231Y-73481364D01*
G37*
G36*
X81875925Y-73383670D02*
X80974364Y-74285231D01*
X80019769Y-73330636D01*
X80921330Y-72429075D01*
X81875925Y-73383670D01*
X81875925Y-73383670D01*
G37*
G36*
X79492231Y-73227364D02*
X78590670Y-74128925D01*
X77636075Y-73174330D01*
X78537636Y-72272769D01*
X79492231Y-73227364D01*
X79492231Y-73227364D01*
G37*
G36*
X67413271Y-66764785D02*
X67413277Y-66764790D01*
X68721413Y-68072926D01*
X68721418Y-68072932D01*
X69110327Y-68461841D01*
X69110333Y-68461846D01*
X69852784Y-69204297D01*
X69852789Y-69204303D01*
X70241698Y-69593212D01*
X70241704Y-69593217D01*
X70984155Y-70335668D01*
X70984160Y-70335674D01*
X71373069Y-70724583D01*
X71373075Y-70724588D01*
X72681211Y-72032724D01*
X72681216Y-72032730D01*
X73211546Y-72563060D01*
X71868042Y-73906564D01*
X71160941Y-73199463D01*
X71160936Y-73199457D01*
X70206342Y-72244863D01*
X70206336Y-72244858D01*
X69463885Y-71502407D01*
X69463880Y-71502401D01*
X69074971Y-71113492D01*
X69074965Y-71113487D01*
X68332514Y-70371036D01*
X68332509Y-70371030D01*
X67943600Y-69982121D01*
X67943594Y-69982116D01*
X67201143Y-69239665D01*
X67201138Y-69239659D01*
X66246544Y-68285065D01*
X66246538Y-68285060D01*
X65539436Y-67577958D01*
X66882940Y-66234454D01*
X67413271Y-66764785D01*
X67413271Y-66764785D01*
G37*
G36*
X81272564Y-67577958D02*
X80565457Y-68285065D01*
X79999771Y-68850750D01*
X79610863Y-69239659D01*
X76605659Y-72244863D01*
X76039973Y-72810548D01*
X75651065Y-73199457D01*
X74943958Y-73906564D01*
X73600454Y-72563060D01*
X74130785Y-72032730D01*
X74130794Y-72032719D01*
X75438921Y-70724592D01*
X75438932Y-70724583D01*
X75827841Y-70335674D01*
X75827850Y-70335663D01*
X76570292Y-69593221D01*
X76570303Y-69593212D01*
X76959212Y-69204303D01*
X76959221Y-69204292D01*
X77701663Y-68461850D01*
X77701674Y-68461841D01*
X78090583Y-68072932D01*
X78090592Y-68072921D01*
X79398719Y-66764794D01*
X79398730Y-66764785D01*
X79929060Y-66234454D01*
X81272564Y-67577958D01*
X81272564Y-67577958D01*
G37*
G36*
X54546602Y-72557521D02*
X54598145Y-72573156D01*
X54645648Y-72598547D01*
X54687284Y-72632716D01*
X54721453Y-72674352D01*
X54746844Y-72721855D01*
X54762479Y-72773398D01*
X54768000Y-72829454D01*
X54768000Y-73474546D01*
X54762479Y-73530602D01*
X54746844Y-73582145D01*
X54721453Y-73629648D01*
X54687284Y-73671284D01*
X54645648Y-73705453D01*
X54598145Y-73730844D01*
X54546602Y-73746479D01*
X54490546Y-73752000D01*
X53745454Y-73752000D01*
X53689398Y-73746479D01*
X53637855Y-73730844D01*
X53590352Y-73705453D01*
X53548716Y-73671284D01*
X53514547Y-73629648D01*
X53489156Y-73582145D01*
X53473521Y-73530602D01*
X53468000Y-73474546D01*
X53468000Y-72829454D01*
X53473521Y-72773398D01*
X53489156Y-72721855D01*
X53514547Y-72674352D01*
X53548716Y-72632716D01*
X53590352Y-72598547D01*
X53637855Y-72573156D01*
X53689398Y-72557521D01*
X53745454Y-72552000D01*
X54490546Y-72552000D01*
X54546602Y-72557521D01*
X54546602Y-72557521D01*
G37*
G36*
X69556925Y-72602830D02*
X68602330Y-73557425D01*
X67700769Y-72655864D01*
X68655364Y-71701269D01*
X69556925Y-72602830D01*
X69556925Y-72602830D01*
G37*
G36*
X85431925Y-72367670D02*
X84530364Y-73269231D01*
X83575769Y-72314636D01*
X84477330Y-71413075D01*
X85431925Y-72367670D01*
X85431925Y-72367670D01*
G37*
G36*
X83048231Y-72211364D02*
X82146670Y-73112925D01*
X81192075Y-72158330D01*
X82093636Y-71256769D01*
X83048231Y-72211364D01*
X83048231Y-72211364D01*
G37*
G36*
X80605925Y-72113670D02*
X79704364Y-73015231D01*
X78749769Y-72060636D01*
X79651330Y-71159075D01*
X80605925Y-72113670D01*
X80605925Y-72113670D01*
G37*
G36*
X63934000Y-72960000D02*
X61034000Y-72960000D01*
X61034000Y-71460000D01*
X63934000Y-71460000D01*
X63934000Y-72960000D01*
X63934000Y-72960000D01*
G37*
G36*
X56546602Y-71607521D02*
X56598145Y-71623156D01*
X56645648Y-71648547D01*
X56687284Y-71682716D01*
X56721453Y-71724352D01*
X56746844Y-71771855D01*
X56762479Y-71823398D01*
X56768000Y-71879454D01*
X56768000Y-72524546D01*
X56762479Y-72580602D01*
X56746844Y-72632145D01*
X56721453Y-72679648D01*
X56687284Y-72721284D01*
X56645648Y-72755453D01*
X56598145Y-72780844D01*
X56546602Y-72796479D01*
X56490546Y-72802000D01*
X55745454Y-72802000D01*
X55689398Y-72796479D01*
X55637855Y-72780844D01*
X55590352Y-72755453D01*
X55548716Y-72721284D01*
X55514547Y-72679648D01*
X55489156Y-72632145D01*
X55473521Y-72580602D01*
X55468000Y-72524546D01*
X55468000Y-71879454D01*
X55473521Y-71823398D01*
X55489156Y-71771855D01*
X55514547Y-71724352D01*
X55548716Y-71682716D01*
X55590352Y-71648547D01*
X55637855Y-71623156D01*
X55689398Y-71607521D01*
X55745454Y-71602000D01*
X56490546Y-71602000D01*
X56546602Y-71607521D01*
X56546602Y-71607521D01*
G37*
G36*
X68443231Y-71489136D02*
X67488636Y-72443731D01*
X66587075Y-71542170D01*
X67541670Y-70587575D01*
X68443231Y-71489136D01*
X68443231Y-71489136D01*
G37*
G36*
X59347000Y-72406000D02*
X57747000Y-72406000D01*
X57747000Y-71106000D01*
X59347000Y-71106000D01*
X59347000Y-72406000D01*
X59347000Y-72406000D01*
G37*
G36*
X84161925Y-71097670D02*
X83260364Y-71999231D01*
X82305769Y-71044636D01*
X83207330Y-70143075D01*
X84161925Y-71097670D01*
X84161925Y-71097670D01*
G37*
G36*
X81778231Y-70941364D02*
X80876670Y-71842925D01*
X79922075Y-70888330D01*
X80823636Y-69986769D01*
X81778231Y-70941364D01*
X81778231Y-70941364D01*
G37*
G36*
X82891925Y-69827670D02*
X81990364Y-70729231D01*
X81035769Y-69774636D01*
X81937330Y-68873075D01*
X82891925Y-69827670D01*
X82891925Y-69827670D01*
G37*
G36*
X85765000Y-69751000D02*
X84415000Y-69751000D01*
X84415000Y-68476000D01*
X85765000Y-68476000D01*
X85765000Y-69751000D01*
X85765000Y-69751000D01*
G37*
G36*
X59083000Y-69636000D02*
X57808000Y-69636000D01*
X57808000Y-68286000D01*
X59083000Y-68286000D01*
X59083000Y-69636000D01*
X59083000Y-69636000D01*
G37*
G36*
X57508000Y-69636000D02*
X56233000Y-69636000D01*
X56233000Y-68286000D01*
X57508000Y-68286000D01*
X57508000Y-69636000D01*
X57508000Y-69636000D01*
G37*
G36*
X62842000Y-69509000D02*
X61567000Y-69509000D01*
X61567000Y-68159000D01*
X62842000Y-68159000D01*
X62842000Y-69509000D01*
X62842000Y-69509000D01*
G37*
G36*
X64417000Y-69509000D02*
X63142000Y-69509000D01*
X63142000Y-68159000D01*
X64417000Y-68159000D01*
X64417000Y-69509000D01*
X64417000Y-69509000D01*
G37*
G36*
X85765000Y-68176000D02*
X84415000Y-68176000D01*
X84415000Y-66901000D01*
X85765000Y-66901000D01*
X85765000Y-68176000D01*
X85765000Y-68176000D01*
G37*
G36*
X59083000Y-67858000D02*
X57808000Y-67858000D01*
X57808000Y-66508000D01*
X59083000Y-66508000D01*
X59083000Y-67858000D01*
X59083000Y-67858000D01*
G37*
G36*
X57508000Y-67858000D02*
X56233000Y-67858000D01*
X56233000Y-66508000D01*
X57508000Y-66508000D01*
X57508000Y-67858000D01*
X57508000Y-67858000D01*
G37*
G36*
X64417000Y-67731000D02*
X63142000Y-67731000D01*
X63142000Y-66381000D01*
X64417000Y-66381000D01*
X64417000Y-67731000D01*
X64417000Y-67731000D01*
G37*
G36*
X62842000Y-67731000D02*
X61567000Y-67731000D01*
X61567000Y-66381000D01*
X62842000Y-66381000D01*
X62842000Y-67731000D01*
X62842000Y-67731000D01*
G37*
G36*
X73211546Y-59516940D02*
X72681216Y-60047271D01*
X67413271Y-65315216D01*
X66882940Y-65845546D01*
X65539436Y-64502042D01*
X66246533Y-63794945D01*
X66246544Y-63794936D01*
X66812229Y-63229250D01*
X67201138Y-62840342D01*
X67201147Y-62840331D01*
X67943589Y-62097889D01*
X67943600Y-62097880D01*
X68332509Y-61708971D01*
X68332518Y-61708960D01*
X69074960Y-60966518D01*
X69074971Y-60966509D01*
X69463880Y-60577600D01*
X69463889Y-60577589D01*
X70206331Y-59835147D01*
X70206342Y-59835138D01*
X70772027Y-59269452D01*
X71160936Y-58880544D01*
X71160945Y-58880533D01*
X71868042Y-58173436D01*
X73211546Y-59516940D01*
X73211546Y-59516940D01*
G37*
G36*
X75651060Y-58880538D02*
X75651065Y-58880544D01*
X76605659Y-59835138D01*
X76605665Y-59835143D01*
X77348116Y-60577594D01*
X77348121Y-60577600D01*
X77737030Y-60966509D01*
X77737036Y-60966514D01*
X78479487Y-61708965D01*
X78479492Y-61708971D01*
X78868401Y-62097880D01*
X78868407Y-62097885D01*
X79610858Y-62840336D01*
X79610863Y-62840342D01*
X80565457Y-63794936D01*
X80565463Y-63794941D01*
X81272564Y-64502042D01*
X79929060Y-65845546D01*
X79398730Y-65315216D01*
X79398724Y-65315211D01*
X78090588Y-64007075D01*
X78090583Y-64007069D01*
X77701674Y-63618160D01*
X77701668Y-63618155D01*
X76959217Y-62875704D01*
X76959212Y-62875698D01*
X76570303Y-62486789D01*
X76570297Y-62486784D01*
X75827846Y-61744333D01*
X75827841Y-61744327D01*
X75438932Y-61355418D01*
X75438926Y-61355413D01*
X74130790Y-60047277D01*
X74130785Y-60047271D01*
X73600454Y-59516940D01*
X74943958Y-58173436D01*
X75651060Y-58880538D01*
X75651060Y-58880538D01*
G37*
G36*
X62893000Y-65445000D02*
X61618000Y-65445000D01*
X61618000Y-64095000D01*
X62893000Y-64095000D01*
X62893000Y-65445000D01*
X62893000Y-65445000D01*
G37*
G36*
X61318000Y-65445000D02*
X60043000Y-65445000D01*
X60043000Y-64095000D01*
X61318000Y-64095000D01*
X61318000Y-65445000D01*
X61318000Y-65445000D01*
G37*
G36*
X83780925Y-64411330D02*
X82826330Y-65365925D01*
X81924769Y-64464364D01*
X82879364Y-63509769D01*
X83780925Y-64411330D01*
X83780925Y-64411330D01*
G37*
G36*
X59457500Y-65254000D02*
X58057500Y-65254000D01*
X58057500Y-62254000D01*
X59457500Y-62254000D01*
X59457500Y-65254000D01*
X59457500Y-65254000D01*
G37*
G36*
X57258500Y-65254000D02*
X55858500Y-65254000D01*
X55858500Y-62254000D01*
X57258500Y-62254000D01*
X57258500Y-65254000D01*
X57258500Y-65254000D01*
G37*
G36*
X82667231Y-63297636D02*
X81712636Y-64252231D01*
X80811075Y-63350670D01*
X81765670Y-62396075D01*
X82667231Y-63297636D01*
X82667231Y-63297636D01*
G37*
G36*
X85050925Y-63141330D02*
X84096330Y-64095925D01*
X83194769Y-63194364D01*
X84149364Y-62239769D01*
X85050925Y-63141330D01*
X85050925Y-63141330D01*
G37*
G36*
X65746925Y-63141330D02*
X64792330Y-64095925D01*
X63890769Y-63194364D01*
X64845364Y-62239769D01*
X65746925Y-63141330D01*
X65746925Y-63141330D01*
G37*
G36*
X81431425Y-62061830D02*
X80476830Y-63016425D01*
X79575269Y-62114864D01*
X80529864Y-61160269D01*
X81431425Y-62061830D01*
X81431425Y-62061830D01*
G37*
G36*
X64633231Y-62027636D02*
X63678636Y-62982231D01*
X62777075Y-62080670D01*
X63731670Y-61126075D01*
X64633231Y-62027636D01*
X64633231Y-62027636D01*
G37*
G36*
X83937231Y-62027636D02*
X82982636Y-62982231D01*
X82081075Y-62080670D01*
X83035670Y-61126075D01*
X83937231Y-62027636D01*
X83937231Y-62027636D01*
G37*
G36*
X67300231Y-62051364D02*
X66398670Y-62952925D01*
X65444075Y-61998330D01*
X66345636Y-61096769D01*
X67300231Y-62051364D01*
X67300231Y-62051364D01*
G37*
G36*
X80317731Y-60948136D02*
X79363136Y-61902731D01*
X78461575Y-61001170D01*
X79416170Y-60046575D01*
X80317731Y-60948136D01*
X80317731Y-60948136D01*
G37*
G36*
X68413925Y-60937670D02*
X67512364Y-61839231D01*
X66557769Y-60884636D01*
X67459330Y-59983075D01*
X68413925Y-60937670D01*
X68413925Y-60937670D01*
G37*
G36*
X66030231Y-60781364D02*
X65128670Y-61682925D01*
X64174075Y-60728330D01*
X65075636Y-59826769D01*
X66030231Y-60781364D01*
X66030231Y-60781364D01*
G37*
G36*
X60937000Y-61381000D02*
X59662000Y-61381000D01*
X59662000Y-60031000D01*
X60937000Y-60031000D01*
X60937000Y-61381000D01*
X60937000Y-61381000D01*
G37*
G36*
X58702000Y-61381000D02*
X57427000Y-61381000D01*
X57427000Y-60031000D01*
X58702000Y-60031000D01*
X58702000Y-61381000D01*
X58702000Y-61381000D01*
G37*
G36*
X57127000Y-61381000D02*
X55852000Y-61381000D01*
X55852000Y-60031000D01*
X57127000Y-60031000D01*
X57127000Y-61381000D01*
X57127000Y-61381000D01*
G37*
G36*
X62512000Y-61381000D02*
X61237000Y-61381000D01*
X61237000Y-60031000D01*
X62512000Y-60031000D01*
X62512000Y-61381000D01*
X62512000Y-61381000D01*
G37*
G36*
X67143925Y-59667670D02*
X66242364Y-60569231D01*
X65287769Y-59614636D01*
X66189330Y-58713075D01*
X67143925Y-59667670D01*
X67143925Y-59667670D01*
G37*
G36*
X83352500Y-60492000D02*
X82077500Y-60492000D01*
X82077500Y-59142000D01*
X83352500Y-59142000D01*
X83352500Y-60492000D01*
X83352500Y-60492000D01*
G37*
G36*
X84927500Y-60492000D02*
X83652500Y-60492000D01*
X83652500Y-59142000D01*
X84927500Y-59142000D01*
X84927500Y-60492000D01*
X84927500Y-60492000D01*
G37*
G36*
X57178000Y-59539500D02*
X55903000Y-59539500D01*
X55903000Y-58189500D01*
X57178000Y-58189500D01*
X57178000Y-59539500D01*
X57178000Y-59539500D01*
G37*
G36*
X55603000Y-59539500D02*
X54328000Y-59539500D01*
X54328000Y-58189500D01*
X55603000Y-58189500D01*
X55603000Y-59539500D01*
X55603000Y-59539500D01*
G37*
G36*
X60937000Y-59476000D02*
X59662000Y-59476000D01*
X59662000Y-58126000D01*
X60937000Y-58126000D01*
X60937000Y-59476000D01*
X60937000Y-59476000D01*
G37*
G36*
X62512000Y-59476000D02*
X61237000Y-59476000D01*
X61237000Y-58126000D01*
X62512000Y-58126000D01*
X62512000Y-59476000D01*
X62512000Y-59476000D01*
G37*
G36*
X85242000Y-58742000D02*
X83242000Y-58742000D01*
X83242000Y-56942000D01*
X85242000Y-56942000D01*
X85242000Y-58742000D01*
X85242000Y-58742000D01*
G37*
G36*
X81042000Y-58742000D02*
X79042000Y-58742000D01*
X79042000Y-56942000D01*
X81042000Y-56942000D01*
X81042000Y-58742000D01*
X81042000Y-58742000D01*
G37*
G36*
X58297243Y-55637383D02*
X58381615Y-55662977D01*
X58459373Y-55704540D01*
X58527527Y-55760473D01*
X58583460Y-55828627D01*
X58625023Y-55906385D01*
X58650617Y-55990757D01*
X58659500Y-56080954D01*
X58659500Y-57076046D01*
X58650617Y-57166243D01*
X58625023Y-57250615D01*
X58583460Y-57328373D01*
X58527527Y-57396527D01*
X58459373Y-57452460D01*
X58381615Y-57494023D01*
X58297243Y-57519617D01*
X58207046Y-57528500D01*
X55711954Y-57528500D01*
X55621757Y-57519617D01*
X55537385Y-57494023D01*
X55459627Y-57452460D01*
X55391473Y-57396527D01*
X55335540Y-57328373D01*
X55293977Y-57250615D01*
X55268383Y-57166243D01*
X55259500Y-57076046D01*
X55259500Y-56080954D01*
X55268383Y-55990757D01*
X55293977Y-55906385D01*
X55335540Y-55828627D01*
X55391473Y-55760473D01*
X55459627Y-55704540D01*
X55537385Y-55662977D01*
X55621757Y-55637383D01*
X55711954Y-55628500D01*
X58207046Y-55628500D01*
X58297243Y-55637383D01*
X58297243Y-55637383D01*
G37*
G36*
X81042000Y-56542000D02*
X79042000Y-56542000D01*
X79042000Y-54742000D01*
X81042000Y-54742000D01*
X81042000Y-56542000D01*
X81042000Y-56542000D01*
G37*
G36*
X85242000Y-56542000D02*
X83242000Y-56542000D01*
X83242000Y-54742000D01*
X85242000Y-54742000D01*
X85242000Y-56542000D01*
X85242000Y-56542000D01*
G37*
G36*
X66715000Y-56162000D02*
X65365000Y-56162000D01*
X65365000Y-54887000D01*
X66715000Y-54887000D01*
X66715000Y-56162000D01*
X66715000Y-56162000D01*
G37*
G36*
X72049000Y-56162000D02*
X70699000Y-56162000D01*
X70699000Y-54887000D01*
X72049000Y-54887000D01*
X72049000Y-56162000D01*
X72049000Y-56162000D01*
G37*
G36*
X64937000Y-56162000D02*
X63587000Y-56162000D01*
X63587000Y-54887000D01*
X64937000Y-54887000D01*
X64937000Y-56162000D01*
X64937000Y-56162000D01*
G37*
G36*
X68493000Y-56162000D02*
X67143000Y-56162000D01*
X67143000Y-54887000D01*
X68493000Y-54887000D01*
X68493000Y-56162000D01*
X68493000Y-56162000D01*
G37*
G36*
X70271000Y-56162000D02*
X68921000Y-56162000D01*
X68921000Y-54887000D01*
X70271000Y-54887000D01*
X70271000Y-56162000D01*
X70271000Y-56162000D01*
G37*
G36*
X77383000Y-56162000D02*
X76033000Y-56162000D01*
X76033000Y-54887000D01*
X77383000Y-54887000D01*
X77383000Y-56162000D01*
X77383000Y-56162000D01*
G37*
G36*
X75605000Y-56162000D02*
X74255000Y-56162000D01*
X74255000Y-54887000D01*
X75605000Y-54887000D01*
X75605000Y-56162000D01*
X75605000Y-56162000D01*
G37*
G36*
X73827000Y-56162000D02*
X72477000Y-56162000D01*
X72477000Y-54887000D01*
X73827000Y-54887000D01*
X73827000Y-56162000D01*
X73827000Y-56162000D01*
G37*
G36*
X75605000Y-54587000D02*
X74255000Y-54587000D01*
X74255000Y-53312000D01*
X75605000Y-53312000D01*
X75605000Y-54587000D01*
X75605000Y-54587000D01*
G37*
G36*
X77383000Y-54587000D02*
X76033000Y-54587000D01*
X76033000Y-53312000D01*
X77383000Y-53312000D01*
X77383000Y-54587000D01*
X77383000Y-54587000D01*
G37*
G36*
X73827000Y-54587000D02*
X72477000Y-54587000D01*
X72477000Y-53312000D01*
X73827000Y-53312000D01*
X73827000Y-54587000D01*
X73827000Y-54587000D01*
G37*
G36*
X72049000Y-54587000D02*
X70699000Y-54587000D01*
X70699000Y-53312000D01*
X72049000Y-53312000D01*
X72049000Y-54587000D01*
X72049000Y-54587000D01*
G37*
G36*
X68493000Y-54587000D02*
X67143000Y-54587000D01*
X67143000Y-53312000D01*
X68493000Y-53312000D01*
X68493000Y-54587000D01*
X68493000Y-54587000D01*
G37*
G36*
X66715000Y-54587000D02*
X65365000Y-54587000D01*
X65365000Y-53312000D01*
X66715000Y-53312000D01*
X66715000Y-54587000D01*
X66715000Y-54587000D01*
G37*
G36*
X64937000Y-54587000D02*
X63587000Y-54587000D01*
X63587000Y-53312000D01*
X64937000Y-53312000D01*
X64937000Y-54587000D01*
X64937000Y-54587000D01*
G37*
G36*
X70271000Y-54587000D02*
X68921000Y-54587000D01*
X68921000Y-53312000D01*
X70271000Y-53312000D01*
X70271000Y-54587000D01*
X70271000Y-54587000D01*
G37*
G36*
X58088102Y-53384021D02*
X58139645Y-53399656D01*
X58187148Y-53425047D01*
X58228784Y-53459216D01*
X58262953Y-53500852D01*
X58288344Y-53548355D01*
X58303979Y-53599898D01*
X58309500Y-53655954D01*
X58309500Y-54301046D01*
X58303979Y-54357102D01*
X58288344Y-54408645D01*
X58262953Y-54456148D01*
X58228784Y-54497784D01*
X58187148Y-54531953D01*
X58139645Y-54557344D01*
X58088102Y-54572979D01*
X58032046Y-54578500D01*
X55886954Y-54578500D01*
X55830898Y-54572979D01*
X55779355Y-54557344D01*
X55731852Y-54531953D01*
X55690216Y-54497784D01*
X55656047Y-54456148D01*
X55630656Y-54408645D01*
X55615021Y-54357102D01*
X55609500Y-54301046D01*
X55609500Y-53655954D01*
X55615021Y-53599898D01*
X55630656Y-53548355D01*
X55656047Y-53500852D01*
X55690216Y-53459216D01*
X55731852Y-53425047D01*
X55779355Y-53399656D01*
X55830898Y-53384021D01*
X55886954Y-53378500D01*
X58032046Y-53378500D01*
X58088102Y-53384021D01*
X58088102Y-53384021D01*
G37*
G36*
X62512000Y-54269000D02*
X61237000Y-54269000D01*
X61237000Y-52919000D01*
X62512000Y-52919000D01*
X62512000Y-54269000D01*
X62512000Y-54269000D01*
G37*
G36*
X60937000Y-54269000D02*
X59662000Y-54269000D01*
X59662000Y-52919000D01*
X60937000Y-52919000D01*
X60937000Y-54269000D01*
X60937000Y-54269000D01*
G37*
G36*
X84991000Y-54142000D02*
X83716000Y-54142000D01*
X83716000Y-52792000D01*
X84991000Y-52792000D01*
X84991000Y-54142000D01*
X84991000Y-54142000D01*
G37*
G36*
X83416000Y-54142000D02*
X82141000Y-54142000D01*
X82141000Y-52792000D01*
X83416000Y-52792000D01*
X83416000Y-54142000D01*
X83416000Y-54142000D01*
G37*
G36*
X57634500Y-50764500D02*
X56284500Y-50764500D01*
X56284500Y-49489500D01*
X57634500Y-49489500D01*
X57634500Y-50764500D01*
X57634500Y-50764500D01*
G37*
G36*
X55285000Y-50764500D02*
X53935000Y-50764500D01*
X53935000Y-49489500D01*
X55285000Y-49489500D01*
X55285000Y-50764500D01*
X55285000Y-50764500D01*
G37*
G36*
X80207000Y-50760000D02*
X59157000Y-50760000D01*
X59157000Y-47860000D01*
X80207000Y-47860000D01*
X80207000Y-50760000D01*
X80207000Y-50760000D01*
G37*
G36*
X84876000Y-50701000D02*
X83526000Y-50701000D01*
X83526000Y-49426000D01*
X84876000Y-49426000D01*
X84876000Y-50701000D01*
X84876000Y-50701000D01*
G37*
G36*
X82971000Y-50701000D02*
X81621000Y-50701000D01*
X81621000Y-49426000D01*
X82971000Y-49426000D01*
X82971000Y-50701000D01*
X82971000Y-50701000D01*
G37*
G36*
X57634500Y-49189500D02*
X56284500Y-49189500D01*
X56284500Y-47914500D01*
X57634500Y-47914500D01*
X57634500Y-49189500D01*
X57634500Y-49189500D01*
G37*
G36*
X55285000Y-49189500D02*
X53935000Y-49189500D01*
X53935000Y-47914500D01*
X55285000Y-47914500D01*
X55285000Y-49189500D01*
X55285000Y-49189500D01*
G37*
G36*
X84876000Y-49126000D02*
X83526000Y-49126000D01*
X83526000Y-47851000D01*
X84876000Y-47851000D01*
X84876000Y-49126000D01*
X84876000Y-49126000D01*
G37*
G36*
X82971000Y-49126000D02*
X81621000Y-49126000D01*
X81621000Y-47851000D01*
X82971000Y-47851000D01*
X82971000Y-49126000D01*
X82971000Y-49126000D01*
G37*
M02*
