G04 #@! TF.GenerationSoftware,KiCad,Pcbnew,5.0.2+dfsg1-1*
G04 #@! TF.CreationDate,2020-01-14T17:08:53+01:00*
G04 #@! TF.ProjectId,xling,786c696e-672e-46b6-9963-61645f706362,3.2*
G04 #@! TF.SameCoordinates,Original*
G04 #@! TF.FileFunction,Legend,Bot*
G04 #@! TF.FilePolarity,Positive*
%FSLAX46Y46*%
G04 Gerber Fmt 4.6, Leading zero omitted, Abs format (unit mm)*
G04 Created by KiCad (PCBNEW 5.0.2+dfsg1-1) date Tue 14 Jan 2020 17:08:53 CET*
%MOMM*%
%LPD*%
G01*
G04 APERTURE LIST*
%ADD10C,0.200000*%
%ADD11C,0.350000*%
%ADD12C,0.150000*%
%ADD13C,0.120000*%
G04 APERTURE END LIST*
D10*
X71323071Y-57791309D02*
X71208785Y-57829404D01*
X71018309Y-57829404D01*
X70942119Y-57791309D01*
X70904023Y-57753214D01*
X70865928Y-57677023D01*
X70865928Y-57600833D01*
X70904023Y-57524642D01*
X70942119Y-57486547D01*
X71018309Y-57448452D01*
X71170690Y-57410357D01*
X71246880Y-57372261D01*
X71284976Y-57334166D01*
X71323071Y-57257976D01*
X71323071Y-57181785D01*
X71284976Y-57105595D01*
X71246880Y-57067500D01*
X71170690Y-57029404D01*
X70980214Y-57029404D01*
X70865928Y-57067500D01*
X70065928Y-57753214D02*
X70104023Y-57791309D01*
X70218309Y-57829404D01*
X70294500Y-57829404D01*
X70408785Y-57791309D01*
X70484976Y-57715119D01*
X70523071Y-57638928D01*
X70561166Y-57486547D01*
X70561166Y-57372261D01*
X70523071Y-57219880D01*
X70484976Y-57143690D01*
X70408785Y-57067500D01*
X70294500Y-57029404D01*
X70218309Y-57029404D01*
X70104023Y-57067500D01*
X70065928Y-57105595D01*
X69723071Y-57829404D02*
X69723071Y-57029404D01*
X69265928Y-57829404D02*
X69608785Y-57372261D01*
X69265928Y-57029404D02*
X69723071Y-57486547D01*
X74536142Y-57829404D02*
X74536142Y-57029404D01*
X74269476Y-57600833D01*
X74002809Y-57029404D01*
X74002809Y-57829404D01*
X73469476Y-57029404D02*
X73317095Y-57029404D01*
X73240904Y-57067500D01*
X73164714Y-57143690D01*
X73126619Y-57296071D01*
X73126619Y-57562738D01*
X73164714Y-57715119D01*
X73240904Y-57791309D01*
X73317095Y-57829404D01*
X73469476Y-57829404D01*
X73545666Y-57791309D01*
X73621857Y-57715119D01*
X73659952Y-57562738D01*
X73659952Y-57296071D01*
X73621857Y-57143690D01*
X73545666Y-57067500D01*
X73469476Y-57029404D01*
X72821857Y-57791309D02*
X72707571Y-57829404D01*
X72517095Y-57829404D01*
X72440904Y-57791309D01*
X72402809Y-57753214D01*
X72364714Y-57677023D01*
X72364714Y-57600833D01*
X72402809Y-57524642D01*
X72440904Y-57486547D01*
X72517095Y-57448452D01*
X72669476Y-57410357D01*
X72745666Y-57372261D01*
X72783761Y-57334166D01*
X72821857Y-57257976D01*
X72821857Y-57181785D01*
X72783761Y-57105595D01*
X72745666Y-57067500D01*
X72669476Y-57029404D01*
X72479000Y-57029404D01*
X72364714Y-57067500D01*
X72021857Y-57829404D02*
X72021857Y-57029404D01*
X59728023Y-51225404D02*
X59728023Y-50425404D01*
X59537547Y-50425404D01*
X59423261Y-50463500D01*
X59347071Y-50539690D01*
X59308976Y-50615880D01*
X59270880Y-50768261D01*
X59270880Y-50882547D01*
X59308976Y-51034928D01*
X59347071Y-51111119D01*
X59423261Y-51187309D01*
X59537547Y-51225404D01*
X59728023Y-51225404D01*
X58470880Y-51149214D02*
X58508976Y-51187309D01*
X58623261Y-51225404D01*
X58699452Y-51225404D01*
X58813738Y-51187309D01*
X58889928Y-51111119D01*
X58928023Y-51034928D01*
X58966119Y-50882547D01*
X58966119Y-50768261D01*
X58928023Y-50615880D01*
X58889928Y-50539690D01*
X58813738Y-50463500D01*
X58699452Y-50425404D01*
X58623261Y-50425404D01*
X58508976Y-50463500D01*
X58470880Y-50501595D01*
X62795095Y-51225404D02*
X63061761Y-50844452D01*
X63252238Y-51225404D02*
X63252238Y-50425404D01*
X62947476Y-50425404D01*
X62871285Y-50463500D01*
X62833190Y-50501595D01*
X62795095Y-50577785D01*
X62795095Y-50692071D01*
X62833190Y-50768261D01*
X62871285Y-50806357D01*
X62947476Y-50844452D01*
X63252238Y-50844452D01*
X62490333Y-51187309D02*
X62376047Y-51225404D01*
X62185571Y-51225404D01*
X62109380Y-51187309D01*
X62071285Y-51149214D01*
X62033190Y-51073023D01*
X62033190Y-50996833D01*
X62071285Y-50920642D01*
X62109380Y-50882547D01*
X62185571Y-50844452D01*
X62337952Y-50806357D01*
X62414142Y-50768261D01*
X62452238Y-50730166D01*
X62490333Y-50653976D01*
X62490333Y-50577785D01*
X62452238Y-50501595D01*
X62414142Y-50463500D01*
X62337952Y-50425404D01*
X62147476Y-50425404D01*
X62033190Y-50463500D01*
X61804619Y-50425404D02*
X61347476Y-50425404D01*
X61576047Y-51225404D02*
X61576047Y-50425404D01*
X65665333Y-51149214D02*
X65703428Y-51187309D01*
X65817714Y-51225404D01*
X65893904Y-51225404D01*
X66008190Y-51187309D01*
X66084380Y-51111119D01*
X66122476Y-51034928D01*
X66160571Y-50882547D01*
X66160571Y-50768261D01*
X66122476Y-50615880D01*
X66084380Y-50539690D01*
X66008190Y-50463500D01*
X65893904Y-50425404D01*
X65817714Y-50425404D01*
X65703428Y-50463500D01*
X65665333Y-50501595D01*
X65360571Y-51187309D02*
X65246285Y-51225404D01*
X65055809Y-51225404D01*
X64979619Y-51187309D01*
X64941523Y-51149214D01*
X64903428Y-51073023D01*
X64903428Y-50996833D01*
X64941523Y-50920642D01*
X64979619Y-50882547D01*
X65055809Y-50844452D01*
X65208190Y-50806357D01*
X65284380Y-50768261D01*
X65322476Y-50730166D01*
X65360571Y-50653976D01*
X65360571Y-50577785D01*
X65322476Y-50501595D01*
X65284380Y-50463500D01*
X65208190Y-50425404D01*
X65017714Y-50425404D01*
X64903428Y-50463500D01*
X56940285Y-55187904D02*
X56673619Y-55987904D01*
X56406952Y-55187904D01*
X55873619Y-55568857D02*
X55759333Y-55606952D01*
X55721238Y-55645047D01*
X55683142Y-55721238D01*
X55683142Y-55835523D01*
X55721238Y-55911714D01*
X55759333Y-55949809D01*
X55835523Y-55987904D01*
X56140285Y-55987904D01*
X56140285Y-55187904D01*
X55873619Y-55187904D01*
X55797428Y-55226000D01*
X55759333Y-55264095D01*
X55721238Y-55340285D01*
X55721238Y-55416476D01*
X55759333Y-55492666D01*
X55797428Y-55530761D01*
X55873619Y-55568857D01*
X56140285Y-55568857D01*
X55378380Y-55759333D02*
X54997428Y-55759333D01*
X55454571Y-55987904D02*
X55187904Y-55187904D01*
X54921238Y-55987904D01*
X54768857Y-55187904D02*
X54311714Y-55187904D01*
X54540285Y-55987904D02*
X54540285Y-55187904D01*
X59537523Y-55226000D02*
X59613714Y-55187904D01*
X59728000Y-55187904D01*
X59842285Y-55226000D01*
X59918476Y-55302190D01*
X59956571Y-55378380D01*
X59994666Y-55530761D01*
X59994666Y-55645047D01*
X59956571Y-55797428D01*
X59918476Y-55873619D01*
X59842285Y-55949809D01*
X59728000Y-55987904D01*
X59651809Y-55987904D01*
X59537523Y-55949809D01*
X59499428Y-55911714D01*
X59499428Y-55645047D01*
X59651809Y-55645047D01*
X59156571Y-55987904D02*
X59156571Y-55187904D01*
X58699428Y-55987904D01*
X58699428Y-55187904D01*
X58318476Y-55987904D02*
X58318476Y-55187904D01*
X58128000Y-55187904D01*
X58013714Y-55226000D01*
X57937523Y-55302190D01*
X57899428Y-55378380D01*
X57861333Y-55530761D01*
X57861333Y-55645047D01*
X57899428Y-55797428D01*
X57937523Y-55873619D01*
X58013714Y-55949809D01*
X58128000Y-55987904D01*
X58318476Y-55987904D01*
X64020500Y-55683142D02*
X63410976Y-55683142D01*
X63715738Y-55987904D02*
X63715738Y-55378380D01*
X63106214Y-55187904D02*
X62610976Y-55187904D01*
X62877642Y-55492666D01*
X62763357Y-55492666D01*
X62687166Y-55530761D01*
X62649071Y-55568857D01*
X62610976Y-55645047D01*
X62610976Y-55835523D01*
X62649071Y-55911714D01*
X62687166Y-55949809D01*
X62763357Y-55987904D01*
X62991928Y-55987904D01*
X63068119Y-55949809D01*
X63106214Y-55911714D01*
X62268119Y-55911714D02*
X62230023Y-55949809D01*
X62268119Y-55987904D01*
X62306214Y-55949809D01*
X62268119Y-55911714D01*
X62268119Y-55987904D01*
X61963357Y-55187904D02*
X61468119Y-55187904D01*
X61734785Y-55492666D01*
X61620500Y-55492666D01*
X61544309Y-55530761D01*
X61506214Y-55568857D01*
X61468119Y-55645047D01*
X61468119Y-55835523D01*
X61506214Y-55911714D01*
X61544309Y-55949809D01*
X61620500Y-55987904D01*
X61849071Y-55987904D01*
X61925261Y-55949809D01*
X61963357Y-55911714D01*
X61239547Y-55187904D02*
X60972880Y-55987904D01*
X60706214Y-55187904D01*
X84102833Y-51647880D02*
X84102833Y-51124071D01*
X84150452Y-51028833D01*
X84245690Y-50981214D01*
X84436166Y-50981214D01*
X84531404Y-51028833D01*
X84102833Y-51600261D02*
X84198071Y-51647880D01*
X84436166Y-51647880D01*
X84531404Y-51600261D01*
X84579023Y-51505023D01*
X84579023Y-51409785D01*
X84531404Y-51314547D01*
X84436166Y-51266928D01*
X84198071Y-51266928D01*
X84102833Y-51219309D01*
X83007595Y-50981214D02*
X82626642Y-50981214D01*
X82864738Y-50647880D02*
X82864738Y-51505023D01*
X82817119Y-51600261D01*
X82721880Y-51647880D01*
X82626642Y-51647880D01*
X81864738Y-51647880D02*
X81864738Y-51124071D01*
X81912357Y-51028833D01*
X82007595Y-50981214D01*
X82198071Y-50981214D01*
X82293309Y-51028833D01*
X81864738Y-51600261D02*
X81959976Y-51647880D01*
X82198071Y-51647880D01*
X82293309Y-51600261D01*
X82340928Y-51505023D01*
X82340928Y-51409785D01*
X82293309Y-51314547D01*
X82198071Y-51266928D01*
X81959976Y-51266928D01*
X81864738Y-51219309D01*
X81388547Y-51647880D02*
X81388547Y-50981214D01*
X81388547Y-51076452D02*
X81340928Y-51028833D01*
X81245690Y-50981214D01*
X81102833Y-50981214D01*
X81007595Y-51028833D01*
X80959976Y-51124071D01*
X80959976Y-51647880D01*
X80959976Y-51124071D02*
X80912357Y-51028833D01*
X80817119Y-50981214D01*
X80674261Y-50981214D01*
X80579023Y-51028833D01*
X80531404Y-51124071D01*
X80531404Y-51647880D01*
X79626642Y-51647880D02*
X79626642Y-51124071D01*
X79674261Y-51028833D01*
X79769500Y-50981214D01*
X79959976Y-50981214D01*
X80055214Y-51028833D01*
X79626642Y-51600261D02*
X79721880Y-51647880D01*
X79959976Y-51647880D01*
X80055214Y-51600261D01*
X80102833Y-51505023D01*
X80102833Y-51409785D01*
X80055214Y-51314547D01*
X79959976Y-51266928D01*
X79721880Y-51266928D01*
X79626642Y-51219309D01*
X78721880Y-50981214D02*
X78721880Y-51790738D01*
X78769500Y-51885976D01*
X78817119Y-51933595D01*
X78912357Y-51981214D01*
X79055214Y-51981214D01*
X79150452Y-51933595D01*
X78721880Y-51600261D02*
X78817119Y-51647880D01*
X79007595Y-51647880D01*
X79102833Y-51600261D01*
X79150452Y-51552642D01*
X79198071Y-51457404D01*
X79198071Y-51171690D01*
X79150452Y-51076452D01*
X79102833Y-51028833D01*
X79007595Y-50981214D01*
X78817119Y-50981214D01*
X78721880Y-51028833D01*
X78102833Y-51647880D02*
X78198071Y-51600261D01*
X78245690Y-51552642D01*
X78293309Y-51457404D01*
X78293309Y-51171690D01*
X78245690Y-51076452D01*
X78198071Y-51028833D01*
X78102833Y-50981214D01*
X77959976Y-50981214D01*
X77864738Y-51028833D01*
X77817119Y-51076452D01*
X77769500Y-51171690D01*
X77769500Y-51457404D01*
X77817119Y-51552642D01*
X77864738Y-51600261D01*
X77959976Y-51647880D01*
X78102833Y-51647880D01*
X77483785Y-50981214D02*
X77102833Y-50981214D01*
X77340928Y-50647880D02*
X77340928Y-51505023D01*
X77293309Y-51600261D01*
X77198071Y-51647880D01*
X77102833Y-51647880D01*
X76340928Y-51600261D02*
X76436166Y-51647880D01*
X76626642Y-51647880D01*
X76721880Y-51600261D01*
X76769500Y-51552642D01*
X76817119Y-51457404D01*
X76817119Y-51171690D01*
X76769500Y-51076452D01*
X76721880Y-51028833D01*
X76626642Y-50981214D01*
X76436166Y-50981214D01*
X76340928Y-51028833D01*
X75912357Y-51647880D02*
X75912357Y-50647880D01*
X75483785Y-51647880D02*
X75483785Y-51124071D01*
X75531404Y-51028833D01*
X75626642Y-50981214D01*
X75769500Y-50981214D01*
X75864738Y-51028833D01*
X75912357Y-51076452D01*
X75007595Y-51647880D02*
X75007595Y-50981214D01*
X75007595Y-50647880D02*
X75055214Y-50695500D01*
X75007595Y-50743119D01*
X74959976Y-50695500D01*
X75007595Y-50647880D01*
X75007595Y-50743119D01*
X74531404Y-51266928D02*
X73769500Y-51266928D01*
X73150452Y-51647880D02*
X73245690Y-51600261D01*
X73293309Y-51505023D01*
X73293309Y-50647880D01*
X72769500Y-51647880D02*
X72769500Y-50981214D01*
X72769500Y-50647880D02*
X72817119Y-50695500D01*
X72769500Y-50743119D01*
X72721880Y-50695500D01*
X72769500Y-50647880D01*
X72769500Y-50743119D01*
X72293309Y-51647880D02*
X72293309Y-50647880D01*
X72198071Y-51266928D02*
X71912357Y-51647880D01*
X71912357Y-50981214D02*
X72293309Y-51362166D01*
X71102833Y-51600261D02*
X71198071Y-51647880D01*
X71388547Y-51647880D01*
X71483785Y-51600261D01*
X71531404Y-51505023D01*
X71531404Y-51124071D01*
X71483785Y-51028833D01*
X71388547Y-50981214D01*
X71198071Y-50981214D01*
X71102833Y-51028833D01*
X71055214Y-51124071D01*
X71055214Y-51219309D01*
X71531404Y-51314547D01*
X70007595Y-50981214D02*
X69626642Y-50981214D01*
X69864738Y-50647880D02*
X69864738Y-51505023D01*
X69817119Y-51600261D01*
X69721880Y-51647880D01*
X69626642Y-51647880D01*
X69150452Y-51647880D02*
X69245690Y-51600261D01*
X69293309Y-51552642D01*
X69340928Y-51457404D01*
X69340928Y-51171690D01*
X69293309Y-51076452D01*
X69245690Y-51028833D01*
X69150452Y-50981214D01*
X69007595Y-50981214D01*
X68912357Y-51028833D01*
X68864738Y-51076452D01*
X68817119Y-51171690D01*
X68817119Y-51457404D01*
X68864738Y-51552642D01*
X68912357Y-51600261D01*
X69007595Y-51647880D01*
X69150452Y-51647880D01*
X68483785Y-50981214D02*
X68245690Y-51647880D01*
X68007595Y-50981214D02*
X68245690Y-51647880D01*
X68340928Y-51885976D01*
X68388547Y-51933595D01*
X68483785Y-51981214D01*
X84245690Y-53728833D02*
X84293309Y-53681214D01*
X84388547Y-53538357D01*
X84436166Y-53443119D01*
X84483785Y-53300261D01*
X84531404Y-53062166D01*
X84531404Y-52871690D01*
X84483785Y-52633595D01*
X84436166Y-52490738D01*
X84388547Y-52395500D01*
X84293309Y-52252642D01*
X84245690Y-52205023D01*
X83436166Y-53300261D02*
X83531404Y-53347880D01*
X83721880Y-53347880D01*
X83817119Y-53300261D01*
X83864738Y-53252642D01*
X83912357Y-53157404D01*
X83912357Y-52871690D01*
X83864738Y-52776452D01*
X83817119Y-52728833D01*
X83721880Y-52681214D01*
X83531404Y-52681214D01*
X83436166Y-52728833D01*
X83102833Y-53728833D02*
X83055214Y-53681214D01*
X82959976Y-53538357D01*
X82912357Y-53443119D01*
X82864738Y-53300261D01*
X82817119Y-53062166D01*
X82817119Y-52871690D01*
X82864738Y-52633595D01*
X82912357Y-52490738D01*
X82959976Y-52395500D01*
X83055214Y-52252642D01*
X83102833Y-52205023D01*
X81388547Y-52347880D02*
X81293309Y-52347880D01*
X81198071Y-52395500D01*
X81150452Y-52443119D01*
X81102833Y-52538357D01*
X81055214Y-52728833D01*
X81055214Y-52966928D01*
X81102833Y-53157404D01*
X81150452Y-53252642D01*
X81198071Y-53300261D01*
X81293309Y-53347880D01*
X81388547Y-53347880D01*
X81483785Y-53300261D01*
X81531404Y-53252642D01*
X81579023Y-53157404D01*
X81626642Y-52966928D01*
X81626642Y-52728833D01*
X81579023Y-52538357D01*
X81531404Y-52443119D01*
X81483785Y-52395500D01*
X81388547Y-52347880D01*
X80102833Y-53347880D02*
X80674261Y-53347880D01*
X80388547Y-53347880D02*
X80388547Y-52347880D01*
X80483785Y-52490738D01*
X80579023Y-52585976D01*
X80674261Y-52633595D01*
X79674261Y-53252642D02*
X79626642Y-53300261D01*
X79674261Y-53347880D01*
X79721880Y-53300261D01*
X79674261Y-53252642D01*
X79674261Y-53347880D01*
X79245690Y-52443119D02*
X79198071Y-52395500D01*
X79102833Y-52347880D01*
X78864738Y-52347880D01*
X78769500Y-52395500D01*
X78721880Y-52443119D01*
X78674261Y-52538357D01*
X78674261Y-52633595D01*
X78721880Y-52776452D01*
X79293309Y-53347880D01*
X78674261Y-53347880D01*
X78055214Y-52347880D02*
X77959976Y-52347880D01*
X77864738Y-52395500D01*
X77817119Y-52443119D01*
X77769500Y-52538357D01*
X77721880Y-52728833D01*
X77721880Y-52966928D01*
X77769500Y-53157404D01*
X77817119Y-53252642D01*
X77864738Y-53300261D01*
X77959976Y-53347880D01*
X78055214Y-53347880D01*
X78150452Y-53300261D01*
X78198071Y-53252642D01*
X78245690Y-53157404D01*
X78293309Y-52966928D01*
X78293309Y-52728833D01*
X78245690Y-52538357D01*
X78198071Y-52443119D01*
X78150452Y-52395500D01*
X78055214Y-52347880D01*
X77340928Y-52443119D02*
X77293309Y-52395500D01*
X77198071Y-52347880D01*
X76959976Y-52347880D01*
X76864738Y-52395500D01*
X76817119Y-52443119D01*
X76769500Y-52538357D01*
X76769500Y-52633595D01*
X76817119Y-52776452D01*
X77388547Y-53347880D01*
X76769500Y-53347880D01*
X76150452Y-52347880D02*
X76055214Y-52347880D01*
X75959976Y-52395500D01*
X75912357Y-52443119D01*
X75864738Y-52538357D01*
X75817119Y-52728833D01*
X75817119Y-52966928D01*
X75864738Y-53157404D01*
X75912357Y-53252642D01*
X75959976Y-53300261D01*
X76055214Y-53347880D01*
X76150452Y-53347880D01*
X76245690Y-53300261D01*
X76293309Y-53252642D01*
X76340928Y-53157404D01*
X76388547Y-52966928D01*
X76388547Y-52728833D01*
X76340928Y-52538357D01*
X76293309Y-52443119D01*
X76245690Y-52395500D01*
X76150452Y-52347880D01*
X74198071Y-53347880D02*
X74198071Y-52347880D01*
X74198071Y-53300261D02*
X74293309Y-53347880D01*
X74483785Y-53347880D01*
X74579023Y-53300261D01*
X74626642Y-53252642D01*
X74674261Y-53157404D01*
X74674261Y-52871690D01*
X74626642Y-52776452D01*
X74579023Y-52728833D01*
X74483785Y-52681214D01*
X74293309Y-52681214D01*
X74198071Y-52728833D01*
X73769500Y-53300261D02*
X73674261Y-53347880D01*
X73483785Y-53347880D01*
X73388547Y-53300261D01*
X73340928Y-53205023D01*
X73340928Y-53157404D01*
X73388547Y-53062166D01*
X73483785Y-53014547D01*
X73626642Y-53014547D01*
X73721880Y-52966928D01*
X73769500Y-52871690D01*
X73769500Y-52824071D01*
X73721880Y-52728833D01*
X73626642Y-52681214D01*
X73483785Y-52681214D01*
X73388547Y-52728833D01*
X72769500Y-53347880D02*
X72864738Y-53300261D01*
X72912357Y-53205023D01*
X72912357Y-52347880D01*
X83959976Y-54952642D02*
X84007595Y-55000261D01*
X84150452Y-55047880D01*
X84245690Y-55047880D01*
X84388547Y-55000261D01*
X84483785Y-54905023D01*
X84531404Y-54809785D01*
X84579023Y-54619309D01*
X84579023Y-54476452D01*
X84531404Y-54285976D01*
X84483785Y-54190738D01*
X84388547Y-54095500D01*
X84245690Y-54047880D01*
X84150452Y-54047880D01*
X84007595Y-54095500D01*
X83959976Y-54143119D01*
X82959976Y-54952642D02*
X83007595Y-55000261D01*
X83150452Y-55047880D01*
X83245690Y-55047880D01*
X83388547Y-55000261D01*
X83483785Y-54905023D01*
X83531404Y-54809785D01*
X83579023Y-54619309D01*
X83579023Y-54476452D01*
X83531404Y-54285976D01*
X83483785Y-54190738D01*
X83388547Y-54095500D01*
X83245690Y-54047880D01*
X83150452Y-54047880D01*
X83007595Y-54095500D01*
X82959976Y-54143119D01*
X82531404Y-54666928D02*
X81769500Y-54666928D01*
X80959976Y-54524071D02*
X80817119Y-54571690D01*
X80769500Y-54619309D01*
X80721880Y-54714547D01*
X80721880Y-54857404D01*
X80769500Y-54952642D01*
X80817119Y-55000261D01*
X80912357Y-55047880D01*
X81293309Y-55047880D01*
X81293309Y-54047880D01*
X80959976Y-54047880D01*
X80864738Y-54095500D01*
X80817119Y-54143119D01*
X80769500Y-54238357D01*
X80769500Y-54333595D01*
X80817119Y-54428833D01*
X80864738Y-54476452D01*
X80959976Y-54524071D01*
X81293309Y-54524071D01*
X80102833Y-54571690D02*
X80102833Y-55047880D01*
X80436166Y-54047880D02*
X80102833Y-54571690D01*
X79769500Y-54047880D01*
X79436166Y-54666928D02*
X78674261Y-54666928D01*
X78245690Y-55000261D02*
X78102833Y-55047880D01*
X77864738Y-55047880D01*
X77769500Y-55000261D01*
X77721880Y-54952642D01*
X77674261Y-54857404D01*
X77674261Y-54762166D01*
X77721880Y-54666928D01*
X77769500Y-54619309D01*
X77864738Y-54571690D01*
X78055214Y-54524071D01*
X78150452Y-54476452D01*
X78198071Y-54428833D01*
X78245690Y-54333595D01*
X78245690Y-54238357D01*
X78198071Y-54143119D01*
X78150452Y-54095500D01*
X78055214Y-54047880D01*
X77817119Y-54047880D01*
X77674261Y-54095500D01*
X77293309Y-54762166D02*
X76817119Y-54762166D01*
X77388547Y-55047880D02*
X77055214Y-54047880D01*
X76721880Y-55047880D01*
D11*
X84337071Y-47854523D02*
X83070404Y-49754523D01*
X83070404Y-47854523D02*
X84337071Y-49754523D01*
X81441833Y-49754523D02*
X82346595Y-49754523D01*
X82346595Y-47854523D01*
X80808500Y-49754523D02*
X80808500Y-47854523D01*
X79903738Y-49754523D02*
X79903738Y-47854523D01*
X78818023Y-49754523D01*
X78818023Y-47854523D01*
X76918023Y-47945000D02*
X77098976Y-47854523D01*
X77370404Y-47854523D01*
X77641833Y-47945000D01*
X77822785Y-48125952D01*
X77913261Y-48306904D01*
X78003738Y-48668809D01*
X78003738Y-48940238D01*
X77913261Y-49302142D01*
X77822785Y-49483095D01*
X77641833Y-49664047D01*
X77370404Y-49754523D01*
X77189452Y-49754523D01*
X76918023Y-49664047D01*
X76827547Y-49573571D01*
X76827547Y-48940238D01*
X77189452Y-48940238D01*
X74746595Y-48487857D02*
X74294214Y-49754523D01*
X73841833Y-48487857D01*
X73298976Y-47854523D02*
X72122785Y-47854523D01*
X72756119Y-48578333D01*
X72484690Y-48578333D01*
X72303738Y-48668809D01*
X72213261Y-48759285D01*
X72122785Y-48940238D01*
X72122785Y-49392619D01*
X72213261Y-49573571D01*
X72303738Y-49664047D01*
X72484690Y-49754523D01*
X73027547Y-49754523D01*
X73208500Y-49664047D01*
X73298976Y-49573571D01*
X71308500Y-49573571D02*
X71218023Y-49664047D01*
X71308500Y-49754523D01*
X71398976Y-49664047D01*
X71308500Y-49573571D01*
X71308500Y-49754523D01*
X70494214Y-48035476D02*
X70403738Y-47945000D01*
X70222785Y-47854523D01*
X69770404Y-47854523D01*
X69589452Y-47945000D01*
X69498976Y-48035476D01*
X69408500Y-48216428D01*
X69408500Y-48397380D01*
X69498976Y-48668809D01*
X70584690Y-49754523D01*
X69408500Y-49754523D01*
D12*
G04 #@! TO.C,SW1*
X80600000Y-74700000D02*
G75*
G03X80600000Y-74700000I-1700000J0D01*
G01*
D13*
X77300000Y-72250000D02*
X80500000Y-72250000D01*
X77300000Y-77150000D02*
X80500000Y-77150000D01*
X81500000Y-75850000D02*
X81500000Y-73550000D01*
X76300000Y-75850000D02*
X76300000Y-73550000D01*
D12*
G04 #@! TO.C,SW2*
X71382000Y-76200000D02*
G75*
G03X71382000Y-76200000I-1700000J0D01*
G01*
D13*
X68082000Y-73750000D02*
X71282000Y-73750000D01*
X68082000Y-78650000D02*
X71282000Y-78650000D01*
X72282000Y-77350000D02*
X72282000Y-75050000D01*
X67082000Y-77350000D02*
X67082000Y-75050000D01*
D12*
G04 #@! TO.C,SW3*
X62200000Y-74700000D02*
G75*
G03X62200000Y-74700000I-1700000J0D01*
G01*
D13*
X58900000Y-72250000D02*
X62100000Y-72250000D01*
X58900000Y-77150000D02*
X62100000Y-77150000D01*
X63100000Y-75850000D02*
X63100000Y-73550000D01*
X57900000Y-75850000D02*
X57900000Y-73550000D01*
G04 #@! TO.C,TP1*
X63430000Y-53213000D02*
G75*
G03X63430000Y-53213000I-1200000J0D01*
G01*
G04 #@! TO.C,TP2*
X56889500Y-53276500D02*
G75*
G03X56889500Y-53276500I-1200000J0D01*
G01*
G04 #@! TO.C,TP5*
X60128000Y-53213000D02*
G75*
G03X60128000Y-53213000I-1200000J0D01*
G01*
G04 #@! TO.C,TP3*
X71494500Y-55435500D02*
G75*
G03X71494500Y-55435500I-1200000J0D01*
G01*
G04 #@! TO.C,TP4*
X74352000Y-55372000D02*
G75*
G03X74352000Y-55372000I-1200000J0D01*
G01*
G04 #@! TO.C,TP6*
X66732000Y-48577500D02*
G75*
G03X66732000Y-48577500I-1200000J0D01*
G01*
G04 #@! TO.C,TP7*
X60318500Y-48577500D02*
G75*
G03X60318500Y-48577500I-1200000J0D01*
G01*
G04 #@! TO.C,TP8*
X63557000Y-48577500D02*
G75*
G03X63557000Y-48577500I-1200000J0D01*
G01*
G04 #@! TO.C,SW1*
D12*
X79833333Y-78159333D02*
X79733333Y-78192666D01*
X79566666Y-78192666D01*
X79500000Y-78159333D01*
X79466666Y-78126000D01*
X79433333Y-78059333D01*
X79433333Y-77992666D01*
X79466666Y-77926000D01*
X79500000Y-77892666D01*
X79566666Y-77859333D01*
X79700000Y-77826000D01*
X79766666Y-77792666D01*
X79800000Y-77759333D01*
X79833333Y-77692666D01*
X79833333Y-77626000D01*
X79800000Y-77559333D01*
X79766666Y-77526000D01*
X79700000Y-77492666D01*
X79533333Y-77492666D01*
X79433333Y-77526000D01*
X79200000Y-77492666D02*
X79033333Y-78192666D01*
X78900000Y-77692666D01*
X78766666Y-78192666D01*
X78600000Y-77492666D01*
X77966666Y-78192666D02*
X78366666Y-78192666D01*
X78166666Y-78192666D02*
X78166666Y-77492666D01*
X78233333Y-77592666D01*
X78300000Y-77659333D01*
X78366666Y-77692666D01*
G04 #@! TO.C,SW2*
X70615333Y-79633333D02*
X70515333Y-79666666D01*
X70348666Y-79666666D01*
X70282000Y-79633333D01*
X70248666Y-79600000D01*
X70215333Y-79533333D01*
X70215333Y-79466666D01*
X70248666Y-79400000D01*
X70282000Y-79366666D01*
X70348666Y-79333333D01*
X70482000Y-79300000D01*
X70548666Y-79266666D01*
X70582000Y-79233333D01*
X70615333Y-79166666D01*
X70615333Y-79100000D01*
X70582000Y-79033333D01*
X70548666Y-79000000D01*
X70482000Y-78966666D01*
X70315333Y-78966666D01*
X70215333Y-79000000D01*
X69982000Y-78966666D02*
X69815333Y-79666666D01*
X69682000Y-79166666D01*
X69548666Y-79666666D01*
X69382000Y-78966666D01*
X69148666Y-79033333D02*
X69115333Y-79000000D01*
X69048666Y-78966666D01*
X68882000Y-78966666D01*
X68815333Y-79000000D01*
X68782000Y-79033333D01*
X68748666Y-79100000D01*
X68748666Y-79166666D01*
X68782000Y-79266666D01*
X69182000Y-79666666D01*
X68748666Y-79666666D01*
G04 #@! TO.C,SW3*
X61433333Y-78136333D02*
X61333333Y-78169666D01*
X61166666Y-78169666D01*
X61100000Y-78136333D01*
X61066666Y-78103000D01*
X61033333Y-78036333D01*
X61033333Y-77969666D01*
X61066666Y-77903000D01*
X61100000Y-77869666D01*
X61166666Y-77836333D01*
X61300000Y-77803000D01*
X61366666Y-77769666D01*
X61400000Y-77736333D01*
X61433333Y-77669666D01*
X61433333Y-77603000D01*
X61400000Y-77536333D01*
X61366666Y-77503000D01*
X61300000Y-77469666D01*
X61133333Y-77469666D01*
X61033333Y-77503000D01*
X60800000Y-77469666D02*
X60633333Y-78169666D01*
X60500000Y-77669666D01*
X60366666Y-78169666D01*
X60200000Y-77469666D01*
X60000000Y-77469666D02*
X59566666Y-77469666D01*
X59800000Y-77736333D01*
X59700000Y-77736333D01*
X59633333Y-77769666D01*
X59600000Y-77803000D01*
X59566666Y-77869666D01*
X59566666Y-78036333D01*
X59600000Y-78103000D01*
X59633333Y-78136333D01*
X59700000Y-78169666D01*
X59900000Y-78169666D01*
X59966666Y-78136333D01*
X60000000Y-78103000D01*
G04 #@! TD*
M02*
