G04 #@! TF.GenerationSoftware,KiCad,Pcbnew,5.1.9*
G04 #@! TF.CreationDate,2021-04-02T18:31:15+02:00*
G04 #@! TF.ProjectId,xling,786c696e-672e-46b6-9963-61645f706362,4.1*
G04 #@! TF.SameCoordinates,Original*
G04 #@! TF.FileFunction,Copper,L1,Top*
G04 #@! TF.FilePolarity,Positive*
%FSLAX46Y46*%
G04 Gerber Fmt 4.6, Leading zero omitted, Abs format (unit mm)*
G04 Created by KiCad (PCBNEW 5.1.9) date 2021-04-02 18:31:15*
%MOMM*%
%LPD*%
G01*
G04 APERTURE LIST*
G04 #@! TA.AperFunction,SMDPad,CuDef*
%ADD10C,1.000000*%
G04 #@! TD*
G04 #@! TA.AperFunction,SMDPad,CuDef*
%ADD11C,0.500000*%
G04 #@! TD*
G04 #@! TA.AperFunction,SMDPad,CuDef*
%ADD12R,1.500000X1.000000*%
G04 #@! TD*
G04 #@! TA.AperFunction,SMDPad,CuDef*
%ADD13R,0.600000X1.100000*%
G04 #@! TD*
G04 #@! TA.AperFunction,SMDPad,CuDef*
%ADD14R,1.000000X0.700000*%
G04 #@! TD*
G04 #@! TA.AperFunction,SMDPad,CuDef*
%ADD15C,0.100000*%
G04 #@! TD*
G04 #@! TA.AperFunction,SMDPad,CuDef*
%ADD16R,1.200000X0.900000*%
G04 #@! TD*
G04 #@! TA.AperFunction,SMDPad,CuDef*
%ADD17R,0.875000X0.950000*%
G04 #@! TD*
G04 #@! TA.AperFunction,SMDPad,CuDef*
%ADD18R,1.250000X2.650000*%
G04 #@! TD*
G04 #@! TA.AperFunction,SMDPad,CuDef*
%ADD19R,0.950000X0.875000*%
G04 #@! TD*
G04 #@! TA.AperFunction,SMDPad,CuDef*
%ADD20R,0.350000X2.500000*%
G04 #@! TD*
G04 #@! TA.AperFunction,SMDPad,CuDef*
%ADD21R,1.600000X1.400000*%
G04 #@! TD*
G04 #@! TA.AperFunction,SMDPad,CuDef*
%ADD22R,1.250000X1.800000*%
G04 #@! TD*
G04 #@! TA.AperFunction,SMDPad,CuDef*
%ADD23R,0.600000X1.000000*%
G04 #@! TD*
G04 #@! TA.AperFunction,SMDPad,CuDef*
%ADD24R,1.200000X1.900000*%
G04 #@! TD*
G04 #@! TA.AperFunction,ComponentPad*
%ADD25O,1.200000X1.900000*%
G04 #@! TD*
G04 #@! TA.AperFunction,SMDPad,CuDef*
%ADD26R,1.500000X1.900000*%
G04 #@! TD*
G04 #@! TA.AperFunction,ComponentPad*
%ADD27C,1.450000*%
G04 #@! TD*
G04 #@! TA.AperFunction,SMDPad,CuDef*
%ADD28R,0.400000X1.350000*%
G04 #@! TD*
G04 #@! TA.AperFunction,ViaPad*
%ADD29C,0.700000*%
G04 #@! TD*
G04 #@! TA.AperFunction,Conductor*
%ADD30C,0.600000*%
G04 #@! TD*
G04 #@! TA.AperFunction,Conductor*
%ADD31C,0.200000*%
G04 #@! TD*
G04 #@! TA.AperFunction,Conductor*
%ADD32C,0.400000*%
G04 #@! TD*
G04 #@! TA.AperFunction,Conductor*
%ADD33C,0.350000*%
G04 #@! TD*
G04 APERTURE END LIST*
D10*
X61379100Y-52285900D03*
D11*
X77520800Y-74447400D03*
X59334400Y-57404000D03*
X59842400Y-66065400D03*
X55245000Y-75158600D03*
X66649600Y-69392800D03*
X65862200Y-68834000D03*
X67233800Y-56642000D03*
X68961000Y-56972200D03*
X64592200Y-57353200D03*
X75031600Y-75133200D03*
X70662800Y-56972200D03*
X53492400Y-73863200D03*
X74244200Y-75742800D03*
G04 #@! TA.AperFunction,SMDPad,CuDef*
G36*
G01*
X55442000Y-55631000D02*
X57842000Y-55631000D01*
G75*
G02*
X58142000Y-55931000I0J-300000D01*
G01*
X58142000Y-56531000D01*
G75*
G02*
X57842000Y-56831000I-300000J0D01*
G01*
X55442000Y-56831000D01*
G75*
G02*
X55142000Y-56531000I0J300000D01*
G01*
X55142000Y-55931000D01*
G75*
G02*
X55442000Y-55631000I300000J0D01*
G01*
G37*
G04 #@! TD.AperFunction*
G04 #@! TA.AperFunction,SMDPad,CuDef*
G36*
G01*
X55442000Y-53091000D02*
X57842000Y-53091000D01*
G75*
G02*
X58142000Y-53391000I0J-300000D01*
G01*
X58142000Y-53991000D01*
G75*
G02*
X57842000Y-54291000I-300000J0D01*
G01*
X55442000Y-54291000D01*
G75*
G02*
X55142000Y-53991000I0J300000D01*
G01*
X55142000Y-53391000D01*
G75*
G02*
X55442000Y-53091000I300000J0D01*
G01*
G37*
G04 #@! TD.AperFunction*
D12*
X85509100Y-80769700D03*
X85509100Y-82069700D03*
G04 #@! TA.AperFunction,SMDPad,CuDef*
G36*
G01*
X55025200Y-72520200D02*
X55025200Y-72920200D01*
G75*
G02*
X54825200Y-73120200I-200000J0D01*
G01*
X54325200Y-73120200D01*
G75*
G02*
X54125200Y-72920200I0J200000D01*
G01*
X54125200Y-72520200D01*
G75*
G02*
X54325200Y-72320200I200000J0D01*
G01*
X54825200Y-72320200D01*
G75*
G02*
X55025200Y-72520200I0J-200000D01*
G01*
G37*
G04 #@! TD.AperFunction*
G04 #@! TA.AperFunction,SMDPad,CuDef*
G36*
G01*
X57025200Y-71570200D02*
X57025200Y-71970200D01*
G75*
G02*
X56825200Y-72170200I-200000J0D01*
G01*
X56325200Y-72170200D01*
G75*
G02*
X56125200Y-71970200I0J200000D01*
G01*
X56125200Y-71570200D01*
G75*
G02*
X56325200Y-71370200I200000J0D01*
G01*
X56825200Y-71370200D01*
G75*
G02*
X57025200Y-71570200I0J-200000D01*
G01*
G37*
G04 #@! TD.AperFunction*
G04 #@! TA.AperFunction,SMDPad,CuDef*
G36*
G01*
X57025200Y-73470200D02*
X57025200Y-73870200D01*
G75*
G02*
X56825200Y-74070200I-200000J0D01*
G01*
X56325200Y-74070200D01*
G75*
G02*
X56125200Y-73870200I0J200000D01*
G01*
X56125200Y-73470200D01*
G75*
G02*
X56325200Y-73270200I200000J0D01*
G01*
X56825200Y-73270200D01*
G75*
G02*
X57025200Y-73470200I0J-200000D01*
G01*
G37*
G04 #@! TD.AperFunction*
D13*
X61534000Y-75010000D03*
X61534000Y-72210000D03*
X62484000Y-72210000D03*
X63434000Y-72210000D03*
X63434000Y-75010000D03*
D14*
X58757500Y-63754000D03*
X58757500Y-62804000D03*
X58757500Y-64704000D03*
X56558500Y-64704000D03*
X56558500Y-63754000D03*
X56558500Y-62804000D03*
G04 #@! TA.AperFunction,SMDPad,CuDef*
D15*
G36*
X72539794Y-72174152D02*
G01*
X72928702Y-72563060D01*
X71868042Y-73623720D01*
X71479134Y-73234812D01*
X72539794Y-72174152D01*
G37*
G04 #@! TD.AperFunction*
G04 #@! TA.AperFunction,SMDPad,CuDef*
G36*
X71974109Y-71608466D02*
G01*
X72363017Y-71997374D01*
X71302357Y-73058034D01*
X70913449Y-72669126D01*
X71974109Y-71608466D01*
G37*
G04 #@! TD.AperFunction*
G04 #@! TA.AperFunction,SMDPad,CuDef*
G36*
X71408424Y-71042781D02*
G01*
X71797332Y-71431689D01*
X70736672Y-72492349D01*
X70347764Y-72103441D01*
X71408424Y-71042781D01*
G37*
G04 #@! TD.AperFunction*
G04 #@! TA.AperFunction,SMDPad,CuDef*
G36*
X70842738Y-70477096D02*
G01*
X71231646Y-70866004D01*
X70170986Y-71926664D01*
X69782078Y-71537756D01*
X70842738Y-70477096D01*
G37*
G04 #@! TD.AperFunction*
G04 #@! TA.AperFunction,SMDPad,CuDef*
G36*
X70277053Y-69911410D02*
G01*
X70665961Y-70300318D01*
X69605301Y-71360978D01*
X69216393Y-70972070D01*
X70277053Y-69911410D01*
G37*
G04 #@! TD.AperFunction*
G04 #@! TA.AperFunction,SMDPad,CuDef*
G36*
X69711367Y-69345725D02*
G01*
X70100275Y-69734633D01*
X69039615Y-70795293D01*
X68650707Y-70406385D01*
X69711367Y-69345725D01*
G37*
G04 #@! TD.AperFunction*
G04 #@! TA.AperFunction,SMDPad,CuDef*
G36*
X69145682Y-68780039D02*
G01*
X69534590Y-69168947D01*
X68473930Y-70229607D01*
X68085022Y-69840699D01*
X69145682Y-68780039D01*
G37*
G04 #@! TD.AperFunction*
G04 #@! TA.AperFunction,SMDPad,CuDef*
G36*
X68579996Y-68214354D02*
G01*
X68968904Y-68603262D01*
X67908244Y-69663922D01*
X67519336Y-69275014D01*
X68579996Y-68214354D01*
G37*
G04 #@! TD.AperFunction*
G04 #@! TA.AperFunction,SMDPad,CuDef*
G36*
X68014311Y-67648668D02*
G01*
X68403219Y-68037576D01*
X67342559Y-69098236D01*
X66953651Y-68709328D01*
X68014311Y-67648668D01*
G37*
G04 #@! TD.AperFunction*
G04 #@! TA.AperFunction,SMDPad,CuDef*
G36*
X67448626Y-67082983D02*
G01*
X67837534Y-67471891D01*
X66776874Y-68532551D01*
X66387966Y-68143643D01*
X67448626Y-67082983D01*
G37*
G04 #@! TD.AperFunction*
G04 #@! TA.AperFunction,SMDPad,CuDef*
G36*
X66882940Y-66517298D02*
G01*
X67271848Y-66906206D01*
X66211188Y-67966866D01*
X65822280Y-67577958D01*
X66882940Y-66517298D01*
G37*
G04 #@! TD.AperFunction*
G04 #@! TA.AperFunction,SMDPad,CuDef*
G36*
X67271848Y-65173794D02*
G01*
X66882940Y-65562702D01*
X65822280Y-64502042D01*
X66211188Y-64113134D01*
X67271848Y-65173794D01*
G37*
G04 #@! TD.AperFunction*
G04 #@! TA.AperFunction,SMDPad,CuDef*
G36*
X67837534Y-64608109D02*
G01*
X67448626Y-64997017D01*
X66387966Y-63936357D01*
X66776874Y-63547449D01*
X67837534Y-64608109D01*
G37*
G04 #@! TD.AperFunction*
G04 #@! TA.AperFunction,SMDPad,CuDef*
G36*
X68403219Y-64042424D02*
G01*
X68014311Y-64431332D01*
X66953651Y-63370672D01*
X67342559Y-62981764D01*
X68403219Y-64042424D01*
G37*
G04 #@! TD.AperFunction*
G04 #@! TA.AperFunction,SMDPad,CuDef*
G36*
X68968904Y-63476738D02*
G01*
X68579996Y-63865646D01*
X67519336Y-62804986D01*
X67908244Y-62416078D01*
X68968904Y-63476738D01*
G37*
G04 #@! TD.AperFunction*
G04 #@! TA.AperFunction,SMDPad,CuDef*
G36*
X69534590Y-62911053D02*
G01*
X69145682Y-63299961D01*
X68085022Y-62239301D01*
X68473930Y-61850393D01*
X69534590Y-62911053D01*
G37*
G04 #@! TD.AperFunction*
G04 #@! TA.AperFunction,SMDPad,CuDef*
G36*
X70100275Y-62345367D02*
G01*
X69711367Y-62734275D01*
X68650707Y-61673615D01*
X69039615Y-61284707D01*
X70100275Y-62345367D01*
G37*
G04 #@! TD.AperFunction*
G04 #@! TA.AperFunction,SMDPad,CuDef*
G36*
X70665961Y-61779682D02*
G01*
X70277053Y-62168590D01*
X69216393Y-61107930D01*
X69605301Y-60719022D01*
X70665961Y-61779682D01*
G37*
G04 #@! TD.AperFunction*
G04 #@! TA.AperFunction,SMDPad,CuDef*
G36*
X71231646Y-61213996D02*
G01*
X70842738Y-61602904D01*
X69782078Y-60542244D01*
X70170986Y-60153336D01*
X71231646Y-61213996D01*
G37*
G04 #@! TD.AperFunction*
G04 #@! TA.AperFunction,SMDPad,CuDef*
G36*
X71797332Y-60648311D02*
G01*
X71408424Y-61037219D01*
X70347764Y-59976559D01*
X70736672Y-59587651D01*
X71797332Y-60648311D01*
G37*
G04 #@! TD.AperFunction*
G04 #@! TA.AperFunction,SMDPad,CuDef*
G36*
X72363017Y-60082626D02*
G01*
X71974109Y-60471534D01*
X70913449Y-59410874D01*
X71302357Y-59021966D01*
X72363017Y-60082626D01*
G37*
G04 #@! TD.AperFunction*
G04 #@! TA.AperFunction,SMDPad,CuDef*
G36*
X72928702Y-59516940D02*
G01*
X72539794Y-59905848D01*
X71479134Y-58845188D01*
X71868042Y-58456280D01*
X72928702Y-59516940D01*
G37*
G04 #@! TD.AperFunction*
G04 #@! TA.AperFunction,SMDPad,CuDef*
G36*
X74943958Y-58456280D02*
G01*
X75332866Y-58845188D01*
X74272206Y-59905848D01*
X73883298Y-59516940D01*
X74943958Y-58456280D01*
G37*
G04 #@! TD.AperFunction*
G04 #@! TA.AperFunction,SMDPad,CuDef*
G36*
X75509643Y-59021966D02*
G01*
X75898551Y-59410874D01*
X74837891Y-60471534D01*
X74448983Y-60082626D01*
X75509643Y-59021966D01*
G37*
G04 #@! TD.AperFunction*
G04 #@! TA.AperFunction,SMDPad,CuDef*
G36*
X76075328Y-59587651D02*
G01*
X76464236Y-59976559D01*
X75403576Y-61037219D01*
X75014668Y-60648311D01*
X76075328Y-59587651D01*
G37*
G04 #@! TD.AperFunction*
G04 #@! TA.AperFunction,SMDPad,CuDef*
G36*
X76641014Y-60153336D02*
G01*
X77029922Y-60542244D01*
X75969262Y-61602904D01*
X75580354Y-61213996D01*
X76641014Y-60153336D01*
G37*
G04 #@! TD.AperFunction*
G04 #@! TA.AperFunction,SMDPad,CuDef*
G36*
X77206699Y-60719022D02*
G01*
X77595607Y-61107930D01*
X76534947Y-62168590D01*
X76146039Y-61779682D01*
X77206699Y-60719022D01*
G37*
G04 #@! TD.AperFunction*
G04 #@! TA.AperFunction,SMDPad,CuDef*
G36*
X77772385Y-61284707D02*
G01*
X78161293Y-61673615D01*
X77100633Y-62734275D01*
X76711725Y-62345367D01*
X77772385Y-61284707D01*
G37*
G04 #@! TD.AperFunction*
G04 #@! TA.AperFunction,SMDPad,CuDef*
G36*
X78338070Y-61850393D02*
G01*
X78726978Y-62239301D01*
X77666318Y-63299961D01*
X77277410Y-62911053D01*
X78338070Y-61850393D01*
G37*
G04 #@! TD.AperFunction*
G04 #@! TA.AperFunction,SMDPad,CuDef*
G36*
X78903756Y-62416078D02*
G01*
X79292664Y-62804986D01*
X78232004Y-63865646D01*
X77843096Y-63476738D01*
X78903756Y-62416078D01*
G37*
G04 #@! TD.AperFunction*
G04 #@! TA.AperFunction,SMDPad,CuDef*
G36*
X79469441Y-62981764D02*
G01*
X79858349Y-63370672D01*
X78797689Y-64431332D01*
X78408781Y-64042424D01*
X79469441Y-62981764D01*
G37*
G04 #@! TD.AperFunction*
G04 #@! TA.AperFunction,SMDPad,CuDef*
G36*
X80035126Y-63547449D02*
G01*
X80424034Y-63936357D01*
X79363374Y-64997017D01*
X78974466Y-64608109D01*
X80035126Y-63547449D01*
G37*
G04 #@! TD.AperFunction*
G04 #@! TA.AperFunction,SMDPad,CuDef*
G36*
X80600812Y-64113134D02*
G01*
X80989720Y-64502042D01*
X79929060Y-65562702D01*
X79540152Y-65173794D01*
X80600812Y-64113134D01*
G37*
G04 #@! TD.AperFunction*
G04 #@! TA.AperFunction,SMDPad,CuDef*
G36*
X80989720Y-67577958D02*
G01*
X80600812Y-67966866D01*
X79540152Y-66906206D01*
X79929060Y-66517298D01*
X80989720Y-67577958D01*
G37*
G04 #@! TD.AperFunction*
G04 #@! TA.AperFunction,SMDPad,CuDef*
G36*
X80424034Y-68143643D02*
G01*
X80035126Y-68532551D01*
X78974466Y-67471891D01*
X79363374Y-67082983D01*
X80424034Y-68143643D01*
G37*
G04 #@! TD.AperFunction*
G04 #@! TA.AperFunction,SMDPad,CuDef*
G36*
X79858349Y-68709328D02*
G01*
X79469441Y-69098236D01*
X78408781Y-68037576D01*
X78797689Y-67648668D01*
X79858349Y-68709328D01*
G37*
G04 #@! TD.AperFunction*
G04 #@! TA.AperFunction,SMDPad,CuDef*
G36*
X79292664Y-69275014D02*
G01*
X78903756Y-69663922D01*
X77843096Y-68603262D01*
X78232004Y-68214354D01*
X79292664Y-69275014D01*
G37*
G04 #@! TD.AperFunction*
G04 #@! TA.AperFunction,SMDPad,CuDef*
G36*
X78726978Y-69840699D02*
G01*
X78338070Y-70229607D01*
X77277410Y-69168947D01*
X77666318Y-68780039D01*
X78726978Y-69840699D01*
G37*
G04 #@! TD.AperFunction*
G04 #@! TA.AperFunction,SMDPad,CuDef*
G36*
X78161293Y-70406385D02*
G01*
X77772385Y-70795293D01*
X76711725Y-69734633D01*
X77100633Y-69345725D01*
X78161293Y-70406385D01*
G37*
G04 #@! TD.AperFunction*
G04 #@! TA.AperFunction,SMDPad,CuDef*
G36*
X77595607Y-70972070D02*
G01*
X77206699Y-71360978D01*
X76146039Y-70300318D01*
X76534947Y-69911410D01*
X77595607Y-70972070D01*
G37*
G04 #@! TD.AperFunction*
G04 #@! TA.AperFunction,SMDPad,CuDef*
G36*
X77029922Y-71537756D02*
G01*
X76641014Y-71926664D01*
X75580354Y-70866004D01*
X75969262Y-70477096D01*
X77029922Y-71537756D01*
G37*
G04 #@! TD.AperFunction*
G04 #@! TA.AperFunction,SMDPad,CuDef*
G36*
X76464236Y-72103441D02*
G01*
X76075328Y-72492349D01*
X75014668Y-71431689D01*
X75403576Y-71042781D01*
X76464236Y-72103441D01*
G37*
G04 #@! TD.AperFunction*
G04 #@! TA.AperFunction,SMDPad,CuDef*
G36*
X75898551Y-72669126D02*
G01*
X75509643Y-73058034D01*
X74448983Y-71997374D01*
X74837891Y-71608466D01*
X75898551Y-72669126D01*
G37*
G04 #@! TD.AperFunction*
G04 #@! TA.AperFunction,SMDPad,CuDef*
G36*
X75332866Y-73234812D02*
G01*
X74943958Y-73623720D01*
X73883298Y-72563060D01*
X74272206Y-72174152D01*
X75332866Y-73234812D01*
G37*
G04 #@! TD.AperFunction*
D16*
X58547000Y-75056000D03*
X58547000Y-71756000D03*
D17*
X63271500Y-77216000D03*
X61696500Y-77216000D03*
D18*
X55877000Y-80010000D03*
X58677000Y-80010000D03*
X58677000Y-83820000D03*
X55877000Y-83820000D03*
D19*
X67818000Y-53949500D03*
X67818000Y-55524500D03*
X66040000Y-53949500D03*
X66040000Y-55524500D03*
G04 #@! TA.AperFunction,SMDPad,CuDef*
D15*
G36*
X78537636Y-72555612D02*
G01*
X79209388Y-73227364D01*
X78590670Y-73846082D01*
X77918918Y-73174330D01*
X78537636Y-72555612D01*
G37*
G04 #@! TD.AperFunction*
G04 #@! TA.AperFunction,SMDPad,CuDef*
G36*
X79651330Y-71441918D02*
G01*
X80323082Y-72113670D01*
X79704364Y-72732388D01*
X79032612Y-72060636D01*
X79651330Y-71441918D01*
G37*
G04 #@! TD.AperFunction*
D19*
X76708000Y-53949500D03*
X76708000Y-55524500D03*
G04 #@! TA.AperFunction,SMDPad,CuDef*
D15*
G36*
X82093636Y-71539612D02*
G01*
X82765388Y-72211364D01*
X82146670Y-72830082D01*
X81474918Y-72158330D01*
X82093636Y-71539612D01*
G37*
G04 #@! TD.AperFunction*
G04 #@! TA.AperFunction,SMDPad,CuDef*
G36*
X83207330Y-70425918D02*
G01*
X83879082Y-71097670D01*
X83260364Y-71716388D01*
X82588612Y-71044636D01*
X83207330Y-70425918D01*
G37*
G04 #@! TD.AperFunction*
G04 #@! TA.AperFunction,SMDPad,CuDef*
G36*
X79807636Y-73825612D02*
G01*
X80479388Y-74497364D01*
X79860670Y-75116082D01*
X79188918Y-74444330D01*
X79807636Y-73825612D01*
G37*
G04 #@! TD.AperFunction*
G04 #@! TA.AperFunction,SMDPad,CuDef*
G36*
X80921330Y-72711918D02*
G01*
X81593082Y-73383670D01*
X80974364Y-74002388D01*
X80302612Y-73330636D01*
X80921330Y-72711918D01*
G37*
G04 #@! TD.AperFunction*
D17*
X67741700Y-74828400D03*
X69316700Y-74828400D03*
G04 #@! TA.AperFunction,SMDPad,CuDef*
D15*
G36*
X83477612Y-63194364D02*
G01*
X84149364Y-62522612D01*
X84768082Y-63141330D01*
X84096330Y-63813082D01*
X83477612Y-63194364D01*
G37*
G04 #@! TD.AperFunction*
G04 #@! TA.AperFunction,SMDPad,CuDef*
G36*
X82363918Y-62080670D02*
G01*
X83035670Y-61408918D01*
X83654388Y-62027636D01*
X82982636Y-62699388D01*
X82363918Y-62080670D01*
G37*
G04 #@! TD.AperFunction*
G04 #@! TA.AperFunction,SMDPad,CuDef*
G36*
X83363636Y-72809612D02*
G01*
X84035388Y-73481364D01*
X83416670Y-74100082D01*
X82744918Y-73428330D01*
X83363636Y-72809612D01*
G37*
G04 #@! TD.AperFunction*
G04 #@! TA.AperFunction,SMDPad,CuDef*
G36*
X84477330Y-71695918D02*
G01*
X85149082Y-72367670D01*
X84530364Y-72986388D01*
X83858612Y-72314636D01*
X84477330Y-71695918D01*
G37*
G04 #@! TD.AperFunction*
D17*
X69316500Y-76555600D03*
X70891500Y-76555600D03*
X58445500Y-67183000D03*
X56870500Y-67183000D03*
X61874500Y-58801000D03*
X60299500Y-58801000D03*
X60680500Y-64770000D03*
X62255500Y-64770000D03*
X62204500Y-68834000D03*
X63779500Y-68834000D03*
D19*
X65239900Y-76581100D03*
X65239900Y-75006100D03*
D17*
X62204500Y-67056000D03*
X63779500Y-67056000D03*
X58064500Y-60706000D03*
X56489500Y-60706000D03*
D19*
X71374000Y-53949500D03*
X71374000Y-55524500D03*
X74930000Y-53949500D03*
X74930000Y-55524500D03*
X64262000Y-53949500D03*
X64262000Y-55524500D03*
X73152000Y-53949500D03*
X73152000Y-55524500D03*
X69596000Y-53949500D03*
X69596000Y-55524500D03*
G04 #@! TA.AperFunction,SMDPad,CuDef*
D15*
G36*
X65075636Y-60109612D02*
G01*
X65747388Y-60781364D01*
X65128670Y-61400082D01*
X64456918Y-60728330D01*
X65075636Y-60109612D01*
G37*
G04 #@! TD.AperFunction*
G04 #@! TA.AperFunction,SMDPad,CuDef*
G36*
X66189330Y-58995918D02*
G01*
X66861082Y-59667670D01*
X66242364Y-60286388D01*
X65570612Y-59614636D01*
X66189330Y-58995918D01*
G37*
G04 #@! TD.AperFunction*
D19*
X82296000Y-50063500D03*
X82296000Y-48488500D03*
G04 #@! TA.AperFunction,SMDPad,CuDef*
D15*
G36*
X67983612Y-72655864D02*
G01*
X68655364Y-71984112D01*
X69274082Y-72602830D01*
X68602330Y-73274582D01*
X67983612Y-72655864D01*
G37*
G04 #@! TD.AperFunction*
G04 #@! TA.AperFunction,SMDPad,CuDef*
G36*
X66869918Y-71542170D02*
G01*
X67541670Y-70870418D01*
X68160388Y-71489136D01*
X67488636Y-72160888D01*
X66869918Y-71542170D01*
G37*
G04 #@! TD.AperFunction*
D17*
X82715000Y-59817000D03*
X84290000Y-59817000D03*
X84353500Y-53467000D03*
X82778500Y-53467000D03*
G04 #@! TA.AperFunction,SMDPad,CuDef*
D15*
G36*
X66345636Y-61379612D02*
G01*
X67017388Y-62051364D01*
X66398670Y-62670082D01*
X65726918Y-61998330D01*
X66345636Y-61379612D01*
G37*
G04 #@! TD.AperFunction*
G04 #@! TA.AperFunction,SMDPad,CuDef*
G36*
X67459330Y-60265918D02*
G01*
X68131082Y-60937670D01*
X67512364Y-61556388D01*
X66840612Y-60884636D01*
X67459330Y-60265918D01*
G37*
G04 #@! TD.AperFunction*
D19*
X56959500Y-48552000D03*
X56959500Y-50127000D03*
X54610000Y-48552000D03*
X54610000Y-50127000D03*
G04 #@! TA.AperFunction,SMDPad,CuDef*
D15*
G36*
X79858112Y-62114864D02*
G01*
X80529864Y-61443112D01*
X81148582Y-62061830D01*
X80476830Y-62733582D01*
X79858112Y-62114864D01*
G37*
G04 #@! TD.AperFunction*
G04 #@! TA.AperFunction,SMDPad,CuDef*
G36*
X78744418Y-61001170D02*
G01*
X79416170Y-60329418D01*
X80034888Y-60948136D01*
X79363136Y-61619888D01*
X78744418Y-61001170D01*
G37*
G04 #@! TD.AperFunction*
D19*
X84201000Y-50063500D03*
X84201000Y-48488500D03*
X83058000Y-75920500D03*
X83058000Y-77495500D03*
G04 #@! TA.AperFunction,SMDPad,CuDef*
D15*
G36*
X82207612Y-64464364D02*
G01*
X82879364Y-63792612D01*
X83498082Y-64411330D01*
X82826330Y-65083082D01*
X82207612Y-64464364D01*
G37*
G04 #@! TD.AperFunction*
G04 #@! TA.AperFunction,SMDPad,CuDef*
G36*
X81093918Y-63350670D02*
G01*
X81765670Y-62678918D01*
X82384388Y-63297636D01*
X81712636Y-63969388D01*
X81093918Y-63350670D01*
G37*
G04 #@! TD.AperFunction*
D19*
X85090000Y-67538500D03*
X85090000Y-69113500D03*
D17*
X69316500Y-78333600D03*
X70891500Y-78333600D03*
X60299500Y-60706000D03*
X61874500Y-60706000D03*
X58064500Y-58623200D03*
X56489500Y-58623200D03*
X57124500Y-77216000D03*
X58699500Y-77216000D03*
X56870500Y-68961000D03*
X58445500Y-68961000D03*
X61696500Y-78994000D03*
X63271500Y-78994000D03*
G04 #@! TA.AperFunction,SMDPad,CuDef*
D15*
G36*
X64173612Y-63194364D02*
G01*
X64845364Y-62522612D01*
X65464082Y-63141330D01*
X64792330Y-63813082D01*
X64173612Y-63194364D01*
G37*
G04 #@! TD.AperFunction*
G04 #@! TA.AperFunction,SMDPad,CuDef*
G36*
X63059918Y-62080670D02*
G01*
X63731670Y-61408918D01*
X64350388Y-62027636D01*
X63678636Y-62699388D01*
X63059918Y-62080670D01*
G37*
G04 #@! TD.AperFunction*
G04 #@! TA.AperFunction,SMDPad,CuDef*
G36*
X81990364Y-70446388D02*
G01*
X81318612Y-69774636D01*
X81937330Y-69155918D01*
X82609082Y-69827670D01*
X81990364Y-70446388D01*
G37*
G04 #@! TD.AperFunction*
G04 #@! TA.AperFunction,SMDPad,CuDef*
G36*
X80876670Y-71560082D02*
G01*
X80204918Y-70888330D01*
X80823636Y-70269612D01*
X81495388Y-70941364D01*
X80876670Y-71560082D01*
G37*
G04 #@! TD.AperFunction*
D17*
X60528100Y-55930800D03*
X62103100Y-55930800D03*
D20*
X79132000Y-49310000D03*
X79832000Y-49310000D03*
X72832000Y-49310000D03*
X77732000Y-49310000D03*
X78432000Y-49310000D03*
X77032000Y-49310000D03*
X76332000Y-49310000D03*
X75632000Y-49310000D03*
X74932000Y-49310000D03*
X74232000Y-49310000D03*
X73532000Y-49310000D03*
X72132000Y-49310000D03*
X71432000Y-49310000D03*
X70732000Y-49310000D03*
X70032000Y-49310000D03*
X69332000Y-49310000D03*
X67932000Y-49310000D03*
X68632000Y-49310000D03*
X67232000Y-49310000D03*
X66532000Y-49310000D03*
X65832000Y-49310000D03*
X65132000Y-49310000D03*
X64432000Y-49310000D03*
X63732000Y-49310000D03*
X63032000Y-49310000D03*
X62332000Y-49310000D03*
X61632000Y-49310000D03*
X60932000Y-49310000D03*
X60232000Y-49310000D03*
X59532000Y-49310000D03*
D21*
X84242000Y-55642000D03*
X80042000Y-55642000D03*
X80042000Y-57842000D03*
X84242000Y-57842000D03*
D22*
X70927000Y-84855000D03*
X83637000Y-84855000D03*
D23*
X73532000Y-79665000D03*
X75032000Y-79665000D03*
X76532000Y-79665000D03*
X78032000Y-79665000D03*
X79532000Y-79665000D03*
X81032000Y-79665000D03*
D24*
X61882000Y-84347500D03*
X67682000Y-84347500D03*
D25*
X68282000Y-84347500D03*
X61282000Y-84347500D03*
D26*
X63782000Y-84347500D03*
D27*
X67282000Y-81647500D03*
D28*
X64782000Y-81647500D03*
X65432000Y-81647500D03*
X66082000Y-81647500D03*
X63482000Y-81647500D03*
X64132000Y-81647500D03*
D27*
X62282000Y-81647500D03*
D26*
X65782000Y-84347500D03*
D29*
X72967585Y-70339215D03*
X74076308Y-69255892D03*
X74330000Y-52197000D03*
X75880010Y-52197000D03*
X60629800Y-75856001D03*
X60629800Y-74256000D03*
X84658200Y-61341000D03*
X70408800Y-63042800D03*
X76428600Y-69062600D03*
X75895200Y-62407800D03*
X70739000Y-69291200D03*
X57124600Y-78333600D03*
X62941200Y-62814200D03*
X66370200Y-76581000D03*
X84150200Y-75895200D03*
X85369400Y-50063400D03*
X76708000Y-56489600D03*
X81407000Y-55651400D03*
X81686400Y-53467000D03*
X82753200Y-69011800D03*
X83972400Y-67538600D03*
X81280000Y-61315600D03*
X82042000Y-65252600D03*
X61061600Y-67030600D03*
X64439800Y-47498000D03*
X65836800Y-47498000D03*
X72847200Y-47498000D03*
X79121000Y-51155600D03*
X69392800Y-73380600D03*
X53873400Y-53695600D03*
X79527400Y-80822800D03*
X69316600Y-79400400D03*
X56870600Y-70002400D03*
X55575200Y-63754000D03*
X58064400Y-57556400D03*
X55448200Y-60706000D03*
X62484000Y-71043800D03*
X60629800Y-78994000D03*
X66522600Y-46812200D03*
X67233800Y-47472600D03*
X73533000Y-46812200D03*
X74244200Y-47472600D03*
X74930000Y-46812200D03*
X75641200Y-47472600D03*
X76327000Y-46812200D03*
X59563000Y-52273200D03*
X85521800Y-83350100D03*
X67437000Y-78917800D03*
X72263000Y-78917800D03*
X84937600Y-75133200D03*
X83778756Y-74626808D03*
X55448200Y-73520200D03*
X55448200Y-71920200D03*
X84553500Y-65176035D03*
X85857009Y-66172009D03*
X77749400Y-76454000D03*
X81153000Y-77495400D03*
X59477000Y-78195365D03*
X63863252Y-76054762D03*
X62571400Y-80128705D03*
X64121968Y-80140178D03*
X59639200Y-75856000D03*
X59639200Y-74256000D03*
X83888166Y-80649666D03*
X83039636Y-79801136D03*
X83146160Y-68109360D03*
X82316836Y-66746636D03*
X73124924Y-58716146D03*
X73663160Y-60306770D03*
X66903600Y-54749500D03*
X66903600Y-53111400D03*
X65125600Y-54749500D03*
X65125600Y-53086000D03*
X64963600Y-71043509D03*
X63444035Y-70216801D03*
X71370562Y-53022400D03*
X71805800Y-51435000D03*
X68689177Y-54749500D03*
X68707000Y-53136800D03*
D30*
X61874500Y-60706000D02*
X61874500Y-58801000D01*
X58677000Y-83820000D02*
X58677000Y-77238500D01*
X67515153Y-70799476D02*
X67515153Y-71515653D01*
X68809806Y-69504823D02*
X67515153Y-70799476D01*
D31*
X79389653Y-60974653D02*
X79389653Y-60818347D01*
X67741700Y-74790900D02*
X67741700Y-74828400D01*
X76870823Y-70636194D02*
X78321782Y-72087153D01*
X78321782Y-72087153D02*
X79677847Y-72087153D01*
X79677847Y-74314541D02*
X79834153Y-74470847D01*
X79677847Y-72087153D02*
X79677847Y-74314541D01*
X79677847Y-72087153D02*
X80850153Y-70914847D01*
X80850153Y-70914847D02*
X82120153Y-72184847D01*
X79389653Y-60974653D02*
X79389653Y-60945347D01*
D30*
X61874500Y-58801000D02*
X61874500Y-57607100D01*
X61874500Y-57607100D02*
X62103000Y-57378600D01*
X62103000Y-57378600D02*
X62103000Y-56007000D01*
X64262000Y-53949500D02*
X69621300Y-53949500D01*
X71116369Y-68487999D02*
X72967585Y-70339215D01*
X69826630Y-68487999D02*
X71116369Y-68487999D01*
X68809806Y-69504823D02*
X69826630Y-68487999D01*
X75490521Y-69255892D02*
X74076308Y-69255892D01*
X76870823Y-70636194D02*
X75490521Y-69255892D01*
D31*
X73532000Y-73303400D02*
X73355200Y-73126600D01*
X73355200Y-70726830D02*
X72967585Y-70339215D01*
X73355200Y-73126600D02*
X73355200Y-70726830D01*
D30*
X75490521Y-63955479D02*
X75490521Y-69255892D01*
X77436509Y-62009491D02*
X75490521Y-63955479D01*
X62103100Y-54990900D02*
X62103100Y-55930800D01*
X63144500Y-53949500D02*
X62103100Y-54990900D01*
X64262000Y-53949500D02*
X63144500Y-53949500D01*
D32*
X73152000Y-53949500D02*
X73152000Y-53312000D01*
X69596000Y-53949500D02*
X69596000Y-53340000D01*
X72037000Y-52197000D02*
X73152000Y-53312000D01*
X70739000Y-52197000D02*
X72037000Y-52197000D01*
X70040500Y-52895500D02*
X70739000Y-52197000D01*
D31*
X70032000Y-52887000D02*
X70040500Y-52895500D01*
D33*
X70032000Y-49310000D02*
X70032000Y-52887000D01*
D32*
X69596000Y-53340000D02*
X70040500Y-52895500D01*
D31*
X70732000Y-52190000D02*
X70739000Y-52197000D01*
D33*
X70732000Y-49310000D02*
X70732000Y-52190000D01*
D31*
X63032000Y-53837000D02*
X63144500Y-53949500D01*
D33*
X63032000Y-49310000D02*
X63032000Y-53837000D01*
X65132000Y-49310000D02*
X65132000Y-51149200D01*
X65132000Y-51149200D02*
X64262000Y-52019200D01*
X64262000Y-53949500D02*
X64262000Y-52019200D01*
D32*
X72037000Y-52197000D02*
X74330000Y-52197000D01*
D30*
X78232000Y-53340000D02*
X77089000Y-52197000D01*
X78232000Y-59817000D02*
X78232000Y-53340000D01*
X77089000Y-52197000D02*
X75880010Y-52197000D01*
X79389653Y-60974653D02*
X78232000Y-59817000D01*
X78232000Y-61214000D02*
X78232000Y-59817000D01*
X77436509Y-62009491D02*
X78232000Y-61214000D01*
X58699500Y-77216000D02*
X59969400Y-77216000D01*
X60629800Y-76555600D02*
X60629800Y-75856001D01*
X59969400Y-77216000D02*
X60629800Y-76555600D01*
X60629800Y-74256000D02*
X61251200Y-73634600D01*
X67515153Y-71515653D02*
X65396206Y-73634600D01*
X65396206Y-73634600D02*
X61251200Y-73634600D01*
X65396206Y-73634600D02*
X67386200Y-73634600D01*
X67386200Y-73634600D02*
X67741800Y-73990200D01*
X67741800Y-73990200D02*
X67741800Y-74803000D01*
D31*
X73583800Y-75742800D02*
X73532000Y-75691000D01*
X74244200Y-75742800D02*
X73583800Y-75742800D01*
X73532000Y-75691000D02*
X73532000Y-73303400D01*
X73532000Y-79665000D02*
X73532000Y-75691000D01*
X84201000Y-50063500D02*
X84163500Y-50063500D01*
X76870823Y-61443806D02*
X76859194Y-61443806D01*
X80503347Y-62088347D02*
X80518000Y-62103000D01*
X84242000Y-57842000D02*
X84242000Y-59801400D01*
D30*
X61882000Y-84347500D02*
X67329500Y-84347500D01*
D32*
X66082000Y-81647500D02*
X66082000Y-84319200D01*
D31*
X84290000Y-60972800D02*
X84658200Y-61341000D01*
X84290000Y-59817000D02*
X84290000Y-60972800D01*
X69375491Y-62009491D02*
X70408800Y-63042800D01*
X77436509Y-70070509D02*
X76428600Y-69062600D01*
X76859194Y-61443806D02*
X75895200Y-62407800D01*
X70154800Y-69291200D02*
X70739000Y-69291200D01*
X69375491Y-70070509D02*
X70154800Y-69291200D01*
X57124500Y-78333500D02*
X57124600Y-78333600D01*
X57124500Y-77216000D02*
X57124500Y-78333500D01*
X65102153Y-60754847D02*
X66370200Y-62022894D01*
X63705153Y-62054153D02*
X65024000Y-60735306D01*
X63701247Y-62054153D02*
X62941200Y-62814200D01*
X63705153Y-62054153D02*
X63701247Y-62054153D01*
X66370100Y-76581100D02*
X66370200Y-76581000D01*
X65239900Y-76581100D02*
X66370100Y-76581100D01*
X84124900Y-75920500D02*
X84150200Y-75895200D01*
X83058000Y-75920500D02*
X84124900Y-75920500D01*
X82296000Y-50063500D02*
X84175500Y-50063500D01*
X85369300Y-50063500D02*
X85369400Y-50063400D01*
X84201000Y-50063500D02*
X85369300Y-50063500D01*
X76708000Y-55524500D02*
X76708000Y-56489600D01*
X81397600Y-55642000D02*
X81407000Y-55651400D01*
X80042000Y-55642000D02*
X81397600Y-55642000D01*
X82778500Y-53467000D02*
X81686400Y-53467000D01*
X81963847Y-69801153D02*
X82753200Y-69011800D01*
X83972500Y-67538500D02*
X83972400Y-67538600D01*
X85090000Y-67538500D02*
X83972500Y-67538500D01*
X80507253Y-62088347D02*
X81280000Y-61315600D01*
X80503347Y-62088347D02*
X80507253Y-62088347D01*
X82852847Y-64441753D02*
X82042000Y-65252600D01*
X82852847Y-64437847D02*
X82852847Y-64441753D01*
X61087000Y-67056000D02*
X61061600Y-67030600D01*
X62204500Y-67056000D02*
X61087000Y-67056000D01*
X64432000Y-47505800D02*
X64439800Y-47498000D01*
X64432000Y-49310000D02*
X64432000Y-47505800D01*
X65832000Y-47502800D02*
X65836800Y-47498000D01*
X65832000Y-49310000D02*
X65832000Y-47502800D01*
X72832000Y-47513200D02*
X72847200Y-47498000D01*
X72832000Y-49310000D02*
X72832000Y-47513200D01*
X79132000Y-51144600D02*
X79121000Y-51155600D01*
X79132000Y-49310000D02*
X79132000Y-51144600D01*
X68641547Y-72629347D02*
X69392800Y-73380600D01*
X68628847Y-72629347D02*
X68641547Y-72629347D01*
D30*
X56642000Y-53691000D02*
X59304400Y-53691000D01*
X59304400Y-53691000D02*
X60528200Y-54914800D01*
X60528200Y-54914800D02*
X60528200Y-55930800D01*
D31*
X53878000Y-53691000D02*
X53873400Y-53695600D01*
D30*
X56642000Y-53691000D02*
X53878000Y-53691000D01*
D31*
X79532000Y-80818200D02*
X79527400Y-80822800D01*
X79532000Y-79665000D02*
X79532000Y-80818200D01*
X69316500Y-79400300D02*
X69316600Y-79400400D01*
X69316500Y-78333600D02*
X69316500Y-79400300D01*
X56870500Y-70002300D02*
X56870600Y-70002400D01*
X56870500Y-68961000D02*
X56870500Y-70002300D01*
X56558500Y-63754000D02*
X55575200Y-63754000D01*
X58064500Y-57556500D02*
X58064400Y-57556400D01*
X58064500Y-58623200D02*
X58064500Y-57556500D01*
X56489500Y-60706000D02*
X55448200Y-60706000D01*
X62484000Y-72210000D02*
X62484000Y-71043800D01*
X61696500Y-77216000D02*
X61696500Y-78993900D01*
X61696500Y-78993900D02*
X61696600Y-78994000D01*
X61696500Y-78994000D02*
X60629800Y-78994000D01*
X66532000Y-46821600D02*
X66522600Y-46812200D01*
X66532000Y-49310000D02*
X66532000Y-46821600D01*
X67232000Y-47474400D02*
X67233800Y-47472600D01*
X67232000Y-49310000D02*
X67232000Y-47474400D01*
X73532000Y-46813200D02*
X73533000Y-46812200D01*
X73532000Y-49310000D02*
X73532000Y-46813200D01*
X74232000Y-47484800D02*
X74244200Y-47472600D01*
X74232000Y-49310000D02*
X74232000Y-47484800D01*
X74932000Y-46814200D02*
X74930000Y-46812200D01*
X74932000Y-49310000D02*
X74932000Y-46814200D01*
X75632000Y-47481800D02*
X75641200Y-47472600D01*
X75632000Y-49310000D02*
X75632000Y-47481800D01*
X76332000Y-46817200D02*
X76327000Y-46812200D01*
X76332000Y-49310000D02*
X76332000Y-46817200D01*
X59575700Y-52285900D02*
X59563000Y-52273200D01*
D30*
X61379100Y-52285900D02*
X59575700Y-52285900D01*
X61379100Y-54063900D02*
X60528200Y-54914800D01*
X61379100Y-52285900D02*
X61379100Y-54063900D01*
D31*
X85509100Y-83337400D02*
X85521800Y-83350100D01*
X85509100Y-82069700D02*
X85509100Y-83337400D01*
X84201000Y-48488500D02*
X84163500Y-48488500D01*
X78201010Y-46830490D02*
X77732000Y-47299500D01*
X83427000Y-47752000D02*
X81379488Y-47752000D01*
X84163500Y-48488500D02*
X83427000Y-47752000D01*
X81379488Y-47752000D02*
X80457978Y-46830490D01*
X77732000Y-47299500D02*
X77732000Y-49310000D01*
X80457978Y-46830490D02*
X78201010Y-46830490D01*
X81631694Y-74041000D02*
X80947847Y-73357153D01*
X82169000Y-74041000D02*
X81631694Y-74041000D01*
X82804000Y-74041000D02*
X83390153Y-73454847D01*
X82169000Y-74041000D02*
X82804000Y-74041000D01*
X71180399Y-80000401D02*
X72263000Y-78917800D01*
X68519601Y-80000401D02*
X71180399Y-80000401D01*
X67437000Y-78917800D02*
X68519601Y-80000401D01*
X83778756Y-74626808D02*
X83778756Y-73847356D01*
X83778756Y-73847356D02*
X83464400Y-73533000D01*
X84937600Y-76200000D02*
X84937600Y-75133200D01*
X72263000Y-79646002D02*
X72263000Y-78917800D01*
X74039799Y-81422801D02*
X72263000Y-79646002D01*
X84445401Y-79243901D02*
X82266501Y-81422801D01*
X82266501Y-81422801D02*
X74039799Y-81422801D01*
X84445401Y-76717599D02*
X84445401Y-79243901D01*
X84937600Y-76225400D02*
X84445401Y-76717599D01*
X84937600Y-76200000D02*
X84937600Y-76225400D01*
X62255500Y-64732500D02*
X62255500Y-64770000D01*
X61277000Y-63754000D02*
X62255500Y-64732500D01*
X58757500Y-63754000D02*
X61277000Y-63754000D01*
X81621000Y-48488500D02*
X80313000Y-47180500D01*
X82296000Y-48488500D02*
X81621000Y-48488500D01*
X80313000Y-47180500D02*
X78740000Y-47180500D01*
X78432000Y-47488500D02*
X78432000Y-49310000D01*
X78740000Y-47180500D02*
X78432000Y-47488500D01*
X80042000Y-57842000D02*
X80142000Y-57842000D01*
X81042000Y-57842000D02*
X80042000Y-57842000D01*
X82715000Y-59142000D02*
X81415000Y-57842000D01*
X81415000Y-57842000D02*
X81042000Y-57842000D01*
X82715000Y-59817000D02*
X82715000Y-59142000D01*
X80371824Y-69540178D02*
X79168920Y-69540178D01*
X84836000Y-65849500D02*
X84062502Y-65849500D01*
X79168920Y-69540178D02*
X78567880Y-68939138D01*
X85153500Y-65532000D02*
X84836000Y-65849500D01*
X84062502Y-65849500D02*
X80371824Y-69540178D01*
X85018092Y-64317092D02*
X85153500Y-64452500D01*
X85153500Y-64452500D02*
X85153500Y-65532000D01*
X82715000Y-60456016D02*
X85018092Y-62759108D01*
X82715000Y-59817000D02*
X82715000Y-60456016D01*
X85018092Y-62759108D02*
X85018092Y-64317092D01*
X67485847Y-61251218D02*
X67485847Y-60911153D01*
X68809806Y-62575177D02*
X67485847Y-61251218D01*
X57634500Y-48552000D02*
X58815500Y-47371000D01*
X56959500Y-48552000D02*
X57634500Y-48552000D01*
X58815500Y-47371000D02*
X60769500Y-47371000D01*
X60932000Y-47533500D02*
X60932000Y-49310000D01*
X60769500Y-47371000D02*
X60932000Y-47533500D01*
X60299500Y-58801000D02*
X60299500Y-60706000D01*
X60198000Y-60604500D02*
X60299500Y-60706000D01*
X58607500Y-62804000D02*
X58757500Y-62804000D01*
X58064500Y-60706000D02*
X58702000Y-60706000D01*
X58702000Y-60706000D02*
X60299500Y-60706000D01*
X58064500Y-60706000D02*
X58064500Y-61468100D01*
X58064500Y-61468100D02*
X58750200Y-62153800D01*
X58750200Y-62153800D02*
X58750200Y-62738000D01*
D30*
X56558500Y-64704000D02*
X56558500Y-65361500D01*
X56558500Y-65361500D02*
X56134000Y-65786000D01*
D31*
X55877000Y-83820000D02*
X55877000Y-83120000D01*
D30*
X55877000Y-83120000D02*
X54356000Y-81599000D01*
X54356000Y-81599000D02*
X54356000Y-76327000D01*
X54356000Y-74612400D02*
X55448200Y-73520200D01*
X54356000Y-76327000D02*
X54356000Y-74612400D01*
X55448200Y-66471800D02*
X55448200Y-71920200D01*
X56134000Y-65786000D02*
X55448200Y-66471800D01*
D31*
X76033000Y-53949500D02*
X75655001Y-53571501D01*
X76708000Y-53949500D02*
X76033000Y-53949500D01*
X75655001Y-53311999D02*
X75280010Y-52937008D01*
X75655001Y-53571501D02*
X75655001Y-53311999D01*
X75280010Y-52937008D02*
X75280010Y-51745390D01*
X77032000Y-50760000D02*
X76611000Y-51181000D01*
X77032000Y-49310000D02*
X77032000Y-50760000D01*
X75844400Y-51181000D02*
X75280010Y-51745390D01*
X76611000Y-51181000D02*
X75844400Y-51181000D01*
X84122847Y-64745382D02*
X84553500Y-65176035D01*
X84122847Y-63167847D02*
X84122847Y-64745382D01*
X84494849Y-71071153D02*
X85857009Y-69708993D01*
X85857009Y-69708993D02*
X85857009Y-66172009D01*
X83233847Y-71071153D02*
X84494849Y-71071153D01*
X78790800Y-77495400D02*
X77749400Y-76454000D01*
X81153000Y-77495400D02*
X78790800Y-77495400D01*
X81153000Y-76462998D02*
X81153000Y-77495400D01*
X82382999Y-75232999D02*
X81153000Y-76462998D01*
X84177401Y-75232999D02*
X82382999Y-75232999D01*
X84337599Y-75072801D02*
X84177401Y-75232999D01*
X84337599Y-74845199D02*
X84337599Y-75072801D01*
X85623400Y-73559398D02*
X84337599Y-74845199D01*
X85623400Y-72199704D02*
X85623400Y-73559398D01*
X84494849Y-71071153D02*
X85623400Y-72199704D01*
X69316500Y-74828600D02*
X69316700Y-74828400D01*
X69316500Y-76555600D02*
X69316500Y-74828600D01*
X60876503Y-80128705D02*
X62571400Y-80128705D01*
X59826999Y-78545364D02*
X59826999Y-79079201D01*
X59826999Y-79079201D02*
X60876503Y-80128705D01*
X59477000Y-78195365D02*
X59826999Y-78545364D01*
X64121968Y-76313478D02*
X63863252Y-76054762D01*
X64121968Y-80140178D02*
X64121968Y-76313478D01*
X67706546Y-76555600D02*
X64121968Y-80140178D01*
X69316500Y-76555600D02*
X67706546Y-76555600D01*
X57258500Y-62804000D02*
X57658000Y-63203500D01*
X56558500Y-62804000D02*
X57258500Y-62804000D01*
X57658000Y-63203500D02*
X57658000Y-65278000D01*
X56870500Y-66065500D02*
X56870500Y-67183000D01*
X57658000Y-65278000D02*
X56870500Y-66065500D01*
X63434000Y-75010000D02*
X65239900Y-75010000D01*
X68138524Y-59641153D02*
X69941177Y-61443806D01*
X66215847Y-59641153D02*
X68138524Y-59641153D01*
X66215847Y-59641153D02*
X66215847Y-59611847D01*
X55877000Y-80010000D02*
X55877000Y-79936800D01*
X55877000Y-77100998D02*
X56879598Y-76098400D01*
X55877000Y-80010000D02*
X55877000Y-77100998D01*
X63825601Y-69616801D02*
X64363600Y-70154800D01*
X64363600Y-70154800D02*
X64363600Y-72580402D01*
X65049400Y-59080400D02*
X62341199Y-61788601D01*
X62341199Y-63102201D02*
X63017400Y-63778402D01*
X63199799Y-69616801D02*
X63825601Y-69616801D01*
X63017400Y-63778402D02*
X63017400Y-69434402D01*
X62341199Y-61788601D02*
X62341199Y-63102201D01*
X63017400Y-69434402D02*
X63199799Y-69616801D01*
X65655094Y-59080400D02*
X65049400Y-59080400D01*
X66215847Y-59641153D02*
X65655094Y-59080400D01*
X59396800Y-76098400D02*
X59639200Y-75856000D01*
X56879598Y-76098400D02*
X59396800Y-76098400D01*
X64363600Y-72580402D02*
X63893602Y-73050400D01*
X63893602Y-73050400D02*
X60452000Y-73050400D01*
X59639200Y-73863200D02*
X59639200Y-74256000D01*
X60452000Y-73050400D02*
X59639200Y-73863200D01*
X84353500Y-55530500D02*
X84242000Y-55642000D01*
X84353500Y-53467000D02*
X84353500Y-55530500D01*
X80301127Y-70105863D02*
X78603234Y-70105863D01*
X78603234Y-70105863D02*
X78002194Y-69504823D01*
X84176490Y-66230500D02*
X80301127Y-70105863D01*
X84949988Y-66230500D02*
X84176490Y-66230500D01*
X85503510Y-65676978D02*
X84949988Y-66230500D01*
X84242000Y-55642000D02*
X84342000Y-55642000D01*
X84342000Y-55642000D02*
X85368102Y-56668102D01*
X85503510Y-64307522D02*
X85503510Y-65676978D01*
X85368102Y-56668102D02*
X85368102Y-64172114D01*
X85368102Y-64172114D02*
X85503510Y-64307522D01*
X57634500Y-50127000D02*
X58942500Y-51435000D01*
X56959500Y-50127000D02*
X57634500Y-50127000D01*
X58942500Y-51435000D02*
X60007500Y-51435000D01*
X60232000Y-51210500D02*
X60232000Y-49310000D01*
X60007500Y-51435000D02*
X60232000Y-51210500D01*
X54610000Y-48552000D02*
X54647500Y-48552000D01*
X54647500Y-48552000D02*
X56082500Y-47117000D01*
X58079524Y-47117000D02*
X58587524Y-46609000D01*
X56082500Y-47117000D02*
X58079524Y-47117000D01*
X58587524Y-46609000D02*
X61785500Y-46609000D01*
X62332000Y-47155500D02*
X62332000Y-49310000D01*
X61785500Y-46609000D02*
X62332000Y-47155500D01*
X54647500Y-50127000D02*
X54610000Y-50127000D01*
X55285000Y-50127000D02*
X55816500Y-49595500D01*
X54610000Y-50127000D02*
X55285000Y-50127000D01*
X55816500Y-49595500D02*
X55816500Y-48196500D01*
X55816500Y-48196500D02*
X56515000Y-47498000D01*
X56515000Y-47498000D02*
X58193512Y-47498000D01*
X58193512Y-47498000D02*
X58701512Y-46990000D01*
X58701512Y-46990000D02*
X61277500Y-46990000D01*
X61632000Y-47344500D02*
X61632000Y-49310000D01*
X61277500Y-46990000D02*
X61632000Y-47344500D01*
X78304105Y-73200847D02*
X78564153Y-73200847D01*
X76305138Y-71201880D02*
X78304105Y-73200847D01*
X81032000Y-79665000D02*
X82158400Y-79665000D01*
X83058000Y-77495500D02*
X83058000Y-78765400D01*
X76305138Y-71201880D02*
X77139800Y-72036542D01*
X77139800Y-72999600D02*
X76742030Y-73397370D01*
X77139800Y-72036542D02*
X77139800Y-72999600D01*
X77043790Y-77373990D02*
X77704190Y-77373990D01*
X76742030Y-77072230D02*
X77043790Y-77373990D01*
X76742030Y-76640430D02*
X76742030Y-77072230D01*
X77704190Y-77373990D02*
X78613000Y-78282800D01*
X78613000Y-78282800D02*
X80670400Y-78282800D01*
X80670400Y-78282800D02*
X81051400Y-78663800D01*
X81051400Y-78663800D02*
X81051400Y-79654400D01*
X77520800Y-74447400D02*
X76758800Y-74447400D01*
X76758800Y-74447400D02*
X76742030Y-74430630D01*
X76742030Y-74430630D02*
X76742030Y-76640430D01*
X76742030Y-73397370D02*
X76742030Y-74430630D01*
X84008200Y-80769700D02*
X83888166Y-80649666D01*
X85509100Y-80769700D02*
X84008200Y-80769700D01*
X83039636Y-78783764D02*
X83058000Y-78765400D01*
X82537300Y-79298800D02*
X82524600Y-79298800D01*
X83039636Y-79801136D02*
X82537300Y-79298800D01*
X82524600Y-79298800D02*
X82158400Y-79665000D01*
X83058000Y-78765400D02*
X82524600Y-79298800D01*
X83009153Y-62093701D02*
X83009153Y-62054153D01*
X80264936Y-64837918D02*
X83009153Y-62093701D01*
X82338602Y-71431008D02*
X82338602Y-70941078D01*
X83248747Y-72341153D02*
X82338602Y-71431008D01*
X82338602Y-70941078D02*
X84140880Y-69138800D01*
X84503847Y-72341153D02*
X83248747Y-72341153D01*
X84140880Y-69138800D02*
X85013800Y-69138800D01*
X80264936Y-67242082D02*
X80272282Y-67242082D01*
X80272282Y-67242082D02*
X81076800Y-68046600D01*
X84140880Y-69104080D02*
X83146160Y-68109360D01*
X84140880Y-69138800D02*
X84140880Y-69104080D01*
X81966837Y-67096635D02*
X81966837Y-67450177D01*
X82316836Y-66746636D02*
X81966837Y-67096635D01*
X81370414Y-68046600D02*
X81076800Y-68046600D01*
X81966837Y-67450177D02*
X81370414Y-68046600D01*
X70891500Y-78333600D02*
X70891500Y-76555600D01*
X70891500Y-75880600D02*
X70891500Y-76555600D01*
X70471508Y-75460608D02*
X70891500Y-75880600D01*
X70471508Y-72368605D02*
X70471508Y-75460608D01*
X71072548Y-71767565D02*
X70471508Y-72368605D01*
X75032000Y-78965000D02*
X75692000Y-78305000D01*
X75032000Y-79665000D02*
X75032000Y-78965000D01*
X75692000Y-73982854D02*
X74608082Y-72898936D01*
X75692000Y-75120500D02*
X75692000Y-73982854D01*
X75692000Y-78305000D02*
X75692000Y-75120500D01*
D30*
X73152000Y-55524500D02*
X74930000Y-55524500D01*
D31*
X73810950Y-70334051D02*
X73810950Y-72101804D01*
X73055990Y-69579091D02*
X73810950Y-70334051D01*
X73055990Y-60065410D02*
X73055990Y-69579091D01*
X73456800Y-59664600D02*
X73055990Y-60065410D01*
X73456800Y-59232800D02*
X73456800Y-59664600D01*
X73810950Y-72101804D02*
X74608082Y-72898936D01*
X73724925Y-58964675D02*
X73456800Y-59232800D01*
X73178712Y-55551212D02*
X73178712Y-57881932D01*
X73724925Y-58428145D02*
X73724925Y-58964675D01*
X73178712Y-57881932D02*
X73724925Y-58428145D01*
X73152000Y-55524500D02*
X73178712Y-55551212D01*
X75679300Y-75133200D02*
X75692000Y-75120500D01*
X75031600Y-75133200D02*
X75679300Y-75133200D01*
X76532000Y-78458800D02*
X76532000Y-78132200D01*
X76532000Y-78132200D02*
X76042010Y-77642210D01*
X76532000Y-78458800D02*
X76532000Y-79665000D01*
X76042010Y-77642210D02*
X76042010Y-73248010D01*
X76042010Y-73248010D02*
X75158600Y-72364600D01*
D30*
X69596000Y-55524500D02*
X71374000Y-55524500D01*
D31*
X71374000Y-56965222D02*
X73124924Y-58716146D01*
X71374000Y-55524500D02*
X71374000Y-56965222D01*
X73406000Y-60563930D02*
X73406000Y-69434113D01*
X73406000Y-69434113D02*
X75739452Y-71767565D01*
X73663160Y-60306770D02*
X73406000Y-60563930D01*
X76631800Y-77724000D02*
X76392020Y-77484220D01*
X76392020Y-77484220D02*
X76392020Y-72429620D01*
X76392020Y-72429620D02*
X75742800Y-71780400D01*
X77089000Y-77724000D02*
X78032000Y-78667000D01*
X76631800Y-77724000D02*
X77089000Y-77724000D01*
X78032000Y-78667000D02*
X78032000Y-79665000D01*
X71367022Y-56972200D02*
X71374000Y-56965222D01*
X70662800Y-56972200D02*
X71367022Y-56972200D01*
X69434113Y-58674000D02*
X71072548Y-60312435D01*
X68453000Y-58674000D02*
X69434113Y-58674000D01*
X66040000Y-55524500D02*
X66040000Y-56261000D01*
X66357500Y-56578500D02*
X66802000Y-57023000D01*
X66357500Y-56578500D02*
X68453000Y-58674000D01*
X66040000Y-56261000D02*
X66357500Y-56578500D01*
X66128600Y-55524500D02*
X66903600Y-54749500D01*
X66040000Y-55524500D02*
X66128600Y-55524500D01*
X68632000Y-49310000D02*
X68632000Y-49655800D01*
X68632000Y-51383000D02*
X66903600Y-53111400D01*
X68632000Y-49310000D02*
X68632000Y-51383000D01*
X66852800Y-57023000D02*
X66802000Y-57023000D01*
X67233800Y-56642000D02*
X66852800Y-57023000D01*
X67945000Y-49323000D02*
X67932000Y-49310000D01*
X64262000Y-56162000D02*
X64262000Y-55524500D01*
X70506862Y-60878120D02*
X68652752Y-59024010D01*
X68652752Y-59024010D02*
X67406010Y-59024010D01*
X64615000Y-56515000D02*
X64262000Y-56162000D01*
X64897000Y-56515000D02*
X64615000Y-56515000D01*
X65214500Y-56832500D02*
X65405000Y-57023000D01*
X65214500Y-56832500D02*
X64897000Y-56515000D01*
X67406010Y-59024010D02*
X65214500Y-56832500D01*
X64350600Y-55524500D02*
X65125600Y-54749500D01*
X64262000Y-55524500D02*
X64350600Y-55524500D01*
X67932000Y-51016200D02*
X67932000Y-49310000D01*
X65862200Y-53086000D02*
X67932000Y-51016200D01*
X65125600Y-53086000D02*
X65862200Y-53086000D01*
X64592200Y-56537800D02*
X64615000Y-56515000D01*
X64592200Y-57353200D02*
X64592200Y-56537800D01*
X64955146Y-68834000D02*
X66547064Y-67242082D01*
X63779500Y-68834000D02*
X64955146Y-68834000D01*
X63779500Y-68834000D02*
X63779500Y-67056000D01*
X63779500Y-67056000D02*
X63779500Y-64896900D01*
X64818847Y-63167847D02*
X63779400Y-64207294D01*
X63779400Y-64896800D02*
X63779500Y-64896900D01*
X63779400Y-64207294D02*
X63779400Y-64896800D01*
X65862200Y-68834000D02*
X64955146Y-68834000D01*
X66139749Y-71043509D02*
X64963600Y-71043509D01*
X63434000Y-70226836D02*
X63444035Y-70216801D01*
X63434000Y-72210000D02*
X63434000Y-70226836D01*
X66649600Y-69900800D02*
X66966029Y-70217229D01*
X66649600Y-69392800D02*
X66649600Y-69900800D01*
X66966029Y-70217229D02*
X66139749Y-71043509D01*
X68244120Y-68939138D02*
X66966029Y-70217229D01*
X71432000Y-53891500D02*
X71374000Y-53949500D01*
X71374000Y-53025838D02*
X71370562Y-53022400D01*
X71374000Y-53949500D02*
X71374000Y-53025838D01*
X71432000Y-51061200D02*
X71805800Y-51435000D01*
X71432000Y-49310000D02*
X71432000Y-51061200D01*
X72132000Y-50760000D02*
X72132000Y-49310000D01*
X72132000Y-50760000D02*
X72807000Y-51435000D01*
X72807000Y-51435000D02*
X74574400Y-51435000D01*
X74930000Y-51790600D02*
X74574400Y-51435000D01*
X74930000Y-53949500D02*
X74930000Y-51790600D01*
D30*
X61534000Y-70179500D02*
X61534000Y-71460000D01*
X61534000Y-71460000D02*
X61534000Y-72210000D01*
X62204500Y-69509000D02*
X61534000Y-70179500D01*
X62204500Y-68834000D02*
X62204500Y-69509000D01*
X59817000Y-72720200D02*
X54575200Y-72720200D01*
X60327200Y-72210000D02*
X59817000Y-72720200D01*
X61534000Y-72210000D02*
X60327200Y-72210000D01*
X56489500Y-58623200D02*
X56489500Y-57480300D01*
X56489500Y-57480300D02*
X56642000Y-57327800D01*
X56642000Y-57327800D02*
X56642000Y-56235600D01*
X56642000Y-56231000D02*
X54360600Y-56231000D01*
X54360600Y-56231000D02*
X54051200Y-56540400D01*
X54051200Y-56540400D02*
X54051200Y-69545200D01*
X54051200Y-69545200D02*
X53263800Y-70332600D01*
X53263800Y-70332600D02*
X53263800Y-72491600D01*
X53263800Y-72491600D02*
X53492400Y-72720200D01*
X53492400Y-72720200D02*
X54584600Y-72720200D01*
D31*
X53492400Y-73863200D02*
X53492400Y-72720200D01*
X58397000Y-71756000D02*
X58547000Y-71756000D01*
X60614500Y-64704000D02*
X60680500Y-64770000D01*
D30*
X58757500Y-64704000D02*
X60614500Y-64704000D01*
X58445500Y-67183000D02*
X58445500Y-66014500D01*
X58757500Y-65702500D02*
X58757500Y-64704000D01*
X58445500Y-66014500D02*
X58757500Y-65702500D01*
X58445500Y-68961000D02*
X58445500Y-67183000D01*
D31*
X58445500Y-71654500D02*
X58547000Y-71756000D01*
D30*
X58445500Y-68961000D02*
X58445500Y-71654500D01*
X56575200Y-71770200D02*
X58455600Y-71770200D01*
X58547000Y-75056000D02*
X61488000Y-75056000D01*
D32*
X63271500Y-78994000D02*
X63271500Y-77241500D01*
X62484000Y-75311000D02*
X62204600Y-75031600D01*
X62484000Y-75641200D02*
X62484000Y-75311000D01*
X63271500Y-76428700D02*
X62484000Y-75641200D01*
X62204600Y-75031600D02*
X61518800Y-75031600D01*
X63271500Y-77216000D02*
X63271500Y-76428700D01*
D30*
X56575200Y-73670200D02*
X57947600Y-73670200D01*
X57947600Y-73670200D02*
X58547000Y-74269600D01*
X58547000Y-74269600D02*
X58547000Y-75057000D01*
D31*
X63271500Y-78994000D02*
X63271400Y-78994000D01*
X71638233Y-59746750D02*
X70184483Y-58293000D01*
X70184483Y-58293000D02*
X69342000Y-58293000D01*
X67818000Y-56769000D02*
X67818000Y-55524500D01*
X67818000Y-56769000D02*
X68072000Y-57023000D01*
X69342000Y-58293000D02*
X68072000Y-57023000D01*
X69342000Y-49300000D02*
X69332000Y-49310000D01*
X67914177Y-55524500D02*
X68689177Y-54749500D01*
X67818000Y-55524500D02*
X67914177Y-55524500D01*
X69332000Y-52511800D02*
X68707000Y-53136800D01*
X69332000Y-49310000D02*
X69332000Y-52511800D01*
X68021200Y-56972200D02*
X67818000Y-56769000D01*
X68961000Y-56972200D02*
X68021200Y-56972200D01*
X60299500Y-58801000D02*
X60299500Y-57911900D01*
X59791600Y-57404000D02*
X60299500Y-57911900D01*
X59334400Y-57404000D02*
X59791600Y-57404000D01*
X59120400Y-66065400D02*
X58757500Y-65702500D01*
X59842400Y-66065400D02*
X59120400Y-66065400D01*
D32*
X63482000Y-81647500D02*
X63482000Y-80423800D01*
X63482000Y-80423800D02*
X63271400Y-80213200D01*
X63271400Y-80213200D02*
X63271400Y-78994000D01*
D31*
X56575200Y-73670200D02*
X56575200Y-74539600D01*
X55956200Y-75158600D02*
X56575200Y-74539600D01*
X55245000Y-75158600D02*
X55956200Y-75158600D01*
M02*
