M48
; DRILL file {KiCad 5.1.9} date Fri Apr  2 18:31:18 2021
; FORMAT={-:-/ absolute / inch / decimal}
; #@! TF.CreationDate,2021-04-02T18:31:18+02:00
; #@! TF.GenerationSoftware,Kicad,Pcbnew,5.1.9
; #@! TF.FileFunction,Plated,1,2,PTH
FMAT,2
INCH
T1C0.0157
T2C0.0236
T3C0.0335
%
G90
G05
T1
X2.121Y-2.114
X2.183Y-2.39
X2.183Y-2.8315
X2.183Y-2.8945
X2.188Y-2.51
X2.239Y-2.756
X2.249Y-3.084
X2.286Y-2.266
X2.3416Y-3.0786
X2.345Y-2.058
X2.348Y-2.9235
X2.348Y-2.9865
X2.387Y-2.9235
X2.387Y-2.9865
X2.387Y-3.11
X2.404Y-2.639
X2.46Y-2.797
X2.4634Y-3.1547
X2.478Y-2.473
X2.4978Y-2.7644
X2.5143Y-2.9943
X2.5245Y-3.1551
X2.537Y-1.87
X2.5576Y-2.797
X2.564Y-2.09
X2.564Y-2.1555
X2.592Y-1.87
X2.613Y-3.015
X2.619Y-1.843
X2.634Y-2.091
X2.634Y-2.1555
X2.647Y-1.869
X2.655Y-3.107
X2.7043Y-2.1555
X2.705Y-2.092
X2.729Y-3.126
X2.732Y-2.889
X2.772Y-2.482
X2.785Y-2.728
X2.8099Y-2.0875
X2.827Y-2.025
X2.845Y-3.107
X2.868Y-1.87
X2.8727Y-2.7693
X2.8789Y-2.3117
X2.895Y-1.843
X2.9001Y-2.3743
X2.9164Y-2.7266
X2.923Y-1.869
X2.9264Y-2.055
X2.95Y-1.843
X2.978Y-1.869
X2.9874Y-2.055
X2.988Y-2.457
X3.005Y-1.843
X3.009Y-2.719
X3.02Y-2.224
X3.061Y-3.01
X3.115Y-2.014
X3.131Y-3.182
X3.195Y-3.051
X3.2Y-2.414
X3.205Y-2.191
X3.216Y-2.105
X3.23Y-2.569
X3.2408Y-2.6278
X3.258Y-2.717
X3.2693Y-3.1418
X3.2735Y-2.6815
X3.2984Y-2.9381
X3.3027Y-3.1752
X3.306Y-2.659
X3.313Y-2.988
X3.3289Y-2.566
X3.333Y-2.415
X3.344Y-2.958
X3.361Y-1.971
X3.367Y-3.2815
X3.3802Y-2.6052
T3
X2.452Y-3.2145
X2.6489Y-3.2145
T2
G00X2.4127Y-3.3345
M15
G01X2.4127Y-3.307
M16
G05
G00X2.6883Y-3.307
M15
G01X2.6883Y-3.3345
M16
G05
T0
M30
