G04 #@! TF.GenerationSoftware,KiCad,Pcbnew,5.1.9*
G04 #@! TF.CreationDate,2021-04-02T18:31:15+02:00*
G04 #@! TF.ProjectId,xling,786c696e-672e-46b6-9963-61645f706362,4.1*
G04 #@! TF.SameCoordinates,Original*
G04 #@! TF.FileFunction,Legend,Top*
G04 #@! TF.FilePolarity,Positive*
%FSLAX46Y46*%
G04 Gerber Fmt 4.6, Leading zero omitted, Abs format (unit mm)*
G04 Created by KiCad (PCBNEW 5.1.9) date 2021-04-02 18:31:15*
%MOMM*%
%LPD*%
G01*
G04 APERTURE LIST*
%ADD10C,0.200000*%
%ADD11C,0.150000*%
%ADD12C,0.175000*%
%ADD13C,0.010000*%
%ADD14C,0.120000*%
%ADD15C,0.100000*%
%ADD16C,0.125000*%
G04 APERTURE END LIST*
D10*
X79501795Y-52217580D02*
X79501795Y-51550914D01*
X79501795Y-51741390D02*
X79549414Y-51646152D01*
X79597033Y-51598533D01*
X79692271Y-51550914D01*
X79787509Y-51550914D01*
X80501795Y-52169961D02*
X80406557Y-52217580D01*
X80216080Y-52217580D01*
X80120842Y-52169961D01*
X80073223Y-52074723D01*
X80073223Y-51693771D01*
X80120842Y-51598533D01*
X80216080Y-51550914D01*
X80406557Y-51550914D01*
X80501795Y-51598533D01*
X80549414Y-51693771D01*
X80549414Y-51789009D01*
X80073223Y-51884247D01*
X80882747Y-51550914D02*
X81120842Y-52217580D01*
X81358938Y-51550914D01*
X81739890Y-52122342D02*
X81787509Y-52169961D01*
X81739890Y-52217580D01*
X81692271Y-52169961D01*
X81739890Y-52122342D01*
X81739890Y-52217580D01*
X82644652Y-51550914D02*
X82644652Y-52217580D01*
X82406557Y-51169961D02*
X82168461Y-51884247D01*
X82787509Y-51884247D01*
X83168461Y-52122342D02*
X83216080Y-52169961D01*
X83168461Y-52217580D01*
X83120842Y-52169961D01*
X83168461Y-52122342D01*
X83168461Y-52217580D01*
X84168461Y-52217580D02*
X83597033Y-52217580D01*
X83882747Y-52217580D02*
X83882747Y-51217580D01*
X83787509Y-51360438D01*
X83692271Y-51455676D01*
X83597033Y-51503295D01*
X63550523Y-41860742D02*
X63502904Y-41908361D01*
X63360047Y-41955980D01*
X63264809Y-41955980D01*
X63121952Y-41908361D01*
X63026714Y-41813123D01*
X62979095Y-41717885D01*
X62931476Y-41527409D01*
X62931476Y-41384552D01*
X62979095Y-41194076D01*
X63026714Y-41098838D01*
X63121952Y-41003600D01*
X63264809Y-40955980D01*
X63360047Y-40955980D01*
X63502904Y-41003600D01*
X63550523Y-41051219D01*
X63979095Y-41432171D02*
X64312428Y-41432171D01*
X64455285Y-41955980D02*
X63979095Y-41955980D01*
X63979095Y-40955980D01*
X64455285Y-40955980D01*
X65455285Y-41955980D02*
X65121952Y-41479790D01*
X64883857Y-41955980D02*
X64883857Y-40955980D01*
X65264809Y-40955980D01*
X65360047Y-41003600D01*
X65407666Y-41051219D01*
X65455285Y-41146457D01*
X65455285Y-41289314D01*
X65407666Y-41384552D01*
X65360047Y-41432171D01*
X65264809Y-41479790D01*
X64883857Y-41479790D01*
X65883857Y-41955980D02*
X65883857Y-40955980D01*
X66455285Y-41955980D01*
X66455285Y-40955980D01*
X66931476Y-41575028D02*
X67693380Y-41575028D01*
X68360047Y-40955980D02*
X68550523Y-40955980D01*
X68645761Y-41003600D01*
X68741000Y-41098838D01*
X68788619Y-41289314D01*
X68788619Y-41622647D01*
X68741000Y-41813123D01*
X68645761Y-41908361D01*
X68550523Y-41955980D01*
X68360047Y-41955980D01*
X68264809Y-41908361D01*
X68169571Y-41813123D01*
X68121952Y-41622647D01*
X68121952Y-41289314D01*
X68169571Y-41098838D01*
X68264809Y-41003600D01*
X68360047Y-40955980D01*
X69217190Y-41955980D02*
X69217190Y-40955980D01*
X69217190Y-41432171D02*
X69788619Y-41432171D01*
X69788619Y-41955980D02*
X69788619Y-40955980D01*
X70741000Y-41955980D02*
X70264809Y-41955980D01*
X70264809Y-40955980D01*
X71074333Y-41575028D02*
X71836238Y-41575028D01*
X72217190Y-40955980D02*
X72455285Y-41955980D01*
X72645761Y-41241695D01*
X72836238Y-41955980D01*
X73074333Y-40955980D01*
X73455285Y-41575028D02*
X74217190Y-41575028D01*
X74645761Y-41051219D02*
X74693380Y-41003600D01*
X74788619Y-40955980D01*
X75026714Y-40955980D01*
X75121952Y-41003600D01*
X75169571Y-41051219D01*
X75217190Y-41146457D01*
X75217190Y-41241695D01*
X75169571Y-41384552D01*
X74598142Y-41955980D01*
X75217190Y-41955980D01*
X75645761Y-41860742D02*
X75693380Y-41908361D01*
X75645761Y-41955980D01*
X75598142Y-41908361D01*
X75645761Y-41860742D01*
X75645761Y-41955980D01*
X76312428Y-40955980D02*
X76407666Y-40955980D01*
X76502904Y-41003600D01*
X76550523Y-41051219D01*
X76598142Y-41146457D01*
X76645761Y-41336933D01*
X76645761Y-41575028D01*
X76598142Y-41765504D01*
X76550523Y-41860742D01*
X76502904Y-41908361D01*
X76407666Y-41955980D01*
X76312428Y-41955980D01*
X76217190Y-41908361D01*
X76169571Y-41860742D01*
X76121952Y-41765504D01*
X76074333Y-41575028D01*
X76074333Y-41336933D01*
X76121952Y-41146457D01*
X76169571Y-41051219D01*
X76217190Y-41003600D01*
X76312428Y-40955980D01*
D11*
X60286900Y-67818000D02*
X61366400Y-67348100D01*
X63665100Y-63233300D02*
X63525400Y-64071500D01*
X64096900Y-77571600D02*
X65341500Y-77965300D01*
X83896200Y-70523100D02*
X85115400Y-70383400D01*
X75866809Y-85491580D02*
X75866809Y-84491580D01*
X76914428Y-85396342D02*
X76866809Y-85443961D01*
X76723952Y-85491580D01*
X76628714Y-85491580D01*
X76485857Y-85443961D01*
X76390619Y-85348723D01*
X76343000Y-85253485D01*
X76295380Y-85063009D01*
X76295380Y-84920152D01*
X76343000Y-84729676D01*
X76390619Y-84634438D01*
X76485857Y-84539200D01*
X76628714Y-84491580D01*
X76723952Y-84491580D01*
X76866809Y-84539200D01*
X76914428Y-84586819D01*
X77295380Y-85443961D02*
X77438238Y-85491580D01*
X77676333Y-85491580D01*
X77771571Y-85443961D01*
X77819190Y-85396342D01*
X77866809Y-85301104D01*
X77866809Y-85205866D01*
X77819190Y-85110628D01*
X77771571Y-85063009D01*
X77676333Y-85015390D01*
X77485857Y-84967771D01*
X77390619Y-84920152D01*
X77343000Y-84872533D01*
X77295380Y-84777295D01*
X77295380Y-84682057D01*
X77343000Y-84586819D01*
X77390619Y-84539200D01*
X77485857Y-84491580D01*
X77723952Y-84491580D01*
X77866809Y-84539200D01*
X78295380Y-85491580D02*
X78295380Y-84491580D01*
X78676333Y-84491580D01*
X78771571Y-84539200D01*
X78819190Y-84586819D01*
X78866809Y-84682057D01*
X78866809Y-84824914D01*
X78819190Y-84920152D01*
X78771571Y-84967771D01*
X78676333Y-85015390D01*
X78295380Y-85015390D01*
D12*
X81348666Y-77979583D02*
X81015333Y-78212916D01*
X81348666Y-78379583D02*
X80648666Y-78379583D01*
X80648666Y-78112916D01*
X80682000Y-78046250D01*
X80715333Y-78012916D01*
X80782000Y-77979583D01*
X80882000Y-77979583D01*
X80948666Y-78012916D01*
X80982000Y-78046250D01*
X81015333Y-78112916D01*
X81015333Y-78379583D01*
X81315333Y-77712916D02*
X81348666Y-77612916D01*
X81348666Y-77446250D01*
X81315333Y-77379583D01*
X81282000Y-77346250D01*
X81215333Y-77312916D01*
X81148666Y-77312916D01*
X81082000Y-77346250D01*
X81048666Y-77379583D01*
X81015333Y-77446250D01*
X80982000Y-77579583D01*
X80948666Y-77646250D01*
X80915333Y-77679583D01*
X80848666Y-77712916D01*
X80782000Y-77712916D01*
X80715333Y-77679583D01*
X80682000Y-77646250D01*
X80648666Y-77579583D01*
X80648666Y-77412916D01*
X80682000Y-77312916D01*
X80648666Y-77112916D02*
X80648666Y-76712916D01*
X81348666Y-76912916D02*
X80648666Y-76912916D01*
X79182000Y-78012916D02*
X79148666Y-78079583D01*
X79148666Y-78179583D01*
X79182000Y-78279583D01*
X79248666Y-78346250D01*
X79315333Y-78379583D01*
X79448666Y-78412916D01*
X79548666Y-78412916D01*
X79682000Y-78379583D01*
X79748666Y-78346250D01*
X79815333Y-78279583D01*
X79848666Y-78179583D01*
X79848666Y-78112916D01*
X79815333Y-78012916D01*
X79782000Y-77979583D01*
X79548666Y-77979583D01*
X79548666Y-78112916D01*
X79848666Y-77679583D02*
X79148666Y-77679583D01*
X79848666Y-77279583D01*
X79148666Y-77279583D01*
X79848666Y-76946250D02*
X79148666Y-76946250D01*
X79148666Y-76779583D01*
X79182000Y-76679583D01*
X79248666Y-76612916D01*
X79315333Y-76579583D01*
X79448666Y-76546250D01*
X79548666Y-76546250D01*
X79682000Y-76579583D01*
X79748666Y-76612916D01*
X79815333Y-76679583D01*
X79848666Y-76779583D01*
X79848666Y-76946250D01*
X78315333Y-78412916D02*
X78348666Y-78312916D01*
X78348666Y-78146250D01*
X78315333Y-78079583D01*
X78282000Y-78046250D01*
X78215333Y-78012916D01*
X78148666Y-78012916D01*
X78082000Y-78046250D01*
X78048666Y-78079583D01*
X78015333Y-78146250D01*
X77982000Y-78279583D01*
X77948666Y-78346250D01*
X77915333Y-78379583D01*
X77848666Y-78412916D01*
X77782000Y-78412916D01*
X77715333Y-78379583D01*
X77682000Y-78346250D01*
X77648666Y-78279583D01*
X77648666Y-78112916D01*
X77682000Y-78012916D01*
X78282000Y-77312916D02*
X78315333Y-77346250D01*
X78348666Y-77446250D01*
X78348666Y-77512916D01*
X78315333Y-77612916D01*
X78248666Y-77679583D01*
X78182000Y-77712916D01*
X78048666Y-77746250D01*
X77948666Y-77746250D01*
X77815333Y-77712916D01*
X77748666Y-77679583D01*
X77682000Y-77612916D01*
X77648666Y-77512916D01*
X77648666Y-77446250D01*
X77682000Y-77346250D01*
X77715333Y-77312916D01*
X78348666Y-77012916D02*
X77648666Y-77012916D01*
X78348666Y-76612916D02*
X77948666Y-76912916D01*
X77648666Y-76612916D02*
X78048666Y-77012916D01*
X76898666Y-78429583D02*
X76198666Y-78429583D01*
X76698666Y-78196250D01*
X76198666Y-77962916D01*
X76898666Y-77962916D01*
X76898666Y-77629583D02*
X76198666Y-77629583D01*
X76865333Y-77329583D02*
X76898666Y-77229583D01*
X76898666Y-77062916D01*
X76865333Y-76996250D01*
X76832000Y-76962916D01*
X76765333Y-76929583D01*
X76698666Y-76929583D01*
X76632000Y-76962916D01*
X76598666Y-76996250D01*
X76565333Y-77062916D01*
X76532000Y-77196250D01*
X76498666Y-77262916D01*
X76465333Y-77296250D01*
X76398666Y-77329583D01*
X76332000Y-77329583D01*
X76265333Y-77296250D01*
X76232000Y-77262916D01*
X76198666Y-77196250D01*
X76198666Y-77029583D01*
X76232000Y-76929583D01*
X76198666Y-76496250D02*
X76198666Y-76362916D01*
X76232000Y-76296250D01*
X76298666Y-76229583D01*
X76432000Y-76196250D01*
X76665333Y-76196250D01*
X76798666Y-76229583D01*
X76865333Y-76296250D01*
X76898666Y-76362916D01*
X76898666Y-76496250D01*
X76865333Y-76562916D01*
X76798666Y-76629583D01*
X76665333Y-76662916D01*
X76432000Y-76662916D01*
X76298666Y-76629583D01*
X76232000Y-76562916D01*
X76198666Y-76496250D01*
X75398666Y-78379583D02*
X74698666Y-78379583D01*
X75198666Y-78146250D01*
X74698666Y-77912916D01*
X75398666Y-77912916D01*
X74698666Y-77446250D02*
X74698666Y-77312916D01*
X74732000Y-77246250D01*
X74798666Y-77179583D01*
X74932000Y-77146250D01*
X75165333Y-77146250D01*
X75298666Y-77179583D01*
X75365333Y-77246250D01*
X75398666Y-77312916D01*
X75398666Y-77446250D01*
X75365333Y-77512916D01*
X75298666Y-77579583D01*
X75165333Y-77612916D01*
X74932000Y-77612916D01*
X74798666Y-77579583D01*
X74732000Y-77512916D01*
X74698666Y-77446250D01*
X75365333Y-76879583D02*
X75398666Y-76779583D01*
X75398666Y-76612916D01*
X75365333Y-76546250D01*
X75332000Y-76512916D01*
X75265333Y-76479583D01*
X75198666Y-76479583D01*
X75132000Y-76512916D01*
X75098666Y-76546250D01*
X75065333Y-76612916D01*
X75032000Y-76746250D01*
X74998666Y-76812916D01*
X74965333Y-76846250D01*
X74898666Y-76879583D01*
X74832000Y-76879583D01*
X74765333Y-76846250D01*
X74732000Y-76812916D01*
X74698666Y-76746250D01*
X74698666Y-76579583D01*
X74732000Y-76479583D01*
X75398666Y-76179583D02*
X74698666Y-76179583D01*
X73148666Y-78479583D02*
X73848666Y-78246250D01*
X73148666Y-78012916D01*
X73782000Y-77379583D02*
X73815333Y-77412916D01*
X73848666Y-77512916D01*
X73848666Y-77579583D01*
X73815333Y-77679583D01*
X73748666Y-77746250D01*
X73682000Y-77779583D01*
X73548666Y-77812916D01*
X73448666Y-77812916D01*
X73315333Y-77779583D01*
X73248666Y-77746250D01*
X73182000Y-77679583D01*
X73148666Y-77579583D01*
X73148666Y-77512916D01*
X73182000Y-77412916D01*
X73215333Y-77379583D01*
X73782000Y-76679583D02*
X73815333Y-76712916D01*
X73848666Y-76812916D01*
X73848666Y-76879583D01*
X73815333Y-76979583D01*
X73748666Y-77046250D01*
X73682000Y-77079583D01*
X73548666Y-77112916D01*
X73448666Y-77112916D01*
X73315333Y-77079583D01*
X73248666Y-77046250D01*
X73182000Y-76979583D01*
X73148666Y-76879583D01*
X73148666Y-76812916D01*
X73182000Y-76712916D01*
X73215333Y-76679583D01*
D13*
G36*
X71575694Y-65010358D02*
G01*
X71608219Y-65022936D01*
X71657793Y-65047912D01*
X71728974Y-65087076D01*
X71734516Y-65090188D01*
X71800074Y-65127676D01*
X71855398Y-65160519D01*
X71895055Y-65185405D01*
X71913612Y-65199020D01*
X71914131Y-65199687D01*
X71909648Y-65218590D01*
X71889086Y-65260805D01*
X71853783Y-65324032D01*
X71805080Y-65405972D01*
X71744318Y-65504322D01*
X71672836Y-65616785D01*
X71655045Y-65644365D01*
X71608693Y-65720899D01*
X71574942Y-65786756D01*
X71556753Y-65835982D01*
X71554886Y-65845707D01*
X71555715Y-65888512D01*
X71564994Y-65956409D01*
X71581568Y-66045043D01*
X71604280Y-66150059D01*
X71631973Y-66267102D01*
X71663490Y-66391816D01*
X71697675Y-66519845D01*
X71733371Y-66646834D01*
X71769421Y-66768428D01*
X71804668Y-66880272D01*
X71837956Y-66978010D01*
X71868128Y-67057287D01*
X71889161Y-67104322D01*
X71913937Y-67154425D01*
X71937330Y-67202368D01*
X71938597Y-67204993D01*
X71977299Y-67253420D01*
X72033784Y-67286028D01*
X72099539Y-67301654D01*
X72166051Y-67299137D01*
X72224805Y-67277314D01*
X72257858Y-67248582D01*
X72305459Y-67169783D01*
X72340339Y-67071578D01*
X72359477Y-66963979D01*
X72362188Y-66902980D01*
X72351270Y-66789135D01*
X72319224Y-66694860D01*
X72264326Y-66615579D01*
X72247207Y-66597933D01*
X72196261Y-66548435D01*
X72192763Y-66198562D01*
X72189264Y-65848689D01*
X72278418Y-65713731D01*
X72320254Y-65652645D01*
X72360545Y-65597693D01*
X72393543Y-65556536D01*
X72407726Y-65541392D01*
X72447881Y-65504010D01*
X72502265Y-65533298D01*
X72536639Y-65554284D01*
X72555446Y-65570578D01*
X72556649Y-65573507D01*
X72569503Y-65585928D01*
X72591496Y-65595177D01*
X72612750Y-65603513D01*
X72645294Y-65619349D01*
X72691922Y-65644233D01*
X72755429Y-65679709D01*
X72838608Y-65727323D01*
X72944253Y-65788622D01*
X73001662Y-65822132D01*
X73069194Y-65862271D01*
X73113485Y-65890859D01*
X73138455Y-65911239D01*
X73148023Y-65926753D01*
X73146108Y-65940746D01*
X73144511Y-65943996D01*
X73128976Y-65964466D01*
X73095736Y-66002865D01*
X73048662Y-66054896D01*
X72991628Y-66116266D01*
X72942300Y-66168290D01*
X72828630Y-66291767D01*
X72739705Y-66398791D01*
X72674734Y-66490440D01*
X72632921Y-66567788D01*
X72618817Y-66607066D01*
X72612992Y-66641449D01*
X72606975Y-66700099D01*
X72601296Y-66776317D01*
X72596484Y-66863402D01*
X72594219Y-66918468D01*
X72591059Y-67013664D01*
X72589669Y-67083262D01*
X72590458Y-67132609D01*
X72593835Y-67167054D01*
X72600208Y-67191943D01*
X72609987Y-67212625D01*
X72617667Y-67225253D01*
X72662021Y-67273926D01*
X72719174Y-67307845D01*
X72779308Y-67322638D01*
X72824373Y-67317286D01*
X72865176Y-67294130D01*
X72916324Y-67252662D01*
X72970642Y-67200112D01*
X73020957Y-67143716D01*
X73060094Y-67090705D01*
X73074505Y-67065089D01*
X73096091Y-67030014D01*
X73135353Y-66976589D01*
X73188702Y-66908989D01*
X73252552Y-66831390D01*
X73323315Y-66747968D01*
X73397404Y-66662898D01*
X73471232Y-66580355D01*
X73541211Y-66504516D01*
X73603755Y-66439556D01*
X73652860Y-66391869D01*
X73707379Y-66344232D01*
X73753242Y-66309108D01*
X73785411Y-66290149D01*
X73796089Y-66288064D01*
X73812453Y-66296474D01*
X73853271Y-66319046D01*
X73916186Y-66354424D01*
X73998844Y-66401254D01*
X74098889Y-66458181D01*
X74213966Y-66523849D01*
X74341719Y-66596903D01*
X74479794Y-66675988D01*
X74625834Y-66759748D01*
X74777484Y-66846829D01*
X74932390Y-66935876D01*
X75088195Y-67025532D01*
X75242544Y-67114443D01*
X75393082Y-67201254D01*
X75537454Y-67284609D01*
X75673304Y-67363154D01*
X75798277Y-67435533D01*
X75910017Y-67500390D01*
X76006170Y-67556371D01*
X76084379Y-67602120D01*
X76142289Y-67636283D01*
X76177546Y-67657504D01*
X76187765Y-67664163D01*
X76174002Y-67665480D01*
X76130704Y-67666759D01*
X76059314Y-67667996D01*
X75961273Y-67669183D01*
X75838022Y-67670315D01*
X75691003Y-67671386D01*
X75521657Y-67672389D01*
X75331426Y-67673319D01*
X75121751Y-67674168D01*
X74894073Y-67674932D01*
X74649835Y-67675603D01*
X74390477Y-67676176D01*
X74117441Y-67676644D01*
X73832168Y-67677002D01*
X73536100Y-67677242D01*
X73230679Y-67677359D01*
X73102524Y-67677371D01*
X70002570Y-67677371D01*
X70223653Y-67294047D01*
X70270456Y-67212880D01*
X70330702Y-67108366D01*
X70402378Y-66984001D01*
X70483469Y-66843282D01*
X70571962Y-66689703D01*
X70665840Y-66526762D01*
X70763091Y-66357954D01*
X70861700Y-66186775D01*
X70959653Y-66016721D01*
X70984425Y-65973712D01*
X71074752Y-65817057D01*
X71160889Y-65668003D01*
X71241542Y-65528768D01*
X71315416Y-65401571D01*
X71381217Y-65288632D01*
X71437650Y-65192168D01*
X71483421Y-65114400D01*
X71517235Y-65057546D01*
X71537798Y-65023825D01*
X71543553Y-65015240D01*
X71555658Y-65008389D01*
X71575694Y-65010358D01*
G37*
X71575694Y-65010358D02*
X71608219Y-65022936D01*
X71657793Y-65047912D01*
X71728974Y-65087076D01*
X71734516Y-65090188D01*
X71800074Y-65127676D01*
X71855398Y-65160519D01*
X71895055Y-65185405D01*
X71913612Y-65199020D01*
X71914131Y-65199687D01*
X71909648Y-65218590D01*
X71889086Y-65260805D01*
X71853783Y-65324032D01*
X71805080Y-65405972D01*
X71744318Y-65504322D01*
X71672836Y-65616785D01*
X71655045Y-65644365D01*
X71608693Y-65720899D01*
X71574942Y-65786756D01*
X71556753Y-65835982D01*
X71554886Y-65845707D01*
X71555715Y-65888512D01*
X71564994Y-65956409D01*
X71581568Y-66045043D01*
X71604280Y-66150059D01*
X71631973Y-66267102D01*
X71663490Y-66391816D01*
X71697675Y-66519845D01*
X71733371Y-66646834D01*
X71769421Y-66768428D01*
X71804668Y-66880272D01*
X71837956Y-66978010D01*
X71868128Y-67057287D01*
X71889161Y-67104322D01*
X71913937Y-67154425D01*
X71937330Y-67202368D01*
X71938597Y-67204993D01*
X71977299Y-67253420D01*
X72033784Y-67286028D01*
X72099539Y-67301654D01*
X72166051Y-67299137D01*
X72224805Y-67277314D01*
X72257858Y-67248582D01*
X72305459Y-67169783D01*
X72340339Y-67071578D01*
X72359477Y-66963979D01*
X72362188Y-66902980D01*
X72351270Y-66789135D01*
X72319224Y-66694860D01*
X72264326Y-66615579D01*
X72247207Y-66597933D01*
X72196261Y-66548435D01*
X72192763Y-66198562D01*
X72189264Y-65848689D01*
X72278418Y-65713731D01*
X72320254Y-65652645D01*
X72360545Y-65597693D01*
X72393543Y-65556536D01*
X72407726Y-65541392D01*
X72447881Y-65504010D01*
X72502265Y-65533298D01*
X72536639Y-65554284D01*
X72555446Y-65570578D01*
X72556649Y-65573507D01*
X72569503Y-65585928D01*
X72591496Y-65595177D01*
X72612750Y-65603513D01*
X72645294Y-65619349D01*
X72691922Y-65644233D01*
X72755429Y-65679709D01*
X72838608Y-65727323D01*
X72944253Y-65788622D01*
X73001662Y-65822132D01*
X73069194Y-65862271D01*
X73113485Y-65890859D01*
X73138455Y-65911239D01*
X73148023Y-65926753D01*
X73146108Y-65940746D01*
X73144511Y-65943996D01*
X73128976Y-65964466D01*
X73095736Y-66002865D01*
X73048662Y-66054896D01*
X72991628Y-66116266D01*
X72942300Y-66168290D01*
X72828630Y-66291767D01*
X72739705Y-66398791D01*
X72674734Y-66490440D01*
X72632921Y-66567788D01*
X72618817Y-66607066D01*
X72612992Y-66641449D01*
X72606975Y-66700099D01*
X72601296Y-66776317D01*
X72596484Y-66863402D01*
X72594219Y-66918468D01*
X72591059Y-67013664D01*
X72589669Y-67083262D01*
X72590458Y-67132609D01*
X72593835Y-67167054D01*
X72600208Y-67191943D01*
X72609987Y-67212625D01*
X72617667Y-67225253D01*
X72662021Y-67273926D01*
X72719174Y-67307845D01*
X72779308Y-67322638D01*
X72824373Y-67317286D01*
X72865176Y-67294130D01*
X72916324Y-67252662D01*
X72970642Y-67200112D01*
X73020957Y-67143716D01*
X73060094Y-67090705D01*
X73074505Y-67065089D01*
X73096091Y-67030014D01*
X73135353Y-66976589D01*
X73188702Y-66908989D01*
X73252552Y-66831390D01*
X73323315Y-66747968D01*
X73397404Y-66662898D01*
X73471232Y-66580355D01*
X73541211Y-66504516D01*
X73603755Y-66439556D01*
X73652860Y-66391869D01*
X73707379Y-66344232D01*
X73753242Y-66309108D01*
X73785411Y-66290149D01*
X73796089Y-66288064D01*
X73812453Y-66296474D01*
X73853271Y-66319046D01*
X73916186Y-66354424D01*
X73998844Y-66401254D01*
X74098889Y-66458181D01*
X74213966Y-66523849D01*
X74341719Y-66596903D01*
X74479794Y-66675988D01*
X74625834Y-66759748D01*
X74777484Y-66846829D01*
X74932390Y-66935876D01*
X75088195Y-67025532D01*
X75242544Y-67114443D01*
X75393082Y-67201254D01*
X75537454Y-67284609D01*
X75673304Y-67363154D01*
X75798277Y-67435533D01*
X75910017Y-67500390D01*
X76006170Y-67556371D01*
X76084379Y-67602120D01*
X76142289Y-67636283D01*
X76177546Y-67657504D01*
X76187765Y-67664163D01*
X76174002Y-67665480D01*
X76130704Y-67666759D01*
X76059314Y-67667996D01*
X75961273Y-67669183D01*
X75838022Y-67670315D01*
X75691003Y-67671386D01*
X75521657Y-67672389D01*
X75331426Y-67673319D01*
X75121751Y-67674168D01*
X74894073Y-67674932D01*
X74649835Y-67675603D01*
X74390477Y-67676176D01*
X74117441Y-67676644D01*
X73832168Y-67677002D01*
X73536100Y-67677242D01*
X73230679Y-67677359D01*
X73102524Y-67677371D01*
X70002570Y-67677371D01*
X70223653Y-67294047D01*
X70270456Y-67212880D01*
X70330702Y-67108366D01*
X70402378Y-66984001D01*
X70483469Y-66843282D01*
X70571962Y-66689703D01*
X70665840Y-66526762D01*
X70763091Y-66357954D01*
X70861700Y-66186775D01*
X70959653Y-66016721D01*
X70984425Y-65973712D01*
X71074752Y-65817057D01*
X71160889Y-65668003D01*
X71241542Y-65528768D01*
X71315416Y-65401571D01*
X71381217Y-65288632D01*
X71437650Y-65192168D01*
X71483421Y-65114400D01*
X71517235Y-65057546D01*
X71537798Y-65023825D01*
X71543553Y-65015240D01*
X71555658Y-65008389D01*
X71575694Y-65010358D01*
G36*
X75241128Y-64953819D02*
G01*
X75252508Y-64972893D01*
X75278088Y-65016621D01*
X75316602Y-65082819D01*
X75366786Y-65169302D01*
X75427375Y-65273885D01*
X75497103Y-65394383D01*
X75574707Y-65528612D01*
X75658920Y-65674387D01*
X75748479Y-65829523D01*
X75840598Y-65989200D01*
X75934676Y-66152317D01*
X76025002Y-66308909D01*
X76110265Y-66456706D01*
X76189157Y-66593440D01*
X76260369Y-66716842D01*
X76322591Y-66824644D01*
X76374513Y-66914577D01*
X76414828Y-66984373D01*
X76442224Y-67031764D01*
X76455107Y-67053986D01*
X76476107Y-67091530D01*
X76487525Y-67115031D01*
X76488151Y-67119120D01*
X76474236Y-67111442D01*
X76435541Y-67089403D01*
X76374087Y-67054171D01*
X76291898Y-67006911D01*
X76190996Y-66948789D01*
X76073405Y-66880971D01*
X75941146Y-66804624D01*
X75796242Y-66720914D01*
X75640717Y-66631006D01*
X75476592Y-66536067D01*
X75414149Y-66499932D01*
X75247087Y-66403283D01*
X75087674Y-66311138D01*
X74937955Y-66224675D01*
X74799976Y-66145071D01*
X74675785Y-66073505D01*
X74567427Y-66011155D01*
X74476948Y-65959198D01*
X74406396Y-65918813D01*
X74357815Y-65891178D01*
X74333254Y-65877472D01*
X74330685Y-65876174D01*
X74338169Y-65864420D01*
X74364214Y-65832995D01*
X74406159Y-65784794D01*
X74461346Y-65722710D01*
X74527117Y-65649639D01*
X74600812Y-65568476D01*
X74679773Y-65482116D01*
X74761340Y-65393453D01*
X74842854Y-65305382D01*
X74921657Y-65220799D01*
X74995090Y-65142597D01*
X75060493Y-65073672D01*
X75115208Y-65016919D01*
X75156577Y-64975232D01*
X75170764Y-64961563D01*
X75217780Y-64917401D01*
X75241128Y-64953819D01*
G37*
X75241128Y-64953819D02*
X75252508Y-64972893D01*
X75278088Y-65016621D01*
X75316602Y-65082819D01*
X75366786Y-65169302D01*
X75427375Y-65273885D01*
X75497103Y-65394383D01*
X75574707Y-65528612D01*
X75658920Y-65674387D01*
X75748479Y-65829523D01*
X75840598Y-65989200D01*
X75934676Y-66152317D01*
X76025002Y-66308909D01*
X76110265Y-66456706D01*
X76189157Y-66593440D01*
X76260369Y-66716842D01*
X76322591Y-66824644D01*
X76374513Y-66914577D01*
X76414828Y-66984373D01*
X76442224Y-67031764D01*
X76455107Y-67053986D01*
X76476107Y-67091530D01*
X76487525Y-67115031D01*
X76488151Y-67119120D01*
X76474236Y-67111442D01*
X76435541Y-67089403D01*
X76374087Y-67054171D01*
X76291898Y-67006911D01*
X76190996Y-66948789D01*
X76073405Y-66880971D01*
X75941146Y-66804624D01*
X75796242Y-66720914D01*
X75640717Y-66631006D01*
X75476592Y-66536067D01*
X75414149Y-66499932D01*
X75247087Y-66403283D01*
X75087674Y-66311138D01*
X74937955Y-66224675D01*
X74799976Y-66145071D01*
X74675785Y-66073505D01*
X74567427Y-66011155D01*
X74476948Y-65959198D01*
X74406396Y-65918813D01*
X74357815Y-65891178D01*
X74333254Y-65877472D01*
X74330685Y-65876174D01*
X74338169Y-65864420D01*
X74364214Y-65832995D01*
X74406159Y-65784794D01*
X74461346Y-65722710D01*
X74527117Y-65649639D01*
X74600812Y-65568476D01*
X74679773Y-65482116D01*
X74761340Y-65393453D01*
X74842854Y-65305382D01*
X74921657Y-65220799D01*
X74995090Y-65142597D01*
X75060493Y-65073672D01*
X75115208Y-65016919D01*
X75156577Y-64975232D01*
X75170764Y-64961563D01*
X75217780Y-64917401D01*
X75241128Y-64953819D01*
G36*
X73417643Y-61805035D02*
G01*
X73440665Y-61842445D01*
X73476134Y-61901714D01*
X73522596Y-61980318D01*
X73578596Y-62075738D01*
X73642681Y-62185450D01*
X73713396Y-62306934D01*
X73789287Y-62437668D01*
X73868899Y-62575130D01*
X73950778Y-62716798D01*
X74033470Y-62860151D01*
X74115521Y-63002667D01*
X74195476Y-63141824D01*
X74271881Y-63275101D01*
X74343282Y-63399976D01*
X74408224Y-63513927D01*
X74465253Y-63614433D01*
X74512915Y-63698972D01*
X74549755Y-63765022D01*
X74574320Y-63810062D01*
X74585154Y-63831570D01*
X74585551Y-63832914D01*
X74572101Y-63851165D01*
X74534714Y-63879082D01*
X74477835Y-63913925D01*
X74405912Y-63952954D01*
X74330615Y-63990043D01*
X74228160Y-64035017D01*
X74120417Y-64075426D01*
X74003673Y-64112169D01*
X73874218Y-64146142D01*
X73728340Y-64178244D01*
X73562326Y-64209373D01*
X73372466Y-64240427D01*
X73176069Y-64269345D01*
X73005434Y-64295000D01*
X72862145Y-64320398D01*
X72742608Y-64346802D01*
X72643230Y-64375473D01*
X72560418Y-64407673D01*
X72490578Y-64444665D01*
X72430118Y-64487712D01*
X72375445Y-64538075D01*
X72357814Y-64556783D01*
X72319600Y-64600339D01*
X72291332Y-64635882D01*
X72278218Y-64656783D01*
X72277868Y-64658497D01*
X72273280Y-64669006D01*
X72257358Y-64669124D01*
X72226866Y-64657454D01*
X72178568Y-64632596D01*
X72109227Y-64593152D01*
X72061039Y-64564787D01*
X71989183Y-64520447D01*
X71933342Y-64482479D01*
X71897267Y-64453616D01*
X71884713Y-64436588D01*
X71884721Y-64436464D01*
X71892506Y-64420237D01*
X71914492Y-64379600D01*
X71949403Y-64316767D01*
X71995963Y-64233952D01*
X72052895Y-64133372D01*
X72118923Y-64017240D01*
X72192772Y-63887771D01*
X72273164Y-63747180D01*
X72358824Y-63597682D01*
X72448476Y-63441492D01*
X72540843Y-63280824D01*
X72634649Y-63117893D01*
X72728618Y-62954913D01*
X72821474Y-62794100D01*
X72911940Y-62637668D01*
X72998741Y-62487833D01*
X73080600Y-62346808D01*
X73156241Y-62216809D01*
X73224387Y-62100049D01*
X73283763Y-61998745D01*
X73333093Y-61915111D01*
X73371100Y-61851362D01*
X73396507Y-61809711D01*
X73408040Y-61792375D01*
X73408523Y-61792005D01*
X73417643Y-61805035D01*
G37*
X73417643Y-61805035D02*
X73440665Y-61842445D01*
X73476134Y-61901714D01*
X73522596Y-61980318D01*
X73578596Y-62075738D01*
X73642681Y-62185450D01*
X73713396Y-62306934D01*
X73789287Y-62437668D01*
X73868899Y-62575130D01*
X73950778Y-62716798D01*
X74033470Y-62860151D01*
X74115521Y-63002667D01*
X74195476Y-63141824D01*
X74271881Y-63275101D01*
X74343282Y-63399976D01*
X74408224Y-63513927D01*
X74465253Y-63614433D01*
X74512915Y-63698972D01*
X74549755Y-63765022D01*
X74574320Y-63810062D01*
X74585154Y-63831570D01*
X74585551Y-63832914D01*
X74572101Y-63851165D01*
X74534714Y-63879082D01*
X74477835Y-63913925D01*
X74405912Y-63952954D01*
X74330615Y-63990043D01*
X74228160Y-64035017D01*
X74120417Y-64075426D01*
X74003673Y-64112169D01*
X73874218Y-64146142D01*
X73728340Y-64178244D01*
X73562326Y-64209373D01*
X73372466Y-64240427D01*
X73176069Y-64269345D01*
X73005434Y-64295000D01*
X72862145Y-64320398D01*
X72742608Y-64346802D01*
X72643230Y-64375473D01*
X72560418Y-64407673D01*
X72490578Y-64444665D01*
X72430118Y-64487712D01*
X72375445Y-64538075D01*
X72357814Y-64556783D01*
X72319600Y-64600339D01*
X72291332Y-64635882D01*
X72278218Y-64656783D01*
X72277868Y-64658497D01*
X72273280Y-64669006D01*
X72257358Y-64669124D01*
X72226866Y-64657454D01*
X72178568Y-64632596D01*
X72109227Y-64593152D01*
X72061039Y-64564787D01*
X71989183Y-64520447D01*
X71933342Y-64482479D01*
X71897267Y-64453616D01*
X71884713Y-64436588D01*
X71884721Y-64436464D01*
X71892506Y-64420237D01*
X71914492Y-64379600D01*
X71949403Y-64316767D01*
X71995963Y-64233952D01*
X72052895Y-64133372D01*
X72118923Y-64017240D01*
X72192772Y-63887771D01*
X72273164Y-63747180D01*
X72358824Y-63597682D01*
X72448476Y-63441492D01*
X72540843Y-63280824D01*
X72634649Y-63117893D01*
X72728618Y-62954913D01*
X72821474Y-62794100D01*
X72911940Y-62637668D01*
X72998741Y-62487833D01*
X73080600Y-62346808D01*
X73156241Y-62216809D01*
X73224387Y-62100049D01*
X73283763Y-61998745D01*
X73333093Y-61915111D01*
X73371100Y-61851362D01*
X73396507Y-61809711D01*
X73408040Y-61792375D01*
X73408523Y-61792005D01*
X73417643Y-61805035D01*
D14*
X62079100Y-52285900D02*
G75*
G03*
X62079100Y-52285900I-700000J0D01*
G01*
X58674000Y-52959000D02*
X58674000Y-57023000D01*
X58420000Y-52451000D02*
X54864000Y-52451000D01*
X54610000Y-52959000D02*
X54610000Y-57023000D01*
X54864000Y-57531000D02*
X58420000Y-57531000D01*
D15*
G36*
X58928000Y-56261000D02*
G01*
X59436000Y-56007000D01*
X59436000Y-56515000D01*
X58928000Y-56261000D01*
G37*
X58928000Y-56261000D02*
X59436000Y-56007000D01*
X59436000Y-56515000D01*
X58928000Y-56261000D01*
D14*
X84366100Y-79895700D02*
X86652100Y-79895700D01*
X84366100Y-82943700D02*
X84366100Y-79895700D01*
X86652100Y-82943700D02*
X84366100Y-82943700D01*
X86652100Y-79895700D02*
X86652100Y-82943700D01*
X54815200Y-71031100D02*
X56275200Y-71031100D01*
X54813200Y-74460100D02*
X56973200Y-74460100D01*
X54813200Y-74460100D02*
X54813200Y-73530100D01*
X54815200Y-71031100D02*
X54815200Y-71961100D01*
D11*
X60807600Y-74764900D02*
X60807600Y-72464900D01*
X64160400Y-71183500D02*
X64160400Y-74764900D01*
X64160400Y-71183500D02*
X63068200Y-71183500D01*
X58661300Y-65506600D02*
X56661300Y-65506600D01*
X58659400Y-61976000D02*
X55600600Y-61976000D01*
X55600600Y-61976000D02*
X55600600Y-63195200D01*
X73738269Y-73259772D02*
X74497278Y-74018781D01*
X65198399Y-66138783D02*
X65675697Y-66616080D01*
X73468862Y-57976084D02*
X73946159Y-58453381D01*
X81514818Y-66004079D02*
X81037521Y-65526782D01*
X73379059Y-73618983D02*
X73024516Y-73264439D01*
X81514818Y-66004079D02*
X81037521Y-66481376D01*
X73468862Y-57976084D02*
X72991565Y-58453381D01*
X65198399Y-66138783D02*
X65675697Y-65661486D01*
X73738269Y-73259772D02*
X73379059Y-73618983D01*
X73024516Y-73264439D02*
X72732481Y-73556474D01*
D14*
X57505600Y-70662800D02*
X57505600Y-75904900D01*
X59588400Y-70662800D02*
X59588400Y-75904900D01*
X59588400Y-75904900D02*
X57505600Y-75904900D01*
X57505600Y-70662800D02*
X59588400Y-70662800D01*
X59588400Y-70942200D02*
X57505600Y-70942200D01*
X64084200Y-78054200D02*
X64084200Y-76377800D01*
X60883800Y-78054200D02*
X64084200Y-78054200D01*
X60883800Y-76377800D02*
X64084200Y-76377800D01*
X60883800Y-76377800D02*
X60883800Y-78054200D01*
X54787800Y-78257400D02*
X54787800Y-81788000D01*
X59766200Y-78257400D02*
X54787800Y-78257400D01*
X59766200Y-81788000D02*
X54787800Y-81788000D01*
X59766200Y-81788000D02*
X59766200Y-78257400D01*
X59766200Y-85572600D02*
X59766200Y-82042000D01*
X54787800Y-85572600D02*
X59766200Y-85572600D01*
X54787800Y-82042000D02*
X59766200Y-82042000D01*
X54787800Y-82042000D02*
X54787800Y-85572600D01*
X68656200Y-53136800D02*
X66979800Y-53136800D01*
X68656200Y-56337200D02*
X68656200Y-53136800D01*
X66979800Y-56337200D02*
X66979800Y-53136800D01*
X66979800Y-56337200D02*
X68656200Y-56337200D01*
X66878200Y-53136800D02*
X65201800Y-53136800D01*
X66878200Y-56337200D02*
X66878200Y-53136800D01*
X65201800Y-56337200D02*
X65201800Y-53136800D01*
X65201800Y-56337200D02*
X66878200Y-56337200D01*
X77396791Y-73182815D02*
X78582185Y-74368209D01*
X79659815Y-70919791D02*
X77396791Y-73182815D01*
X80845209Y-72105185D02*
X78582185Y-74368209D01*
X80845209Y-72105185D02*
X79659815Y-70919791D01*
X77546200Y-53136800D02*
X75869800Y-53136800D01*
X77546200Y-56337200D02*
X77546200Y-53136800D01*
X75869800Y-56337200D02*
X75869800Y-53136800D01*
X75869800Y-56337200D02*
X77546200Y-56337200D01*
X80952791Y-72166815D02*
X82138185Y-73352209D01*
X83215815Y-69903791D02*
X80952791Y-72166815D01*
X84401209Y-71089185D02*
X82138185Y-73352209D01*
X84401209Y-71089185D02*
X83215815Y-69903791D01*
X78666791Y-74452815D02*
X79852185Y-75638209D01*
X80929815Y-72189791D02*
X78666791Y-74452815D01*
X82115209Y-73375185D02*
X79852185Y-75638209D01*
X82115209Y-73375185D02*
X80929815Y-72189791D01*
X66929000Y-73990200D02*
X66929000Y-75666600D01*
X70129400Y-73990200D02*
X66929000Y-73990200D01*
X70129400Y-75666600D02*
X66929000Y-75666600D01*
X70129400Y-75666600D02*
X70129400Y-73990200D01*
X84104815Y-64335209D02*
X85290209Y-63149815D01*
X81841791Y-62072185D02*
X84104815Y-64335209D01*
X83027185Y-60886791D02*
X85290209Y-63149815D01*
X83027185Y-60886791D02*
X81841791Y-62072185D01*
X82222791Y-73436815D02*
X83408185Y-74622209D01*
X84485815Y-71173791D02*
X82222791Y-73436815D01*
X85671209Y-72359185D02*
X83408185Y-74622209D01*
X85671209Y-72359185D02*
X84485815Y-71173791D01*
X68503800Y-75717400D02*
X68503800Y-77393800D01*
X71704200Y-75717400D02*
X68503800Y-75717400D01*
X71704200Y-77393800D02*
X68503800Y-77393800D01*
X71704200Y-77393800D02*
X71704200Y-75717400D01*
X59258200Y-68021200D02*
X59258200Y-66344800D01*
X56057800Y-68021200D02*
X59258200Y-68021200D01*
X56057800Y-66344800D02*
X59258200Y-66344800D01*
X56057800Y-66344800D02*
X56057800Y-68021200D01*
X62687200Y-59639200D02*
X62687200Y-57962800D01*
X59486800Y-59639200D02*
X62687200Y-59639200D01*
X59486800Y-57962800D02*
X62687200Y-57962800D01*
X59486800Y-57962800D02*
X59486800Y-59639200D01*
X59867800Y-63931800D02*
X59867800Y-65608200D01*
X63068200Y-63931800D02*
X59867800Y-63931800D01*
X63068200Y-65608200D02*
X59867800Y-65608200D01*
X63068200Y-65608200D02*
X63068200Y-63931800D01*
X61391800Y-67995800D02*
X61391800Y-69672200D01*
X64592200Y-67995800D02*
X61391800Y-67995800D01*
X64592200Y-69672200D02*
X61391800Y-69672200D01*
X64592200Y-69672200D02*
X64592200Y-67995800D01*
X64401700Y-77393800D02*
X66078100Y-77393800D01*
X64401700Y-74193400D02*
X64401700Y-77393800D01*
X66078100Y-74193400D02*
X66078100Y-77393800D01*
X66078100Y-74193400D02*
X64401700Y-74193400D01*
X61391800Y-66217800D02*
X61391800Y-67894200D01*
X64592200Y-66217800D02*
X61391800Y-66217800D01*
X64592200Y-67894200D02*
X61391800Y-67894200D01*
X64592200Y-67894200D02*
X64592200Y-66217800D01*
X58877200Y-61544200D02*
X58877200Y-59867800D01*
X55676800Y-61544200D02*
X58877200Y-61544200D01*
X55676800Y-59867800D02*
X58877200Y-59867800D01*
X55676800Y-59867800D02*
X55676800Y-61544200D01*
X72212200Y-53136800D02*
X70535800Y-53136800D01*
X72212200Y-56337200D02*
X72212200Y-53136800D01*
X70535800Y-56337200D02*
X70535800Y-53136800D01*
X70535800Y-56337200D02*
X72212200Y-56337200D01*
X75768200Y-53136800D02*
X74091800Y-53136800D01*
X75768200Y-56337200D02*
X75768200Y-53136800D01*
X74091800Y-56337200D02*
X74091800Y-53136800D01*
X74091800Y-56337200D02*
X75768200Y-56337200D01*
X65100200Y-53136800D02*
X63423800Y-53136800D01*
X65100200Y-56337200D02*
X65100200Y-53136800D01*
X63423800Y-56337200D02*
X63423800Y-53136800D01*
X63423800Y-56337200D02*
X65100200Y-56337200D01*
X73990200Y-53136800D02*
X72313800Y-53136800D01*
X73990200Y-56337200D02*
X73990200Y-53136800D01*
X72313800Y-56337200D02*
X72313800Y-53136800D01*
X72313800Y-56337200D02*
X73990200Y-56337200D01*
X70434200Y-53136800D02*
X68757800Y-53136800D01*
X70434200Y-56337200D02*
X70434200Y-53136800D01*
X68757800Y-56337200D02*
X68757800Y-53136800D01*
X68757800Y-56337200D02*
X70434200Y-56337200D01*
X63952751Y-60718855D02*
X65138145Y-61904249D01*
X66179855Y-58491751D02*
X63952751Y-60718855D01*
X67365249Y-59677145D02*
X65138145Y-61904249D01*
X67365249Y-59677145D02*
X66179855Y-58491751D01*
X81457800Y-50850800D02*
X83134200Y-50850800D01*
X81457800Y-47701200D02*
X81457800Y-50850800D01*
X83134200Y-47701200D02*
X83134200Y-50850800D01*
X83134200Y-47701200D02*
X81457800Y-47701200D01*
X68592855Y-73778749D02*
X69778249Y-72593355D01*
X66365751Y-71551645D02*
X68592855Y-73778749D01*
X67551145Y-70366251D02*
X69778249Y-72593355D01*
X67551145Y-70366251D02*
X66365751Y-71551645D01*
X81927700Y-58978800D02*
X81927700Y-60655200D01*
X85077300Y-58978800D02*
X81927700Y-58978800D01*
X85077300Y-60655200D02*
X81927700Y-60655200D01*
X85077300Y-60655200D02*
X85077300Y-58978800D01*
X85140800Y-54305200D02*
X85140800Y-52628800D01*
X81991200Y-54305200D02*
X85140800Y-54305200D01*
X81991200Y-52628800D02*
X85140800Y-52628800D01*
X81991200Y-52628800D02*
X81991200Y-54305200D01*
X65222751Y-61988855D02*
X66408145Y-63174249D01*
X67449855Y-59761751D02*
X65222751Y-61988855D01*
X68635249Y-60947145D02*
X66408145Y-63174249D01*
X68635249Y-60947145D02*
X67449855Y-59761751D01*
X57797700Y-47764700D02*
X56121300Y-47764700D01*
X57797700Y-50914300D02*
X57797700Y-47764700D01*
X56121300Y-50914300D02*
X56121300Y-47764700D01*
X56121300Y-50914300D02*
X57797700Y-50914300D01*
X55448200Y-47764700D02*
X53771800Y-47764700D01*
X55448200Y-50914300D02*
X55448200Y-47764700D01*
X53771800Y-50914300D02*
X53771800Y-47764700D01*
X53771800Y-50914300D02*
X55448200Y-50914300D01*
X80467355Y-63237749D02*
X81652749Y-62052355D01*
X78240251Y-61010645D02*
X80467355Y-63237749D01*
X79425645Y-59825251D02*
X81652749Y-62052355D01*
X79425645Y-59825251D02*
X78240251Y-61010645D01*
X83362800Y-50850800D02*
X85039200Y-50850800D01*
X83362800Y-47701200D02*
X83362800Y-50850800D01*
X85039200Y-47701200D02*
X85039200Y-50850800D01*
X85039200Y-47701200D02*
X83362800Y-47701200D01*
X83896200Y-75133200D02*
X82219800Y-75133200D01*
X83896200Y-78282800D02*
X83896200Y-75133200D01*
X82219800Y-78282800D02*
X82219800Y-75133200D01*
X82219800Y-78282800D02*
X83896200Y-78282800D01*
X82816855Y-65587249D02*
X84002249Y-64401855D01*
X80589751Y-63360145D02*
X82816855Y-65587249D01*
X81775145Y-62174751D02*
X84002249Y-64401855D01*
X81775145Y-62174751D02*
X80589751Y-63360145D01*
X85928200Y-66751200D02*
X84251800Y-66751200D01*
X85928200Y-69900800D02*
X85928200Y-66751200D01*
X84251800Y-69900800D02*
X84251800Y-66751200D01*
X84251800Y-69900800D02*
X85928200Y-69900800D01*
X68529200Y-77495400D02*
X68529200Y-79171800D01*
X71678800Y-77495400D02*
X68529200Y-77495400D01*
X71678800Y-79171800D02*
X68529200Y-79171800D01*
X71678800Y-79171800D02*
X71678800Y-77495400D01*
X59512200Y-59867800D02*
X59512200Y-61544200D01*
X62661800Y-59867800D02*
X59512200Y-59867800D01*
X62661800Y-61544200D02*
X59512200Y-61544200D01*
X62661800Y-61544200D02*
X62661800Y-59867800D01*
X58851800Y-59461400D02*
X58851800Y-57785000D01*
X55702200Y-59461400D02*
X58851800Y-59461400D01*
X55702200Y-57785000D02*
X58851800Y-57785000D01*
X55702200Y-57785000D02*
X55702200Y-59461400D01*
X56337200Y-76377800D02*
X56337200Y-78054200D01*
X59486800Y-76377800D02*
X56337200Y-76377800D01*
X59486800Y-78054200D02*
X56337200Y-78054200D01*
X59486800Y-78054200D02*
X59486800Y-76377800D01*
X56083200Y-68122800D02*
X56083200Y-69799200D01*
X59232800Y-68122800D02*
X56083200Y-68122800D01*
X59232800Y-69799200D02*
X56083200Y-69799200D01*
X59232800Y-69799200D02*
X59232800Y-68122800D01*
X60909200Y-78155800D02*
X60909200Y-79832200D01*
X64058800Y-78155800D02*
X60909200Y-78155800D01*
X64058800Y-79832200D02*
X60909200Y-79832200D01*
X64058800Y-79832200D02*
X64058800Y-78155800D01*
X64782855Y-64317249D02*
X65968249Y-63131855D01*
X62555751Y-62090145D02*
X64782855Y-64317249D01*
X63741145Y-60904751D02*
X65968249Y-63131855D01*
X63741145Y-60904751D02*
X62555751Y-62090145D01*
X83113249Y-69837145D02*
X81927855Y-68651751D01*
X80886145Y-72064249D02*
X83113249Y-69837145D01*
X79700751Y-70878855D02*
X81927855Y-68651751D01*
X79700751Y-70878855D02*
X80886145Y-72064249D01*
X59740800Y-55092600D02*
X59740800Y-56769000D01*
X62890400Y-55092600D02*
X59740800Y-55092600D01*
X62890400Y-56769000D02*
X59740800Y-56769000D01*
X62890400Y-56769000D02*
X62890400Y-55092600D01*
D11*
X80995000Y-50961000D02*
X80995000Y-47659000D01*
X58770000Y-50961000D02*
X58770000Y-47659000D01*
X58389000Y-50961000D02*
X58389000Y-47659000D01*
X58389000Y-50961000D02*
X80995000Y-50961000D01*
X58389000Y-47659000D02*
X80995000Y-47659000D01*
D14*
X83042000Y-54942000D02*
X81242000Y-54942000D01*
X83042000Y-58542000D02*
X81242000Y-58542000D01*
X85442000Y-54542000D02*
X84392000Y-54542000D01*
X85442000Y-55542000D02*
X85442000Y-54542000D01*
X72967000Y-85885000D02*
X71812000Y-85885000D01*
X72967000Y-83885000D02*
X72967000Y-85885000D01*
X81597000Y-83885000D02*
X72967000Y-83885000D01*
X81597000Y-85885000D02*
X81597000Y-83885000D01*
X82752000Y-85885000D02*
X81597000Y-85885000D01*
X70797000Y-79565000D02*
X72972000Y-79565000D01*
X70797000Y-83695000D02*
X70797000Y-79565000D01*
X81592000Y-79565000D02*
X81592000Y-79165000D01*
X83767000Y-79565000D02*
X81592000Y-79565000D01*
X83767000Y-83695000D02*
X83767000Y-79565000D01*
X63082000Y-80797500D02*
X63082000Y-81247500D01*
X63082000Y-80797500D02*
X63532000Y-80797500D01*
X68682000Y-81347500D02*
X68232000Y-81347500D01*
X68682000Y-83197500D02*
X68682000Y-81347500D01*
X60882000Y-85747500D02*
X60882000Y-85497500D01*
X68682000Y-85747500D02*
X68682000Y-85497500D01*
X60882000Y-83197500D02*
X60882000Y-81347500D01*
X60882000Y-81347500D02*
X61332000Y-81347500D01*
X54959457Y-51682657D02*
X55073742Y-51720752D01*
X55111838Y-51758847D01*
X55149933Y-51835038D01*
X55149933Y-51949323D01*
X55111838Y-52025514D01*
X55073742Y-52063609D01*
X54997552Y-52101704D01*
X54692790Y-52101704D01*
X54692790Y-51301704D01*
X54959457Y-51301704D01*
X55035647Y-51339800D01*
X55073742Y-51377895D01*
X55111838Y-51454085D01*
X55111838Y-51530276D01*
X55073742Y-51606466D01*
X55035647Y-51644561D01*
X54959457Y-51682657D01*
X54692790Y-51682657D01*
X55835647Y-52101704D02*
X55835647Y-51682657D01*
X55797552Y-51606466D01*
X55721361Y-51568371D01*
X55568980Y-51568371D01*
X55492790Y-51606466D01*
X55835647Y-52063609D02*
X55759457Y-52101704D01*
X55568980Y-52101704D01*
X55492790Y-52063609D01*
X55454695Y-51987419D01*
X55454695Y-51911228D01*
X55492790Y-51835038D01*
X55568980Y-51796942D01*
X55759457Y-51796942D01*
X55835647Y-51758847D01*
X56102314Y-51568371D02*
X56407076Y-51568371D01*
X56216600Y-51301704D02*
X56216600Y-51987419D01*
X56254695Y-52063609D01*
X56330885Y-52101704D01*
X56407076Y-52101704D01*
X56559457Y-51568371D02*
X56864219Y-51568371D01*
X56673742Y-51301704D02*
X56673742Y-51987419D01*
X56711838Y-52063609D01*
X56788028Y-52101704D01*
X56864219Y-52101704D01*
X57435647Y-52063609D02*
X57359457Y-52101704D01*
X57207076Y-52101704D01*
X57130885Y-52063609D01*
X57092790Y-51987419D01*
X57092790Y-51682657D01*
X57130885Y-51606466D01*
X57207076Y-51568371D01*
X57359457Y-51568371D01*
X57435647Y-51606466D01*
X57473742Y-51682657D01*
X57473742Y-51758847D01*
X57092790Y-51835038D01*
X57816600Y-52101704D02*
X57816600Y-51568371D01*
X57816600Y-51720752D02*
X57854695Y-51644561D01*
X57892790Y-51606466D01*
X57968980Y-51568371D01*
X58045171Y-51568371D01*
X58235647Y-51568371D02*
X58426123Y-52101704D01*
X58616600Y-51568371D02*
X58426123Y-52101704D01*
X58349933Y-52292180D01*
X58311838Y-52330276D01*
X58235647Y-52368371D01*
D11*
X54949733Y-70754033D02*
X54883066Y-70720700D01*
X54816400Y-70654033D01*
X54716400Y-70554033D01*
X54649733Y-70520700D01*
X54583066Y-70520700D01*
X54616400Y-70687366D02*
X54549733Y-70654033D01*
X54483066Y-70587366D01*
X54449733Y-70454033D01*
X54449733Y-70220700D01*
X54483066Y-70087366D01*
X54549733Y-70020700D01*
X54616400Y-69987366D01*
X54749733Y-69987366D01*
X54816400Y-70020700D01*
X54883066Y-70087366D01*
X54916400Y-70220700D01*
X54916400Y-70454033D01*
X54883066Y-70587366D01*
X54816400Y-70654033D01*
X54749733Y-70687366D01*
X54616400Y-70687366D01*
X55583066Y-70687366D02*
X55183066Y-70687366D01*
X55383066Y-70687366D02*
X55383066Y-69987366D01*
X55316400Y-70087366D01*
X55249733Y-70154033D01*
X55183066Y-70187366D01*
X61950666Y-73276666D02*
X61950666Y-73843333D01*
X61984000Y-73910000D01*
X62017333Y-73943333D01*
X62084000Y-73976666D01*
X62217333Y-73976666D01*
X62284000Y-73943333D01*
X62317333Y-73910000D01*
X62350666Y-73843333D01*
X62350666Y-73276666D01*
X62617333Y-73276666D02*
X63050666Y-73276666D01*
X62817333Y-73543333D01*
X62917333Y-73543333D01*
X62984000Y-73576666D01*
X63017333Y-73610000D01*
X63050666Y-73676666D01*
X63050666Y-73843333D01*
X63017333Y-73910000D01*
X62984000Y-73943333D01*
X62917333Y-73976666D01*
X62717333Y-73976666D01*
X62650666Y-73943333D01*
X62617333Y-73910000D01*
X54267166Y-64170766D02*
X54267166Y-64737433D01*
X54300500Y-64804100D01*
X54333833Y-64837433D01*
X54400500Y-64870766D01*
X54533833Y-64870766D01*
X54600500Y-64837433D01*
X54633833Y-64804100D01*
X54667166Y-64737433D01*
X54667166Y-64170766D01*
X55300500Y-64404100D02*
X55300500Y-64870766D01*
X55133833Y-64137433D02*
X54967166Y-64637433D01*
X55400500Y-64637433D01*
X72656795Y-74102980D02*
X72656795Y-74912504D01*
X72704414Y-75007742D01*
X72752033Y-75055361D01*
X72847271Y-75102980D01*
X73037747Y-75102980D01*
X73132985Y-75055361D01*
X73180604Y-75007742D01*
X73228223Y-74912504D01*
X73228223Y-74102980D01*
X73656795Y-74198219D02*
X73704414Y-74150600D01*
X73799652Y-74102980D01*
X74037747Y-74102980D01*
X74132985Y-74150600D01*
X74180604Y-74198219D01*
X74228223Y-74293457D01*
X74228223Y-74388695D01*
X74180604Y-74531552D01*
X73609176Y-75102980D01*
X74228223Y-75102980D01*
X58055733Y-73621066D02*
X58055733Y-72921066D01*
X58222400Y-72921066D01*
X58322400Y-72954400D01*
X58389066Y-73021066D01*
X58422400Y-73087733D01*
X58455733Y-73221066D01*
X58455733Y-73321066D01*
X58422400Y-73454400D01*
X58389066Y-73521066D01*
X58322400Y-73587733D01*
X58222400Y-73621066D01*
X58055733Y-73621066D01*
X59122400Y-73621066D02*
X58722400Y-73621066D01*
X58922400Y-73621066D02*
X58922400Y-72921066D01*
X58855733Y-73021066D01*
X58789066Y-73087733D01*
X58722400Y-73121066D01*
D16*
X65018500Y-78878866D02*
X64785166Y-78545533D01*
X64618500Y-78878866D02*
X64618500Y-78178866D01*
X64885166Y-78178866D01*
X64951833Y-78212200D01*
X64985166Y-78245533D01*
X65018500Y-78312200D01*
X65018500Y-78412200D01*
X64985166Y-78478866D01*
X64951833Y-78512200D01*
X64885166Y-78545533D01*
X64618500Y-78545533D01*
X65685166Y-78878866D02*
X65285166Y-78878866D01*
X65485166Y-78878866D02*
X65485166Y-78178866D01*
X65418500Y-78278866D01*
X65351833Y-78345533D01*
X65285166Y-78378866D01*
X66318500Y-78178866D02*
X65985166Y-78178866D01*
X65951833Y-78512200D01*
X65985166Y-78478866D01*
X66051833Y-78445533D01*
X66218500Y-78445533D01*
X66285166Y-78478866D01*
X66318500Y-78512200D01*
X66351833Y-78578866D01*
X66351833Y-78745533D01*
X66318500Y-78812200D01*
X66285166Y-78845533D01*
X66218500Y-78878866D01*
X66051833Y-78878866D01*
X65985166Y-78845533D01*
X65951833Y-78812200D01*
D11*
X57593666Y-80126666D02*
X57593666Y-80460000D01*
X56893666Y-80460000D01*
X57593666Y-79526666D02*
X57593666Y-79926666D01*
X57593666Y-79726666D02*
X56893666Y-79726666D01*
X56993666Y-79793333D01*
X57060333Y-79860000D01*
X57093666Y-79926666D01*
X57593666Y-83936666D02*
X57593666Y-84270000D01*
X56893666Y-84270000D01*
X56960333Y-83736666D02*
X56927000Y-83703333D01*
X56893666Y-83636666D01*
X56893666Y-83470000D01*
X56927000Y-83403333D01*
X56960333Y-83370000D01*
X57027000Y-83336666D01*
X57093666Y-83336666D01*
X57193666Y-83370000D01*
X57593666Y-83770000D01*
X57593666Y-83336666D01*
D16*
X68134666Y-52567666D02*
X67801333Y-52801000D01*
X68134666Y-52967666D02*
X67434666Y-52967666D01*
X67434666Y-52701000D01*
X67468000Y-52634333D01*
X67501333Y-52601000D01*
X67568000Y-52567666D01*
X67668000Y-52567666D01*
X67734666Y-52601000D01*
X67768000Y-52634333D01*
X67801333Y-52701000D01*
X67801333Y-52967666D01*
X68134666Y-51901000D02*
X68134666Y-52301000D01*
X68134666Y-52101000D02*
X67434666Y-52101000D01*
X67534666Y-52167666D01*
X67601333Y-52234333D01*
X67634666Y-52301000D01*
X66356666Y-52567666D02*
X66023333Y-52801000D01*
X66356666Y-52967666D02*
X65656666Y-52967666D01*
X65656666Y-52701000D01*
X65690000Y-52634333D01*
X65723333Y-52601000D01*
X65790000Y-52567666D01*
X65890000Y-52567666D01*
X65956666Y-52601000D01*
X65990000Y-52634333D01*
X66023333Y-52701000D01*
X66023333Y-52967666D01*
X65723333Y-52301000D02*
X65690000Y-52267666D01*
X65656666Y-52201000D01*
X65656666Y-52034333D01*
X65690000Y-51967666D01*
X65723333Y-51934333D01*
X65790000Y-51901000D01*
X65856666Y-51901000D01*
X65956666Y-51934333D01*
X66356666Y-52334333D01*
X66356666Y-51901000D01*
X78373422Y-71934412D02*
X77972728Y-71863702D01*
X78090579Y-72217255D02*
X77595604Y-71722280D01*
X77784166Y-71533719D01*
X77854877Y-71510148D01*
X77902017Y-71510148D01*
X77972728Y-71533719D01*
X78043439Y-71604429D01*
X78067009Y-71675140D01*
X78067009Y-71722280D01*
X78043439Y-71792991D01*
X77854877Y-71981553D01*
X78043439Y-71274446D02*
X78349852Y-70968033D01*
X78373422Y-71321587D01*
X78444133Y-71250876D01*
X78514843Y-71227306D01*
X78561984Y-71227306D01*
X78632694Y-71250876D01*
X78750545Y-71368727D01*
X78774116Y-71439438D01*
X78774116Y-71486578D01*
X78750545Y-71557289D01*
X78609124Y-71698710D01*
X78538413Y-71722280D01*
X78491273Y-71722280D01*
X77024666Y-52567666D02*
X76691333Y-52801000D01*
X77024666Y-52967666D02*
X76324666Y-52967666D01*
X76324666Y-52701000D01*
X76358000Y-52634333D01*
X76391333Y-52601000D01*
X76458000Y-52567666D01*
X76558000Y-52567666D01*
X76624666Y-52601000D01*
X76658000Y-52634333D01*
X76691333Y-52701000D01*
X76691333Y-52967666D01*
X76558000Y-51967666D02*
X77024666Y-51967666D01*
X76291333Y-52134333D02*
X76791333Y-52301000D01*
X76791333Y-51867666D01*
X85752121Y-71070812D02*
X85351427Y-71000102D01*
X85469278Y-71353655D02*
X84974303Y-70858680D01*
X85162865Y-70670119D01*
X85233576Y-70646548D01*
X85280716Y-70646548D01*
X85351427Y-70670119D01*
X85422138Y-70740829D01*
X85445708Y-70811540D01*
X85445708Y-70858680D01*
X85422138Y-70929391D01*
X85233576Y-71117953D01*
X85704980Y-70128003D02*
X85469278Y-70363706D01*
X85681410Y-70622978D01*
X85681410Y-70575838D01*
X85704980Y-70505127D01*
X85822832Y-70387276D01*
X85893542Y-70363706D01*
X85940683Y-70363706D01*
X86011393Y-70387276D01*
X86129244Y-70505127D01*
X86152815Y-70575838D01*
X86152815Y-70622978D01*
X86129244Y-70693689D01*
X86011393Y-70811540D01*
X85940683Y-70835110D01*
X85893542Y-70835110D01*
X81548421Y-75236412D02*
X81147727Y-75165702D01*
X81265578Y-75519255D02*
X80770603Y-75024280D01*
X80959165Y-74835719D01*
X81029876Y-74812148D01*
X81077016Y-74812148D01*
X81147727Y-74835719D01*
X81218438Y-74906429D01*
X81242008Y-74977140D01*
X81242008Y-75024280D01*
X81218438Y-75094991D01*
X81029876Y-75283553D01*
X81477710Y-74317174D02*
X81383429Y-74411455D01*
X81359859Y-74482165D01*
X81359859Y-74529306D01*
X81383429Y-74647157D01*
X81454140Y-74765008D01*
X81642702Y-74953570D01*
X81713412Y-74977140D01*
X81760553Y-74977140D01*
X81831264Y-74953570D01*
X81925544Y-74859289D01*
X81949115Y-74788578D01*
X81949115Y-74741438D01*
X81925544Y-74670727D01*
X81807693Y-74552876D01*
X81736983Y-74529306D01*
X81689842Y-74529306D01*
X81619132Y-74552876D01*
X81524851Y-74647157D01*
X81501280Y-74717867D01*
X81501280Y-74765008D01*
X81524851Y-74835719D01*
X70800133Y-75145066D02*
X70566800Y-74811733D01*
X70400133Y-75145066D02*
X70400133Y-74445066D01*
X70666800Y-74445066D01*
X70733466Y-74478400D01*
X70766800Y-74511733D01*
X70800133Y-74578400D01*
X70800133Y-74678400D01*
X70766800Y-74745066D01*
X70733466Y-74778400D01*
X70666800Y-74811733D01*
X70400133Y-74811733D01*
X71033466Y-74445066D02*
X71500133Y-74445066D01*
X71200133Y-75145066D01*
X84910587Y-64530421D02*
X84981297Y-64129727D01*
X84627744Y-64247578D02*
X85122719Y-63752603D01*
X85311280Y-63941165D01*
X85334851Y-64011876D01*
X85334851Y-64059016D01*
X85311280Y-64129727D01*
X85240570Y-64200438D01*
X85169859Y-64224008D01*
X85122719Y-64224008D01*
X85052008Y-64200438D01*
X84863446Y-64011876D01*
X85476272Y-64530421D02*
X85452702Y-64459710D01*
X85452702Y-64412570D01*
X85476272Y-64341859D01*
X85499842Y-64318289D01*
X85570553Y-64294719D01*
X85617693Y-64294719D01*
X85688404Y-64318289D01*
X85782685Y-64412570D01*
X85806255Y-64483280D01*
X85806255Y-64530421D01*
X85782685Y-64601132D01*
X85759115Y-64624702D01*
X85688404Y-64648272D01*
X85641264Y-64648272D01*
X85570553Y-64624702D01*
X85476272Y-64530421D01*
X85405561Y-64506851D01*
X85358421Y-64506851D01*
X85287710Y-64530421D01*
X85193429Y-64624702D01*
X85169859Y-64695412D01*
X85169859Y-64742553D01*
X85193429Y-64813264D01*
X85287710Y-64907544D01*
X85358421Y-64931115D01*
X85405561Y-64931115D01*
X85476272Y-64907544D01*
X85570553Y-64813264D01*
X85594123Y-64742553D01*
X85594123Y-64695412D01*
X85570553Y-64624702D01*
X85130131Y-74246122D02*
X84729437Y-74175412D01*
X84847288Y-74528965D02*
X84352313Y-74033990D01*
X84540875Y-73845429D01*
X84611586Y-73821858D01*
X84658726Y-73821858D01*
X84729437Y-73845429D01*
X84800148Y-73916139D01*
X84823718Y-73986850D01*
X84823718Y-74033990D01*
X84800148Y-74104701D01*
X84611586Y-74293263D01*
X85365833Y-74010420D02*
X85460114Y-73916139D01*
X85483684Y-73845429D01*
X85483684Y-73798288D01*
X85460114Y-73680437D01*
X85389403Y-73562586D01*
X85200842Y-73374024D01*
X85130131Y-73350454D01*
X85082990Y-73350454D01*
X85012280Y-73374024D01*
X84917999Y-73468305D01*
X84894429Y-73539016D01*
X84894429Y-73586156D01*
X84917999Y-73656867D01*
X85035850Y-73774718D01*
X85106561Y-73798288D01*
X85153701Y-73798288D01*
X85224412Y-73774718D01*
X85318693Y-73680437D01*
X85342263Y-73609726D01*
X85342263Y-73562586D01*
X85318693Y-73491875D01*
X66961600Y-76872266D02*
X66728266Y-76538933D01*
X66561600Y-76872266D02*
X66561600Y-76172266D01*
X66828266Y-76172266D01*
X66894933Y-76205600D01*
X66928266Y-76238933D01*
X66961600Y-76305600D01*
X66961600Y-76405600D01*
X66928266Y-76472266D01*
X66894933Y-76505600D01*
X66828266Y-76538933D01*
X66561600Y-76538933D01*
X67628266Y-76872266D02*
X67228266Y-76872266D01*
X67428266Y-76872266D02*
X67428266Y-76172266D01*
X67361600Y-76272266D01*
X67294933Y-76338933D01*
X67228266Y-76372266D01*
X68061600Y-76172266D02*
X68128266Y-76172266D01*
X68194933Y-76205600D01*
X68228266Y-76238933D01*
X68261600Y-76305600D01*
X68294933Y-76438933D01*
X68294933Y-76605600D01*
X68261600Y-76738933D01*
X68228266Y-76805600D01*
X68194933Y-76838933D01*
X68128266Y-76872266D01*
X68061600Y-76872266D01*
X67994933Y-76838933D01*
X67961600Y-76805600D01*
X67928266Y-76738933D01*
X67894933Y-76605600D01*
X67894933Y-76438933D01*
X67928266Y-76305600D01*
X67961600Y-76238933D01*
X67994933Y-76205600D01*
X68061600Y-76172266D01*
X54477500Y-67499666D02*
X54244166Y-67166333D01*
X54077500Y-67499666D02*
X54077500Y-66799666D01*
X54344166Y-66799666D01*
X54410833Y-66833000D01*
X54444166Y-66866333D01*
X54477500Y-66933000D01*
X54477500Y-67033000D01*
X54444166Y-67099666D01*
X54410833Y-67133000D01*
X54344166Y-67166333D01*
X54077500Y-67166333D01*
X55144166Y-67499666D02*
X54744166Y-67499666D01*
X54944166Y-67499666D02*
X54944166Y-66799666D01*
X54877500Y-66899666D01*
X54810833Y-66966333D01*
X54744166Y-66999666D01*
X55810833Y-67499666D02*
X55410833Y-67499666D01*
X55610833Y-67499666D02*
X55610833Y-66799666D01*
X55544166Y-66899666D01*
X55477500Y-66966333D01*
X55410833Y-66999666D01*
X60637000Y-57733366D02*
X60403666Y-57400033D01*
X60237000Y-57733366D02*
X60237000Y-57033366D01*
X60503666Y-57033366D01*
X60570333Y-57066700D01*
X60603666Y-57100033D01*
X60637000Y-57166700D01*
X60637000Y-57266700D01*
X60603666Y-57333366D01*
X60570333Y-57366700D01*
X60503666Y-57400033D01*
X60237000Y-57400033D01*
X61303666Y-57733366D02*
X60903666Y-57733366D01*
X61103666Y-57733366D02*
X61103666Y-57033366D01*
X61037000Y-57133366D01*
X60970333Y-57200033D01*
X60903666Y-57233366D01*
X61570333Y-57100033D02*
X61603666Y-57066700D01*
X61670333Y-57033366D01*
X61837000Y-57033366D01*
X61903666Y-57066700D01*
X61937000Y-57100033D01*
X61970333Y-57166700D01*
X61970333Y-57233366D01*
X61937000Y-57333366D01*
X61537000Y-57733366D01*
X61970333Y-57733366D01*
X61018000Y-63689666D02*
X60784666Y-63356333D01*
X60618000Y-63689666D02*
X60618000Y-62989666D01*
X60884666Y-62989666D01*
X60951333Y-63023000D01*
X60984666Y-63056333D01*
X61018000Y-63123000D01*
X61018000Y-63223000D01*
X60984666Y-63289666D01*
X60951333Y-63323000D01*
X60884666Y-63356333D01*
X60618000Y-63356333D01*
X61684666Y-63689666D02*
X61284666Y-63689666D01*
X61484666Y-63689666D02*
X61484666Y-62989666D01*
X61418000Y-63089666D01*
X61351333Y-63156333D01*
X61284666Y-63189666D01*
X61918000Y-62989666D02*
X62351333Y-62989666D01*
X62118000Y-63256333D01*
X62218000Y-63256333D01*
X62284666Y-63289666D01*
X62318000Y-63323000D01*
X62351333Y-63389666D01*
X62351333Y-63556333D01*
X62318000Y-63623000D01*
X62284666Y-63656333D01*
X62218000Y-63689666D01*
X62018000Y-63689666D01*
X61951333Y-63656333D01*
X61918000Y-63623000D01*
X59849600Y-69874566D02*
X59616266Y-69541233D01*
X59449600Y-69874566D02*
X59449600Y-69174566D01*
X59716266Y-69174566D01*
X59782933Y-69207900D01*
X59816266Y-69241233D01*
X59849600Y-69307900D01*
X59849600Y-69407900D01*
X59816266Y-69474566D01*
X59782933Y-69507900D01*
X59716266Y-69541233D01*
X59449600Y-69541233D01*
X60516266Y-69874566D02*
X60116266Y-69874566D01*
X60316266Y-69874566D02*
X60316266Y-69174566D01*
X60249600Y-69274566D01*
X60182933Y-69341233D01*
X60116266Y-69374566D01*
X61116266Y-69407900D02*
X61116266Y-69874566D01*
X60949600Y-69141233D02*
X60782933Y-69641233D01*
X61216266Y-69641233D01*
X64916900Y-73875066D02*
X64683566Y-73541733D01*
X64516900Y-73875066D02*
X64516900Y-73175066D01*
X64783566Y-73175066D01*
X64850233Y-73208400D01*
X64883566Y-73241733D01*
X64916900Y-73308400D01*
X64916900Y-73408400D01*
X64883566Y-73475066D01*
X64850233Y-73508400D01*
X64783566Y-73541733D01*
X64516900Y-73541733D01*
X65583566Y-73875066D02*
X65183566Y-73875066D01*
X65383566Y-73875066D02*
X65383566Y-73175066D01*
X65316900Y-73275066D01*
X65250233Y-73341733D01*
X65183566Y-73375066D01*
X66183566Y-73175066D02*
X66050233Y-73175066D01*
X65983566Y-73208400D01*
X65950233Y-73241733D01*
X65883566Y-73341733D01*
X65850233Y-73475066D01*
X65850233Y-73741733D01*
X65883566Y-73808400D01*
X65916900Y-73841733D01*
X65983566Y-73875066D01*
X66116900Y-73875066D01*
X66183566Y-73841733D01*
X66216900Y-73808400D01*
X66250233Y-73741733D01*
X66250233Y-73575066D01*
X66216900Y-73508400D01*
X66183566Y-73475066D01*
X66116900Y-73441733D01*
X65983566Y-73441733D01*
X65916900Y-73475066D01*
X65883566Y-73508400D01*
X65850233Y-73575066D01*
X59862300Y-68896666D02*
X59628966Y-68563333D01*
X59462300Y-68896666D02*
X59462300Y-68196666D01*
X59728966Y-68196666D01*
X59795633Y-68230000D01*
X59828966Y-68263333D01*
X59862300Y-68330000D01*
X59862300Y-68430000D01*
X59828966Y-68496666D01*
X59795633Y-68530000D01*
X59728966Y-68563333D01*
X59462300Y-68563333D01*
X60528966Y-68896666D02*
X60128966Y-68896666D01*
X60328966Y-68896666D02*
X60328966Y-68196666D01*
X60262300Y-68296666D01*
X60195633Y-68363333D01*
X60128966Y-68396666D01*
X60762300Y-68196666D02*
X61228966Y-68196666D01*
X60928966Y-68896666D01*
X53639300Y-61022666D02*
X53405966Y-60689333D01*
X53239300Y-61022666D02*
X53239300Y-60322666D01*
X53505966Y-60322666D01*
X53572633Y-60356000D01*
X53605966Y-60389333D01*
X53639300Y-60456000D01*
X53639300Y-60556000D01*
X53605966Y-60622666D01*
X53572633Y-60656000D01*
X53505966Y-60689333D01*
X53239300Y-60689333D01*
X54305966Y-61022666D02*
X53905966Y-61022666D01*
X54105966Y-61022666D02*
X54105966Y-60322666D01*
X54039300Y-60422666D01*
X53972633Y-60489333D01*
X53905966Y-60522666D01*
X54705966Y-60622666D02*
X54639300Y-60589333D01*
X54605966Y-60556000D01*
X54572633Y-60489333D01*
X54572633Y-60456000D01*
X54605966Y-60389333D01*
X54639300Y-60356000D01*
X54705966Y-60322666D01*
X54839300Y-60322666D01*
X54905966Y-60356000D01*
X54939300Y-60389333D01*
X54972633Y-60456000D01*
X54972633Y-60489333D01*
X54939300Y-60556000D01*
X54905966Y-60589333D01*
X54839300Y-60622666D01*
X54705966Y-60622666D01*
X54639300Y-60656000D01*
X54605966Y-60689333D01*
X54572633Y-60756000D01*
X54572633Y-60889333D01*
X54605966Y-60956000D01*
X54639300Y-60989333D01*
X54705966Y-61022666D01*
X54839300Y-61022666D01*
X54905966Y-60989333D01*
X54939300Y-60956000D01*
X54972633Y-60889333D01*
X54972633Y-60756000D01*
X54939300Y-60689333D01*
X54905966Y-60656000D01*
X54839300Y-60622666D01*
X71296966Y-52545400D02*
X70963633Y-52778733D01*
X71296966Y-52945400D02*
X70596966Y-52945400D01*
X70596966Y-52678733D01*
X70630300Y-52612066D01*
X70663633Y-52578733D01*
X70730300Y-52545400D01*
X70830300Y-52545400D01*
X70896966Y-52578733D01*
X70930300Y-52612066D01*
X70963633Y-52678733D01*
X70963633Y-52945400D01*
X71296966Y-51878733D02*
X71296966Y-52278733D01*
X71296966Y-52078733D02*
X70596966Y-52078733D01*
X70696966Y-52145400D01*
X70763633Y-52212066D01*
X70796966Y-52278733D01*
X71296966Y-51545400D02*
X71296966Y-51412066D01*
X71263633Y-51345400D01*
X71230300Y-51312066D01*
X71130300Y-51245400D01*
X70996966Y-51212066D01*
X70730300Y-51212066D01*
X70663633Y-51245400D01*
X70630300Y-51278733D01*
X70596966Y-51345400D01*
X70596966Y-51478733D01*
X70630300Y-51545400D01*
X70663633Y-51578733D01*
X70730300Y-51612066D01*
X70896966Y-51612066D01*
X70963633Y-51578733D01*
X70996966Y-51545400D01*
X71030300Y-51478733D01*
X71030300Y-51345400D01*
X70996966Y-51278733D01*
X70963633Y-51245400D01*
X70896966Y-51212066D01*
X75246666Y-52583500D02*
X74913333Y-52816833D01*
X75246666Y-52983500D02*
X74546666Y-52983500D01*
X74546666Y-52716833D01*
X74580000Y-52650166D01*
X74613333Y-52616833D01*
X74680000Y-52583500D01*
X74780000Y-52583500D01*
X74846666Y-52616833D01*
X74880000Y-52650166D01*
X74913333Y-52716833D01*
X74913333Y-52983500D01*
X74613333Y-52316833D02*
X74580000Y-52283500D01*
X74546666Y-52216833D01*
X74546666Y-52050166D01*
X74580000Y-51983500D01*
X74613333Y-51950166D01*
X74680000Y-51916833D01*
X74746666Y-51916833D01*
X74846666Y-51950166D01*
X75246666Y-52350166D01*
X75246666Y-51916833D01*
X74546666Y-51483500D02*
X74546666Y-51416833D01*
X74580000Y-51350166D01*
X74613333Y-51316833D01*
X74680000Y-51283500D01*
X74813333Y-51250166D01*
X74980000Y-51250166D01*
X75113333Y-51283500D01*
X75180000Y-51316833D01*
X75213333Y-51350166D01*
X75246666Y-51416833D01*
X75246666Y-51483500D01*
X75213333Y-51550166D01*
X75180000Y-51583500D01*
X75113333Y-51616833D01*
X74980000Y-51650166D01*
X74813333Y-51650166D01*
X74680000Y-51616833D01*
X74613333Y-51583500D01*
X74580000Y-51550166D01*
X74546666Y-51483500D01*
X64578666Y-52583500D02*
X64245333Y-52816833D01*
X64578666Y-52983500D02*
X63878666Y-52983500D01*
X63878666Y-52716833D01*
X63912000Y-52650166D01*
X63945333Y-52616833D01*
X64012000Y-52583500D01*
X64112000Y-52583500D01*
X64178666Y-52616833D01*
X64212000Y-52650166D01*
X64245333Y-52716833D01*
X64245333Y-52983500D01*
X63945333Y-52316833D02*
X63912000Y-52283500D01*
X63878666Y-52216833D01*
X63878666Y-52050166D01*
X63912000Y-51983500D01*
X63945333Y-51950166D01*
X64012000Y-51916833D01*
X64078666Y-51916833D01*
X64178666Y-51950166D01*
X64578666Y-52350166D01*
X64578666Y-51916833D01*
X64578666Y-51250166D02*
X64578666Y-51650166D01*
X64578666Y-51450166D02*
X63878666Y-51450166D01*
X63978666Y-51516833D01*
X64045333Y-51583500D01*
X64078666Y-51650166D01*
X73468666Y-52583500D02*
X73135333Y-52816833D01*
X73468666Y-52983500D02*
X72768666Y-52983500D01*
X72768666Y-52716833D01*
X72802000Y-52650166D01*
X72835333Y-52616833D01*
X72902000Y-52583500D01*
X73002000Y-52583500D01*
X73068666Y-52616833D01*
X73102000Y-52650166D01*
X73135333Y-52716833D01*
X73135333Y-52983500D01*
X72835333Y-52316833D02*
X72802000Y-52283500D01*
X72768666Y-52216833D01*
X72768666Y-52050166D01*
X72802000Y-51983500D01*
X72835333Y-51950166D01*
X72902000Y-51916833D01*
X72968666Y-51916833D01*
X73068666Y-51950166D01*
X73468666Y-52350166D01*
X73468666Y-51916833D01*
X72835333Y-51650166D02*
X72802000Y-51616833D01*
X72768666Y-51550166D01*
X72768666Y-51383500D01*
X72802000Y-51316833D01*
X72835333Y-51283500D01*
X72902000Y-51250166D01*
X72968666Y-51250166D01*
X73068666Y-51283500D01*
X73468666Y-51683500D01*
X73468666Y-51250166D01*
X69912666Y-52583500D02*
X69579333Y-52816833D01*
X69912666Y-52983500D02*
X69212666Y-52983500D01*
X69212666Y-52716833D01*
X69246000Y-52650166D01*
X69279333Y-52616833D01*
X69346000Y-52583500D01*
X69446000Y-52583500D01*
X69512666Y-52616833D01*
X69546000Y-52650166D01*
X69579333Y-52716833D01*
X69579333Y-52983500D01*
X69279333Y-52316833D02*
X69246000Y-52283500D01*
X69212666Y-52216833D01*
X69212666Y-52050166D01*
X69246000Y-51983500D01*
X69279333Y-51950166D01*
X69346000Y-51916833D01*
X69412666Y-51916833D01*
X69512666Y-51950166D01*
X69912666Y-52350166D01*
X69912666Y-51916833D01*
X69212666Y-51683500D02*
X69212666Y-51250166D01*
X69479333Y-51483500D01*
X69479333Y-51383500D01*
X69512666Y-51316833D01*
X69546000Y-51283500D01*
X69612666Y-51250166D01*
X69779333Y-51250166D01*
X69846000Y-51283500D01*
X69879333Y-51316833D01*
X69912666Y-51383500D01*
X69912666Y-51583500D01*
X69879333Y-51650166D01*
X69846000Y-51683500D01*
D11*
X67455080Y-58780872D02*
X67455080Y-58828012D01*
X67407940Y-58922293D01*
X67360800Y-58969434D01*
X67266519Y-59016574D01*
X67172238Y-59016574D01*
X67101527Y-58993004D01*
X66983676Y-58922293D01*
X66912965Y-58851583D01*
X66842255Y-58733732D01*
X66818684Y-58663021D01*
X66818684Y-58568740D01*
X66865825Y-58474459D01*
X66912965Y-58427319D01*
X67007246Y-58380178D01*
X67054387Y-58380178D01*
X67973625Y-58356608D02*
X67690783Y-58639451D01*
X67832204Y-58498029D02*
X67337229Y-58003055D01*
X67360800Y-58120906D01*
X67360800Y-58215187D01*
X67337229Y-58285897D01*
X82179333Y-47367000D02*
X82146000Y-47400333D01*
X82046000Y-47433666D01*
X81979333Y-47433666D01*
X81879333Y-47400333D01*
X81812666Y-47333666D01*
X81779333Y-47267000D01*
X81746000Y-47133666D01*
X81746000Y-47033666D01*
X81779333Y-46900333D01*
X81812666Y-46833666D01*
X81879333Y-46767000D01*
X81979333Y-46733666D01*
X82046000Y-46733666D01*
X82146000Y-46767000D01*
X82179333Y-46800333D01*
X82446000Y-46800333D02*
X82479333Y-46767000D01*
X82546000Y-46733666D01*
X82712666Y-46733666D01*
X82779333Y-46767000D01*
X82812666Y-46800333D01*
X82846000Y-46867000D01*
X82846000Y-46933666D01*
X82812666Y-47033666D01*
X82412666Y-47433666D01*
X82846000Y-47433666D01*
X66009328Y-70376080D02*
X65962188Y-70376080D01*
X65867907Y-70328940D01*
X65820766Y-70281800D01*
X65773626Y-70187519D01*
X65773626Y-70093238D01*
X65797196Y-70022527D01*
X65867907Y-69904676D01*
X65938617Y-69833965D01*
X66056468Y-69763255D01*
X66127179Y-69739684D01*
X66221460Y-69739684D01*
X66315741Y-69786825D01*
X66362881Y-69833965D01*
X66410022Y-69928246D01*
X66410022Y-69975387D01*
X66622154Y-70093238D02*
X66928567Y-70399651D01*
X66575013Y-70423221D01*
X66645724Y-70493932D01*
X66669294Y-70564642D01*
X66669294Y-70611783D01*
X66645724Y-70682493D01*
X66527873Y-70800344D01*
X66457162Y-70823915D01*
X66410022Y-70823915D01*
X66339311Y-70800344D01*
X66197890Y-70658923D01*
X66174320Y-70588212D01*
X66174320Y-70541072D01*
X85786133Y-60067000D02*
X85752800Y-60100333D01*
X85652800Y-60133666D01*
X85586133Y-60133666D01*
X85486133Y-60100333D01*
X85419466Y-60033666D01*
X85386133Y-59967000D01*
X85352800Y-59833666D01*
X85352800Y-59733666D01*
X85386133Y-59600333D01*
X85419466Y-59533666D01*
X85486133Y-59467000D01*
X85586133Y-59433666D01*
X85652800Y-59433666D01*
X85752800Y-59467000D01*
X85786133Y-59500333D01*
X86419466Y-59433666D02*
X86086133Y-59433666D01*
X86052800Y-59767000D01*
X86086133Y-59733666D01*
X86152800Y-59700333D01*
X86319466Y-59700333D01*
X86386133Y-59733666D01*
X86419466Y-59767000D01*
X86452800Y-59833666D01*
X86452800Y-60000333D01*
X86419466Y-60067000D01*
X86386133Y-60100333D01*
X86319466Y-60133666D01*
X86152800Y-60133666D01*
X86086133Y-60100333D01*
X86052800Y-60067000D01*
X85811533Y-53717000D02*
X85778200Y-53750333D01*
X85678200Y-53783666D01*
X85611533Y-53783666D01*
X85511533Y-53750333D01*
X85444866Y-53683666D01*
X85411533Y-53617000D01*
X85378200Y-53483666D01*
X85378200Y-53383666D01*
X85411533Y-53250333D01*
X85444866Y-53183666D01*
X85511533Y-53117000D01*
X85611533Y-53083666D01*
X85678200Y-53083666D01*
X85778200Y-53117000D01*
X85811533Y-53150333D01*
X86411533Y-53083666D02*
X86278200Y-53083666D01*
X86211533Y-53117000D01*
X86178200Y-53150333D01*
X86111533Y-53250333D01*
X86078200Y-53383666D01*
X86078200Y-53650333D01*
X86111533Y-53717000D01*
X86144866Y-53750333D01*
X86211533Y-53783666D01*
X86344866Y-53783666D01*
X86411533Y-53750333D01*
X86444866Y-53717000D01*
X86478200Y-53650333D01*
X86478200Y-53483666D01*
X86444866Y-53417000D01*
X86411533Y-53383666D01*
X86344866Y-53350333D01*
X86211533Y-53350333D01*
X86144866Y-53383666D01*
X86111533Y-53417000D01*
X86078200Y-53483666D01*
X68775880Y-60000072D02*
X68775880Y-60047212D01*
X68728740Y-60141493D01*
X68681600Y-60188634D01*
X68587319Y-60235774D01*
X68493038Y-60235774D01*
X68422327Y-60212204D01*
X68304476Y-60141493D01*
X68233765Y-60070783D01*
X68163055Y-59952932D01*
X68139484Y-59882221D01*
X68139484Y-59787940D01*
X68186625Y-59693659D01*
X68233765Y-59646519D01*
X68328046Y-59599378D01*
X68375187Y-59599378D01*
X68493038Y-59387246D02*
X68823021Y-59057263D01*
X69105864Y-59764370D01*
X56842833Y-47494000D02*
X56809500Y-47527333D01*
X56709500Y-47560666D01*
X56642833Y-47560666D01*
X56542833Y-47527333D01*
X56476166Y-47460666D01*
X56442833Y-47394000D01*
X56409500Y-47260666D01*
X56409500Y-47160666D01*
X56442833Y-47027333D01*
X56476166Y-46960666D01*
X56542833Y-46894000D01*
X56642833Y-46860666D01*
X56709500Y-46860666D01*
X56809500Y-46894000D01*
X56842833Y-46927333D01*
X57242833Y-47160666D02*
X57176166Y-47127333D01*
X57142833Y-47094000D01*
X57109500Y-47027333D01*
X57109500Y-46994000D01*
X57142833Y-46927333D01*
X57176166Y-46894000D01*
X57242833Y-46860666D01*
X57376166Y-46860666D01*
X57442833Y-46894000D01*
X57476166Y-46927333D01*
X57509500Y-46994000D01*
X57509500Y-47027333D01*
X57476166Y-47094000D01*
X57442833Y-47127333D01*
X57376166Y-47160666D01*
X57242833Y-47160666D01*
X57176166Y-47194000D01*
X57142833Y-47227333D01*
X57109500Y-47294000D01*
X57109500Y-47427333D01*
X57142833Y-47494000D01*
X57176166Y-47527333D01*
X57242833Y-47560666D01*
X57376166Y-47560666D01*
X57442833Y-47527333D01*
X57476166Y-47494000D01*
X57509500Y-47427333D01*
X57509500Y-47294000D01*
X57476166Y-47227333D01*
X57442833Y-47194000D01*
X57376166Y-47160666D01*
X54493333Y-47494000D02*
X54460000Y-47527333D01*
X54360000Y-47560666D01*
X54293333Y-47560666D01*
X54193333Y-47527333D01*
X54126666Y-47460666D01*
X54093333Y-47394000D01*
X54060000Y-47260666D01*
X54060000Y-47160666D01*
X54093333Y-47027333D01*
X54126666Y-46960666D01*
X54193333Y-46894000D01*
X54293333Y-46860666D01*
X54360000Y-46860666D01*
X54460000Y-46894000D01*
X54493333Y-46927333D01*
X54826666Y-47560666D02*
X54960000Y-47560666D01*
X55026666Y-47527333D01*
X55060000Y-47494000D01*
X55126666Y-47394000D01*
X55160000Y-47260666D01*
X55160000Y-46994000D01*
X55126666Y-46927333D01*
X55093333Y-46894000D01*
X55026666Y-46860666D01*
X54893333Y-46860666D01*
X54826666Y-46894000D01*
X54793333Y-46927333D01*
X54760000Y-46994000D01*
X54760000Y-47160666D01*
X54793333Y-47227333D01*
X54826666Y-47260666D01*
X54893333Y-47294000D01*
X55026666Y-47294000D01*
X55093333Y-47260666D01*
X55126666Y-47227333D01*
X55160000Y-47160666D01*
X77419525Y-59408878D02*
X77372384Y-59408878D01*
X77278103Y-59361738D01*
X77230963Y-59314597D01*
X77183822Y-59220316D01*
X77183822Y-59126035D01*
X77207393Y-59055325D01*
X77278103Y-58937474D01*
X77348814Y-58866763D01*
X77466665Y-58796052D01*
X77537376Y-58772482D01*
X77631657Y-58772482D01*
X77725938Y-58819622D01*
X77773078Y-58866763D01*
X77820219Y-58961044D01*
X77820219Y-59008184D01*
X77843789Y-59927423D02*
X77560946Y-59644580D01*
X77702367Y-59786002D02*
X78197342Y-59291027D01*
X78079491Y-59314597D01*
X77985210Y-59314597D01*
X77914500Y-59291027D01*
X78645177Y-59738861D02*
X78692317Y-59786002D01*
X78715887Y-59856712D01*
X78715887Y-59903853D01*
X78692317Y-59974564D01*
X78621606Y-60092415D01*
X78503755Y-60210266D01*
X78385904Y-60280977D01*
X78315193Y-60304547D01*
X78268053Y-60304547D01*
X78197342Y-60280977D01*
X78150202Y-60233836D01*
X78126632Y-60163125D01*
X78126632Y-60115985D01*
X78150202Y-60045274D01*
X78220912Y-59927423D01*
X78338764Y-59809572D01*
X78456615Y-59738861D01*
X78527325Y-59715291D01*
X78574466Y-59715291D01*
X78645177Y-59738861D01*
X83751000Y-47367000D02*
X83717666Y-47400333D01*
X83617666Y-47433666D01*
X83551000Y-47433666D01*
X83451000Y-47400333D01*
X83384333Y-47333666D01*
X83351000Y-47267000D01*
X83317666Y-47133666D01*
X83317666Y-47033666D01*
X83351000Y-46900333D01*
X83384333Y-46833666D01*
X83451000Y-46767000D01*
X83551000Y-46733666D01*
X83617666Y-46733666D01*
X83717666Y-46767000D01*
X83751000Y-46800333D01*
X84417666Y-47433666D02*
X84017666Y-47433666D01*
X84217666Y-47433666D02*
X84217666Y-46733666D01*
X84151000Y-46833666D01*
X84084333Y-46900333D01*
X84017666Y-46933666D01*
X85084333Y-47433666D02*
X84684333Y-47433666D01*
X84884333Y-47433666D02*
X84884333Y-46733666D01*
X84817666Y-46833666D01*
X84751000Y-46900333D01*
X84684333Y-46933666D01*
X84882800Y-77666000D02*
X84916133Y-77699333D01*
X84949466Y-77799333D01*
X84949466Y-77866000D01*
X84916133Y-77966000D01*
X84849466Y-78032666D01*
X84782800Y-78066000D01*
X84649466Y-78099333D01*
X84549466Y-78099333D01*
X84416133Y-78066000D01*
X84349466Y-78032666D01*
X84282800Y-77966000D01*
X84249466Y-77866000D01*
X84249466Y-77799333D01*
X84282800Y-77699333D01*
X84316133Y-77666000D01*
X84949466Y-76999333D02*
X84949466Y-77399333D01*
X84949466Y-77199333D02*
X84249466Y-77199333D01*
X84349466Y-77266000D01*
X84416133Y-77332666D01*
X84449466Y-77399333D01*
X84316133Y-76732666D02*
X84282800Y-76699333D01*
X84249466Y-76632666D01*
X84249466Y-76466000D01*
X84282800Y-76399333D01*
X84316133Y-76366000D01*
X84382800Y-76332666D01*
X84449466Y-76332666D01*
X84549466Y-76366000D01*
X84949466Y-76766000D01*
X84949466Y-76332666D01*
X83706025Y-65644578D02*
X83658884Y-65644578D01*
X83564603Y-65597438D01*
X83517463Y-65550297D01*
X83470322Y-65456016D01*
X83470322Y-65361735D01*
X83493893Y-65291025D01*
X83564603Y-65173174D01*
X83635314Y-65102463D01*
X83753165Y-65031752D01*
X83823876Y-65008182D01*
X83918157Y-65008182D01*
X84012438Y-65055322D01*
X84059578Y-65102463D01*
X84106719Y-65196744D01*
X84106719Y-65243884D01*
X84130289Y-66163123D02*
X83847446Y-65880280D01*
X83988867Y-66021702D02*
X84483842Y-65526727D01*
X84365991Y-65550297D01*
X84271710Y-65550297D01*
X84201000Y-65526727D01*
X84790255Y-65833140D02*
X85096668Y-66139553D01*
X84743115Y-66163123D01*
X84813825Y-66233834D01*
X84837396Y-66304544D01*
X84837396Y-66351685D01*
X84813825Y-66422396D01*
X84695974Y-66540247D01*
X84625264Y-66563817D01*
X84578123Y-66563817D01*
X84507412Y-66540247D01*
X84365991Y-66398825D01*
X84342421Y-66328115D01*
X84342421Y-66280974D01*
X86787800Y-68776000D02*
X86821133Y-68809333D01*
X86854466Y-68909333D01*
X86854466Y-68976000D01*
X86821133Y-69076000D01*
X86754466Y-69142666D01*
X86687800Y-69176000D01*
X86554466Y-69209333D01*
X86454466Y-69209333D01*
X86321133Y-69176000D01*
X86254466Y-69142666D01*
X86187800Y-69076000D01*
X86154466Y-68976000D01*
X86154466Y-68909333D01*
X86187800Y-68809333D01*
X86221133Y-68776000D01*
X86854466Y-68109333D02*
X86854466Y-68509333D01*
X86854466Y-68309333D02*
X86154466Y-68309333D01*
X86254466Y-68376000D01*
X86321133Y-68442666D01*
X86354466Y-68509333D01*
X86387800Y-67509333D02*
X86854466Y-67509333D01*
X86121133Y-67676000D02*
X86621133Y-67842666D01*
X86621133Y-67409333D01*
X66936200Y-78316900D02*
X66902866Y-78350233D01*
X66802866Y-78383566D01*
X66736200Y-78383566D01*
X66636200Y-78350233D01*
X66569533Y-78283566D01*
X66536200Y-78216900D01*
X66502866Y-78083566D01*
X66502866Y-77983566D01*
X66536200Y-77850233D01*
X66569533Y-77783566D01*
X66636200Y-77716900D01*
X66736200Y-77683566D01*
X66802866Y-77683566D01*
X66902866Y-77716900D01*
X66936200Y-77750233D01*
X67602866Y-78383566D02*
X67202866Y-78383566D01*
X67402866Y-78383566D02*
X67402866Y-77683566D01*
X67336200Y-77783566D01*
X67269533Y-77850233D01*
X67202866Y-77883566D01*
X68236200Y-77683566D02*
X67902866Y-77683566D01*
X67869533Y-78016900D01*
X67902866Y-77983566D01*
X67969533Y-77950233D01*
X68136200Y-77950233D01*
X68202866Y-77983566D01*
X68236200Y-78016900D01*
X68269533Y-78083566D01*
X68269533Y-78250233D01*
X68236200Y-78316900D01*
X68202866Y-78350233D01*
X68136200Y-78383566D01*
X67969533Y-78383566D01*
X67902866Y-78350233D01*
X67869533Y-78316900D01*
X60637000Y-62480000D02*
X60603666Y-62513333D01*
X60503666Y-62546666D01*
X60437000Y-62546666D01*
X60337000Y-62513333D01*
X60270333Y-62446666D01*
X60237000Y-62380000D01*
X60203666Y-62246666D01*
X60203666Y-62146666D01*
X60237000Y-62013333D01*
X60270333Y-61946666D01*
X60337000Y-61880000D01*
X60437000Y-61846666D01*
X60503666Y-61846666D01*
X60603666Y-61880000D01*
X60637000Y-61913333D01*
X61303666Y-62546666D02*
X60903666Y-62546666D01*
X61103666Y-62546666D02*
X61103666Y-61846666D01*
X61037000Y-61946666D01*
X60970333Y-62013333D01*
X60903666Y-62046666D01*
X61903666Y-61846666D02*
X61770333Y-61846666D01*
X61703666Y-61880000D01*
X61670333Y-61913333D01*
X61603666Y-62013333D01*
X61570333Y-62146666D01*
X61570333Y-62413333D01*
X61603666Y-62480000D01*
X61637000Y-62513333D01*
X61703666Y-62546666D01*
X61837000Y-62546666D01*
X61903666Y-62513333D01*
X61937000Y-62480000D01*
X61970333Y-62413333D01*
X61970333Y-62246666D01*
X61937000Y-62180000D01*
X61903666Y-62146666D01*
X61837000Y-62113333D01*
X61703666Y-62113333D01*
X61637000Y-62146666D01*
X61603666Y-62180000D01*
X61570333Y-62246666D01*
X53639300Y-58898600D02*
X53605966Y-58931933D01*
X53505966Y-58965266D01*
X53439300Y-58965266D01*
X53339300Y-58931933D01*
X53272633Y-58865266D01*
X53239300Y-58798600D01*
X53205966Y-58665266D01*
X53205966Y-58565266D01*
X53239300Y-58431933D01*
X53272633Y-58365266D01*
X53339300Y-58298600D01*
X53439300Y-58265266D01*
X53505966Y-58265266D01*
X53605966Y-58298600D01*
X53639300Y-58331933D01*
X54305966Y-58965266D02*
X53905966Y-58965266D01*
X54105966Y-58965266D02*
X54105966Y-58265266D01*
X54039300Y-58365266D01*
X53972633Y-58431933D01*
X53905966Y-58465266D01*
X54539300Y-58265266D02*
X55005966Y-58265266D01*
X54705966Y-58965266D01*
X54718800Y-77466000D02*
X54685466Y-77499333D01*
X54585466Y-77532666D01*
X54518800Y-77532666D01*
X54418800Y-77499333D01*
X54352133Y-77432666D01*
X54318800Y-77366000D01*
X54285466Y-77232666D01*
X54285466Y-77132666D01*
X54318800Y-76999333D01*
X54352133Y-76932666D01*
X54418800Y-76866000D01*
X54518800Y-76832666D01*
X54585466Y-76832666D01*
X54685466Y-76866000D01*
X54718800Y-76899333D01*
X55385466Y-77532666D02*
X54985466Y-77532666D01*
X55185466Y-77532666D02*
X55185466Y-76832666D01*
X55118800Y-76932666D01*
X55052133Y-76999333D01*
X54985466Y-77032666D01*
X55785466Y-77132666D02*
X55718800Y-77099333D01*
X55685466Y-77066000D01*
X55652133Y-76999333D01*
X55652133Y-76966000D01*
X55685466Y-76899333D01*
X55718800Y-76866000D01*
X55785466Y-76832666D01*
X55918800Y-76832666D01*
X55985466Y-76866000D01*
X56018800Y-76899333D01*
X56052133Y-76966000D01*
X56052133Y-76999333D01*
X56018800Y-77066000D01*
X55985466Y-77099333D01*
X55918800Y-77132666D01*
X55785466Y-77132666D01*
X55718800Y-77166000D01*
X55685466Y-77199333D01*
X55652133Y-77266000D01*
X55652133Y-77399333D01*
X55685466Y-77466000D01*
X55718800Y-77499333D01*
X55785466Y-77532666D01*
X55918800Y-77532666D01*
X55985466Y-77499333D01*
X56018800Y-77466000D01*
X56052133Y-77399333D01*
X56052133Y-77266000D01*
X56018800Y-77199333D01*
X55985466Y-77166000D01*
X55918800Y-77132666D01*
X54414000Y-69211000D02*
X54380666Y-69244333D01*
X54280666Y-69277666D01*
X54214000Y-69277666D01*
X54114000Y-69244333D01*
X54047333Y-69177666D01*
X54014000Y-69111000D01*
X53980666Y-68977666D01*
X53980666Y-68877666D01*
X54014000Y-68744333D01*
X54047333Y-68677666D01*
X54114000Y-68611000D01*
X54214000Y-68577666D01*
X54280666Y-68577666D01*
X54380666Y-68611000D01*
X54414000Y-68644333D01*
X55080666Y-69277666D02*
X54680666Y-69277666D01*
X54880666Y-69277666D02*
X54880666Y-68577666D01*
X54814000Y-68677666D01*
X54747333Y-68744333D01*
X54680666Y-68777666D01*
X55414000Y-69277666D02*
X55547333Y-69277666D01*
X55614000Y-69244333D01*
X55647333Y-69211000D01*
X55714000Y-69111000D01*
X55747333Y-68977666D01*
X55747333Y-68711000D01*
X55714000Y-68644333D01*
X55680666Y-68611000D01*
X55614000Y-68577666D01*
X55480666Y-68577666D01*
X55414000Y-68611000D01*
X55380666Y-68644333D01*
X55347333Y-68711000D01*
X55347333Y-68877666D01*
X55380666Y-68944333D01*
X55414000Y-68977666D01*
X55480666Y-69011000D01*
X55614000Y-69011000D01*
X55680666Y-68977666D01*
X55714000Y-68944333D01*
X55747333Y-68877666D01*
X65043900Y-79815500D02*
X65010566Y-79848833D01*
X64910566Y-79882166D01*
X64843900Y-79882166D01*
X64743900Y-79848833D01*
X64677233Y-79782166D01*
X64643900Y-79715500D01*
X64610566Y-79582166D01*
X64610566Y-79482166D01*
X64643900Y-79348833D01*
X64677233Y-79282166D01*
X64743900Y-79215500D01*
X64843900Y-79182166D01*
X64910566Y-79182166D01*
X65010566Y-79215500D01*
X65043900Y-79248833D01*
X65310566Y-79248833D02*
X65343900Y-79215500D01*
X65410566Y-79182166D01*
X65577233Y-79182166D01*
X65643900Y-79215500D01*
X65677233Y-79248833D01*
X65710566Y-79315500D01*
X65710566Y-79382166D01*
X65677233Y-79482166D01*
X65277233Y-79882166D01*
X65710566Y-79882166D01*
X66143900Y-79182166D02*
X66210566Y-79182166D01*
X66277233Y-79215500D01*
X66310566Y-79248833D01*
X66343900Y-79315500D01*
X66377233Y-79448833D01*
X66377233Y-79615500D01*
X66343900Y-79748833D01*
X66310566Y-79815500D01*
X66277233Y-79848833D01*
X66210566Y-79882166D01*
X66143900Y-79882166D01*
X66077233Y-79848833D01*
X66043900Y-79815500D01*
X66010566Y-79748833D01*
X65977233Y-79615500D01*
X65977233Y-79448833D01*
X66010566Y-79315500D01*
X66043900Y-79248833D01*
X66077233Y-79215500D01*
X66143900Y-79182166D01*
X63716225Y-64946078D02*
X63669084Y-64946078D01*
X63574803Y-64898938D01*
X63527663Y-64851797D01*
X63480522Y-64757516D01*
X63480522Y-64663235D01*
X63504093Y-64592525D01*
X63574803Y-64474674D01*
X63645514Y-64403963D01*
X63763365Y-64333252D01*
X63834076Y-64309682D01*
X63928357Y-64309682D01*
X64022638Y-64356822D01*
X64069778Y-64403963D01*
X64116919Y-64498244D01*
X64116919Y-64545384D01*
X64305480Y-64733946D02*
X64352621Y-64733946D01*
X64423332Y-64757516D01*
X64541183Y-64875367D01*
X64564753Y-64946078D01*
X64564753Y-64993219D01*
X64541183Y-65063929D01*
X64494042Y-65111070D01*
X64399761Y-65158210D01*
X63834076Y-65158210D01*
X64140489Y-65464623D01*
X64776885Y-65205351D02*
X64824025Y-65205351D01*
X64894736Y-65228921D01*
X65012587Y-65346772D01*
X65036157Y-65417483D01*
X65036157Y-65464623D01*
X65012587Y-65535334D01*
X64965447Y-65582474D01*
X64871166Y-65629615D01*
X64305480Y-65629615D01*
X64611893Y-65936028D01*
X80485280Y-69728273D02*
X80485280Y-69775413D01*
X80438140Y-69869694D01*
X80391000Y-69916835D01*
X80296719Y-69963975D01*
X80202438Y-69963975D01*
X80131727Y-69940405D01*
X80013876Y-69869694D01*
X79943165Y-69798984D01*
X79872455Y-69681133D01*
X79848884Y-69610422D01*
X79848884Y-69516141D01*
X79896025Y-69421860D01*
X79943165Y-69374720D01*
X80037446Y-69327579D01*
X80084587Y-69327579D01*
X80626702Y-69021166D02*
X80956685Y-69351149D01*
X80320289Y-68950456D02*
X80555991Y-69421860D01*
X80862404Y-69115447D01*
X61437100Y-54618700D02*
X61403766Y-54652033D01*
X61303766Y-54685366D01*
X61237100Y-54685366D01*
X61137100Y-54652033D01*
X61070433Y-54585366D01*
X61037100Y-54518700D01*
X61003766Y-54385366D01*
X61003766Y-54285366D01*
X61037100Y-54152033D01*
X61070433Y-54085366D01*
X61137100Y-54018700D01*
X61237100Y-53985366D01*
X61303766Y-53985366D01*
X61403766Y-54018700D01*
X61437100Y-54052033D01*
X61703766Y-54052033D02*
X61737100Y-54018700D01*
X61803766Y-53985366D01*
X61970433Y-53985366D01*
X62037100Y-54018700D01*
X62070433Y-54052033D01*
X62103766Y-54118700D01*
X62103766Y-54185366D01*
X62070433Y-54285366D01*
X61670433Y-54685366D01*
X62103766Y-54685366D01*
X62770433Y-54685366D02*
X62370433Y-54685366D01*
X62570433Y-54685366D02*
X62570433Y-53985366D01*
X62503766Y-54085366D01*
X62437100Y-54152033D01*
X62370433Y-54185366D01*
X59309095Y-46188380D02*
X59309095Y-46997904D01*
X59356714Y-47093142D01*
X59404333Y-47140761D01*
X59499571Y-47188380D01*
X59690047Y-47188380D01*
X59785285Y-47140761D01*
X59832904Y-47093142D01*
X59880523Y-46997904D01*
X59880523Y-46188380D01*
X60880523Y-47188380D02*
X60309095Y-47188380D01*
X60594809Y-47188380D02*
X60594809Y-46188380D01*
X60499571Y-46331238D01*
X60404333Y-46426476D01*
X60309095Y-46474095D01*
X81718209Y-56719790D02*
X81718209Y-57195980D01*
X81384876Y-56195980D02*
X81718209Y-56719790D01*
X82051542Y-56195980D01*
X82908685Y-57195980D02*
X82337257Y-57195980D01*
X82622971Y-57195980D02*
X82622971Y-56195980D01*
X82527733Y-56338838D01*
X82432495Y-56434076D01*
X82337257Y-56481695D01*
X77109666Y-81734866D02*
X77109666Y-82234866D01*
X77076333Y-82334866D01*
X77009666Y-82401533D01*
X76909666Y-82434866D01*
X76843000Y-82434866D01*
X77809666Y-82434866D02*
X77409666Y-82434866D01*
X77609666Y-82434866D02*
X77609666Y-81734866D01*
X77543000Y-81834866D01*
X77476333Y-81901533D01*
X77409666Y-81934866D01*
X67063966Y-79728266D02*
X67063966Y-80228266D01*
X67030633Y-80328266D01*
X66963966Y-80394933D01*
X66863966Y-80428266D01*
X66797300Y-80428266D01*
X67363966Y-79794933D02*
X67397300Y-79761600D01*
X67463966Y-79728266D01*
X67630633Y-79728266D01*
X67697300Y-79761600D01*
X67730633Y-79794933D01*
X67763966Y-79861600D01*
X67763966Y-79928266D01*
X67730633Y-80028266D01*
X67330633Y-80428266D01*
X67763966Y-80428266D01*
M02*
