G04 #@! TF.GenerationSoftware,KiCad,Pcbnew,5.1.9*
G04 #@! TF.CreationDate,2021-04-02T18:31:15+02:00*
G04 #@! TF.ProjectId,xling,786c696e-672e-46b6-9963-61645f706362,4.1*
G04 #@! TF.SameCoordinates,Original*
G04 #@! TF.FileFunction,Legend,Bot*
G04 #@! TF.FilePolarity,Positive*
%FSLAX46Y46*%
G04 Gerber Fmt 4.6, Leading zero omitted, Abs format (unit mm)*
G04 Created by KiCad (PCBNEW 5.1.9) date 2021-04-02 18:31:15*
%MOMM*%
%LPD*%
G01*
G04 APERTURE LIST*
%ADD10C,0.200000*%
%ADD11C,0.010000*%
%ADD12C,0.120000*%
%ADD13C,0.150000*%
G04 APERTURE END LIST*
D10*
X82213690Y-83346133D02*
X82261309Y-83298514D01*
X82356547Y-83155657D01*
X82404166Y-83060419D01*
X82451785Y-82917561D01*
X82499404Y-82679466D01*
X82499404Y-82488990D01*
X82451785Y-82250895D01*
X82404166Y-82108038D01*
X82356547Y-82012800D01*
X82261309Y-81869942D01*
X82213690Y-81822323D01*
X81404166Y-82917561D02*
X81499404Y-82965180D01*
X81689880Y-82965180D01*
X81785119Y-82917561D01*
X81832738Y-82869942D01*
X81880357Y-82774704D01*
X81880357Y-82488990D01*
X81832738Y-82393752D01*
X81785119Y-82346133D01*
X81689880Y-82298514D01*
X81499404Y-82298514D01*
X81404166Y-82346133D01*
X81070833Y-83346133D02*
X81023214Y-83298514D01*
X80927976Y-83155657D01*
X80880357Y-83060419D01*
X80832738Y-82917561D01*
X80785119Y-82679466D01*
X80785119Y-82488990D01*
X80832738Y-82250895D01*
X80880357Y-82108038D01*
X80927976Y-82012800D01*
X81023214Y-81869942D01*
X81070833Y-81822323D01*
X79594642Y-82060419D02*
X79547023Y-82012800D01*
X79451785Y-81965180D01*
X79213690Y-81965180D01*
X79118452Y-82012800D01*
X79070833Y-82060419D01*
X79023214Y-82155657D01*
X79023214Y-82250895D01*
X79070833Y-82393752D01*
X79642261Y-82965180D01*
X79023214Y-82965180D01*
X78404166Y-81965180D02*
X78308928Y-81965180D01*
X78213690Y-82012800D01*
X78166071Y-82060419D01*
X78118452Y-82155657D01*
X78070833Y-82346133D01*
X78070833Y-82584228D01*
X78118452Y-82774704D01*
X78166071Y-82869942D01*
X78213690Y-82917561D01*
X78308928Y-82965180D01*
X78404166Y-82965180D01*
X78499404Y-82917561D01*
X78547023Y-82869942D01*
X78594642Y-82774704D01*
X78642261Y-82584228D01*
X78642261Y-82346133D01*
X78594642Y-82155657D01*
X78547023Y-82060419D01*
X78499404Y-82012800D01*
X78404166Y-81965180D01*
X77689880Y-82060419D02*
X77642261Y-82012800D01*
X77547023Y-81965180D01*
X77308928Y-81965180D01*
X77213690Y-82012800D01*
X77166071Y-82060419D01*
X77118452Y-82155657D01*
X77118452Y-82250895D01*
X77166071Y-82393752D01*
X77737500Y-82965180D01*
X77118452Y-82965180D01*
X76166071Y-82965180D02*
X76737500Y-82965180D01*
X76451785Y-82965180D02*
X76451785Y-81965180D01*
X76547023Y-82108038D01*
X76642261Y-82203276D01*
X76737500Y-82250895D01*
X74547023Y-82965180D02*
X74547023Y-81965180D01*
X74547023Y-82917561D02*
X74642261Y-82965180D01*
X74832738Y-82965180D01*
X74927976Y-82917561D01*
X74975595Y-82869942D01*
X75023214Y-82774704D01*
X75023214Y-82488990D01*
X74975595Y-82393752D01*
X74927976Y-82346133D01*
X74832738Y-82298514D01*
X74642261Y-82298514D01*
X74547023Y-82346133D01*
X74118452Y-82917561D02*
X74023214Y-82965180D01*
X73832738Y-82965180D01*
X73737500Y-82917561D01*
X73689880Y-82822323D01*
X73689880Y-82774704D01*
X73737500Y-82679466D01*
X73832738Y-82631847D01*
X73975595Y-82631847D01*
X74070833Y-82584228D01*
X74118452Y-82488990D01*
X74118452Y-82441371D01*
X74070833Y-82346133D01*
X73975595Y-82298514D01*
X73832738Y-82298514D01*
X73737500Y-82346133D01*
X73118452Y-82965180D02*
X73213690Y-82917561D01*
X73261309Y-82822323D01*
X73261309Y-81965180D01*
X82070833Y-84665180D02*
X82070833Y-83665180D01*
X82070833Y-84617561D02*
X82166071Y-84665180D01*
X82356547Y-84665180D01*
X82451785Y-84617561D01*
X82499404Y-84569942D01*
X82547023Y-84474704D01*
X82547023Y-84188990D01*
X82499404Y-84093752D01*
X82451785Y-84046133D01*
X82356547Y-83998514D01*
X82166071Y-83998514D01*
X82070833Y-84046133D01*
X81642261Y-84617561D02*
X81547023Y-84665180D01*
X81356547Y-84665180D01*
X81261309Y-84617561D01*
X81213690Y-84522323D01*
X81213690Y-84474704D01*
X81261309Y-84379466D01*
X81356547Y-84331847D01*
X81499404Y-84331847D01*
X81594642Y-84284228D01*
X81642261Y-84188990D01*
X81642261Y-84141371D01*
X81594642Y-84046133D01*
X81499404Y-83998514D01*
X81356547Y-83998514D01*
X81261309Y-84046133D01*
X80642261Y-84665180D02*
X80737500Y-84617561D01*
X80785119Y-84522323D01*
X80785119Y-83665180D01*
X79642261Y-84188990D02*
X79689880Y-84141371D01*
X79785119Y-84093752D01*
X79880357Y-84093752D01*
X79975595Y-84141371D01*
X80023214Y-84188990D01*
X80070833Y-84284228D01*
X80070833Y-84379466D01*
X80023214Y-84474704D01*
X79975595Y-84522323D01*
X79880357Y-84569942D01*
X79785119Y-84569942D01*
X79689880Y-84522323D01*
X79642261Y-84474704D01*
X79642261Y-84093752D02*
X79642261Y-84474704D01*
X79594642Y-84522323D01*
X79547023Y-84522323D01*
X79451785Y-84474704D01*
X79404166Y-84379466D01*
X79404166Y-84141371D01*
X79499404Y-83998514D01*
X79642261Y-83903276D01*
X79832738Y-83855657D01*
X80023214Y-83903276D01*
X80166071Y-83998514D01*
X80261309Y-84141371D01*
X80308928Y-84331847D01*
X80261309Y-84522323D01*
X80166071Y-84665180D01*
X80023214Y-84760419D01*
X79832738Y-84808038D01*
X79642261Y-84760419D01*
X79499404Y-84665180D01*
X78975595Y-84665180D02*
X78975595Y-83998514D01*
X78975595Y-84093752D02*
X78927976Y-84046133D01*
X78832738Y-83998514D01*
X78689880Y-83998514D01*
X78594642Y-84046133D01*
X78547023Y-84141371D01*
X78547023Y-84665180D01*
X78547023Y-84141371D02*
X78499404Y-84046133D01*
X78404166Y-83998514D01*
X78261309Y-83998514D01*
X78166071Y-84046133D01*
X78118452Y-84141371D01*
X78118452Y-84665180D01*
X77213690Y-84617561D02*
X77308928Y-84665180D01*
X77499404Y-84665180D01*
X77594642Y-84617561D01*
X77642261Y-84569942D01*
X77689880Y-84474704D01*
X77689880Y-84188990D01*
X77642261Y-84093752D01*
X77594642Y-84046133D01*
X77499404Y-83998514D01*
X77308928Y-83998514D01*
X77213690Y-84046133D01*
X76356547Y-83998514D02*
X76356547Y-84665180D01*
X76785119Y-83998514D02*
X76785119Y-84522323D01*
X76737500Y-84617561D01*
X76642261Y-84665180D01*
X76499404Y-84665180D01*
X76404166Y-84617561D01*
X76356547Y-84569942D01*
X75927976Y-84617561D02*
X75832738Y-84665180D01*
X75642261Y-84665180D01*
X75547023Y-84617561D01*
X75499404Y-84522323D01*
X75499404Y-84474704D01*
X75547023Y-84379466D01*
X75642261Y-84331847D01*
X75785119Y-84331847D01*
X75880357Y-84284228D01*
X75927976Y-84188990D01*
X75927976Y-84141371D01*
X75880357Y-84046133D01*
X75785119Y-83998514D01*
X75642261Y-83998514D01*
X75547023Y-84046133D01*
X75070833Y-84665180D02*
X75070833Y-83998514D01*
X75070833Y-83665180D02*
X75118452Y-83712800D01*
X75070833Y-83760419D01*
X75023214Y-83712800D01*
X75070833Y-83665180D01*
X75070833Y-83760419D01*
X74594642Y-84665180D02*
X74594642Y-83998514D01*
X74594642Y-84093752D02*
X74547023Y-84046133D01*
X74451785Y-83998514D01*
X74308928Y-83998514D01*
X74213690Y-84046133D01*
X74166071Y-84141371D01*
X74166071Y-84665180D01*
X74166071Y-84141371D02*
X74118452Y-84046133D01*
X74023214Y-83998514D01*
X73880357Y-83998514D01*
X73785119Y-84046133D01*
X73737500Y-84141371D01*
X73737500Y-84665180D01*
X73261309Y-84569942D02*
X73213690Y-84617561D01*
X73261309Y-84665180D01*
X73308928Y-84617561D01*
X73261309Y-84569942D01*
X73261309Y-84665180D01*
X72642261Y-84665180D02*
X72737500Y-84617561D01*
X72785119Y-84569942D01*
X72832738Y-84474704D01*
X72832738Y-84188990D01*
X72785119Y-84093752D01*
X72737500Y-84046133D01*
X72642261Y-83998514D01*
X72499404Y-83998514D01*
X72404166Y-84046133D01*
X72356547Y-84093752D01*
X72308928Y-84188990D01*
X72308928Y-84474704D01*
X72356547Y-84569942D01*
X72404166Y-84617561D01*
X72499404Y-84665180D01*
X72642261Y-84665180D01*
X71880357Y-84665180D02*
X71880357Y-83998514D01*
X71880357Y-84188990D02*
X71832738Y-84093752D01*
X71785119Y-84046133D01*
X71689880Y-83998514D01*
X71594642Y-83998514D01*
X70832738Y-83998514D02*
X70832738Y-84808038D01*
X70880357Y-84903276D01*
X70927976Y-84950895D01*
X71023214Y-84998514D01*
X71166071Y-84998514D01*
X71261309Y-84950895D01*
X70832738Y-84617561D02*
X70927976Y-84665180D01*
X71118452Y-84665180D01*
X71213690Y-84617561D01*
X71261309Y-84569942D01*
X71308928Y-84474704D01*
X71308928Y-84188990D01*
X71261309Y-84093752D01*
X71213690Y-84046133D01*
X71118452Y-83998514D01*
X70927976Y-83998514D01*
X70832738Y-84046133D01*
D11*
G36*
X58614259Y-83384184D02*
G01*
X58587747Y-83397282D01*
X58555053Y-83420106D01*
X58531225Y-83444996D01*
X58514906Y-83476249D01*
X58504740Y-83518166D01*
X58499372Y-83575044D01*
X58497444Y-83651184D01*
X58497331Y-83683917D01*
X58497661Y-83755656D01*
X58499027Y-83806927D01*
X58502000Y-83842404D01*
X58507149Y-83866763D01*
X58515043Y-83884680D01*
X58523257Y-83896902D01*
X58575687Y-83948905D01*
X58637430Y-83980184D01*
X58704036Y-83989592D01*
X58771058Y-83975980D01*
X58792292Y-83966354D01*
X58843124Y-83939859D01*
X58843124Y-84355052D01*
X58806025Y-84335868D01*
X58757143Y-84321025D01*
X58697061Y-84317222D01*
X58637064Y-84324243D01*
X58591756Y-84340013D01*
X58554175Y-84370047D01*
X58522064Y-84413024D01*
X58519650Y-84417436D01*
X58509467Y-84438221D01*
X58502030Y-84459170D01*
X58496911Y-84484548D01*
X58493681Y-84518618D01*
X58491913Y-84565641D01*
X58491177Y-84629882D01*
X58491044Y-84702176D01*
X58491044Y-84932822D01*
X58629361Y-84932822D01*
X58629361Y-84507533D01*
X58668049Y-84474979D01*
X58708238Y-84448940D01*
X58746297Y-84444205D01*
X58784566Y-84456389D01*
X58804962Y-84468320D01*
X58820142Y-84485313D01*
X58830938Y-84510995D01*
X58838183Y-84548991D01*
X58842708Y-84602926D01*
X58845344Y-84676425D01*
X58846272Y-84725347D01*
X58849411Y-84926535D01*
X58915426Y-84930336D01*
X58981440Y-84934136D01*
X58981440Y-83685650D01*
X58843124Y-83685650D01*
X58839597Y-83755254D01*
X58827715Y-83803569D01*
X58805520Y-83833631D01*
X58771059Y-83848471D01*
X58736242Y-83851436D01*
X58696829Y-83848028D01*
X58670671Y-83834617D01*
X58654314Y-83816896D01*
X58641437Y-83797835D01*
X58633772Y-83776601D01*
X58630361Y-83746849D01*
X58630249Y-83702236D01*
X58631397Y-83664880D01*
X58634032Y-83608604D01*
X58637956Y-83571658D01*
X58644563Y-83548223D01*
X58655249Y-83532480D01*
X58665333Y-83523380D01*
X58707470Y-83503537D01*
X58757340Y-83500332D01*
X58785976Y-83507168D01*
X58814328Y-83531464D01*
X58833109Y-83578728D01*
X58842212Y-83648624D01*
X58843124Y-83685650D01*
X58981440Y-83685650D01*
X58981440Y-83373614D01*
X58912282Y-83373614D01*
X58870760Y-83375256D01*
X58849338Y-83381087D01*
X58843126Y-83392461D01*
X58843124Y-83392798D01*
X58840242Y-83403938D01*
X58827530Y-83402673D01*
X58802257Y-83390433D01*
X58743369Y-83371707D01*
X58677115Y-83369739D01*
X58614259Y-83384184D01*
G37*
X58614259Y-83384184D02*
X58587747Y-83397282D01*
X58555053Y-83420106D01*
X58531225Y-83444996D01*
X58514906Y-83476249D01*
X58504740Y-83518166D01*
X58499372Y-83575044D01*
X58497444Y-83651184D01*
X58497331Y-83683917D01*
X58497661Y-83755656D01*
X58499027Y-83806927D01*
X58502000Y-83842404D01*
X58507149Y-83866763D01*
X58515043Y-83884680D01*
X58523257Y-83896902D01*
X58575687Y-83948905D01*
X58637430Y-83980184D01*
X58704036Y-83989592D01*
X58771058Y-83975980D01*
X58792292Y-83966354D01*
X58843124Y-83939859D01*
X58843124Y-84355052D01*
X58806025Y-84335868D01*
X58757143Y-84321025D01*
X58697061Y-84317222D01*
X58637064Y-84324243D01*
X58591756Y-84340013D01*
X58554175Y-84370047D01*
X58522064Y-84413024D01*
X58519650Y-84417436D01*
X58509467Y-84438221D01*
X58502030Y-84459170D01*
X58496911Y-84484548D01*
X58493681Y-84518618D01*
X58491913Y-84565641D01*
X58491177Y-84629882D01*
X58491044Y-84702176D01*
X58491044Y-84932822D01*
X58629361Y-84932822D01*
X58629361Y-84507533D01*
X58668049Y-84474979D01*
X58708238Y-84448940D01*
X58746297Y-84444205D01*
X58784566Y-84456389D01*
X58804962Y-84468320D01*
X58820142Y-84485313D01*
X58830938Y-84510995D01*
X58838183Y-84548991D01*
X58842708Y-84602926D01*
X58845344Y-84676425D01*
X58846272Y-84725347D01*
X58849411Y-84926535D01*
X58915426Y-84930336D01*
X58981440Y-84934136D01*
X58981440Y-83685650D01*
X58843124Y-83685650D01*
X58839597Y-83755254D01*
X58827715Y-83803569D01*
X58805520Y-83833631D01*
X58771059Y-83848471D01*
X58736242Y-83851436D01*
X58696829Y-83848028D01*
X58670671Y-83834617D01*
X58654314Y-83816896D01*
X58641437Y-83797835D01*
X58633772Y-83776601D01*
X58630361Y-83746849D01*
X58630249Y-83702236D01*
X58631397Y-83664880D01*
X58634032Y-83608604D01*
X58637956Y-83571658D01*
X58644563Y-83548223D01*
X58655249Y-83532480D01*
X58665333Y-83523380D01*
X58707470Y-83503537D01*
X58757340Y-83500332D01*
X58785976Y-83507168D01*
X58814328Y-83531464D01*
X58833109Y-83578728D01*
X58842212Y-83648624D01*
X58843124Y-83685650D01*
X58981440Y-83685650D01*
X58981440Y-83373614D01*
X58912282Y-83373614D01*
X58870760Y-83375256D01*
X58849338Y-83381087D01*
X58843126Y-83392461D01*
X58843124Y-83392798D01*
X58840242Y-83403938D01*
X58827530Y-83402673D01*
X58802257Y-83390433D01*
X58743369Y-83371707D01*
X58677115Y-83369739D01*
X58614259Y-83384184D01*
G36*
X58089710Y-84321555D02*
G01*
X58030555Y-84337339D01*
X57985523Y-84365948D01*
X57953746Y-84403419D01*
X57943866Y-84419411D01*
X57936573Y-84436163D01*
X57931474Y-84457592D01*
X57928179Y-84487616D01*
X57926297Y-84530154D01*
X57925437Y-84589122D01*
X57925207Y-84668440D01*
X57925203Y-84689484D01*
X57925203Y-84932822D01*
X57985559Y-84932822D01*
X58024057Y-84930126D01*
X58052523Y-84923295D01*
X58059655Y-84919083D01*
X58079152Y-84911813D01*
X58099066Y-84919083D01*
X58131853Y-84928160D01*
X58179478Y-84931813D01*
X58232264Y-84930228D01*
X58280536Y-84923589D01*
X58308718Y-84915072D01*
X58363253Y-84880063D01*
X58397335Y-84831479D01*
X58412657Y-84766882D01*
X58412799Y-84765223D01*
X58411455Y-84736566D01*
X58289856Y-84736566D01*
X58279226Y-84769161D01*
X58261910Y-84787505D01*
X58227152Y-84801379D01*
X58181273Y-84806917D01*
X58134488Y-84804191D01*
X58097014Y-84793274D01*
X58086515Y-84786269D01*
X58068168Y-84753904D01*
X58063520Y-84717111D01*
X58063520Y-84668763D01*
X58133082Y-84668763D01*
X58199167Y-84673850D01*
X58249264Y-84688263D01*
X58280429Y-84710729D01*
X58289856Y-84736566D01*
X58411455Y-84736566D01*
X58409487Y-84694647D01*
X58386210Y-84638845D01*
X58342448Y-84596647D01*
X58336399Y-84592808D01*
X58310407Y-84580309D01*
X58278235Y-84572740D01*
X58233260Y-84569061D01*
X58179831Y-84568216D01*
X58063520Y-84568169D01*
X58063520Y-84519411D01*
X58068453Y-84481581D01*
X58081043Y-84456236D01*
X58082517Y-84454887D01*
X58110534Y-84443800D01*
X58152826Y-84439503D01*
X58199564Y-84441615D01*
X58240918Y-84449756D01*
X58265457Y-84461965D01*
X58278753Y-84471746D01*
X58292794Y-84473613D01*
X58312171Y-84465600D01*
X58341476Y-84445739D01*
X58385303Y-84412063D01*
X58389325Y-84408909D01*
X58387264Y-84397236D01*
X58370068Y-84377822D01*
X58343933Y-84356248D01*
X58315052Y-84338096D01*
X58305978Y-84333809D01*
X58272880Y-84325256D01*
X58224380Y-84319155D01*
X58170195Y-84316708D01*
X58167661Y-84316703D01*
X58089710Y-84321555D01*
G37*
X58089710Y-84321555D02*
X58030555Y-84337339D01*
X57985523Y-84365948D01*
X57953746Y-84403419D01*
X57943866Y-84419411D01*
X57936573Y-84436163D01*
X57931474Y-84457592D01*
X57928179Y-84487616D01*
X57926297Y-84530154D01*
X57925437Y-84589122D01*
X57925207Y-84668440D01*
X57925203Y-84689484D01*
X57925203Y-84932822D01*
X57985559Y-84932822D01*
X58024057Y-84930126D01*
X58052523Y-84923295D01*
X58059655Y-84919083D01*
X58079152Y-84911813D01*
X58099066Y-84919083D01*
X58131853Y-84928160D01*
X58179478Y-84931813D01*
X58232264Y-84930228D01*
X58280536Y-84923589D01*
X58308718Y-84915072D01*
X58363253Y-84880063D01*
X58397335Y-84831479D01*
X58412657Y-84766882D01*
X58412799Y-84765223D01*
X58411455Y-84736566D01*
X58289856Y-84736566D01*
X58279226Y-84769161D01*
X58261910Y-84787505D01*
X58227152Y-84801379D01*
X58181273Y-84806917D01*
X58134488Y-84804191D01*
X58097014Y-84793274D01*
X58086515Y-84786269D01*
X58068168Y-84753904D01*
X58063520Y-84717111D01*
X58063520Y-84668763D01*
X58133082Y-84668763D01*
X58199167Y-84673850D01*
X58249264Y-84688263D01*
X58280429Y-84710729D01*
X58289856Y-84736566D01*
X58411455Y-84736566D01*
X58409487Y-84694647D01*
X58386210Y-84638845D01*
X58342448Y-84596647D01*
X58336399Y-84592808D01*
X58310407Y-84580309D01*
X58278235Y-84572740D01*
X58233260Y-84569061D01*
X58179831Y-84568216D01*
X58063520Y-84568169D01*
X58063520Y-84519411D01*
X58068453Y-84481581D01*
X58081043Y-84456236D01*
X58082517Y-84454887D01*
X58110534Y-84443800D01*
X58152826Y-84439503D01*
X58199564Y-84441615D01*
X58240918Y-84449756D01*
X58265457Y-84461965D01*
X58278753Y-84471746D01*
X58292794Y-84473613D01*
X58312171Y-84465600D01*
X58341476Y-84445739D01*
X58385303Y-84412063D01*
X58389325Y-84408909D01*
X58387264Y-84397236D01*
X58370068Y-84377822D01*
X58343933Y-84356248D01*
X58315052Y-84338096D01*
X58305978Y-84333809D01*
X58272880Y-84325256D01*
X58224380Y-84319155D01*
X58170195Y-84316708D01*
X58167661Y-84316703D01*
X58089710Y-84321555D01*
G36*
X57698856Y-84318020D02*
G01*
X57680039Y-84323660D01*
X57673973Y-84336053D01*
X57673718Y-84341647D01*
X57672629Y-84357230D01*
X57665132Y-84359676D01*
X57644881Y-84348993D01*
X57632851Y-84341694D01*
X57594900Y-84326063D01*
X57549572Y-84318334D01*
X57502044Y-84317740D01*
X57457495Y-84323513D01*
X57421102Y-84334884D01*
X57398043Y-84351088D01*
X57393496Y-84371355D01*
X57395791Y-84376843D01*
X57412520Y-84399626D01*
X57438463Y-84427647D01*
X57443155Y-84432177D01*
X57467883Y-84453005D01*
X57489218Y-84459735D01*
X57519055Y-84455038D01*
X57531008Y-84451917D01*
X57568205Y-84444421D01*
X57594359Y-84447792D01*
X57616446Y-84459681D01*
X57636678Y-84475635D01*
X57651579Y-84495700D01*
X57661934Y-84523702D01*
X57668529Y-84563467D01*
X57672149Y-84618823D01*
X57673578Y-84693594D01*
X57673718Y-84738740D01*
X57673718Y-84932822D01*
X57799460Y-84932822D01*
X57799460Y-84316683D01*
X57736589Y-84316683D01*
X57698856Y-84318020D01*
G37*
X57698856Y-84318020D02*
X57680039Y-84323660D01*
X57673973Y-84336053D01*
X57673718Y-84341647D01*
X57672629Y-84357230D01*
X57665132Y-84359676D01*
X57644881Y-84348993D01*
X57632851Y-84341694D01*
X57594900Y-84326063D01*
X57549572Y-84318334D01*
X57502044Y-84317740D01*
X57457495Y-84323513D01*
X57421102Y-84334884D01*
X57398043Y-84351088D01*
X57393496Y-84371355D01*
X57395791Y-84376843D01*
X57412520Y-84399626D01*
X57438463Y-84427647D01*
X57443155Y-84432177D01*
X57467883Y-84453005D01*
X57489218Y-84459735D01*
X57519055Y-84455038D01*
X57531008Y-84451917D01*
X57568205Y-84444421D01*
X57594359Y-84447792D01*
X57616446Y-84459681D01*
X57636678Y-84475635D01*
X57651579Y-84495700D01*
X57661934Y-84523702D01*
X57668529Y-84563467D01*
X57672149Y-84618823D01*
X57673578Y-84693594D01*
X57673718Y-84738740D01*
X57673718Y-84932822D01*
X57799460Y-84932822D01*
X57799460Y-84316683D01*
X57736589Y-84316683D01*
X57698856Y-84318020D01*
G36*
X56906688Y-84932822D02*
G01*
X56975846Y-84932822D01*
X57015988Y-84931645D01*
X57036894Y-84926772D01*
X57044422Y-84916186D01*
X57045005Y-84909029D01*
X57046274Y-84894676D01*
X57054279Y-84891923D01*
X57075315Y-84900771D01*
X57091673Y-84909029D01*
X57154477Y-84928597D01*
X57222748Y-84929729D01*
X57278252Y-84915135D01*
X57329938Y-84879877D01*
X57369338Y-84827835D01*
X57390913Y-84766450D01*
X57391462Y-84763018D01*
X57394667Y-84725571D01*
X57396261Y-84671813D01*
X57396133Y-84631155D01*
X57258779Y-84631155D01*
X57255597Y-84685194D01*
X57248359Y-84729735D01*
X57238560Y-84754888D01*
X57201489Y-84789260D01*
X57157474Y-84801582D01*
X57112084Y-84791618D01*
X57073297Y-84761895D01*
X57058608Y-84741905D01*
X57050019Y-84718050D01*
X57045996Y-84683230D01*
X57045005Y-84630930D01*
X57046778Y-84579139D01*
X57051463Y-84533634D01*
X57058103Y-84503181D01*
X57059210Y-84500452D01*
X57085991Y-84468000D01*
X57125079Y-84450183D01*
X57168815Y-84447306D01*
X57209538Y-84459674D01*
X57239587Y-84487593D01*
X57242704Y-84493148D01*
X57252461Y-84527022D01*
X57257777Y-84575728D01*
X57258779Y-84631155D01*
X57396133Y-84631155D01*
X57396068Y-84610540D01*
X57395164Y-84577563D01*
X57389014Y-84495981D01*
X57376233Y-84434730D01*
X57354971Y-84389449D01*
X57323378Y-84355779D01*
X57292707Y-84336014D01*
X57249854Y-84322120D01*
X57196556Y-84317354D01*
X57141980Y-84321236D01*
X57095292Y-84333282D01*
X57070624Y-84347693D01*
X57045005Y-84370878D01*
X57045005Y-84077773D01*
X56906688Y-84077773D01*
X56906688Y-84932822D01*
G37*
X56906688Y-84932822D02*
X56975846Y-84932822D01*
X57015988Y-84931645D01*
X57036894Y-84926772D01*
X57044422Y-84916186D01*
X57045005Y-84909029D01*
X57046274Y-84894676D01*
X57054279Y-84891923D01*
X57075315Y-84900771D01*
X57091673Y-84909029D01*
X57154477Y-84928597D01*
X57222748Y-84929729D01*
X57278252Y-84915135D01*
X57329938Y-84879877D01*
X57369338Y-84827835D01*
X57390913Y-84766450D01*
X57391462Y-84763018D01*
X57394667Y-84725571D01*
X57396261Y-84671813D01*
X57396133Y-84631155D01*
X57258779Y-84631155D01*
X57255597Y-84685194D01*
X57248359Y-84729735D01*
X57238560Y-84754888D01*
X57201489Y-84789260D01*
X57157474Y-84801582D01*
X57112084Y-84791618D01*
X57073297Y-84761895D01*
X57058608Y-84741905D01*
X57050019Y-84718050D01*
X57045996Y-84683230D01*
X57045005Y-84630930D01*
X57046778Y-84579139D01*
X57051463Y-84533634D01*
X57058103Y-84503181D01*
X57059210Y-84500452D01*
X57085991Y-84468000D01*
X57125079Y-84450183D01*
X57168815Y-84447306D01*
X57209538Y-84459674D01*
X57239587Y-84487593D01*
X57242704Y-84493148D01*
X57252461Y-84527022D01*
X57257777Y-84575728D01*
X57258779Y-84631155D01*
X57396133Y-84631155D01*
X57396068Y-84610540D01*
X57395164Y-84577563D01*
X57389014Y-84495981D01*
X57376233Y-84434730D01*
X57354971Y-84389449D01*
X57323378Y-84355779D01*
X57292707Y-84336014D01*
X57249854Y-84322120D01*
X57196556Y-84317354D01*
X57141980Y-84321236D01*
X57095292Y-84333282D01*
X57070624Y-84347693D01*
X57045005Y-84370878D01*
X57045005Y-84077773D01*
X56906688Y-84077773D01*
X56906688Y-84932822D01*
G36*
X56423976Y-84319237D02*
G01*
X56374245Y-84322971D01*
X56244209Y-84712773D01*
X56223822Y-84643614D01*
X56211554Y-84600874D01*
X56195415Y-84543115D01*
X56177988Y-84479625D01*
X56168774Y-84445570D01*
X56134112Y-84316683D01*
X55991109Y-84316683D01*
X56033854Y-84451857D01*
X56054904Y-84518342D01*
X56080333Y-84598539D01*
X56106890Y-84682193D01*
X56130598Y-84756782D01*
X56184598Y-84926535D01*
X56242902Y-84930328D01*
X56301205Y-84934122D01*
X56332821Y-84829734D01*
X56352318Y-84764889D01*
X56373596Y-84693400D01*
X56392192Y-84630263D01*
X56392926Y-84627750D01*
X56406816Y-84584969D01*
X56419071Y-84555779D01*
X56427654Y-84544741D01*
X56429418Y-84546018D01*
X56435609Y-84563130D01*
X56447372Y-84599787D01*
X56463275Y-84651378D01*
X56481886Y-84713294D01*
X56491957Y-84747352D01*
X56546493Y-84932822D01*
X56662236Y-84932822D01*
X56754763Y-84640471D01*
X56780756Y-84558462D01*
X56804434Y-84483987D01*
X56824680Y-84420544D01*
X56840374Y-84371632D01*
X56850398Y-84340749D01*
X56853445Y-84331726D01*
X56851033Y-84322487D01*
X56832092Y-84318441D01*
X56792677Y-84318846D01*
X56786507Y-84319152D01*
X56713414Y-84322971D01*
X56665543Y-84499010D01*
X56647947Y-84563211D01*
X56632223Y-84619649D01*
X56619754Y-84663422D01*
X56611926Y-84689630D01*
X56610480Y-84693903D01*
X56604486Y-84688990D01*
X56592399Y-84663532D01*
X56575607Y-84620997D01*
X56555497Y-84564850D01*
X56538497Y-84514130D01*
X56473706Y-84315504D01*
X56423976Y-84319237D01*
G37*
X56423976Y-84319237D02*
X56374245Y-84322971D01*
X56244209Y-84712773D01*
X56223822Y-84643614D01*
X56211554Y-84600874D01*
X56195415Y-84543115D01*
X56177988Y-84479625D01*
X56168774Y-84445570D01*
X56134112Y-84316683D01*
X55991109Y-84316683D01*
X56033854Y-84451857D01*
X56054904Y-84518342D01*
X56080333Y-84598539D01*
X56106890Y-84682193D01*
X56130598Y-84756782D01*
X56184598Y-84926535D01*
X56242902Y-84930328D01*
X56301205Y-84934122D01*
X56332821Y-84829734D01*
X56352318Y-84764889D01*
X56373596Y-84693400D01*
X56392192Y-84630263D01*
X56392926Y-84627750D01*
X56406816Y-84584969D01*
X56419071Y-84555779D01*
X56427654Y-84544741D01*
X56429418Y-84546018D01*
X56435609Y-84563130D01*
X56447372Y-84599787D01*
X56463275Y-84651378D01*
X56481886Y-84713294D01*
X56491957Y-84747352D01*
X56546493Y-84932822D01*
X56662236Y-84932822D01*
X56754763Y-84640471D01*
X56780756Y-84558462D01*
X56804434Y-84483987D01*
X56824680Y-84420544D01*
X56840374Y-84371632D01*
X56850398Y-84340749D01*
X56853445Y-84331726D01*
X56851033Y-84322487D01*
X56832092Y-84318441D01*
X56792677Y-84318846D01*
X56786507Y-84319152D01*
X56713414Y-84322971D01*
X56665543Y-84499010D01*
X56647947Y-84563211D01*
X56632223Y-84619649D01*
X56619754Y-84663422D01*
X56611926Y-84689630D01*
X56610480Y-84693903D01*
X56604486Y-84688990D01*
X56592399Y-84663532D01*
X56575607Y-84620997D01*
X56555497Y-84564850D01*
X56538497Y-84514130D01*
X56473706Y-84315504D01*
X56423976Y-84319237D01*
G36*
X55667089Y-84320417D02*
G01*
X55614089Y-84333290D01*
X55598769Y-84340110D01*
X55569072Y-84357974D01*
X55546280Y-84378093D01*
X55529417Y-84403962D01*
X55517502Y-84439073D01*
X55509558Y-84486920D01*
X55504606Y-84550996D01*
X55501669Y-84634794D01*
X55500553Y-84690768D01*
X55496448Y-84932822D01*
X55566568Y-84932822D01*
X55609107Y-84931038D01*
X55631024Y-84924942D01*
X55636688Y-84914706D01*
X55639679Y-84903637D01*
X55653049Y-84905754D01*
X55671267Y-84914629D01*
X55716876Y-84928233D01*
X55775493Y-84931899D01*
X55837146Y-84925903D01*
X55891862Y-84910521D01*
X55896770Y-84908386D01*
X55946777Y-84873255D01*
X55979744Y-84824419D01*
X55994913Y-84767333D01*
X55993754Y-84746824D01*
X55869992Y-84746824D01*
X55859087Y-84774425D01*
X55826755Y-84794204D01*
X55774590Y-84804819D01*
X55746713Y-84806228D01*
X55700253Y-84802620D01*
X55669371Y-84788597D01*
X55661836Y-84781931D01*
X55641424Y-84745666D01*
X55636688Y-84712773D01*
X55636688Y-84668763D01*
X55697987Y-84668763D01*
X55769244Y-84672395D01*
X55819224Y-84683818D01*
X55850804Y-84703824D01*
X55857874Y-84712743D01*
X55869992Y-84746824D01*
X55993754Y-84746824D01*
X55991529Y-84707456D01*
X55968837Y-84650244D01*
X55937876Y-84611580D01*
X55919124Y-84594864D01*
X55900767Y-84583878D01*
X55876881Y-84577180D01*
X55841543Y-84573326D01*
X55788831Y-84570873D01*
X55767923Y-84570168D01*
X55636688Y-84565879D01*
X55636880Y-84526158D01*
X55641963Y-84484405D01*
X55660338Y-84459158D01*
X55697461Y-84443030D01*
X55698457Y-84442742D01*
X55751090Y-84436400D01*
X55802594Y-84444684D01*
X55840870Y-84464827D01*
X55856228Y-84474773D01*
X55872770Y-84473397D01*
X55898225Y-84458987D01*
X55913172Y-84448817D01*
X55942409Y-84427088D01*
X55960520Y-84410800D01*
X55963426Y-84406137D01*
X55951460Y-84382005D01*
X55916104Y-84353185D01*
X55900747Y-84343461D01*
X55856599Y-84326714D01*
X55797102Y-84317227D01*
X55731013Y-84315095D01*
X55667089Y-84320417D01*
G37*
X55667089Y-84320417D02*
X55614089Y-84333290D01*
X55598769Y-84340110D01*
X55569072Y-84357974D01*
X55546280Y-84378093D01*
X55529417Y-84403962D01*
X55517502Y-84439073D01*
X55509558Y-84486920D01*
X55504606Y-84550996D01*
X55501669Y-84634794D01*
X55500553Y-84690768D01*
X55496448Y-84932822D01*
X55566568Y-84932822D01*
X55609107Y-84931038D01*
X55631024Y-84924942D01*
X55636688Y-84914706D01*
X55639679Y-84903637D01*
X55653049Y-84905754D01*
X55671267Y-84914629D01*
X55716876Y-84928233D01*
X55775493Y-84931899D01*
X55837146Y-84925903D01*
X55891862Y-84910521D01*
X55896770Y-84908386D01*
X55946777Y-84873255D01*
X55979744Y-84824419D01*
X55994913Y-84767333D01*
X55993754Y-84746824D01*
X55869992Y-84746824D01*
X55859087Y-84774425D01*
X55826755Y-84794204D01*
X55774590Y-84804819D01*
X55746713Y-84806228D01*
X55700253Y-84802620D01*
X55669371Y-84788597D01*
X55661836Y-84781931D01*
X55641424Y-84745666D01*
X55636688Y-84712773D01*
X55636688Y-84668763D01*
X55697987Y-84668763D01*
X55769244Y-84672395D01*
X55819224Y-84683818D01*
X55850804Y-84703824D01*
X55857874Y-84712743D01*
X55869992Y-84746824D01*
X55993754Y-84746824D01*
X55991529Y-84707456D01*
X55968837Y-84650244D01*
X55937876Y-84611580D01*
X55919124Y-84594864D01*
X55900767Y-84583878D01*
X55876881Y-84577180D01*
X55841543Y-84573326D01*
X55788831Y-84570873D01*
X55767923Y-84570168D01*
X55636688Y-84565879D01*
X55636880Y-84526158D01*
X55641963Y-84484405D01*
X55660338Y-84459158D01*
X55697461Y-84443030D01*
X55698457Y-84442742D01*
X55751090Y-84436400D01*
X55802594Y-84444684D01*
X55840870Y-84464827D01*
X55856228Y-84474773D01*
X55872770Y-84473397D01*
X55898225Y-84458987D01*
X55913172Y-84448817D01*
X55942409Y-84427088D01*
X55960520Y-84410800D01*
X55963426Y-84406137D01*
X55951460Y-84382005D01*
X55916104Y-84353185D01*
X55900747Y-84343461D01*
X55856599Y-84326714D01*
X55797102Y-84317227D01*
X55731013Y-84315095D01*
X55667089Y-84320417D01*
G36*
X55070245Y-84316486D02*
G01*
X55021905Y-84326015D01*
X54994386Y-84340125D01*
X54965436Y-84363568D01*
X55006624Y-84415571D01*
X55032018Y-84447064D01*
X55049262Y-84462428D01*
X55066398Y-84464776D01*
X55091473Y-84457217D01*
X55103243Y-84452941D01*
X55151230Y-84446631D01*
X55195176Y-84460156D01*
X55227440Y-84490710D01*
X55232681Y-84500452D01*
X55238388Y-84526258D01*
X55242794Y-84573817D01*
X55245689Y-84639758D01*
X55246869Y-84720710D01*
X55246886Y-84732226D01*
X55246886Y-84932822D01*
X55385203Y-84932822D01*
X55385203Y-84316683D01*
X55316044Y-84316683D01*
X55276167Y-84317725D01*
X55255393Y-84322358D01*
X55247711Y-84332849D01*
X55246886Y-84342745D01*
X55246886Y-84368806D01*
X55213755Y-84342745D01*
X55175765Y-84324965D01*
X55124730Y-84316174D01*
X55070245Y-84316486D01*
G37*
X55070245Y-84316486D02*
X55021905Y-84326015D01*
X54994386Y-84340125D01*
X54965436Y-84363568D01*
X55006624Y-84415571D01*
X55032018Y-84447064D01*
X55049262Y-84462428D01*
X55066398Y-84464776D01*
X55091473Y-84457217D01*
X55103243Y-84452941D01*
X55151230Y-84446631D01*
X55195176Y-84460156D01*
X55227440Y-84490710D01*
X55232681Y-84500452D01*
X55238388Y-84526258D01*
X55242794Y-84573817D01*
X55245689Y-84639758D01*
X55246869Y-84720710D01*
X55246886Y-84732226D01*
X55246886Y-84932822D01*
X55385203Y-84932822D01*
X55385203Y-84316683D01*
X55316044Y-84316683D01*
X55276167Y-84317725D01*
X55255393Y-84322358D01*
X55247711Y-84332849D01*
X55246886Y-84342745D01*
X55246886Y-84368806D01*
X55213755Y-84342745D01*
X55175765Y-84324965D01*
X55124730Y-84316174D01*
X55070245Y-84316486D01*
G36*
X54672919Y-84319970D02*
G01*
X54612815Y-84335597D01*
X54562479Y-84367848D01*
X54538107Y-84391940D01*
X54498155Y-84448895D01*
X54475258Y-84514965D01*
X54467392Y-84596182D01*
X54467352Y-84602748D01*
X54467282Y-84668763D01*
X54847236Y-84668763D01*
X54839137Y-84703342D01*
X54824513Y-84734659D01*
X54798919Y-84767291D01*
X54793565Y-84772500D01*
X54747557Y-84800694D01*
X54695090Y-84805475D01*
X54634697Y-84786926D01*
X54624460Y-84781931D01*
X54593061Y-84766745D01*
X54572030Y-84758094D01*
X54568361Y-84757293D01*
X54555552Y-84765063D01*
X54531122Y-84784072D01*
X54518721Y-84794460D01*
X54493024Y-84818321D01*
X54484585Y-84834077D01*
X54490442Y-84848571D01*
X54493572Y-84852534D01*
X54514775Y-84869879D01*
X54549762Y-84890959D01*
X54574163Y-84903265D01*
X54643428Y-84924946D01*
X54720112Y-84931971D01*
X54792735Y-84923647D01*
X54813074Y-84917686D01*
X54876024Y-84883952D01*
X54922685Y-84832045D01*
X54953327Y-84761459D01*
X54968218Y-84671692D01*
X54969853Y-84624753D01*
X54965079Y-84556413D01*
X54844510Y-84556413D01*
X54832848Y-84561465D01*
X54801502Y-84565429D01*
X54755929Y-84567768D01*
X54725054Y-84568169D01*
X54669519Y-84567783D01*
X54634467Y-84565975D01*
X54615238Y-84561773D01*
X54607170Y-84554203D01*
X54605599Y-84543218D01*
X54616379Y-84509381D01*
X54643520Y-84475940D01*
X54679223Y-84450272D01*
X54714940Y-84439772D01*
X54763452Y-84449086D01*
X54805447Y-84476013D01*
X54834564Y-84514827D01*
X54844510Y-84556413D01*
X54965079Y-84556413D01*
X54962901Y-84525236D01*
X54941445Y-84445949D01*
X54905030Y-84386263D01*
X54853203Y-84345549D01*
X54785510Y-84323179D01*
X54748838Y-84318871D01*
X54672919Y-84319970D01*
G37*
X54672919Y-84319970D02*
X54612815Y-84335597D01*
X54562479Y-84367848D01*
X54538107Y-84391940D01*
X54498155Y-84448895D01*
X54475258Y-84514965D01*
X54467392Y-84596182D01*
X54467352Y-84602748D01*
X54467282Y-84668763D01*
X54847236Y-84668763D01*
X54839137Y-84703342D01*
X54824513Y-84734659D01*
X54798919Y-84767291D01*
X54793565Y-84772500D01*
X54747557Y-84800694D01*
X54695090Y-84805475D01*
X54634697Y-84786926D01*
X54624460Y-84781931D01*
X54593061Y-84766745D01*
X54572030Y-84758094D01*
X54568361Y-84757293D01*
X54555552Y-84765063D01*
X54531122Y-84784072D01*
X54518721Y-84794460D01*
X54493024Y-84818321D01*
X54484585Y-84834077D01*
X54490442Y-84848571D01*
X54493572Y-84852534D01*
X54514775Y-84869879D01*
X54549762Y-84890959D01*
X54574163Y-84903265D01*
X54643428Y-84924946D01*
X54720112Y-84931971D01*
X54792735Y-84923647D01*
X54813074Y-84917686D01*
X54876024Y-84883952D01*
X54922685Y-84832045D01*
X54953327Y-84761459D01*
X54968218Y-84671692D01*
X54969853Y-84624753D01*
X54965079Y-84556413D01*
X54844510Y-84556413D01*
X54832848Y-84561465D01*
X54801502Y-84565429D01*
X54755929Y-84567768D01*
X54725054Y-84568169D01*
X54669519Y-84567783D01*
X54634467Y-84565975D01*
X54615238Y-84561773D01*
X54607170Y-84554203D01*
X54605599Y-84543218D01*
X54616379Y-84509381D01*
X54643520Y-84475940D01*
X54679223Y-84450272D01*
X54714940Y-84439772D01*
X54763452Y-84449086D01*
X54805447Y-84476013D01*
X54834564Y-84514827D01*
X54844510Y-84556413D01*
X54965079Y-84556413D01*
X54962901Y-84525236D01*
X54941445Y-84445949D01*
X54905030Y-84386263D01*
X54853203Y-84345549D01*
X54785510Y-84323179D01*
X54748838Y-84318871D01*
X54672919Y-84319970D01*
G36*
X59243761Y-83380148D02*
G01*
X59177979Y-83409231D01*
X59128040Y-83457793D01*
X59093874Y-83525908D01*
X59075407Y-83613651D01*
X59074083Y-83627351D01*
X59073046Y-83723939D01*
X59086493Y-83808602D01*
X59113608Y-83877221D01*
X59128127Y-83899294D01*
X59178701Y-83946011D01*
X59243109Y-83976268D01*
X59315166Y-83988824D01*
X59388685Y-83982439D01*
X59444572Y-83962772D01*
X59492632Y-83929629D01*
X59531912Y-83886175D01*
X59532592Y-83885158D01*
X59548544Y-83858338D01*
X59558910Y-83831368D01*
X59565188Y-83797332D01*
X59568873Y-83749310D01*
X59570497Y-83709931D01*
X59571172Y-83674219D01*
X59445455Y-83674219D01*
X59444226Y-83709770D01*
X59439766Y-83757094D01*
X59431897Y-83787465D01*
X59417707Y-83809072D01*
X59404417Y-83821694D01*
X59357302Y-83848122D01*
X59308005Y-83851653D01*
X59262093Y-83832639D01*
X59239138Y-83811331D01*
X59222596Y-83789859D01*
X59212921Y-83769313D01*
X59208674Y-83742574D01*
X59208420Y-83702523D01*
X59209728Y-83665638D01*
X59212543Y-83612947D01*
X59217005Y-83578772D01*
X59225048Y-83556480D01*
X59238603Y-83539442D01*
X59249345Y-83529703D01*
X59294277Y-83504123D01*
X59342749Y-83502847D01*
X59383394Y-83517999D01*
X59418067Y-83549642D01*
X59438724Y-83601620D01*
X59445455Y-83674219D01*
X59571172Y-83674219D01*
X59571979Y-83631621D01*
X59569448Y-83573056D01*
X59561862Y-83529007D01*
X59548181Y-83494248D01*
X59527365Y-83463551D01*
X59519647Y-83454436D01*
X59471389Y-83409021D01*
X59419628Y-83382493D01*
X59356328Y-83371379D01*
X59325461Y-83370471D01*
X59243761Y-83380148D01*
G37*
X59243761Y-83380148D02*
X59177979Y-83409231D01*
X59128040Y-83457793D01*
X59093874Y-83525908D01*
X59075407Y-83613651D01*
X59074083Y-83627351D01*
X59073046Y-83723939D01*
X59086493Y-83808602D01*
X59113608Y-83877221D01*
X59128127Y-83899294D01*
X59178701Y-83946011D01*
X59243109Y-83976268D01*
X59315166Y-83988824D01*
X59388685Y-83982439D01*
X59444572Y-83962772D01*
X59492632Y-83929629D01*
X59531912Y-83886175D01*
X59532592Y-83885158D01*
X59548544Y-83858338D01*
X59558910Y-83831368D01*
X59565188Y-83797332D01*
X59568873Y-83749310D01*
X59570497Y-83709931D01*
X59571172Y-83674219D01*
X59445455Y-83674219D01*
X59444226Y-83709770D01*
X59439766Y-83757094D01*
X59431897Y-83787465D01*
X59417707Y-83809072D01*
X59404417Y-83821694D01*
X59357302Y-83848122D01*
X59308005Y-83851653D01*
X59262093Y-83832639D01*
X59239138Y-83811331D01*
X59222596Y-83789859D01*
X59212921Y-83769313D01*
X59208674Y-83742574D01*
X59208420Y-83702523D01*
X59209728Y-83665638D01*
X59212543Y-83612947D01*
X59217005Y-83578772D01*
X59225048Y-83556480D01*
X59238603Y-83539442D01*
X59249345Y-83529703D01*
X59294277Y-83504123D01*
X59342749Y-83502847D01*
X59383394Y-83517999D01*
X59418067Y-83549642D01*
X59438724Y-83601620D01*
X59445455Y-83674219D01*
X59571172Y-83674219D01*
X59571979Y-83631621D01*
X59569448Y-83573056D01*
X59561862Y-83529007D01*
X59548181Y-83494248D01*
X59527365Y-83463551D01*
X59519647Y-83454436D01*
X59471389Y-83409021D01*
X59419628Y-83382493D01*
X59356328Y-83371379D01*
X59325461Y-83370471D01*
X59243761Y-83380148D01*
G36*
X58062199Y-83387614D02*
G01*
X58049668Y-83393514D01*
X58006299Y-83425283D01*
X57965290Y-83471646D01*
X57934668Y-83522696D01*
X57925959Y-83546166D01*
X57918012Y-83588091D01*
X57913274Y-83638757D01*
X57912699Y-83659679D01*
X57912629Y-83725693D01*
X58292583Y-83725693D01*
X58284483Y-83760273D01*
X58264604Y-83801170D01*
X58229847Y-83836514D01*
X58188498Y-83859282D01*
X58162149Y-83864010D01*
X58126416Y-83858273D01*
X58083782Y-83843882D01*
X58069299Y-83837262D01*
X58015740Y-83810513D01*
X57970033Y-83845376D01*
X57943658Y-83868955D01*
X57929624Y-83888417D01*
X57928914Y-83894129D01*
X57941451Y-83907973D01*
X57968928Y-83929012D01*
X57993866Y-83945425D01*
X58061164Y-83974930D01*
X58136610Y-83988284D01*
X58211388Y-83984812D01*
X58270995Y-83966663D01*
X58332441Y-83927784D01*
X58376108Y-83876595D01*
X58403426Y-83810367D01*
X58415822Y-83726371D01*
X58416921Y-83687936D01*
X58412522Y-83599861D01*
X58411982Y-83597299D01*
X58286082Y-83597299D01*
X58282615Y-83605558D01*
X58268363Y-83610113D01*
X58238970Y-83612065D01*
X58190075Y-83612517D01*
X58171248Y-83612525D01*
X58113967Y-83611843D01*
X58077641Y-83609364D01*
X58058104Y-83604443D01*
X58051190Y-83596434D01*
X58050945Y-83593862D01*
X58058836Y-83573423D01*
X58078585Y-83544789D01*
X58087075Y-83534763D01*
X58118594Y-83506408D01*
X58151449Y-83495259D01*
X58169151Y-83494327D01*
X58217039Y-83505981D01*
X58257199Y-83537285D01*
X58282673Y-83582752D01*
X58283125Y-83584233D01*
X58286082Y-83597299D01*
X58411982Y-83597299D01*
X58397892Y-83530510D01*
X58371538Y-83475025D01*
X58339307Y-83435639D01*
X58279717Y-83392931D01*
X58209668Y-83370109D01*
X58135161Y-83368046D01*
X58062199Y-83387614D01*
G37*
X58062199Y-83387614D02*
X58049668Y-83393514D01*
X58006299Y-83425283D01*
X57965290Y-83471646D01*
X57934668Y-83522696D01*
X57925959Y-83546166D01*
X57918012Y-83588091D01*
X57913274Y-83638757D01*
X57912699Y-83659679D01*
X57912629Y-83725693D01*
X58292583Y-83725693D01*
X58284483Y-83760273D01*
X58264604Y-83801170D01*
X58229847Y-83836514D01*
X58188498Y-83859282D01*
X58162149Y-83864010D01*
X58126416Y-83858273D01*
X58083782Y-83843882D01*
X58069299Y-83837262D01*
X58015740Y-83810513D01*
X57970033Y-83845376D01*
X57943658Y-83868955D01*
X57929624Y-83888417D01*
X57928914Y-83894129D01*
X57941451Y-83907973D01*
X57968928Y-83929012D01*
X57993866Y-83945425D01*
X58061164Y-83974930D01*
X58136610Y-83988284D01*
X58211388Y-83984812D01*
X58270995Y-83966663D01*
X58332441Y-83927784D01*
X58376108Y-83876595D01*
X58403426Y-83810367D01*
X58415822Y-83726371D01*
X58416921Y-83687936D01*
X58412522Y-83599861D01*
X58411982Y-83597299D01*
X58286082Y-83597299D01*
X58282615Y-83605558D01*
X58268363Y-83610113D01*
X58238970Y-83612065D01*
X58190075Y-83612517D01*
X58171248Y-83612525D01*
X58113967Y-83611843D01*
X58077641Y-83609364D01*
X58058104Y-83604443D01*
X58051190Y-83596434D01*
X58050945Y-83593862D01*
X58058836Y-83573423D01*
X58078585Y-83544789D01*
X58087075Y-83534763D01*
X58118594Y-83506408D01*
X58151449Y-83495259D01*
X58169151Y-83494327D01*
X58217039Y-83505981D01*
X58257199Y-83537285D01*
X58282673Y-83582752D01*
X58283125Y-83584233D01*
X58286082Y-83597299D01*
X58411982Y-83597299D01*
X58397892Y-83530510D01*
X58371538Y-83475025D01*
X58339307Y-83435639D01*
X58279717Y-83392931D01*
X58209668Y-83370109D01*
X58135161Y-83368046D01*
X58062199Y-83387614D01*
G36*
X56691483Y-83371452D02*
G01*
X56643866Y-83380482D01*
X56594466Y-83399370D01*
X56589188Y-83401777D01*
X56551726Y-83421476D01*
X56525783Y-83439781D01*
X56517397Y-83451508D01*
X56525383Y-83470632D01*
X56544780Y-83498850D01*
X56553390Y-83509384D01*
X56588872Y-83550847D01*
X56634615Y-83523858D01*
X56678150Y-83505878D01*
X56728450Y-83496267D01*
X56776688Y-83495660D01*
X56814033Y-83504691D01*
X56822995Y-83510327D01*
X56840063Y-83536171D01*
X56842137Y-83565941D01*
X56829366Y-83589197D01*
X56821812Y-83593708D01*
X56799175Y-83599309D01*
X56759385Y-83605892D01*
X56710334Y-83612183D01*
X56701285Y-83613170D01*
X56622504Y-83626798D01*
X56565364Y-83649946D01*
X56527470Y-83684752D01*
X56506421Y-83733354D01*
X56499865Y-83792718D01*
X56508923Y-83860198D01*
X56538336Y-83913188D01*
X56588222Y-83951783D01*
X56658700Y-83976081D01*
X56736935Y-83985667D01*
X56800734Y-83985552D01*
X56852484Y-83976845D01*
X56887827Y-83964825D01*
X56932483Y-83943880D01*
X56973753Y-83919574D01*
X56988421Y-83908876D01*
X57026143Y-83878084D01*
X56980648Y-83832049D01*
X56935153Y-83786013D01*
X56883428Y-83820243D01*
X56831548Y-83845952D01*
X56776149Y-83859399D01*
X56722895Y-83860818D01*
X56677451Y-83850443D01*
X56645484Y-83828507D01*
X56635162Y-83809998D01*
X56636711Y-83780314D01*
X56662360Y-83757615D01*
X56712040Y-83741940D01*
X56766469Y-83734695D01*
X56850236Y-83720873D01*
X56912467Y-83694796D01*
X56953993Y-83655699D01*
X56975647Y-83602820D01*
X56978647Y-83540126D01*
X56963829Y-83474642D01*
X56930046Y-83425144D01*
X56876995Y-83391408D01*
X56804374Y-83373207D01*
X56750572Y-83369639D01*
X56691483Y-83371452D01*
G37*
X56691483Y-83371452D02*
X56643866Y-83380482D01*
X56594466Y-83399370D01*
X56589188Y-83401777D01*
X56551726Y-83421476D01*
X56525783Y-83439781D01*
X56517397Y-83451508D01*
X56525383Y-83470632D01*
X56544780Y-83498850D01*
X56553390Y-83509384D01*
X56588872Y-83550847D01*
X56634615Y-83523858D01*
X56678150Y-83505878D01*
X56728450Y-83496267D01*
X56776688Y-83495660D01*
X56814033Y-83504691D01*
X56822995Y-83510327D01*
X56840063Y-83536171D01*
X56842137Y-83565941D01*
X56829366Y-83589197D01*
X56821812Y-83593708D01*
X56799175Y-83599309D01*
X56759385Y-83605892D01*
X56710334Y-83612183D01*
X56701285Y-83613170D01*
X56622504Y-83626798D01*
X56565364Y-83649946D01*
X56527470Y-83684752D01*
X56506421Y-83733354D01*
X56499865Y-83792718D01*
X56508923Y-83860198D01*
X56538336Y-83913188D01*
X56588222Y-83951783D01*
X56658700Y-83976081D01*
X56736935Y-83985667D01*
X56800734Y-83985552D01*
X56852484Y-83976845D01*
X56887827Y-83964825D01*
X56932483Y-83943880D01*
X56973753Y-83919574D01*
X56988421Y-83908876D01*
X57026143Y-83878084D01*
X56980648Y-83832049D01*
X56935153Y-83786013D01*
X56883428Y-83820243D01*
X56831548Y-83845952D01*
X56776149Y-83859399D01*
X56722895Y-83860818D01*
X56677451Y-83850443D01*
X56645484Y-83828507D01*
X56635162Y-83809998D01*
X56636711Y-83780314D01*
X56662360Y-83757615D01*
X56712040Y-83741940D01*
X56766469Y-83734695D01*
X56850236Y-83720873D01*
X56912467Y-83694796D01*
X56953993Y-83655699D01*
X56975647Y-83602820D01*
X56978647Y-83540126D01*
X56963829Y-83474642D01*
X56930046Y-83425144D01*
X56876995Y-83391408D01*
X56804374Y-83373207D01*
X56750572Y-83369639D01*
X56691483Y-83371452D01*
G36*
X56094738Y-83381055D02*
G01*
X56031137Y-83415692D01*
X55981377Y-83470372D01*
X55957932Y-83514842D01*
X55947866Y-83554121D01*
X55941344Y-83610116D01*
X55938549Y-83674621D01*
X55939664Y-83739429D01*
X55944874Y-83796334D01*
X55950959Y-83826727D01*
X55971486Y-83868306D01*
X56007037Y-83912468D01*
X56049881Y-83951087D01*
X56092289Y-83976034D01*
X56093323Y-83976430D01*
X56145947Y-83987331D01*
X56208312Y-83987601D01*
X56267576Y-83977676D01*
X56290460Y-83969722D01*
X56349398Y-83936300D01*
X56391610Y-83892511D01*
X56419344Y-83834538D01*
X56434849Y-83758565D01*
X56438357Y-83718771D01*
X56437910Y-83668766D01*
X56303124Y-83668766D01*
X56298583Y-83741732D01*
X56285514Y-83797334D01*
X56264744Y-83832861D01*
X56249948Y-83843020D01*
X56212036Y-83850104D01*
X56166973Y-83848007D01*
X56128013Y-83837812D01*
X56117796Y-83832204D01*
X56090841Y-83799538D01*
X56073049Y-83749545D01*
X56065476Y-83688705D01*
X56069175Y-83623497D01*
X56077443Y-83584253D01*
X56101180Y-83538805D01*
X56138651Y-83510396D01*
X56183780Y-83500573D01*
X56230489Y-83510887D01*
X56266368Y-83536112D01*
X56285223Y-83556925D01*
X56296228Y-83577439D01*
X56301474Y-83605203D01*
X56303051Y-83647762D01*
X56303124Y-83668766D01*
X56437910Y-83668766D01*
X56437406Y-83612580D01*
X56420112Y-83525501D01*
X56386471Y-83457530D01*
X56336482Y-83408664D01*
X56270144Y-83378899D01*
X56255899Y-83375448D01*
X56170290Y-83367345D01*
X56094738Y-83381055D01*
G37*
X56094738Y-83381055D02*
X56031137Y-83415692D01*
X55981377Y-83470372D01*
X55957932Y-83514842D01*
X55947866Y-83554121D01*
X55941344Y-83610116D01*
X55938549Y-83674621D01*
X55939664Y-83739429D01*
X55944874Y-83796334D01*
X55950959Y-83826727D01*
X55971486Y-83868306D01*
X56007037Y-83912468D01*
X56049881Y-83951087D01*
X56092289Y-83976034D01*
X56093323Y-83976430D01*
X56145947Y-83987331D01*
X56208312Y-83987601D01*
X56267576Y-83977676D01*
X56290460Y-83969722D01*
X56349398Y-83936300D01*
X56391610Y-83892511D01*
X56419344Y-83834538D01*
X56434849Y-83758565D01*
X56438357Y-83718771D01*
X56437910Y-83668766D01*
X56303124Y-83668766D01*
X56298583Y-83741732D01*
X56285514Y-83797334D01*
X56264744Y-83832861D01*
X56249948Y-83843020D01*
X56212036Y-83850104D01*
X56166973Y-83848007D01*
X56128013Y-83837812D01*
X56117796Y-83832204D01*
X56090841Y-83799538D01*
X56073049Y-83749545D01*
X56065476Y-83688705D01*
X56069175Y-83623497D01*
X56077443Y-83584253D01*
X56101180Y-83538805D01*
X56138651Y-83510396D01*
X56183780Y-83500573D01*
X56230489Y-83510887D01*
X56266368Y-83536112D01*
X56285223Y-83556925D01*
X56296228Y-83577439D01*
X56301474Y-83605203D01*
X56303051Y-83647762D01*
X56303124Y-83668766D01*
X56437910Y-83668766D01*
X56437406Y-83612580D01*
X56420112Y-83525501D01*
X56386471Y-83457530D01*
X56336482Y-83408664D01*
X56270144Y-83378899D01*
X56255899Y-83375448D01*
X56170290Y-83367345D01*
X56094738Y-83381055D01*
G36*
X55712133Y-83569342D02*
G01*
X55710945Y-83661563D01*
X55706603Y-83731610D01*
X55697942Y-83782381D01*
X55683796Y-83816772D01*
X55663000Y-83837679D01*
X55634390Y-83848000D01*
X55598965Y-83850636D01*
X55561864Y-83847682D01*
X55533682Y-83836889D01*
X55513257Y-83815360D01*
X55499421Y-83780199D01*
X55491009Y-83728510D01*
X55486857Y-83657394D01*
X55485797Y-83569342D01*
X55485797Y-83373614D01*
X55347480Y-83373614D01*
X55347480Y-83977179D01*
X55416638Y-83977179D01*
X55458330Y-83975489D01*
X55479799Y-83969556D01*
X55485797Y-83958293D01*
X55489409Y-83948261D01*
X55503786Y-83950383D01*
X55532764Y-83964580D01*
X55599181Y-83986480D01*
X55669625Y-83984928D01*
X55737123Y-83961147D01*
X55769267Y-83942362D01*
X55793785Y-83922022D01*
X55811696Y-83896573D01*
X55824021Y-83862458D01*
X55831777Y-83816121D01*
X55835984Y-83754007D01*
X55837660Y-83672561D01*
X55837876Y-83609578D01*
X55837876Y-83373614D01*
X55712133Y-83373614D01*
X55712133Y-83569342D01*
G37*
X55712133Y-83569342D02*
X55710945Y-83661563D01*
X55706603Y-83731610D01*
X55697942Y-83782381D01*
X55683796Y-83816772D01*
X55663000Y-83837679D01*
X55634390Y-83848000D01*
X55598965Y-83850636D01*
X55561864Y-83847682D01*
X55533682Y-83836889D01*
X55513257Y-83815360D01*
X55499421Y-83780199D01*
X55491009Y-83728510D01*
X55486857Y-83657394D01*
X55485797Y-83569342D01*
X55485797Y-83373614D01*
X55347480Y-83373614D01*
X55347480Y-83977179D01*
X55416638Y-83977179D01*
X55458330Y-83975489D01*
X55479799Y-83969556D01*
X55485797Y-83958293D01*
X55489409Y-83948261D01*
X55503786Y-83950383D01*
X55532764Y-83964580D01*
X55599181Y-83986480D01*
X55669625Y-83984928D01*
X55737123Y-83961147D01*
X55769267Y-83942362D01*
X55793785Y-83922022D01*
X55811696Y-83896573D01*
X55824021Y-83862458D01*
X55831777Y-83816121D01*
X55835984Y-83754007D01*
X55837660Y-83672561D01*
X55837876Y-83609578D01*
X55837876Y-83373614D01*
X55712133Y-83373614D01*
X55712133Y-83569342D01*
G36*
X54488274Y-83378880D02*
G01*
X54415420Y-83409830D01*
X54392473Y-83424895D01*
X54363146Y-83448048D01*
X54344736Y-83466253D01*
X54341539Y-83472183D01*
X54350565Y-83485340D01*
X54373663Y-83507667D01*
X54392156Y-83523250D01*
X54442772Y-83563926D01*
X54482740Y-83530295D01*
X54513626Y-83508584D01*
X54543741Y-83501090D01*
X54578208Y-83502920D01*
X54632939Y-83516528D01*
X54670614Y-83544772D01*
X54693509Y-83590433D01*
X54703903Y-83656289D01*
X54703905Y-83656331D01*
X54703006Y-83729939D01*
X54689037Y-83783946D01*
X54661172Y-83820716D01*
X54642175Y-83833168D01*
X54591724Y-83848673D01*
X54537837Y-83848683D01*
X54490954Y-83833638D01*
X54479856Y-83826287D01*
X54452024Y-83807511D01*
X54430264Y-83804434D01*
X54406796Y-83818409D01*
X54380851Y-83843510D01*
X54339784Y-83885880D01*
X54385379Y-83923464D01*
X54455826Y-83965882D01*
X54535267Y-83986785D01*
X54618285Y-83985272D01*
X54672806Y-83971411D01*
X54736530Y-83937135D01*
X54787495Y-83883212D01*
X54810649Y-83845149D01*
X54829401Y-83790536D01*
X54838785Y-83721369D01*
X54838857Y-83646407D01*
X54829676Y-83574409D01*
X54811301Y-83514137D01*
X54808407Y-83507958D01*
X54765548Y-83447351D01*
X54707521Y-83403224D01*
X54638909Y-83376493D01*
X54564299Y-83368073D01*
X54488274Y-83378880D01*
G37*
X54488274Y-83378880D02*
X54415420Y-83409830D01*
X54392473Y-83424895D01*
X54363146Y-83448048D01*
X54344736Y-83466253D01*
X54341539Y-83472183D01*
X54350565Y-83485340D01*
X54373663Y-83507667D01*
X54392156Y-83523250D01*
X54442772Y-83563926D01*
X54482740Y-83530295D01*
X54513626Y-83508584D01*
X54543741Y-83501090D01*
X54578208Y-83502920D01*
X54632939Y-83516528D01*
X54670614Y-83544772D01*
X54693509Y-83590433D01*
X54703903Y-83656289D01*
X54703905Y-83656331D01*
X54703006Y-83729939D01*
X54689037Y-83783946D01*
X54661172Y-83820716D01*
X54642175Y-83833168D01*
X54591724Y-83848673D01*
X54537837Y-83848683D01*
X54490954Y-83833638D01*
X54479856Y-83826287D01*
X54452024Y-83807511D01*
X54430264Y-83804434D01*
X54406796Y-83818409D01*
X54380851Y-83843510D01*
X54339784Y-83885880D01*
X54385379Y-83923464D01*
X54455826Y-83965882D01*
X54535267Y-83986785D01*
X54618285Y-83985272D01*
X54672806Y-83971411D01*
X54736530Y-83937135D01*
X54787495Y-83883212D01*
X54810649Y-83845149D01*
X54829401Y-83790536D01*
X54838785Y-83721369D01*
X54838857Y-83646407D01*
X54829676Y-83574409D01*
X54811301Y-83514137D01*
X54808407Y-83507958D01*
X54765548Y-83447351D01*
X54707521Y-83403224D01*
X54638909Y-83376493D01*
X54564299Y-83368073D01*
X54488274Y-83378880D01*
G36*
X54027602Y-83371457D02*
G01*
X53995404Y-83379279D01*
X53933675Y-83407921D01*
X53880890Y-83451667D01*
X53844359Y-83504117D01*
X53839340Y-83515893D01*
X53832455Y-83546740D01*
X53827636Y-83592371D01*
X53825995Y-83638492D01*
X53825995Y-83725693D01*
X54008322Y-83725693D01*
X54083521Y-83725978D01*
X54136497Y-83727704D01*
X54170175Y-83732181D01*
X54187480Y-83740720D01*
X54191337Y-83754630D01*
X54184671Y-83775222D01*
X54172730Y-83799315D01*
X54139420Y-83839525D01*
X54093132Y-83859558D01*
X54036556Y-83858905D01*
X53972469Y-83837101D01*
X53917083Y-83810193D01*
X53871125Y-83846532D01*
X53825167Y-83882872D01*
X53868404Y-83922819D01*
X53926126Y-83960563D01*
X53997114Y-83983320D01*
X54073471Y-83989688D01*
X54147301Y-83978268D01*
X54159213Y-83974393D01*
X54224101Y-83940506D01*
X54272370Y-83889986D01*
X54305035Y-83821325D01*
X54323115Y-83733014D01*
X54323325Y-83731121D01*
X54324944Y-83634878D01*
X54318400Y-83600542D01*
X54190648Y-83600542D01*
X54178916Y-83605822D01*
X54147062Y-83609867D01*
X54100103Y-83612176D01*
X54070346Y-83612525D01*
X54014852Y-83612306D01*
X53980154Y-83610916D01*
X53961899Y-83607251D01*
X53955734Y-83600210D01*
X53957305Y-83588690D01*
X53958622Y-83584233D01*
X53981118Y-83542355D01*
X54016497Y-83508604D01*
X54047720Y-83493773D01*
X54089199Y-83494668D01*
X54131231Y-83513164D01*
X54166488Y-83543786D01*
X54187646Y-83581062D01*
X54190648Y-83600542D01*
X54318400Y-83600542D01*
X54308810Y-83550229D01*
X54276802Y-83479191D01*
X54230799Y-83423779D01*
X54172679Y-83386009D01*
X54104320Y-83367896D01*
X54027602Y-83371457D01*
G37*
X54027602Y-83371457D02*
X53995404Y-83379279D01*
X53933675Y-83407921D01*
X53880890Y-83451667D01*
X53844359Y-83504117D01*
X53839340Y-83515893D01*
X53832455Y-83546740D01*
X53827636Y-83592371D01*
X53825995Y-83638492D01*
X53825995Y-83725693D01*
X54008322Y-83725693D01*
X54083521Y-83725978D01*
X54136497Y-83727704D01*
X54170175Y-83732181D01*
X54187480Y-83740720D01*
X54191337Y-83754630D01*
X54184671Y-83775222D01*
X54172730Y-83799315D01*
X54139420Y-83839525D01*
X54093132Y-83859558D01*
X54036556Y-83858905D01*
X53972469Y-83837101D01*
X53917083Y-83810193D01*
X53871125Y-83846532D01*
X53825167Y-83882872D01*
X53868404Y-83922819D01*
X53926126Y-83960563D01*
X53997114Y-83983320D01*
X54073471Y-83989688D01*
X54147301Y-83978268D01*
X54159213Y-83974393D01*
X54224101Y-83940506D01*
X54272370Y-83889986D01*
X54305035Y-83821325D01*
X54323115Y-83733014D01*
X54323325Y-83731121D01*
X54324944Y-83634878D01*
X54318400Y-83600542D01*
X54190648Y-83600542D01*
X54178916Y-83605822D01*
X54147062Y-83609867D01*
X54100103Y-83612176D01*
X54070346Y-83612525D01*
X54014852Y-83612306D01*
X53980154Y-83610916D01*
X53961899Y-83607251D01*
X53955734Y-83600210D01*
X53957305Y-83588690D01*
X53958622Y-83584233D01*
X53981118Y-83542355D01*
X54016497Y-83508604D01*
X54047720Y-83493773D01*
X54089199Y-83494668D01*
X54131231Y-83513164D01*
X54166488Y-83543786D01*
X54187646Y-83581062D01*
X54190648Y-83600542D01*
X54318400Y-83600542D01*
X54308810Y-83550229D01*
X54276802Y-83479191D01*
X54230799Y-83423779D01*
X54172679Y-83386009D01*
X54104320Y-83367896D01*
X54027602Y-83371457D01*
G36*
X57459512Y-83384002D02*
G01*
X57428217Y-83398950D01*
X57397909Y-83420541D01*
X57374818Y-83445391D01*
X57358000Y-83477087D01*
X57346506Y-83519214D01*
X57339391Y-83575358D01*
X57335707Y-83649106D01*
X57334508Y-83744044D01*
X57334489Y-83753985D01*
X57334213Y-83977179D01*
X57472530Y-83977179D01*
X57472530Y-83771418D01*
X57472628Y-83695189D01*
X57473309Y-83639939D01*
X57475151Y-83601501D01*
X57478733Y-83575706D01*
X57484632Y-83558384D01*
X57493427Y-83545368D01*
X57505680Y-83532507D01*
X57548547Y-83504873D01*
X57595343Y-83499745D01*
X57639924Y-83517217D01*
X57655428Y-83530221D01*
X57666810Y-83542447D01*
X57674981Y-83555540D01*
X57680474Y-83573615D01*
X57683820Y-83600787D01*
X57685551Y-83641170D01*
X57686197Y-83698879D01*
X57686292Y-83769132D01*
X57686292Y-83977179D01*
X57824609Y-83977179D01*
X57824609Y-83373614D01*
X57755450Y-83373614D01*
X57713928Y-83375256D01*
X57692506Y-83381087D01*
X57686295Y-83392461D01*
X57686292Y-83392798D01*
X57683410Y-83403938D01*
X57670699Y-83402674D01*
X57645426Y-83390434D01*
X57588105Y-83372424D01*
X57522537Y-83370421D01*
X57459512Y-83384002D01*
G37*
X57459512Y-83384002D02*
X57428217Y-83398950D01*
X57397909Y-83420541D01*
X57374818Y-83445391D01*
X57358000Y-83477087D01*
X57346506Y-83519214D01*
X57339391Y-83575358D01*
X57335707Y-83649106D01*
X57334508Y-83744044D01*
X57334489Y-83753985D01*
X57334213Y-83977179D01*
X57472530Y-83977179D01*
X57472530Y-83771418D01*
X57472628Y-83695189D01*
X57473309Y-83639939D01*
X57475151Y-83601501D01*
X57478733Y-83575706D01*
X57484632Y-83558384D01*
X57493427Y-83545368D01*
X57505680Y-83532507D01*
X57548547Y-83504873D01*
X57595343Y-83499745D01*
X57639924Y-83517217D01*
X57655428Y-83530221D01*
X57666810Y-83542447D01*
X57674981Y-83555540D01*
X57680474Y-83573615D01*
X57683820Y-83600787D01*
X57685551Y-83641170D01*
X57686197Y-83698879D01*
X57686292Y-83769132D01*
X57686292Y-83977179D01*
X57824609Y-83977179D01*
X57824609Y-83373614D01*
X57755450Y-83373614D01*
X57713928Y-83375256D01*
X57692506Y-83381087D01*
X57686295Y-83392461D01*
X57686292Y-83392798D01*
X57683410Y-83403938D01*
X57670699Y-83402674D01*
X57645426Y-83390434D01*
X57588105Y-83372424D01*
X57522537Y-83370421D01*
X57459512Y-83384002D01*
G36*
X54906040Y-83373030D02*
G01*
X54862789Y-83386245D01*
X54834942Y-83402941D01*
X54825871Y-83416145D01*
X54828368Y-83431797D01*
X54844569Y-83456385D01*
X54858268Y-83473800D01*
X54886508Y-83505283D01*
X54907725Y-83518529D01*
X54925812Y-83517664D01*
X54979465Y-83504010D01*
X55018870Y-83504630D01*
X55050868Y-83520104D01*
X55061610Y-83529161D01*
X55095995Y-83561027D01*
X55095995Y-83977179D01*
X55234312Y-83977179D01*
X55234312Y-83373614D01*
X55165153Y-83373614D01*
X55123631Y-83375256D01*
X55102209Y-83381087D01*
X55095998Y-83392461D01*
X55095995Y-83392798D01*
X55093061Y-83404713D01*
X55079796Y-83403159D01*
X55061416Y-83394563D01*
X55023454Y-83378568D01*
X54992628Y-83368945D01*
X54952964Y-83366478D01*
X54906040Y-83373030D01*
G37*
X54906040Y-83373030D02*
X54862789Y-83386245D01*
X54834942Y-83402941D01*
X54825871Y-83416145D01*
X54828368Y-83431797D01*
X54844569Y-83456385D01*
X54858268Y-83473800D01*
X54886508Y-83505283D01*
X54907725Y-83518529D01*
X54925812Y-83517664D01*
X54979465Y-83504010D01*
X55018870Y-83504630D01*
X55050868Y-83520104D01*
X55061610Y-83529161D01*
X55095995Y-83561027D01*
X55095995Y-83977179D01*
X55234312Y-83977179D01*
X55234312Y-83373614D01*
X55165153Y-83373614D01*
X55123631Y-83375256D01*
X55102209Y-83381087D01*
X55095998Y-83392461D01*
X55095995Y-83392798D01*
X55093061Y-83404713D01*
X55079796Y-83403159D01*
X55061416Y-83394563D01*
X55023454Y-83378568D01*
X54992628Y-83368945D01*
X54952964Y-83366478D01*
X54906040Y-83373030D01*
G36*
X56328536Y-79205018D02*
G01*
X56271688Y-79506570D01*
X55852162Y-79679512D01*
X55600516Y-79508395D01*
X55530042Y-79460750D01*
X55466337Y-79418210D01*
X55412374Y-79382715D01*
X55371127Y-79356210D01*
X55345566Y-79340636D01*
X55338605Y-79337278D01*
X55326065Y-79345914D01*
X55299269Y-79369792D01*
X55261220Y-79405859D01*
X55214921Y-79451067D01*
X55163377Y-79502364D01*
X55109591Y-79556701D01*
X55056565Y-79611028D01*
X55007305Y-79662295D01*
X54964813Y-79707451D01*
X54932093Y-79743446D01*
X54912149Y-79767230D01*
X54907381Y-79775190D01*
X54914243Y-79789865D01*
X54933480Y-79822014D01*
X54963070Y-79868492D01*
X55000990Y-79926156D01*
X55045218Y-79991860D01*
X55070846Y-80029336D01*
X55117559Y-80097768D01*
X55159068Y-80159520D01*
X55193360Y-80211519D01*
X55218420Y-80250692D01*
X55232236Y-80273965D01*
X55234312Y-80278855D01*
X55229605Y-80292755D01*
X55216777Y-80325150D01*
X55197762Y-80371485D01*
X55174497Y-80427206D01*
X55148916Y-80487758D01*
X55122955Y-80548586D01*
X55098550Y-80605136D01*
X55077637Y-80652852D01*
X55062151Y-80687181D01*
X55054028Y-80703568D01*
X55053548Y-80704212D01*
X55040793Y-80707341D01*
X55006823Y-80714321D01*
X54955160Y-80724467D01*
X54889324Y-80737092D01*
X54812836Y-80751509D01*
X54768210Y-80759823D01*
X54686479Y-80775384D01*
X54612657Y-80790192D01*
X54550479Y-80803436D01*
X54503678Y-80814305D01*
X54475991Y-80821989D01*
X54470426Y-80824427D01*
X54464974Y-80840930D01*
X54460576Y-80878200D01*
X54457228Y-80931880D01*
X54454926Y-80997612D01*
X54453668Y-81071037D01*
X54453452Y-81147796D01*
X54454273Y-81223532D01*
X54456129Y-81293886D01*
X54459018Y-81354500D01*
X54462935Y-81401016D01*
X54467878Y-81429075D01*
X54470843Y-81434916D01*
X54488566Y-81441917D01*
X54526119Y-81451927D01*
X54578536Y-81463769D01*
X54640848Y-81476267D01*
X54662600Y-81480310D01*
X54767476Y-81499520D01*
X54850320Y-81514991D01*
X54913870Y-81527337D01*
X54960863Y-81537173D01*
X54994037Y-81545114D01*
X55016129Y-81551776D01*
X55029876Y-81557773D01*
X55038016Y-81563719D01*
X55039155Y-81564894D01*
X55050523Y-81583826D01*
X55067865Y-81620669D01*
X55089450Y-81670913D01*
X55113546Y-81730046D01*
X55138421Y-81793556D01*
X55162343Y-81856932D01*
X55183581Y-81915662D01*
X55200403Y-81965235D01*
X55211078Y-82001139D01*
X55213873Y-82018862D01*
X55213640Y-82019483D01*
X55204169Y-82033970D01*
X55182682Y-82065844D01*
X55151437Y-82111789D01*
X55112693Y-82168485D01*
X55068707Y-82232617D01*
X55056181Y-82250842D01*
X55011516Y-82316914D01*
X54972212Y-82377200D01*
X54940412Y-82428235D01*
X54918255Y-82466560D01*
X54907883Y-82488711D01*
X54907381Y-82491432D01*
X54916095Y-82505736D01*
X54940175Y-82534072D01*
X54976524Y-82573396D01*
X55022047Y-82620661D01*
X55073648Y-82672823D01*
X55128233Y-82726835D01*
X55182706Y-82779653D01*
X55233971Y-82828231D01*
X55278933Y-82869523D01*
X55314496Y-82900485D01*
X55337565Y-82918070D01*
X55343946Y-82920941D01*
X55358801Y-82914178D01*
X55389214Y-82895939D01*
X55430232Y-82869297D01*
X55461791Y-82847852D01*
X55518975Y-82808503D01*
X55586694Y-82762171D01*
X55654620Y-82715913D01*
X55691139Y-82691155D01*
X55814748Y-82607547D01*
X55918509Y-82663650D01*
X55965780Y-82688228D01*
X56005977Y-82707331D01*
X56033174Y-82718227D01*
X56040098Y-82719743D01*
X56048423Y-82708549D01*
X56064846Y-82676917D01*
X56088143Y-82627765D01*
X56117086Y-82564010D01*
X56150450Y-82488571D01*
X56187009Y-82404364D01*
X56225536Y-82314308D01*
X56264806Y-82221321D01*
X56303592Y-82128320D01*
X56340670Y-82038223D01*
X56374811Y-81953948D01*
X56404792Y-81878413D01*
X56429384Y-81814534D01*
X56447364Y-81765231D01*
X56457503Y-81733421D01*
X56459134Y-81722496D01*
X56446209Y-81708561D01*
X56417911Y-81685940D01*
X56380154Y-81659333D01*
X56376985Y-81657228D01*
X56279400Y-81579114D01*
X56200714Y-81487982D01*
X56141609Y-81386745D01*
X56102768Y-81278318D01*
X56084872Y-81165614D01*
X56088603Y-81051548D01*
X56114643Y-80939034D01*
X56163675Y-80830985D01*
X56178100Y-80807345D01*
X56253131Y-80711887D01*
X56341770Y-80635232D01*
X56440951Y-80577780D01*
X56547605Y-80539929D01*
X56658664Y-80522078D01*
X56771061Y-80524625D01*
X56881727Y-80547970D01*
X56987594Y-80592510D01*
X57085595Y-80658645D01*
X57115910Y-80685487D01*
X57193062Y-80769512D01*
X57249282Y-80857966D01*
X57287847Y-80957115D01*
X57309326Y-81055303D01*
X57314628Y-81165697D01*
X57296948Y-81276640D01*
X57258081Y-81384381D01*
X57199823Y-81485169D01*
X57123969Y-81575256D01*
X57032317Y-81650892D01*
X57020272Y-81658864D01*
X56982111Y-81684974D01*
X56953101Y-81707595D01*
X56939232Y-81722039D01*
X56939031Y-81722496D01*
X56942008Y-81738121D01*
X56953811Y-81773582D01*
X56973214Y-81825962D01*
X56998988Y-81892345D01*
X57029909Y-81969814D01*
X57064749Y-82055450D01*
X57102283Y-82146337D01*
X57141283Y-82239559D01*
X57180523Y-82332197D01*
X57218776Y-82421335D01*
X57254817Y-82504055D01*
X57287417Y-82577441D01*
X57315352Y-82638575D01*
X57337395Y-82684541D01*
X57352318Y-82712421D01*
X57358328Y-82719743D01*
X57376691Y-82714041D01*
X57411052Y-82698749D01*
X57455484Y-82676599D01*
X57479917Y-82663650D01*
X57583678Y-82607547D01*
X57707287Y-82691155D01*
X57770386Y-82733987D01*
X57839470Y-82781122D01*
X57904207Y-82825503D01*
X57936634Y-82847852D01*
X57982241Y-82878477D01*
X58020860Y-82902747D01*
X58047452Y-82917587D01*
X58056090Y-82920724D01*
X58068661Y-82912261D01*
X58096484Y-82888636D01*
X58136861Y-82852302D01*
X58187095Y-82805711D01*
X58244488Y-82751317D01*
X58280786Y-82716392D01*
X58344290Y-82653996D01*
X58399173Y-82598188D01*
X58443214Y-82551354D01*
X58474195Y-82515882D01*
X58489898Y-82494161D01*
X58491405Y-82489752D01*
X58484414Y-82472985D01*
X58465094Y-82439082D01*
X58435591Y-82391476D01*
X58398045Y-82333599D01*
X58354600Y-82268884D01*
X58342245Y-82250842D01*
X58297227Y-82185267D01*
X58256840Y-82126228D01*
X58223340Y-82077042D01*
X58198986Y-82041028D01*
X58186036Y-82021502D01*
X58184785Y-82019483D01*
X58186656Y-82003922D01*
X58196587Y-81969709D01*
X58212847Y-81921355D01*
X58233705Y-81863371D01*
X58257427Y-81800270D01*
X58282284Y-81736563D01*
X58306542Y-81676761D01*
X58328471Y-81625376D01*
X58346338Y-81586919D01*
X58358413Y-81565902D01*
X58359271Y-81564894D01*
X58366654Y-81558888D01*
X58379125Y-81552948D01*
X58399420Y-81546460D01*
X58430278Y-81538809D01*
X58474434Y-81529380D01*
X58534626Y-81517559D01*
X58613593Y-81502729D01*
X58714070Y-81484277D01*
X58735825Y-81480310D01*
X58800302Y-81467853D01*
X58856511Y-81455666D01*
X58899487Y-81444926D01*
X58924260Y-81436809D01*
X58927582Y-81434916D01*
X58933056Y-81418138D01*
X58937506Y-81380645D01*
X58940928Y-81326794D01*
X58943319Y-81260944D01*
X58944677Y-81187453D01*
X58944999Y-81110680D01*
X58944281Y-81034983D01*
X58942521Y-80964720D01*
X58939716Y-80904250D01*
X58935862Y-80857930D01*
X58930957Y-80830119D01*
X58928000Y-80824427D01*
X58911537Y-80818686D01*
X58874051Y-80809345D01*
X58819275Y-80797215D01*
X58750945Y-80783107D01*
X58672794Y-80767830D01*
X58630216Y-80759823D01*
X58549429Y-80744721D01*
X58477387Y-80731040D01*
X58417611Y-80719467D01*
X58373621Y-80710687D01*
X58348939Y-80705387D01*
X58344877Y-80704212D01*
X58338011Y-80690965D01*
X58323498Y-80659057D01*
X58303271Y-80613047D01*
X58279266Y-80557492D01*
X58253418Y-80496953D01*
X58227660Y-80435986D01*
X58203927Y-80379151D01*
X58184154Y-80331006D01*
X58170276Y-80296110D01*
X58164226Y-80279021D01*
X58164114Y-80278274D01*
X58170972Y-80264793D01*
X58190198Y-80233770D01*
X58219772Y-80188289D01*
X58257673Y-80131432D01*
X58301880Y-80066283D01*
X58327579Y-80028862D01*
X58374407Y-79960247D01*
X58415999Y-79897952D01*
X58450325Y-79845129D01*
X58475357Y-79804927D01*
X58489065Y-79780500D01*
X58491044Y-79775024D01*
X58482534Y-79762278D01*
X58459007Y-79735063D01*
X58423468Y-79696428D01*
X58378923Y-79649423D01*
X58328377Y-79597095D01*
X58274836Y-79542495D01*
X58221305Y-79488670D01*
X58170789Y-79438670D01*
X58126294Y-79395543D01*
X58090825Y-79362339D01*
X58067387Y-79342106D01*
X58059546Y-79337278D01*
X58046780Y-79344067D01*
X58016244Y-79363142D01*
X57970910Y-79392561D01*
X57913744Y-79430381D01*
X57847716Y-79474661D01*
X57797910Y-79508395D01*
X57546264Y-79679512D01*
X57336501Y-79593041D01*
X57126737Y-79506570D01*
X57069889Y-79205018D01*
X57013040Y-78903466D01*
X56385385Y-78903466D01*
X56328536Y-79205018D01*
G37*
X56328536Y-79205018D02*
X56271688Y-79506570D01*
X55852162Y-79679512D01*
X55600516Y-79508395D01*
X55530042Y-79460750D01*
X55466337Y-79418210D01*
X55412374Y-79382715D01*
X55371127Y-79356210D01*
X55345566Y-79340636D01*
X55338605Y-79337278D01*
X55326065Y-79345914D01*
X55299269Y-79369792D01*
X55261220Y-79405859D01*
X55214921Y-79451067D01*
X55163377Y-79502364D01*
X55109591Y-79556701D01*
X55056565Y-79611028D01*
X55007305Y-79662295D01*
X54964813Y-79707451D01*
X54932093Y-79743446D01*
X54912149Y-79767230D01*
X54907381Y-79775190D01*
X54914243Y-79789865D01*
X54933480Y-79822014D01*
X54963070Y-79868492D01*
X55000990Y-79926156D01*
X55045218Y-79991860D01*
X55070846Y-80029336D01*
X55117559Y-80097768D01*
X55159068Y-80159520D01*
X55193360Y-80211519D01*
X55218420Y-80250692D01*
X55232236Y-80273965D01*
X55234312Y-80278855D01*
X55229605Y-80292755D01*
X55216777Y-80325150D01*
X55197762Y-80371485D01*
X55174497Y-80427206D01*
X55148916Y-80487758D01*
X55122955Y-80548586D01*
X55098550Y-80605136D01*
X55077637Y-80652852D01*
X55062151Y-80687181D01*
X55054028Y-80703568D01*
X55053548Y-80704212D01*
X55040793Y-80707341D01*
X55006823Y-80714321D01*
X54955160Y-80724467D01*
X54889324Y-80737092D01*
X54812836Y-80751509D01*
X54768210Y-80759823D01*
X54686479Y-80775384D01*
X54612657Y-80790192D01*
X54550479Y-80803436D01*
X54503678Y-80814305D01*
X54475991Y-80821989D01*
X54470426Y-80824427D01*
X54464974Y-80840930D01*
X54460576Y-80878200D01*
X54457228Y-80931880D01*
X54454926Y-80997612D01*
X54453668Y-81071037D01*
X54453452Y-81147796D01*
X54454273Y-81223532D01*
X54456129Y-81293886D01*
X54459018Y-81354500D01*
X54462935Y-81401016D01*
X54467878Y-81429075D01*
X54470843Y-81434916D01*
X54488566Y-81441917D01*
X54526119Y-81451927D01*
X54578536Y-81463769D01*
X54640848Y-81476267D01*
X54662600Y-81480310D01*
X54767476Y-81499520D01*
X54850320Y-81514991D01*
X54913870Y-81527337D01*
X54960863Y-81537173D01*
X54994037Y-81545114D01*
X55016129Y-81551776D01*
X55029876Y-81557773D01*
X55038016Y-81563719D01*
X55039155Y-81564894D01*
X55050523Y-81583826D01*
X55067865Y-81620669D01*
X55089450Y-81670913D01*
X55113546Y-81730046D01*
X55138421Y-81793556D01*
X55162343Y-81856932D01*
X55183581Y-81915662D01*
X55200403Y-81965235D01*
X55211078Y-82001139D01*
X55213873Y-82018862D01*
X55213640Y-82019483D01*
X55204169Y-82033970D01*
X55182682Y-82065844D01*
X55151437Y-82111789D01*
X55112693Y-82168485D01*
X55068707Y-82232617D01*
X55056181Y-82250842D01*
X55011516Y-82316914D01*
X54972212Y-82377200D01*
X54940412Y-82428235D01*
X54918255Y-82466560D01*
X54907883Y-82488711D01*
X54907381Y-82491432D01*
X54916095Y-82505736D01*
X54940175Y-82534072D01*
X54976524Y-82573396D01*
X55022047Y-82620661D01*
X55073648Y-82672823D01*
X55128233Y-82726835D01*
X55182706Y-82779653D01*
X55233971Y-82828231D01*
X55278933Y-82869523D01*
X55314496Y-82900485D01*
X55337565Y-82918070D01*
X55343946Y-82920941D01*
X55358801Y-82914178D01*
X55389214Y-82895939D01*
X55430232Y-82869297D01*
X55461791Y-82847852D01*
X55518975Y-82808503D01*
X55586694Y-82762171D01*
X55654620Y-82715913D01*
X55691139Y-82691155D01*
X55814748Y-82607547D01*
X55918509Y-82663650D01*
X55965780Y-82688228D01*
X56005977Y-82707331D01*
X56033174Y-82718227D01*
X56040098Y-82719743D01*
X56048423Y-82708549D01*
X56064846Y-82676917D01*
X56088143Y-82627765D01*
X56117086Y-82564010D01*
X56150450Y-82488571D01*
X56187009Y-82404364D01*
X56225536Y-82314308D01*
X56264806Y-82221321D01*
X56303592Y-82128320D01*
X56340670Y-82038223D01*
X56374811Y-81953948D01*
X56404792Y-81878413D01*
X56429384Y-81814534D01*
X56447364Y-81765231D01*
X56457503Y-81733421D01*
X56459134Y-81722496D01*
X56446209Y-81708561D01*
X56417911Y-81685940D01*
X56380154Y-81659333D01*
X56376985Y-81657228D01*
X56279400Y-81579114D01*
X56200714Y-81487982D01*
X56141609Y-81386745D01*
X56102768Y-81278318D01*
X56084872Y-81165614D01*
X56088603Y-81051548D01*
X56114643Y-80939034D01*
X56163675Y-80830985D01*
X56178100Y-80807345D01*
X56253131Y-80711887D01*
X56341770Y-80635232D01*
X56440951Y-80577780D01*
X56547605Y-80539929D01*
X56658664Y-80522078D01*
X56771061Y-80524625D01*
X56881727Y-80547970D01*
X56987594Y-80592510D01*
X57085595Y-80658645D01*
X57115910Y-80685487D01*
X57193062Y-80769512D01*
X57249282Y-80857966D01*
X57287847Y-80957115D01*
X57309326Y-81055303D01*
X57314628Y-81165697D01*
X57296948Y-81276640D01*
X57258081Y-81384381D01*
X57199823Y-81485169D01*
X57123969Y-81575256D01*
X57032317Y-81650892D01*
X57020272Y-81658864D01*
X56982111Y-81684974D01*
X56953101Y-81707595D01*
X56939232Y-81722039D01*
X56939031Y-81722496D01*
X56942008Y-81738121D01*
X56953811Y-81773582D01*
X56973214Y-81825962D01*
X56998988Y-81892345D01*
X57029909Y-81969814D01*
X57064749Y-82055450D01*
X57102283Y-82146337D01*
X57141283Y-82239559D01*
X57180523Y-82332197D01*
X57218776Y-82421335D01*
X57254817Y-82504055D01*
X57287417Y-82577441D01*
X57315352Y-82638575D01*
X57337395Y-82684541D01*
X57352318Y-82712421D01*
X57358328Y-82719743D01*
X57376691Y-82714041D01*
X57411052Y-82698749D01*
X57455484Y-82676599D01*
X57479917Y-82663650D01*
X57583678Y-82607547D01*
X57707287Y-82691155D01*
X57770386Y-82733987D01*
X57839470Y-82781122D01*
X57904207Y-82825503D01*
X57936634Y-82847852D01*
X57982241Y-82878477D01*
X58020860Y-82902747D01*
X58047452Y-82917587D01*
X58056090Y-82920724D01*
X58068661Y-82912261D01*
X58096484Y-82888636D01*
X58136861Y-82852302D01*
X58187095Y-82805711D01*
X58244488Y-82751317D01*
X58280786Y-82716392D01*
X58344290Y-82653996D01*
X58399173Y-82598188D01*
X58443214Y-82551354D01*
X58474195Y-82515882D01*
X58489898Y-82494161D01*
X58491405Y-82489752D01*
X58484414Y-82472985D01*
X58465094Y-82439082D01*
X58435591Y-82391476D01*
X58398045Y-82333599D01*
X58354600Y-82268884D01*
X58342245Y-82250842D01*
X58297227Y-82185267D01*
X58256840Y-82126228D01*
X58223340Y-82077042D01*
X58198986Y-82041028D01*
X58186036Y-82021502D01*
X58184785Y-82019483D01*
X58186656Y-82003922D01*
X58196587Y-81969709D01*
X58212847Y-81921355D01*
X58233705Y-81863371D01*
X58257427Y-81800270D01*
X58282284Y-81736563D01*
X58306542Y-81676761D01*
X58328471Y-81625376D01*
X58346338Y-81586919D01*
X58358413Y-81565902D01*
X58359271Y-81564894D01*
X58366654Y-81558888D01*
X58379125Y-81552948D01*
X58399420Y-81546460D01*
X58430278Y-81538809D01*
X58474434Y-81529380D01*
X58534626Y-81517559D01*
X58613593Y-81502729D01*
X58714070Y-81484277D01*
X58735825Y-81480310D01*
X58800302Y-81467853D01*
X58856511Y-81455666D01*
X58899487Y-81444926D01*
X58924260Y-81436809D01*
X58927582Y-81434916D01*
X58933056Y-81418138D01*
X58937506Y-81380645D01*
X58940928Y-81326794D01*
X58943319Y-81260944D01*
X58944677Y-81187453D01*
X58944999Y-81110680D01*
X58944281Y-81034983D01*
X58942521Y-80964720D01*
X58939716Y-80904250D01*
X58935862Y-80857930D01*
X58930957Y-80830119D01*
X58928000Y-80824427D01*
X58911537Y-80818686D01*
X58874051Y-80809345D01*
X58819275Y-80797215D01*
X58750945Y-80783107D01*
X58672794Y-80767830D01*
X58630216Y-80759823D01*
X58549429Y-80744721D01*
X58477387Y-80731040D01*
X58417611Y-80719467D01*
X58373621Y-80710687D01*
X58348939Y-80705387D01*
X58344877Y-80704212D01*
X58338011Y-80690965D01*
X58323498Y-80659057D01*
X58303271Y-80613047D01*
X58279266Y-80557492D01*
X58253418Y-80496953D01*
X58227660Y-80435986D01*
X58203927Y-80379151D01*
X58184154Y-80331006D01*
X58170276Y-80296110D01*
X58164226Y-80279021D01*
X58164114Y-80278274D01*
X58170972Y-80264793D01*
X58190198Y-80233770D01*
X58219772Y-80188289D01*
X58257673Y-80131432D01*
X58301880Y-80066283D01*
X58327579Y-80028862D01*
X58374407Y-79960247D01*
X58415999Y-79897952D01*
X58450325Y-79845129D01*
X58475357Y-79804927D01*
X58489065Y-79780500D01*
X58491044Y-79775024D01*
X58482534Y-79762278D01*
X58459007Y-79735063D01*
X58423468Y-79696428D01*
X58378923Y-79649423D01*
X58328377Y-79597095D01*
X58274836Y-79542495D01*
X58221305Y-79488670D01*
X58170789Y-79438670D01*
X58126294Y-79395543D01*
X58090825Y-79362339D01*
X58067387Y-79342106D01*
X58059546Y-79337278D01*
X58046780Y-79344067D01*
X58016244Y-79363142D01*
X57970910Y-79392561D01*
X57913744Y-79430381D01*
X57847716Y-79474661D01*
X57797910Y-79508395D01*
X57546264Y-79679512D01*
X57336501Y-79593041D01*
X57126737Y-79506570D01*
X57069889Y-79205018D01*
X57013040Y-78903466D01*
X56385385Y-78903466D01*
X56328536Y-79205018D01*
D12*
X57902800Y-75851400D02*
X57902800Y-73551400D01*
X63102800Y-75851400D02*
X63102800Y-73551400D01*
X58902800Y-77151400D02*
X62102800Y-77151400D01*
X58902800Y-72251400D02*
X62102800Y-72251400D01*
D13*
X62202800Y-74701400D02*
G75*
G03*
X62202800Y-74701400I-1700000J0D01*
G01*
X71372200Y-76200000D02*
G75*
G03*
X71372200Y-76200000I-1700000J0D01*
G01*
D12*
X68072200Y-73750000D02*
X71272200Y-73750000D01*
X68072200Y-78650000D02*
X71272200Y-78650000D01*
X72272200Y-77350000D02*
X72272200Y-75050000D01*
X67072200Y-77350000D02*
X67072200Y-75050000D01*
D13*
X80592400Y-74701400D02*
G75*
G03*
X80592400Y-74701400I-1700000J0D01*
G01*
D12*
X77292400Y-72251400D02*
X80492400Y-72251400D01*
X77292400Y-77151400D02*
X80492400Y-77151400D01*
X81492400Y-75851400D02*
X81492400Y-73551400D01*
X76292400Y-75851400D02*
X76292400Y-73551400D01*
D13*
X61836133Y-78408161D02*
X61693276Y-78455780D01*
X61455180Y-78455780D01*
X61359942Y-78408161D01*
X61312323Y-78360542D01*
X61264704Y-78265304D01*
X61264704Y-78170066D01*
X61312323Y-78074828D01*
X61359942Y-78027209D01*
X61455180Y-77979590D01*
X61645657Y-77931971D01*
X61740895Y-77884352D01*
X61788514Y-77836733D01*
X61836133Y-77741495D01*
X61836133Y-77646257D01*
X61788514Y-77551019D01*
X61740895Y-77503400D01*
X61645657Y-77455780D01*
X61407561Y-77455780D01*
X61264704Y-77503400D01*
X60931371Y-77455780D02*
X60693276Y-78455780D01*
X60502800Y-77741495D01*
X60312323Y-78455780D01*
X60074228Y-77455780D01*
X59788514Y-77455780D02*
X59169466Y-77455780D01*
X59502800Y-77836733D01*
X59359942Y-77836733D01*
X59264704Y-77884352D01*
X59217085Y-77931971D01*
X59169466Y-78027209D01*
X59169466Y-78265304D01*
X59217085Y-78360542D01*
X59264704Y-78408161D01*
X59359942Y-78455780D01*
X59645657Y-78455780D01*
X59740895Y-78408161D01*
X59788514Y-78360542D01*
X71005533Y-79957561D02*
X70862676Y-80005180D01*
X70624580Y-80005180D01*
X70529342Y-79957561D01*
X70481723Y-79909942D01*
X70434104Y-79814704D01*
X70434104Y-79719466D01*
X70481723Y-79624228D01*
X70529342Y-79576609D01*
X70624580Y-79528990D01*
X70815057Y-79481371D01*
X70910295Y-79433752D01*
X70957914Y-79386133D01*
X71005533Y-79290895D01*
X71005533Y-79195657D01*
X70957914Y-79100419D01*
X70910295Y-79052800D01*
X70815057Y-79005180D01*
X70576961Y-79005180D01*
X70434104Y-79052800D01*
X70100771Y-79005180D02*
X69862676Y-80005180D01*
X69672200Y-79290895D01*
X69481723Y-80005180D01*
X69243628Y-79005180D01*
X68910295Y-79100419D02*
X68862676Y-79052800D01*
X68767438Y-79005180D01*
X68529342Y-79005180D01*
X68434104Y-79052800D01*
X68386485Y-79100419D01*
X68338866Y-79195657D01*
X68338866Y-79290895D01*
X68386485Y-79433752D01*
X68957914Y-80005180D01*
X68338866Y-80005180D01*
X80225733Y-78458961D02*
X80082876Y-78506580D01*
X79844780Y-78506580D01*
X79749542Y-78458961D01*
X79701923Y-78411342D01*
X79654304Y-78316104D01*
X79654304Y-78220866D01*
X79701923Y-78125628D01*
X79749542Y-78078009D01*
X79844780Y-78030390D01*
X80035257Y-77982771D01*
X80130495Y-77935152D01*
X80178114Y-77887533D01*
X80225733Y-77792295D01*
X80225733Y-77697057D01*
X80178114Y-77601819D01*
X80130495Y-77554200D01*
X80035257Y-77506580D01*
X79797161Y-77506580D01*
X79654304Y-77554200D01*
X79320971Y-77506580D02*
X79082876Y-78506580D01*
X78892400Y-77792295D01*
X78701923Y-78506580D01*
X78463828Y-77506580D01*
X77559066Y-78506580D02*
X78130495Y-78506580D01*
X77844780Y-78506580D02*
X77844780Y-77506580D01*
X77940019Y-77649438D01*
X78035257Y-77744676D01*
X78130495Y-77792295D01*
M02*
