M48
;DRILL file {KiCad 5.0.1} date Sun Nov  4 22:38:21 2018
;FORMAT={2:4/ absolute / inch / suppress leading zeros}
FMAT,2
INCH,TZ
T1C0.0157
T2C0.0236
T3C0.0394
T4C0.0400
T5C0.0433
T6C0.0866
%
G90
G05
M72
T1
X48701Y-32677
X48771Y-35397
X49449Y-36181
X49646Y-47362
X49961Y-45276
X49968Y-35437
X50394Y-41220
X50472Y-42913
X50551Y-39685
X50551Y-40472
X50551Y-43701
X50591Y-47402
X50629Y-32657
X50787Y-43189
X51013Y-35444
X51024Y-44567
X51063Y-31614
X51496Y-37402
X51534Y-36263
X51654Y-45866
X51929Y-30866
X51929Y-32362
X51982Y-35540
X52205Y-46890
X52362Y-37717
X52598Y-33071
X52598Y-38894
X52598Y-39213
X52598Y-39724
X52598Y-40472
X52598Y-41063
X52795Y-31457
X53110Y-47913
X53115Y-34682
X53189Y-42756
X53268Y-30827
X53465Y-37244
X53543Y-33071
X53858Y-42402
X53937Y-35000
X53963Y-37724
X54134Y-47679
X54213Y-31535
X54252Y-41102
X54252Y-44685
X54484Y-37244
X54528Y-40276
X54528Y-42402
X54528Y-46555
X54567Y-34646
X54606Y-41102
X54685Y-44685
X54803Y-37244
X54843Y-39409
X54961Y-35000
X55039Y-30827
X55157Y-45472
X55197Y-41063
X55227Y-39025
X55433Y-47087
X55551Y-34488
X55591Y-37205
X55591Y-37677
X55630Y-35315
X55662Y-43510
X55669Y-41063
X55669Y-44685
X56181Y-35000
X56220Y-30787
X56220Y-37244
X56378Y-35512
X57008Y-34724
X57047Y-31339
X57126Y-33465
X57126Y-48583
X57520Y-37638
X57638Y-45512
X57677Y-42283
X57795Y-41063
X57795Y-41693
X58031Y-46339
X58031Y-47441
X58425Y-30787
X58543Y-39606
X58543Y-40669
X58740Y-37638
X58780Y-38780
X58780Y-41969
X58819Y-40157
X58858Y-34961
X58976Y-33465
X58997Y-31208
X59161Y-43087
X59428Y-47953
X59488Y-32559
X59843Y-37402
X60197Y-41421
X60236Y-44173
X60433Y-45512
X60457Y-48535
X60461Y-42106
X60512Y-36811
X60512Y-33055
X60776Y-47882
X60799Y-46898
X60803Y-45976
X60984Y-37402
X61285Y-33471
X61339Y-35079
X48925Y-31575
X49115Y-31115
X49115Y-32034
X49575Y-30925
X49575Y-32224
X50034Y-31115
X50034Y-32034
X50224Y-31575
X59776Y-31575
X59966Y-31115
X59966Y-32034
X60425Y-30925
X60425Y-32224
X60885Y-31115
X60885Y-32034
X61075Y-31575
T2
X59630Y-34567
X60130Y-34567
X60630Y-34567
T3
X57205Y-46417
X57205Y-47417
T4
X59669Y-38469
X59669Y-39469
X59669Y-40469
X60669Y-38469
X60669Y-39469
X60669Y-40469
T5
X50472Y-34094
X50472Y-37094
X49173Y-34094
X49173Y-37094
T6
X49575Y-31575
X60425Y-31575
T0
M30
