G04 #@! TF.FileFunction,Soldermask,Top*
%FSLAX46Y46*%
G04 Gerber Fmt 4.6, Leading zero omitted, Abs format (unit mm)*
G04 Created by KiCad (PCBNEW 4.0.7) date Sun May 27 13:06:25 2018*
%MOMM*%
%LPD*%
G01*
G04 APERTURE LIST*
%ADD10C,0.100000*%
G04 APERTURE END LIST*
D10*
G36*
X145350000Y-122868000D02*
X142950000Y-122868000D01*
X142950000Y-119968000D01*
X145350000Y-119968000D01*
X145350000Y-122868000D01*
X145350000Y-122868000D01*
G37*
G36*
X136450000Y-122868000D02*
X134050000Y-122868000D01*
X134050000Y-119968000D01*
X136450000Y-119968000D01*
X136450000Y-122868000D01*
X136450000Y-122868000D01*
G37*
G36*
X133002000Y-120068000D02*
X130652000Y-120068000D01*
X130652000Y-117168000D01*
X133002000Y-117168000D01*
X133002000Y-120068000D01*
X133002000Y-120068000D01*
G37*
G36*
X129952000Y-120068000D02*
X127602000Y-120068000D01*
X127602000Y-117168000D01*
X129952000Y-117168000D01*
X129952000Y-120068000D01*
X129952000Y-120068000D01*
G37*
G36*
X137568272Y-117768431D02*
X137693142Y-117794063D01*
X137810651Y-117843460D01*
X137916331Y-117914741D01*
X138006154Y-118005194D01*
X138076697Y-118111369D01*
X138125269Y-118229216D01*
X138149962Y-118353920D01*
X138149962Y-118353930D01*
X138150028Y-118354264D01*
X138147995Y-118499861D01*
X138147919Y-118500195D01*
X138147919Y-118500206D01*
X138119756Y-118624164D01*
X138067908Y-118740616D01*
X137994430Y-118844779D01*
X137902117Y-118932687D01*
X137794486Y-119000991D01*
X137675644Y-119047088D01*
X137550111Y-119069222D01*
X137422667Y-119066553D01*
X137298164Y-119039179D01*
X137181355Y-118988146D01*
X137076683Y-118915397D01*
X136988131Y-118823699D01*
X136919081Y-118716555D01*
X136872155Y-118598034D01*
X136849143Y-118472651D01*
X136850924Y-118345192D01*
X136877425Y-118220511D01*
X136927643Y-118103344D01*
X136999660Y-117998166D01*
X137090737Y-117908976D01*
X137197400Y-117839178D01*
X137315590Y-117791426D01*
X137440800Y-117767541D01*
X137568272Y-117768431D01*
X137568272Y-117768431D01*
G37*
G36*
X141968272Y-117768431D02*
X142093142Y-117794063D01*
X142210651Y-117843460D01*
X142316331Y-117914741D01*
X142406154Y-118005194D01*
X142476697Y-118111369D01*
X142525269Y-118229216D01*
X142549962Y-118353920D01*
X142549962Y-118353930D01*
X142550028Y-118354264D01*
X142547995Y-118499861D01*
X142547919Y-118500195D01*
X142547919Y-118500206D01*
X142519756Y-118624164D01*
X142467908Y-118740616D01*
X142394430Y-118844779D01*
X142302117Y-118932687D01*
X142194486Y-119000991D01*
X142075644Y-119047088D01*
X141950111Y-119069222D01*
X141822667Y-119066553D01*
X141698164Y-119039179D01*
X141581355Y-118988146D01*
X141476683Y-118915397D01*
X141388131Y-118823699D01*
X141319081Y-118716555D01*
X141272155Y-118598034D01*
X141249143Y-118472651D01*
X141250924Y-118345192D01*
X141277425Y-118220511D01*
X141327643Y-118103344D01*
X141399660Y-117998166D01*
X141490737Y-117908976D01*
X141597400Y-117839178D01*
X141715590Y-117791426D01*
X141840800Y-117767541D01*
X141968272Y-117768431D01*
X141968272Y-117768431D01*
G37*
G36*
X150612462Y-115642945D02*
X150612471Y-115642948D01*
X150612511Y-115642952D01*
X150839219Y-115713130D01*
X151047979Y-115826006D01*
X151230838Y-115977281D01*
X151380832Y-116161192D01*
X151492248Y-116370734D01*
X151560841Y-116597927D01*
X151584000Y-116834116D01*
X151584000Y-116845922D01*
X151583896Y-116860838D01*
X151583895Y-116860846D01*
X151583881Y-116862862D01*
X151557427Y-117098705D01*
X151485669Y-117324917D01*
X151371338Y-117532884D01*
X151218791Y-117714683D01*
X151033837Y-117863389D01*
X150823522Y-117973340D01*
X150595856Y-118040345D01*
X150595822Y-118040348D01*
X150595809Y-118040352D01*
X150359513Y-118061857D01*
X150123538Y-118037055D01*
X150123529Y-118037052D01*
X150123489Y-118037048D01*
X149896781Y-117966870D01*
X149688021Y-117853994D01*
X149505162Y-117702719D01*
X149355168Y-117518808D01*
X149243752Y-117309266D01*
X149175159Y-117082073D01*
X149152000Y-116845884D01*
X149152000Y-116834078D01*
X149152104Y-116819162D01*
X149152105Y-116819154D01*
X149152119Y-116817138D01*
X149178573Y-116581295D01*
X149250331Y-116355083D01*
X149364662Y-116147116D01*
X149517209Y-115965317D01*
X149702163Y-115816611D01*
X149912478Y-115706660D01*
X150140144Y-115639655D01*
X150140178Y-115639652D01*
X150140191Y-115639648D01*
X150376487Y-115618143D01*
X150612462Y-115642945D01*
X150612462Y-115642945D01*
G37*
G36*
X149044000Y-118056000D02*
X146612000Y-118056000D01*
X146612000Y-115624000D01*
X149044000Y-115624000D01*
X149044000Y-118056000D01*
X149044000Y-118056000D01*
G37*
G36*
X154416000Y-117516000D02*
X152416000Y-117516000D01*
X152416000Y-116116000D01*
X154416000Y-116116000D01*
X154416000Y-117516000D01*
X154416000Y-117516000D01*
G37*
G36*
X156752000Y-117416000D02*
X154652000Y-117416000D01*
X154652000Y-116116000D01*
X156752000Y-116116000D01*
X156752000Y-117416000D01*
X156752000Y-117416000D01*
G37*
G36*
X145350000Y-117368000D02*
X142950000Y-117368000D01*
X142950000Y-114468000D01*
X145350000Y-114468000D01*
X145350000Y-117368000D01*
X145350000Y-117368000D01*
G37*
G36*
X136450000Y-117368000D02*
X134050000Y-117368000D01*
X134050000Y-114468000D01*
X136450000Y-114468000D01*
X136450000Y-117368000D01*
X136450000Y-117368000D01*
G37*
G36*
X141750000Y-117168000D02*
X137650000Y-117168000D01*
X137650000Y-114468000D01*
X141750000Y-114468000D01*
X141750000Y-117168000D01*
X141750000Y-117168000D01*
G37*
G36*
X133001000Y-116512000D02*
X130651000Y-116512000D01*
X130651000Y-113612000D01*
X133001000Y-113612000D01*
X133001000Y-116512000D01*
X133001000Y-116512000D01*
G37*
G36*
X129951000Y-116512000D02*
X127601000Y-116512000D01*
X127601000Y-113612000D01*
X129951000Y-113612000D01*
X129951000Y-116512000D01*
X129951000Y-116512000D01*
G37*
G36*
X156752000Y-114516000D02*
X154652000Y-114516000D01*
X154652000Y-113216000D01*
X156752000Y-113216000D01*
X156752000Y-114516000D01*
X156752000Y-114516000D01*
G37*
G36*
X154416000Y-114516000D02*
X152416000Y-114516000D01*
X152416000Y-113116000D01*
X154416000Y-113116000D01*
X154416000Y-114516000D01*
X154416000Y-114516000D01*
G37*
G36*
X127488290Y-113259210D02*
X124987710Y-113259210D01*
X124987710Y-107258510D01*
X127488290Y-107258510D01*
X127488290Y-113259210D01*
X127488290Y-113259210D01*
G37*
G36*
X153850000Y-112844000D02*
X152850000Y-112844000D01*
X152850000Y-111344000D01*
X153850000Y-111344000D01*
X153850000Y-112844000D01*
X153850000Y-112844000D01*
G37*
G36*
X151950000Y-112844000D02*
X150950000Y-112844000D01*
X150950000Y-111344000D01*
X151950000Y-111344000D01*
X151950000Y-112844000D01*
X151950000Y-112844000D01*
G37*
G36*
X150606000Y-112690000D02*
X148606000Y-112690000D01*
X148606000Y-111290000D01*
X150606000Y-111290000D01*
X150606000Y-112690000D01*
X150606000Y-112690000D01*
G37*
G36*
X135924000Y-112590000D02*
X133824000Y-112590000D01*
X133824000Y-111290000D01*
X135924000Y-111290000D01*
X135924000Y-112590000D01*
X135924000Y-112590000D01*
G37*
G36*
X138210000Y-112590000D02*
X136110000Y-112590000D01*
X136110000Y-111290000D01*
X138210000Y-111290000D01*
X138210000Y-112590000D01*
X138210000Y-112590000D01*
G37*
G36*
X140496000Y-112590000D02*
X138396000Y-112590000D01*
X138396000Y-111290000D01*
X140496000Y-111290000D01*
X140496000Y-112590000D01*
X140496000Y-112590000D01*
G37*
G36*
X156244000Y-112516000D02*
X154144000Y-112516000D01*
X154144000Y-111216000D01*
X156244000Y-111216000D01*
X156244000Y-112516000D01*
X156244000Y-112516000D01*
G37*
G36*
X148399000Y-112190000D02*
X146749000Y-112190000D01*
X146749000Y-110790000D01*
X148399000Y-110790000D01*
X148399000Y-112190000D01*
X148399000Y-112190000D01*
G37*
G36*
X144843000Y-112190000D02*
X143193000Y-112190000D01*
X143193000Y-110790000D01*
X144843000Y-110790000D01*
X144843000Y-112190000D01*
X144843000Y-112190000D01*
G37*
G36*
X146621000Y-112190000D02*
X144971000Y-112190000D01*
X144971000Y-110790000D01*
X146621000Y-110790000D01*
X146621000Y-112190000D01*
X146621000Y-112190000D01*
G37*
G36*
X142128000Y-111690000D02*
X140828000Y-111690000D01*
X140828000Y-110790000D01*
X142128000Y-110790000D01*
X142128000Y-111690000D01*
X142128000Y-111690000D01*
G37*
G36*
X133492000Y-111690000D02*
X132192000Y-111690000D01*
X132192000Y-110790000D01*
X133492000Y-110790000D01*
X133492000Y-111690000D01*
X133492000Y-111690000D01*
G37*
G36*
X146621000Y-110190000D02*
X144971000Y-110190000D01*
X144971000Y-108790000D01*
X146621000Y-108790000D01*
X146621000Y-110190000D01*
X146621000Y-110190000D01*
G37*
G36*
X142128000Y-110190000D02*
X140828000Y-110190000D01*
X140828000Y-109290000D01*
X142128000Y-109290000D01*
X142128000Y-110190000D01*
X142128000Y-110190000D01*
G37*
G36*
X133492000Y-110190000D02*
X132192000Y-110190000D01*
X132192000Y-109290000D01*
X133492000Y-109290000D01*
X133492000Y-110190000D01*
X133492000Y-110190000D01*
G37*
G36*
X144843000Y-110190000D02*
X143193000Y-110190000D01*
X143193000Y-108790000D01*
X144843000Y-108790000D01*
X144843000Y-110190000D01*
X144843000Y-110190000D01*
G37*
G36*
X148399000Y-110190000D02*
X146749000Y-110190000D01*
X146749000Y-108790000D01*
X148399000Y-108790000D01*
X148399000Y-110190000D01*
X148399000Y-110190000D01*
G37*
G36*
X153850000Y-110044000D02*
X150950000Y-110044000D01*
X150950000Y-108544000D01*
X153850000Y-108544000D01*
X153850000Y-110044000D01*
X153850000Y-110044000D01*
G37*
G36*
X135924000Y-109690000D02*
X133824000Y-109690000D01*
X133824000Y-108390000D01*
X135924000Y-108390000D01*
X135924000Y-109690000D01*
X135924000Y-109690000D01*
G37*
G36*
X140496000Y-109690000D02*
X138396000Y-109690000D01*
X138396000Y-108390000D01*
X140496000Y-108390000D01*
X140496000Y-109690000D01*
X140496000Y-109690000D01*
G37*
G36*
X138210000Y-109690000D02*
X136110000Y-109690000D01*
X136110000Y-108390000D01*
X138210000Y-108390000D01*
X138210000Y-109690000D01*
X138210000Y-109690000D01*
G37*
G36*
X150606000Y-109690000D02*
X148606000Y-109690000D01*
X148606000Y-108290000D01*
X150606000Y-108290000D01*
X150606000Y-109690000D01*
X150606000Y-109690000D01*
G37*
G36*
X156244000Y-109616000D02*
X154144000Y-109616000D01*
X154144000Y-108316000D01*
X156244000Y-108316000D01*
X156244000Y-109616000D01*
X156244000Y-109616000D01*
G37*
G36*
X132264000Y-108092000D02*
X131364000Y-108092000D01*
X131364000Y-106792000D01*
X132264000Y-106792000D01*
X132264000Y-108092000D01*
X132264000Y-108092000D01*
G37*
G36*
X130764000Y-108092000D02*
X129864000Y-108092000D01*
X129864000Y-106792000D01*
X130764000Y-106792000D01*
X130764000Y-108092000D01*
X130764000Y-108092000D01*
G37*
G36*
X150827000Y-107114000D02*
X147877000Y-107114000D01*
X147877000Y-104214000D01*
X150827000Y-104214000D01*
X150827000Y-107114000D01*
X150827000Y-107114000D01*
G37*
G36*
X155877000Y-107114000D02*
X152927000Y-107114000D01*
X152927000Y-104214000D01*
X155877000Y-104214000D01*
X155877000Y-107114000D01*
X155877000Y-107114000D01*
G37*
G36*
X133164000Y-106460000D02*
X131864000Y-106460000D01*
X131864000Y-104360000D01*
X133164000Y-104360000D01*
X133164000Y-106460000D01*
X133164000Y-106460000D01*
G37*
G36*
X130264000Y-106460000D02*
X128964000Y-106460000D01*
X128964000Y-104360000D01*
X130264000Y-104360000D01*
X130264000Y-106460000D01*
X130264000Y-106460000D01*
G37*
G36*
X142382000Y-104578000D02*
X141082000Y-104578000D01*
X141082000Y-103678000D01*
X142382000Y-103678000D01*
X142382000Y-104578000D01*
X142382000Y-104578000D01*
G37*
G36*
X140858000Y-104578000D02*
X139558000Y-104578000D01*
X139558000Y-103678000D01*
X140858000Y-103678000D01*
X140858000Y-104578000D01*
X140858000Y-104578000D01*
G37*
G36*
X132748000Y-103949000D02*
X131348000Y-103949000D01*
X131348000Y-102299000D01*
X132748000Y-102299000D01*
X132748000Y-103949000D01*
X132748000Y-103949000D01*
G37*
G36*
X130748000Y-103949000D02*
X129348000Y-103949000D01*
X129348000Y-102299000D01*
X130748000Y-102299000D01*
X130748000Y-103949000D01*
X130748000Y-103949000D01*
G37*
G36*
X127488290Y-103561490D02*
X124987710Y-103561490D01*
X124987710Y-97560790D01*
X127488290Y-97560790D01*
X127488290Y-103561490D01*
X127488290Y-103561490D01*
G37*
G36*
X142382000Y-103078000D02*
X141082000Y-103078000D01*
X141082000Y-102178000D01*
X142382000Y-102178000D01*
X142382000Y-103078000D01*
X142382000Y-103078000D01*
G37*
G36*
X140858000Y-103078000D02*
X139558000Y-103078000D01*
X139558000Y-102178000D01*
X140858000Y-102178000D01*
X140858000Y-103078000D01*
X140858000Y-103078000D01*
G37*
G36*
X132764000Y-101917000D02*
X131364000Y-101917000D01*
X131364000Y-100267000D01*
X132764000Y-100267000D01*
X132764000Y-101917000D01*
X132764000Y-101917000D01*
G37*
G36*
X130764000Y-101917000D02*
X129364000Y-101917000D01*
X129364000Y-100267000D01*
X130764000Y-100267000D01*
X130764000Y-101917000D01*
X130764000Y-101917000D01*
G37*
G36*
X147100000Y-101668000D02*
X145000000Y-101668000D01*
X145000000Y-100368000D01*
X147100000Y-100368000D01*
X147100000Y-101668000D01*
X147100000Y-101668000D01*
G37*
G36*
X144232000Y-101488000D02*
X143032000Y-101488000D01*
X143032000Y-100188000D01*
X144232000Y-100188000D01*
X144232000Y-101488000D01*
X144232000Y-101488000D01*
G37*
G36*
X142332000Y-101488000D02*
X141132000Y-101488000D01*
X141132000Y-100188000D01*
X142332000Y-100188000D01*
X142332000Y-101488000D01*
X142332000Y-101488000D01*
G37*
G36*
X149161000Y-101268000D02*
X147511000Y-101268000D01*
X147511000Y-99868000D01*
X149161000Y-99868000D01*
X149161000Y-101268000D01*
X149161000Y-101268000D01*
G37*
G36*
X139507000Y-100446000D02*
X138599000Y-100446000D01*
X138599000Y-99690000D01*
X139507000Y-99690000D01*
X139507000Y-100446000D01*
X139507000Y-100446000D01*
G37*
G36*
X130764000Y-100139000D02*
X129364000Y-100139000D01*
X129364000Y-98489000D01*
X130764000Y-98489000D01*
X130764000Y-100139000D01*
X130764000Y-100139000D01*
G37*
G36*
X132764000Y-100139000D02*
X131364000Y-100139000D01*
X131364000Y-98489000D01*
X132764000Y-98489000D01*
X132764000Y-100139000D01*
X132764000Y-100139000D01*
G37*
G36*
X140802000Y-99946000D02*
X139894000Y-99946000D01*
X139894000Y-99190000D01*
X140802000Y-99190000D01*
X140802000Y-99946000D01*
X140802000Y-99946000D01*
G37*
G36*
X143282000Y-99488000D02*
X142082000Y-99488000D01*
X142082000Y-98188000D01*
X143282000Y-98188000D01*
X143282000Y-99488000D01*
X143282000Y-99488000D01*
G37*
G36*
X139507000Y-99446000D02*
X138599000Y-99446000D01*
X138599000Y-98690000D01*
X139507000Y-98690000D01*
X139507000Y-99446000D01*
X139507000Y-99446000D01*
G37*
G36*
X149161000Y-99268000D02*
X147511000Y-99268000D01*
X147511000Y-97868000D01*
X149161000Y-97868000D01*
X149161000Y-99268000D01*
X149161000Y-99268000D01*
G37*
G36*
X147100000Y-98768000D02*
X145000000Y-98768000D01*
X145000000Y-97468000D01*
X147100000Y-97468000D01*
X147100000Y-98768000D01*
X147100000Y-98768000D01*
G37*
G36*
X152180000Y-98586000D02*
X150080000Y-98586000D01*
X150080000Y-96486000D01*
X152180000Y-96486000D01*
X152180000Y-98586000D01*
X152180000Y-98586000D01*
G37*
G36*
X153684470Y-96486065D02*
X153689741Y-96486102D01*
X153893388Y-96508945D01*
X154088720Y-96570908D01*
X154268296Y-96669631D01*
X154425277Y-96801353D01*
X154553684Y-96961059D01*
X154648624Y-97142663D01*
X154706483Y-97339250D01*
X154706487Y-97339289D01*
X154706489Y-97339297D01*
X154725057Y-97543328D01*
X154703642Y-97747082D01*
X154703639Y-97747091D01*
X154703635Y-97747132D01*
X154643037Y-97942891D01*
X154545570Y-98123153D01*
X154414947Y-98281049D01*
X154256142Y-98410567D01*
X154075205Y-98506773D01*
X153879027Y-98566003D01*
X153675081Y-98586000D01*
X153664882Y-98586000D01*
X153655530Y-98585935D01*
X153650259Y-98585898D01*
X153446612Y-98563055D01*
X153251280Y-98501092D01*
X153071704Y-98402369D01*
X152914723Y-98270647D01*
X152786316Y-98110941D01*
X152691376Y-97929337D01*
X152633517Y-97732750D01*
X152633513Y-97732711D01*
X152633511Y-97732703D01*
X152614943Y-97528672D01*
X152636358Y-97324918D01*
X152636361Y-97324909D01*
X152636365Y-97324868D01*
X152696963Y-97129109D01*
X152794430Y-96948847D01*
X152925053Y-96790951D01*
X153083858Y-96661433D01*
X153264795Y-96565227D01*
X153460973Y-96505997D01*
X153664919Y-96486000D01*
X153675118Y-96486000D01*
X153684470Y-96486065D01*
X153684470Y-96486065D01*
G37*
G36*
X130764000Y-98361000D02*
X129364000Y-98361000D01*
X129364000Y-96711000D01*
X130764000Y-96711000D01*
X130764000Y-98361000D01*
X130764000Y-98361000D01*
G37*
G36*
X132764000Y-98361000D02*
X131364000Y-98361000D01*
X131364000Y-96711000D01*
X132764000Y-96711000D01*
X132764000Y-98361000D01*
X132764000Y-98361000D01*
G37*
G36*
X151144470Y-93946065D02*
X151149741Y-93946102D01*
X151353388Y-93968945D01*
X151548720Y-94030908D01*
X151728296Y-94129631D01*
X151885277Y-94261353D01*
X152013684Y-94421059D01*
X152108624Y-94602663D01*
X152166483Y-94799250D01*
X152166487Y-94799289D01*
X152166489Y-94799297D01*
X152185057Y-95003328D01*
X152163642Y-95207082D01*
X152163639Y-95207091D01*
X152163635Y-95207132D01*
X152103037Y-95402891D01*
X152005570Y-95583153D01*
X151874947Y-95741049D01*
X151716142Y-95870567D01*
X151535205Y-95966773D01*
X151339027Y-96026003D01*
X151135081Y-96046000D01*
X151124882Y-96046000D01*
X151115530Y-96045935D01*
X151110259Y-96045898D01*
X150906612Y-96023055D01*
X150711280Y-95961092D01*
X150531704Y-95862369D01*
X150374723Y-95730647D01*
X150246316Y-95570941D01*
X150151376Y-95389337D01*
X150093517Y-95192750D01*
X150093513Y-95192711D01*
X150093511Y-95192703D01*
X150074943Y-94988672D01*
X150096358Y-94784918D01*
X150096361Y-94784909D01*
X150096365Y-94784868D01*
X150156963Y-94589109D01*
X150254430Y-94408847D01*
X150385053Y-94250951D01*
X150543858Y-94121433D01*
X150724795Y-94025227D01*
X150920973Y-93965997D01*
X151124919Y-93946000D01*
X151135118Y-93946000D01*
X151144470Y-93946065D01*
X151144470Y-93946065D01*
G37*
G36*
X153684470Y-93946065D02*
X153689741Y-93946102D01*
X153893388Y-93968945D01*
X154088720Y-94030908D01*
X154268296Y-94129631D01*
X154425277Y-94261353D01*
X154553684Y-94421059D01*
X154648624Y-94602663D01*
X154706483Y-94799250D01*
X154706487Y-94799289D01*
X154706489Y-94799297D01*
X154725057Y-95003328D01*
X154703642Y-95207082D01*
X154703639Y-95207091D01*
X154703635Y-95207132D01*
X154643037Y-95402891D01*
X154545570Y-95583153D01*
X154414947Y-95741049D01*
X154256142Y-95870567D01*
X154075205Y-95966773D01*
X153879027Y-96026003D01*
X153675081Y-96046000D01*
X153664882Y-96046000D01*
X153655530Y-96045935D01*
X153650259Y-96045898D01*
X153446612Y-96023055D01*
X153251280Y-95961092D01*
X153071704Y-95862369D01*
X152914723Y-95730647D01*
X152786316Y-95570941D01*
X152691376Y-95389337D01*
X152633517Y-95192750D01*
X152633513Y-95192711D01*
X152633511Y-95192703D01*
X152614943Y-94988672D01*
X152636358Y-94784918D01*
X152636361Y-94784909D01*
X152636365Y-94784868D01*
X152696963Y-94589109D01*
X152794430Y-94408847D01*
X152925053Y-94250951D01*
X153083858Y-94121433D01*
X153264795Y-94025227D01*
X153460973Y-93965997D01*
X153664919Y-93946000D01*
X153675118Y-93946000D01*
X153684470Y-93946065D01*
X153684470Y-93946065D01*
G37*
G36*
X125737351Y-92954254D02*
X125737364Y-92954258D01*
X125737401Y-92954262D01*
X125979770Y-93029288D01*
X126202951Y-93149961D01*
X126398442Y-93311686D01*
X126558798Y-93508301D01*
X126677910Y-93732319D01*
X126751242Y-93975205D01*
X126776000Y-94227710D01*
X126776000Y-94240290D01*
X126775873Y-94258441D01*
X126747592Y-94510575D01*
X126670876Y-94752414D01*
X126548648Y-94974747D01*
X126385562Y-95169104D01*
X126187832Y-95328084D01*
X125962989Y-95445629D01*
X125719596Y-95517263D01*
X125719562Y-95517266D01*
X125719549Y-95517270D01*
X125466926Y-95540261D01*
X125214649Y-95513746D01*
X125214636Y-95513742D01*
X125214599Y-95513738D01*
X124972230Y-95438712D01*
X124749049Y-95318039D01*
X124553558Y-95156314D01*
X124393202Y-94959699D01*
X124274090Y-94735681D01*
X124200758Y-94492795D01*
X124176000Y-94240290D01*
X124176000Y-94227710D01*
X124176127Y-94209559D01*
X124204408Y-93957425D01*
X124281124Y-93715586D01*
X124403352Y-93493253D01*
X124566438Y-93298896D01*
X124764168Y-93139916D01*
X124989011Y-93022371D01*
X125232404Y-92950737D01*
X125232438Y-92950734D01*
X125232451Y-92950730D01*
X125485074Y-92927739D01*
X125737351Y-92954254D01*
X125737351Y-92954254D01*
G37*
G36*
X129824000Y-95534000D02*
X127224000Y-95534000D01*
X127224000Y-92934000D01*
X129824000Y-92934000D01*
X129824000Y-95534000D01*
X129824000Y-95534000D01*
G37*
G36*
X153684470Y-91406065D02*
X153689741Y-91406102D01*
X153893388Y-91428945D01*
X154088720Y-91490908D01*
X154268296Y-91589631D01*
X154425277Y-91721353D01*
X154553684Y-91881059D01*
X154648624Y-92062663D01*
X154706483Y-92259250D01*
X154706487Y-92259289D01*
X154706489Y-92259297D01*
X154725057Y-92463328D01*
X154703642Y-92667082D01*
X154703639Y-92667091D01*
X154703635Y-92667132D01*
X154643037Y-92862891D01*
X154545570Y-93043153D01*
X154414947Y-93201049D01*
X154256142Y-93330567D01*
X154075205Y-93426773D01*
X153879027Y-93486003D01*
X153675081Y-93506000D01*
X153664882Y-93506000D01*
X153655530Y-93505935D01*
X153650259Y-93505898D01*
X153446612Y-93483055D01*
X153251280Y-93421092D01*
X153071704Y-93322369D01*
X152914723Y-93190647D01*
X152786316Y-93030941D01*
X152691376Y-92849337D01*
X152633517Y-92652750D01*
X152633513Y-92652711D01*
X152633511Y-92652703D01*
X152614943Y-92448672D01*
X152636358Y-92244918D01*
X152636361Y-92244909D01*
X152636365Y-92244868D01*
X152696963Y-92049109D01*
X152794430Y-91868847D01*
X152925053Y-91710951D01*
X153083858Y-91581433D01*
X153264795Y-91485227D01*
X153460973Y-91425997D01*
X153664919Y-91406000D01*
X153675118Y-91406000D01*
X153684470Y-91406065D01*
X153684470Y-91406065D01*
G37*
G36*
X151144470Y-91406065D02*
X151149741Y-91406102D01*
X151353388Y-91428945D01*
X151548720Y-91490908D01*
X151728296Y-91589631D01*
X151885277Y-91721353D01*
X152013684Y-91881059D01*
X152108624Y-92062663D01*
X152166483Y-92259250D01*
X152166487Y-92259289D01*
X152166489Y-92259297D01*
X152185057Y-92463328D01*
X152163642Y-92667082D01*
X152163639Y-92667091D01*
X152163635Y-92667132D01*
X152103037Y-92862891D01*
X152005570Y-93043153D01*
X151874947Y-93201049D01*
X151716142Y-93330567D01*
X151535205Y-93426773D01*
X151339027Y-93486003D01*
X151135081Y-93506000D01*
X151124882Y-93506000D01*
X151115530Y-93505935D01*
X151110259Y-93505898D01*
X150906612Y-93483055D01*
X150711280Y-93421092D01*
X150531704Y-93322369D01*
X150374723Y-93190647D01*
X150246316Y-93030941D01*
X150151376Y-92849337D01*
X150093517Y-92652750D01*
X150093513Y-92652711D01*
X150093511Y-92652703D01*
X150074943Y-92448672D01*
X150096358Y-92244918D01*
X150096361Y-92244909D01*
X150096365Y-92244868D01*
X150156963Y-92049109D01*
X150254430Y-91868847D01*
X150385053Y-91710951D01*
X150543858Y-91581433D01*
X150724795Y-91485227D01*
X150920973Y-91425997D01*
X151124919Y-91406000D01*
X151135118Y-91406000D01*
X151144470Y-91406065D01*
X151144470Y-91406065D01*
G37*
G36*
X145775000Y-93200000D02*
X133625000Y-93200000D01*
X133625000Y-91300000D01*
X145775000Y-91300000D01*
X145775000Y-93200000D01*
X145775000Y-93200000D01*
G37*
G36*
X153800568Y-87450092D02*
X153800578Y-87450095D01*
X153800616Y-87450099D01*
X153921722Y-87487587D01*
X154033241Y-87547885D01*
X154130923Y-87628695D01*
X154211049Y-87726939D01*
X154270567Y-87838875D01*
X154307209Y-87960240D01*
X154319580Y-88086411D01*
X154319580Y-88697589D01*
X154319517Y-88706659D01*
X154305385Y-88832644D01*
X154267052Y-88953486D01*
X154205977Y-89064580D01*
X154124487Y-89161696D01*
X154025686Y-89241134D01*
X153913337Y-89299869D01*
X153791719Y-89335663D01*
X153791689Y-89335666D01*
X153791671Y-89335671D01*
X153665468Y-89347156D01*
X153539432Y-89333908D01*
X153539422Y-89333905D01*
X153539384Y-89333901D01*
X153418278Y-89296413D01*
X153306759Y-89236115D01*
X153209077Y-89155305D01*
X153128951Y-89057061D01*
X153079000Y-88963117D01*
X153071236Y-88952466D01*
X153060109Y-88943855D01*
X153047024Y-88938685D01*
X153033016Y-88937365D01*
X153019195Y-88939999D01*
X153006656Y-88946380D01*
X152996391Y-88956002D01*
X152992341Y-88962055D01*
X152935977Y-89064580D01*
X152854487Y-89161696D01*
X152755686Y-89241134D01*
X152643337Y-89299869D01*
X152521719Y-89335663D01*
X152521689Y-89335666D01*
X152521671Y-89335671D01*
X152395468Y-89347156D01*
X152269432Y-89333908D01*
X152269422Y-89333905D01*
X152269384Y-89333901D01*
X152148278Y-89296413D01*
X152036759Y-89236115D01*
X151939077Y-89155305D01*
X151858951Y-89057061D01*
X151809000Y-88963117D01*
X151801236Y-88952466D01*
X151790109Y-88943855D01*
X151777024Y-88938685D01*
X151763016Y-88937365D01*
X151749195Y-88939999D01*
X151736656Y-88946380D01*
X151726391Y-88956002D01*
X151722341Y-88962055D01*
X151665977Y-89064580D01*
X151584487Y-89161696D01*
X151485686Y-89241134D01*
X151373337Y-89299869D01*
X151251719Y-89335663D01*
X151251689Y-89335666D01*
X151251671Y-89335671D01*
X151125468Y-89347156D01*
X150999432Y-89333908D01*
X150999422Y-89333905D01*
X150999384Y-89333901D01*
X150878278Y-89296413D01*
X150766759Y-89236115D01*
X150669077Y-89155305D01*
X150588951Y-89057061D01*
X150529433Y-88945125D01*
X150492791Y-88823760D01*
X150480420Y-88697589D01*
X150480420Y-88086411D01*
X150480483Y-88077341D01*
X150494615Y-87951356D01*
X150532948Y-87830514D01*
X150594023Y-87719420D01*
X150675513Y-87622304D01*
X150774314Y-87542866D01*
X150886663Y-87484131D01*
X151008281Y-87448337D01*
X151008311Y-87448334D01*
X151008329Y-87448329D01*
X151134532Y-87436844D01*
X151260568Y-87450092D01*
X151260578Y-87450095D01*
X151260616Y-87450099D01*
X151381722Y-87487587D01*
X151493241Y-87547885D01*
X151590923Y-87628695D01*
X151671049Y-87726939D01*
X151721000Y-87820883D01*
X151728764Y-87831534D01*
X151739891Y-87840145D01*
X151752976Y-87845315D01*
X151766984Y-87846635D01*
X151780805Y-87844001D01*
X151793344Y-87837620D01*
X151803609Y-87827998D01*
X151807659Y-87821945D01*
X151864023Y-87719420D01*
X151945513Y-87622304D01*
X152044314Y-87542866D01*
X152156663Y-87484131D01*
X152278281Y-87448337D01*
X152278311Y-87448334D01*
X152278329Y-87448329D01*
X152404532Y-87436844D01*
X152530568Y-87450092D01*
X152530578Y-87450095D01*
X152530616Y-87450099D01*
X152651722Y-87487587D01*
X152763241Y-87547885D01*
X152860923Y-87628695D01*
X152941049Y-87726939D01*
X152991000Y-87820883D01*
X152998764Y-87831534D01*
X153009891Y-87840145D01*
X153022976Y-87845315D01*
X153036984Y-87846635D01*
X153050805Y-87844001D01*
X153063344Y-87837620D01*
X153073609Y-87827998D01*
X153077659Y-87821945D01*
X153134023Y-87719420D01*
X153215513Y-87622304D01*
X153314314Y-87542866D01*
X153426663Y-87484131D01*
X153548281Y-87448337D01*
X153548311Y-87448334D01*
X153548329Y-87448329D01*
X153674532Y-87436844D01*
X153800568Y-87450092D01*
X153800568Y-87450092D01*
G37*
G36*
X133350000Y-89100000D02*
X130450000Y-89100000D01*
X130450000Y-87200000D01*
X133350000Y-87200000D01*
X133350000Y-89100000D01*
X133350000Y-89100000D01*
G37*
G36*
X148950000Y-89100000D02*
X146050000Y-89100000D01*
X146050000Y-87200000D01*
X148950000Y-87200000D01*
X148950000Y-89100000D01*
X148950000Y-89100000D01*
G37*
G36*
X128785351Y-85334254D02*
X128785364Y-85334258D01*
X128785401Y-85334262D01*
X129027770Y-85409288D01*
X129250951Y-85529961D01*
X129446442Y-85691686D01*
X129606798Y-85888301D01*
X129725910Y-86112319D01*
X129799242Y-86355205D01*
X129824000Y-86607710D01*
X129824000Y-86620290D01*
X129823873Y-86638441D01*
X129795592Y-86890575D01*
X129718876Y-87132414D01*
X129596648Y-87354747D01*
X129433562Y-87549104D01*
X129235832Y-87708084D01*
X129010989Y-87825629D01*
X128767596Y-87897263D01*
X128767562Y-87897266D01*
X128767549Y-87897270D01*
X128514926Y-87920261D01*
X128262649Y-87893746D01*
X128262636Y-87893742D01*
X128262599Y-87893738D01*
X128020230Y-87818712D01*
X127797049Y-87698039D01*
X127601558Y-87536314D01*
X127441202Y-87339699D01*
X127322090Y-87115681D01*
X127248758Y-86872795D01*
X127224000Y-86620290D01*
X127224000Y-86607710D01*
X127224127Y-86589559D01*
X127252408Y-86337425D01*
X127329124Y-86095586D01*
X127451352Y-85873253D01*
X127614438Y-85678896D01*
X127812168Y-85519916D01*
X128037011Y-85402371D01*
X128280404Y-85330737D01*
X128280438Y-85330734D01*
X128280451Y-85330730D01*
X128533074Y-85307739D01*
X128785351Y-85334254D01*
X128785351Y-85334254D01*
G37*
G36*
X126776000Y-87914000D02*
X124176000Y-87914000D01*
X124176000Y-85314000D01*
X126776000Y-85314000D01*
X126776000Y-87914000D01*
X126776000Y-87914000D01*
G37*
G36*
X153922082Y-77611596D02*
X154383135Y-77706237D01*
X154817021Y-77888626D01*
X155207220Y-78151818D01*
X155538869Y-78485791D01*
X155799331Y-78877816D01*
X155978686Y-79312965D01*
X156070038Y-79774324D01*
X156070038Y-79774339D01*
X156070103Y-79774668D01*
X156062597Y-80312255D01*
X156062521Y-80312589D01*
X156062521Y-80312601D01*
X155958325Y-80771222D01*
X155766887Y-81201197D01*
X155495582Y-81585798D01*
X155154735Y-81910381D01*
X154757344Y-82162573D01*
X154318531Y-82332779D01*
X153855019Y-82414507D01*
X153384458Y-82404651D01*
X152924766Y-82303581D01*
X152493470Y-82115153D01*
X152106985Y-81846538D01*
X151780031Y-81507968D01*
X151525071Y-81112347D01*
X151351807Y-80674733D01*
X151266842Y-80211796D01*
X151273414Y-79741179D01*
X151371270Y-79280802D01*
X151556686Y-78848195D01*
X151822596Y-78459844D01*
X152158874Y-78130535D01*
X152552708Y-77872817D01*
X152989101Y-77696503D01*
X153451426Y-77608310D01*
X153922082Y-77611596D01*
X153922082Y-77611596D01*
G37*
G36*
X125982082Y-77611596D02*
X126443135Y-77706237D01*
X126877021Y-77888626D01*
X127267220Y-78151818D01*
X127598869Y-78485791D01*
X127859331Y-78877816D01*
X128038686Y-79312965D01*
X128130038Y-79774324D01*
X128130038Y-79774339D01*
X128130103Y-79774668D01*
X128122597Y-80312255D01*
X128122521Y-80312589D01*
X128122521Y-80312601D01*
X128018325Y-80771222D01*
X127826887Y-81201197D01*
X127555582Y-81585798D01*
X127214735Y-81910381D01*
X126817344Y-82162573D01*
X126378531Y-82332779D01*
X125915019Y-82414507D01*
X125444458Y-82404651D01*
X124984766Y-82303581D01*
X124553470Y-82115153D01*
X124166985Y-81846538D01*
X123840031Y-81507968D01*
X123585071Y-81112347D01*
X123411807Y-80674733D01*
X123326842Y-80211796D01*
X123333414Y-79741179D01*
X123431270Y-79280802D01*
X123616686Y-78848195D01*
X123882596Y-78459844D01*
X124218874Y-78130535D01*
X124612708Y-77872817D01*
X125049101Y-77696503D01*
X125511426Y-77608310D01*
X125982082Y-77611596D01*
X125982082Y-77611596D01*
G37*
M02*
