M48
;DRILL file {KiCad 4.0.7} date Sun May 27 13:12:14 2018
;FORMAT={2:4/ absolute / inch / suppress leading zeros}
FMAT,2
INCH,TZ
T1C0.016
T2C0.024
T3C0.039
T4C0.040
T5C0.043
T6C0.087
%
G90
G05
M72
T1
X48850Y-31500
X49041Y-31041
X49041Y-31959
X49500Y-30850
X49500Y-32150
X49600Y-45500
X49959Y-31041
X49959Y-31959
X50150Y-31500
X50400Y-40300
X51200Y-48000
X51500Y-37600
X51500Y-43400
X51700Y-44300
X52300Y-44300
X52500Y-47900
X52600Y-46800
X52700Y-38900
X52900Y-39800
X52900Y-40500
X52900Y-40900
X53100Y-34600
X53400Y-42400
X53400Y-46500
X53600Y-35600
X53600Y-44700
X53700Y-38400
X54000Y-34800
X54200Y-37100
X54300Y-42400
X54700Y-37700
X54700Y-40800
X54800Y-40000
X54900Y-42400
X55300Y-37700
X55400Y-39600
X55781Y-37700
X56000Y-44400
X56100Y-37700
X56500Y-40300
X56500Y-40681
X56500Y-41000
X56700Y-44400
X57500Y-47800
X57800Y-40600
X58900Y-43500
X59200Y-47600
X59400Y-39800
X59850Y-31500
X60041Y-31041
X60041Y-31959
X60200Y-35600
X60500Y-30850
X60500Y-32150
X60500Y-40400
X60959Y-31041
X60959Y-31959
X61150Y-31500
T2
X59500Y-34800
X60000Y-34800
X60500Y-34800
T3
X59500Y-36400
X59500Y-37400
X59500Y-38400
X60500Y-36400
X60500Y-37400
X60500Y-38400
T4
X58200Y-46000
X59200Y-46000
T5
X49400Y-34100
X49400Y-37100
X50600Y-34100
X50600Y-37100
T6
X49500Y-31500
X60500Y-31500
T0
M30
