G04 #@! TF.GenerationSoftware,KiCad,Pcbnew,5.1.6*
G04 #@! TF.CreationDate,2020-09-12T16:37:34+02:00*
G04 #@! TF.ProjectId,xling,786c696e-672e-46b6-9963-61645f706362,4*
G04 #@! TF.SameCoordinates,Original*
G04 #@! TF.FileFunction,Soldermask,Bot*
G04 #@! TF.FilePolarity,Negative*
%FSLAX46Y46*%
G04 Gerber Fmt 4.6, Leading zero omitted, Abs format (unit mm)*
G04 Created by KiCad (PCBNEW 5.1.6) date 2020-09-12 16:37:34*
%MOMM*%
%LPD*%
G01*
G04 APERTURE LIST*
%ADD10C,0.010000*%
%ADD11C,0.100000*%
G04 APERTURE END LIST*
D10*
G36*
X56937274Y-59326226D02*
G01*
X56859714Y-59326644D01*
X56788840Y-59327289D01*
X56726326Y-59328134D01*
X56673848Y-59329150D01*
X56633079Y-59330311D01*
X56605693Y-59331588D01*
X56593365Y-59332954D01*
X56592977Y-59333122D01*
X56588641Y-59343166D01*
X56581750Y-59368743D01*
X56572556Y-59408686D01*
X56561308Y-59461828D01*
X56548255Y-59527003D01*
X56533646Y-59603043D01*
X56522820Y-59661076D01*
X56509402Y-59733234D01*
X56496670Y-59800641D01*
X56485002Y-59861366D01*
X56474779Y-59913478D01*
X56466380Y-59955047D01*
X56460185Y-59984142D01*
X56456572Y-59998832D01*
X56456244Y-59999752D01*
X56448906Y-60007898D01*
X56431800Y-60018827D01*
X56403585Y-60033192D01*
X56362925Y-60051646D01*
X56308480Y-60074844D01*
X56269247Y-60091063D01*
X56211691Y-60114602D01*
X56167664Y-60132313D01*
X56135041Y-60144819D01*
X56111695Y-60152746D01*
X56095501Y-60156718D01*
X56084331Y-60157359D01*
X56076061Y-60155293D01*
X56068564Y-60151146D01*
X56067346Y-60150364D01*
X56055069Y-60142160D01*
X56030699Y-60125638D01*
X55996098Y-60102068D01*
X55953130Y-60072722D01*
X55903657Y-60038872D01*
X55849541Y-60001789D01*
X55818852Y-59980737D01*
X55592604Y-59825467D01*
X55393053Y-59825467D01*
X55158160Y-60060472D01*
X54923267Y-60295478D01*
X54923267Y-60495319D01*
X55089399Y-60736812D01*
X55255531Y-60978306D01*
X55176182Y-61164667D01*
X55152628Y-61218906D01*
X55130757Y-61267220D01*
X55111606Y-61307469D01*
X55096210Y-61337515D01*
X55085604Y-61355219D01*
X55082149Y-61358941D01*
X55070732Y-61362236D01*
X55044586Y-61368186D01*
X55005639Y-61376402D01*
X54955820Y-61386493D01*
X54897055Y-61398069D01*
X54831274Y-61410741D01*
X54760405Y-61424119D01*
X54752651Y-61425567D01*
X54671423Y-61440968D01*
X54599911Y-61455036D01*
X54539349Y-61467504D01*
X54490969Y-61478106D01*
X54456005Y-61486573D01*
X54435691Y-61492641D01*
X54430915Y-61495190D01*
X54429542Y-61505594D01*
X54428254Y-61531258D01*
X54427079Y-61570506D01*
X54426045Y-61621665D01*
X54425179Y-61683060D01*
X54424509Y-61753017D01*
X54424063Y-61829862D01*
X54423868Y-61911920D01*
X54423863Y-61922046D01*
X54423899Y-62018927D01*
X54424096Y-62100203D01*
X54424491Y-62167204D01*
X54425122Y-62221257D01*
X54426024Y-62263692D01*
X54427235Y-62295836D01*
X54428792Y-62319019D01*
X54430731Y-62334568D01*
X54433090Y-62343813D01*
X54435674Y-62347903D01*
X54446507Y-62351666D01*
X54472062Y-62357999D01*
X54510391Y-62366497D01*
X54559547Y-62376751D01*
X54617582Y-62388356D01*
X54682549Y-62400905D01*
X54751057Y-62413727D01*
X54827533Y-62428079D01*
X54896302Y-62441501D01*
X54955778Y-62453653D01*
X55004377Y-62464194D01*
X55040514Y-62472785D01*
X55062603Y-62479086D01*
X55068746Y-62481849D01*
X55075317Y-62492398D01*
X55086752Y-62515830D01*
X55101991Y-62549554D01*
X55119971Y-62590976D01*
X55139632Y-62637505D01*
X55159912Y-62686549D01*
X55179749Y-62735515D01*
X55198083Y-62781812D01*
X55213851Y-62822847D01*
X55225992Y-62856029D01*
X55233445Y-62878765D01*
X55235206Y-62888353D01*
X55229875Y-62896781D01*
X55216113Y-62917452D01*
X55195079Y-62948656D01*
X55167933Y-62988680D01*
X55135834Y-63035814D01*
X55099942Y-63088346D01*
X55077783Y-63120701D01*
X54923267Y-63346128D01*
X54923267Y-63546970D01*
X55158565Y-63781718D01*
X55393864Y-64016467D01*
X55589633Y-64016467D01*
X55811749Y-63863780D01*
X56033866Y-63711094D01*
X56104769Y-63749744D01*
X56175673Y-63788393D01*
X56279205Y-63786013D01*
X56382738Y-63783633D01*
X56835814Y-62691433D01*
X56836274Y-62605342D01*
X56835982Y-62567632D01*
X56834827Y-62535419D01*
X56833011Y-62513033D01*
X56831594Y-62505859D01*
X56822860Y-62495792D01*
X56803155Y-62478828D01*
X56775572Y-62457498D01*
X56749044Y-62438382D01*
X56679148Y-62386945D01*
X56622107Y-62338481D01*
X56575024Y-62289756D01*
X56534997Y-62237538D01*
X56499127Y-62178595D01*
X56476192Y-62134169D01*
X56442301Y-62054439D01*
X56422612Y-61982607D01*
X56416912Y-61917684D01*
X56421023Y-61876410D01*
X56447802Y-61776920D01*
X56489872Y-61682801D01*
X56546020Y-61595629D01*
X56615036Y-61516980D01*
X56695706Y-61448427D01*
X56786820Y-61391549D01*
X56798633Y-61385464D01*
X56861775Y-61357667D01*
X56925088Y-61337087D01*
X56983706Y-61325115D01*
X57018767Y-61322599D01*
X57085090Y-61329742D01*
X57156613Y-61350081D01*
X57230369Y-61381975D01*
X57303390Y-61423787D01*
X57372709Y-61473877D01*
X57435358Y-61530607D01*
X57474252Y-61574129D01*
X57511601Y-61627386D01*
X57547421Y-61691372D01*
X57578707Y-61759944D01*
X57602456Y-61826962D01*
X57608203Y-61847993D01*
X57617147Y-61892186D01*
X57619883Y-61932463D01*
X57615904Y-61973252D01*
X57604701Y-62018983D01*
X57585766Y-62074087D01*
X57580749Y-62087289D01*
X57536780Y-62180197D01*
X57478989Y-62265539D01*
X57406702Y-62344095D01*
X57319242Y-62416644D01*
X57260067Y-62457064D01*
X57235044Y-62473791D01*
X57215855Y-62488019D01*
X57207280Y-62495972D01*
X57204745Y-62507769D01*
X57202683Y-62532620D01*
X57201334Y-62566645D01*
X57200930Y-62598421D01*
X57200800Y-62691675D01*
X57420680Y-63222920D01*
X57458028Y-63313084D01*
X57493640Y-63398921D01*
X57526963Y-63479102D01*
X57557442Y-63552304D01*
X57584525Y-63617199D01*
X57607657Y-63672462D01*
X57626284Y-63716767D01*
X57639853Y-63748789D01*
X57647810Y-63767200D01*
X57649577Y-63771015D01*
X57654817Y-63778217D01*
X57663434Y-63783025D01*
X57678518Y-63785914D01*
X57703158Y-63787360D01*
X57740443Y-63787839D01*
X57758942Y-63787867D01*
X57859289Y-63787867D01*
X57930836Y-63749805D01*
X58002384Y-63711744D01*
X58141342Y-63807425D01*
X58191188Y-63841695D01*
X58242999Y-63877224D01*
X58292621Y-63911171D01*
X58335903Y-63940695D01*
X58364008Y-63959786D01*
X58447717Y-64016467D01*
X58644030Y-64016467D01*
X58879148Y-63781348D01*
X59114267Y-63546229D01*
X59114267Y-63447865D01*
X59114107Y-63405567D01*
X59113079Y-63376111D01*
X59110359Y-63355405D01*
X59105122Y-63339358D01*
X59096545Y-63323878D01*
X59086165Y-63308333D01*
X59073757Y-63290180D01*
X59053402Y-63260427D01*
X59026725Y-63221446D01*
X58995347Y-63175608D01*
X58960892Y-63125285D01*
X58929531Y-63079489D01*
X58895437Y-63029301D01*
X58864740Y-62983337D01*
X58838692Y-62943536D01*
X58818548Y-62911838D01*
X58805560Y-62890182D01*
X58800981Y-62880523D01*
X58804014Y-62869807D01*
X58812548Y-62845683D01*
X58825719Y-62810435D01*
X58842664Y-62766348D01*
X58862519Y-62715704D01*
X58878358Y-62675899D01*
X58904676Y-62610964D01*
X58925912Y-62560523D01*
X58942743Y-62523146D01*
X58955847Y-62497403D01*
X58965903Y-62481864D01*
X58973589Y-62475100D01*
X58973627Y-62475083D01*
X58985883Y-62471856D01*
X59012791Y-62466007D01*
X59052340Y-62457932D01*
X59102518Y-62448030D01*
X59161317Y-62436696D01*
X59226724Y-62424329D01*
X59291132Y-62412357D01*
X59360532Y-62399361D01*
X59424884Y-62386924D01*
X59482232Y-62375456D01*
X59530617Y-62365363D01*
X59568082Y-62357053D01*
X59592669Y-62350935D01*
X59602282Y-62347553D01*
X59604974Y-62342682D01*
X59607232Y-62332059D01*
X59609089Y-62314398D01*
X59610580Y-62288410D01*
X59611741Y-62252807D01*
X59612605Y-62206300D01*
X59613208Y-62147603D01*
X59613584Y-62075426D01*
X59613767Y-61988482D01*
X59613800Y-61920125D01*
X59613800Y-61502257D01*
X59594750Y-61490504D01*
X59582271Y-61486334D01*
X59555105Y-61479620D01*
X59515240Y-61470778D01*
X59464663Y-61460220D01*
X59405360Y-61448363D01*
X59339318Y-61435619D01*
X59268523Y-61422405D01*
X59266667Y-61422064D01*
X59196216Y-61408922D01*
X59130845Y-61396309D01*
X59072473Y-61384626D01*
X59023015Y-61374275D01*
X58984388Y-61365658D01*
X58958509Y-61359176D01*
X58947296Y-61355230D01*
X58947160Y-61355113D01*
X58941112Y-61344839D01*
X58929753Y-61321706D01*
X58914270Y-61288436D01*
X58895853Y-61247752D01*
X58875690Y-61202376D01*
X58854968Y-61155031D01*
X58834876Y-61108438D01*
X58816602Y-61065320D01*
X58801335Y-61028400D01*
X58790261Y-61000400D01*
X58784571Y-60984041D01*
X58784067Y-60981433D01*
X58788705Y-60972543D01*
X58801885Y-60951402D01*
X58822502Y-60919676D01*
X58849453Y-60879031D01*
X58881636Y-60831135D01*
X58917946Y-60777653D01*
X58949167Y-60732049D01*
X59114267Y-60491763D01*
X59114267Y-60296064D01*
X58879519Y-60060765D01*
X58644770Y-59825467D01*
X58443790Y-59825467D01*
X58230812Y-59971150D01*
X58175781Y-60008814D01*
X58123699Y-60044498D01*
X58076649Y-60076773D01*
X58036714Y-60104208D01*
X58005977Y-60125374D01*
X57986520Y-60138841D01*
X57983227Y-60141143D01*
X57948620Y-60165452D01*
X57788493Y-60100313D01*
X57726585Y-60075060D01*
X57678550Y-60055202D01*
X57642549Y-60039823D01*
X57616742Y-60028006D01*
X57599290Y-60018836D01*
X57588352Y-60011398D01*
X57582089Y-60004774D01*
X57578661Y-59998050D01*
X57577758Y-59995401D01*
X57575066Y-59983561D01*
X57569678Y-59957010D01*
X57561966Y-59917692D01*
X57552305Y-59867549D01*
X57541070Y-59808523D01*
X57528633Y-59742559D01*
X57515369Y-59671597D01*
X57514008Y-59664281D01*
X57500580Y-59593136D01*
X57487719Y-59526999D01*
X57475826Y-59467777D01*
X57465300Y-59417380D01*
X57456540Y-59377714D01*
X57449945Y-59350687D01*
X57445915Y-59338207D01*
X57445647Y-59337805D01*
X57441006Y-59335040D01*
X57431189Y-59332726D01*
X57414870Y-59330826D01*
X57390727Y-59329304D01*
X57357437Y-59328123D01*
X57313676Y-59327248D01*
X57258120Y-59326641D01*
X57189448Y-59326267D01*
X57106334Y-59326088D01*
X57019847Y-59326063D01*
X56937274Y-59326226D01*
G37*
X56937274Y-59326226D02*
X56859714Y-59326644D01*
X56788840Y-59327289D01*
X56726326Y-59328134D01*
X56673848Y-59329150D01*
X56633079Y-59330311D01*
X56605693Y-59331588D01*
X56593365Y-59332954D01*
X56592977Y-59333122D01*
X56588641Y-59343166D01*
X56581750Y-59368743D01*
X56572556Y-59408686D01*
X56561308Y-59461828D01*
X56548255Y-59527003D01*
X56533646Y-59603043D01*
X56522820Y-59661076D01*
X56509402Y-59733234D01*
X56496670Y-59800641D01*
X56485002Y-59861366D01*
X56474779Y-59913478D01*
X56466380Y-59955047D01*
X56460185Y-59984142D01*
X56456572Y-59998832D01*
X56456244Y-59999752D01*
X56448906Y-60007898D01*
X56431800Y-60018827D01*
X56403585Y-60033192D01*
X56362925Y-60051646D01*
X56308480Y-60074844D01*
X56269247Y-60091063D01*
X56211691Y-60114602D01*
X56167664Y-60132313D01*
X56135041Y-60144819D01*
X56111695Y-60152746D01*
X56095501Y-60156718D01*
X56084331Y-60157359D01*
X56076061Y-60155293D01*
X56068564Y-60151146D01*
X56067346Y-60150364D01*
X56055069Y-60142160D01*
X56030699Y-60125638D01*
X55996098Y-60102068D01*
X55953130Y-60072722D01*
X55903657Y-60038872D01*
X55849541Y-60001789D01*
X55818852Y-59980737D01*
X55592604Y-59825467D01*
X55393053Y-59825467D01*
X55158160Y-60060472D01*
X54923267Y-60295478D01*
X54923267Y-60495319D01*
X55089399Y-60736812D01*
X55255531Y-60978306D01*
X55176182Y-61164667D01*
X55152628Y-61218906D01*
X55130757Y-61267220D01*
X55111606Y-61307469D01*
X55096210Y-61337515D01*
X55085604Y-61355219D01*
X55082149Y-61358941D01*
X55070732Y-61362236D01*
X55044586Y-61368186D01*
X55005639Y-61376402D01*
X54955820Y-61386493D01*
X54897055Y-61398069D01*
X54831274Y-61410741D01*
X54760405Y-61424119D01*
X54752651Y-61425567D01*
X54671423Y-61440968D01*
X54599911Y-61455036D01*
X54539349Y-61467504D01*
X54490969Y-61478106D01*
X54456005Y-61486573D01*
X54435691Y-61492641D01*
X54430915Y-61495190D01*
X54429542Y-61505594D01*
X54428254Y-61531258D01*
X54427079Y-61570506D01*
X54426045Y-61621665D01*
X54425179Y-61683060D01*
X54424509Y-61753017D01*
X54424063Y-61829862D01*
X54423868Y-61911920D01*
X54423863Y-61922046D01*
X54423899Y-62018927D01*
X54424096Y-62100203D01*
X54424491Y-62167204D01*
X54425122Y-62221257D01*
X54426024Y-62263692D01*
X54427235Y-62295836D01*
X54428792Y-62319019D01*
X54430731Y-62334568D01*
X54433090Y-62343813D01*
X54435674Y-62347903D01*
X54446507Y-62351666D01*
X54472062Y-62357999D01*
X54510391Y-62366497D01*
X54559547Y-62376751D01*
X54617582Y-62388356D01*
X54682549Y-62400905D01*
X54751057Y-62413727D01*
X54827533Y-62428079D01*
X54896302Y-62441501D01*
X54955778Y-62453653D01*
X55004377Y-62464194D01*
X55040514Y-62472785D01*
X55062603Y-62479086D01*
X55068746Y-62481849D01*
X55075317Y-62492398D01*
X55086752Y-62515830D01*
X55101991Y-62549554D01*
X55119971Y-62590976D01*
X55139632Y-62637505D01*
X55159912Y-62686549D01*
X55179749Y-62735515D01*
X55198083Y-62781812D01*
X55213851Y-62822847D01*
X55225992Y-62856029D01*
X55233445Y-62878765D01*
X55235206Y-62888353D01*
X55229875Y-62896781D01*
X55216113Y-62917452D01*
X55195079Y-62948656D01*
X55167933Y-62988680D01*
X55135834Y-63035814D01*
X55099942Y-63088346D01*
X55077783Y-63120701D01*
X54923267Y-63346128D01*
X54923267Y-63546970D01*
X55158565Y-63781718D01*
X55393864Y-64016467D01*
X55589633Y-64016467D01*
X55811749Y-63863780D01*
X56033866Y-63711094D01*
X56104769Y-63749744D01*
X56175673Y-63788393D01*
X56279205Y-63786013D01*
X56382738Y-63783633D01*
X56835814Y-62691433D01*
X56836274Y-62605342D01*
X56835982Y-62567632D01*
X56834827Y-62535419D01*
X56833011Y-62513033D01*
X56831594Y-62505859D01*
X56822860Y-62495792D01*
X56803155Y-62478828D01*
X56775572Y-62457498D01*
X56749044Y-62438382D01*
X56679148Y-62386945D01*
X56622107Y-62338481D01*
X56575024Y-62289756D01*
X56534997Y-62237538D01*
X56499127Y-62178595D01*
X56476192Y-62134169D01*
X56442301Y-62054439D01*
X56422612Y-61982607D01*
X56416912Y-61917684D01*
X56421023Y-61876410D01*
X56447802Y-61776920D01*
X56489872Y-61682801D01*
X56546020Y-61595629D01*
X56615036Y-61516980D01*
X56695706Y-61448427D01*
X56786820Y-61391549D01*
X56798633Y-61385464D01*
X56861775Y-61357667D01*
X56925088Y-61337087D01*
X56983706Y-61325115D01*
X57018767Y-61322599D01*
X57085090Y-61329742D01*
X57156613Y-61350081D01*
X57230369Y-61381975D01*
X57303390Y-61423787D01*
X57372709Y-61473877D01*
X57435358Y-61530607D01*
X57474252Y-61574129D01*
X57511601Y-61627386D01*
X57547421Y-61691372D01*
X57578707Y-61759944D01*
X57602456Y-61826962D01*
X57608203Y-61847993D01*
X57617147Y-61892186D01*
X57619883Y-61932463D01*
X57615904Y-61973252D01*
X57604701Y-62018983D01*
X57585766Y-62074087D01*
X57580749Y-62087289D01*
X57536780Y-62180197D01*
X57478989Y-62265539D01*
X57406702Y-62344095D01*
X57319242Y-62416644D01*
X57260067Y-62457064D01*
X57235044Y-62473791D01*
X57215855Y-62488019D01*
X57207280Y-62495972D01*
X57204745Y-62507769D01*
X57202683Y-62532620D01*
X57201334Y-62566645D01*
X57200930Y-62598421D01*
X57200800Y-62691675D01*
X57420680Y-63222920D01*
X57458028Y-63313084D01*
X57493640Y-63398921D01*
X57526963Y-63479102D01*
X57557442Y-63552304D01*
X57584525Y-63617199D01*
X57607657Y-63672462D01*
X57626284Y-63716767D01*
X57639853Y-63748789D01*
X57647810Y-63767200D01*
X57649577Y-63771015D01*
X57654817Y-63778217D01*
X57663434Y-63783025D01*
X57678518Y-63785914D01*
X57703158Y-63787360D01*
X57740443Y-63787839D01*
X57758942Y-63787867D01*
X57859289Y-63787867D01*
X57930836Y-63749805D01*
X58002384Y-63711744D01*
X58141342Y-63807425D01*
X58191188Y-63841695D01*
X58242999Y-63877224D01*
X58292621Y-63911171D01*
X58335903Y-63940695D01*
X58364008Y-63959786D01*
X58447717Y-64016467D01*
X58644030Y-64016467D01*
X58879148Y-63781348D01*
X59114267Y-63546229D01*
X59114267Y-63447865D01*
X59114107Y-63405567D01*
X59113079Y-63376111D01*
X59110359Y-63355405D01*
X59105122Y-63339358D01*
X59096545Y-63323878D01*
X59086165Y-63308333D01*
X59073757Y-63290180D01*
X59053402Y-63260427D01*
X59026725Y-63221446D01*
X58995347Y-63175608D01*
X58960892Y-63125285D01*
X58929531Y-63079489D01*
X58895437Y-63029301D01*
X58864740Y-62983337D01*
X58838692Y-62943536D01*
X58818548Y-62911838D01*
X58805560Y-62890182D01*
X58800981Y-62880523D01*
X58804014Y-62869807D01*
X58812548Y-62845683D01*
X58825719Y-62810435D01*
X58842664Y-62766348D01*
X58862519Y-62715704D01*
X58878358Y-62675899D01*
X58904676Y-62610964D01*
X58925912Y-62560523D01*
X58942743Y-62523146D01*
X58955847Y-62497403D01*
X58965903Y-62481864D01*
X58973589Y-62475100D01*
X58973627Y-62475083D01*
X58985883Y-62471856D01*
X59012791Y-62466007D01*
X59052340Y-62457932D01*
X59102518Y-62448030D01*
X59161317Y-62436696D01*
X59226724Y-62424329D01*
X59291132Y-62412357D01*
X59360532Y-62399361D01*
X59424884Y-62386924D01*
X59482232Y-62375456D01*
X59530617Y-62365363D01*
X59568082Y-62357053D01*
X59592669Y-62350935D01*
X59602282Y-62347553D01*
X59604974Y-62342682D01*
X59607232Y-62332059D01*
X59609089Y-62314398D01*
X59610580Y-62288410D01*
X59611741Y-62252807D01*
X59612605Y-62206300D01*
X59613208Y-62147603D01*
X59613584Y-62075426D01*
X59613767Y-61988482D01*
X59613800Y-61920125D01*
X59613800Y-61502257D01*
X59594750Y-61490504D01*
X59582271Y-61486334D01*
X59555105Y-61479620D01*
X59515240Y-61470778D01*
X59464663Y-61460220D01*
X59405360Y-61448363D01*
X59339318Y-61435619D01*
X59268523Y-61422405D01*
X59266667Y-61422064D01*
X59196216Y-61408922D01*
X59130845Y-61396309D01*
X59072473Y-61384626D01*
X59023015Y-61374275D01*
X58984388Y-61365658D01*
X58958509Y-61359176D01*
X58947296Y-61355230D01*
X58947160Y-61355113D01*
X58941112Y-61344839D01*
X58929753Y-61321706D01*
X58914270Y-61288436D01*
X58895853Y-61247752D01*
X58875690Y-61202376D01*
X58854968Y-61155031D01*
X58834876Y-61108438D01*
X58816602Y-61065320D01*
X58801335Y-61028400D01*
X58790261Y-61000400D01*
X58784571Y-60984041D01*
X58784067Y-60981433D01*
X58788705Y-60972543D01*
X58801885Y-60951402D01*
X58822502Y-60919676D01*
X58849453Y-60879031D01*
X58881636Y-60831135D01*
X58917946Y-60777653D01*
X58949167Y-60732049D01*
X59114267Y-60491763D01*
X59114267Y-60296064D01*
X58879519Y-60060765D01*
X58644770Y-59825467D01*
X58443790Y-59825467D01*
X58230812Y-59971150D01*
X58175781Y-60008814D01*
X58123699Y-60044498D01*
X58076649Y-60076773D01*
X58036714Y-60104208D01*
X58005977Y-60125374D01*
X57986520Y-60138841D01*
X57983227Y-60141143D01*
X57948620Y-60165452D01*
X57788493Y-60100313D01*
X57726585Y-60075060D01*
X57678550Y-60055202D01*
X57642549Y-60039823D01*
X57616742Y-60028006D01*
X57599290Y-60018836D01*
X57588352Y-60011398D01*
X57582089Y-60004774D01*
X57578661Y-59998050D01*
X57577758Y-59995401D01*
X57575066Y-59983561D01*
X57569678Y-59957010D01*
X57561966Y-59917692D01*
X57552305Y-59867549D01*
X57541070Y-59808523D01*
X57528633Y-59742559D01*
X57515369Y-59671597D01*
X57514008Y-59664281D01*
X57500580Y-59593136D01*
X57487719Y-59526999D01*
X57475826Y-59467777D01*
X57465300Y-59417380D01*
X57456540Y-59377714D01*
X57449945Y-59350687D01*
X57445915Y-59338207D01*
X57445647Y-59337805D01*
X57441006Y-59335040D01*
X57431189Y-59332726D01*
X57414870Y-59330826D01*
X57390727Y-59329304D01*
X57357437Y-59328123D01*
X57313676Y-59327248D01*
X57258120Y-59326641D01*
X57189448Y-59326267D01*
X57106334Y-59326088D01*
X57019847Y-59326063D01*
X56937274Y-59326226D01*
D11*
G36*
X61438827Y-83209076D02*
G01*
X61589629Y-83254821D01*
X61728605Y-83329105D01*
X61850422Y-83429078D01*
X61950395Y-83550895D01*
X62024679Y-83689871D01*
X62070424Y-83840673D01*
X62082000Y-83958205D01*
X62082000Y-84736795D01*
X62070424Y-84854327D01*
X62024679Y-85005129D01*
X61950395Y-85144105D01*
X61850422Y-85265922D01*
X61728604Y-85365895D01*
X61589628Y-85440179D01*
X61438826Y-85485924D01*
X61282000Y-85501370D01*
X61125173Y-85485924D01*
X60974371Y-85440179D01*
X60835395Y-85365895D01*
X60713578Y-85265922D01*
X60613605Y-85144104D01*
X60539321Y-85005128D01*
X60493576Y-84854326D01*
X60482000Y-84736794D01*
X60482000Y-83958205D01*
X60493576Y-83840673D01*
X60539322Y-83689871D01*
X60613606Y-83550895D01*
X60713579Y-83429078D01*
X60835396Y-83329105D01*
X60974372Y-83254821D01*
X61125174Y-83209076D01*
X61282000Y-83193630D01*
X61438827Y-83209076D01*
G37*
G36*
X68438826Y-83209076D02*
G01*
X68589628Y-83254821D01*
X68728604Y-83329105D01*
X68850422Y-83429078D01*
X68950395Y-83550895D01*
X69024679Y-83689871D01*
X69070424Y-83840673D01*
X69082000Y-83958205D01*
X69082000Y-84736795D01*
X69070424Y-84854327D01*
X69024679Y-85005129D01*
X68950395Y-85144105D01*
X68850422Y-85265922D01*
X68728605Y-85365895D01*
X68589629Y-85440179D01*
X68438827Y-85485924D01*
X68282000Y-85501370D01*
X68125174Y-85485924D01*
X67974372Y-85440179D01*
X67835396Y-85365895D01*
X67713579Y-85265922D01*
X67613606Y-85144105D01*
X67539322Y-85005129D01*
X67493576Y-84854327D01*
X67482000Y-84736795D01*
X67482000Y-83958206D01*
X67493576Y-83840674D01*
X67539321Y-83689872D01*
X67613605Y-83550896D01*
X67713578Y-83429078D01*
X67835395Y-83329105D01*
X67974371Y-83254821D01*
X68125173Y-83209076D01*
X68282000Y-83193630D01*
X68438826Y-83209076D01*
G37*
G36*
X67551811Y-80758046D02*
G01*
X67551814Y-80758047D01*
X67551813Y-80758047D01*
X67720152Y-80827775D01*
X67871653Y-80929005D01*
X68000495Y-81057847D01*
X68101725Y-81209348D01*
X68159490Y-81348806D01*
X68171454Y-81377689D01*
X68207000Y-81556394D01*
X68207000Y-81738606D01*
X68171454Y-81917311D01*
X68171453Y-81917313D01*
X68101725Y-82085652D01*
X68000495Y-82237153D01*
X67871653Y-82365995D01*
X67720152Y-82467225D01*
X67580694Y-82524990D01*
X67551811Y-82536954D01*
X67373106Y-82572500D01*
X67190894Y-82572500D01*
X67012189Y-82536954D01*
X66983306Y-82524990D01*
X66843848Y-82467225D01*
X66692347Y-82365995D01*
X66563505Y-82237153D01*
X66462275Y-82085652D01*
X66392547Y-81917313D01*
X66392546Y-81917311D01*
X66357000Y-81738606D01*
X66357000Y-81556394D01*
X66392546Y-81377689D01*
X66404510Y-81348806D01*
X66462275Y-81209348D01*
X66563505Y-81057847D01*
X66692347Y-80929005D01*
X66843848Y-80827775D01*
X67012187Y-80758047D01*
X67012186Y-80758047D01*
X67012189Y-80758046D01*
X67190894Y-80722500D01*
X67373106Y-80722500D01*
X67551811Y-80758046D01*
G37*
G36*
X62551811Y-80758046D02*
G01*
X62551814Y-80758047D01*
X62551813Y-80758047D01*
X62720152Y-80827775D01*
X62871653Y-80929005D01*
X63000495Y-81057847D01*
X63101725Y-81209348D01*
X63159490Y-81348806D01*
X63171454Y-81377689D01*
X63207000Y-81556394D01*
X63207000Y-81738606D01*
X63171454Y-81917311D01*
X63171453Y-81917313D01*
X63101725Y-82085652D01*
X63000495Y-82237153D01*
X62871653Y-82365995D01*
X62720152Y-82467225D01*
X62580694Y-82524990D01*
X62551811Y-82536954D01*
X62373106Y-82572500D01*
X62190894Y-82572500D01*
X62012189Y-82536954D01*
X61983306Y-82524990D01*
X61843848Y-82467225D01*
X61692347Y-82365995D01*
X61563505Y-82237153D01*
X61462275Y-82085652D01*
X61392547Y-81917313D01*
X61392546Y-81917311D01*
X61357000Y-81738606D01*
X61357000Y-81556394D01*
X61392546Y-81377689D01*
X61404510Y-81348806D01*
X61462275Y-81209348D01*
X61563505Y-81057847D01*
X61692347Y-80929005D01*
X61843848Y-80827775D01*
X62012187Y-80758047D01*
X62012186Y-80758047D01*
X62012189Y-80758046D01*
X62190894Y-80722500D01*
X62373106Y-80722500D01*
X62551811Y-80758046D01*
G37*
G36*
X70384900Y-79200000D02*
G01*
X68984900Y-79200000D01*
X68984900Y-78300000D01*
X70384900Y-78300000D01*
X70384900Y-79200000D01*
G37*
G36*
X72884900Y-78600000D02*
G01*
X71234900Y-78600000D01*
X71234900Y-77500000D01*
X72884900Y-77500000D01*
X72884900Y-78600000D01*
G37*
G36*
X68134900Y-78600000D02*
G01*
X66484900Y-78600000D01*
X66484900Y-77500000D01*
X68134900Y-77500000D01*
X68134900Y-78600000D01*
G37*
G36*
X79605100Y-77701400D02*
G01*
X78205100Y-77701400D01*
X78205100Y-76801400D01*
X79605100Y-76801400D01*
X79605100Y-77701400D01*
G37*
G36*
X61202800Y-77701400D02*
G01*
X59802800Y-77701400D01*
X59802800Y-76801400D01*
X61202800Y-76801400D01*
X61202800Y-77701400D01*
G37*
G36*
X58952800Y-77101400D02*
G01*
X57302800Y-77101400D01*
X57302800Y-76001400D01*
X58952800Y-76001400D01*
X58952800Y-77101400D01*
G37*
G36*
X63702800Y-77101400D02*
G01*
X62052800Y-77101400D01*
X62052800Y-76001400D01*
X63702800Y-76001400D01*
X63702800Y-77101400D01*
G37*
G36*
X77355100Y-77101400D02*
G01*
X75705100Y-77101400D01*
X75705100Y-76001400D01*
X77355100Y-76001400D01*
X77355100Y-77101400D01*
G37*
G36*
X82105100Y-77101400D02*
G01*
X80455100Y-77101400D01*
X80455100Y-76001400D01*
X82105100Y-76001400D01*
X82105100Y-77101400D01*
G37*
G36*
X68134900Y-74900000D02*
G01*
X66484900Y-74900000D01*
X66484900Y-73800000D01*
X68134900Y-73800000D01*
X68134900Y-74900000D01*
G37*
G36*
X72884900Y-74900000D02*
G01*
X71234900Y-74900000D01*
X71234900Y-73800000D01*
X72884900Y-73800000D01*
X72884900Y-74900000D01*
G37*
G36*
X70384900Y-74100000D02*
G01*
X68984900Y-74100000D01*
X68984900Y-73200000D01*
X70384900Y-73200000D01*
X70384900Y-74100000D01*
G37*
G36*
X58952800Y-73401400D02*
G01*
X57302800Y-73401400D01*
X57302800Y-72301400D01*
X58952800Y-72301400D01*
X58952800Y-73401400D01*
G37*
G36*
X77355100Y-73401400D02*
G01*
X75705100Y-73401400D01*
X75705100Y-72301400D01*
X77355100Y-72301400D01*
X77355100Y-73401400D01*
G37*
G36*
X63702800Y-73401400D02*
G01*
X62052800Y-73401400D01*
X62052800Y-72301400D01*
X63702800Y-72301400D01*
X63702800Y-73401400D01*
G37*
G36*
X82105100Y-73401400D02*
G01*
X80455100Y-73401400D01*
X80455100Y-72301400D01*
X82105100Y-72301400D01*
X82105100Y-73401400D01*
G37*
G36*
X61202800Y-72601400D02*
G01*
X59802800Y-72601400D01*
X59802800Y-71701400D01*
X61202800Y-71701400D01*
X61202800Y-72601400D01*
G37*
G36*
X79605100Y-72601400D02*
G01*
X78205100Y-72601400D01*
X78205100Y-71701400D01*
X79605100Y-71701400D01*
X79605100Y-72601400D01*
G37*
G36*
X72663825Y-59272715D02*
G01*
X72672902Y-59276475D01*
X72882213Y-59363174D01*
X73078755Y-59494499D01*
X73245901Y-59661645D01*
X73301390Y-59744691D01*
X73377227Y-59858189D01*
X73467685Y-60076575D01*
X73513800Y-60308409D01*
X73513800Y-60544791D01*
X73467685Y-60776625D01*
X73447026Y-60826500D01*
X73377226Y-60995013D01*
X73245901Y-61191555D01*
X73078755Y-61358701D01*
X72882213Y-61490026D01*
X72882212Y-61490027D01*
X72882211Y-61490027D01*
X72663825Y-61580485D01*
X72431991Y-61626600D01*
X72195609Y-61626600D01*
X71963775Y-61580485D01*
X71745389Y-61490027D01*
X71745388Y-61490027D01*
X71745387Y-61490026D01*
X71548845Y-61358701D01*
X71381699Y-61191555D01*
X71250374Y-60995013D01*
X71180574Y-60826500D01*
X71159915Y-60776625D01*
X71113800Y-60544791D01*
X71113800Y-60308409D01*
X71159915Y-60076575D01*
X71250373Y-59858189D01*
X71326210Y-59744691D01*
X71381699Y-59661645D01*
X71548845Y-59494499D01*
X71745387Y-59363174D01*
X71954698Y-59276475D01*
X71963775Y-59272715D01*
X72195609Y-59226600D01*
X72431991Y-59226600D01*
X72663825Y-59272715D01*
G37*
G36*
X76270625Y-58472615D02*
G01*
X76270628Y-58472616D01*
X76270627Y-58472616D01*
X76489013Y-58563074D01*
X76685555Y-58694399D01*
X76852701Y-58861545D01*
X76984026Y-59058087D01*
X76984027Y-59058089D01*
X77074485Y-59276475D01*
X77120600Y-59508309D01*
X77120600Y-59744691D01*
X77074485Y-59976525D01*
X77074484Y-59976527D01*
X76984026Y-60194913D01*
X76852701Y-60391455D01*
X76685555Y-60558601D01*
X76489013Y-60689926D01*
X76489012Y-60689927D01*
X76489011Y-60689927D01*
X76270625Y-60780385D01*
X76038791Y-60826500D01*
X75802409Y-60826500D01*
X75570575Y-60780385D01*
X75352189Y-60689927D01*
X75352188Y-60689927D01*
X75352187Y-60689926D01*
X75155645Y-60558601D01*
X74988499Y-60391455D01*
X74857174Y-60194913D01*
X74766716Y-59976527D01*
X74766715Y-59976525D01*
X74720600Y-59744691D01*
X74720600Y-59508309D01*
X74766715Y-59276475D01*
X74857173Y-59058089D01*
X74857174Y-59058087D01*
X74988499Y-58861545D01*
X75155645Y-58694399D01*
X75352187Y-58563074D01*
X75570573Y-58472616D01*
X75570572Y-58472616D01*
X75570575Y-58472615D01*
X75802409Y-58426500D01*
X76038791Y-58426500D01*
X76270625Y-58472615D01*
G37*
G36*
X56039525Y-52122615D02*
G01*
X56104610Y-52149574D01*
X56257913Y-52213074D01*
X56454455Y-52344399D01*
X56621601Y-52511545D01*
X56710498Y-52644589D01*
X56752927Y-52708089D01*
X56843385Y-52926475D01*
X56889500Y-53158309D01*
X56889500Y-53394691D01*
X56843385Y-53626525D01*
X56752927Y-53844911D01*
X56752926Y-53844913D01*
X56621601Y-54041455D01*
X56454455Y-54208601D01*
X56257913Y-54339926D01*
X56257912Y-54339927D01*
X56257911Y-54339927D01*
X56039525Y-54430385D01*
X55807691Y-54476500D01*
X55571309Y-54476500D01*
X55339475Y-54430385D01*
X55121089Y-54339927D01*
X55121088Y-54339927D01*
X55121087Y-54339926D01*
X54924545Y-54208601D01*
X54757399Y-54041455D01*
X54626074Y-53844913D01*
X54626073Y-53844911D01*
X54535615Y-53626525D01*
X54489500Y-53394691D01*
X54489500Y-53158309D01*
X54535615Y-52926475D01*
X54626073Y-52708089D01*
X54668502Y-52644589D01*
X54757399Y-52511545D01*
X54924545Y-52344399D01*
X55121087Y-52213074D01*
X55274390Y-52149574D01*
X55339475Y-52122615D01*
X55571309Y-52076500D01*
X55807691Y-52076500D01*
X56039525Y-52122615D01*
G37*
G36*
X59278025Y-52059115D02*
G01*
X59496411Y-52149573D01*
X59496413Y-52149574D01*
X59692955Y-52280899D01*
X59860101Y-52448045D01*
X59991426Y-52644587D01*
X59991427Y-52644589D01*
X60081885Y-52862975D01*
X60128000Y-53094809D01*
X60128000Y-53331191D01*
X60081885Y-53563025D01*
X60055582Y-53626527D01*
X59991426Y-53781413D01*
X59860101Y-53977955D01*
X59692955Y-54145101D01*
X59496413Y-54276426D01*
X59496412Y-54276427D01*
X59496411Y-54276427D01*
X59278025Y-54366885D01*
X59046191Y-54413000D01*
X58809809Y-54413000D01*
X58577975Y-54366885D01*
X58359589Y-54276427D01*
X58359588Y-54276427D01*
X58359587Y-54276426D01*
X58163045Y-54145101D01*
X57995899Y-53977955D01*
X57864574Y-53781413D01*
X57800418Y-53626527D01*
X57774115Y-53563025D01*
X57728000Y-53331191D01*
X57728000Y-53094809D01*
X57774115Y-52862975D01*
X57864573Y-52644589D01*
X57864574Y-52644587D01*
X57995899Y-52448045D01*
X58163045Y-52280899D01*
X58359587Y-52149574D01*
X58359589Y-52149573D01*
X58577975Y-52059115D01*
X58809809Y-52013000D01*
X59046191Y-52013000D01*
X59278025Y-52059115D01*
G37*
G36*
X62580025Y-52059115D02*
G01*
X62798411Y-52149573D01*
X62798413Y-52149574D01*
X62994955Y-52280899D01*
X63162101Y-52448045D01*
X63293426Y-52644587D01*
X63293427Y-52644589D01*
X63383885Y-52862975D01*
X63430000Y-53094809D01*
X63430000Y-53331191D01*
X63383885Y-53563025D01*
X63357582Y-53626527D01*
X63293426Y-53781413D01*
X63162101Y-53977955D01*
X62994955Y-54145101D01*
X62798413Y-54276426D01*
X62798412Y-54276427D01*
X62798411Y-54276427D01*
X62580025Y-54366885D01*
X62348191Y-54413000D01*
X62111809Y-54413000D01*
X61879975Y-54366885D01*
X61661589Y-54276427D01*
X61661588Y-54276427D01*
X61661587Y-54276426D01*
X61465045Y-54145101D01*
X61297899Y-53977955D01*
X61166574Y-53781413D01*
X61102418Y-53626527D01*
X61076115Y-53563025D01*
X61030000Y-53331191D01*
X61030000Y-53094809D01*
X61076115Y-52862975D01*
X61166573Y-52644589D01*
X61166574Y-52644587D01*
X61297899Y-52448045D01*
X61465045Y-52280899D01*
X61661587Y-52149574D01*
X61661589Y-52149573D01*
X61879975Y-52059115D01*
X62111809Y-52013000D01*
X62348191Y-52013000D01*
X62580025Y-52059115D01*
G37*
G36*
X62707025Y-47423615D02*
G01*
X62707028Y-47423616D01*
X62707027Y-47423616D01*
X62925413Y-47514074D01*
X63121955Y-47645399D01*
X63289101Y-47812545D01*
X63420426Y-48009087D01*
X63420427Y-48009089D01*
X63510885Y-48227475D01*
X63557000Y-48459309D01*
X63557000Y-48695691D01*
X63510885Y-48927525D01*
X63510884Y-48927527D01*
X63420426Y-49145913D01*
X63289101Y-49342455D01*
X63121955Y-49509601D01*
X62925413Y-49640926D01*
X62925412Y-49640927D01*
X62925411Y-49640927D01*
X62707025Y-49731385D01*
X62475191Y-49777500D01*
X62238809Y-49777500D01*
X62006975Y-49731385D01*
X61788589Y-49640927D01*
X61788588Y-49640927D01*
X61788587Y-49640926D01*
X61592045Y-49509601D01*
X61424899Y-49342455D01*
X61293574Y-49145913D01*
X61203116Y-48927527D01*
X61203115Y-48927525D01*
X61157000Y-48695691D01*
X61157000Y-48459309D01*
X61203115Y-48227475D01*
X61293573Y-48009089D01*
X61293574Y-48009087D01*
X61424899Y-47812545D01*
X61592045Y-47645399D01*
X61788587Y-47514074D01*
X62006973Y-47423616D01*
X62006972Y-47423616D01*
X62006975Y-47423615D01*
X62238809Y-47377500D01*
X62475191Y-47377500D01*
X62707025Y-47423615D01*
G37*
G36*
X65882025Y-47423615D02*
G01*
X65882028Y-47423616D01*
X65882027Y-47423616D01*
X66100413Y-47514074D01*
X66296955Y-47645399D01*
X66464101Y-47812545D01*
X66595426Y-48009087D01*
X66595427Y-48009089D01*
X66685885Y-48227475D01*
X66732000Y-48459309D01*
X66732000Y-48695691D01*
X66685885Y-48927525D01*
X66685884Y-48927527D01*
X66595426Y-49145913D01*
X66464101Y-49342455D01*
X66296955Y-49509601D01*
X66100413Y-49640926D01*
X66100412Y-49640927D01*
X66100411Y-49640927D01*
X65882025Y-49731385D01*
X65650191Y-49777500D01*
X65413809Y-49777500D01*
X65181975Y-49731385D01*
X64963589Y-49640927D01*
X64963588Y-49640927D01*
X64963587Y-49640926D01*
X64767045Y-49509601D01*
X64599899Y-49342455D01*
X64468574Y-49145913D01*
X64378116Y-48927527D01*
X64378115Y-48927525D01*
X64332000Y-48695691D01*
X64332000Y-48459309D01*
X64378115Y-48227475D01*
X64468573Y-48009089D01*
X64468574Y-48009087D01*
X64599899Y-47812545D01*
X64767045Y-47645399D01*
X64963587Y-47514074D01*
X65181973Y-47423616D01*
X65181972Y-47423616D01*
X65181975Y-47423615D01*
X65413809Y-47377500D01*
X65650191Y-47377500D01*
X65882025Y-47423615D01*
G37*
G36*
X59468525Y-47423615D02*
G01*
X59468528Y-47423616D01*
X59468527Y-47423616D01*
X59686913Y-47514074D01*
X59883455Y-47645399D01*
X60050601Y-47812545D01*
X60181926Y-48009087D01*
X60181927Y-48009089D01*
X60272385Y-48227475D01*
X60318500Y-48459309D01*
X60318500Y-48695691D01*
X60272385Y-48927525D01*
X60272384Y-48927527D01*
X60181926Y-49145913D01*
X60050601Y-49342455D01*
X59883455Y-49509601D01*
X59686913Y-49640926D01*
X59686912Y-49640927D01*
X59686911Y-49640927D01*
X59468525Y-49731385D01*
X59236691Y-49777500D01*
X59000309Y-49777500D01*
X58768475Y-49731385D01*
X58550089Y-49640927D01*
X58550088Y-49640927D01*
X58550087Y-49640926D01*
X58353545Y-49509601D01*
X58186399Y-49342455D01*
X58055074Y-49145913D01*
X57964616Y-48927527D01*
X57964615Y-48927525D01*
X57918500Y-48695691D01*
X57918500Y-48459309D01*
X57964615Y-48227475D01*
X58055073Y-48009089D01*
X58055074Y-48009087D01*
X58186399Y-47812545D01*
X58353545Y-47645399D01*
X58550087Y-47514074D01*
X58768473Y-47423616D01*
X58768472Y-47423616D01*
X58768475Y-47423615D01*
X59000309Y-47377500D01*
X59236691Y-47377500D01*
X59468525Y-47423615D01*
G37*
M02*
