G04 #@! TF.GenerationSoftware,KiCad,Pcbnew,5.1.6*
G04 #@! TF.CreationDate,2020-09-13T12:05:48+02:00*
G04 #@! TF.ProjectId,xling,786c696e-672e-46b6-9963-61645f706362,4*
G04 #@! TF.SameCoordinates,Original*
G04 #@! TF.FileFunction,Soldermask,Top*
G04 #@! TF.FilePolarity,Negative*
%FSLAX46Y46*%
G04 Gerber Fmt 4.6, Leading zero omitted, Abs format (unit mm)*
G04 Created by KiCad (PCBNEW 5.1.6) date 2020-09-13 12:05:48*
%MOMM*%
%LPD*%
G01*
G04 APERTURE LIST*
%ADD10C,0.100000*%
G04 APERTURE END LIST*
D10*
G36*
X84462000Y-85955000D02*
G01*
X82812000Y-85955000D01*
X82812000Y-83755000D01*
X84462000Y-83755000D01*
X84462000Y-85955000D01*
G37*
G36*
X71752000Y-85955000D02*
G01*
X70102000Y-85955000D01*
X70102000Y-83755000D01*
X71752000Y-83755000D01*
X71752000Y-85955000D01*
G37*
G36*
X61318848Y-83197259D02*
G01*
X61323749Y-83197500D01*
X62682000Y-83197500D01*
X62682000Y-85497500D01*
X61323748Y-85497500D01*
X61318847Y-85497741D01*
X61282000Y-85501370D01*
X61245152Y-85497741D01*
X61240251Y-85497500D01*
X61080234Y-85497500D01*
X61078194Y-85490775D01*
X61073574Y-85482131D01*
X61067356Y-85474554D01*
X61059779Y-85468336D01*
X61051135Y-85463716D01*
X61046521Y-85462065D01*
X61007980Y-85450374D01*
X60974371Y-85440179D01*
X60835395Y-85365895D01*
X60713578Y-85265922D01*
X60613605Y-85144104D01*
X60539321Y-85005128D01*
X60493576Y-84854326D01*
X60482000Y-84736794D01*
X60482000Y-83958205D01*
X60493576Y-83840673D01*
X60539322Y-83689871D01*
X60613606Y-83550895D01*
X60713579Y-83429078D01*
X60835396Y-83329105D01*
X60974372Y-83254821D01*
X61046515Y-83232937D01*
X61055570Y-83229186D01*
X61063720Y-83223741D01*
X61070651Y-83216810D01*
X61076096Y-83208661D01*
X61079847Y-83199605D01*
X61080266Y-83197500D01*
X61240252Y-83197500D01*
X61245153Y-83197259D01*
X61282000Y-83193630D01*
X61318848Y-83197259D01*
G37*
G36*
X68318847Y-83197259D02*
G01*
X68323748Y-83197500D01*
X68483766Y-83197500D01*
X68485806Y-83204225D01*
X68490426Y-83212869D01*
X68496644Y-83220446D01*
X68504221Y-83226664D01*
X68512865Y-83231284D01*
X68517485Y-83232937D01*
X68589628Y-83254821D01*
X68728604Y-83329105D01*
X68850422Y-83429078D01*
X68950395Y-83550895D01*
X69024679Y-83689871D01*
X69070424Y-83840673D01*
X69082000Y-83958205D01*
X69082000Y-84736795D01*
X69070424Y-84854327D01*
X69024679Y-85005129D01*
X68950395Y-85144105D01*
X68850422Y-85265922D01*
X68728605Y-85365895D01*
X68589629Y-85440179D01*
X68556020Y-85450374D01*
X68517482Y-85462064D01*
X68508430Y-85465814D01*
X68500280Y-85471259D01*
X68493350Y-85478190D01*
X68487904Y-85486339D01*
X68484153Y-85495395D01*
X68483734Y-85497500D01*
X68323749Y-85497500D01*
X68318848Y-85497741D01*
X68282000Y-85501370D01*
X68245153Y-85497741D01*
X68240252Y-85497500D01*
X66882000Y-85497500D01*
X66882000Y-83197500D01*
X68240251Y-83197500D01*
X68245152Y-83197259D01*
X68282000Y-83193630D01*
X68318847Y-83197259D01*
G37*
G36*
X66732000Y-85497500D02*
G01*
X64832000Y-85497500D01*
X64832000Y-83197500D01*
X66732000Y-83197500D01*
X66732000Y-85497500D01*
G37*
G36*
X64732000Y-85497500D02*
G01*
X62832000Y-85497500D01*
X62832000Y-83197500D01*
X64732000Y-83197500D01*
X64732000Y-85497500D01*
G37*
G36*
X59502000Y-85345000D02*
G01*
X57852000Y-85345000D01*
X57852000Y-82295000D01*
X59502000Y-82295000D01*
X59502000Y-85345000D01*
G37*
G36*
X56702000Y-85345000D02*
G01*
X55052000Y-85345000D01*
X55052000Y-82295000D01*
X56702000Y-82295000D01*
X56702000Y-85345000D01*
G37*
G36*
X62551811Y-80758046D02*
G01*
X62551814Y-80758047D01*
X62551813Y-80758047D01*
X62720152Y-80827775D01*
X62871653Y-80929005D01*
X62996652Y-81054004D01*
X63004223Y-81060217D01*
X63012867Y-81064837D01*
X63022247Y-81067682D01*
X63032001Y-81068643D01*
X63041755Y-81067682D01*
X63051135Y-81064837D01*
X63059779Y-81060217D01*
X63067356Y-81053999D01*
X63073574Y-81046422D01*
X63078194Y-81037778D01*
X63081039Y-81028398D01*
X63082000Y-81018644D01*
X63082000Y-80772500D01*
X66482000Y-80772500D01*
X66482000Y-81018644D01*
X66482961Y-81028398D01*
X66485806Y-81037778D01*
X66490426Y-81046422D01*
X66496644Y-81053999D01*
X66504221Y-81060217D01*
X66512865Y-81064837D01*
X66522245Y-81067682D01*
X66531999Y-81068643D01*
X66541753Y-81067682D01*
X66551133Y-81064837D01*
X66559777Y-81060217D01*
X66567348Y-81054004D01*
X66692347Y-80929005D01*
X66843848Y-80827775D01*
X67012187Y-80758047D01*
X67012186Y-80758047D01*
X67012189Y-80758046D01*
X67190894Y-80722500D01*
X67373106Y-80722500D01*
X67551811Y-80758046D01*
X67551814Y-80758047D01*
X67551813Y-80758047D01*
X67720152Y-80827775D01*
X67871653Y-80929005D01*
X68000495Y-81057847D01*
X68101725Y-81209348D01*
X68159490Y-81348806D01*
X68171454Y-81377689D01*
X68207000Y-81556394D01*
X68207000Y-81738606D01*
X68171454Y-81917311D01*
X68171453Y-81917313D01*
X68101725Y-82085652D01*
X68000495Y-82237153D01*
X67871653Y-82365995D01*
X67720152Y-82467225D01*
X67586706Y-82522500D01*
X67551811Y-82536954D01*
X67373106Y-82572500D01*
X67190894Y-82572500D01*
X67012189Y-82536954D01*
X66977294Y-82522500D01*
X66843848Y-82467225D01*
X66692347Y-82365995D01*
X66567348Y-82240996D01*
X66559777Y-82234783D01*
X66551133Y-82230163D01*
X66541753Y-82227318D01*
X66531999Y-82226357D01*
X66522245Y-82227318D01*
X66512865Y-82230163D01*
X66504221Y-82234783D01*
X66496644Y-82241001D01*
X66490426Y-82248578D01*
X66485806Y-82257222D01*
X66482961Y-82266602D01*
X66482000Y-82276356D01*
X66482000Y-82522500D01*
X63082000Y-82522500D01*
X63082000Y-82276356D01*
X63081039Y-82266602D01*
X63078194Y-82257222D01*
X63073574Y-82248578D01*
X63067356Y-82241001D01*
X63059779Y-82234783D01*
X63051135Y-82230163D01*
X63041755Y-82227318D01*
X63032001Y-82226357D01*
X63022247Y-82227318D01*
X63012867Y-82230163D01*
X63004223Y-82234783D01*
X62996652Y-82240996D01*
X62871653Y-82365995D01*
X62720152Y-82467225D01*
X62586706Y-82522500D01*
X62551811Y-82536954D01*
X62373106Y-82572500D01*
X62190894Y-82572500D01*
X62012189Y-82536954D01*
X61977294Y-82522500D01*
X61843848Y-82467225D01*
X61692347Y-82365995D01*
X61563505Y-82237153D01*
X61462275Y-82085652D01*
X61392547Y-81917313D01*
X61392546Y-81917311D01*
X61357000Y-81738606D01*
X61357000Y-81556394D01*
X61392546Y-81377689D01*
X61404510Y-81348806D01*
X61462275Y-81209348D01*
X61563505Y-81057847D01*
X61692347Y-80929005D01*
X61843848Y-80827775D01*
X62012187Y-80758047D01*
X62012186Y-80758047D01*
X62012189Y-80758046D01*
X62190894Y-80722500D01*
X62373106Y-80722500D01*
X62551811Y-80758046D01*
G37*
G36*
X56702000Y-81535000D02*
G01*
X55052000Y-81535000D01*
X55052000Y-78485000D01*
X56702000Y-78485000D01*
X56702000Y-81535000D01*
G37*
G36*
X59502000Y-81535000D02*
G01*
X57852000Y-81535000D01*
X57852000Y-78485000D01*
X59502000Y-78485000D01*
X59502000Y-81535000D01*
G37*
G36*
X81532000Y-80365000D02*
G01*
X80532000Y-80365000D01*
X80532000Y-78965000D01*
X81532000Y-78965000D01*
X81532000Y-80365000D01*
G37*
G36*
X80032000Y-80365000D02*
G01*
X79032000Y-80365000D01*
X79032000Y-78965000D01*
X80032000Y-78965000D01*
X80032000Y-80365000D01*
G37*
G36*
X78532000Y-80365000D02*
G01*
X77532000Y-80365000D01*
X77532000Y-78965000D01*
X78532000Y-78965000D01*
X78532000Y-80365000D01*
G37*
G36*
X77032000Y-80365000D02*
G01*
X76032000Y-80365000D01*
X76032000Y-78965000D01*
X77032000Y-78965000D01*
X77032000Y-80365000D01*
G37*
G36*
X75532000Y-80365000D02*
G01*
X74532000Y-80365000D01*
X74532000Y-78965000D01*
X75532000Y-78965000D01*
X75532000Y-80365000D01*
G37*
G36*
X74032000Y-80365000D02*
G01*
X73032000Y-80365000D01*
X73032000Y-78965000D01*
X74032000Y-78965000D01*
X74032000Y-80365000D01*
G37*
G36*
X62334000Y-79669000D02*
G01*
X61059000Y-79669000D01*
X61059000Y-78319000D01*
X62334000Y-78319000D01*
X62334000Y-79669000D01*
G37*
G36*
X63909000Y-79669000D02*
G01*
X62634000Y-79669000D01*
X62634000Y-78319000D01*
X63909000Y-78319000D01*
X63909000Y-79669000D01*
G37*
G36*
X71529000Y-79008600D02*
G01*
X70254000Y-79008600D01*
X70254000Y-77658600D01*
X71529000Y-77658600D01*
X71529000Y-79008600D01*
G37*
G36*
X69954000Y-79008600D02*
G01*
X68679000Y-79008600D01*
X68679000Y-77658600D01*
X69954000Y-77658600D01*
X69954000Y-79008600D01*
G37*
G36*
X83733000Y-78133000D02*
G01*
X82383000Y-78133000D01*
X82383000Y-76858000D01*
X83733000Y-76858000D01*
X83733000Y-78133000D01*
G37*
G36*
X59337000Y-77891000D02*
G01*
X58062000Y-77891000D01*
X58062000Y-76541000D01*
X59337000Y-76541000D01*
X59337000Y-77891000D01*
G37*
G36*
X57762000Y-77891000D02*
G01*
X56487000Y-77891000D01*
X56487000Y-76541000D01*
X57762000Y-76541000D01*
X57762000Y-77891000D01*
G37*
G36*
X62334000Y-77891000D02*
G01*
X61059000Y-77891000D01*
X61059000Y-76541000D01*
X62334000Y-76541000D01*
X62334000Y-77891000D01*
G37*
G36*
X63909000Y-77891000D02*
G01*
X62634000Y-77891000D01*
X62634000Y-76541000D01*
X63909000Y-76541000D01*
X63909000Y-77891000D01*
G37*
G36*
X69954000Y-77230600D02*
G01*
X68679000Y-77230600D01*
X68679000Y-75880600D01*
X69954000Y-75880600D01*
X69954000Y-77230600D01*
G37*
G36*
X71529000Y-77230600D02*
G01*
X70254000Y-77230600D01*
X70254000Y-75880600D01*
X71529000Y-75880600D01*
X71529000Y-77230600D01*
G37*
G36*
X65914900Y-77218600D02*
G01*
X64564900Y-77218600D01*
X64564900Y-75943600D01*
X65914900Y-75943600D01*
X65914900Y-77218600D01*
G37*
G36*
X83733000Y-76558000D02*
G01*
X82383000Y-76558000D01*
X82383000Y-75283000D01*
X83733000Y-75283000D01*
X83733000Y-76558000D01*
G37*
G36*
X63934000Y-75760000D02*
G01*
X62934000Y-75760000D01*
X62934000Y-74260000D01*
X63934000Y-74260000D01*
X63934000Y-75760000D01*
G37*
G36*
X62034000Y-75760000D02*
G01*
X61034000Y-75760000D01*
X61034000Y-74260000D01*
X62034000Y-74260000D01*
X62034000Y-75760000D01*
G37*
G36*
X59347000Y-75706000D02*
G01*
X57747000Y-75706000D01*
X57747000Y-74406000D01*
X59347000Y-74406000D01*
X59347000Y-75706000D01*
G37*
G36*
X65914900Y-75643600D02*
G01*
X64564900Y-75643600D01*
X64564900Y-74368600D01*
X65914900Y-74368600D01*
X65914900Y-75643600D01*
G37*
G36*
X69954200Y-75503400D02*
G01*
X68679200Y-75503400D01*
X68679200Y-74153400D01*
X69954200Y-74153400D01*
X69954200Y-75503400D01*
G37*
G36*
X68379200Y-75503400D02*
G01*
X67104200Y-75503400D01*
X67104200Y-74153400D01*
X68379200Y-74153400D01*
X68379200Y-75503400D01*
G37*
G36*
X80762231Y-74497364D02*
G01*
X79860670Y-75398925D01*
X78906075Y-74444330D01*
X79807636Y-73542769D01*
X80762231Y-74497364D01*
G37*
G36*
X56546602Y-73507521D02*
G01*
X56598147Y-73523157D01*
X56645645Y-73548545D01*
X56687283Y-73582717D01*
X56721455Y-73624355D01*
X56746843Y-73671853D01*
X56762479Y-73723398D01*
X56768000Y-73779454D01*
X56768000Y-74424546D01*
X56762479Y-74480602D01*
X56746843Y-74532147D01*
X56721455Y-74579645D01*
X56687283Y-74621283D01*
X56645645Y-74655455D01*
X56598147Y-74680843D01*
X56546602Y-74696479D01*
X56490546Y-74702000D01*
X55745454Y-74702000D01*
X55689398Y-74696479D01*
X55637853Y-74680843D01*
X55590355Y-74655455D01*
X55548717Y-74621283D01*
X55514545Y-74579645D01*
X55489157Y-74532147D01*
X55473521Y-74480602D01*
X55468000Y-74424546D01*
X55468000Y-73779454D01*
X55473521Y-73723398D01*
X55489157Y-73671853D01*
X55514545Y-73624355D01*
X55548717Y-73582717D01*
X55590355Y-73548545D01*
X55637853Y-73523157D01*
X55689398Y-73507521D01*
X55745454Y-73502000D01*
X56490546Y-73502000D01*
X56546602Y-73507521D01*
G37*
G36*
X84318231Y-73481364D02*
G01*
X83416670Y-74382925D01*
X82462075Y-73428330D01*
X83363636Y-72526769D01*
X84318231Y-73481364D01*
G37*
G36*
X81875925Y-73383670D02*
G01*
X80974364Y-74285231D01*
X80019769Y-73330636D01*
X80921330Y-72429075D01*
X81875925Y-73383670D01*
G37*
G36*
X79492231Y-73227364D02*
G01*
X78590670Y-74128925D01*
X77636075Y-73174330D01*
X78537636Y-72272769D01*
X79492231Y-73227364D01*
G37*
G36*
X67448626Y-66800141D02*
G01*
X67448626Y-66800140D01*
X68686062Y-68037576D01*
X68686062Y-68037577D01*
X69145682Y-68497197D01*
X69145682Y-68497196D01*
X69817433Y-69168947D01*
X69817433Y-69168948D01*
X70277053Y-69628568D01*
X70277053Y-69628567D01*
X70948804Y-70300318D01*
X70948804Y-70300319D01*
X71408424Y-70759939D01*
X71408424Y-70759938D01*
X72645860Y-71997374D01*
X72645860Y-71997375D01*
X73211545Y-72563060D01*
X71868042Y-73906563D01*
X71196291Y-73234812D01*
X71196292Y-73234812D01*
X70170987Y-72209507D01*
X70170986Y-72209507D01*
X69499235Y-71537756D01*
X69499236Y-71537756D01*
X69039616Y-71078136D01*
X69039615Y-71078136D01*
X68367864Y-70406385D01*
X68367865Y-70406385D01*
X67908245Y-69946765D01*
X67908244Y-69946765D01*
X67236493Y-69275014D01*
X67236494Y-69275014D01*
X66211189Y-68249709D01*
X66211188Y-68249709D01*
X65539437Y-67577958D01*
X66882940Y-66234455D01*
X67448626Y-66800141D01*
G37*
G36*
X81272563Y-67577958D02*
G01*
X80600812Y-68249709D01*
X80035126Y-68815394D01*
X79575507Y-69275014D01*
X76641014Y-72209507D01*
X76075328Y-72775192D01*
X75615709Y-73234812D01*
X74943958Y-73906563D01*
X73600455Y-72563060D01*
X74166141Y-71997375D01*
X74166140Y-71997374D01*
X75403576Y-70759938D01*
X75403577Y-70759939D01*
X75438921Y-70724594D01*
X75863197Y-70300319D01*
X75863196Y-70300318D01*
X76534947Y-69628567D01*
X76534948Y-69628568D01*
X76570292Y-69593223D01*
X76994568Y-69168948D01*
X76994567Y-69168947D01*
X77666318Y-68497196D01*
X77666319Y-68497197D01*
X77701663Y-68461852D01*
X78125939Y-68037577D01*
X78125938Y-68037576D01*
X79363374Y-66800140D01*
X79363375Y-66800141D01*
X79398719Y-66764796D01*
X79929060Y-66234455D01*
X81272563Y-67577958D01*
G37*
G36*
X54546602Y-72557521D02*
G01*
X54598147Y-72573157D01*
X54645645Y-72598545D01*
X54687283Y-72632717D01*
X54721455Y-72674355D01*
X54746843Y-72721853D01*
X54762479Y-72773398D01*
X54768000Y-72829454D01*
X54768000Y-73474546D01*
X54762479Y-73530602D01*
X54746843Y-73582147D01*
X54721455Y-73629645D01*
X54687283Y-73671283D01*
X54645645Y-73705455D01*
X54598147Y-73730843D01*
X54546602Y-73746479D01*
X54490546Y-73752000D01*
X53745454Y-73752000D01*
X53689398Y-73746479D01*
X53637853Y-73730843D01*
X53590355Y-73705455D01*
X53548717Y-73671283D01*
X53514545Y-73629645D01*
X53489157Y-73582147D01*
X53473521Y-73530602D01*
X53468000Y-73474546D01*
X53468000Y-72829454D01*
X53473521Y-72773398D01*
X53489157Y-72721853D01*
X53514545Y-72674355D01*
X53548717Y-72632717D01*
X53590355Y-72598545D01*
X53637853Y-72573157D01*
X53689398Y-72557521D01*
X53745454Y-72552000D01*
X54490546Y-72552000D01*
X54546602Y-72557521D01*
G37*
G36*
X69556925Y-72602830D02*
G01*
X68602330Y-73557425D01*
X67700769Y-72655864D01*
X68655364Y-71701269D01*
X69556925Y-72602830D01*
G37*
G36*
X85431925Y-72367670D02*
G01*
X84530364Y-73269231D01*
X83575769Y-72314636D01*
X84477330Y-71413075D01*
X85431925Y-72367670D01*
G37*
G36*
X83048231Y-72211364D02*
G01*
X82146670Y-73112925D01*
X81192075Y-72158330D01*
X82093636Y-71256769D01*
X83048231Y-72211364D01*
G37*
G36*
X80605925Y-72113670D02*
G01*
X79704364Y-73015231D01*
X78749769Y-72060636D01*
X79651330Y-71159075D01*
X80605925Y-72113670D01*
G37*
G36*
X63934000Y-72960000D02*
G01*
X61034000Y-72960000D01*
X61034000Y-71460000D01*
X63934000Y-71460000D01*
X63934000Y-72960000D01*
G37*
G36*
X56546602Y-71607521D02*
G01*
X56598147Y-71623157D01*
X56645645Y-71648545D01*
X56687283Y-71682717D01*
X56721455Y-71724355D01*
X56746843Y-71771853D01*
X56762479Y-71823398D01*
X56768000Y-71879454D01*
X56768000Y-72524546D01*
X56762479Y-72580602D01*
X56746843Y-72632147D01*
X56721455Y-72679645D01*
X56687283Y-72721283D01*
X56645645Y-72755455D01*
X56598147Y-72780843D01*
X56546602Y-72796479D01*
X56490546Y-72802000D01*
X55745454Y-72802000D01*
X55689398Y-72796479D01*
X55637853Y-72780843D01*
X55590355Y-72755455D01*
X55548717Y-72721283D01*
X55514545Y-72679645D01*
X55489157Y-72632147D01*
X55473521Y-72580602D01*
X55468000Y-72524546D01*
X55468000Y-71879454D01*
X55473521Y-71823398D01*
X55489157Y-71771853D01*
X55514545Y-71724355D01*
X55548717Y-71682717D01*
X55590355Y-71648545D01*
X55637853Y-71623157D01*
X55689398Y-71607521D01*
X55745454Y-71602000D01*
X56490546Y-71602000D01*
X56546602Y-71607521D01*
G37*
G36*
X68443231Y-71489136D02*
G01*
X67488636Y-72443731D01*
X66587075Y-71542170D01*
X67541670Y-70587575D01*
X68443231Y-71489136D01*
G37*
G36*
X59347000Y-72406000D02*
G01*
X57747000Y-72406000D01*
X57747000Y-71106000D01*
X59347000Y-71106000D01*
X59347000Y-72406000D01*
G37*
G36*
X84161925Y-71097670D02*
G01*
X83260364Y-71999231D01*
X82305769Y-71044636D01*
X83207330Y-70143075D01*
X84161925Y-71097670D01*
G37*
G36*
X81778231Y-70941364D02*
G01*
X80876670Y-71842925D01*
X79922075Y-70888330D01*
X80823636Y-69986769D01*
X81778231Y-70941364D01*
G37*
G36*
X82891925Y-69827670D02*
G01*
X81990364Y-70729231D01*
X81035769Y-69774636D01*
X81937330Y-68873075D01*
X82891925Y-69827670D01*
G37*
G36*
X85765000Y-69751000D02*
G01*
X84415000Y-69751000D01*
X84415000Y-68476000D01*
X85765000Y-68476000D01*
X85765000Y-69751000D01*
G37*
G36*
X57508000Y-69636000D02*
G01*
X56233000Y-69636000D01*
X56233000Y-68286000D01*
X57508000Y-68286000D01*
X57508000Y-69636000D01*
G37*
G36*
X59083000Y-69636000D02*
G01*
X57808000Y-69636000D01*
X57808000Y-68286000D01*
X59083000Y-68286000D01*
X59083000Y-69636000D01*
G37*
G36*
X62842000Y-69509000D02*
G01*
X61567000Y-69509000D01*
X61567000Y-68159000D01*
X62842000Y-68159000D01*
X62842000Y-69509000D01*
G37*
G36*
X64417000Y-69509000D02*
G01*
X63142000Y-69509000D01*
X63142000Y-68159000D01*
X64417000Y-68159000D01*
X64417000Y-69509000D01*
G37*
G36*
X85765000Y-68176000D02*
G01*
X84415000Y-68176000D01*
X84415000Y-66901000D01*
X85765000Y-66901000D01*
X85765000Y-68176000D01*
G37*
G36*
X59083000Y-67858000D02*
G01*
X57808000Y-67858000D01*
X57808000Y-66508000D01*
X59083000Y-66508000D01*
X59083000Y-67858000D01*
G37*
G36*
X57508000Y-67858000D02*
G01*
X56233000Y-67858000D01*
X56233000Y-66508000D01*
X57508000Y-66508000D01*
X57508000Y-67858000D01*
G37*
G36*
X62842000Y-67731000D02*
G01*
X61567000Y-67731000D01*
X61567000Y-66381000D01*
X62842000Y-66381000D01*
X62842000Y-67731000D01*
G37*
G36*
X64417000Y-67731000D02*
G01*
X63142000Y-67731000D01*
X63142000Y-66381000D01*
X64417000Y-66381000D01*
X64417000Y-67731000D01*
G37*
G36*
X73211545Y-59516940D02*
G01*
X72645860Y-60082626D01*
X67448626Y-65279860D01*
X66882940Y-65845545D01*
X65539437Y-64502042D01*
X66211188Y-63830291D01*
X66211189Y-63830292D01*
X66246533Y-63794947D01*
X66776874Y-63264606D01*
X67236494Y-62804987D01*
X67236493Y-62804986D01*
X67908244Y-62133235D01*
X67908245Y-62133236D01*
X67943589Y-62097891D01*
X68367865Y-61673616D01*
X68367864Y-61673615D01*
X69039615Y-61001864D01*
X69039616Y-61001865D01*
X69074960Y-60966520D01*
X69499236Y-60542245D01*
X69499235Y-60542244D01*
X70170986Y-59870493D01*
X70170987Y-59870494D01*
X70206331Y-59835149D01*
X70736672Y-59304808D01*
X71196292Y-58845189D01*
X71196291Y-58845188D01*
X71868042Y-58173437D01*
X73211545Y-59516940D01*
G37*
G36*
X75615709Y-58845188D02*
G01*
X75615709Y-58845189D01*
X76641014Y-59870494D01*
X76641014Y-59870493D01*
X77312765Y-60542244D01*
X77312765Y-60542245D01*
X77772385Y-61001865D01*
X77772385Y-61001864D01*
X78444136Y-61673615D01*
X78444136Y-61673616D01*
X78903756Y-62133236D01*
X78903756Y-62133235D01*
X79575507Y-62804986D01*
X79575507Y-62804987D01*
X80600812Y-63830292D01*
X80600812Y-63830291D01*
X81272563Y-64502042D01*
X79929060Y-65845545D01*
X79363375Y-65279860D01*
X79363374Y-65279860D01*
X78125938Y-64042424D01*
X78125939Y-64042424D01*
X77666319Y-63582804D01*
X77666318Y-63582804D01*
X76994567Y-62911053D01*
X76994568Y-62911053D01*
X76534948Y-62451433D01*
X76534947Y-62451433D01*
X75863196Y-61779682D01*
X75863197Y-61779682D01*
X75403577Y-61320062D01*
X75403576Y-61320062D01*
X74166140Y-60082626D01*
X74166141Y-60082626D01*
X73600455Y-59516940D01*
X74943958Y-58173437D01*
X75615709Y-58845188D01*
G37*
G36*
X61318000Y-65445000D02*
G01*
X60043000Y-65445000D01*
X60043000Y-64095000D01*
X61318000Y-64095000D01*
X61318000Y-65445000D01*
G37*
G36*
X62893000Y-65445000D02*
G01*
X61618000Y-65445000D01*
X61618000Y-64095000D01*
X62893000Y-64095000D01*
X62893000Y-65445000D01*
G37*
G36*
X83780925Y-64411330D02*
G01*
X82826330Y-65365925D01*
X81924769Y-64464364D01*
X82879364Y-63509769D01*
X83780925Y-64411330D01*
G37*
G36*
X59457500Y-65254000D02*
G01*
X58057500Y-65254000D01*
X58057500Y-62254000D01*
X59457500Y-62254000D01*
X59457500Y-65254000D01*
G37*
G36*
X57258500Y-65254000D02*
G01*
X55858500Y-65254000D01*
X55858500Y-62254000D01*
X57258500Y-62254000D01*
X57258500Y-65254000D01*
G37*
G36*
X82667231Y-63297636D02*
G01*
X81712636Y-64252231D01*
X80811075Y-63350670D01*
X81765670Y-62396075D01*
X82667231Y-63297636D01*
G37*
G36*
X65746925Y-63141330D02*
G01*
X64792330Y-64095925D01*
X63890769Y-63194364D01*
X64845364Y-62239769D01*
X65746925Y-63141330D01*
G37*
G36*
X85050925Y-63141330D02*
G01*
X84096330Y-64095925D01*
X83194769Y-63194364D01*
X84149364Y-62239769D01*
X85050925Y-63141330D01*
G37*
G36*
X81431425Y-62061830D02*
G01*
X80476830Y-63016425D01*
X79575269Y-62114864D01*
X80529864Y-61160269D01*
X81431425Y-62061830D01*
G37*
G36*
X83937231Y-62027636D02*
G01*
X82982636Y-62982231D01*
X82081075Y-62080670D01*
X83035670Y-61126075D01*
X83937231Y-62027636D01*
G37*
G36*
X64633231Y-62027636D02*
G01*
X63678636Y-62982231D01*
X62777075Y-62080670D01*
X63731670Y-61126075D01*
X64633231Y-62027636D01*
G37*
G36*
X67300231Y-62051364D02*
G01*
X66398670Y-62952925D01*
X65444075Y-61998330D01*
X66345636Y-61096769D01*
X67300231Y-62051364D01*
G37*
G36*
X80317731Y-60948136D02*
G01*
X79363136Y-61902731D01*
X78461575Y-61001170D01*
X79416170Y-60046575D01*
X80317731Y-60948136D01*
G37*
G36*
X68413925Y-60937670D02*
G01*
X67512364Y-61839231D01*
X66557769Y-60884636D01*
X67459330Y-59983075D01*
X68413925Y-60937670D01*
G37*
G36*
X66030231Y-60781364D02*
G01*
X65128670Y-61682925D01*
X64174075Y-60728330D01*
X65075636Y-59826769D01*
X66030231Y-60781364D01*
G37*
G36*
X60937000Y-61381000D02*
G01*
X59662000Y-61381000D01*
X59662000Y-60031000D01*
X60937000Y-60031000D01*
X60937000Y-61381000D01*
G37*
G36*
X62512000Y-61381000D02*
G01*
X61237000Y-61381000D01*
X61237000Y-60031000D01*
X62512000Y-60031000D01*
X62512000Y-61381000D01*
G37*
G36*
X58702000Y-61381000D02*
G01*
X57427000Y-61381000D01*
X57427000Y-60031000D01*
X58702000Y-60031000D01*
X58702000Y-61381000D01*
G37*
G36*
X57127000Y-61381000D02*
G01*
X55852000Y-61381000D01*
X55852000Y-60031000D01*
X57127000Y-60031000D01*
X57127000Y-61381000D01*
G37*
G36*
X67143925Y-59667670D02*
G01*
X66242364Y-60569231D01*
X65287769Y-59614636D01*
X66189330Y-58713075D01*
X67143925Y-59667670D01*
G37*
G36*
X84927500Y-60492000D02*
G01*
X83652500Y-60492000D01*
X83652500Y-59142000D01*
X84927500Y-59142000D01*
X84927500Y-60492000D01*
G37*
G36*
X83352500Y-60492000D02*
G01*
X82077500Y-60492000D01*
X82077500Y-59142000D01*
X83352500Y-59142000D01*
X83352500Y-60492000D01*
G37*
G36*
X62512000Y-59476000D02*
G01*
X61237000Y-59476000D01*
X61237000Y-58126000D01*
X62512000Y-58126000D01*
X62512000Y-59476000D01*
G37*
G36*
X60937000Y-59476000D02*
G01*
X59662000Y-59476000D01*
X59662000Y-58126000D01*
X60937000Y-58126000D01*
X60937000Y-59476000D01*
G37*
G36*
X58702000Y-59298200D02*
G01*
X57427000Y-59298200D01*
X57427000Y-57948200D01*
X58702000Y-57948200D01*
X58702000Y-59298200D01*
G37*
G36*
X57127000Y-59298200D02*
G01*
X55852000Y-59298200D01*
X55852000Y-57948200D01*
X57127000Y-57948200D01*
X57127000Y-59298200D01*
G37*
G36*
X85242000Y-58742000D02*
G01*
X83242000Y-58742000D01*
X83242000Y-56942000D01*
X85242000Y-56942000D01*
X85242000Y-58742000D01*
G37*
G36*
X81042000Y-58742000D02*
G01*
X79042000Y-58742000D01*
X79042000Y-56942000D01*
X81042000Y-56942000D01*
X81042000Y-58742000D01*
G37*
G36*
X55015724Y-56346040D02*
G01*
X55062580Y-56360254D01*
X55105757Y-56383332D01*
X55143605Y-56414395D01*
X55174668Y-56452243D01*
X55197746Y-56495420D01*
X55211960Y-56542276D01*
X55217000Y-56593453D01*
X55217000Y-57188547D01*
X55211960Y-57239724D01*
X55197746Y-57286580D01*
X55174668Y-57329757D01*
X55143605Y-57367605D01*
X55105757Y-57398668D01*
X55062580Y-57421746D01*
X55015724Y-57435960D01*
X54964547Y-57441000D01*
X54269453Y-57441000D01*
X54218276Y-57435960D01*
X54171420Y-57421746D01*
X54128243Y-57398668D01*
X54090395Y-57367605D01*
X54059332Y-57329757D01*
X54036254Y-57286580D01*
X54022040Y-57239724D01*
X54017000Y-57188547D01*
X54017000Y-56593453D01*
X54022040Y-56542276D01*
X54036254Y-56495420D01*
X54059332Y-56452243D01*
X54090395Y-56414395D01*
X54128243Y-56383332D01*
X54171420Y-56360254D01*
X54218276Y-56346040D01*
X54269453Y-56341000D01*
X54964547Y-56341000D01*
X55015724Y-56346040D01*
G37*
G36*
X62740600Y-56605800D02*
G01*
X61465600Y-56605800D01*
X61465600Y-55255800D01*
X62740600Y-55255800D01*
X62740600Y-56605800D01*
G37*
G36*
X61165600Y-56605800D02*
G01*
X59890600Y-56605800D01*
X59890600Y-55255800D01*
X61165600Y-55255800D01*
X61165600Y-56605800D01*
G37*
G36*
X85242000Y-56542000D02*
G01*
X83242000Y-56542000D01*
X83242000Y-54742000D01*
X85242000Y-54742000D01*
X85242000Y-56542000D01*
G37*
G36*
X81042000Y-56542000D02*
G01*
X79042000Y-56542000D01*
X79042000Y-54742000D01*
X81042000Y-54742000D01*
X81042000Y-56542000D01*
G37*
G36*
X64937000Y-56162000D02*
G01*
X63587000Y-56162000D01*
X63587000Y-54887000D01*
X64937000Y-54887000D01*
X64937000Y-56162000D01*
G37*
G36*
X68493000Y-56162000D02*
G01*
X67143000Y-56162000D01*
X67143000Y-54887000D01*
X68493000Y-54887000D01*
X68493000Y-56162000D01*
G37*
G36*
X77383000Y-56162000D02*
G01*
X76033000Y-56162000D01*
X76033000Y-54887000D01*
X77383000Y-54887000D01*
X77383000Y-56162000D01*
G37*
G36*
X73827000Y-56162000D02*
G01*
X72477000Y-56162000D01*
X72477000Y-54887000D01*
X73827000Y-54887000D01*
X73827000Y-56162000D01*
G37*
G36*
X75605000Y-56162000D02*
G01*
X74255000Y-56162000D01*
X74255000Y-54887000D01*
X75605000Y-54887000D01*
X75605000Y-56162000D01*
G37*
G36*
X72049000Y-56162000D02*
G01*
X70699000Y-56162000D01*
X70699000Y-54887000D01*
X72049000Y-54887000D01*
X72049000Y-56162000D01*
G37*
G36*
X70271000Y-56162000D02*
G01*
X68921000Y-56162000D01*
X68921000Y-54887000D01*
X70271000Y-54887000D01*
X70271000Y-56162000D01*
G37*
G36*
X66715000Y-56162000D02*
G01*
X65365000Y-56162000D01*
X65365000Y-54887000D01*
X66715000Y-54887000D01*
X66715000Y-56162000D01*
G37*
G36*
X59065724Y-55046040D02*
G01*
X59112580Y-55060254D01*
X59155757Y-55083332D01*
X59193605Y-55114395D01*
X59224668Y-55152243D01*
X59247746Y-55195420D01*
X59261960Y-55242276D01*
X59267000Y-55293453D01*
X59267000Y-55888547D01*
X59261960Y-55939724D01*
X59247746Y-55986580D01*
X59224668Y-56029757D01*
X59193605Y-56067605D01*
X59155757Y-56098668D01*
X59112580Y-56121746D01*
X59065724Y-56135960D01*
X59014547Y-56141000D01*
X58269453Y-56141000D01*
X58218276Y-56135960D01*
X58171420Y-56121746D01*
X58128243Y-56098668D01*
X58090395Y-56067605D01*
X58059332Y-56029757D01*
X58036254Y-55986580D01*
X58022040Y-55939724D01*
X58017000Y-55888547D01*
X58017000Y-55293453D01*
X58022040Y-55242276D01*
X58036254Y-55195420D01*
X58059332Y-55152243D01*
X58090395Y-55114395D01*
X58128243Y-55083332D01*
X58171420Y-55060254D01*
X58218276Y-55046040D01*
X58269453Y-55041000D01*
X59014547Y-55041000D01*
X59065724Y-55046040D01*
G37*
G36*
X59065724Y-53846040D02*
G01*
X59112580Y-53860254D01*
X59155757Y-53883332D01*
X59193605Y-53914395D01*
X59224668Y-53952243D01*
X59247746Y-53995420D01*
X59261960Y-54042276D01*
X59267000Y-54093453D01*
X59267000Y-54688547D01*
X59261960Y-54739724D01*
X59247746Y-54786580D01*
X59224668Y-54829757D01*
X59193605Y-54867605D01*
X59155757Y-54898668D01*
X59112580Y-54921746D01*
X59065724Y-54935960D01*
X59014547Y-54941000D01*
X58269453Y-54941000D01*
X58218276Y-54935960D01*
X58171420Y-54921746D01*
X58128243Y-54898668D01*
X58090395Y-54867605D01*
X58059332Y-54829757D01*
X58036254Y-54786580D01*
X58022040Y-54739724D01*
X58017000Y-54688547D01*
X58017000Y-54093453D01*
X58022040Y-54042276D01*
X58036254Y-53995420D01*
X58059332Y-53952243D01*
X58090395Y-53914395D01*
X58128243Y-53883332D01*
X58171420Y-53860254D01*
X58218276Y-53846040D01*
X58269453Y-53841000D01*
X59014547Y-53841000D01*
X59065724Y-53846040D01*
G37*
G36*
X66715000Y-54587000D02*
G01*
X65365000Y-54587000D01*
X65365000Y-53312000D01*
X66715000Y-53312000D01*
X66715000Y-54587000D01*
G37*
G36*
X77383000Y-54587000D02*
G01*
X76033000Y-54587000D01*
X76033000Y-53312000D01*
X77383000Y-53312000D01*
X77383000Y-54587000D01*
G37*
G36*
X75605000Y-54587000D02*
G01*
X74255000Y-54587000D01*
X74255000Y-53312000D01*
X75605000Y-53312000D01*
X75605000Y-54587000D01*
G37*
G36*
X73827000Y-54587000D02*
G01*
X72477000Y-54587000D01*
X72477000Y-53312000D01*
X73827000Y-53312000D01*
X73827000Y-54587000D01*
G37*
G36*
X72049000Y-54587000D02*
G01*
X70699000Y-54587000D01*
X70699000Y-53312000D01*
X72049000Y-53312000D01*
X72049000Y-54587000D01*
G37*
G36*
X70271000Y-54587000D02*
G01*
X68921000Y-54587000D01*
X68921000Y-53312000D01*
X70271000Y-53312000D01*
X70271000Y-54587000D01*
G37*
G36*
X68493000Y-54587000D02*
G01*
X67143000Y-54587000D01*
X67143000Y-53312000D01*
X68493000Y-53312000D01*
X68493000Y-54587000D01*
G37*
G36*
X64937000Y-54587000D02*
G01*
X63587000Y-54587000D01*
X63587000Y-53312000D01*
X64937000Y-53312000D01*
X64937000Y-54587000D01*
G37*
G36*
X83416000Y-54142000D02*
G01*
X82141000Y-54142000D01*
X82141000Y-52792000D01*
X83416000Y-52792000D01*
X83416000Y-54142000D01*
G37*
G36*
X84991000Y-54142000D02*
G01*
X83716000Y-54142000D01*
X83716000Y-52792000D01*
X84991000Y-52792000D01*
X84991000Y-54142000D01*
G37*
G36*
X55015724Y-52546040D02*
G01*
X55062580Y-52560254D01*
X55105757Y-52583332D01*
X55143605Y-52614395D01*
X55174668Y-52652243D01*
X55197746Y-52695420D01*
X55211960Y-52742276D01*
X55217000Y-52793453D01*
X55217000Y-53388547D01*
X55211960Y-53439724D01*
X55197746Y-53486580D01*
X55174668Y-53529757D01*
X55143605Y-53567605D01*
X55105757Y-53598668D01*
X55062580Y-53621746D01*
X55015724Y-53635960D01*
X54964547Y-53641000D01*
X54269453Y-53641000D01*
X54218276Y-53635960D01*
X54171420Y-53621746D01*
X54128243Y-53598668D01*
X54090395Y-53567605D01*
X54059332Y-53529757D01*
X54036254Y-53486580D01*
X54022040Y-53439724D01*
X54017000Y-53388547D01*
X54017000Y-52793453D01*
X54022040Y-52742276D01*
X54036254Y-52695420D01*
X54059332Y-52652243D01*
X54090395Y-52614395D01*
X54128243Y-52583332D01*
X54171420Y-52560254D01*
X54218276Y-52546040D01*
X54269453Y-52541000D01*
X54964547Y-52541000D01*
X55015724Y-52546040D01*
G37*
G36*
X55285000Y-50764500D02*
G01*
X53935000Y-50764500D01*
X53935000Y-49489500D01*
X55285000Y-49489500D01*
X55285000Y-50764500D01*
G37*
G36*
X57634500Y-50764500D02*
G01*
X56284500Y-50764500D01*
X56284500Y-49489500D01*
X57634500Y-49489500D01*
X57634500Y-50764500D01*
G37*
G36*
X80207000Y-50760000D02*
G01*
X59157000Y-50760000D01*
X59157000Y-47860000D01*
X80207000Y-47860000D01*
X80207000Y-50760000D01*
G37*
G36*
X82971000Y-50701000D02*
G01*
X81621000Y-50701000D01*
X81621000Y-49426000D01*
X82971000Y-49426000D01*
X82971000Y-50701000D01*
G37*
G36*
X84876000Y-50701000D02*
G01*
X83526000Y-50701000D01*
X83526000Y-49426000D01*
X84876000Y-49426000D01*
X84876000Y-50701000D01*
G37*
G36*
X55285000Y-49189500D02*
G01*
X53935000Y-49189500D01*
X53935000Y-47914500D01*
X55285000Y-47914500D01*
X55285000Y-49189500D01*
G37*
G36*
X57634500Y-49189500D02*
G01*
X56284500Y-49189500D01*
X56284500Y-47914500D01*
X57634500Y-47914500D01*
X57634500Y-49189500D01*
G37*
G36*
X84876000Y-49126000D02*
G01*
X83526000Y-49126000D01*
X83526000Y-47851000D01*
X84876000Y-47851000D01*
X84876000Y-49126000D01*
G37*
G36*
X82971000Y-49126000D02*
G01*
X81621000Y-49126000D01*
X81621000Y-47851000D01*
X82971000Y-47851000D01*
X82971000Y-49126000D01*
G37*
M02*
