<?xml version="1.0" encoding="UTF-8" standalone="no"?>
<!-- Created with Inkscape (http://www.inkscape.org/) -->

<svg
   xmlns:dc="http://purl.org/dc/elements/1.1/"
   xmlns:cc="http://creativecommons.org/ns#"
   xmlns:rdf="http://www.w3.org/1999/02/22-rdf-syntax-ns#"
   xmlns:svg="http://www.w3.org/2000/svg"
   xmlns="http://www.w3.org/2000/svg"
   xmlns:sodipodi="http://sodipodi.sourceforge.net/DTD/sodipodi-0.dtd"
   xmlns:inkscape="http://www.inkscape.org/namespaces/inkscape"
   version="1.1"
   id="svg6197"
   width="472"
   height="1333.3333"
   viewBox="0 0 472 1333.3333"
   sodipodi:docname="terrible_terminal.svg"
   shape-rendering="crispEdges"
   inkscape:version="0.92.2 (5c3e80d, 2017-08-06)">
  <metadata
     id="metadata6203">
    <rdf:RDF>
      <cc:Work
         rdf:about="">
        <dc:format>image/svg+xml</dc:format>
        <dc:type
           rdf:resource="http://purl.org/dc/dcmitype/StillImage" />
        <dc:title></dc:title>
      </cc:Work>
    </rdf:RDF>
  </metadata>
  <defs
     id="defs6201" />
  <sodipodi:namedview
     pagecolor="#ffffff"
     bordercolor="#666666"
     borderopacity="1"
     objecttolerance="10"
     gridtolerance="10"
     guidetolerance="10"
     inkscape:pageopacity="0"
     inkscape:pageshadow="2"
     inkscape:window-width="1920"
     inkscape:window-height="1027"
     id="namedview6199"
     showgrid="false"
     inkscape:zoom="0.5"
     inkscape:cx="343.885"
     inkscape:cy="702.92329"
     inkscape:window-x="0"
     inkscape:window-y="24"
     inkscape:window-maximized="1"
     inkscape:current-layer="svg6197" />
  <path
     style="fill:#b3b3b3;fill-opacity:1;stroke:none;stroke-width:1px;stroke-linecap:butt;stroke-linejoin:miter;stroke-opacity:1"
     d="m 331.42873,58.514111 -170.46093,0.0879 -10.63867,0.0664 -2.3379,0.92578 -1.67773,1.61133 -1.01562,1.96485 V 221.26998 l 1.00195,2.87109 2.12305,2.06055 4.30664,0.68555 -0.125,6.11719 -5.55664,9.48828 -27.58985,33.83203 -27.71484,32.70898 -23.220707,26.4668 -2.74609,5.74219 v 6.99218 l 3.24609,12.73243 26.716797,30.46289 21.47266,27.71484 -50.685547,33.45703 -20.47461,15.73047 -16.97851,13.48242 25.46679,39.45117 18.22852,19.97461 12.48242,16.72852 -10.44141,6.72266 -6.88671,7.68164 -6.70899,9.5332 -0.88281,5.03125 3.44336,14.38867 14.30078,30.19141 1.94141,3.17773 25.953117,-9.71094 2.29688,-7.41406 -10.41797,-18.18555 -8.65039,5.6504 8.65039,11.29882 -13.947267,10.59375 -8.82812,-18.36132 -3.17774,-17.12696 24.718747,-28.60156 0.35156,-10.76953 -9.35742,-18.18555 -23.833977,-44.66797 0.88281,-9.5332 8.29883,-10.76953 51.728507,-19.24414 32.13282,-18.18555 5.12109,-9.35742 -7.0625,-14.30078 -39.19531,-66.20703 1.76562,-6.88672 25.07032,-14.12305 25.24804,-19.59766 15.88867,-10.24023 -0.88281,33.01563 -3.70703,26.48242 -2.4707,15.89062 0.17578,5.11914 25.95312,16.41992 -13.15234,23.2168 3.35352,-0.0879 -6.08985,11.21094 -19.95117,36.81055 -22.42187,11.12304 -4.76758,75.03516 17.125,40.2539 7.41601,24.54102 -24.36523,22.95313 -3.88281,17.30273 -3.53125,24.1875 -0.35352,35.13281 3.70703,28.95508 -23.6582,5.65039 -9.53321,-25.77734 14.125,-7.23828 -3.17968,-6.35547 -19.59571,4.94336 2.29493,18.89062 5.11914,15.1836 8.65234,11.12304 34.95703,-4.94336 3.53125,-9.88672 -5.82617,-15.00781 7.41406,-82.27344 32.83985,-24.54101 -12.88868,-41.66602 -9.35742,-36.19336 8.65039,-55.61523 18.18555,-12.18164 9.71094,-10.94727 34.78125,-79.44922 -23.12891,-26.30664 13.59375,-32.66211 33.89844,-57.91015 7.00781,1.54297 -6.49219,38.20312 -2.87109,32.95703 -0.49805,16.73047 67.16407,60.17383 -52.83399,33.65625 -46.96289,34.78125 -17.125,12.00586 -1.94336,6.70898 77.6836,72.21094 -38.66407,89.33594 -12.71289,40.7832 0.88281,10.41602 34.78125,70.62304 11.29883,13.41797 6.17969,2.11719 6.70898,-1.94141 9.35743,-7.59179 20.12695,-22.42188 1.94336,-10.41797 -8.82813,-7.76757 -14.125,-26.48243 24.1875,-7.24023 -2.82421,-6.00195 -31.7793,8.12109 19.24414,43.25586 -21.7168,17.83203 -37.07617,-74.50586 18.53906,-36.89844 25.42383,-65.67968 13.77148,-42.19532 -2.82617,-10.76953 -8.65039,-7.59179 -29.13086,-23.65821 -5.82617,-10.06445 -7.24023,-7.23828 -4.76563,2.29492 -5.47461,-6.35547 107.875,-58.96875 15.35938,-8.29883 -40.25391,-43.43164 -34.42773,-38.84179 10.76953,-43.08008 5.29687,-20.12696 21.00977,22.07032 32.31055,31.42578 33.89843,32.66211 v 9.18164 l -22.59961,81.74414 0.88282,7.94531 25.59961,28.42383 -19.59766,54.55664 2.64844,8.82617 37.95894,53.14453 -19.94918,26.83594 -15.18359,22.24414 -6.5332,11.6543 -12.7129,-21.01172 -1.05859,-2.4707 18.89063,-7.76758 -1.41211,-9.88867 -26.48243,14.65429 9.53321,22.2461 12.00586,13.5957 8.65234,-8.65234 43.96096,-51.55274 3.0019,-13.77148 -2.8261,-6.17969 -31.25004,-52.08398 29.48434,-56.67383 -11.1211,-12.71094 -14.12496,-29.83789 37.07616,-86.33398 -54.73241,-61.79493 -38.13476,-46.78711 -14.125,-19.77343 v -11.82812 l 3.61914,-0.13281 2.29687,-1.32422 1.58789,-2.07422 0.44141,-2.73633 V 63.500441 l -1.19141,-2.4707 -1.9414,-1.76563 z m -170.19726,17.03711 158.36914,0.5293 V 210.52584 H 161.23147 Z m 7.11523,6.86719 v 7.24023 l 19.94922,6.75196 -19.77343,7.458979 v 7.19531 l 28.55664,-10.76953 v -6.886719 z"
     id="path6207"
     inkscape:connector-curvature="0"
     inkscape:export-xdpi="300"
     inkscape:export-ydpi="300" />
  <text
     xml:space="preserve"
     style="font-style:normal;font-weight:normal;font-size:40px;line-height:1.25;font-family:sans-serif;letter-spacing:0px;word-spacing:0px;fill:#000000;fill-opacity:1;stroke:none"
     x="54.43124"
     y="128.35545"
     id="text6761"><tspan
       sodipodi:role="line"
       id="tspan6759"
       x="54.43124"
       y="163.74608"></tspan></text>
</svg>
