M48
;DRILL file {KiCad 4.0.7} date 2017 November 19, Sunday 17:56:29
;FORMAT={3:3/ absolute / metric / suppress leading zeros}
FMAT,2
METRIC,TZ
T1C0.400
T2C0.600
T3C1.000
T4C1.016
T5C1.100
T6C3.048
T7C0.899
%
G90
G05
M71
T1
X126300Y-92400
X127600Y-107400
X128400Y-104400
X129200Y-120900
X130400Y-89700
X130400Y-97100
X131000Y-127700
X131200Y-95200
X131300Y-90600
X131800Y-110900
X132600Y-88200
X132700Y-91800
X133400Y-100800
X133500Y-104000
X133600Y-86400
X133807Y-92707
X134200Y-88700
X134900Y-102000
X135000Y-122000
X135100Y-103300
X135700Y-104000
X135800Y-108900
X135900Y-99600
X136400Y-113500
X136500Y-107500
X136700Y-103935
X137500Y-108700
X137500Y-118800
X138000Y-90500
X138600Y-114500
X138800Y-97300
X138800Y-106800
X139700Y-106200
X140000Y-90500
X140300Y-88600
X141500Y-86300
X143100Y-125000
X143300Y-101100
X143500Y-86000
X143800Y-99600
X144200Y-106800
X144400Y-86100
X144400Y-113500
X145500Y-115100
X145700Y-100300
X146500Y-99400
X146800Y-87265
X147300Y-89200
X147600Y-91800
X148600Y-100700
X148600Y-120300
X148700Y-115800
X149000Y-86600
X150000Y-102800
X150400Y-112200
X150600Y-83700
X152700Y-103300
X152700Y-113100
X154600Y-92800
X155300Y-101200
X155500Y-103300
X157100Y-111200
X157800Y-102200
T2
X125900Y-87460
X125900Y-88730
X125900Y-90000
T3
X149860Y-92760
X149860Y-95300
X149860Y-97840
X152400Y-92760
X152400Y-95300
X152400Y-97840
T4
X152000Y-130460
X152000Y-133000
T5
X130400Y-85480
X130400Y-93100
X156800Y-88000
X156800Y-95620
T6
X123000Y-82000
X123000Y-134000
X160000Y-82000
X160000Y-134000
T7
X139300Y-132149
X143700Y-132149
T0
M30
