G04 #@! TF.FileFunction,Legend,Bot*
%FSLAX46Y46*%
G04 Gerber Fmt 4.6, Leading zero omitted, Abs format (unit mm)*
G04 Created by KiCad (PCBNEW 4.0.7) date 2017 November 19, Sunday 17:56:15*
%MOMM*%
%LPD*%
G01*
G04 APERTURE LIST*
%ADD10C,0.100000*%
%ADD11C,0.200000*%
%ADD12C,0.150000*%
%ADD13C,0.120000*%
G04 APERTURE END LIST*
D10*
D11*
X161771428Y-108204762D02*
X161866666Y-108252381D01*
X162057143Y-108252381D01*
X162152381Y-108204762D01*
X162200000Y-108157143D01*
X162247619Y-108061905D01*
X162247619Y-107776190D01*
X162200000Y-107680952D01*
X162152381Y-107633333D01*
X162057143Y-107585714D01*
X161866666Y-107585714D01*
X161771428Y-107633333D01*
X161342857Y-108252381D02*
X161342857Y-107252381D01*
X160914285Y-108252381D02*
X160914285Y-107728571D01*
X160961904Y-107633333D01*
X161057142Y-107585714D01*
X161200000Y-107585714D01*
X161295238Y-107633333D01*
X161342857Y-107680952D01*
X160009523Y-108252381D02*
X160009523Y-107728571D01*
X160057142Y-107633333D01*
X160152380Y-107585714D01*
X160342857Y-107585714D01*
X160438095Y-107633333D01*
X160009523Y-108204762D02*
X160104761Y-108252381D01*
X160342857Y-108252381D01*
X160438095Y-108204762D01*
X160485714Y-108109524D01*
X160485714Y-108014286D01*
X160438095Y-107919048D01*
X160342857Y-107871429D01*
X160104761Y-107871429D01*
X160009523Y-107823810D01*
X159533333Y-108252381D02*
X159533333Y-107585714D01*
X159533333Y-107776190D02*
X159485714Y-107680952D01*
X159438095Y-107633333D01*
X159342857Y-107585714D01*
X159247618Y-107585714D01*
X158485713Y-107585714D02*
X158485713Y-108395238D01*
X158533332Y-108490476D01*
X158580951Y-108538095D01*
X158676190Y-108585714D01*
X158819047Y-108585714D01*
X158914285Y-108538095D01*
X158485713Y-108204762D02*
X158580951Y-108252381D01*
X158771428Y-108252381D01*
X158866666Y-108204762D01*
X158914285Y-108157143D01*
X158961904Y-108061905D01*
X158961904Y-107776190D01*
X158914285Y-107680952D01*
X158866666Y-107633333D01*
X158771428Y-107585714D01*
X158580951Y-107585714D01*
X158485713Y-107633333D01*
X158009523Y-108252381D02*
X158009523Y-107585714D01*
X158009523Y-107252381D02*
X158057142Y-107300000D01*
X158009523Y-107347619D01*
X157961904Y-107300000D01*
X158009523Y-107252381D01*
X158009523Y-107347619D01*
X157533333Y-107585714D02*
X157533333Y-108252381D01*
X157533333Y-107680952D02*
X157485714Y-107633333D01*
X157390476Y-107585714D01*
X157247618Y-107585714D01*
X157152380Y-107633333D01*
X157104761Y-107728571D01*
X157104761Y-108252381D01*
X156199999Y-107585714D02*
X156199999Y-108395238D01*
X156247618Y-108490476D01*
X156295237Y-108538095D01*
X156390476Y-108585714D01*
X156533333Y-108585714D01*
X156628571Y-108538095D01*
X156199999Y-108204762D02*
X156295237Y-108252381D01*
X156485714Y-108252381D01*
X156580952Y-108204762D01*
X156628571Y-108157143D01*
X156676190Y-108061905D01*
X156676190Y-107776190D01*
X156628571Y-107680952D01*
X156580952Y-107633333D01*
X156485714Y-107585714D01*
X156295237Y-107585714D01*
X156199999Y-107633333D01*
X161309524Y-106104762D02*
X161404762Y-106152381D01*
X161595239Y-106152381D01*
X161690477Y-106104762D01*
X161738096Y-106057143D01*
X161785715Y-105961905D01*
X161785715Y-105676190D01*
X161738096Y-105580952D01*
X161690477Y-105533333D01*
X161595239Y-105485714D01*
X161404762Y-105485714D01*
X161309524Y-105533333D01*
X160880953Y-106152381D02*
X160880953Y-105152381D01*
X160452381Y-106152381D02*
X160452381Y-105628571D01*
X160500000Y-105533333D01*
X160595238Y-105485714D01*
X160738096Y-105485714D01*
X160833334Y-105533333D01*
X160880953Y-105580952D01*
X159547619Y-106152381D02*
X159547619Y-105628571D01*
X159595238Y-105533333D01*
X159690476Y-105485714D01*
X159880953Y-105485714D01*
X159976191Y-105533333D01*
X159547619Y-106104762D02*
X159642857Y-106152381D01*
X159880953Y-106152381D01*
X159976191Y-106104762D01*
X160023810Y-106009524D01*
X160023810Y-105914286D01*
X159976191Y-105819048D01*
X159880953Y-105771429D01*
X159642857Y-105771429D01*
X159547619Y-105723810D01*
X159071429Y-106152381D02*
X159071429Y-105485714D01*
X159071429Y-105676190D02*
X159023810Y-105580952D01*
X158976191Y-105533333D01*
X158880953Y-105485714D01*
X158785714Y-105485714D01*
X158023809Y-105485714D02*
X158023809Y-106295238D01*
X158071428Y-106390476D01*
X158119047Y-106438095D01*
X158214286Y-106485714D01*
X158357143Y-106485714D01*
X158452381Y-106438095D01*
X158023809Y-106104762D02*
X158119047Y-106152381D01*
X158309524Y-106152381D01*
X158404762Y-106104762D01*
X158452381Y-106057143D01*
X158500000Y-105961905D01*
X158500000Y-105676190D01*
X158452381Y-105580952D01*
X158404762Y-105533333D01*
X158309524Y-105485714D01*
X158119047Y-105485714D01*
X158023809Y-105533333D01*
X157166666Y-106104762D02*
X157261904Y-106152381D01*
X157452381Y-106152381D01*
X157547619Y-106104762D01*
X157595238Y-106009524D01*
X157595238Y-105628571D01*
X157547619Y-105533333D01*
X157452381Y-105485714D01*
X157261904Y-105485714D01*
X157166666Y-105533333D01*
X157119047Y-105628571D01*
X157119047Y-105723810D01*
X157595238Y-105819048D01*
X156261904Y-106152381D02*
X156261904Y-105152381D01*
X156261904Y-106104762D02*
X156357142Y-106152381D01*
X156547619Y-106152381D01*
X156642857Y-106104762D01*
X156690476Y-106057143D01*
X156738095Y-105961905D01*
X156738095Y-105676190D01*
X156690476Y-105580952D01*
X156642857Y-105533333D01*
X156547619Y-105485714D01*
X156357142Y-105485714D01*
X156261904Y-105533333D01*
X155738095Y-112252381D02*
X155738095Y-113061905D01*
X155690476Y-113157143D01*
X155642857Y-113204762D01*
X155547619Y-113252381D01*
X155357142Y-113252381D01*
X155261904Y-113204762D01*
X155214285Y-113157143D01*
X155166666Y-113061905D01*
X155166666Y-112252381D01*
X154690476Y-112585714D02*
X154690476Y-113585714D01*
X154690476Y-112633333D02*
X154595238Y-112585714D01*
X154404761Y-112585714D01*
X154309523Y-112633333D01*
X154261904Y-112680952D01*
X154214285Y-112776190D01*
X154214285Y-113061905D01*
X154261904Y-113157143D01*
X154309523Y-113204762D01*
X154404761Y-113252381D01*
X154595238Y-113252381D01*
X154690476Y-113204762D01*
X143619048Y-115204762D02*
X143476191Y-115252381D01*
X143238095Y-115252381D01*
X143142857Y-115204762D01*
X143095238Y-115157143D01*
X143047619Y-115061905D01*
X143047619Y-114966667D01*
X143095238Y-114871429D01*
X143142857Y-114823810D01*
X143238095Y-114776190D01*
X143428572Y-114728571D01*
X143523810Y-114680952D01*
X143571429Y-114633333D01*
X143619048Y-114538095D01*
X143619048Y-114442857D01*
X143571429Y-114347619D01*
X143523810Y-114300000D01*
X143428572Y-114252381D01*
X143190476Y-114252381D01*
X143047619Y-114300000D01*
X142238095Y-115204762D02*
X142333333Y-115252381D01*
X142523810Y-115252381D01*
X142619048Y-115204762D01*
X142666667Y-115109524D01*
X142666667Y-114728571D01*
X142619048Y-114633333D01*
X142523810Y-114585714D01*
X142333333Y-114585714D01*
X142238095Y-114633333D01*
X142190476Y-114728571D01*
X142190476Y-114823810D01*
X142666667Y-114919048D01*
X141619048Y-115252381D02*
X141714286Y-115204762D01*
X141761905Y-115109524D01*
X141761905Y-114252381D01*
X140857142Y-115204762D02*
X140952380Y-115252381D01*
X141142857Y-115252381D01*
X141238095Y-115204762D01*
X141285714Y-115109524D01*
X141285714Y-114728571D01*
X141238095Y-114633333D01*
X141142857Y-114585714D01*
X140952380Y-114585714D01*
X140857142Y-114633333D01*
X140809523Y-114728571D01*
X140809523Y-114823810D01*
X141285714Y-114919048D01*
X139952380Y-115204762D02*
X140047618Y-115252381D01*
X140238095Y-115252381D01*
X140333333Y-115204762D01*
X140380952Y-115157143D01*
X140428571Y-115061905D01*
X140428571Y-114776190D01*
X140380952Y-114680952D01*
X140333333Y-114633333D01*
X140238095Y-114585714D01*
X140047618Y-114585714D01*
X139952380Y-114633333D01*
X139666666Y-114585714D02*
X139285714Y-114585714D01*
X139523809Y-114252381D02*
X139523809Y-115109524D01*
X139476190Y-115204762D01*
X139380952Y-115252381D01*
X139285714Y-115252381D01*
X129690476Y-113252381D02*
X129690476Y-112252381D01*
X129452381Y-112252381D01*
X129309523Y-112300000D01*
X129214285Y-112395238D01*
X129166666Y-112490476D01*
X129119047Y-112680952D01*
X129119047Y-112823810D01*
X129166666Y-113014286D01*
X129214285Y-113109524D01*
X129309523Y-113204762D01*
X129452381Y-113252381D01*
X129690476Y-113252381D01*
X128547619Y-113252381D02*
X128642857Y-113204762D01*
X128690476Y-113157143D01*
X128738095Y-113061905D01*
X128738095Y-112776190D01*
X128690476Y-112680952D01*
X128642857Y-112633333D01*
X128547619Y-112585714D01*
X128404761Y-112585714D01*
X128309523Y-112633333D01*
X128261904Y-112680952D01*
X128214285Y-112776190D01*
X128214285Y-113061905D01*
X128261904Y-113157143D01*
X128309523Y-113204762D01*
X128404761Y-113252381D01*
X128547619Y-113252381D01*
X127880952Y-112585714D02*
X127690476Y-113252381D01*
X127499999Y-112776190D01*
X127309523Y-113252381D01*
X127119047Y-112585714D01*
X126738095Y-112585714D02*
X126738095Y-113252381D01*
X126738095Y-112680952D02*
X126690476Y-112633333D01*
X126595238Y-112585714D01*
X126452380Y-112585714D01*
X126357142Y-112633333D01*
X126309523Y-112728571D01*
X126309523Y-113252381D01*
D12*
X145950000Y-92554700D02*
X145950000Y-93554700D01*
X144250000Y-93554700D02*
X144250000Y-92554700D01*
X138400000Y-93029700D02*
X138400000Y-93529700D01*
X139200000Y-93529700D02*
X139200000Y-93029700D01*
X127250000Y-105425000D02*
X127750000Y-105425000D01*
X127750000Y-106375000D02*
X127250000Y-106375000D01*
X127200000Y-94125000D02*
X127700000Y-94125000D01*
X127700000Y-95075000D02*
X127200000Y-95075000D01*
X127200000Y-95925000D02*
X127700000Y-95925000D01*
X127700000Y-96875000D02*
X127200000Y-96875000D01*
X134000000Y-106375000D02*
X133500000Y-106375000D01*
X133500000Y-105425000D02*
X134000000Y-105425000D01*
X152350700Y-107050000D02*
X154250700Y-107050000D01*
X152350700Y-108150000D02*
X154250700Y-108150000D01*
X153250700Y-107600000D02*
X153700700Y-107600000D01*
X153200700Y-107850000D02*
X153200700Y-107350000D01*
X153200700Y-107600000D02*
X153450700Y-107850000D01*
X153450700Y-107850000D02*
X153450700Y-107350000D01*
X153450700Y-107350000D02*
X153200700Y-107600000D01*
X152350980Y-104950000D02*
X155050980Y-104950000D01*
X152350980Y-106450000D02*
X155050980Y-106450000D01*
X153850980Y-105550000D02*
X153850980Y-105800000D01*
X153850980Y-105800000D02*
X153700980Y-105650000D01*
X153600980Y-106050000D02*
X153600980Y-105350000D01*
X153950980Y-105700000D02*
X154300980Y-105700000D01*
X153600980Y-105700000D02*
X153950980Y-106050000D01*
X153950980Y-106050000D02*
X153950980Y-105350000D01*
X153950980Y-105350000D02*
X153600980Y-105700000D01*
D13*
X134520000Y-92354700D02*
X134520000Y-94354700D01*
X137480000Y-94354700D02*
X137480000Y-92354700D01*
X142620000Y-109940000D02*
X143550000Y-109940000D01*
X145780000Y-109940000D02*
X144850000Y-109940000D01*
X145780000Y-109940000D02*
X145780000Y-112100000D01*
X142620000Y-109940000D02*
X142620000Y-111400000D01*
D12*
X123325000Y-99800000D02*
X123325000Y-101800000D01*
X125475000Y-101800000D02*
X125475000Y-99800000D01*
X135525000Y-101200000D02*
X135525000Y-102200000D01*
X136875000Y-102200000D02*
X136875000Y-101200000D01*
X128475000Y-101800000D02*
X128475000Y-99800000D01*
X126325000Y-99800000D02*
X126325000Y-101800000D01*
X131375000Y-101800000D02*
X131375000Y-99800000D01*
X129225000Y-99800000D02*
X129225000Y-101800000D01*
X134475000Y-101750000D02*
X134475000Y-99750000D01*
X132325000Y-99750000D02*
X132325000Y-101750000D01*
X156750714Y-117000000D02*
G75*
G03X156750714Y-117000000I-1750714J0D01*
G01*
X158225000Y-120225000D02*
X158225000Y-120200000D01*
X158225000Y-113775000D02*
X158225000Y-113800000D01*
X151775000Y-113775000D02*
X151775000Y-113800000D01*
X151775000Y-120200000D02*
X151775000Y-120225000D01*
X158225000Y-118300000D02*
X158225000Y-115700000D01*
X151775000Y-120225000D02*
X158225000Y-120225000D01*
X151775000Y-118300000D02*
X151775000Y-115700000D01*
X151775000Y-113775000D02*
X158225000Y-113775000D01*
X143250714Y-119000000D02*
G75*
G03X143250714Y-119000000I-1750714J0D01*
G01*
X144725000Y-122225000D02*
X144725000Y-122200000D01*
X144725000Y-115775000D02*
X144725000Y-115800000D01*
X138275000Y-115775000D02*
X138275000Y-115800000D01*
X138275000Y-122200000D02*
X138275000Y-122225000D01*
X144725000Y-120300000D02*
X144725000Y-117700000D01*
X138275000Y-122225000D02*
X144725000Y-122225000D01*
X138275000Y-120300000D02*
X138275000Y-117700000D01*
X138275000Y-115775000D02*
X144725000Y-115775000D01*
X129750714Y-117000000D02*
G75*
G03X129750714Y-117000000I-1750714J0D01*
G01*
X131225000Y-120225000D02*
X131225000Y-120200000D01*
X131225000Y-113775000D02*
X131225000Y-113800000D01*
X124775000Y-113775000D02*
X124775000Y-113800000D01*
X124775000Y-120200000D02*
X124775000Y-120225000D01*
X131225000Y-118300000D02*
X131225000Y-115700000D01*
X124775000Y-120225000D02*
X131225000Y-120225000D01*
X124775000Y-118300000D02*
X124775000Y-115700000D01*
X124775000Y-113775000D02*
X131225000Y-113775000D01*
X145350640Y-136599180D02*
X137649360Y-136599180D01*
X145350640Y-137599940D02*
X137649360Y-137599940D01*
X137649360Y-137599940D02*
X137649360Y-128400060D01*
X137649360Y-128400060D02*
X145350640Y-128400060D01*
X145350640Y-128400060D02*
X145350640Y-137599940D01*
X144200000Y-98429700D02*
X145400000Y-98429700D01*
X145400000Y-96679700D02*
X144200000Y-96679700D01*
X140300000Y-98429700D02*
X141500000Y-98429700D01*
X141500000Y-96679700D02*
X140300000Y-96679700D01*
D13*
X143260000Y-92054700D02*
X143260000Y-93854700D01*
X140040000Y-93854700D02*
X140040000Y-91404700D01*
D12*
X145266666Y-90957143D02*
X145314285Y-91004762D01*
X145457142Y-91052381D01*
X145552380Y-91052381D01*
X145695238Y-91004762D01*
X145790476Y-90909524D01*
X145838095Y-90814286D01*
X145885714Y-90623810D01*
X145885714Y-90480952D01*
X145838095Y-90290476D01*
X145790476Y-90195238D01*
X145695238Y-90100000D01*
X145552380Y-90052381D01*
X145457142Y-90052381D01*
X145314285Y-90100000D01*
X145266666Y-90147619D01*
X144314285Y-91052381D02*
X144885714Y-91052381D01*
X144600000Y-91052381D02*
X144600000Y-90052381D01*
X144695238Y-90195238D01*
X144790476Y-90290476D01*
X144885714Y-90338095D01*
X138966666Y-92157143D02*
X139014285Y-92204762D01*
X139157142Y-92252381D01*
X139252380Y-92252381D01*
X139395238Y-92204762D01*
X139490476Y-92109524D01*
X139538095Y-92014286D01*
X139585714Y-91823810D01*
X139585714Y-91680952D01*
X139538095Y-91490476D01*
X139490476Y-91395238D01*
X139395238Y-91300000D01*
X139252380Y-91252381D01*
X139157142Y-91252381D01*
X139014285Y-91300000D01*
X138966666Y-91347619D01*
X138061904Y-91252381D02*
X138538095Y-91252381D01*
X138585714Y-91728571D01*
X138538095Y-91680952D01*
X138442857Y-91633333D01*
X138204761Y-91633333D01*
X138109523Y-91680952D01*
X138061904Y-91728571D01*
X138014285Y-91823810D01*
X138014285Y-92061905D01*
X138061904Y-92157143D01*
X138109523Y-92204762D01*
X138204761Y-92252381D01*
X138442857Y-92252381D01*
X138538095Y-92204762D01*
X138585714Y-92157143D01*
X125492857Y-106157143D02*
X125540476Y-106204762D01*
X125683333Y-106252381D01*
X125778571Y-106252381D01*
X125921429Y-106204762D01*
X126016667Y-106109524D01*
X126064286Y-106014286D01*
X126111905Y-105823810D01*
X126111905Y-105680952D01*
X126064286Y-105490476D01*
X126016667Y-105395238D01*
X125921429Y-105300000D01*
X125778571Y-105252381D01*
X125683333Y-105252381D01*
X125540476Y-105300000D01*
X125492857Y-105347619D01*
X124540476Y-106252381D02*
X125111905Y-106252381D01*
X124826191Y-106252381D02*
X124826191Y-105252381D01*
X124921429Y-105395238D01*
X125016667Y-105490476D01*
X125111905Y-105538095D01*
X123635714Y-105252381D02*
X124111905Y-105252381D01*
X124159524Y-105728571D01*
X124111905Y-105680952D01*
X124016667Y-105633333D01*
X123778571Y-105633333D01*
X123683333Y-105680952D01*
X123635714Y-105728571D01*
X123588095Y-105823810D01*
X123588095Y-106061905D01*
X123635714Y-106157143D01*
X123683333Y-106204762D01*
X123778571Y-106252381D01*
X124016667Y-106252381D01*
X124111905Y-106204762D01*
X124159524Y-106157143D01*
X125442857Y-94857143D02*
X125490476Y-94904762D01*
X125633333Y-94952381D01*
X125728571Y-94952381D01*
X125871429Y-94904762D01*
X125966667Y-94809524D01*
X126014286Y-94714286D01*
X126061905Y-94523810D01*
X126061905Y-94380952D01*
X126014286Y-94190476D01*
X125966667Y-94095238D01*
X125871429Y-94000000D01*
X125728571Y-93952381D01*
X125633333Y-93952381D01*
X125490476Y-94000000D01*
X125442857Y-94047619D01*
X124490476Y-94952381D02*
X125061905Y-94952381D01*
X124776191Y-94952381D02*
X124776191Y-93952381D01*
X124871429Y-94095238D01*
X124966667Y-94190476D01*
X125061905Y-94238095D01*
X123919048Y-94380952D02*
X124014286Y-94333333D01*
X124061905Y-94285714D01*
X124109524Y-94190476D01*
X124109524Y-94142857D01*
X124061905Y-94047619D01*
X124014286Y-94000000D01*
X123919048Y-93952381D01*
X123728571Y-93952381D01*
X123633333Y-94000000D01*
X123585714Y-94047619D01*
X123538095Y-94142857D01*
X123538095Y-94190476D01*
X123585714Y-94285714D01*
X123633333Y-94333333D01*
X123728571Y-94380952D01*
X123919048Y-94380952D01*
X124014286Y-94428571D01*
X124061905Y-94476190D01*
X124109524Y-94571429D01*
X124109524Y-94761905D01*
X124061905Y-94857143D01*
X124014286Y-94904762D01*
X123919048Y-94952381D01*
X123728571Y-94952381D01*
X123633333Y-94904762D01*
X123585714Y-94857143D01*
X123538095Y-94761905D01*
X123538095Y-94571429D01*
X123585714Y-94476190D01*
X123633333Y-94428571D01*
X123728571Y-94380952D01*
X125442857Y-96657143D02*
X125490476Y-96704762D01*
X125633333Y-96752381D01*
X125728571Y-96752381D01*
X125871429Y-96704762D01*
X125966667Y-96609524D01*
X126014286Y-96514286D01*
X126061905Y-96323810D01*
X126061905Y-96180952D01*
X126014286Y-95990476D01*
X125966667Y-95895238D01*
X125871429Y-95800000D01*
X125728571Y-95752381D01*
X125633333Y-95752381D01*
X125490476Y-95800000D01*
X125442857Y-95847619D01*
X124490476Y-96752381D02*
X125061905Y-96752381D01*
X124776191Y-96752381D02*
X124776191Y-95752381D01*
X124871429Y-95895238D01*
X124966667Y-95990476D01*
X125061905Y-96038095D01*
X124014286Y-96752381D02*
X123823810Y-96752381D01*
X123728571Y-96704762D01*
X123680952Y-96657143D01*
X123585714Y-96514286D01*
X123538095Y-96323810D01*
X123538095Y-95942857D01*
X123585714Y-95847619D01*
X123633333Y-95800000D01*
X123728571Y-95752381D01*
X123919048Y-95752381D01*
X124014286Y-95800000D01*
X124061905Y-95847619D01*
X124109524Y-95942857D01*
X124109524Y-96180952D01*
X124061905Y-96276190D01*
X124014286Y-96323810D01*
X123919048Y-96371429D01*
X123728571Y-96371429D01*
X123633333Y-96323810D01*
X123585714Y-96276190D01*
X123538095Y-96180952D01*
X131442857Y-106257143D02*
X131490476Y-106304762D01*
X131633333Y-106352381D01*
X131728571Y-106352381D01*
X131871429Y-106304762D01*
X131966667Y-106209524D01*
X132014286Y-106114286D01*
X132061905Y-105923810D01*
X132061905Y-105780952D01*
X132014286Y-105590476D01*
X131966667Y-105495238D01*
X131871429Y-105400000D01*
X131728571Y-105352381D01*
X131633333Y-105352381D01*
X131490476Y-105400000D01*
X131442857Y-105447619D01*
X131061905Y-105447619D02*
X131014286Y-105400000D01*
X130919048Y-105352381D01*
X130680952Y-105352381D01*
X130585714Y-105400000D01*
X130538095Y-105447619D01*
X130490476Y-105542857D01*
X130490476Y-105638095D01*
X130538095Y-105780952D01*
X131109524Y-106352381D01*
X130490476Y-106352381D01*
X129871429Y-105352381D02*
X129776190Y-105352381D01*
X129680952Y-105400000D01*
X129633333Y-105447619D01*
X129585714Y-105542857D01*
X129538095Y-105733333D01*
X129538095Y-105971429D01*
X129585714Y-106161905D01*
X129633333Y-106257143D01*
X129680952Y-106304762D01*
X129776190Y-106352381D01*
X129871429Y-106352381D01*
X129966667Y-106304762D01*
X130014286Y-106257143D01*
X130061905Y-106161905D01*
X130109524Y-105971429D01*
X130109524Y-105733333D01*
X130061905Y-105542857D01*
X130014286Y-105447619D01*
X129966667Y-105400000D01*
X129871429Y-105352381D01*
X136166666Y-90952381D02*
X136642857Y-90952381D01*
X136642857Y-89952381D01*
X135309523Y-90952381D02*
X135880952Y-90952381D01*
X135595238Y-90952381D02*
X135595238Y-89952381D01*
X135690476Y-90095238D01*
X135785714Y-90190476D01*
X135880952Y-90238095D01*
X144295238Y-108647619D02*
X144390476Y-108600000D01*
X144485714Y-108504762D01*
X144628571Y-108361905D01*
X144723810Y-108314286D01*
X144819048Y-108314286D01*
X144771429Y-108552381D02*
X144866667Y-108504762D01*
X144961905Y-108409524D01*
X145009524Y-108219048D01*
X145009524Y-107885714D01*
X144961905Y-107695238D01*
X144866667Y-107600000D01*
X144771429Y-107552381D01*
X144580952Y-107552381D01*
X144485714Y-107600000D01*
X144390476Y-107695238D01*
X144342857Y-107885714D01*
X144342857Y-108219048D01*
X144390476Y-108409524D01*
X144485714Y-108504762D01*
X144580952Y-108552381D01*
X144771429Y-108552381D01*
X143390476Y-108552381D02*
X143961905Y-108552381D01*
X143676191Y-108552381D02*
X143676191Y-107552381D01*
X143771429Y-107695238D01*
X143866667Y-107790476D01*
X143961905Y-107838095D01*
X124466666Y-98252381D02*
X124800000Y-97776190D01*
X125038095Y-98252381D02*
X125038095Y-97252381D01*
X124657142Y-97252381D01*
X124561904Y-97300000D01*
X124514285Y-97347619D01*
X124466666Y-97442857D01*
X124466666Y-97585714D01*
X124514285Y-97680952D01*
X124561904Y-97728571D01*
X124657142Y-97776190D01*
X125038095Y-97776190D01*
X124085714Y-97347619D02*
X124038095Y-97300000D01*
X123942857Y-97252381D01*
X123704761Y-97252381D01*
X123609523Y-97300000D01*
X123561904Y-97347619D01*
X123514285Y-97442857D01*
X123514285Y-97538095D01*
X123561904Y-97680952D01*
X124133333Y-98252381D01*
X123514285Y-98252381D01*
X136366666Y-98952381D02*
X136700000Y-98476190D01*
X136938095Y-98952381D02*
X136938095Y-97952381D01*
X136557142Y-97952381D01*
X136461904Y-98000000D01*
X136414285Y-98047619D01*
X136366666Y-98142857D01*
X136366666Y-98285714D01*
X136414285Y-98380952D01*
X136461904Y-98428571D01*
X136557142Y-98476190D01*
X136938095Y-98476190D01*
X135795238Y-98380952D02*
X135890476Y-98333333D01*
X135938095Y-98285714D01*
X135985714Y-98190476D01*
X135985714Y-98142857D01*
X135938095Y-98047619D01*
X135890476Y-98000000D01*
X135795238Y-97952381D01*
X135604761Y-97952381D01*
X135509523Y-98000000D01*
X135461904Y-98047619D01*
X135414285Y-98142857D01*
X135414285Y-98190476D01*
X135461904Y-98285714D01*
X135509523Y-98333333D01*
X135604761Y-98380952D01*
X135795238Y-98380952D01*
X135890476Y-98428571D01*
X135938095Y-98476190D01*
X135985714Y-98571429D01*
X135985714Y-98761905D01*
X135938095Y-98857143D01*
X135890476Y-98904762D01*
X135795238Y-98952381D01*
X135604761Y-98952381D01*
X135509523Y-98904762D01*
X135461904Y-98857143D01*
X135414285Y-98761905D01*
X135414285Y-98571429D01*
X135461904Y-98476190D01*
X135509523Y-98428571D01*
X135604761Y-98380952D01*
X127942857Y-98352381D02*
X128276191Y-97876190D01*
X128514286Y-98352381D02*
X128514286Y-97352381D01*
X128133333Y-97352381D01*
X128038095Y-97400000D01*
X127990476Y-97447619D01*
X127942857Y-97542857D01*
X127942857Y-97685714D01*
X127990476Y-97780952D01*
X128038095Y-97828571D01*
X128133333Y-97876190D01*
X128514286Y-97876190D01*
X126990476Y-98352381D02*
X127561905Y-98352381D01*
X127276191Y-98352381D02*
X127276191Y-97352381D01*
X127371429Y-97495238D01*
X127466667Y-97590476D01*
X127561905Y-97638095D01*
X126657143Y-97352381D02*
X125990476Y-97352381D01*
X126419048Y-98352381D01*
X131042857Y-98352381D02*
X131376191Y-97876190D01*
X131614286Y-98352381D02*
X131614286Y-97352381D01*
X131233333Y-97352381D01*
X131138095Y-97400000D01*
X131090476Y-97447619D01*
X131042857Y-97542857D01*
X131042857Y-97685714D01*
X131090476Y-97780952D01*
X131138095Y-97828571D01*
X131233333Y-97876190D01*
X131614286Y-97876190D01*
X130090476Y-98352381D02*
X130661905Y-98352381D01*
X130376191Y-98352381D02*
X130376191Y-97352381D01*
X130471429Y-97495238D01*
X130566667Y-97590476D01*
X130661905Y-97638095D01*
X129519048Y-97780952D02*
X129614286Y-97733333D01*
X129661905Y-97685714D01*
X129709524Y-97590476D01*
X129709524Y-97542857D01*
X129661905Y-97447619D01*
X129614286Y-97400000D01*
X129519048Y-97352381D01*
X129328571Y-97352381D01*
X129233333Y-97400000D01*
X129185714Y-97447619D01*
X129138095Y-97542857D01*
X129138095Y-97590476D01*
X129185714Y-97685714D01*
X129233333Y-97733333D01*
X129328571Y-97780952D01*
X129519048Y-97780952D01*
X129614286Y-97828571D01*
X129661905Y-97876190D01*
X129709524Y-97971429D01*
X129709524Y-98161905D01*
X129661905Y-98257143D01*
X129614286Y-98304762D01*
X129519048Y-98352381D01*
X129328571Y-98352381D01*
X129233333Y-98304762D01*
X129185714Y-98257143D01*
X129138095Y-98161905D01*
X129138095Y-97971429D01*
X129185714Y-97876190D01*
X129233333Y-97828571D01*
X129328571Y-97780952D01*
X134042857Y-98352381D02*
X134376191Y-97876190D01*
X134614286Y-98352381D02*
X134614286Y-97352381D01*
X134233333Y-97352381D01*
X134138095Y-97400000D01*
X134090476Y-97447619D01*
X134042857Y-97542857D01*
X134042857Y-97685714D01*
X134090476Y-97780952D01*
X134138095Y-97828571D01*
X134233333Y-97876190D01*
X134614286Y-97876190D01*
X133090476Y-98352381D02*
X133661905Y-98352381D01*
X133376191Y-98352381D02*
X133376191Y-97352381D01*
X133471429Y-97495238D01*
X133566667Y-97590476D01*
X133661905Y-97638095D01*
X132614286Y-98352381D02*
X132423810Y-98352381D01*
X132328571Y-98304762D01*
X132280952Y-98257143D01*
X132185714Y-98114286D01*
X132138095Y-97923810D01*
X132138095Y-97542857D01*
X132185714Y-97447619D01*
X132233333Y-97400000D01*
X132328571Y-97352381D01*
X132519048Y-97352381D01*
X132614286Y-97400000D01*
X132661905Y-97447619D01*
X132709524Y-97542857D01*
X132709524Y-97780952D01*
X132661905Y-97876190D01*
X132614286Y-97923810D01*
X132519048Y-97971429D01*
X132328571Y-97971429D01*
X132233333Y-97923810D01*
X132185714Y-97876190D01*
X132138095Y-97780952D01*
X146333693Y-126601481D02*
X146333693Y-127315767D01*
X146381313Y-127458624D01*
X146476551Y-127553862D01*
X146619408Y-127601481D01*
X146714646Y-127601481D01*
X145428931Y-126934814D02*
X145428931Y-127601481D01*
X145667027Y-126553862D02*
X145905122Y-127268148D01*
X145286074Y-127268148D01*
X144966666Y-96352381D02*
X145300000Y-95876190D01*
X145538095Y-96352381D02*
X145538095Y-95352381D01*
X145157142Y-95352381D01*
X145061904Y-95400000D01*
X145014285Y-95447619D01*
X144966666Y-95542857D01*
X144966666Y-95685714D01*
X145014285Y-95780952D01*
X145061904Y-95828571D01*
X145157142Y-95876190D01*
X145538095Y-95876190D01*
X144109523Y-95352381D02*
X144300000Y-95352381D01*
X144395238Y-95400000D01*
X144442857Y-95447619D01*
X144538095Y-95590476D01*
X144585714Y-95780952D01*
X144585714Y-96161905D01*
X144538095Y-96257143D01*
X144490476Y-96304762D01*
X144395238Y-96352381D01*
X144204761Y-96352381D01*
X144109523Y-96304762D01*
X144061904Y-96257143D01*
X144014285Y-96161905D01*
X144014285Y-95923810D01*
X144061904Y-95828571D01*
X144109523Y-95780952D01*
X144204761Y-95733333D01*
X144395238Y-95733333D01*
X144490476Y-95780952D01*
X144538095Y-95828571D01*
X144585714Y-95923810D01*
X141066666Y-96352381D02*
X141400000Y-95876190D01*
X141638095Y-96352381D02*
X141638095Y-95352381D01*
X141257142Y-95352381D01*
X141161904Y-95400000D01*
X141114285Y-95447619D01*
X141066666Y-95542857D01*
X141066666Y-95685714D01*
X141114285Y-95780952D01*
X141161904Y-95828571D01*
X141257142Y-95876190D01*
X141638095Y-95876190D01*
X140733333Y-95352381D02*
X140066666Y-95352381D01*
X140495238Y-96352381D01*
X142461905Y-89852381D02*
X142461905Y-90661905D01*
X142414286Y-90757143D01*
X142366667Y-90804762D01*
X142271429Y-90852381D01*
X142080952Y-90852381D01*
X141985714Y-90804762D01*
X141938095Y-90757143D01*
X141890476Y-90661905D01*
X141890476Y-89852381D01*
X140985714Y-90185714D02*
X140985714Y-90852381D01*
X141223810Y-89804762D02*
X141461905Y-90519048D01*
X140842857Y-90519048D01*
M02*
