G04 #@! TF.FileFunction,Paste,Bot*
%FSLAX46Y46*%
G04 Gerber Fmt 4.6, Leading zero omitted, Abs format (unit mm)*
G04 Created by KiCad (PCBNEW 4.0.7) date 2017 November 19, Sunday 17:56:15*
%MOMM*%
%LPD*%
G01*
G04 APERTURE LIST*
%ADD10C,0.100000*%
%ADD11R,1.125000X0.900000*%
%ADD12R,0.315000X0.270000*%
%ADD13R,0.540000X0.450000*%
%ADD14R,0.717804X0.717804*%
%ADD15R,1.078992X1.078992*%
%ADD16R,2.250000X0.810000*%
%ADD17R,0.720000X0.810000*%
%ADD18R,1.530000X0.810000*%
%ADD19R,0.810000X0.450000*%
%ADD20R,1.395000X1.170000*%
%ADD21R,0.450342X2.071116*%
%ADD22R,1.799082X2.249424*%
%ADD23R,0.630000X1.170000*%
%ADD24R,0.585000X0.954000*%
G04 APERTURE END LIST*
D10*
D11*
X145100000Y-94054700D03*
X145100000Y-92054700D03*
D12*
X138800000Y-93554700D03*
X138800000Y-93004700D03*
D13*
X128050000Y-105900000D03*
X126950000Y-105900000D03*
X128000000Y-94600000D03*
X126900000Y-94600000D03*
X128000000Y-96400000D03*
X126900000Y-96400000D03*
X133200000Y-105900000D03*
X134300000Y-105900000D03*
D14*
X154200000Y-107600000D03*
X152701400Y-107600000D03*
D15*
X155000000Y-105700000D03*
X152901960Y-105700000D03*
D16*
X136000000Y-94804700D03*
X136000000Y-91904700D03*
D17*
X145150000Y-111700000D03*
X143250000Y-111700000D03*
X144200000Y-109700000D03*
D18*
X124400000Y-102250000D03*
X124400000Y-99350000D03*
D19*
X136200000Y-102450000D03*
X136200000Y-100950000D03*
D18*
X127400000Y-99350000D03*
X127400000Y-102250000D03*
X130300000Y-99350000D03*
X130300000Y-102250000D03*
X133400000Y-99300000D03*
X133400000Y-102200000D03*
D20*
X151025000Y-114750000D03*
X151025000Y-119250000D03*
X158975000Y-119250000D03*
X158975000Y-114750000D03*
X137525000Y-116750000D03*
X137525000Y-121250000D03*
X145475000Y-121250000D03*
X145475000Y-116750000D03*
X124025000Y-114750000D03*
X124025000Y-119250000D03*
X131975000Y-119250000D03*
X131975000Y-114750000D03*
D21*
X143100200Y-129550680D03*
X142300100Y-129550680D03*
X141500000Y-129550680D03*
X140699900Y-129550680D03*
X139899800Y-129550680D03*
D22*
X145950080Y-129649740D03*
X145950080Y-135148840D03*
X137049920Y-129649740D03*
X137049920Y-135148840D03*
D23*
X145750000Y-97554700D03*
X143850000Y-97554700D03*
X141850000Y-97554700D03*
X139950000Y-97554700D03*
D24*
X140700000Y-91854700D03*
X141650000Y-91854700D03*
X142600000Y-91854700D03*
X142600000Y-94054700D03*
X140700000Y-94054700D03*
X141650000Y-94054700D03*
M02*
