G04 #@! TF.FileFunction,Legend,Top*
%FSLAX46Y46*%
G04 Gerber Fmt 4.6, Leading zero omitted, Abs format (unit mm)*
G04 Created by KiCad (PCBNEW 4.0.7) date Sun May 27 13:06:25 2018*
%MOMM*%
%LPD*%
G01*
G04 APERTURE LIST*
%ADD10C,0.100000*%
%ADD11C,0.300000*%
%ADD12C,0.150000*%
%ADD13C,0.120000*%
G04 APERTURE END LIST*
D10*
D11*
X131206857Y-80958571D02*
X131778286Y-80958571D01*
X131421143Y-80458571D02*
X131421143Y-81744286D01*
X131492571Y-81887143D01*
X131635429Y-81958571D01*
X131778286Y-81958571D01*
X132278286Y-81958571D02*
X132278286Y-80958571D01*
X132278286Y-81244286D02*
X132349714Y-81101429D01*
X132421143Y-81030000D01*
X132564000Y-80958571D01*
X132706857Y-80958571D01*
X133849714Y-81958571D02*
X133849714Y-81172857D01*
X133778285Y-81030000D01*
X133635428Y-80958571D01*
X133349714Y-80958571D01*
X133206857Y-81030000D01*
X133849714Y-81887143D02*
X133706857Y-81958571D01*
X133349714Y-81958571D01*
X133206857Y-81887143D01*
X133135428Y-81744286D01*
X133135428Y-81601429D01*
X133206857Y-81458571D01*
X133349714Y-81387143D01*
X133706857Y-81387143D01*
X133849714Y-81315714D01*
X135206857Y-81887143D02*
X135064000Y-81958571D01*
X134778286Y-81958571D01*
X134635428Y-81887143D01*
X134564000Y-81815714D01*
X134492571Y-81672857D01*
X134492571Y-81244286D01*
X134564000Y-81101429D01*
X134635428Y-81030000D01*
X134778286Y-80958571D01*
X135064000Y-80958571D01*
X135206857Y-81030000D01*
X135849714Y-81815714D02*
X135921142Y-81887143D01*
X135849714Y-81958571D01*
X135778285Y-81887143D01*
X135849714Y-81815714D01*
X135849714Y-81958571D01*
X136564000Y-81958571D02*
X136564000Y-80958571D01*
X136564000Y-81101429D02*
X136635428Y-81030000D01*
X136778286Y-80958571D01*
X136992571Y-80958571D01*
X137135428Y-81030000D01*
X137206857Y-81172857D01*
X137206857Y-81958571D01*
X137206857Y-81172857D02*
X137278286Y-81030000D01*
X137421143Y-80958571D01*
X137635428Y-80958571D01*
X137778286Y-81030000D01*
X137849714Y-81172857D01*
X137849714Y-81958571D01*
X139206857Y-81887143D02*
X139064000Y-81958571D01*
X138778286Y-81958571D01*
X138635428Y-81887143D01*
X138564000Y-81815714D01*
X138492571Y-81672857D01*
X138492571Y-81244286D01*
X138564000Y-81101429D01*
X138635428Y-81030000D01*
X138778286Y-80958571D01*
X139064000Y-80958571D01*
X139206857Y-81030000D01*
X140492571Y-80958571D02*
X140492571Y-81958571D01*
X139849714Y-80958571D02*
X139849714Y-81744286D01*
X139921142Y-81887143D01*
X140064000Y-81958571D01*
X140278285Y-81958571D01*
X140421142Y-81887143D01*
X140492571Y-81815714D01*
X141135428Y-81887143D02*
X141278285Y-81958571D01*
X141564000Y-81958571D01*
X141706857Y-81887143D01*
X141778285Y-81744286D01*
X141778285Y-81672857D01*
X141706857Y-81530000D01*
X141564000Y-81458571D01*
X141349714Y-81458571D01*
X141206857Y-81387143D01*
X141135428Y-81244286D01*
X141135428Y-81172857D01*
X141206857Y-81030000D01*
X141349714Y-80958571D01*
X141564000Y-80958571D01*
X141706857Y-81030000D01*
X142421143Y-81958571D02*
X142421143Y-80958571D01*
X142421143Y-80458571D02*
X142349714Y-80530000D01*
X142421143Y-80601429D01*
X142492571Y-80530000D01*
X142421143Y-80458571D01*
X142421143Y-80601429D01*
X143135429Y-81958571D02*
X143135429Y-80958571D01*
X143135429Y-81101429D02*
X143206857Y-81030000D01*
X143349715Y-80958571D01*
X143564000Y-80958571D01*
X143706857Y-81030000D01*
X143778286Y-81172857D01*
X143778286Y-81958571D01*
X143778286Y-81172857D02*
X143849715Y-81030000D01*
X143992572Y-80958571D01*
X144206857Y-80958571D01*
X144349715Y-81030000D01*
X144421143Y-81172857D01*
X144421143Y-81958571D01*
X145135429Y-81815714D02*
X145206857Y-81887143D01*
X145135429Y-81958571D01*
X145064000Y-81887143D01*
X145135429Y-81815714D01*
X145135429Y-81958571D01*
X146064001Y-81958571D02*
X145921143Y-81887143D01*
X145849715Y-81815714D01*
X145778286Y-81672857D01*
X145778286Y-81244286D01*
X145849715Y-81101429D01*
X145921143Y-81030000D01*
X146064001Y-80958571D01*
X146278286Y-80958571D01*
X146421143Y-81030000D01*
X146492572Y-81101429D01*
X146564001Y-81244286D01*
X146564001Y-81672857D01*
X146492572Y-81815714D01*
X146421143Y-81887143D01*
X146278286Y-81958571D01*
X146064001Y-81958571D01*
X147206858Y-81958571D02*
X147206858Y-80958571D01*
X147206858Y-81244286D02*
X147278286Y-81101429D01*
X147349715Y-81030000D01*
X147492572Y-80958571D01*
X147635429Y-80958571D01*
X148778286Y-80958571D02*
X148778286Y-82172857D01*
X148706857Y-82315714D01*
X148635429Y-82387143D01*
X148492572Y-82458571D01*
X148278286Y-82458571D01*
X148135429Y-82387143D01*
X148778286Y-81887143D02*
X148635429Y-81958571D01*
X148349715Y-81958571D01*
X148206857Y-81887143D01*
X148135429Y-81815714D01*
X148064000Y-81672857D01*
X148064000Y-81244286D01*
X148135429Y-81101429D01*
X148206857Y-81030000D01*
X148349715Y-80958571D01*
X148635429Y-80958571D01*
X148778286Y-81030000D01*
D12*
X140300000Y-100568000D02*
X139500000Y-100568000D01*
X140300000Y-98568000D02*
X138800000Y-98568000D01*
X140300000Y-99968000D02*
X140300000Y-100568000D01*
X140300000Y-99168000D02*
X140300000Y-98568000D01*
X123738640Y-99560380D02*
X123738640Y-111259620D01*
X128737360Y-111259620D02*
X128737360Y-99560380D01*
X123738640Y-111259620D02*
X124587000Y-111259620D01*
X128737360Y-111259620D02*
X127889000Y-111259620D01*
X123738640Y-99560380D02*
X124587000Y-99560380D01*
X128737360Y-99560380D02*
X127889000Y-99560380D01*
D13*
X133102000Y-120268000D02*
X128552000Y-120268000D01*
X133102000Y-116968000D02*
X128552000Y-116968000D01*
X133102000Y-120268000D02*
X133102000Y-116968000D01*
X148586000Y-109490000D02*
X148586000Y-111490000D01*
X150626000Y-111490000D02*
X150626000Y-109490000D01*
X133101000Y-116712000D02*
X128551000Y-116712000D01*
X133101000Y-113412000D02*
X128551000Y-113412000D01*
X133101000Y-116712000D02*
X133101000Y-113412000D01*
X152396000Y-114316000D02*
X152396000Y-116316000D01*
X154436000Y-116316000D02*
X154436000Y-114316000D01*
X130564000Y-98386000D02*
X131564000Y-98386000D01*
X131564000Y-96686000D02*
X130564000Y-96686000D01*
X130564000Y-101942000D02*
X131564000Y-101942000D01*
X131564000Y-100242000D02*
X130564000Y-100242000D01*
X149186000Y-100068000D02*
X149186000Y-99068000D01*
X147486000Y-99068000D02*
X147486000Y-100068000D01*
X147777000Y-103814000D02*
X154877000Y-103814000D01*
X147777000Y-107514000D02*
X154877000Y-107514000D01*
X147777000Y-103814000D02*
X147777000Y-107514000D01*
X130548000Y-103974000D02*
X131548000Y-103974000D01*
X131548000Y-102274000D02*
X130548000Y-102274000D01*
X130564000Y-100164000D02*
X131564000Y-100164000D01*
X131564000Y-98464000D02*
X130564000Y-98464000D01*
X144868000Y-110990000D02*
X144868000Y-109990000D01*
X143168000Y-109990000D02*
X143168000Y-110990000D01*
X146646000Y-110990000D02*
X146646000Y-109990000D01*
X144946000Y-109990000D02*
X144946000Y-110990000D01*
X148424000Y-110990000D02*
X148424000Y-109990000D01*
X146724000Y-109990000D02*
X146724000Y-110990000D01*
X127244000Y-93084000D02*
X127114000Y-93084000D01*
X127114000Y-93084000D02*
X127114000Y-87764000D01*
X127114000Y-87764000D02*
X127244000Y-87764000D01*
X129804000Y-93084000D02*
X129934000Y-93084000D01*
X129934000Y-93084000D02*
X129934000Y-87764000D01*
X129934000Y-87764000D02*
X129804000Y-87764000D01*
X127114000Y-92244000D02*
X129934000Y-92244000D01*
X126756000Y-87764000D02*
X126886000Y-87764000D01*
X126886000Y-87764000D02*
X126886000Y-93084000D01*
X126886000Y-93084000D02*
X126756000Y-93084000D01*
X124196000Y-87764000D02*
X124066000Y-87764000D01*
X124066000Y-87764000D02*
X124066000Y-93084000D01*
X124066000Y-93084000D02*
X124196000Y-93084000D01*
X126886000Y-88604000D02*
X124066000Y-88604000D01*
D12*
X153800000Y-110044000D02*
X153800000Y-111344000D01*
X151000000Y-110044000D02*
X153800000Y-110044000D01*
X151000000Y-111344000D02*
X151000000Y-110044000D01*
X153800000Y-111344000D02*
X151000000Y-111344000D01*
D13*
X135850000Y-122868000D02*
X143550000Y-122868000D01*
X135850000Y-123868000D02*
X143550000Y-123868000D01*
X143550000Y-123868000D02*
X143550000Y-114668000D01*
X143550000Y-114668000D02*
X135850000Y-114668000D01*
X135850000Y-114668000D02*
X135850000Y-123868000D01*
X149800000Y-96266000D02*
X149800000Y-91126000D01*
X149800000Y-91126000D02*
X155000000Y-91126000D01*
X155000000Y-91126000D02*
X155000000Y-98866000D01*
X155000000Y-98866000D02*
X152400000Y-98866000D01*
X152400000Y-98866000D02*
X152400000Y-96266000D01*
X152400000Y-96266000D02*
X149800000Y-96266000D01*
X149800000Y-97536000D02*
X149800000Y-98866000D01*
X149800000Y-98866000D02*
X151070000Y-98866000D01*
X144262000Y-99078000D02*
X143332000Y-99078000D01*
X141102000Y-99078000D02*
X142032000Y-99078000D01*
X141102000Y-99078000D02*
X141102000Y-101238000D01*
X144262000Y-99078000D02*
X144262000Y-100538000D01*
X156264000Y-109416000D02*
X156264000Y-111416000D01*
X154124000Y-111416000D02*
X154124000Y-109416000D01*
X156772000Y-114316000D02*
X156772000Y-116316000D01*
X154632000Y-116316000D02*
X154632000Y-114316000D01*
X147120000Y-98568000D02*
X147120000Y-100568000D01*
X144980000Y-100568000D02*
X144980000Y-98568000D01*
X141052000Y-103878000D02*
X141052000Y-102878000D01*
X142412000Y-102878000D02*
X142412000Y-103878000D01*
X139528000Y-103878000D02*
X139528000Y-102878000D01*
X140888000Y-102878000D02*
X140888000Y-103878000D01*
X130064000Y-104340000D02*
X132064000Y-104340000D01*
X132064000Y-106480000D02*
X130064000Y-106480000D01*
X130564000Y-106762000D02*
X131564000Y-106762000D01*
X131564000Y-108122000D02*
X130564000Y-108122000D01*
X132162000Y-110990000D02*
X132162000Y-109990000D01*
X133522000Y-109990000D02*
X133522000Y-110990000D01*
X140798000Y-110990000D02*
X140798000Y-109990000D01*
X142158000Y-109990000D02*
X142158000Y-110990000D01*
X138376000Y-111490000D02*
X138376000Y-109490000D01*
X140516000Y-109490000D02*
X140516000Y-111490000D01*
X136090000Y-111490000D02*
X136090000Y-109490000D01*
X138230000Y-109490000D02*
X138230000Y-111490000D01*
X133804000Y-111490000D02*
X133804000Y-109490000D01*
X135944000Y-109490000D02*
X135944000Y-111490000D01*
D12*
X150700000Y-90092000D02*
X154100000Y-90092000D01*
X150702944Y-90089056D02*
G75*
G02X152400000Y-85992000I1697056J1697056D01*
G01*
X154097056Y-90089056D02*
G75*
G03X152400000Y-85992000I-1697056J1697056D01*
G01*
X132200000Y-92700000D02*
X133600000Y-92700000D01*
X131600000Y-92100000D02*
X132200000Y-92700000D01*
X131600000Y-89100000D02*
X131600000Y-92100000D01*
X147200000Y-92600000D02*
X145800000Y-92600000D01*
X147800000Y-92000000D02*
X147200000Y-92600000D01*
X147800000Y-89100000D02*
X147800000Y-92000000D01*
X131600000Y-87200000D02*
X131600000Y-86700000D01*
X147800000Y-86700000D02*
X131600000Y-86700000D01*
X147800000Y-87200000D02*
X147800000Y-86700000D01*
X149098000Y-115570000D02*
X151638000Y-115570000D01*
X146278000Y-115290000D02*
X147828000Y-115290000D01*
X149098000Y-115570000D02*
X149098000Y-118110000D01*
X147828000Y-118390000D02*
X146278000Y-118390000D01*
X146278000Y-118390000D02*
X146278000Y-115290000D01*
X149098000Y-118110000D02*
X151638000Y-118110000D01*
X151638000Y-118110000D02*
X151638000Y-115570000D01*
X139604762Y-98083619D02*
X139509524Y-98036000D01*
X139414286Y-97940762D01*
X139271429Y-97797905D01*
X139176190Y-97750286D01*
X139080952Y-97750286D01*
X139128571Y-97988381D02*
X139033333Y-97940762D01*
X138938095Y-97845524D01*
X138890476Y-97655048D01*
X138890476Y-97321714D01*
X138938095Y-97131238D01*
X139033333Y-97036000D01*
X139128571Y-96988381D01*
X139319048Y-96988381D01*
X139414286Y-97036000D01*
X139509524Y-97131238D01*
X139557143Y-97321714D01*
X139557143Y-97655048D01*
X139509524Y-97845524D01*
X139414286Y-97940762D01*
X139319048Y-97988381D01*
X139128571Y-97988381D01*
X139890476Y-96988381D02*
X140509524Y-96988381D01*
X140176190Y-97369333D01*
X140319048Y-97369333D01*
X140414286Y-97416952D01*
X140461905Y-97464571D01*
X140509524Y-97559810D01*
X140509524Y-97797905D01*
X140461905Y-97893143D01*
X140414286Y-97940762D01*
X140319048Y-97988381D01*
X140033333Y-97988381D01*
X139938095Y-97940762D01*
X139890476Y-97893143D01*
X128301809Y-98528190D02*
X128301809Y-99004381D01*
X127968476Y-98004381D02*
X128301809Y-98528190D01*
X128635143Y-98004381D01*
X129492286Y-99004381D02*
X128920857Y-99004381D01*
X129206571Y-99004381D02*
X129206571Y-98004381D01*
X129111333Y-98147238D01*
X129016095Y-98242476D01*
X128920857Y-98290095D01*
X126071334Y-118975143D02*
X126023715Y-119022762D01*
X125880858Y-119070381D01*
X125785620Y-119070381D01*
X125642762Y-119022762D01*
X125547524Y-118927524D01*
X125499905Y-118832286D01*
X125452286Y-118641810D01*
X125452286Y-118498952D01*
X125499905Y-118308476D01*
X125547524Y-118213238D01*
X125642762Y-118118000D01*
X125785620Y-118070381D01*
X125880858Y-118070381D01*
X126023715Y-118118000D01*
X126071334Y-118165619D01*
X126452286Y-118165619D02*
X126499905Y-118118000D01*
X126595143Y-118070381D01*
X126833239Y-118070381D01*
X126928477Y-118118000D01*
X126976096Y-118165619D01*
X127023715Y-118260857D01*
X127023715Y-118356095D01*
X126976096Y-118498952D01*
X126404667Y-119070381D01*
X127023715Y-119070381D01*
X126071334Y-115419143D02*
X126023715Y-115466762D01*
X125880858Y-115514381D01*
X125785620Y-115514381D01*
X125642762Y-115466762D01*
X125547524Y-115371524D01*
X125499905Y-115276286D01*
X125452286Y-115085810D01*
X125452286Y-114942952D01*
X125499905Y-114752476D01*
X125547524Y-114657238D01*
X125642762Y-114562000D01*
X125785620Y-114514381D01*
X125880858Y-114514381D01*
X126023715Y-114562000D01*
X126071334Y-114609619D01*
X126928477Y-114847714D02*
X126928477Y-115514381D01*
X126690381Y-114466762D02*
X126452286Y-115181048D01*
X127071334Y-115181048D01*
X153027143Y-103227143D02*
X152979524Y-103274762D01*
X152836667Y-103322381D01*
X152741429Y-103322381D01*
X152598571Y-103274762D01*
X152503333Y-103179524D01*
X152455714Y-103084286D01*
X152408095Y-102893810D01*
X152408095Y-102750952D01*
X152455714Y-102560476D01*
X152503333Y-102465238D01*
X152598571Y-102370000D01*
X152741429Y-102322381D01*
X152836667Y-102322381D01*
X152979524Y-102370000D01*
X153027143Y-102417619D01*
X153979524Y-103322381D02*
X153408095Y-103322381D01*
X153693809Y-103322381D02*
X153693809Y-102322381D01*
X153598571Y-102465238D01*
X153503333Y-102560476D01*
X153408095Y-102608095D01*
X154598571Y-102322381D02*
X154693810Y-102322381D01*
X154789048Y-102370000D01*
X154836667Y-102417619D01*
X154884286Y-102512857D01*
X154931905Y-102703333D01*
X154931905Y-102941429D01*
X154884286Y-103131905D01*
X154836667Y-103227143D01*
X154789048Y-103274762D01*
X154693810Y-103322381D01*
X154598571Y-103322381D01*
X154503333Y-103274762D01*
X154455714Y-103227143D01*
X154408095Y-103131905D01*
X154360476Y-102941429D01*
X154360476Y-102703333D01*
X154408095Y-102512857D01*
X154455714Y-102417619D01*
X154503333Y-102370000D01*
X154598571Y-102322381D01*
X127785905Y-84526381D02*
X127785905Y-83526381D01*
X128024000Y-83526381D01*
X128166858Y-83574000D01*
X128262096Y-83669238D01*
X128309715Y-83764476D01*
X128357334Y-83954952D01*
X128357334Y-84097810D01*
X128309715Y-84288286D01*
X128262096Y-84383524D01*
X128166858Y-84478762D01*
X128024000Y-84526381D01*
X127785905Y-84526381D01*
X128690667Y-83526381D02*
X129309715Y-83526381D01*
X128976381Y-83907333D01*
X129119239Y-83907333D01*
X129214477Y-83954952D01*
X129262096Y-84002571D01*
X129309715Y-84097810D01*
X129309715Y-84335905D01*
X129262096Y-84431143D01*
X129214477Y-84478762D01*
X129119239Y-84526381D01*
X128833524Y-84526381D01*
X128738286Y-84478762D01*
X128690667Y-84431143D01*
X124737905Y-84526381D02*
X124737905Y-83526381D01*
X124976000Y-83526381D01*
X125118858Y-83574000D01*
X125214096Y-83669238D01*
X125261715Y-83764476D01*
X125309334Y-83954952D01*
X125309334Y-84097810D01*
X125261715Y-84288286D01*
X125214096Y-84383524D01*
X125118858Y-84478762D01*
X124976000Y-84526381D01*
X124737905Y-84526381D01*
X126214096Y-83526381D02*
X125737905Y-83526381D01*
X125690286Y-84002571D01*
X125737905Y-83954952D01*
X125833143Y-83907333D01*
X126071239Y-83907333D01*
X126166477Y-83954952D01*
X126214096Y-84002571D01*
X126261715Y-84097810D01*
X126261715Y-84335905D01*
X126214096Y-84431143D01*
X126166477Y-84478762D01*
X126071239Y-84526381D01*
X125833143Y-84526381D01*
X125737905Y-84478762D01*
X125690286Y-84431143D01*
X150542667Y-113244381D02*
X150542667Y-113958667D01*
X150495047Y-114101524D01*
X150399809Y-114196762D01*
X150256952Y-114244381D01*
X150161714Y-114244381D01*
X150923619Y-113244381D02*
X151542667Y-113244381D01*
X151209333Y-113625333D01*
X151352191Y-113625333D01*
X151447429Y-113672952D01*
X151495048Y-113720571D01*
X151542667Y-113815810D01*
X151542667Y-114053905D01*
X151495048Y-114149143D01*
X151447429Y-114196762D01*
X151352191Y-114244381D01*
X151066476Y-114244381D01*
X150971238Y-114196762D01*
X150923619Y-114149143D01*
X142414667Y-113244381D02*
X142414667Y-113958667D01*
X142367047Y-114101524D01*
X142271809Y-114196762D01*
X142128952Y-114244381D01*
X142033714Y-114244381D01*
X143319429Y-113577714D02*
X143319429Y-114244381D01*
X143081333Y-113196762D02*
X142843238Y-113911048D01*
X143462286Y-113911048D01*
X152066667Y-99528381D02*
X152066667Y-100242667D01*
X152019047Y-100385524D01*
X151923809Y-100480762D01*
X151780952Y-100528381D01*
X151685714Y-100528381D01*
X153019048Y-99528381D02*
X152542857Y-99528381D01*
X152495238Y-100004571D01*
X152542857Y-99956952D01*
X152638095Y-99909333D01*
X152876191Y-99909333D01*
X152971429Y-99956952D01*
X153019048Y-100004571D01*
X153066667Y-100099810D01*
X153066667Y-100337905D01*
X153019048Y-100433143D01*
X152971429Y-100480762D01*
X152876191Y-100528381D01*
X152638095Y-100528381D01*
X152542857Y-100480762D01*
X152495238Y-100433143D01*
X142652762Y-98083619D02*
X142557524Y-98036000D01*
X142462286Y-97940762D01*
X142319429Y-97797905D01*
X142224190Y-97750286D01*
X142128952Y-97750286D01*
X142176571Y-97988381D02*
X142081333Y-97940762D01*
X141986095Y-97845524D01*
X141938476Y-97655048D01*
X141938476Y-97321714D01*
X141986095Y-97131238D01*
X142081333Y-97036000D01*
X142176571Y-96988381D01*
X142367048Y-96988381D01*
X142462286Y-97036000D01*
X142557524Y-97131238D01*
X142605143Y-97321714D01*
X142605143Y-97655048D01*
X142557524Y-97845524D01*
X142462286Y-97940762D01*
X142367048Y-97988381D01*
X142176571Y-97988381D01*
X142986095Y-97083619D02*
X143033714Y-97036000D01*
X143128952Y-96988381D01*
X143367048Y-96988381D01*
X143462286Y-97036000D01*
X143509905Y-97083619D01*
X143557524Y-97178857D01*
X143557524Y-97274095D01*
X143509905Y-97416952D01*
X142938476Y-97988381D01*
X143557524Y-97988381D01*
X151638095Y-84288381D02*
X151638095Y-85097905D01*
X151685714Y-85193143D01*
X151733333Y-85240762D01*
X151828571Y-85288381D01*
X152019048Y-85288381D01*
X152114286Y-85240762D01*
X152161905Y-85193143D01*
X152209524Y-85097905D01*
X152209524Y-84288381D01*
X153209524Y-85288381D02*
X152638095Y-85288381D01*
X152923809Y-85288381D02*
X152923809Y-84288381D01*
X152828571Y-84431238D01*
X152733333Y-84526476D01*
X152638095Y-84574095D01*
X146304095Y-85304381D02*
X146304095Y-86113905D01*
X146351714Y-86209143D01*
X146399333Y-86256762D01*
X146494571Y-86304381D01*
X146685048Y-86304381D01*
X146780286Y-86256762D01*
X146827905Y-86209143D01*
X146875524Y-86113905D01*
X146875524Y-85304381D01*
X147256476Y-85304381D02*
X147875524Y-85304381D01*
X147542190Y-85685333D01*
X147685048Y-85685333D01*
X147780286Y-85732952D01*
X147827905Y-85780571D01*
X147875524Y-85875810D01*
X147875524Y-86113905D01*
X147827905Y-86209143D01*
X147780286Y-86256762D01*
X147685048Y-86304381D01*
X147399333Y-86304381D01*
X147304095Y-86256762D01*
X147256476Y-86209143D01*
M02*
