G04 #@! TF.FileFunction,Paste,Top*
%FSLAX46Y46*%
G04 Gerber Fmt 4.6, Leading zero omitted, Abs format (unit mm)*
G04 Created by KiCad (PCBNEW 4.0.7) date 2017 November 19, Sunday 17:56:15*
%MOMM*%
%LPD*%
G01*
G04 APERTURE LIST*
%ADD10C,0.100000*%
%ADD11R,0.450000X0.540000*%
%ADD12R,0.315000X0.270000*%
%ADD13R,0.720000X0.675000*%
%ADD14R,0.990000X0.540000*%
%ADD15R,0.810000X1.530000*%
%ADD16R,0.450000X0.810000*%
%ADD17R,1.890522X5.040630*%
%ADD18R,1.440000X2.340000*%
%ADD19R,1.440000X0.495000*%
%ADD20R,0.495000X1.440000*%
%ADD21R,2.250000X2.295000*%
%ADD22R,1.980000X1.350000*%
%ADD23R,1.530000X1.350000*%
%ADD24R,0.225000X0.990000*%
G04 APERTURE END LIST*
D10*
D11*
X142000000Y-103100000D03*
X142000000Y-102000000D03*
D12*
X143300000Y-102800000D03*
X143300000Y-102250000D03*
D13*
X135150000Y-91900000D03*
X136650000Y-91900000D03*
X139200000Y-112500000D03*
X137700000Y-112500000D03*
D11*
X129600000Y-108300000D03*
X129600000Y-109400000D03*
D14*
X155500000Y-104800000D03*
X152700000Y-104800000D03*
X152700000Y-105750000D03*
X152700000Y-106700000D03*
X155500000Y-106700000D03*
D15*
X160700000Y-100300000D03*
X157800000Y-100300000D03*
X155650000Y-111200000D03*
X152750000Y-111200000D03*
X132650000Y-124600000D03*
X129750000Y-124600000D03*
X150800000Y-101200000D03*
X153700000Y-101200000D03*
D16*
X136500000Y-93600000D03*
X135000000Y-93600000D03*
X148550000Y-122200000D03*
X150050000Y-122200000D03*
X129550000Y-122200000D03*
X131050000Y-122200000D03*
X139050000Y-110800000D03*
X137550000Y-110800000D03*
D17*
X124600000Y-106048860D03*
X124600000Y-96351140D03*
D18*
X159300000Y-108400000D03*
X159300000Y-104800000D03*
X148600000Y-108400000D03*
X148600000Y-104800000D03*
D19*
X130400000Y-98500000D03*
X130400000Y-99300000D03*
X130400000Y-100100000D03*
X130400000Y-100900000D03*
X130400000Y-101700000D03*
X130400000Y-102500000D03*
X130400000Y-103300000D03*
X130400000Y-104100000D03*
D20*
X131850000Y-105550000D03*
X132650000Y-105550000D03*
X133450000Y-105550000D03*
X134250000Y-105550000D03*
X135050000Y-105550000D03*
X135850000Y-105550000D03*
X136650000Y-105550000D03*
X137450000Y-105550000D03*
D19*
X138900000Y-104100000D03*
X138900000Y-103300000D03*
X138900000Y-102500000D03*
X138900000Y-101700000D03*
X138900000Y-100900000D03*
X138900000Y-100100000D03*
X138900000Y-99300000D03*
X138900000Y-98500000D03*
D20*
X137450000Y-97050000D03*
X136650000Y-97050000D03*
X135850000Y-97050000D03*
X135050000Y-97050000D03*
X134250000Y-97050000D03*
X133450000Y-97050000D03*
X132650000Y-97050000D03*
X131850000Y-97050000D03*
D21*
X145000000Y-91700000D03*
X145000000Y-96750000D03*
D22*
X127100000Y-118400000D03*
X127100000Y-112000000D03*
D23*
X148925000Y-80450000D03*
X134125000Y-80450000D03*
D24*
X147275000Y-84350000D03*
X146775000Y-84350000D03*
X146275000Y-84350000D03*
X145775000Y-84350000D03*
X145275000Y-84350000D03*
X144775000Y-84350000D03*
X144275000Y-84350000D03*
X143775000Y-84350000D03*
X143275000Y-84350000D03*
X142775000Y-84350000D03*
X142275000Y-84350000D03*
X141775000Y-84350000D03*
X141275000Y-84350000D03*
X140775000Y-84350000D03*
X140275000Y-84350000D03*
X139775000Y-84350000D03*
X139275000Y-84350000D03*
X138775000Y-84350000D03*
X138275000Y-84350000D03*
X137775000Y-84350000D03*
X137275000Y-84350000D03*
X136775000Y-84350000D03*
X136275000Y-84350000D03*
X135775000Y-84350000D03*
M02*
