G04 #@! TF.FileFunction,Copper,L1,Top,Signal*
%FSLAX46Y46*%
G04 Gerber Fmt 4.6, Leading zero omitted, Abs format (unit mm)*
G04 Created by KiCad (PCBNEW 4.0.7) date Sun May 27 13:06:25 2018*
%MOMM*%
%LPD*%
G01*
G04 APERTURE LIST*
%ADD10C,0.100000*%
%ADD11R,0.508000X0.356000*%
%ADD12R,2.100580X5.600700*%
%ADD13R,1.950000X2.500000*%
%ADD14R,1.600000X1.000000*%
%ADD15R,1.000000X1.250000*%
%ADD16R,1.250000X1.000000*%
%ADD17R,2.550000X2.500000*%
%ADD18R,2.200000X2.200000*%
%ADD19O,2.200000X2.200000*%
%ADD20R,0.600000X1.100000*%
%ADD21R,0.500000X2.300000*%
%ADD22R,2.000000X2.500000*%
%ADD23R,1.700000X1.700000*%
%ADD24O,1.700000X1.700000*%
%ADD25R,0.800000X0.900000*%
%ADD26R,1.700000X0.900000*%
%ADD27R,0.900000X0.500000*%
%ADD28R,0.900000X1.700000*%
%ADD29R,0.500000X0.900000*%
%ADD30O,0.899160X1.501140*%
%ADD31R,2.500000X1.500000*%
%ADD32R,0.250000X1.500000*%
%ADD33R,2.032000X2.032000*%
%ADD34O,2.032000X2.032000*%
%ADD35C,4.400000*%
%ADD36C,0.700000*%
%ADD37C,0.600000*%
%ADD38C,0.250000*%
%ADD39C,0.500000*%
%ADD40C,0.254000*%
G04 APERTURE END LIST*
D10*
D11*
X140348000Y-99568000D03*
X139053000Y-99068000D03*
X139053000Y-100068000D03*
D12*
X126238000Y-100561140D03*
X126238000Y-110258860D03*
D13*
X131827000Y-118618000D03*
X128777000Y-118618000D03*
D14*
X149606000Y-111990000D03*
X149606000Y-108990000D03*
D13*
X131826000Y-115062000D03*
X128776000Y-115062000D03*
D14*
X153416000Y-116816000D03*
X153416000Y-113816000D03*
D15*
X132064000Y-97536000D03*
X130064000Y-97536000D03*
X132064000Y-101092000D03*
X130064000Y-101092000D03*
D16*
X148336000Y-98568000D03*
X148336000Y-100568000D03*
D17*
X149352000Y-105664000D03*
X154402000Y-105664000D03*
D15*
X132048000Y-103124000D03*
X130048000Y-103124000D03*
X132064000Y-99314000D03*
X130064000Y-99314000D03*
D16*
X144018000Y-109490000D03*
X144018000Y-111490000D03*
X145796000Y-109490000D03*
X145796000Y-111490000D03*
X147574000Y-109490000D03*
X147574000Y-111490000D03*
D18*
X128524000Y-94234000D03*
D19*
X128524000Y-86614000D03*
D18*
X125476000Y-86614000D03*
D19*
X125476000Y-94234000D03*
D20*
X153350000Y-112094000D03*
X153350000Y-109294000D03*
X152400000Y-109294000D03*
X151450000Y-109294000D03*
X151450000Y-112094000D03*
D21*
X138100000Y-115818000D03*
X138900000Y-115818000D03*
X139700000Y-115818000D03*
X140500000Y-115818000D03*
X141300000Y-115818000D03*
D22*
X135250000Y-115918000D03*
X135250000Y-121418000D03*
X144150000Y-115918000D03*
X144150000Y-121418000D03*
D23*
X151130000Y-97536000D03*
D24*
X153670000Y-97536000D03*
X151130000Y-94996000D03*
X153670000Y-94996000D03*
X151130000Y-92456000D03*
X153670000Y-92456000D03*
D25*
X141732000Y-100838000D03*
X143632000Y-100838000D03*
X142682000Y-98838000D03*
D26*
X155194000Y-111866000D03*
X155194000Y-108966000D03*
X155702000Y-116766000D03*
X155702000Y-113866000D03*
X146050000Y-101018000D03*
X146050000Y-98118000D03*
D27*
X141732000Y-102628000D03*
X141732000Y-104128000D03*
X140208000Y-102628000D03*
X140208000Y-104128000D03*
D28*
X132514000Y-105410000D03*
X129614000Y-105410000D03*
D29*
X131814000Y-107442000D03*
X130314000Y-107442000D03*
D27*
X132842000Y-109740000D03*
X132842000Y-111240000D03*
X141478000Y-109740000D03*
X141478000Y-111240000D03*
D26*
X139446000Y-109040000D03*
X139446000Y-111940000D03*
X137160000Y-109040000D03*
X137160000Y-111940000D03*
X134874000Y-109040000D03*
X134874000Y-111940000D03*
D30*
X152400000Y-88392000D03*
X153670000Y-88392000D03*
X151130000Y-88392000D03*
D31*
X147500000Y-88150000D03*
X131900000Y-88150000D03*
D32*
X145450000Y-92250000D03*
X144950000Y-92250000D03*
X144450000Y-92250000D03*
X143950000Y-92250000D03*
X143450000Y-92250000D03*
X142950000Y-92250000D03*
X142450000Y-92250000D03*
X141950000Y-92250000D03*
X141450000Y-92250000D03*
X140950000Y-92250000D03*
X140450000Y-92250000D03*
X139950000Y-92250000D03*
X139450000Y-92250000D03*
X138950000Y-92250000D03*
X138450000Y-92250000D03*
X137950000Y-92250000D03*
X137450000Y-92250000D03*
X136950000Y-92250000D03*
X136450000Y-92250000D03*
X135950000Y-92250000D03*
X135450000Y-92250000D03*
X134950000Y-92250000D03*
X134450000Y-92250000D03*
X133950000Y-92250000D03*
D33*
X147828000Y-116840000D03*
D34*
X150368000Y-116840000D03*
D35*
X125730000Y-80010000D03*
D36*
X127380000Y-80010000D03*
X126896726Y-81176726D03*
X125730000Y-81660000D03*
X124563274Y-81176726D03*
X124080000Y-80010000D03*
X124563274Y-78843274D03*
X125730000Y-78360000D03*
X126896726Y-78843274D03*
D35*
X153670000Y-80010000D03*
D36*
X155320000Y-80010000D03*
X154836726Y-81176726D03*
X153670000Y-81660000D03*
X152503274Y-81176726D03*
X152020000Y-80010000D03*
X152503274Y-78843274D03*
X153670000Y-78360000D03*
X154836726Y-78843274D03*
D37*
X136144000Y-90424000D03*
X130810000Y-95504000D03*
X134366000Y-101092000D03*
X130810000Y-110236000D03*
X140716000Y-100584000D03*
X125984000Y-115570000D03*
X137160000Y-88392000D03*
X134874000Y-87884000D03*
X144018000Y-112776000D03*
X130048000Y-121920000D03*
X128016000Y-102362000D03*
X146812000Y-103124000D03*
X149606000Y-110490000D03*
X153670000Y-102616000D03*
X139192000Y-101600000D03*
X133604000Y-118872000D03*
X133350000Y-121666000D03*
X142494000Y-95758000D03*
X134366000Y-102870000D03*
X133858000Y-98806000D03*
X139446000Y-107696000D03*
X137922000Y-107696000D03*
X135636000Y-107696000D03*
X152908000Y-90424000D03*
X150876000Y-101092000D03*
X143510000Y-102362000D03*
X140462000Y-95758000D03*
X138938000Y-95758000D03*
X143510000Y-104140000D03*
X143510000Y-103329997D03*
X131318000Y-112522000D03*
X132842000Y-112522000D03*
X142240000Y-112776000D03*
X141683997Y-95758000D03*
X135636000Y-118110000D03*
X136144000Y-113538000D03*
X146050000Y-121412000D03*
X150368000Y-120904000D03*
X136398000Y-97536000D03*
X134366000Y-103886000D03*
X138938000Y-103632000D03*
X137668000Y-94234000D03*
D38*
X136450000Y-92250000D02*
X136450000Y-90730000D01*
X136450000Y-90730000D02*
X136144000Y-90424000D01*
X135950000Y-92250000D02*
X135950000Y-90618000D01*
X135950000Y-90618000D02*
X136144000Y-90424000D01*
D39*
X136144000Y-94996000D02*
X135636000Y-94996000D01*
D38*
X135950000Y-94682000D02*
X135636000Y-94996000D01*
D39*
X135636000Y-94996000D02*
X135382000Y-94996000D01*
D38*
X135950000Y-92250000D02*
X135950000Y-94682000D01*
D39*
X136652000Y-94996000D02*
X136144000Y-94996000D01*
D38*
X136450000Y-92250000D02*
X136450000Y-94690000D01*
X136450000Y-94690000D02*
X136144000Y-94996000D01*
D39*
X136906000Y-95250000D02*
X136652000Y-94996000D01*
X138176000Y-95250000D02*
X136906000Y-95250000D01*
X138450000Y-94976000D02*
X138176000Y-95250000D01*
D38*
X138450000Y-92250000D02*
X138450000Y-94976000D01*
D39*
X130810000Y-95504000D02*
X132064000Y-96758000D01*
X132064000Y-96758000D02*
X132064000Y-97536000D01*
D38*
X134973001Y-95376999D02*
X135001001Y-95376999D01*
D39*
X135001001Y-95376999D02*
X135382000Y-94996000D01*
X135382000Y-101599998D02*
X135382000Y-100076000D01*
X135382000Y-100076000D02*
X135382000Y-94996000D01*
X134366000Y-101092000D02*
X134665999Y-100792001D01*
X134665999Y-100792001D02*
X135382000Y-100076000D01*
X133604000Y-101092000D02*
X134366000Y-101092000D01*
X132842000Y-109740000D02*
X131306000Y-109740000D01*
X131306000Y-109740000D02*
X130810000Y-110236000D01*
X140208000Y-102628000D02*
X140208000Y-101092000D01*
X140208000Y-101092000D02*
X140716000Y-100584000D01*
D38*
X132064000Y-97536000D02*
X132064000Y-97411000D01*
D39*
X132385002Y-107442000D02*
X133858000Y-107442000D01*
X133858000Y-107442000D02*
X135382000Y-105918000D01*
X135382000Y-105918000D02*
X135382000Y-101599998D01*
X132064000Y-97536000D02*
X132814000Y-97536000D01*
X132814000Y-97536000D02*
X134973001Y-95376999D01*
X125984000Y-115570000D02*
X127254000Y-116840000D01*
X127254000Y-116840000D02*
X130324000Y-116840000D01*
X130324000Y-116840000D02*
X131827000Y-118343000D01*
D38*
X131827000Y-118343000D02*
X131827000Y-118618000D01*
D39*
X133784000Y-109982000D02*
X140536000Y-109982000D01*
X140536000Y-109982000D02*
X140778000Y-109740000D01*
X140778000Y-109740000D02*
X141478000Y-109740000D01*
X132842000Y-109740000D02*
X133542000Y-109740000D01*
X133542000Y-109740000D02*
X133784000Y-109982000D01*
X131814000Y-107442000D02*
X131814000Y-108912000D01*
X131814000Y-108912000D02*
X132642000Y-109740000D01*
D38*
X132642000Y-109740000D02*
X132842000Y-109740000D01*
D39*
X131814000Y-107442000D02*
X132385002Y-107442000D01*
X133604000Y-101092000D02*
X132064000Y-101092000D01*
X140208000Y-102628000D02*
X141732000Y-102628000D01*
D38*
X140196000Y-102616000D02*
X140208000Y-102628000D01*
X141224000Y-88392000D02*
X143450000Y-90618000D01*
X143450000Y-90618000D02*
X143450000Y-92250000D01*
X140462000Y-88392000D02*
X141224000Y-88392000D01*
X140462000Y-88392000D02*
X142950000Y-90880000D01*
X142950000Y-90880000D02*
X142950000Y-92250000D01*
X139700000Y-88392000D02*
X140462000Y-88392000D01*
X142450000Y-91142000D02*
X139700000Y-88392000D01*
X139700000Y-88392000D02*
X139092000Y-88392000D01*
X142450000Y-92250000D02*
X142450000Y-91142000D01*
X137584264Y-88392000D02*
X137160000Y-88392000D01*
X141950000Y-92250000D02*
X141950000Y-91250000D01*
X139092000Y-88392000D02*
X137584264Y-88392000D01*
X141950000Y-91250000D02*
X139092000Y-88392000D01*
X141450000Y-92250000D02*
X141450000Y-91250000D01*
X141450000Y-91250000D02*
X138592000Y-88392000D01*
X138592000Y-88392000D02*
X137584264Y-88392000D01*
X137450000Y-92250000D02*
X137450000Y-88682000D01*
X137450000Y-88682000D02*
X137160000Y-88392000D01*
X136950000Y-92250000D02*
X136950000Y-88602000D01*
X136950000Y-88602000D02*
X137160000Y-88392000D01*
X137160000Y-88392000D02*
X138938000Y-90170000D01*
X134450000Y-91102000D02*
X135128000Y-90424000D01*
X135128000Y-90424000D02*
X137160000Y-88392000D01*
X134950000Y-92250000D02*
X134950000Y-91250000D01*
X134950000Y-91250000D02*
X135128000Y-91072000D01*
X135128000Y-91072000D02*
X135128000Y-90424000D01*
X134450000Y-92250000D02*
X134450000Y-91102000D01*
X138950000Y-92250000D02*
X138950000Y-90182000D01*
X138938000Y-90170000D02*
X139450000Y-90682000D01*
X138950000Y-90182000D02*
X138938000Y-90170000D01*
X139450000Y-90682000D02*
X139450000Y-92250000D01*
X131900000Y-88150000D02*
X134608000Y-88150000D01*
X134608000Y-88150000D02*
X134874000Y-87884000D01*
X135250000Y-121418000D02*
X135250000Y-119918000D01*
X137160000Y-117348000D02*
X137160000Y-116078000D01*
X135250000Y-119918000D02*
X136271001Y-118896999D01*
X136271001Y-118896999D02*
X136271001Y-118236999D01*
X136271001Y-118236999D02*
X137160000Y-117348000D01*
X137160000Y-116078000D02*
X137000000Y-115918000D01*
X137000000Y-115918000D02*
X135250000Y-115918000D01*
X128776000Y-115062000D02*
X127254000Y-115062000D01*
X125730000Y-114300000D02*
X124968000Y-115062000D01*
X127254000Y-115062000D02*
X126492000Y-114300000D01*
X126492000Y-114300000D02*
X125730000Y-114300000D01*
X124968000Y-115062000D02*
X124968000Y-117348000D01*
X124968000Y-117348000D02*
X126238000Y-118618000D01*
X126238000Y-118618000D02*
X128777000Y-118618000D01*
X128776000Y-115062000D02*
X127551000Y-115062000D01*
X127551000Y-115062000D02*
X127423999Y-114934999D01*
X144018000Y-111490000D02*
X144018000Y-112776000D01*
X141300000Y-115818000D02*
X144050000Y-115818000D01*
X144050000Y-115818000D02*
X144150000Y-115918000D01*
X128777000Y-118618000D02*
X128777000Y-120649000D01*
X128777000Y-120649000D02*
X130048000Y-121920000D01*
X130048000Y-121920000D02*
X130429001Y-122301001D01*
X130429001Y-122301001D02*
X134366999Y-122301001D01*
X134366999Y-122301001D02*
X135250000Y-121418000D01*
X128524000Y-103124000D02*
X128016000Y-102616000D01*
X128016000Y-102616000D02*
X128016000Y-102362000D01*
X130048000Y-103124000D02*
X128524000Y-103124000D01*
X130048000Y-103999000D02*
X129925000Y-103999000D01*
X129925000Y-103999000D02*
X129614000Y-104310000D01*
X129614000Y-104310000D02*
X129614000Y-105410000D01*
X130048000Y-103124000D02*
X130048000Y-103999000D01*
X130048000Y-103124000D02*
X130048000Y-101108000D01*
X130048000Y-101108000D02*
X130064000Y-101092000D01*
X139053000Y-99068000D02*
X139129000Y-99068000D01*
X139700000Y-99639000D02*
X139700000Y-100772671D01*
X139129000Y-99068000D02*
X139700000Y-99639000D01*
X139700000Y-100772671D02*
X139491999Y-100980672D01*
X139491999Y-100980672D02*
X139491999Y-101300001D01*
X139491999Y-101300001D02*
X139192000Y-101600000D01*
X152400000Y-109294000D02*
X152400000Y-110236000D01*
X152400000Y-110236000D02*
X153162000Y-110998000D01*
X153162000Y-110998000D02*
X154686000Y-110998000D01*
X154686000Y-110998000D02*
X155194000Y-110490000D01*
X155194000Y-110490000D02*
X155194000Y-109666000D01*
X155194000Y-109666000D02*
X155194000Y-108966000D01*
X155194000Y-109666000D02*
X156379001Y-110851001D01*
X156379001Y-110851001D02*
X156379001Y-112488999D01*
X155702000Y-113166000D02*
X155702000Y-113866000D01*
X156379001Y-112488999D02*
X155702000Y-113166000D01*
X153416000Y-113816000D02*
X155652000Y-113816000D01*
X155652000Y-113816000D02*
X155702000Y-113866000D01*
X148336000Y-100568000D02*
X148336000Y-101600000D01*
X148336000Y-101600000D02*
X146812000Y-103124000D01*
X130064000Y-99314000D02*
X130064000Y-101092000D01*
X130064000Y-97536000D02*
X130064000Y-99314000D01*
X149606000Y-110490000D02*
X149606000Y-108990000D01*
X153670000Y-102616000D02*
X153670000Y-102191736D01*
X153670000Y-102191736D02*
X153670000Y-97536000D01*
D39*
X129540000Y-123190000D02*
X129794000Y-123190000D01*
X125476000Y-94234000D02*
X124376001Y-95333999D01*
X123952000Y-114046000D02*
X123952000Y-117602000D01*
X124376001Y-95333999D02*
X124376001Y-113621999D01*
X124376001Y-113621999D02*
X123952000Y-114046000D01*
X123952000Y-117602000D02*
X129540000Y-123190000D01*
X138100000Y-115818000D02*
X138100000Y-114122000D01*
X138100000Y-114122000D02*
X138684000Y-113538000D01*
X138684000Y-113538000D02*
X147758000Y-113538000D01*
X147758000Y-113538000D02*
X149306000Y-111990000D01*
D38*
X149306000Y-111990000D02*
X149606000Y-111990000D01*
D39*
X138100000Y-115818000D02*
X138100000Y-117218000D01*
X138938000Y-118056000D02*
X138938000Y-119888000D01*
X138100000Y-117218000D02*
X138938000Y-118056000D01*
X138938000Y-119888000D02*
X137922000Y-120904000D01*
X137922000Y-120904000D02*
X137922000Y-122428000D01*
X137922000Y-122428000D02*
X137160000Y-123190000D01*
X137160000Y-123190000D02*
X129794000Y-123190000D01*
X151450000Y-112094000D02*
X149710000Y-112094000D01*
D38*
X149710000Y-112094000D02*
X149606000Y-111990000D01*
X133350000Y-120396000D02*
X133350000Y-119126000D01*
X133350000Y-119126000D02*
X133604000Y-118872000D01*
X133350000Y-120396000D02*
X133350000Y-121666000D01*
X147828000Y-116840000D02*
X147828000Y-118106000D01*
X147828000Y-118106000D02*
X148086000Y-118364000D01*
X148086000Y-118364000D02*
X152654000Y-118364000D01*
X152654000Y-118364000D02*
X153416000Y-117602000D01*
X153416000Y-117602000D02*
X153416000Y-116816000D01*
X151450000Y-109294000D02*
X151450000Y-110094000D01*
X151450000Y-110094000D02*
X152280999Y-110924999D01*
X152280999Y-110924999D02*
X152280999Y-114930999D01*
X152280999Y-114930999D02*
X153416000Y-116066000D01*
X153416000Y-116066000D02*
X153416000Y-116816000D01*
X144450000Y-92250000D02*
X144450000Y-94452552D01*
X144450000Y-94452552D02*
X143144552Y-95758000D01*
X143144552Y-95758000D02*
X142918264Y-95758000D01*
X142918264Y-95758000D02*
X142494000Y-95758000D01*
X126238000Y-110258860D02*
X127538290Y-110258860D01*
X127538290Y-110258860D02*
X129728999Y-108068151D01*
X129728999Y-106745001D02*
X129878999Y-106595001D01*
X129728999Y-108068151D02*
X129728999Y-106745001D01*
X129878999Y-106595001D02*
X130332001Y-106595001D01*
X130332001Y-106595001D02*
X131728999Y-105198003D01*
X131728999Y-105198003D02*
X131728999Y-104318001D01*
X131728999Y-104318001D02*
X132048000Y-103999000D01*
X132048000Y-103999000D02*
X132048000Y-103124000D01*
X132048000Y-103249000D02*
X132048000Y-103124000D01*
X134366000Y-102870000D02*
X132302000Y-102870000D01*
X132302000Y-102870000D02*
X132048000Y-103124000D01*
X126238000Y-100561140D02*
X127538290Y-100561140D01*
X127538290Y-100561140D02*
X129228999Y-98870431D01*
X129228999Y-98870431D02*
X129228999Y-96642999D01*
X129228999Y-96642999D02*
X129295999Y-96575999D01*
X129295999Y-96575999D02*
X130832001Y-96575999D01*
X130832001Y-96575999D02*
X131228999Y-96972997D01*
X131228999Y-96972997D02*
X131228999Y-98353999D01*
X131228999Y-98353999D02*
X132064000Y-99189000D01*
X132064000Y-99189000D02*
X132064000Y-99314000D01*
X132814000Y-99314000D02*
X133350000Y-99314000D01*
X133350000Y-99314000D02*
X133858000Y-98806000D01*
X132064000Y-99314000D02*
X132814000Y-99314000D01*
X144018000Y-109490000D02*
X143780000Y-109490000D01*
X143780000Y-109490000D02*
X143330000Y-109040000D01*
X143330000Y-109040000D02*
X142806000Y-109040000D01*
X139446000Y-109040000D02*
X142806000Y-109040000D01*
X139446000Y-107696000D02*
X139446000Y-109040000D01*
X137160000Y-108458000D02*
X137160000Y-109040000D01*
X137922000Y-107696000D02*
X137160000Y-108458000D01*
X145796000Y-109490000D02*
X145671000Y-109490000D01*
X145671000Y-109490000D02*
X144760990Y-108579990D01*
X144760990Y-108579990D02*
X141269792Y-108579990D01*
X141269792Y-108579990D02*
X139750801Y-107060999D01*
X139750801Y-107060999D02*
X138557001Y-107060999D01*
X138557001Y-107060999D02*
X137922000Y-107696000D01*
X134874000Y-108033736D02*
X134874000Y-109040000D01*
X135636000Y-107696000D02*
X135211736Y-107696000D01*
X135211736Y-107696000D02*
X134874000Y-108033736D01*
X135636000Y-107696000D02*
X136982198Y-107696000D01*
X136982198Y-107696000D02*
X138077209Y-106600989D01*
X138077209Y-106600989D02*
X140128989Y-106600989D01*
X140128989Y-106600989D02*
X141647980Y-108119980D01*
X141647980Y-108119980D02*
X146078981Y-108119981D01*
X146078981Y-108119981D02*
X147449000Y-109490000D01*
X147449000Y-109490000D02*
X147574000Y-109490000D01*
X128524000Y-86614000D02*
X129623999Y-85514001D01*
X150522571Y-85514001D02*
X152400000Y-87391430D01*
X129623999Y-85514001D02*
X150522571Y-85514001D01*
X152400000Y-87391430D02*
X152400000Y-88392000D01*
X152908000Y-90424000D02*
X152400000Y-89916000D01*
X152400000Y-89916000D02*
X152400000Y-88392000D01*
X155194000Y-111866000D02*
X153578000Y-111866000D01*
X153578000Y-111866000D02*
X153350000Y-112094000D01*
X150048671Y-102108000D02*
X150048671Y-101919329D01*
X150048671Y-101919329D02*
X150876000Y-101092000D01*
X144399001Y-102997001D02*
X145480999Y-104078999D01*
X145480999Y-104078999D02*
X148077672Y-104078999D01*
X148077672Y-104078999D02*
X150048671Y-102108000D01*
X143510000Y-102362000D02*
X144145001Y-102997001D01*
X144145001Y-102997001D02*
X144399001Y-102997001D01*
X140462000Y-95758000D02*
X140462000Y-95504000D01*
X140462000Y-95504000D02*
X140450000Y-95492000D01*
X138938000Y-95928264D02*
X138938000Y-95758000D01*
X141732000Y-104128000D02*
X141732000Y-104628000D01*
X141732000Y-104628000D02*
X141458000Y-104902000D01*
X141458000Y-104902000D02*
X137922000Y-104902000D01*
X137922000Y-104902000D02*
X137160000Y-104140000D01*
X137160000Y-104140000D02*
X137160000Y-98044000D01*
X137160000Y-98044000D02*
X138938000Y-96266000D01*
X138938000Y-96266000D02*
X138938000Y-95928264D01*
X140950000Y-92250000D02*
X140950000Y-95016000D01*
X140950000Y-95016000D02*
X140462000Y-95504000D01*
X140450000Y-92250000D02*
X140450000Y-95492000D01*
X143510000Y-104140000D02*
X141744000Y-104140000D01*
X141744000Y-104140000D02*
X141732000Y-104128000D01*
X139950000Y-92250000D02*
X139950000Y-95076198D01*
X139950000Y-95076198D02*
X139826999Y-95199199D01*
X139826999Y-95199199D02*
X139750801Y-95199199D01*
X139750801Y-95199199D02*
X139573001Y-95376999D01*
X139573001Y-95376999D02*
X139573001Y-96392999D01*
X139573001Y-96392999D02*
X137620010Y-98345990D01*
X138049001Y-104267001D02*
X139368999Y-104267001D01*
X137620010Y-98345990D02*
X137620010Y-103838010D01*
X137620010Y-103838010D02*
X138049001Y-104267001D01*
X139368999Y-104267001D02*
X139508000Y-104128000D01*
X139508000Y-104128000D02*
X140208000Y-104128000D01*
X143510000Y-103329997D02*
X140506003Y-103329997D01*
X140506003Y-103329997D02*
X140208000Y-103628000D01*
X140208000Y-103628000D02*
X140208000Y-104128000D01*
X131318000Y-112522000D02*
X131617999Y-112222001D01*
X131617999Y-112222001D02*
X131617999Y-111160999D01*
X131617999Y-111160999D02*
X131780998Y-110998000D01*
X130314000Y-107442000D02*
X130314000Y-109792198D01*
X130314000Y-109792198D02*
X130174999Y-109931199D01*
X130174999Y-109931199D02*
X130174999Y-110540801D01*
X130174999Y-110540801D02*
X130632198Y-110998000D01*
X130632198Y-110998000D02*
X131780998Y-110998000D01*
X131780998Y-110998000D02*
X132123999Y-110654999D01*
X132123999Y-110654999D02*
X137760999Y-110654999D01*
X137760999Y-110654999D02*
X139046000Y-111940000D01*
X139046000Y-111940000D02*
X139446000Y-111940000D01*
X132842000Y-112522000D02*
X132842000Y-111240000D01*
X132842000Y-111240000D02*
X133670998Y-111240000D01*
X136760000Y-111940000D02*
X137160000Y-111940000D01*
X133670998Y-111240000D02*
X133755999Y-111154999D01*
X133755999Y-111154999D02*
X135974999Y-111154999D01*
X135974999Y-111154999D02*
X136760000Y-111940000D01*
X134874000Y-111940000D02*
X135274000Y-111940000D01*
X135274000Y-111940000D02*
X136059001Y-112725001D01*
X136059001Y-112725001D02*
X140766999Y-112725001D01*
X140766999Y-112725001D02*
X141478000Y-112014000D01*
X141478000Y-111240000D02*
X141478000Y-112014000D01*
X141478000Y-112014000D02*
X142240000Y-112776000D01*
D39*
X150114000Y-102870000D02*
X149352000Y-103632000D01*
X149352000Y-103632000D02*
X149352000Y-105664000D01*
X150622000Y-102870000D02*
X150114000Y-102870000D01*
X151892000Y-101600000D02*
X150622000Y-102870000D01*
X151892000Y-100584000D02*
X151892000Y-101600000D01*
X150876000Y-99568000D02*
X151892000Y-100584000D01*
X149606000Y-99568000D02*
X150876000Y-99568000D01*
X149844570Y-86106000D02*
X138002000Y-86106000D01*
X138002000Y-86106000D02*
X137043001Y-87064999D01*
X151130000Y-88392000D02*
X151130000Y-87391430D01*
X151130000Y-87391430D02*
X149844570Y-86106000D01*
X128524000Y-94234000D02*
X129874000Y-94234000D01*
X129874000Y-94234000D02*
X137043001Y-87064999D01*
X149606000Y-99568000D02*
X149606000Y-97536000D01*
X149606000Y-97536000D02*
X148844000Y-96774000D01*
X148844000Y-96774000D02*
X148844000Y-91678570D01*
X148844000Y-91678570D02*
X149944999Y-90577571D01*
X144706000Y-101018000D02*
X144526000Y-100838000D01*
X144526000Y-100838000D02*
X143632000Y-100838000D01*
X146050000Y-101018000D02*
X144706000Y-101018000D01*
X146800000Y-99568000D02*
X149606000Y-99568000D01*
X146050000Y-100318000D02*
X146800000Y-99568000D01*
X146050000Y-101018000D02*
X146050000Y-100318000D01*
X149944999Y-90577571D02*
X151130000Y-89392570D01*
X151130000Y-89392570D02*
X151130000Y-88392000D01*
D38*
X143950000Y-92250000D02*
X143950000Y-94302000D01*
X143950000Y-94302000D02*
X143129001Y-95122999D01*
X143129001Y-95122999D02*
X141894734Y-95122999D01*
X141894734Y-95122999D02*
X141683997Y-95333736D01*
X141683997Y-95333736D02*
X141683997Y-95758000D01*
D39*
X134776998Y-113538000D02*
X133075000Y-113538000D01*
X133075000Y-113538000D02*
X131826000Y-114787000D01*
X131826000Y-114787000D02*
X131826000Y-115062000D01*
D38*
X135636000Y-118110000D02*
X134588998Y-118110000D01*
X134588998Y-118110000D02*
X133051000Y-116572002D01*
X133051000Y-116572002D02*
X133051000Y-116562000D01*
X133051000Y-116562000D02*
X131826000Y-115337000D01*
X131826000Y-115337000D02*
X131826000Y-115062000D01*
D39*
X136144000Y-113538000D02*
X134776998Y-113538000D01*
D38*
X146050000Y-121412000D02*
X146349999Y-121711999D01*
X146349999Y-121711999D02*
X149560001Y-121711999D01*
X149560001Y-121711999D02*
X150068001Y-121203999D01*
X150068001Y-121203999D02*
X150368000Y-120904000D01*
X155702000Y-116766000D02*
X155702000Y-117466000D01*
X155702000Y-117466000D02*
X152264000Y-120904000D01*
X152264000Y-120904000D02*
X150368000Y-120904000D01*
X136398000Y-97536000D02*
X136398000Y-97960264D01*
X136398000Y-97960264D02*
X136699990Y-98262254D01*
X136699990Y-98262254D02*
X136699991Y-104330543D01*
X136699991Y-104330543D02*
X137731458Y-105362010D01*
X141949971Y-107659971D02*
X152515971Y-107659971D01*
X137731458Y-105362010D02*
X139652010Y-105362010D01*
X139652010Y-105362010D02*
X141949971Y-107659971D01*
X152515971Y-107659971D02*
X153350000Y-108494000D01*
X153350000Y-108494000D02*
X153350000Y-109294000D01*
X139053000Y-100068000D02*
X139053000Y-100496000D01*
X139053000Y-100496000D02*
X138295000Y-101254000D01*
X138295000Y-101254000D02*
X138295000Y-102989000D01*
X138295000Y-102989000D02*
X138938000Y-103632000D01*
X132514000Y-105410000D02*
X132514000Y-105010000D01*
X132514000Y-105010000D02*
X133638000Y-103886000D01*
X133638000Y-103886000D02*
X134366000Y-103886000D01*
X137668000Y-94234000D02*
X137950000Y-93952000D01*
X137950000Y-93952000D02*
X137950000Y-92250000D01*
X144950000Y-93642000D02*
X145796000Y-94488000D01*
D39*
X147320000Y-96774000D02*
X145796000Y-96774000D01*
X145796000Y-96774000D02*
X144696000Y-96774000D01*
X145796000Y-94488000D02*
X145796000Y-96774000D01*
D38*
X144950000Y-92250000D02*
X144950000Y-93642000D01*
D39*
X148336000Y-98568000D02*
X148336000Y-97790000D01*
X148336000Y-97790000D02*
X147320000Y-96774000D01*
D38*
X142682000Y-98788000D02*
X142682000Y-98838000D01*
D39*
X144696000Y-96774000D02*
X142682000Y-98788000D01*
D38*
X140348000Y-99568000D02*
X141162000Y-99568000D01*
X141162000Y-99568000D02*
X141732000Y-100138000D01*
X141732000Y-100138000D02*
X141732000Y-100838000D01*
X146050000Y-98118000D02*
X146050000Y-98818000D01*
X146050000Y-98818000D02*
X144815001Y-100052999D01*
X144815001Y-100052999D02*
X142467001Y-100052999D01*
X142467001Y-100052999D02*
X141732000Y-100788000D01*
X141732000Y-100788000D02*
X141732000Y-100838000D01*
D40*
G36*
X150685910Y-113095441D02*
X150898110Y-113240431D01*
X151150000Y-113291440D01*
X151520999Y-113291440D01*
X151520999Y-114930999D01*
X151578851Y-115221838D01*
X151743598Y-115468400D01*
X152149357Y-115874159D01*
X152019569Y-116064110D01*
X151968560Y-116316000D01*
X151968560Y-116445243D01*
X151705188Y-115871621D01*
X151232818Y-115433615D01*
X150750944Y-115234025D01*
X150495000Y-115353164D01*
X150495000Y-116713000D01*
X150515000Y-116713000D01*
X150515000Y-116967000D01*
X150495000Y-116967000D01*
X150495000Y-116987000D01*
X150241000Y-116987000D01*
X150241000Y-116967000D01*
X150221000Y-116967000D01*
X150221000Y-116713000D01*
X150241000Y-116713000D01*
X150241000Y-115353164D01*
X149985056Y-115234025D01*
X149503182Y-115433615D01*
X149405602Y-115524097D01*
X149308090Y-115372559D01*
X149095890Y-115227569D01*
X148844000Y-115176560D01*
X146812000Y-115176560D01*
X146576683Y-115220838D01*
X146360559Y-115359910D01*
X146215569Y-115572110D01*
X146164560Y-115824000D01*
X146164560Y-117856000D01*
X146208838Y-118091317D01*
X146347910Y-118307441D01*
X146560110Y-118452431D01*
X146812000Y-118503440D01*
X147197080Y-118503440D01*
X147290599Y-118643401D01*
X147548599Y-118901401D01*
X147795161Y-119066148D01*
X148086000Y-119124000D01*
X152654000Y-119124000D01*
X152944839Y-119066148D01*
X153191401Y-118901401D01*
X153953401Y-118139401D01*
X154070974Y-117963440D01*
X154129758Y-117963440D01*
X151949198Y-120144000D01*
X150930463Y-120144000D01*
X150898327Y-120111808D01*
X150554799Y-119969162D01*
X150182833Y-119968838D01*
X149839057Y-120110883D01*
X149575808Y-120373673D01*
X149433162Y-120717201D01*
X149433121Y-120764077D01*
X149245199Y-120951999D01*
X146871603Y-120951999D01*
X146843117Y-120883057D01*
X146580327Y-120619808D01*
X146236799Y-120477162D01*
X145864833Y-120476838D01*
X145785000Y-120509824D01*
X145785000Y-120041691D01*
X145688327Y-119808302D01*
X145509699Y-119629673D01*
X145276310Y-119533000D01*
X144435750Y-119533000D01*
X144277000Y-119691750D01*
X144277000Y-121291000D01*
X144297000Y-121291000D01*
X144297000Y-121545000D01*
X144277000Y-121545000D01*
X144277000Y-123144250D01*
X144435750Y-123303000D01*
X145276310Y-123303000D01*
X145509699Y-123206327D01*
X145688327Y-123027698D01*
X145785000Y-122794309D01*
X145785000Y-122314366D01*
X145863201Y-122346838D01*
X145958549Y-122346921D01*
X146059160Y-122414147D01*
X146349999Y-122471999D01*
X149560001Y-122471999D01*
X149850840Y-122414147D01*
X150097402Y-122249400D01*
X150507680Y-121839122D01*
X150553167Y-121839162D01*
X150896943Y-121697117D01*
X150930118Y-121664000D01*
X152264000Y-121664000D01*
X152554839Y-121606148D01*
X152801401Y-121441401D01*
X156239401Y-118003401D01*
X156332920Y-117863440D01*
X156552000Y-117863440D01*
X156745000Y-117827125D01*
X156745000Y-121847610D01*
X156594300Y-122605232D01*
X156206146Y-123186146D01*
X155625233Y-123574299D01*
X154867610Y-123725000D01*
X137876580Y-123725000D01*
X138547787Y-123053792D01*
X138547790Y-123053790D01*
X138739633Y-122766675D01*
X138772556Y-122601162D01*
X138807001Y-122428000D01*
X138807000Y-122427995D01*
X138807000Y-121703750D01*
X142515000Y-121703750D01*
X142515000Y-122794309D01*
X142611673Y-123027698D01*
X142790301Y-123206327D01*
X143023690Y-123303000D01*
X143864250Y-123303000D01*
X144023000Y-123144250D01*
X144023000Y-121545000D01*
X142673750Y-121545000D01*
X142515000Y-121703750D01*
X138807000Y-121703750D01*
X138807000Y-121270580D01*
X139563787Y-120513792D01*
X139563790Y-120513790D01*
X139755633Y-120226675D01*
X139792429Y-120041691D01*
X142515000Y-120041691D01*
X142515000Y-121132250D01*
X142673750Y-121291000D01*
X144023000Y-121291000D01*
X144023000Y-119691750D01*
X143864250Y-119533000D01*
X143023690Y-119533000D01*
X142790301Y-119629673D01*
X142611673Y-119808302D01*
X142515000Y-120041691D01*
X139792429Y-120041691D01*
X139823001Y-119888000D01*
X139823000Y-119887995D01*
X139823000Y-118056005D01*
X139823001Y-118056000D01*
X139757160Y-117725001D01*
X139755633Y-117717325D01*
X139687556Y-117615440D01*
X139950000Y-117615440D01*
X140105507Y-117586179D01*
X140250000Y-117615440D01*
X140750000Y-117615440D01*
X140890086Y-117589081D01*
X140923690Y-117603000D01*
X141016250Y-117603000D01*
X141161384Y-117457866D01*
X141172998Y-117450393D01*
X141172998Y-117603000D01*
X141180662Y-117603000D01*
X140980718Y-117802595D01*
X140815189Y-118201233D01*
X140814812Y-118632873D01*
X140979646Y-119031800D01*
X141284595Y-119337282D01*
X141683233Y-119502811D01*
X142114873Y-119503188D01*
X142513800Y-119338354D01*
X142819282Y-119033405D01*
X142984811Y-118634767D01*
X142985188Y-118203127D01*
X142820354Y-117804200D01*
X142515405Y-117498718D01*
X142116767Y-117333189D01*
X142082866Y-117333159D01*
X142088327Y-117327698D01*
X142185000Y-117094309D01*
X142185000Y-116203750D01*
X142515000Y-116203750D01*
X142515000Y-117294309D01*
X142611673Y-117527698D01*
X142790301Y-117706327D01*
X143023690Y-117803000D01*
X143864250Y-117803000D01*
X144023000Y-117644250D01*
X144023000Y-116045000D01*
X144277000Y-116045000D01*
X144277000Y-117644250D01*
X144435750Y-117803000D01*
X145276310Y-117803000D01*
X145509699Y-117706327D01*
X145688327Y-117527698D01*
X145785000Y-117294309D01*
X145785000Y-116203750D01*
X145626250Y-116045000D01*
X144277000Y-116045000D01*
X144023000Y-116045000D01*
X142673750Y-116045000D01*
X142515000Y-116203750D01*
X142185000Y-116203750D01*
X142185000Y-116103750D01*
X142026250Y-115945000D01*
X141425000Y-115945000D01*
X141425000Y-115965000D01*
X141397440Y-115965000D01*
X141397440Y-115671000D01*
X141425000Y-115671000D01*
X141425000Y-115691000D01*
X142026250Y-115691000D01*
X142185000Y-115532250D01*
X142185000Y-114541691D01*
X142135837Y-114423000D01*
X142564163Y-114423000D01*
X142515000Y-114541691D01*
X142515000Y-115632250D01*
X142673750Y-115791000D01*
X144023000Y-115791000D01*
X144023000Y-115771000D01*
X144277000Y-115771000D01*
X144277000Y-115791000D01*
X145626250Y-115791000D01*
X145785000Y-115632250D01*
X145785000Y-114541691D01*
X145735837Y-114423000D01*
X147757995Y-114423000D01*
X147758000Y-114423001D01*
X148040484Y-114366810D01*
X148096675Y-114355633D01*
X148383790Y-114163790D01*
X148383791Y-114163789D01*
X149410139Y-113137440D01*
X150406000Y-113137440D01*
X150641317Y-113093162D01*
X150671815Y-113073537D01*
X150685910Y-113095441D01*
X150685910Y-113095441D01*
G37*
X150685910Y-113095441D02*
X150898110Y-113240431D01*
X151150000Y-113291440D01*
X151520999Y-113291440D01*
X151520999Y-114930999D01*
X151578851Y-115221838D01*
X151743598Y-115468400D01*
X152149357Y-115874159D01*
X152019569Y-116064110D01*
X151968560Y-116316000D01*
X151968560Y-116445243D01*
X151705188Y-115871621D01*
X151232818Y-115433615D01*
X150750944Y-115234025D01*
X150495000Y-115353164D01*
X150495000Y-116713000D01*
X150515000Y-116713000D01*
X150515000Y-116967000D01*
X150495000Y-116967000D01*
X150495000Y-116987000D01*
X150241000Y-116987000D01*
X150241000Y-116967000D01*
X150221000Y-116967000D01*
X150221000Y-116713000D01*
X150241000Y-116713000D01*
X150241000Y-115353164D01*
X149985056Y-115234025D01*
X149503182Y-115433615D01*
X149405602Y-115524097D01*
X149308090Y-115372559D01*
X149095890Y-115227569D01*
X148844000Y-115176560D01*
X146812000Y-115176560D01*
X146576683Y-115220838D01*
X146360559Y-115359910D01*
X146215569Y-115572110D01*
X146164560Y-115824000D01*
X146164560Y-117856000D01*
X146208838Y-118091317D01*
X146347910Y-118307441D01*
X146560110Y-118452431D01*
X146812000Y-118503440D01*
X147197080Y-118503440D01*
X147290599Y-118643401D01*
X147548599Y-118901401D01*
X147795161Y-119066148D01*
X148086000Y-119124000D01*
X152654000Y-119124000D01*
X152944839Y-119066148D01*
X153191401Y-118901401D01*
X153953401Y-118139401D01*
X154070974Y-117963440D01*
X154129758Y-117963440D01*
X151949198Y-120144000D01*
X150930463Y-120144000D01*
X150898327Y-120111808D01*
X150554799Y-119969162D01*
X150182833Y-119968838D01*
X149839057Y-120110883D01*
X149575808Y-120373673D01*
X149433162Y-120717201D01*
X149433121Y-120764077D01*
X149245199Y-120951999D01*
X146871603Y-120951999D01*
X146843117Y-120883057D01*
X146580327Y-120619808D01*
X146236799Y-120477162D01*
X145864833Y-120476838D01*
X145785000Y-120509824D01*
X145785000Y-120041691D01*
X145688327Y-119808302D01*
X145509699Y-119629673D01*
X145276310Y-119533000D01*
X144435750Y-119533000D01*
X144277000Y-119691750D01*
X144277000Y-121291000D01*
X144297000Y-121291000D01*
X144297000Y-121545000D01*
X144277000Y-121545000D01*
X144277000Y-123144250D01*
X144435750Y-123303000D01*
X145276310Y-123303000D01*
X145509699Y-123206327D01*
X145688327Y-123027698D01*
X145785000Y-122794309D01*
X145785000Y-122314366D01*
X145863201Y-122346838D01*
X145958549Y-122346921D01*
X146059160Y-122414147D01*
X146349999Y-122471999D01*
X149560001Y-122471999D01*
X149850840Y-122414147D01*
X150097402Y-122249400D01*
X150507680Y-121839122D01*
X150553167Y-121839162D01*
X150896943Y-121697117D01*
X150930118Y-121664000D01*
X152264000Y-121664000D01*
X152554839Y-121606148D01*
X152801401Y-121441401D01*
X156239401Y-118003401D01*
X156332920Y-117863440D01*
X156552000Y-117863440D01*
X156745000Y-117827125D01*
X156745000Y-121847610D01*
X156594300Y-122605232D01*
X156206146Y-123186146D01*
X155625233Y-123574299D01*
X154867610Y-123725000D01*
X137876580Y-123725000D01*
X138547787Y-123053792D01*
X138547790Y-123053790D01*
X138739633Y-122766675D01*
X138772556Y-122601162D01*
X138807001Y-122428000D01*
X138807000Y-122427995D01*
X138807000Y-121703750D01*
X142515000Y-121703750D01*
X142515000Y-122794309D01*
X142611673Y-123027698D01*
X142790301Y-123206327D01*
X143023690Y-123303000D01*
X143864250Y-123303000D01*
X144023000Y-123144250D01*
X144023000Y-121545000D01*
X142673750Y-121545000D01*
X142515000Y-121703750D01*
X138807000Y-121703750D01*
X138807000Y-121270580D01*
X139563787Y-120513792D01*
X139563790Y-120513790D01*
X139755633Y-120226675D01*
X139792429Y-120041691D01*
X142515000Y-120041691D01*
X142515000Y-121132250D01*
X142673750Y-121291000D01*
X144023000Y-121291000D01*
X144023000Y-119691750D01*
X143864250Y-119533000D01*
X143023690Y-119533000D01*
X142790301Y-119629673D01*
X142611673Y-119808302D01*
X142515000Y-120041691D01*
X139792429Y-120041691D01*
X139823001Y-119888000D01*
X139823000Y-119887995D01*
X139823000Y-118056005D01*
X139823001Y-118056000D01*
X139757160Y-117725001D01*
X139755633Y-117717325D01*
X139687556Y-117615440D01*
X139950000Y-117615440D01*
X140105507Y-117586179D01*
X140250000Y-117615440D01*
X140750000Y-117615440D01*
X140890086Y-117589081D01*
X140923690Y-117603000D01*
X141016250Y-117603000D01*
X141161384Y-117457866D01*
X141172998Y-117450393D01*
X141172998Y-117603000D01*
X141180662Y-117603000D01*
X140980718Y-117802595D01*
X140815189Y-118201233D01*
X140814812Y-118632873D01*
X140979646Y-119031800D01*
X141284595Y-119337282D01*
X141683233Y-119502811D01*
X142114873Y-119503188D01*
X142513800Y-119338354D01*
X142819282Y-119033405D01*
X142984811Y-118634767D01*
X142985188Y-118203127D01*
X142820354Y-117804200D01*
X142515405Y-117498718D01*
X142116767Y-117333189D01*
X142082866Y-117333159D01*
X142088327Y-117327698D01*
X142185000Y-117094309D01*
X142185000Y-116203750D01*
X142515000Y-116203750D01*
X142515000Y-117294309D01*
X142611673Y-117527698D01*
X142790301Y-117706327D01*
X143023690Y-117803000D01*
X143864250Y-117803000D01*
X144023000Y-117644250D01*
X144023000Y-116045000D01*
X144277000Y-116045000D01*
X144277000Y-117644250D01*
X144435750Y-117803000D01*
X145276310Y-117803000D01*
X145509699Y-117706327D01*
X145688327Y-117527698D01*
X145785000Y-117294309D01*
X145785000Y-116203750D01*
X145626250Y-116045000D01*
X144277000Y-116045000D01*
X144023000Y-116045000D01*
X142673750Y-116045000D01*
X142515000Y-116203750D01*
X142185000Y-116203750D01*
X142185000Y-116103750D01*
X142026250Y-115945000D01*
X141425000Y-115945000D01*
X141425000Y-115965000D01*
X141397440Y-115965000D01*
X141397440Y-115671000D01*
X141425000Y-115671000D01*
X141425000Y-115691000D01*
X142026250Y-115691000D01*
X142185000Y-115532250D01*
X142185000Y-114541691D01*
X142135837Y-114423000D01*
X142564163Y-114423000D01*
X142515000Y-114541691D01*
X142515000Y-115632250D01*
X142673750Y-115791000D01*
X144023000Y-115791000D01*
X144023000Y-115771000D01*
X144277000Y-115771000D01*
X144277000Y-115791000D01*
X145626250Y-115791000D01*
X145785000Y-115632250D01*
X145785000Y-114541691D01*
X145735837Y-114423000D01*
X147757995Y-114423000D01*
X147758000Y-114423001D01*
X148040484Y-114366810D01*
X148096675Y-114355633D01*
X148383790Y-114163790D01*
X148383791Y-114163789D01*
X149410139Y-113137440D01*
X150406000Y-113137440D01*
X150641317Y-113093162D01*
X150671815Y-113073537D01*
X150685910Y-113095441D01*
G36*
X132971846Y-77592257D02*
X133023291Y-77610691D01*
X133068728Y-77641051D01*
X133157047Y-77658619D01*
X133241820Y-77688995D01*
X133296402Y-77686339D01*
X133350000Y-77697000D01*
X146050000Y-77697000D01*
X146103598Y-77686339D01*
X146158180Y-77688995D01*
X146242953Y-77658619D01*
X146331272Y-77641051D01*
X146376709Y-77610691D01*
X146428154Y-77592257D01*
X147523583Y-76935000D01*
X154867610Y-76935000D01*
X155625233Y-77085701D01*
X156206146Y-77473854D01*
X156594300Y-78054768D01*
X156745000Y-78812390D01*
X156745000Y-112808624D01*
X156678310Y-112781000D01*
X156494027Y-112781000D01*
X156495441Y-112780090D01*
X156640431Y-112567890D01*
X156691440Y-112316000D01*
X156691440Y-111416000D01*
X156647162Y-111180683D01*
X156508090Y-110964559D01*
X156295890Y-110819569D01*
X156044000Y-110768560D01*
X154344000Y-110768560D01*
X154108683Y-110812838D01*
X153899924Y-110947171D01*
X153650000Y-110896560D01*
X153050000Y-110896560D01*
X153035871Y-110899219D01*
X152983147Y-110634160D01*
X152867948Y-110461752D01*
X152879589Y-110456931D01*
X153050000Y-110491440D01*
X153650000Y-110491440D01*
X153885317Y-110447162D01*
X154101441Y-110308090D01*
X154246431Y-110095890D01*
X154255521Y-110051000D01*
X154908250Y-110051000D01*
X155067000Y-109892250D01*
X155067000Y-109093000D01*
X155321000Y-109093000D01*
X155321000Y-109892250D01*
X155479750Y-110051000D01*
X156170310Y-110051000D01*
X156403699Y-109954327D01*
X156582327Y-109775698D01*
X156679000Y-109542309D01*
X156679000Y-109251750D01*
X156520250Y-109093000D01*
X155321000Y-109093000D01*
X155067000Y-109093000D01*
X155047000Y-109093000D01*
X155047000Y-108839000D01*
X155067000Y-108839000D01*
X155067000Y-108039750D01*
X155321000Y-108039750D01*
X155321000Y-108839000D01*
X156520250Y-108839000D01*
X156679000Y-108680250D01*
X156679000Y-108389691D01*
X156582327Y-108156302D01*
X156403699Y-107977673D01*
X156170310Y-107881000D01*
X155479750Y-107881000D01*
X155321000Y-108039750D01*
X155067000Y-108039750D01*
X154908250Y-107881000D01*
X154217690Y-107881000D01*
X153984301Y-107977673D01*
X153934655Y-108027319D01*
X153887401Y-107956599D01*
X153479802Y-107549000D01*
X154116250Y-107549000D01*
X154275000Y-107390250D01*
X154275000Y-105791000D01*
X154529000Y-105791000D01*
X154529000Y-107390250D01*
X154687750Y-107549000D01*
X155803309Y-107549000D01*
X156036698Y-107452327D01*
X156215327Y-107273699D01*
X156312000Y-107040310D01*
X156312000Y-105949750D01*
X156153250Y-105791000D01*
X154529000Y-105791000D01*
X154275000Y-105791000D01*
X152650750Y-105791000D01*
X152492000Y-105949750D01*
X152492000Y-106899971D01*
X151274440Y-106899971D01*
X151274440Y-104414000D01*
X151250674Y-104287690D01*
X152492000Y-104287690D01*
X152492000Y-105378250D01*
X152650750Y-105537000D01*
X154275000Y-105537000D01*
X154275000Y-103937750D01*
X154529000Y-103937750D01*
X154529000Y-105537000D01*
X156153250Y-105537000D01*
X156312000Y-105378250D01*
X156312000Y-104287690D01*
X156215327Y-104054301D01*
X156036698Y-103875673D01*
X155803309Y-103779000D01*
X154687750Y-103779000D01*
X154529000Y-103937750D01*
X154275000Y-103937750D01*
X154116250Y-103779000D01*
X153000691Y-103779000D01*
X152767302Y-103875673D01*
X152588673Y-104054301D01*
X152492000Y-104287690D01*
X151250674Y-104287690D01*
X151230162Y-104178683D01*
X151091090Y-103962559D01*
X150878890Y-103817569D01*
X150627000Y-103766560D01*
X150469019Y-103766560D01*
X150480579Y-103755000D01*
X150621995Y-103755000D01*
X150622000Y-103755001D01*
X150904484Y-103698810D01*
X150960675Y-103687633D01*
X151247790Y-103495790D01*
X151247791Y-103495789D01*
X152517787Y-102225792D01*
X152517790Y-102225790D01*
X152709633Y-101938675D01*
X152719084Y-101891162D01*
X152777001Y-101600000D01*
X152777000Y-101599995D01*
X152777000Y-100584005D01*
X152777001Y-100584000D01*
X152709633Y-100245326D01*
X152709633Y-100245325D01*
X152517790Y-99958210D01*
X152517787Y-99958208D01*
X151593020Y-99033440D01*
X151980000Y-99033440D01*
X152215317Y-98989162D01*
X152431441Y-98850090D01*
X152576431Y-98637890D01*
X152599555Y-98523699D01*
X152788642Y-98731183D01*
X153313108Y-98977486D01*
X153543000Y-98856819D01*
X153543000Y-97663000D01*
X153797000Y-97663000D01*
X153797000Y-98856819D01*
X154026892Y-98977486D01*
X154551358Y-98731183D01*
X154941645Y-98302924D01*
X155111476Y-97892890D01*
X154990155Y-97663000D01*
X153797000Y-97663000D01*
X153543000Y-97663000D01*
X153523000Y-97663000D01*
X153523000Y-97409000D01*
X153543000Y-97409000D01*
X153543000Y-97389000D01*
X153797000Y-97389000D01*
X153797000Y-97409000D01*
X154990155Y-97409000D01*
X155111476Y-97179110D01*
X154941645Y-96769076D01*
X154551358Y-96340817D01*
X154408447Y-96273702D01*
X154749147Y-96046054D01*
X155071054Y-95564285D01*
X155184093Y-94996000D01*
X155071054Y-94427715D01*
X154749147Y-93945946D01*
X154419974Y-93726000D01*
X154749147Y-93506054D01*
X155071054Y-93024285D01*
X155184093Y-92456000D01*
X155071054Y-91887715D01*
X154749147Y-91405946D01*
X154267378Y-91084039D01*
X153699093Y-90971000D01*
X153683490Y-90971000D01*
X153700192Y-90954327D01*
X153842838Y-90610799D01*
X153843162Y-90238833D01*
X153701117Y-89895057D01*
X153471152Y-89664691D01*
X153543000Y-89610068D01*
X153543000Y-88519000D01*
X153797000Y-88519000D01*
X153797000Y-89610068D01*
X153963935Y-89736981D01*
X154347111Y-89549706D01*
X154623420Y-89225373D01*
X154754580Y-88819990D01*
X154754580Y-88519000D01*
X153797000Y-88519000D01*
X153543000Y-88519000D01*
X153523000Y-88519000D01*
X153523000Y-88265000D01*
X153543000Y-88265000D01*
X153543000Y-87173932D01*
X153797000Y-87173932D01*
X153797000Y-88265000D01*
X154754580Y-88265000D01*
X154754580Y-87964010D01*
X154623420Y-87558627D01*
X154347111Y-87234294D01*
X153963935Y-87047019D01*
X153797000Y-87173932D01*
X153543000Y-87173932D01*
X153376065Y-87047019D01*
X153116706Y-87173779D01*
X153102148Y-87100591D01*
X152937401Y-86854029D01*
X151059972Y-84976600D01*
X150813410Y-84811853D01*
X150522571Y-84754001D01*
X129623999Y-84754001D01*
X129333160Y-84811853D01*
X129109297Y-84961432D01*
X128524000Y-84845009D01*
X127860044Y-84977078D01*
X127297170Y-85353179D01*
X127216029Y-85474615D01*
X127179162Y-85278683D01*
X127040090Y-85062559D01*
X126827890Y-84917569D01*
X126576000Y-84866560D01*
X124376000Y-84866560D01*
X124140683Y-84910838D01*
X123924559Y-85049910D01*
X123779569Y-85262110D01*
X123728560Y-85514000D01*
X123728560Y-87714000D01*
X123772838Y-87949317D01*
X123911910Y-88165441D01*
X124124110Y-88310431D01*
X124376000Y-88361440D01*
X126576000Y-88361440D01*
X126811317Y-88317162D01*
X127027441Y-88178090D01*
X127172431Y-87965890D01*
X127215596Y-87752737D01*
X127297170Y-87874821D01*
X127860044Y-88250922D01*
X128524000Y-88382991D01*
X129187956Y-88250922D01*
X129750830Y-87874821D01*
X130015000Y-87479463D01*
X130015000Y-87864250D01*
X130173750Y-88023000D01*
X131773000Y-88023000D01*
X131773000Y-86923750D01*
X132027000Y-86923750D01*
X132027000Y-88023000D01*
X133626250Y-88023000D01*
X133785000Y-87864250D01*
X133785000Y-87273690D01*
X133688327Y-87040301D01*
X133509698Y-86861673D01*
X133276309Y-86765000D01*
X132185750Y-86765000D01*
X132027000Y-86923750D01*
X131773000Y-86923750D01*
X131614250Y-86765000D01*
X130523691Y-86765000D01*
X130290302Y-86861673D01*
X130198170Y-86953805D01*
X130259000Y-86647991D01*
X130259000Y-86580009D01*
X130198131Y-86274001D01*
X136582419Y-86274001D01*
X136417211Y-86439209D01*
X136417209Y-86439212D01*
X133753102Y-89103319D01*
X133785000Y-89026310D01*
X133785000Y-88435750D01*
X133626250Y-88277000D01*
X132027000Y-88277000D01*
X132027000Y-89376250D01*
X132185750Y-89535000D01*
X133276309Y-89535000D01*
X133353319Y-89503101D01*
X130121672Y-92734748D01*
X130088090Y-92682559D01*
X129875890Y-92537569D01*
X129624000Y-92486560D01*
X127424000Y-92486560D01*
X127188683Y-92530838D01*
X126972559Y-92669910D01*
X126827569Y-92882110D01*
X126784404Y-93095263D01*
X126702830Y-92973179D01*
X126139956Y-92597078D01*
X125476000Y-92465009D01*
X124812044Y-92597078D01*
X124249170Y-92973179D01*
X123873069Y-93536053D01*
X123741000Y-94200009D01*
X123741000Y-94267991D01*
X123815565Y-94642855D01*
X123750211Y-94708209D01*
X123558368Y-94995324D01*
X123558368Y-94995325D01*
X123491000Y-95333999D01*
X123491001Y-95334004D01*
X123491001Y-113255419D01*
X123326210Y-113420210D01*
X123134367Y-113707325D01*
X123123190Y-113763516D01*
X123066999Y-114046000D01*
X123067000Y-114046005D01*
X123067000Y-117601995D01*
X123066999Y-117602000D01*
X123110196Y-117819161D01*
X123134367Y-117940675D01*
X123244833Y-118106000D01*
X123326210Y-118227790D01*
X128823421Y-123725000D01*
X124532390Y-123725000D01*
X123774768Y-123574300D01*
X123193854Y-123186146D01*
X122805701Y-122605233D01*
X122655000Y-121847610D01*
X122655000Y-88435750D01*
X130015000Y-88435750D01*
X130015000Y-89026310D01*
X130111673Y-89259699D01*
X130290302Y-89438327D01*
X130523691Y-89535000D01*
X131614250Y-89535000D01*
X131773000Y-89376250D01*
X131773000Y-88277000D01*
X130173750Y-88277000D01*
X130015000Y-88435750D01*
X122655000Y-88435750D01*
X122655000Y-80571442D01*
X122894509Y-80571442D01*
X123325202Y-81613801D01*
X124122005Y-82411995D01*
X125163610Y-82844507D01*
X126291442Y-82845491D01*
X127333801Y-82414798D01*
X128131995Y-81617995D01*
X128564507Y-80576390D01*
X128564511Y-80571442D01*
X150834509Y-80571442D01*
X151265202Y-81613801D01*
X152062005Y-82411995D01*
X153103610Y-82844507D01*
X154231442Y-82845491D01*
X155273801Y-82414798D01*
X156071995Y-81617995D01*
X156504507Y-80576390D01*
X156505491Y-79448558D01*
X156074798Y-78406199D01*
X155277995Y-77608005D01*
X154236390Y-77175493D01*
X153108558Y-77174509D01*
X152066199Y-77605202D01*
X151268005Y-78402005D01*
X150835493Y-79443610D01*
X150834509Y-80571442D01*
X128564511Y-80571442D01*
X128565491Y-79448558D01*
X128134798Y-78406199D01*
X127337995Y-77608005D01*
X126296390Y-77175493D01*
X125168558Y-77174509D01*
X124126199Y-77605202D01*
X123328005Y-78402005D01*
X122895493Y-79443610D01*
X122894509Y-80571442D01*
X122655000Y-80571442D01*
X122655000Y-78812390D01*
X122805701Y-78054767D01*
X123193854Y-77473854D01*
X123774768Y-77085700D01*
X124532390Y-76935000D01*
X131876418Y-76935000D01*
X132971846Y-77592257D01*
X132971846Y-77592257D01*
G37*
X132971846Y-77592257D02*
X133023291Y-77610691D01*
X133068728Y-77641051D01*
X133157047Y-77658619D01*
X133241820Y-77688995D01*
X133296402Y-77686339D01*
X133350000Y-77697000D01*
X146050000Y-77697000D01*
X146103598Y-77686339D01*
X146158180Y-77688995D01*
X146242953Y-77658619D01*
X146331272Y-77641051D01*
X146376709Y-77610691D01*
X146428154Y-77592257D01*
X147523583Y-76935000D01*
X154867610Y-76935000D01*
X155625233Y-77085701D01*
X156206146Y-77473854D01*
X156594300Y-78054768D01*
X156745000Y-78812390D01*
X156745000Y-112808624D01*
X156678310Y-112781000D01*
X156494027Y-112781000D01*
X156495441Y-112780090D01*
X156640431Y-112567890D01*
X156691440Y-112316000D01*
X156691440Y-111416000D01*
X156647162Y-111180683D01*
X156508090Y-110964559D01*
X156295890Y-110819569D01*
X156044000Y-110768560D01*
X154344000Y-110768560D01*
X154108683Y-110812838D01*
X153899924Y-110947171D01*
X153650000Y-110896560D01*
X153050000Y-110896560D01*
X153035871Y-110899219D01*
X152983147Y-110634160D01*
X152867948Y-110461752D01*
X152879589Y-110456931D01*
X153050000Y-110491440D01*
X153650000Y-110491440D01*
X153885317Y-110447162D01*
X154101441Y-110308090D01*
X154246431Y-110095890D01*
X154255521Y-110051000D01*
X154908250Y-110051000D01*
X155067000Y-109892250D01*
X155067000Y-109093000D01*
X155321000Y-109093000D01*
X155321000Y-109892250D01*
X155479750Y-110051000D01*
X156170310Y-110051000D01*
X156403699Y-109954327D01*
X156582327Y-109775698D01*
X156679000Y-109542309D01*
X156679000Y-109251750D01*
X156520250Y-109093000D01*
X155321000Y-109093000D01*
X155067000Y-109093000D01*
X155047000Y-109093000D01*
X155047000Y-108839000D01*
X155067000Y-108839000D01*
X155067000Y-108039750D01*
X155321000Y-108039750D01*
X155321000Y-108839000D01*
X156520250Y-108839000D01*
X156679000Y-108680250D01*
X156679000Y-108389691D01*
X156582327Y-108156302D01*
X156403699Y-107977673D01*
X156170310Y-107881000D01*
X155479750Y-107881000D01*
X155321000Y-108039750D01*
X155067000Y-108039750D01*
X154908250Y-107881000D01*
X154217690Y-107881000D01*
X153984301Y-107977673D01*
X153934655Y-108027319D01*
X153887401Y-107956599D01*
X153479802Y-107549000D01*
X154116250Y-107549000D01*
X154275000Y-107390250D01*
X154275000Y-105791000D01*
X154529000Y-105791000D01*
X154529000Y-107390250D01*
X154687750Y-107549000D01*
X155803309Y-107549000D01*
X156036698Y-107452327D01*
X156215327Y-107273699D01*
X156312000Y-107040310D01*
X156312000Y-105949750D01*
X156153250Y-105791000D01*
X154529000Y-105791000D01*
X154275000Y-105791000D01*
X152650750Y-105791000D01*
X152492000Y-105949750D01*
X152492000Y-106899971D01*
X151274440Y-106899971D01*
X151274440Y-104414000D01*
X151250674Y-104287690D01*
X152492000Y-104287690D01*
X152492000Y-105378250D01*
X152650750Y-105537000D01*
X154275000Y-105537000D01*
X154275000Y-103937750D01*
X154529000Y-103937750D01*
X154529000Y-105537000D01*
X156153250Y-105537000D01*
X156312000Y-105378250D01*
X156312000Y-104287690D01*
X156215327Y-104054301D01*
X156036698Y-103875673D01*
X155803309Y-103779000D01*
X154687750Y-103779000D01*
X154529000Y-103937750D01*
X154275000Y-103937750D01*
X154116250Y-103779000D01*
X153000691Y-103779000D01*
X152767302Y-103875673D01*
X152588673Y-104054301D01*
X152492000Y-104287690D01*
X151250674Y-104287690D01*
X151230162Y-104178683D01*
X151091090Y-103962559D01*
X150878890Y-103817569D01*
X150627000Y-103766560D01*
X150469019Y-103766560D01*
X150480579Y-103755000D01*
X150621995Y-103755000D01*
X150622000Y-103755001D01*
X150904484Y-103698810D01*
X150960675Y-103687633D01*
X151247790Y-103495790D01*
X151247791Y-103495789D01*
X152517787Y-102225792D01*
X152517790Y-102225790D01*
X152709633Y-101938675D01*
X152719084Y-101891162D01*
X152777001Y-101600000D01*
X152777000Y-101599995D01*
X152777000Y-100584005D01*
X152777001Y-100584000D01*
X152709633Y-100245326D01*
X152709633Y-100245325D01*
X152517790Y-99958210D01*
X152517787Y-99958208D01*
X151593020Y-99033440D01*
X151980000Y-99033440D01*
X152215317Y-98989162D01*
X152431441Y-98850090D01*
X152576431Y-98637890D01*
X152599555Y-98523699D01*
X152788642Y-98731183D01*
X153313108Y-98977486D01*
X153543000Y-98856819D01*
X153543000Y-97663000D01*
X153797000Y-97663000D01*
X153797000Y-98856819D01*
X154026892Y-98977486D01*
X154551358Y-98731183D01*
X154941645Y-98302924D01*
X155111476Y-97892890D01*
X154990155Y-97663000D01*
X153797000Y-97663000D01*
X153543000Y-97663000D01*
X153523000Y-97663000D01*
X153523000Y-97409000D01*
X153543000Y-97409000D01*
X153543000Y-97389000D01*
X153797000Y-97389000D01*
X153797000Y-97409000D01*
X154990155Y-97409000D01*
X155111476Y-97179110D01*
X154941645Y-96769076D01*
X154551358Y-96340817D01*
X154408447Y-96273702D01*
X154749147Y-96046054D01*
X155071054Y-95564285D01*
X155184093Y-94996000D01*
X155071054Y-94427715D01*
X154749147Y-93945946D01*
X154419974Y-93726000D01*
X154749147Y-93506054D01*
X155071054Y-93024285D01*
X155184093Y-92456000D01*
X155071054Y-91887715D01*
X154749147Y-91405946D01*
X154267378Y-91084039D01*
X153699093Y-90971000D01*
X153683490Y-90971000D01*
X153700192Y-90954327D01*
X153842838Y-90610799D01*
X153843162Y-90238833D01*
X153701117Y-89895057D01*
X153471152Y-89664691D01*
X153543000Y-89610068D01*
X153543000Y-88519000D01*
X153797000Y-88519000D01*
X153797000Y-89610068D01*
X153963935Y-89736981D01*
X154347111Y-89549706D01*
X154623420Y-89225373D01*
X154754580Y-88819990D01*
X154754580Y-88519000D01*
X153797000Y-88519000D01*
X153543000Y-88519000D01*
X153523000Y-88519000D01*
X153523000Y-88265000D01*
X153543000Y-88265000D01*
X153543000Y-87173932D01*
X153797000Y-87173932D01*
X153797000Y-88265000D01*
X154754580Y-88265000D01*
X154754580Y-87964010D01*
X154623420Y-87558627D01*
X154347111Y-87234294D01*
X153963935Y-87047019D01*
X153797000Y-87173932D01*
X153543000Y-87173932D01*
X153376065Y-87047019D01*
X153116706Y-87173779D01*
X153102148Y-87100591D01*
X152937401Y-86854029D01*
X151059972Y-84976600D01*
X150813410Y-84811853D01*
X150522571Y-84754001D01*
X129623999Y-84754001D01*
X129333160Y-84811853D01*
X129109297Y-84961432D01*
X128524000Y-84845009D01*
X127860044Y-84977078D01*
X127297170Y-85353179D01*
X127216029Y-85474615D01*
X127179162Y-85278683D01*
X127040090Y-85062559D01*
X126827890Y-84917569D01*
X126576000Y-84866560D01*
X124376000Y-84866560D01*
X124140683Y-84910838D01*
X123924559Y-85049910D01*
X123779569Y-85262110D01*
X123728560Y-85514000D01*
X123728560Y-87714000D01*
X123772838Y-87949317D01*
X123911910Y-88165441D01*
X124124110Y-88310431D01*
X124376000Y-88361440D01*
X126576000Y-88361440D01*
X126811317Y-88317162D01*
X127027441Y-88178090D01*
X127172431Y-87965890D01*
X127215596Y-87752737D01*
X127297170Y-87874821D01*
X127860044Y-88250922D01*
X128524000Y-88382991D01*
X129187956Y-88250922D01*
X129750830Y-87874821D01*
X130015000Y-87479463D01*
X130015000Y-87864250D01*
X130173750Y-88023000D01*
X131773000Y-88023000D01*
X131773000Y-86923750D01*
X132027000Y-86923750D01*
X132027000Y-88023000D01*
X133626250Y-88023000D01*
X133785000Y-87864250D01*
X133785000Y-87273690D01*
X133688327Y-87040301D01*
X133509698Y-86861673D01*
X133276309Y-86765000D01*
X132185750Y-86765000D01*
X132027000Y-86923750D01*
X131773000Y-86923750D01*
X131614250Y-86765000D01*
X130523691Y-86765000D01*
X130290302Y-86861673D01*
X130198170Y-86953805D01*
X130259000Y-86647991D01*
X130259000Y-86580009D01*
X130198131Y-86274001D01*
X136582419Y-86274001D01*
X136417211Y-86439209D01*
X136417209Y-86439212D01*
X133753102Y-89103319D01*
X133785000Y-89026310D01*
X133785000Y-88435750D01*
X133626250Y-88277000D01*
X132027000Y-88277000D01*
X132027000Y-89376250D01*
X132185750Y-89535000D01*
X133276309Y-89535000D01*
X133353319Y-89503101D01*
X130121672Y-92734748D01*
X130088090Y-92682559D01*
X129875890Y-92537569D01*
X129624000Y-92486560D01*
X127424000Y-92486560D01*
X127188683Y-92530838D01*
X126972559Y-92669910D01*
X126827569Y-92882110D01*
X126784404Y-93095263D01*
X126702830Y-92973179D01*
X126139956Y-92597078D01*
X125476000Y-92465009D01*
X124812044Y-92597078D01*
X124249170Y-92973179D01*
X123873069Y-93536053D01*
X123741000Y-94200009D01*
X123741000Y-94267991D01*
X123815565Y-94642855D01*
X123750211Y-94708209D01*
X123558368Y-94995324D01*
X123558368Y-94995325D01*
X123491000Y-95333999D01*
X123491001Y-95334004D01*
X123491001Y-113255419D01*
X123326210Y-113420210D01*
X123134367Y-113707325D01*
X123123190Y-113763516D01*
X123066999Y-114046000D01*
X123067000Y-114046005D01*
X123067000Y-117601995D01*
X123066999Y-117602000D01*
X123110196Y-117819161D01*
X123134367Y-117940675D01*
X123244833Y-118106000D01*
X123326210Y-118227790D01*
X128823421Y-123725000D01*
X124532390Y-123725000D01*
X123774768Y-123574300D01*
X123193854Y-123186146D01*
X122805701Y-122605233D01*
X122655000Y-121847610D01*
X122655000Y-88435750D01*
X130015000Y-88435750D01*
X130015000Y-89026310D01*
X130111673Y-89259699D01*
X130290302Y-89438327D01*
X130523691Y-89535000D01*
X131614250Y-89535000D01*
X131773000Y-89376250D01*
X131773000Y-88277000D01*
X130173750Y-88277000D01*
X130015000Y-88435750D01*
X122655000Y-88435750D01*
X122655000Y-80571442D01*
X122894509Y-80571442D01*
X123325202Y-81613801D01*
X124122005Y-82411995D01*
X125163610Y-82844507D01*
X126291442Y-82845491D01*
X127333801Y-82414798D01*
X128131995Y-81617995D01*
X128564507Y-80576390D01*
X128564511Y-80571442D01*
X150834509Y-80571442D01*
X151265202Y-81613801D01*
X152062005Y-82411995D01*
X153103610Y-82844507D01*
X154231442Y-82845491D01*
X155273801Y-82414798D01*
X156071995Y-81617995D01*
X156504507Y-80576390D01*
X156505491Y-79448558D01*
X156074798Y-78406199D01*
X155277995Y-77608005D01*
X154236390Y-77175493D01*
X153108558Y-77174509D01*
X152066199Y-77605202D01*
X151268005Y-78402005D01*
X150835493Y-79443610D01*
X150834509Y-80571442D01*
X128564511Y-80571442D01*
X128565491Y-79448558D01*
X128134798Y-78406199D01*
X127337995Y-77608005D01*
X126296390Y-77175493D01*
X125168558Y-77174509D01*
X124126199Y-77605202D01*
X123328005Y-78402005D01*
X122895493Y-79443610D01*
X122894509Y-80571442D01*
X122655000Y-80571442D01*
X122655000Y-78812390D01*
X122805701Y-78054767D01*
X123193854Y-77473854D01*
X123774768Y-77085700D01*
X124532390Y-76935000D01*
X131876418Y-76935000D01*
X132971846Y-77592257D01*
G36*
X129554000Y-109518912D02*
X129472851Y-109640360D01*
X129414999Y-109931199D01*
X129414999Y-110540801D01*
X129472851Y-110831640D01*
X129637598Y-111078202D01*
X130094797Y-111535401D01*
X130341359Y-111700148D01*
X130632198Y-111758000D01*
X130759889Y-111758000D01*
X130525808Y-111991673D01*
X130383162Y-112335201D01*
X130382838Y-112707167D01*
X130524883Y-113050943D01*
X130671936Y-113198253D01*
X130615683Y-113208838D01*
X130399559Y-113347910D01*
X130304010Y-113487750D01*
X130289327Y-113452301D01*
X130110698Y-113273673D01*
X129877309Y-113177000D01*
X129061750Y-113177000D01*
X128903000Y-113335750D01*
X128903000Y-114935000D01*
X128923000Y-114935000D01*
X128923000Y-115189000D01*
X128903000Y-115189000D01*
X128903000Y-115209000D01*
X128649000Y-115209000D01*
X128649000Y-115189000D01*
X127324750Y-115189000D01*
X127166000Y-115347750D01*
X127166000Y-115500420D01*
X126826744Y-115161164D01*
X126777117Y-115041057D01*
X126514327Y-114777808D01*
X126170799Y-114635162D01*
X125798833Y-114634838D01*
X125455057Y-114776883D01*
X125191808Y-115039673D01*
X125049162Y-115383201D01*
X125048838Y-115755167D01*
X125190883Y-116098943D01*
X125453673Y-116362192D01*
X125574986Y-116412566D01*
X126628208Y-117465787D01*
X126628210Y-117465790D01*
X126890210Y-117640852D01*
X126915325Y-117657633D01*
X127167000Y-117707695D01*
X127167000Y-118332250D01*
X127325750Y-118491000D01*
X128650000Y-118491000D01*
X128650000Y-118471000D01*
X128904000Y-118471000D01*
X128904000Y-118491000D01*
X128924000Y-118491000D01*
X128924000Y-118745000D01*
X128904000Y-118745000D01*
X128904000Y-120344250D01*
X129062750Y-120503000D01*
X129878309Y-120503000D01*
X130111698Y-120406327D01*
X130290327Y-120227699D01*
X130305423Y-120191253D01*
X130387910Y-120319441D01*
X130600110Y-120464431D01*
X130852000Y-120515440D01*
X132590000Y-120515440D01*
X132590000Y-121103537D01*
X132557808Y-121135673D01*
X132415162Y-121479201D01*
X132414838Y-121851167D01*
X132556883Y-122194943D01*
X132666748Y-122305000D01*
X129906579Y-122305000D01*
X128104579Y-120503000D01*
X128491250Y-120503000D01*
X128650000Y-120344250D01*
X128650000Y-118745000D01*
X127325750Y-118745000D01*
X127167000Y-118903750D01*
X127167000Y-119565420D01*
X124837000Y-117235420D01*
X124837000Y-114412579D01*
X125001788Y-114247791D01*
X125001791Y-114247789D01*
X125193634Y-113960674D01*
X125210343Y-113876674D01*
X125244163Y-113706650D01*
X127166000Y-113706650D01*
X127166000Y-114776250D01*
X127324750Y-114935000D01*
X128649000Y-114935000D01*
X128649000Y-113335750D01*
X128490250Y-113177000D01*
X127911877Y-113177000D01*
X127935730Y-113059210D01*
X127935730Y-110889780D01*
X128075691Y-110796261D01*
X129554000Y-109317952D01*
X129554000Y-109518912D01*
X129554000Y-109518912D01*
G37*
X129554000Y-109518912D02*
X129472851Y-109640360D01*
X129414999Y-109931199D01*
X129414999Y-110540801D01*
X129472851Y-110831640D01*
X129637598Y-111078202D01*
X130094797Y-111535401D01*
X130341359Y-111700148D01*
X130632198Y-111758000D01*
X130759889Y-111758000D01*
X130525808Y-111991673D01*
X130383162Y-112335201D01*
X130382838Y-112707167D01*
X130524883Y-113050943D01*
X130671936Y-113198253D01*
X130615683Y-113208838D01*
X130399559Y-113347910D01*
X130304010Y-113487750D01*
X130289327Y-113452301D01*
X130110698Y-113273673D01*
X129877309Y-113177000D01*
X129061750Y-113177000D01*
X128903000Y-113335750D01*
X128903000Y-114935000D01*
X128923000Y-114935000D01*
X128923000Y-115189000D01*
X128903000Y-115189000D01*
X128903000Y-115209000D01*
X128649000Y-115209000D01*
X128649000Y-115189000D01*
X127324750Y-115189000D01*
X127166000Y-115347750D01*
X127166000Y-115500420D01*
X126826744Y-115161164D01*
X126777117Y-115041057D01*
X126514327Y-114777808D01*
X126170799Y-114635162D01*
X125798833Y-114634838D01*
X125455057Y-114776883D01*
X125191808Y-115039673D01*
X125049162Y-115383201D01*
X125048838Y-115755167D01*
X125190883Y-116098943D01*
X125453673Y-116362192D01*
X125574986Y-116412566D01*
X126628208Y-117465787D01*
X126628210Y-117465790D01*
X126890210Y-117640852D01*
X126915325Y-117657633D01*
X127167000Y-117707695D01*
X127167000Y-118332250D01*
X127325750Y-118491000D01*
X128650000Y-118491000D01*
X128650000Y-118471000D01*
X128904000Y-118471000D01*
X128904000Y-118491000D01*
X128924000Y-118491000D01*
X128924000Y-118745000D01*
X128904000Y-118745000D01*
X128904000Y-120344250D01*
X129062750Y-120503000D01*
X129878309Y-120503000D01*
X130111698Y-120406327D01*
X130290327Y-120227699D01*
X130305423Y-120191253D01*
X130387910Y-120319441D01*
X130600110Y-120464431D01*
X130852000Y-120515440D01*
X132590000Y-120515440D01*
X132590000Y-121103537D01*
X132557808Y-121135673D01*
X132415162Y-121479201D01*
X132414838Y-121851167D01*
X132556883Y-122194943D01*
X132666748Y-122305000D01*
X129906579Y-122305000D01*
X128104579Y-120503000D01*
X128491250Y-120503000D01*
X128650000Y-120344250D01*
X128650000Y-118745000D01*
X127325750Y-118745000D01*
X127167000Y-118903750D01*
X127167000Y-119565420D01*
X124837000Y-117235420D01*
X124837000Y-114412579D01*
X125001788Y-114247791D01*
X125001791Y-114247789D01*
X125193634Y-113960674D01*
X125210343Y-113876674D01*
X125244163Y-113706650D01*
X127166000Y-113706650D01*
X127166000Y-114776250D01*
X127324750Y-114935000D01*
X128649000Y-114935000D01*
X128649000Y-113335750D01*
X128490250Y-113177000D01*
X127911877Y-113177000D01*
X127935730Y-113059210D01*
X127935730Y-110889780D01*
X128075691Y-110796261D01*
X129554000Y-109317952D01*
X129554000Y-109518912D01*
G36*
X136579646Y-119031800D02*
X136884595Y-119337282D01*
X137283233Y-119502811D01*
X137714873Y-119503188D01*
X138053000Y-119363476D01*
X138053000Y-119521421D01*
X137296210Y-120278210D01*
X137104367Y-120565325D01*
X137104367Y-120565326D01*
X137036999Y-120904000D01*
X137037000Y-120904005D01*
X137037000Y-122061421D01*
X136885000Y-122213420D01*
X136885000Y-121703750D01*
X136726250Y-121545000D01*
X135377000Y-121545000D01*
X135377000Y-121565000D01*
X135123000Y-121565000D01*
X135123000Y-121545000D01*
X135103000Y-121545000D01*
X135103000Y-121291000D01*
X135123000Y-121291000D01*
X135123000Y-119691750D01*
X135377000Y-119691750D01*
X135377000Y-121291000D01*
X136726250Y-121291000D01*
X136885000Y-121132250D01*
X136885000Y-120041691D01*
X136788327Y-119808302D01*
X136609699Y-119629673D01*
X136376310Y-119533000D01*
X135535750Y-119533000D01*
X135377000Y-119691750D01*
X135123000Y-119691750D01*
X134964250Y-119533000D01*
X134265291Y-119533000D01*
X134396192Y-119402327D01*
X134538838Y-119058799D01*
X134539011Y-118860057D01*
X134588998Y-118870000D01*
X135073537Y-118870000D01*
X135105673Y-118902192D01*
X135449201Y-119044838D01*
X135821167Y-119045162D01*
X136164943Y-118903117D01*
X136420900Y-118647607D01*
X136579646Y-119031800D01*
X136579646Y-119031800D01*
G37*
X136579646Y-119031800D02*
X136884595Y-119337282D01*
X137283233Y-119502811D01*
X137714873Y-119503188D01*
X138053000Y-119363476D01*
X138053000Y-119521421D01*
X137296210Y-120278210D01*
X137104367Y-120565325D01*
X137104367Y-120565326D01*
X137036999Y-120904000D01*
X137037000Y-120904005D01*
X137037000Y-122061421D01*
X136885000Y-122213420D01*
X136885000Y-121703750D01*
X136726250Y-121545000D01*
X135377000Y-121545000D01*
X135377000Y-121565000D01*
X135123000Y-121565000D01*
X135123000Y-121545000D01*
X135103000Y-121545000D01*
X135103000Y-121291000D01*
X135123000Y-121291000D01*
X135123000Y-119691750D01*
X135377000Y-119691750D01*
X135377000Y-121291000D01*
X136726250Y-121291000D01*
X136885000Y-121132250D01*
X136885000Y-120041691D01*
X136788327Y-119808302D01*
X136609699Y-119629673D01*
X136376310Y-119533000D01*
X135535750Y-119533000D01*
X135377000Y-119691750D01*
X135123000Y-119691750D01*
X134964250Y-119533000D01*
X134265291Y-119533000D01*
X134396192Y-119402327D01*
X134538838Y-119058799D01*
X134539011Y-118860057D01*
X134588998Y-118870000D01*
X135073537Y-118870000D01*
X135105673Y-118902192D01*
X135449201Y-119044838D01*
X135821167Y-119045162D01*
X136164943Y-118903117D01*
X136420900Y-118647607D01*
X136579646Y-119031800D01*
G36*
X137474210Y-113496210D02*
X137282367Y-113783325D01*
X137282367Y-113783326D01*
X137214999Y-114122000D01*
X137215000Y-114122005D01*
X137215000Y-114606569D01*
X137202560Y-114668000D01*
X137202560Y-116968000D01*
X137215000Y-117034113D01*
X137215000Y-117217995D01*
X137214999Y-117218000D01*
X137241429Y-117350868D01*
X136886200Y-117497646D01*
X136580718Y-117802595D01*
X136550612Y-117875098D01*
X136499703Y-117751889D01*
X136609699Y-117706327D01*
X136788327Y-117527698D01*
X136885000Y-117294309D01*
X136885000Y-116203750D01*
X136726250Y-116045000D01*
X135377000Y-116045000D01*
X135377000Y-116065000D01*
X135123000Y-116065000D01*
X135123000Y-116045000D01*
X133773750Y-116045000D01*
X133686275Y-116132475D01*
X133608542Y-116054742D01*
X133588401Y-116024599D01*
X133448440Y-115884638D01*
X133448440Y-114423000D01*
X133664163Y-114423000D01*
X133615000Y-114541691D01*
X133615000Y-115632250D01*
X133773750Y-115791000D01*
X135123000Y-115791000D01*
X135123000Y-115771000D01*
X135377000Y-115771000D01*
X135377000Y-115791000D01*
X136726250Y-115791000D01*
X136885000Y-115632250D01*
X136885000Y-114541691D01*
X136788327Y-114308302D01*
X136742103Y-114262078D01*
X136936192Y-114068327D01*
X137078838Y-113724799D01*
X137079047Y-113485001D01*
X137485419Y-113485001D01*
X137474210Y-113496210D01*
X137474210Y-113496210D01*
G37*
X137474210Y-113496210D02*
X137282367Y-113783325D01*
X137282367Y-113783326D01*
X137214999Y-114122000D01*
X137215000Y-114122005D01*
X137215000Y-114606569D01*
X137202560Y-114668000D01*
X137202560Y-116968000D01*
X137215000Y-117034113D01*
X137215000Y-117217995D01*
X137214999Y-117218000D01*
X137241429Y-117350868D01*
X136886200Y-117497646D01*
X136580718Y-117802595D01*
X136550612Y-117875098D01*
X136499703Y-117751889D01*
X136609699Y-117706327D01*
X136788327Y-117527698D01*
X136885000Y-117294309D01*
X136885000Y-116203750D01*
X136726250Y-116045000D01*
X135377000Y-116045000D01*
X135377000Y-116065000D01*
X135123000Y-116065000D01*
X135123000Y-116045000D01*
X133773750Y-116045000D01*
X133686275Y-116132475D01*
X133608542Y-116054742D01*
X133588401Y-116024599D01*
X133448440Y-115884638D01*
X133448440Y-114423000D01*
X133664163Y-114423000D01*
X133615000Y-114541691D01*
X133615000Y-115632250D01*
X133773750Y-115791000D01*
X135123000Y-115791000D01*
X135123000Y-115771000D01*
X135377000Y-115771000D01*
X135377000Y-115791000D01*
X136726250Y-115791000D01*
X136885000Y-115632250D01*
X136885000Y-114541691D01*
X136788327Y-114308302D01*
X136742103Y-114262078D01*
X136936192Y-114068327D01*
X137078838Y-113724799D01*
X137079047Y-113485001D01*
X137485419Y-113485001D01*
X137474210Y-113496210D01*
G36*
X153543000Y-113689000D02*
X154325750Y-113689000D01*
X154375750Y-113739000D01*
X155575000Y-113739000D01*
X155575000Y-113719000D01*
X155829000Y-113719000D01*
X155829000Y-113739000D01*
X155849000Y-113739000D01*
X155849000Y-113993000D01*
X155829000Y-113993000D01*
X155829000Y-114792250D01*
X155987750Y-114951000D01*
X156678310Y-114951000D01*
X156745000Y-114923376D01*
X156745000Y-115707643D01*
X156552000Y-115668560D01*
X154852000Y-115668560D01*
X154616683Y-115712838D01*
X154534982Y-115765411D01*
X154467890Y-115719569D01*
X154216000Y-115668560D01*
X154046920Y-115668560D01*
X153953401Y-115528599D01*
X153253026Y-114828224D01*
X153289000Y-114792250D01*
X153289000Y-113943000D01*
X153543000Y-113943000D01*
X153543000Y-114792250D01*
X153701750Y-114951000D01*
X154342310Y-114951000D01*
X154534000Y-114871599D01*
X154725690Y-114951000D01*
X155416250Y-114951000D01*
X155575000Y-114792250D01*
X155575000Y-113993000D01*
X154742250Y-113993000D01*
X154692250Y-113943000D01*
X153543000Y-113943000D01*
X153289000Y-113943000D01*
X153269000Y-113943000D01*
X153269000Y-113689000D01*
X153289000Y-113689000D01*
X153289000Y-113669000D01*
X153543000Y-113669000D01*
X153543000Y-113689000D01*
X153543000Y-113689000D01*
G37*
X153543000Y-113689000D02*
X154325750Y-113689000D01*
X154375750Y-113739000D01*
X155575000Y-113739000D01*
X155575000Y-113719000D01*
X155829000Y-113719000D01*
X155829000Y-113739000D01*
X155849000Y-113739000D01*
X155849000Y-113993000D01*
X155829000Y-113993000D01*
X155829000Y-114792250D01*
X155987750Y-114951000D01*
X156678310Y-114951000D01*
X156745000Y-114923376D01*
X156745000Y-115707643D01*
X156552000Y-115668560D01*
X154852000Y-115668560D01*
X154616683Y-115712838D01*
X154534982Y-115765411D01*
X154467890Y-115719569D01*
X154216000Y-115668560D01*
X154046920Y-115668560D01*
X153953401Y-115528599D01*
X153253026Y-114828224D01*
X153289000Y-114792250D01*
X153289000Y-113943000D01*
X153543000Y-113943000D01*
X153543000Y-114792250D01*
X153701750Y-114951000D01*
X154342310Y-114951000D01*
X154534000Y-114871599D01*
X154725690Y-114951000D01*
X155416250Y-114951000D01*
X155575000Y-114792250D01*
X155575000Y-113993000D01*
X154742250Y-113993000D01*
X154692250Y-113943000D01*
X153543000Y-113943000D01*
X153289000Y-113943000D01*
X153269000Y-113943000D01*
X153269000Y-113689000D01*
X153289000Y-113689000D01*
X153289000Y-113669000D01*
X153543000Y-113669000D01*
X153543000Y-113689000D01*
G36*
X142745560Y-109990000D02*
X142789838Y-110225317D01*
X142928910Y-110441441D01*
X142997006Y-110487969D01*
X142854673Y-110630302D01*
X142758000Y-110863691D01*
X142758000Y-111204250D01*
X142916750Y-111363000D01*
X143891000Y-111363000D01*
X143891000Y-111343000D01*
X144145000Y-111343000D01*
X144145000Y-111363000D01*
X145669000Y-111363000D01*
X145669000Y-111343000D01*
X145923000Y-111343000D01*
X145923000Y-111363000D01*
X147447000Y-111363000D01*
X147447000Y-111343000D01*
X147701000Y-111343000D01*
X147701000Y-111363000D01*
X147721000Y-111363000D01*
X147721000Y-111617000D01*
X147701000Y-111617000D01*
X147701000Y-111637000D01*
X147447000Y-111637000D01*
X147447000Y-111617000D01*
X145923000Y-111617000D01*
X145923000Y-112466250D01*
X146081750Y-112625000D01*
X146547310Y-112625000D01*
X146685000Y-112567967D01*
X146822690Y-112625000D01*
X147288250Y-112625000D01*
X147446998Y-112466252D01*
X147446998Y-112597422D01*
X147391420Y-112653000D01*
X143175108Y-112653000D01*
X143175162Y-112590833D01*
X143173295Y-112586314D01*
X143266690Y-112625000D01*
X143732250Y-112625000D01*
X143891000Y-112466250D01*
X143891000Y-111617000D01*
X144145000Y-111617000D01*
X144145000Y-112466250D01*
X144303750Y-112625000D01*
X144769310Y-112625000D01*
X144907000Y-112567967D01*
X145044690Y-112625000D01*
X145510250Y-112625000D01*
X145669000Y-112466250D01*
X145669000Y-111617000D01*
X144145000Y-111617000D01*
X143891000Y-111617000D01*
X142916750Y-111617000D01*
X142758000Y-111775750D01*
X142758000Y-111978689D01*
X142450015Y-111850802D01*
X142524431Y-111741890D01*
X142575440Y-111490000D01*
X142575440Y-110990000D01*
X142531162Y-110754683D01*
X142392090Y-110538559D01*
X142322289Y-110490866D01*
X142379441Y-110454090D01*
X142524431Y-110241890D01*
X142575440Y-109990000D01*
X142575440Y-109800000D01*
X142745560Y-109800000D01*
X142745560Y-109990000D01*
X142745560Y-109990000D01*
G37*
X142745560Y-109990000D02*
X142789838Y-110225317D01*
X142928910Y-110441441D01*
X142997006Y-110487969D01*
X142854673Y-110630302D01*
X142758000Y-110863691D01*
X142758000Y-111204250D01*
X142916750Y-111363000D01*
X143891000Y-111363000D01*
X143891000Y-111343000D01*
X144145000Y-111343000D01*
X144145000Y-111363000D01*
X145669000Y-111363000D01*
X145669000Y-111343000D01*
X145923000Y-111343000D01*
X145923000Y-111363000D01*
X147447000Y-111363000D01*
X147447000Y-111343000D01*
X147701000Y-111343000D01*
X147701000Y-111363000D01*
X147721000Y-111363000D01*
X147721000Y-111617000D01*
X147701000Y-111617000D01*
X147701000Y-111637000D01*
X147447000Y-111637000D01*
X147447000Y-111617000D01*
X145923000Y-111617000D01*
X145923000Y-112466250D01*
X146081750Y-112625000D01*
X146547310Y-112625000D01*
X146685000Y-112567967D01*
X146822690Y-112625000D01*
X147288250Y-112625000D01*
X147446998Y-112466252D01*
X147446998Y-112597422D01*
X147391420Y-112653000D01*
X143175108Y-112653000D01*
X143175162Y-112590833D01*
X143173295Y-112586314D01*
X143266690Y-112625000D01*
X143732250Y-112625000D01*
X143891000Y-112466250D01*
X143891000Y-111617000D01*
X144145000Y-111617000D01*
X144145000Y-112466250D01*
X144303750Y-112625000D01*
X144769310Y-112625000D01*
X144907000Y-112567967D01*
X145044690Y-112625000D01*
X145510250Y-112625000D01*
X145669000Y-112466250D01*
X145669000Y-111617000D01*
X144145000Y-111617000D01*
X143891000Y-111617000D01*
X142916750Y-111617000D01*
X142758000Y-111775750D01*
X142758000Y-111978689D01*
X142450015Y-111850802D01*
X142524431Y-111741890D01*
X142575440Y-111490000D01*
X142575440Y-110990000D01*
X142531162Y-110754683D01*
X142392090Y-110538559D01*
X142322289Y-110490866D01*
X142379441Y-110454090D01*
X142524431Y-110241890D01*
X142575440Y-109990000D01*
X142575440Y-109800000D01*
X142745560Y-109800000D01*
X142745560Y-109990000D01*
G36*
X149733000Y-108863000D02*
X149753000Y-108863000D01*
X149753000Y-109117000D01*
X149733000Y-109117000D01*
X149733000Y-109966250D01*
X149891750Y-110125000D01*
X150532310Y-110125000D01*
X150566990Y-110110635D01*
X150685910Y-110295441D01*
X150737015Y-110330360D01*
X150747852Y-110384839D01*
X150912599Y-110631401D01*
X151177758Y-110896560D01*
X151150000Y-110896560D01*
X150914683Y-110940838D01*
X150818064Y-111003011D01*
X150657890Y-110893569D01*
X150406000Y-110842560D01*
X148825247Y-110842560D01*
X148737327Y-110630302D01*
X148596090Y-110489064D01*
X148650441Y-110454090D01*
X148795431Y-110241890D01*
X148819102Y-110125000D01*
X149320250Y-110125000D01*
X149479000Y-109966250D01*
X149479000Y-109117000D01*
X149459000Y-109117000D01*
X149459000Y-108863000D01*
X149479000Y-108863000D01*
X149479000Y-108843000D01*
X149733000Y-108843000D01*
X149733000Y-108863000D01*
X149733000Y-108863000D01*
G37*
X149733000Y-108863000D02*
X149753000Y-108863000D01*
X149753000Y-109117000D01*
X149733000Y-109117000D01*
X149733000Y-109966250D01*
X149891750Y-110125000D01*
X150532310Y-110125000D01*
X150566990Y-110110635D01*
X150685910Y-110295441D01*
X150737015Y-110330360D01*
X150747852Y-110384839D01*
X150912599Y-110631401D01*
X151177758Y-110896560D01*
X151150000Y-110896560D01*
X150914683Y-110940838D01*
X150818064Y-111003011D01*
X150657890Y-110893569D01*
X150406000Y-110842560D01*
X148825247Y-110842560D01*
X148737327Y-110630302D01*
X148596090Y-110489064D01*
X148650441Y-110454090D01*
X148795431Y-110241890D01*
X148819102Y-110125000D01*
X149320250Y-110125000D01*
X149479000Y-109966250D01*
X149479000Y-109117000D01*
X149459000Y-109117000D01*
X149459000Y-108863000D01*
X149479000Y-108863000D01*
X149479000Y-108843000D01*
X149733000Y-108843000D01*
X149733000Y-108863000D01*
G36*
X152402560Y-109441000D02*
X152397440Y-109441000D01*
X152397440Y-109147000D01*
X152402560Y-109147000D01*
X152402560Y-109441000D01*
X152402560Y-109441000D01*
G37*
X152402560Y-109441000D02*
X152397440Y-109441000D01*
X152397440Y-109147000D01*
X152402560Y-109147000D01*
X152402560Y-109441000D01*
G36*
X130191000Y-97409000D02*
X130211000Y-97409000D01*
X130211000Y-97663000D01*
X130191000Y-97663000D01*
X130191000Y-99187000D01*
X130211000Y-99187000D01*
X130211000Y-99441000D01*
X130191000Y-99441000D01*
X130191000Y-100965000D01*
X130211000Y-100965000D01*
X130211000Y-101219000D01*
X130191000Y-101219000D01*
X130191000Y-102006750D01*
X130175000Y-102022750D01*
X130175000Y-102997000D01*
X130195000Y-102997000D01*
X130195000Y-103251000D01*
X130175000Y-103251000D01*
X130175000Y-103271000D01*
X129921000Y-103271000D01*
X129921000Y-103251000D01*
X129071750Y-103251000D01*
X128913000Y-103409750D01*
X128913000Y-103875310D01*
X128948829Y-103961808D01*
X128804302Y-104021673D01*
X128625673Y-104200301D01*
X128529000Y-104433690D01*
X128529000Y-105124250D01*
X128687750Y-105283000D01*
X129487000Y-105283000D01*
X129487000Y-105263000D01*
X129741000Y-105263000D01*
X129741000Y-105283000D01*
X129761000Y-105283000D01*
X129761000Y-105537000D01*
X129741000Y-105537000D01*
X129741000Y-105557000D01*
X129487000Y-105557000D01*
X129487000Y-105537000D01*
X128687750Y-105537000D01*
X128529000Y-105695750D01*
X128529000Y-106386310D01*
X128625673Y-106619699D01*
X128804302Y-106798327D01*
X128968999Y-106866547D01*
X128968999Y-107753349D01*
X127935730Y-108786618D01*
X127935730Y-107458510D01*
X127891452Y-107223193D01*
X127752380Y-107007069D01*
X127540180Y-106862079D01*
X127288290Y-106811070D01*
X125261001Y-106811070D01*
X125261001Y-104008930D01*
X127288290Y-104008930D01*
X127523607Y-103964652D01*
X127739731Y-103825580D01*
X127884721Y-103613380D01*
X127935730Y-103361490D01*
X127935730Y-102372690D01*
X128913000Y-102372690D01*
X128913000Y-102838250D01*
X129071750Y-102997000D01*
X129921000Y-102997000D01*
X129921000Y-102209250D01*
X129937000Y-102193250D01*
X129937000Y-101219000D01*
X129087750Y-101219000D01*
X128929000Y-101377750D01*
X128929000Y-101843310D01*
X129025673Y-102076699D01*
X129048974Y-102100000D01*
X129009673Y-102139301D01*
X128913000Y-102372690D01*
X127935730Y-102372690D01*
X127935730Y-101192060D01*
X128075691Y-101098541D01*
X128981698Y-100192534D01*
X128986033Y-100203000D01*
X128929000Y-100340690D01*
X128929000Y-100806250D01*
X129087750Y-100965000D01*
X129937000Y-100965000D01*
X129937000Y-99441000D01*
X129917000Y-99441000D01*
X129917000Y-99187000D01*
X129937000Y-99187000D01*
X129937000Y-99131845D01*
X129988999Y-98870431D01*
X129988999Y-97389000D01*
X130191000Y-97389000D01*
X130191000Y-97409000D01*
X130191000Y-97409000D01*
G37*
X130191000Y-97409000D02*
X130211000Y-97409000D01*
X130211000Y-97663000D01*
X130191000Y-97663000D01*
X130191000Y-99187000D01*
X130211000Y-99187000D01*
X130211000Y-99441000D01*
X130191000Y-99441000D01*
X130191000Y-100965000D01*
X130211000Y-100965000D01*
X130211000Y-101219000D01*
X130191000Y-101219000D01*
X130191000Y-102006750D01*
X130175000Y-102022750D01*
X130175000Y-102997000D01*
X130195000Y-102997000D01*
X130195000Y-103251000D01*
X130175000Y-103251000D01*
X130175000Y-103271000D01*
X129921000Y-103271000D01*
X129921000Y-103251000D01*
X129071750Y-103251000D01*
X128913000Y-103409750D01*
X128913000Y-103875310D01*
X128948829Y-103961808D01*
X128804302Y-104021673D01*
X128625673Y-104200301D01*
X128529000Y-104433690D01*
X128529000Y-105124250D01*
X128687750Y-105283000D01*
X129487000Y-105283000D01*
X129487000Y-105263000D01*
X129741000Y-105263000D01*
X129741000Y-105283000D01*
X129761000Y-105283000D01*
X129761000Y-105537000D01*
X129741000Y-105537000D01*
X129741000Y-105557000D01*
X129487000Y-105557000D01*
X129487000Y-105537000D01*
X128687750Y-105537000D01*
X128529000Y-105695750D01*
X128529000Y-106386310D01*
X128625673Y-106619699D01*
X128804302Y-106798327D01*
X128968999Y-106866547D01*
X128968999Y-107753349D01*
X127935730Y-108786618D01*
X127935730Y-107458510D01*
X127891452Y-107223193D01*
X127752380Y-107007069D01*
X127540180Y-106862079D01*
X127288290Y-106811070D01*
X125261001Y-106811070D01*
X125261001Y-104008930D01*
X127288290Y-104008930D01*
X127523607Y-103964652D01*
X127739731Y-103825580D01*
X127884721Y-103613380D01*
X127935730Y-103361490D01*
X127935730Y-102372690D01*
X128913000Y-102372690D01*
X128913000Y-102838250D01*
X129071750Y-102997000D01*
X129921000Y-102997000D01*
X129921000Y-102209250D01*
X129937000Y-102193250D01*
X129937000Y-101219000D01*
X129087750Y-101219000D01*
X128929000Y-101377750D01*
X128929000Y-101843310D01*
X129025673Y-102076699D01*
X129048974Y-102100000D01*
X129009673Y-102139301D01*
X128913000Y-102372690D01*
X127935730Y-102372690D01*
X127935730Y-101192060D01*
X128075691Y-101098541D01*
X128981698Y-100192534D01*
X128986033Y-100203000D01*
X128929000Y-100340690D01*
X128929000Y-100806250D01*
X129087750Y-100965000D01*
X129937000Y-100965000D01*
X129937000Y-99441000D01*
X129917000Y-99441000D01*
X129917000Y-99187000D01*
X129937000Y-99187000D01*
X129937000Y-99131845D01*
X129988999Y-98870431D01*
X129988999Y-97389000D01*
X130191000Y-97389000D01*
X130191000Y-97409000D01*
G36*
X150083808Y-100561673D02*
X149941162Y-100905201D01*
X149941121Y-100952077D01*
X149523246Y-101369952D01*
X149596000Y-101194309D01*
X149596000Y-100853750D01*
X149437250Y-100695000D01*
X148463000Y-100695000D01*
X148463000Y-101544250D01*
X148621750Y-101703000D01*
X149087310Y-101703000D01*
X149320699Y-101606327D01*
X149443154Y-101483872D01*
X149346523Y-101628490D01*
X149319990Y-101761879D01*
X147762870Y-103318999D01*
X145795801Y-103318999D01*
X144936402Y-102459600D01*
X144689840Y-102294853D01*
X144474900Y-102252098D01*
X144445122Y-102222320D01*
X144445162Y-102176833D01*
X144314563Y-101860760D01*
X144360597Y-101831138D01*
X144367325Y-101835633D01*
X144706000Y-101903000D01*
X144725331Y-101903000D01*
X144735910Y-101919441D01*
X144948110Y-102064431D01*
X145200000Y-102115440D01*
X146900000Y-102115440D01*
X147135317Y-102071162D01*
X147351441Y-101932090D01*
X147496431Y-101719890D01*
X147506417Y-101670578D01*
X147584690Y-101703000D01*
X148050250Y-101703000D01*
X148209000Y-101544250D01*
X148209000Y-100695000D01*
X148189000Y-100695000D01*
X148189000Y-100453000D01*
X150192671Y-100453000D01*
X150083808Y-100561673D01*
X150083808Y-100561673D01*
G37*
X150083808Y-100561673D02*
X149941162Y-100905201D01*
X149941121Y-100952077D01*
X149523246Y-101369952D01*
X149596000Y-101194309D01*
X149596000Y-100853750D01*
X149437250Y-100695000D01*
X148463000Y-100695000D01*
X148463000Y-101544250D01*
X148621750Y-101703000D01*
X149087310Y-101703000D01*
X149320699Y-101606327D01*
X149443154Y-101483872D01*
X149346523Y-101628490D01*
X149319990Y-101761879D01*
X147762870Y-103318999D01*
X145795801Y-103318999D01*
X144936402Y-102459600D01*
X144689840Y-102294853D01*
X144474900Y-102252098D01*
X144445122Y-102222320D01*
X144445162Y-102176833D01*
X144314563Y-101860760D01*
X144360597Y-101831138D01*
X144367325Y-101835633D01*
X144706000Y-101903000D01*
X144725331Y-101903000D01*
X144735910Y-101919441D01*
X144948110Y-102064431D01*
X145200000Y-102115440D01*
X146900000Y-102115440D01*
X147135317Y-102071162D01*
X147351441Y-101932090D01*
X147496431Y-101719890D01*
X147506417Y-101670578D01*
X147584690Y-101703000D01*
X148050250Y-101703000D01*
X148209000Y-101544250D01*
X148209000Y-100695000D01*
X148189000Y-100695000D01*
X148189000Y-100453000D01*
X150192671Y-100453000D01*
X150083808Y-100561673D01*
G36*
X139323000Y-101903331D02*
X139306559Y-101913910D01*
X139161569Y-102126110D01*
X139110560Y-102378000D01*
X139110560Y-102697150D01*
X139077923Y-102697121D01*
X139055000Y-102674198D01*
X139055000Y-101568802D01*
X139323000Y-101300802D01*
X139323000Y-101903331D01*
X139323000Y-101903331D01*
G37*
X139323000Y-101903331D02*
X139306559Y-101913910D01*
X139161569Y-102126110D01*
X139110560Y-102378000D01*
X139110560Y-102697150D01*
X139077923Y-102697121D01*
X139055000Y-102674198D01*
X139055000Y-101568802D01*
X139323000Y-101300802D01*
X139323000Y-101903331D01*
G36*
X144911000Y-95889000D02*
X144696005Y-95889000D01*
X144696000Y-95888999D01*
X144357325Y-95956367D01*
X144070210Y-96148210D01*
X144070208Y-96148213D01*
X142477860Y-97740560D01*
X142282000Y-97740560D01*
X142046683Y-97784838D01*
X141830559Y-97923910D01*
X141685569Y-98136110D01*
X141634560Y-98388000D01*
X141634560Y-98987274D01*
X141452839Y-98865852D01*
X141162000Y-98808000D01*
X140875010Y-98808000D01*
X140853890Y-98793569D01*
X140602000Y-98742560D01*
X140094000Y-98742560D01*
X139942000Y-98771161D01*
X139942000Y-98763691D01*
X139845327Y-98530302D01*
X139666699Y-98351673D01*
X139433310Y-98255000D01*
X139338750Y-98255000D01*
X139180000Y-98413750D01*
X139180000Y-98979000D01*
X139200000Y-98979000D01*
X139200000Y-99157000D01*
X139180000Y-99157000D01*
X139180000Y-99215000D01*
X138926000Y-99215000D01*
X138926000Y-99157000D01*
X138906000Y-99157000D01*
X138906000Y-98979000D01*
X138926000Y-98979000D01*
X138926000Y-98413750D01*
X138776526Y-98264276D01*
X140110402Y-96930400D01*
X140270453Y-96690867D01*
X140275201Y-96692838D01*
X140647167Y-96693162D01*
X140990943Y-96551117D01*
X141072911Y-96469292D01*
X141153670Y-96550192D01*
X141497198Y-96692838D01*
X141869164Y-96693162D01*
X142089115Y-96602280D01*
X142307201Y-96692838D01*
X142679167Y-96693162D01*
X143022943Y-96551117D01*
X143056118Y-96518000D01*
X143144552Y-96518000D01*
X143435391Y-96460148D01*
X143681953Y-96295401D01*
X144911000Y-95066354D01*
X144911000Y-95889000D01*
X144911000Y-95889000D01*
G37*
X144911000Y-95889000D02*
X144696005Y-95889000D01*
X144696000Y-95888999D01*
X144357325Y-95956367D01*
X144070210Y-96148210D01*
X144070208Y-96148213D01*
X142477860Y-97740560D01*
X142282000Y-97740560D01*
X142046683Y-97784838D01*
X141830559Y-97923910D01*
X141685569Y-98136110D01*
X141634560Y-98388000D01*
X141634560Y-98987274D01*
X141452839Y-98865852D01*
X141162000Y-98808000D01*
X140875010Y-98808000D01*
X140853890Y-98793569D01*
X140602000Y-98742560D01*
X140094000Y-98742560D01*
X139942000Y-98771161D01*
X139942000Y-98763691D01*
X139845327Y-98530302D01*
X139666699Y-98351673D01*
X139433310Y-98255000D01*
X139338750Y-98255000D01*
X139180000Y-98413750D01*
X139180000Y-98979000D01*
X139200000Y-98979000D01*
X139200000Y-99157000D01*
X139180000Y-99157000D01*
X139180000Y-99215000D01*
X138926000Y-99215000D01*
X138926000Y-99157000D01*
X138906000Y-99157000D01*
X138906000Y-98979000D01*
X138926000Y-98979000D01*
X138926000Y-98413750D01*
X138776526Y-98264276D01*
X140110402Y-96930400D01*
X140270453Y-96690867D01*
X140275201Y-96692838D01*
X140647167Y-96693162D01*
X140990943Y-96551117D01*
X141072911Y-96469292D01*
X141153670Y-96550192D01*
X141497198Y-96692838D01*
X141869164Y-96693162D01*
X142089115Y-96602280D01*
X142307201Y-96692838D01*
X142679167Y-96693162D01*
X143022943Y-96551117D01*
X143056118Y-96518000D01*
X143144552Y-96518000D01*
X143435391Y-96460148D01*
X143681953Y-96295401D01*
X144911000Y-95066354D01*
X144911000Y-95889000D01*
G36*
X145711673Y-87040301D02*
X145615000Y-87273690D01*
X145615000Y-87864250D01*
X145773750Y-88023000D01*
X147373000Y-88023000D01*
X147373000Y-88003000D01*
X147627000Y-88003000D01*
X147627000Y-88023000D01*
X149226250Y-88023000D01*
X149385000Y-87864250D01*
X149385000Y-87273690D01*
X149288327Y-87040301D01*
X149239026Y-86991000D01*
X149477990Y-86991000D01*
X150131114Y-87644123D01*
X150127979Y-87648814D01*
X150045420Y-88063865D01*
X150045420Y-88720135D01*
X150127979Y-89135186D01*
X150131114Y-89139877D01*
X149319209Y-89951781D01*
X149319207Y-89951784D01*
X148218210Y-91052780D01*
X148026367Y-91339895D01*
X148026367Y-91339896D01*
X147958999Y-91678570D01*
X147959000Y-91678575D01*
X147959000Y-96161420D01*
X147945790Y-96148210D01*
X147825197Y-96067633D01*
X147658675Y-95956367D01*
X147600519Y-95944799D01*
X147320000Y-95888999D01*
X147319995Y-95889000D01*
X146681000Y-95889000D01*
X146681000Y-94488000D01*
X146613633Y-94149325D01*
X146421790Y-93862210D01*
X146134675Y-93670367D01*
X146032931Y-93650129D01*
X145917192Y-93534390D01*
X146026441Y-93464090D01*
X146171431Y-93251890D01*
X146222440Y-93000000D01*
X146222440Y-91500000D01*
X146178162Y-91264683D01*
X146039090Y-91048559D01*
X145826890Y-90903569D01*
X145575000Y-90852560D01*
X145325000Y-90852560D01*
X145195411Y-90876944D01*
X145075000Y-90852560D01*
X144825000Y-90852560D01*
X144695411Y-90876944D01*
X144575000Y-90852560D01*
X144325000Y-90852560D01*
X144195411Y-90876944D01*
X144075000Y-90852560D01*
X143825000Y-90852560D01*
X143719295Y-90872450D01*
X143701309Y-90865000D01*
X143671250Y-90865000D01*
X143650938Y-90885312D01*
X143589683Y-90896838D01*
X143455931Y-90982905D01*
X143434698Y-90961673D01*
X143248154Y-90884404D01*
X143228750Y-90865000D01*
X143171250Y-90865000D01*
X143151846Y-90884404D01*
X142965302Y-90961673D01*
X142950000Y-90976975D01*
X142934698Y-90961673D01*
X142748154Y-90884404D01*
X142728750Y-90865000D01*
X142671250Y-90865000D01*
X142651846Y-90884404D01*
X142465302Y-90961673D01*
X142450000Y-90976975D01*
X142434698Y-90961673D01*
X142248154Y-90884404D01*
X142228750Y-90865000D01*
X142171250Y-90865000D01*
X142151846Y-90884404D01*
X141965302Y-90961673D01*
X141950000Y-90976975D01*
X141934698Y-90961673D01*
X141748154Y-90884404D01*
X141728750Y-90865000D01*
X141671250Y-90865000D01*
X141651846Y-90884404D01*
X141465302Y-90961673D01*
X141443636Y-90983338D01*
X141326890Y-90903569D01*
X141252192Y-90888442D01*
X141228750Y-90865000D01*
X141198691Y-90865000D01*
X141178247Y-90873468D01*
X141075000Y-90852560D01*
X140825000Y-90852560D01*
X140695411Y-90876944D01*
X140575000Y-90852560D01*
X140325000Y-90852560D01*
X140195411Y-90876944D01*
X140075000Y-90852560D01*
X139825000Y-90852560D01*
X139719295Y-90872450D01*
X139701309Y-90865000D01*
X139671250Y-90865000D01*
X139650938Y-90885312D01*
X139589683Y-90896838D01*
X139455931Y-90982905D01*
X139434698Y-90961673D01*
X139248154Y-90884404D01*
X139228750Y-90865000D01*
X139171250Y-90865000D01*
X139151846Y-90884404D01*
X138965302Y-90961673D01*
X138943636Y-90983338D01*
X138826890Y-90903569D01*
X138752192Y-90888442D01*
X138728750Y-90865000D01*
X138698691Y-90865000D01*
X138678247Y-90873468D01*
X138575000Y-90852560D01*
X138325000Y-90852560D01*
X138195411Y-90876944D01*
X138075000Y-90852560D01*
X137825000Y-90852560D01*
X137719295Y-90872450D01*
X137701309Y-90865000D01*
X137671250Y-90865000D01*
X137650938Y-90885312D01*
X137589683Y-90896838D01*
X137455931Y-90982905D01*
X137434698Y-90961673D01*
X137248154Y-90884404D01*
X137228750Y-90865000D01*
X137210000Y-90865000D01*
X137210000Y-90730000D01*
X137152148Y-90439161D01*
X137152148Y-90439160D01*
X137079083Y-90329810D01*
X137079162Y-90238833D01*
X136937117Y-89895057D01*
X136674327Y-89631808D01*
X136330799Y-89489162D01*
X135958833Y-89488838D01*
X135808713Y-89550866D01*
X136923829Y-88435750D01*
X145615000Y-88435750D01*
X145615000Y-89026310D01*
X145711673Y-89259699D01*
X145890302Y-89438327D01*
X146123691Y-89535000D01*
X147214250Y-89535000D01*
X147373000Y-89376250D01*
X147373000Y-88277000D01*
X147627000Y-88277000D01*
X147627000Y-89376250D01*
X147785750Y-89535000D01*
X148876309Y-89535000D01*
X149109698Y-89438327D01*
X149288327Y-89259699D01*
X149385000Y-89026310D01*
X149385000Y-88435750D01*
X149226250Y-88277000D01*
X147627000Y-88277000D01*
X147373000Y-88277000D01*
X145773750Y-88277000D01*
X145615000Y-88435750D01*
X136923829Y-88435750D01*
X137668788Y-87690791D01*
X137668791Y-87690789D01*
X138368579Y-86991000D01*
X145760974Y-86991000D01*
X145711673Y-87040301D01*
X145711673Y-87040301D01*
G37*
X145711673Y-87040301D02*
X145615000Y-87273690D01*
X145615000Y-87864250D01*
X145773750Y-88023000D01*
X147373000Y-88023000D01*
X147373000Y-88003000D01*
X147627000Y-88003000D01*
X147627000Y-88023000D01*
X149226250Y-88023000D01*
X149385000Y-87864250D01*
X149385000Y-87273690D01*
X149288327Y-87040301D01*
X149239026Y-86991000D01*
X149477990Y-86991000D01*
X150131114Y-87644123D01*
X150127979Y-87648814D01*
X150045420Y-88063865D01*
X150045420Y-88720135D01*
X150127979Y-89135186D01*
X150131114Y-89139877D01*
X149319209Y-89951781D01*
X149319207Y-89951784D01*
X148218210Y-91052780D01*
X148026367Y-91339895D01*
X148026367Y-91339896D01*
X147958999Y-91678570D01*
X147959000Y-91678575D01*
X147959000Y-96161420D01*
X147945790Y-96148210D01*
X147825197Y-96067633D01*
X147658675Y-95956367D01*
X147600519Y-95944799D01*
X147320000Y-95888999D01*
X147319995Y-95889000D01*
X146681000Y-95889000D01*
X146681000Y-94488000D01*
X146613633Y-94149325D01*
X146421790Y-93862210D01*
X146134675Y-93670367D01*
X146032931Y-93650129D01*
X145917192Y-93534390D01*
X146026441Y-93464090D01*
X146171431Y-93251890D01*
X146222440Y-93000000D01*
X146222440Y-91500000D01*
X146178162Y-91264683D01*
X146039090Y-91048559D01*
X145826890Y-90903569D01*
X145575000Y-90852560D01*
X145325000Y-90852560D01*
X145195411Y-90876944D01*
X145075000Y-90852560D01*
X144825000Y-90852560D01*
X144695411Y-90876944D01*
X144575000Y-90852560D01*
X144325000Y-90852560D01*
X144195411Y-90876944D01*
X144075000Y-90852560D01*
X143825000Y-90852560D01*
X143719295Y-90872450D01*
X143701309Y-90865000D01*
X143671250Y-90865000D01*
X143650938Y-90885312D01*
X143589683Y-90896838D01*
X143455931Y-90982905D01*
X143434698Y-90961673D01*
X143248154Y-90884404D01*
X143228750Y-90865000D01*
X143171250Y-90865000D01*
X143151846Y-90884404D01*
X142965302Y-90961673D01*
X142950000Y-90976975D01*
X142934698Y-90961673D01*
X142748154Y-90884404D01*
X142728750Y-90865000D01*
X142671250Y-90865000D01*
X142651846Y-90884404D01*
X142465302Y-90961673D01*
X142450000Y-90976975D01*
X142434698Y-90961673D01*
X142248154Y-90884404D01*
X142228750Y-90865000D01*
X142171250Y-90865000D01*
X142151846Y-90884404D01*
X141965302Y-90961673D01*
X141950000Y-90976975D01*
X141934698Y-90961673D01*
X141748154Y-90884404D01*
X141728750Y-90865000D01*
X141671250Y-90865000D01*
X141651846Y-90884404D01*
X141465302Y-90961673D01*
X141443636Y-90983338D01*
X141326890Y-90903569D01*
X141252192Y-90888442D01*
X141228750Y-90865000D01*
X141198691Y-90865000D01*
X141178247Y-90873468D01*
X141075000Y-90852560D01*
X140825000Y-90852560D01*
X140695411Y-90876944D01*
X140575000Y-90852560D01*
X140325000Y-90852560D01*
X140195411Y-90876944D01*
X140075000Y-90852560D01*
X139825000Y-90852560D01*
X139719295Y-90872450D01*
X139701309Y-90865000D01*
X139671250Y-90865000D01*
X139650938Y-90885312D01*
X139589683Y-90896838D01*
X139455931Y-90982905D01*
X139434698Y-90961673D01*
X139248154Y-90884404D01*
X139228750Y-90865000D01*
X139171250Y-90865000D01*
X139151846Y-90884404D01*
X138965302Y-90961673D01*
X138943636Y-90983338D01*
X138826890Y-90903569D01*
X138752192Y-90888442D01*
X138728750Y-90865000D01*
X138698691Y-90865000D01*
X138678247Y-90873468D01*
X138575000Y-90852560D01*
X138325000Y-90852560D01*
X138195411Y-90876944D01*
X138075000Y-90852560D01*
X137825000Y-90852560D01*
X137719295Y-90872450D01*
X137701309Y-90865000D01*
X137671250Y-90865000D01*
X137650938Y-90885312D01*
X137589683Y-90896838D01*
X137455931Y-90982905D01*
X137434698Y-90961673D01*
X137248154Y-90884404D01*
X137228750Y-90865000D01*
X137210000Y-90865000D01*
X137210000Y-90730000D01*
X137152148Y-90439161D01*
X137152148Y-90439160D01*
X137079083Y-90329810D01*
X137079162Y-90238833D01*
X136937117Y-89895057D01*
X136674327Y-89631808D01*
X136330799Y-89489162D01*
X135958833Y-89488838D01*
X135808713Y-89550866D01*
X136923829Y-88435750D01*
X145615000Y-88435750D01*
X145615000Y-89026310D01*
X145711673Y-89259699D01*
X145890302Y-89438327D01*
X146123691Y-89535000D01*
X147214250Y-89535000D01*
X147373000Y-89376250D01*
X147373000Y-88277000D01*
X147627000Y-88277000D01*
X147627000Y-89376250D01*
X147785750Y-89535000D01*
X148876309Y-89535000D01*
X149109698Y-89438327D01*
X149288327Y-89259699D01*
X149385000Y-89026310D01*
X149385000Y-88435750D01*
X149226250Y-88277000D01*
X147627000Y-88277000D01*
X147373000Y-88277000D01*
X145773750Y-88277000D01*
X145615000Y-88435750D01*
X136923829Y-88435750D01*
X137668788Y-87690791D01*
X137668791Y-87690789D01*
X138368579Y-86991000D01*
X145760974Y-86991000D01*
X145711673Y-87040301D01*
G36*
X142575000Y-92377000D02*
X142325000Y-92377000D01*
X142325000Y-92123000D01*
X142575000Y-92123000D01*
X142575000Y-92377000D01*
X142575000Y-92377000D01*
G37*
X142575000Y-92377000D02*
X142325000Y-92377000D01*
X142325000Y-92123000D01*
X142575000Y-92123000D01*
X142575000Y-92377000D01*
G36*
X135209162Y-90237201D02*
X135208913Y-90522918D01*
X135190000Y-90618000D01*
X135190000Y-90865000D01*
X135171250Y-90865000D01*
X135150938Y-90885312D01*
X135089683Y-90896838D01*
X134955931Y-90982905D01*
X134934698Y-90961673D01*
X134748154Y-90884404D01*
X134728750Y-90865000D01*
X134671250Y-90865000D01*
X134651846Y-90884404D01*
X134577002Y-90915405D01*
X134577002Y-90865000D01*
X134494579Y-90865000D01*
X135270787Y-90088792D01*
X135209162Y-90237201D01*
X135209162Y-90237201D01*
G37*
X135209162Y-90237201D02*
X135208913Y-90522918D01*
X135190000Y-90618000D01*
X135190000Y-90865000D01*
X135171250Y-90865000D01*
X135150938Y-90885312D01*
X135089683Y-90896838D01*
X134955931Y-90982905D01*
X134934698Y-90961673D01*
X134748154Y-90884404D01*
X134728750Y-90865000D01*
X134671250Y-90865000D01*
X134651846Y-90884404D01*
X134577002Y-90915405D01*
X134577002Y-90865000D01*
X134494579Y-90865000D01*
X135270787Y-90088792D01*
X135209162Y-90237201D01*
M02*
