G04 #@! TF.FileFunction,Copper,L2,Bot,Signal*
%FSLAX46Y46*%
G04 Gerber Fmt 4.6, Leading zero omitted, Abs format (unit mm)*
G04 Created by KiCad (PCBNEW 4.0.7) date 2017 November 19, Sunday 17:56:15*
%MOMM*%
%LPD*%
G01*
G04 APERTURE LIST*
%ADD10C,0.100000*%
%ADD11C,4.064000*%
%ADD12R,1.250000X1.000000*%
%ADD13R,0.350000X0.300000*%
%ADD14R,0.600000X0.500000*%
%ADD15R,0.797560X0.797560*%
%ADD16R,1.198880X1.198880*%
%ADD17R,2.032000X2.032000*%
%ADD18O,2.032000X2.032000*%
%ADD19R,2.500000X0.900000*%
%ADD20R,0.800000X0.900000*%
%ADD21R,1.700000X0.900000*%
%ADD22R,0.900000X0.500000*%
%ADD23R,1.700000X1.700000*%
%ADD24O,1.700000X1.700000*%
%ADD25R,1.550000X1.300000*%
%ADD26R,0.500380X2.301240*%
%ADD27R,1.998980X2.499360*%
%ADD28R,2.200000X2.200000*%
%ADD29O,2.200000X2.200000*%
%ADD30R,0.700000X1.300000*%
%ADD31O,1.501140X0.899160*%
%ADD32R,0.650000X1.060000*%
%ADD33C,0.600000*%
%ADD34C,0.250000*%
%ADD35C,0.350000*%
%ADD36C,0.254000*%
G04 APERTURE END LIST*
D10*
D11*
X160000000Y-134000000D03*
X123000000Y-134000000D03*
X160000000Y-82000000D03*
D12*
X145100000Y-94054700D03*
X145100000Y-92054700D03*
D13*
X138800000Y-93554700D03*
X138800000Y-93004700D03*
D14*
X128050000Y-105900000D03*
X126950000Y-105900000D03*
X128000000Y-94600000D03*
X126900000Y-94600000D03*
X128000000Y-96400000D03*
X126900000Y-96400000D03*
X133200000Y-105900000D03*
X134300000Y-105900000D03*
D15*
X154200000Y-107600000D03*
X152701400Y-107600000D03*
D16*
X155000000Y-105700000D03*
X152901960Y-105700000D03*
D17*
X152000000Y-130460000D03*
D18*
X152000000Y-133000000D03*
D19*
X136000000Y-94804700D03*
X136000000Y-91904700D03*
D20*
X145150000Y-111700000D03*
X143250000Y-111700000D03*
X144200000Y-109700000D03*
D21*
X124400000Y-102250000D03*
X124400000Y-99350000D03*
D22*
X136200000Y-102450000D03*
X136200000Y-100950000D03*
D21*
X127400000Y-99350000D03*
X127400000Y-102250000D03*
X130300000Y-99350000D03*
X130300000Y-102250000D03*
X133400000Y-99300000D03*
X133400000Y-102200000D03*
D23*
X152400000Y-92760000D03*
D24*
X149860000Y-92760000D03*
X152400000Y-95300000D03*
X149860000Y-95300000D03*
X152400000Y-97840000D03*
X149860000Y-97840000D03*
D25*
X151025000Y-114750000D03*
X151025000Y-119250000D03*
X158975000Y-119250000D03*
X158975000Y-114750000D03*
X137525000Y-116750000D03*
X137525000Y-121250000D03*
X145475000Y-121250000D03*
X145475000Y-116750000D03*
X124025000Y-114750000D03*
X124025000Y-119250000D03*
X131975000Y-119250000D03*
X131975000Y-114750000D03*
D26*
X143100200Y-129550680D03*
X142300100Y-129550680D03*
X141500000Y-129550680D03*
X140699900Y-129550680D03*
X139899800Y-129550680D03*
D27*
X145950080Y-129649740D03*
X145950080Y-135148840D03*
X137049920Y-129649740D03*
X137049920Y-135148840D03*
D28*
X130400000Y-93100000D03*
D29*
X130400000Y-85480000D03*
D28*
X156800000Y-88000000D03*
D29*
X156800000Y-95620000D03*
D30*
X145750000Y-97554700D03*
X143850000Y-97554700D03*
X141850000Y-97554700D03*
X139950000Y-97554700D03*
D31*
X125900000Y-88730000D03*
X125900000Y-87460000D03*
X125900000Y-90000000D03*
D32*
X140700000Y-91854700D03*
X141650000Y-91854700D03*
X142600000Y-91854700D03*
X142600000Y-94054700D03*
X140700000Y-94054700D03*
X141650000Y-94054700D03*
D11*
X123000000Y-82000000D03*
D33*
X140300000Y-88600000D03*
X129200000Y-120900000D03*
X138800000Y-106800000D03*
X135100000Y-103300000D03*
X147300000Y-89200000D03*
X140000000Y-90500000D03*
X145700000Y-100300000D03*
X137500000Y-118800000D03*
X133806513Y-92706513D03*
X149000000Y-86600000D03*
X134900000Y-102000000D03*
X143300000Y-101100000D03*
X143800000Y-99600000D03*
X126300000Y-92400000D03*
X136500000Y-107500000D03*
X148700000Y-115800000D03*
X145500000Y-115100000D03*
X150000000Y-102800000D03*
X148600000Y-100700000D03*
X152700000Y-113100000D03*
X131800000Y-110900000D03*
X131000000Y-127700000D03*
X143100000Y-125000000D03*
X144200000Y-106800000D03*
X143500000Y-86000000D03*
X134200000Y-88700000D03*
X127600000Y-107400000D03*
X128400000Y-104400000D03*
X131200000Y-95200000D03*
X130400000Y-97100000D03*
X133400000Y-100800000D03*
X157800000Y-102200000D03*
X152700000Y-103300000D03*
X155300000Y-101200000D03*
X157100000Y-111200000D03*
X155500000Y-103300000D03*
X154600000Y-92800000D03*
X150400000Y-112200000D03*
X144400000Y-113500000D03*
X139700000Y-106200000D03*
X138800000Y-97300000D03*
X136700000Y-103935000D03*
X146500000Y-99400000D03*
X131300000Y-90600000D03*
X150600000Y-83700000D03*
X135900000Y-99600000D03*
X141500000Y-86300000D03*
X132700000Y-91800000D03*
X138600000Y-114500000D03*
X136400000Y-113500000D03*
X148600000Y-120300000D03*
X135800000Y-108900000D03*
X135000000Y-122000000D03*
X135700000Y-104000000D03*
X133500000Y-104000000D03*
X137500000Y-108700000D03*
X146800000Y-87265000D03*
X138000000Y-90500000D03*
X132600000Y-88200000D03*
X133600000Y-86400000D03*
X130400000Y-89700000D03*
X147600000Y-91800000D03*
X144400000Y-86100000D03*
D34*
X137364999Y-90235001D02*
X139000000Y-88600000D01*
X139000000Y-88600000D02*
X140300000Y-88600000D01*
X140000000Y-90500000D02*
X139364999Y-91135001D01*
X139364999Y-91135001D02*
X137695199Y-91135001D01*
X137695199Y-91135001D02*
X137364999Y-90804801D01*
X137364999Y-90804801D02*
X137364999Y-90235001D01*
X138800000Y-106800000D02*
X138800000Y-113200552D01*
X138800000Y-113200552D02*
X133085001Y-118915551D01*
X133085001Y-118915551D02*
X133085001Y-120168001D01*
X133085001Y-120168001D02*
X132353002Y-120900000D01*
X132353002Y-120900000D02*
X129200000Y-120900000D01*
X135100000Y-103300000D02*
X135350000Y-103300000D01*
X135350000Y-103300000D02*
X136200000Y-102450000D01*
X140000000Y-90500000D02*
X146000000Y-90500000D01*
X146000000Y-90500000D02*
X147300000Y-89200000D01*
X145700000Y-100300000D02*
X145700000Y-97604700D01*
X145700000Y-97604700D02*
X145750000Y-97554700D01*
X148240000Y-92760000D02*
X146945300Y-94054700D01*
X146945300Y-94054700D02*
X145100000Y-94054700D01*
X149860000Y-92760000D02*
X148240000Y-92760000D01*
X141650000Y-94054700D02*
X141650000Y-93274700D01*
X141650000Y-93274700D02*
X141735001Y-93189699D01*
X141735001Y-93189699D02*
X143359999Y-93189699D01*
X143359999Y-93189699D02*
X144225000Y-94054700D01*
X144225000Y-94054700D02*
X145100000Y-94054700D01*
X145950080Y-135148840D02*
X144700590Y-135148840D01*
X144700590Y-135148840D02*
X137049920Y-135148840D01*
X145950080Y-129649740D02*
X145950080Y-135148840D01*
X137500000Y-118800000D02*
X137500000Y-116775000D01*
X137500000Y-116775000D02*
X137525000Y-116750000D01*
X133806513Y-92706513D02*
X134106512Y-93006512D01*
X134106512Y-93006512D02*
X134106512Y-93793488D01*
X134106512Y-93793488D02*
X133700000Y-94200000D01*
X145100000Y-92054700D02*
X145975000Y-92054700D01*
X145975000Y-92054700D02*
X149000000Y-89029700D01*
X149000000Y-89029700D02*
X149000000Y-86600000D01*
X141650000Y-91854700D02*
X141650000Y-91346698D01*
X144225000Y-92054700D02*
X145100000Y-92054700D01*
X141650000Y-91346698D02*
X142036688Y-90960010D01*
X142036688Y-90960010D02*
X143130310Y-90960010D01*
X143130310Y-90960010D02*
X144225000Y-92054700D01*
X133700000Y-94200000D02*
X133700000Y-96700000D01*
X133700000Y-96700000D02*
X134900000Y-97900000D01*
X134895300Y-93004700D02*
X133700000Y-94200000D01*
X138800000Y-93004700D02*
X134895300Y-93004700D01*
X139950000Y-97554700D02*
X139950000Y-97254700D01*
X139950000Y-97254700D02*
X139360299Y-96664999D01*
X139360299Y-96664999D02*
X136135001Y-96664999D01*
X136135001Y-96664999D02*
X134900000Y-97900000D01*
X134900000Y-97900000D02*
X134900000Y-101575736D01*
X134900000Y-101575736D02*
X134900000Y-102000000D01*
X134900000Y-102000000D02*
X134600001Y-102299999D01*
X134600001Y-102860197D02*
X134300000Y-103160198D01*
X134600001Y-102299999D02*
X134600001Y-102860197D01*
X134300000Y-105400000D02*
X134300000Y-105900000D01*
X134300000Y-103160198D02*
X134300000Y-105400000D01*
X143300000Y-101100000D02*
X143724264Y-101100000D01*
X143724264Y-101100000D02*
X143889263Y-100935001D01*
X143889263Y-100935001D02*
X145135001Y-100935001D01*
X143800000Y-99600000D02*
X145135001Y-100935001D01*
X147940735Y-100935001D02*
X148175736Y-100700000D01*
X145135001Y-100935001D02*
X147940735Y-100935001D01*
X148175736Y-100700000D02*
X148600000Y-100700000D01*
X126900000Y-96400000D02*
X126900000Y-96900000D01*
X126900000Y-96900000D02*
X125585001Y-98214999D01*
X125585001Y-98214999D02*
X125585001Y-100068001D01*
X125585001Y-100068001D02*
X125518001Y-100135001D01*
X125518001Y-100135001D02*
X123281999Y-100135001D01*
X123281999Y-100135001D02*
X123214999Y-100068001D01*
X123214999Y-100068001D02*
X123214999Y-95485001D01*
X123214999Y-95485001D02*
X126300000Y-92400000D01*
X126900000Y-94600000D02*
X126900000Y-96400000D01*
X134300000Y-105900000D02*
X134900000Y-105900000D01*
X134900000Y-105900000D02*
X136500000Y-107500000D01*
X148700000Y-115800000D02*
X150875000Y-115800000D01*
X150875000Y-115800000D02*
X151025000Y-115650000D01*
X151025000Y-115650000D02*
X151025000Y-114750000D01*
X145475000Y-116750000D02*
X145475000Y-115125000D01*
X145475000Y-115125000D02*
X145500000Y-115100000D01*
X148600000Y-100700000D02*
X150000000Y-102100000D01*
X150000000Y-102100000D02*
X150000000Y-102800000D01*
X151025000Y-114750000D02*
X151050000Y-114750000D01*
X151050000Y-114750000D02*
X152700000Y-113100000D01*
X158975000Y-114750000D02*
X151025000Y-114750000D01*
X131800000Y-110900000D02*
X131800000Y-114575000D01*
X131800000Y-114575000D02*
X131975000Y-114750000D01*
X126950000Y-105900000D02*
X126950000Y-111950000D01*
X126950000Y-111950000D02*
X124150000Y-114750000D01*
X124150000Y-114750000D02*
X124025000Y-114750000D01*
X126950000Y-105900000D02*
X126950000Y-104400000D01*
X126950000Y-104400000D02*
X124800000Y-102250000D01*
X124800000Y-102250000D02*
X124400000Y-102250000D01*
X137525000Y-116750000D02*
X137153554Y-116750000D01*
X137153554Y-116750000D02*
X131000000Y-122903554D01*
X131000000Y-122903554D02*
X131000000Y-127275736D01*
X131000000Y-127275736D02*
X131000000Y-127700000D01*
X131975000Y-114750000D02*
X124025000Y-114750000D01*
X145950080Y-135148840D02*
X149851160Y-135148840D01*
X149851160Y-135148840D02*
X152000000Y-133000000D01*
X137049920Y-129649740D02*
X132949740Y-129649740D01*
X132949740Y-129649740D02*
X131000000Y-127700000D01*
X137400000Y-126600000D02*
X137049920Y-126950080D01*
X137049920Y-126950080D02*
X137049920Y-129649740D01*
X139400000Y-126600000D02*
X137400000Y-126600000D01*
X139900000Y-127100000D02*
X139400000Y-126600000D01*
X139900000Y-128149860D02*
X139900000Y-127100000D01*
X139899800Y-129550680D02*
X139899800Y-128150060D01*
X139899800Y-128150060D02*
X139900000Y-128149860D01*
X137049920Y-129649740D02*
X137049920Y-135148840D01*
X145150000Y-111700000D02*
X145150000Y-111750000D01*
X145150000Y-111750000D02*
X146585001Y-113185001D01*
X146585001Y-122168001D02*
X143753002Y-125000000D01*
X143524264Y-125000000D02*
X143100000Y-125000000D01*
X146585001Y-113185001D02*
X146585001Y-122168001D01*
X143753002Y-125000000D02*
X143524264Y-125000000D01*
X143100200Y-129550680D02*
X143100200Y-128150060D01*
X143100200Y-128150060D02*
X143100000Y-128149860D01*
X143100000Y-128149860D02*
X143100000Y-125000000D01*
X138795300Y-94804700D02*
X138800000Y-94800000D01*
X138800000Y-94800000D02*
X138800000Y-93554700D01*
X136000000Y-94804700D02*
X138795300Y-94804700D01*
X138800000Y-93554700D02*
X140200000Y-93554700D01*
X140200000Y-93554700D02*
X140700000Y-94054700D01*
X143250000Y-111700000D02*
X143250000Y-111000000D01*
X143250000Y-111000000D02*
X140700000Y-108450000D01*
X140700000Y-108450000D02*
X140700000Y-94054700D01*
X155500000Y-91300000D02*
X156800000Y-90000000D01*
X156800000Y-90000000D02*
X156800000Y-88000000D01*
X149039802Y-91300000D02*
X155500000Y-91300000D01*
X144510310Y-93100000D02*
X147239802Y-93100000D01*
X147239802Y-93100000D02*
X149039802Y-91300000D01*
X142600000Y-91854700D02*
X142600000Y-92059700D01*
X142600000Y-92059700D02*
X143269989Y-92729689D01*
X143269989Y-92729689D02*
X144139999Y-92729689D01*
X144139999Y-92729689D02*
X144510310Y-93100000D01*
X140700000Y-94054700D02*
X140700000Y-93274700D01*
X140700000Y-93274700D02*
X141254999Y-92719701D01*
X141254999Y-92719701D02*
X142514999Y-92719701D01*
X142600000Y-92634700D02*
X142600000Y-91854700D01*
X142514999Y-92719701D02*
X142600000Y-92634700D01*
X144200000Y-106800000D02*
X144200000Y-109700000D01*
D35*
X152000000Y-130460000D02*
X152000000Y-129194000D01*
X152000000Y-129194000D02*
X147400000Y-124594000D01*
X147400000Y-124594000D02*
X147400000Y-112250000D01*
X147400000Y-112250000D02*
X144850000Y-109700000D01*
X144850000Y-109700000D02*
X144200000Y-109700000D01*
D34*
X134600000Y-88300000D02*
X135460009Y-87439991D01*
X135460009Y-87439991D02*
X142060009Y-87439991D01*
X142060009Y-87439991D02*
X143500000Y-86000000D01*
X134200000Y-88700000D02*
X134600000Y-88300000D01*
X128050000Y-105900000D02*
X128050000Y-106950000D01*
X128050000Y-106950000D02*
X127600000Y-107400000D01*
X128400000Y-104400000D02*
X128400000Y-105550000D01*
X128400000Y-105550000D02*
X128050000Y-105900000D01*
X128100000Y-105850000D02*
X128050000Y-105900000D01*
X131200000Y-95200000D02*
X127400000Y-99000000D01*
X127400000Y-99000000D02*
X127400000Y-99350000D01*
X131200000Y-95200000D02*
X128100000Y-95200000D01*
X128100000Y-95200000D02*
X128000000Y-95100000D01*
X128000000Y-95100000D02*
X128000000Y-94600000D01*
X130300000Y-99350000D02*
X129900000Y-99350000D01*
X129900000Y-99350000D02*
X129114999Y-100135001D01*
X129114999Y-100135001D02*
X126281999Y-100135001D01*
X126281999Y-100135001D02*
X126214999Y-100068001D01*
X126214999Y-100068001D02*
X126214999Y-98685001D01*
X126214999Y-98685001D02*
X128000000Y-96900000D01*
X128000000Y-96900000D02*
X128000000Y-96400000D01*
X130400000Y-97100000D02*
X130400000Y-99250000D01*
X130400000Y-99250000D02*
X130300000Y-99350000D01*
X133400000Y-100800000D02*
X132975736Y-100800000D01*
X132975736Y-100800000D02*
X132214999Y-101560737D01*
X132214999Y-101560737D02*
X132214999Y-104414999D01*
X132214999Y-104414999D02*
X133200000Y-105400000D01*
X133200000Y-105400000D02*
X133200000Y-105900000D01*
X133400000Y-100800000D02*
X133400000Y-99300000D01*
X155660198Y-102200000D02*
X157800000Y-102200000D01*
X154200000Y-107600000D02*
X154901882Y-107600000D01*
X155934441Y-104674243D02*
X154864999Y-103604801D01*
X154901882Y-107600000D02*
X155934441Y-106567441D01*
X154864999Y-102995199D02*
X155660198Y-102200000D01*
X155934441Y-106567441D02*
X155934441Y-104674243D01*
X154864999Y-103604801D02*
X154864999Y-102995199D01*
X152701400Y-107600000D02*
X152803842Y-107600000D01*
X154703842Y-105700000D02*
X155000000Y-105700000D01*
X152803842Y-107600000D02*
X154703842Y-105700000D01*
X155000000Y-105700000D02*
X155000000Y-104850560D01*
X155000000Y-104850560D02*
X153449440Y-103300000D01*
X153449440Y-103300000D02*
X152700000Y-103300000D01*
X152901960Y-105700000D02*
X152901960Y-104850560D01*
X152901960Y-104850560D02*
X152064999Y-104013599D01*
X152064999Y-104013599D02*
X152064999Y-102995199D01*
X152064999Y-102995199D02*
X153860198Y-101200000D01*
X153860198Y-101200000D02*
X155300000Y-101200000D01*
X155500000Y-103300000D02*
X157100000Y-104900000D01*
X157100000Y-104900000D02*
X157100000Y-105998118D01*
X157100000Y-105998118D02*
X157100000Y-111200000D01*
X150400000Y-112200000D02*
X150400000Y-104009646D01*
X150400000Y-104009646D02*
X154600000Y-99809646D01*
X154600000Y-99809646D02*
X154600000Y-92800000D01*
X139700000Y-106200000D02*
X139700000Y-109603002D01*
X139700000Y-109603002D02*
X143596998Y-113500000D01*
X143596998Y-113500000D02*
X144400000Y-113500000D01*
X138900000Y-102500000D02*
X138900000Y-97400000D01*
X138900000Y-97400000D02*
X138800000Y-97300000D01*
X136700000Y-103935000D02*
X138135000Y-102500000D01*
X138135000Y-102500000D02*
X138900000Y-102500000D01*
X147800000Y-96600000D02*
X148560000Y-96600000D01*
X148560000Y-96600000D02*
X149860000Y-95300000D01*
X147800000Y-98100000D02*
X147800000Y-96600000D01*
X146500000Y-99400000D02*
X147800000Y-98100000D01*
X133300000Y-83100000D02*
X133300000Y-84703802D01*
X131300000Y-86703802D02*
X131300000Y-90600000D01*
X133300000Y-84703802D02*
X131300000Y-86703802D01*
X150000000Y-83100000D02*
X133300000Y-83100000D01*
X150600000Y-83700000D02*
X150000000Y-83100000D01*
X136200000Y-100950000D02*
X136200000Y-99900000D01*
X136200000Y-99900000D02*
X135900000Y-99600000D01*
X141100000Y-86300000D02*
X141500000Y-86300000D01*
X141100000Y-86300000D02*
X135649448Y-86300000D01*
X135649448Y-86300000D02*
X132700000Y-89249448D01*
X132700000Y-89249448D02*
X132700000Y-91800000D01*
X127400000Y-102250000D02*
X127800000Y-102250000D01*
X127800000Y-102250000D02*
X136400000Y-110850000D01*
X136400000Y-110850000D02*
X136400000Y-113500000D01*
X151025000Y-119250000D02*
X149650000Y-119250000D01*
X149650000Y-119250000D02*
X148600000Y-120300000D01*
X151025000Y-119250000D02*
X151150000Y-119250000D01*
X151150000Y-119250000D02*
X158975000Y-119250000D01*
X130300000Y-102250000D02*
X130300000Y-104099448D01*
X130300000Y-104099448D02*
X135100552Y-108900000D01*
X135100552Y-108900000D02*
X135800000Y-108900000D01*
X137525000Y-121250000D02*
X135750000Y-121250000D01*
X135750000Y-121250000D02*
X135000000Y-122000000D01*
X145475000Y-121250000D02*
X137525000Y-121250000D01*
X135700000Y-104000000D02*
X135700000Y-104424264D01*
X135700000Y-104424264D02*
X137500000Y-106224264D01*
X137500000Y-106224264D02*
X137500000Y-107000000D01*
X133400000Y-102200000D02*
X133400000Y-103900000D01*
X133400000Y-103900000D02*
X133500000Y-104000000D01*
X131975000Y-119250000D02*
X132100000Y-119250000D01*
X132100000Y-119250000D02*
X137500000Y-113850000D01*
X137500000Y-113850000D02*
X137500000Y-109124264D01*
X137500000Y-109124264D02*
X137500000Y-108700000D01*
X131975000Y-119250000D02*
X124025000Y-119250000D01*
X137500000Y-107000000D02*
X137500000Y-108700000D01*
D35*
X147200000Y-85700000D02*
X145500000Y-87400000D01*
X145500000Y-87400000D02*
X143600000Y-89300000D01*
X146800000Y-87265000D02*
X145635000Y-87265000D01*
D34*
X145635000Y-87265000D02*
X145500000Y-87400000D01*
D35*
X143000000Y-89300000D02*
X139200000Y-89300000D01*
X139200000Y-89300000D02*
X138000000Y-90500000D01*
X143600000Y-89300000D02*
X143000000Y-89300000D01*
X150000000Y-85700000D02*
X147200000Y-85700000D01*
X150200000Y-85900000D02*
X150000000Y-85700000D01*
X150200000Y-89200000D02*
X150200000Y-85900000D01*
X147600000Y-91800000D02*
X150200000Y-89200000D01*
X133600000Y-86400000D02*
X133600000Y-87200000D01*
X133600000Y-87200000D02*
X132600000Y-88200000D01*
X128160000Y-87460000D02*
X130000000Y-89300000D01*
X130400000Y-89700000D02*
X130000000Y-89300000D01*
X130400000Y-89700000D02*
X130400000Y-93100000D01*
X125900000Y-87460000D02*
X128160000Y-87460000D01*
D34*
X125900000Y-87460000D02*
X126200990Y-87460000D01*
X136000000Y-91904700D02*
X140650000Y-91904700D01*
X140650000Y-91904700D02*
X140700000Y-91854700D01*
X138049448Y-88900000D02*
X138400000Y-88549448D01*
X138400000Y-88549448D02*
X139049448Y-87900000D01*
X144400000Y-86100000D02*
X142535001Y-87964999D01*
X142535001Y-87964999D02*
X138984449Y-87964999D01*
X138984449Y-87964999D02*
X138400000Y-88549448D01*
X136714999Y-88900000D02*
X138049448Y-88900000D01*
X136714999Y-88900000D02*
X131835001Y-93779998D01*
X131835001Y-93779998D02*
X131835001Y-94468001D01*
X131835001Y-94468001D02*
X131768001Y-94535001D01*
X131768001Y-94535001D02*
X129088003Y-94535001D01*
X129088003Y-94535001D02*
X128568001Y-94014999D01*
X128568001Y-94014999D02*
X126331999Y-94014999D01*
X126331999Y-94014999D02*
X124400000Y-95946998D01*
X124400000Y-95946998D02*
X124400000Y-98650000D01*
X124400000Y-98650000D02*
X124400000Y-99350000D01*
X142800000Y-95800000D02*
X142600000Y-95600000D01*
X142600000Y-95600000D02*
X142600000Y-94054700D01*
X142800000Y-97204700D02*
X142800000Y-95800000D01*
X141850000Y-97554700D02*
X142450000Y-97554700D01*
X142450000Y-97554700D02*
X142800000Y-97204700D01*
D36*
G36*
X137157798Y-91672402D02*
X137404359Y-91837149D01*
X137695199Y-91895001D01*
X139364999Y-91895001D01*
X139655838Y-91837149D01*
X139902400Y-91672402D01*
X140139680Y-91435122D01*
X140185167Y-91435162D01*
X140204921Y-91427000D01*
X140677560Y-91427000D01*
X140677560Y-92222338D01*
X140626898Y-92273000D01*
X139248450Y-92273000D01*
X139226890Y-92258269D01*
X138975000Y-92207260D01*
X138625000Y-92207260D01*
X138426024Y-92244700D01*
X134895300Y-92244700D01*
X134727000Y-92278177D01*
X134727000Y-91962801D01*
X135262801Y-91427000D01*
X136912396Y-91427000D01*
X137157798Y-91672402D01*
X137157798Y-91672402D01*
G37*
X137157798Y-91672402D02*
X137404359Y-91837149D01*
X137695199Y-91895001D01*
X139364999Y-91895001D01*
X139655838Y-91837149D01*
X139902400Y-91672402D01*
X140139680Y-91435122D01*
X140185167Y-91435162D01*
X140204921Y-91427000D01*
X140677560Y-91427000D01*
X140677560Y-92222338D01*
X140626898Y-92273000D01*
X139248450Y-92273000D01*
X139226890Y-92258269D01*
X138975000Y-92207260D01*
X138625000Y-92207260D01*
X138426024Y-92244700D01*
X134895300Y-92244700D01*
X134727000Y-92278177D01*
X134727000Y-91962801D01*
X135262801Y-91427000D01*
X136912396Y-91427000D01*
X137157798Y-91672402D01*
G36*
X140677560Y-94584700D02*
X140721838Y-94820017D01*
X140860910Y-95036141D01*
X140873000Y-95044402D01*
X140873000Y-95173000D01*
X134827000Y-95173000D01*
X134827000Y-94427000D01*
X138600000Y-94427000D01*
X138649410Y-94416994D01*
X138691035Y-94388553D01*
X138718315Y-94346159D01*
X138727000Y-94300000D01*
X138727000Y-93802140D01*
X138975000Y-93802140D01*
X139210317Y-93757862D01*
X139413682Y-93627000D01*
X140677560Y-93627000D01*
X140677560Y-94584700D01*
X140677560Y-94584700D01*
G37*
X140677560Y-94584700D02*
X140721838Y-94820017D01*
X140860910Y-95036141D01*
X140873000Y-95044402D01*
X140873000Y-95173000D01*
X134827000Y-95173000D01*
X134827000Y-94427000D01*
X138600000Y-94427000D01*
X138649410Y-94416994D01*
X138691035Y-94388553D01*
X138718315Y-94346159D01*
X138727000Y-94300000D01*
X138727000Y-93802140D01*
X138975000Y-93802140D01*
X139210317Y-93757862D01*
X139413682Y-93627000D01*
X140677560Y-93627000D01*
X140677560Y-94584700D01*
G36*
X142773000Y-95300000D02*
X142783006Y-95349410D01*
X142811447Y-95391035D01*
X142853841Y-95418315D01*
X142900000Y-95427000D01*
X143173000Y-95427000D01*
X143173000Y-96700000D01*
X143183006Y-96749410D01*
X143211447Y-96791035D01*
X143253841Y-96818315D01*
X143300000Y-96827000D01*
X144273000Y-96827000D01*
X144273000Y-98273000D01*
X141460000Y-98273000D01*
X141460000Y-96827000D01*
X142300000Y-96827000D01*
X142349410Y-96816994D01*
X142391035Y-96788553D01*
X142418315Y-96746159D01*
X142427000Y-96700000D01*
X142427000Y-95047972D01*
X142571431Y-94836590D01*
X142622440Y-94584700D01*
X142622440Y-93949699D01*
X142773000Y-93949699D01*
X142773000Y-95300000D01*
X142773000Y-95300000D01*
G37*
X142773000Y-95300000D02*
X142783006Y-95349410D01*
X142811447Y-95391035D01*
X142853841Y-95418315D01*
X142900000Y-95427000D01*
X143173000Y-95427000D01*
X143173000Y-96700000D01*
X143183006Y-96749410D01*
X143211447Y-96791035D01*
X143253841Y-96818315D01*
X143300000Y-96827000D01*
X144273000Y-96827000D01*
X144273000Y-98273000D01*
X141460000Y-98273000D01*
X141460000Y-96827000D01*
X142300000Y-96827000D01*
X142349410Y-96816994D01*
X142391035Y-96788553D01*
X142418315Y-96746159D01*
X142427000Y-96700000D01*
X142427000Y-95047972D01*
X142571431Y-94836590D01*
X142622440Y-94584700D01*
X142622440Y-93949699D01*
X142773000Y-93949699D01*
X142773000Y-95300000D01*
G36*
X144510310Y-93860000D02*
X146173000Y-93860000D01*
X146173000Y-98273000D01*
X145427000Y-98273000D01*
X145427000Y-94800000D01*
X145416994Y-94750590D01*
X145388553Y-94708965D01*
X145346159Y-94681685D01*
X145300000Y-94673000D01*
X144227000Y-94673000D01*
X144227000Y-93803646D01*
X144510310Y-93860000D01*
X144510310Y-93860000D01*
G37*
X144510310Y-93860000D02*
X146173000Y-93860000D01*
X146173000Y-98273000D01*
X145427000Y-98273000D01*
X145427000Y-94800000D01*
X145416994Y-94750590D01*
X145388553Y-94708965D01*
X145346159Y-94681685D01*
X145300000Y-94673000D01*
X144227000Y-94673000D01*
X144227000Y-93803646D01*
X144510310Y-93860000D01*
G36*
X162347857Y-79217873D02*
X162608419Y-79391581D01*
X162782127Y-79652143D01*
X162873000Y-80015634D01*
X162873000Y-135887423D01*
X162778801Y-136358418D01*
X162699816Y-136516388D01*
X162346846Y-136781115D01*
X161887423Y-136873000D01*
X147373116Y-136873000D01*
X147487897Y-136758218D01*
X147584570Y-136524829D01*
X147584570Y-135434590D01*
X147425820Y-135275840D01*
X146077080Y-135275840D01*
X146077080Y-135295840D01*
X145823080Y-135295840D01*
X145823080Y-135275840D01*
X144474340Y-135275840D01*
X144315590Y-135434590D01*
X144315590Y-136524829D01*
X144412263Y-136758218D01*
X144527044Y-136873000D01*
X138472956Y-136873000D01*
X138587737Y-136758218D01*
X138684410Y-136524829D01*
X138684410Y-135434590D01*
X138525660Y-135275840D01*
X137176920Y-135275840D01*
X137176920Y-135295840D01*
X136922920Y-135295840D01*
X136922920Y-135275840D01*
X135574180Y-135275840D01*
X135415430Y-135434590D01*
X135415430Y-136524829D01*
X135512103Y-136758218D01*
X135626884Y-136873000D01*
X121124459Y-136873000D01*
X120662761Y-136688320D01*
X120304691Y-136419768D01*
X120127000Y-135975541D01*
X120127000Y-134528172D01*
X120332538Y-134528172D01*
X120737709Y-135508761D01*
X121487293Y-136259655D01*
X122467173Y-136666536D01*
X123528172Y-136667462D01*
X124508761Y-136262291D01*
X125259655Y-135512707D01*
X125666536Y-134532827D01*
X125667199Y-133772851D01*
X135415430Y-133772851D01*
X135415430Y-134863090D01*
X135574180Y-135021840D01*
X136922920Y-135021840D01*
X136922920Y-133422910D01*
X137176920Y-133422910D01*
X137176920Y-135021840D01*
X138525660Y-135021840D01*
X138684410Y-134863090D01*
X138684410Y-133772851D01*
X144315590Y-133772851D01*
X144315590Y-134863090D01*
X144474340Y-135021840D01*
X145823080Y-135021840D01*
X145823080Y-133422910D01*
X146077080Y-133422910D01*
X146077080Y-135021840D01*
X147425820Y-135021840D01*
X147584570Y-134863090D01*
X147584570Y-133772851D01*
X147487897Y-133539462D01*
X147331380Y-133382944D01*
X150394025Y-133382944D01*
X150593615Y-133864818D01*
X151031621Y-134337188D01*
X151617054Y-134605983D01*
X151873000Y-134487367D01*
X151873000Y-133127000D01*
X152127000Y-133127000D01*
X152127000Y-134487367D01*
X152382946Y-134605983D01*
X152552417Y-134528172D01*
X157332538Y-134528172D01*
X157737709Y-135508761D01*
X158487293Y-136259655D01*
X159467173Y-136666536D01*
X160528172Y-136667462D01*
X161508761Y-136262291D01*
X162259655Y-135512707D01*
X162666536Y-134532827D01*
X162667462Y-133471828D01*
X162262291Y-132491239D01*
X161512707Y-131740345D01*
X160532827Y-131333464D01*
X159471828Y-131332538D01*
X158491239Y-131737709D01*
X157740345Y-132487293D01*
X157333464Y-133467173D01*
X157332538Y-134528172D01*
X152552417Y-134528172D01*
X152968379Y-134337188D01*
X153406385Y-133864818D01*
X153605975Y-133382944D01*
X153486836Y-133127000D01*
X152127000Y-133127000D01*
X151873000Y-133127000D01*
X150513164Y-133127000D01*
X150394025Y-133382944D01*
X147331380Y-133382944D01*
X147309269Y-133360833D01*
X147075880Y-133264160D01*
X146235830Y-133264160D01*
X146077080Y-133422910D01*
X145823080Y-133422910D01*
X145664330Y-133264160D01*
X144824280Y-133264160D01*
X144590891Y-133360833D01*
X144412263Y-133539462D01*
X144315590Y-133772851D01*
X138684410Y-133772851D01*
X138587737Y-133539462D01*
X138409109Y-133360833D01*
X138175720Y-133264160D01*
X137335670Y-133264160D01*
X137176920Y-133422910D01*
X136922920Y-133422910D01*
X136764170Y-133264160D01*
X135924120Y-133264160D01*
X135690731Y-133360833D01*
X135512103Y-133539462D01*
X135415430Y-133772851D01*
X125667199Y-133772851D01*
X125667462Y-133471828D01*
X125262291Y-132491239D01*
X124512707Y-131740345D01*
X123532827Y-131333464D01*
X122471828Y-131332538D01*
X121491239Y-131737709D01*
X120740345Y-132487293D01*
X120333464Y-133467173D01*
X120332538Y-134528172D01*
X120127000Y-134528172D01*
X120127000Y-129935490D01*
X135415430Y-129935490D01*
X135415430Y-131025729D01*
X135512103Y-131259118D01*
X135690731Y-131437747D01*
X135924120Y-131534420D01*
X136764170Y-131534420D01*
X136922920Y-131375670D01*
X136922920Y-129776740D01*
X137176920Y-129776740D01*
X137176920Y-131375670D01*
X137335670Y-131534420D01*
X138175720Y-131534420D01*
X138409109Y-131437747D01*
X138587737Y-131259118D01*
X138684410Y-131025729D01*
X138684410Y-129935490D01*
X138525660Y-129776740D01*
X137176920Y-129776740D01*
X136922920Y-129776740D01*
X135574180Y-129776740D01*
X135415430Y-129935490D01*
X120127000Y-129935490D01*
X120127000Y-128273751D01*
X135415430Y-128273751D01*
X135415430Y-129363990D01*
X135574180Y-129522740D01*
X136922920Y-129522740D01*
X136922920Y-127923810D01*
X137176920Y-127923810D01*
X137176920Y-129522740D01*
X138525660Y-129522740D01*
X138684410Y-129363990D01*
X138684410Y-128273751D01*
X139014610Y-128273751D01*
X139014610Y-129264930D01*
X139173360Y-129423680D01*
X139774705Y-129423680D01*
X139774705Y-127923810D01*
X139615955Y-127765060D01*
X139523300Y-127765060D01*
X139289911Y-127861733D01*
X139111283Y-128040362D01*
X139014610Y-128273751D01*
X138684410Y-128273751D01*
X138587737Y-128040362D01*
X138409109Y-127861733D01*
X138175720Y-127765060D01*
X137335670Y-127765060D01*
X137176920Y-127923810D01*
X136922920Y-127923810D01*
X136764170Y-127765060D01*
X135924120Y-127765060D01*
X135690731Y-127861733D01*
X135512103Y-128040362D01*
X135415430Y-128273751D01*
X120127000Y-128273751D01*
X120127000Y-118600000D01*
X122602560Y-118600000D01*
X122602560Y-119900000D01*
X122646838Y-120135317D01*
X122785910Y-120351441D01*
X122998110Y-120496431D01*
X123250000Y-120547440D01*
X124800000Y-120547440D01*
X125035317Y-120503162D01*
X125251441Y-120364090D01*
X125396431Y-120151890D01*
X125425164Y-120010000D01*
X128905532Y-120010000D01*
X128671057Y-120106883D01*
X128407808Y-120369673D01*
X128265162Y-120713201D01*
X128264838Y-121085167D01*
X128406883Y-121428943D01*
X128669673Y-121692192D01*
X129013201Y-121834838D01*
X129385167Y-121835162D01*
X129728943Y-121693117D01*
X129762118Y-121660000D01*
X132353002Y-121660000D01*
X132643841Y-121602148D01*
X132890403Y-121437401D01*
X133622402Y-120705402D01*
X133787149Y-120458840D01*
X133845001Y-120168001D01*
X133845001Y-119230353D01*
X136198352Y-116877002D01*
X136273748Y-116877002D01*
X136115000Y-117035750D01*
X136115000Y-117526310D01*
X136211673Y-117759699D01*
X136390302Y-117938327D01*
X136623691Y-118035000D01*
X137239250Y-118035000D01*
X137398000Y-117876250D01*
X137398000Y-116877000D01*
X137652000Y-116877000D01*
X137652000Y-117876250D01*
X137810750Y-118035000D01*
X138426309Y-118035000D01*
X138659698Y-117938327D01*
X138838327Y-117759699D01*
X138935000Y-117526310D01*
X138935000Y-117035750D01*
X144065000Y-117035750D01*
X144065000Y-117526310D01*
X144161673Y-117759699D01*
X144340302Y-117938327D01*
X144573691Y-118035000D01*
X145189250Y-118035000D01*
X145348000Y-117876250D01*
X145348000Y-116877000D01*
X144223750Y-116877000D01*
X144065000Y-117035750D01*
X138935000Y-117035750D01*
X138776250Y-116877000D01*
X137652000Y-116877000D01*
X137398000Y-116877000D01*
X137378000Y-116877000D01*
X137378000Y-116623000D01*
X137398000Y-116623000D01*
X137398000Y-116603000D01*
X137652000Y-116603000D01*
X137652000Y-116623000D01*
X138776250Y-116623000D01*
X138935000Y-116464250D01*
X138935000Y-115973690D01*
X144065000Y-115973690D01*
X144065000Y-116464250D01*
X144223750Y-116623000D01*
X145348000Y-116623000D01*
X145348000Y-115623750D01*
X145189250Y-115465000D01*
X144573691Y-115465000D01*
X144340302Y-115561673D01*
X144161673Y-115740301D01*
X144065000Y-115973690D01*
X138935000Y-115973690D01*
X138838327Y-115740301D01*
X138659698Y-115561673D01*
X138426309Y-115465000D01*
X137810750Y-115465000D01*
X137652002Y-115623748D01*
X137652002Y-115465000D01*
X137610354Y-115465000D01*
X137926542Y-115148812D01*
X138069673Y-115292192D01*
X138413201Y-115434838D01*
X138785167Y-115435162D01*
X139128943Y-115293117D01*
X139392192Y-115030327D01*
X139534838Y-114686799D01*
X139535162Y-114314833D01*
X139393117Y-113971057D01*
X139248833Y-113826521D01*
X139337401Y-113737953D01*
X139502148Y-113491391D01*
X139560000Y-113200552D01*
X139560000Y-110537804D01*
X143059597Y-114037401D01*
X143306158Y-114202148D01*
X143354412Y-114211746D01*
X143596998Y-114260000D01*
X143837537Y-114260000D01*
X143869673Y-114292192D01*
X144213201Y-114434838D01*
X144585167Y-114435162D01*
X144928943Y-114293117D01*
X145192192Y-114030327D01*
X145334838Y-113686799D01*
X145335162Y-113314833D01*
X145193117Y-112971057D01*
X145019803Y-112797440D01*
X145122638Y-112797440D01*
X145825001Y-113499803D01*
X145825001Y-115465000D01*
X145760750Y-115465000D01*
X145602000Y-115623750D01*
X145602000Y-116623000D01*
X145622000Y-116623000D01*
X145622000Y-116877000D01*
X145602000Y-116877000D01*
X145602000Y-117876250D01*
X145760750Y-118035000D01*
X145825001Y-118035000D01*
X145825001Y-119952560D01*
X144700000Y-119952560D01*
X144464683Y-119996838D01*
X144248559Y-120135910D01*
X144103569Y-120348110D01*
X144074836Y-120490000D01*
X138926742Y-120490000D01*
X138903162Y-120364683D01*
X138764090Y-120148559D01*
X138551890Y-120003569D01*
X138300000Y-119952560D01*
X136750000Y-119952560D01*
X136514683Y-119996838D01*
X136298559Y-120135910D01*
X136153569Y-120348110D01*
X136124836Y-120490000D01*
X135750000Y-120490000D01*
X135459160Y-120547852D01*
X135212599Y-120712599D01*
X134860320Y-121064878D01*
X134814833Y-121064838D01*
X134471057Y-121206883D01*
X134207808Y-121469673D01*
X134065162Y-121813201D01*
X134064838Y-122185167D01*
X134206883Y-122528943D01*
X134469673Y-122792192D01*
X134813201Y-122934838D01*
X135185167Y-122935162D01*
X135528943Y-122793117D01*
X135792192Y-122530327D01*
X135934838Y-122186799D01*
X135934879Y-122139923D01*
X136064802Y-122010000D01*
X136123258Y-122010000D01*
X136146838Y-122135317D01*
X136285910Y-122351441D01*
X136498110Y-122496431D01*
X136750000Y-122547440D01*
X138300000Y-122547440D01*
X138535317Y-122503162D01*
X138751441Y-122364090D01*
X138896431Y-122151890D01*
X138925164Y-122010000D01*
X144073258Y-122010000D01*
X144096838Y-122135317D01*
X144235910Y-122351441D01*
X144448110Y-122496431D01*
X144700000Y-122547440D01*
X145130760Y-122547440D01*
X143517318Y-124160882D01*
X143286799Y-124065162D01*
X142914833Y-124064838D01*
X142571057Y-124206883D01*
X142307808Y-124469673D01*
X142165162Y-124813201D01*
X142164838Y-125185167D01*
X142306883Y-125528943D01*
X142340000Y-125562118D01*
X142340000Y-127752620D01*
X142049910Y-127752620D01*
X141894548Y-127781853D01*
X141750190Y-127752620D01*
X141249810Y-127752620D01*
X141094448Y-127781853D01*
X140950090Y-127752620D01*
X140449710Y-127752620D01*
X140309816Y-127778943D01*
X140276300Y-127765060D01*
X140183645Y-127765060D01*
X140038845Y-127909860D01*
X139998269Y-127935970D01*
X139853279Y-128148170D01*
X139802270Y-128400060D01*
X139802270Y-129697680D01*
X139774705Y-129697680D01*
X139774705Y-129677680D01*
X139173360Y-129677680D01*
X139014610Y-129836430D01*
X139014610Y-130827609D01*
X139111283Y-131060998D01*
X139114642Y-131064357D01*
X139085570Y-131064332D01*
X138686797Y-131229102D01*
X138381434Y-131533933D01*
X138215969Y-131932417D01*
X138215592Y-132363890D01*
X138380362Y-132762663D01*
X138685193Y-133068026D01*
X139083677Y-133233491D01*
X139515150Y-133233868D01*
X139913923Y-133069098D01*
X140219286Y-132764267D01*
X140384751Y-132365783D01*
X140385128Y-131934310D01*
X140220358Y-131535537D01*
X140021468Y-131336300D01*
X140026802Y-131336300D01*
X140026802Y-131180879D01*
X140031293Y-131183948D01*
X140183645Y-131336300D01*
X140276300Y-131336300D01*
X140313069Y-131321070D01*
X140449710Y-131348740D01*
X140950090Y-131348740D01*
X141105452Y-131319507D01*
X141249810Y-131348740D01*
X141750190Y-131348740D01*
X141905552Y-131319507D01*
X142049910Y-131348740D01*
X142550290Y-131348740D01*
X142705652Y-131319507D01*
X142850010Y-131348740D01*
X142966230Y-131348740D01*
X142780714Y-131533933D01*
X142615249Y-131932417D01*
X142614872Y-132363890D01*
X142779642Y-132762663D01*
X143084473Y-133068026D01*
X143482957Y-133233491D01*
X143914430Y-133233868D01*
X144313203Y-133069098D01*
X144618566Y-132764267D01*
X144784031Y-132365783D01*
X144784408Y-131934310D01*
X144619638Y-131535537D01*
X144314807Y-131230174D01*
X143916323Y-131064709D01*
X143870651Y-131064669D01*
X143946821Y-130953190D01*
X143997830Y-130701300D01*
X143997830Y-129935490D01*
X144315590Y-129935490D01*
X144315590Y-131025729D01*
X144412263Y-131259118D01*
X144590891Y-131437747D01*
X144824280Y-131534420D01*
X145664330Y-131534420D01*
X145823080Y-131375670D01*
X145823080Y-129776740D01*
X146077080Y-129776740D01*
X146077080Y-131375670D01*
X146235830Y-131534420D01*
X147075880Y-131534420D01*
X147309269Y-131437747D01*
X147487897Y-131259118D01*
X147584570Y-131025729D01*
X147584570Y-129935490D01*
X147425820Y-129776740D01*
X146077080Y-129776740D01*
X145823080Y-129776740D01*
X144474340Y-129776740D01*
X144315590Y-129935490D01*
X143997830Y-129935490D01*
X143997830Y-128400060D01*
X143974064Y-128273751D01*
X144315590Y-128273751D01*
X144315590Y-129363990D01*
X144474340Y-129522740D01*
X145823080Y-129522740D01*
X145823080Y-127923810D01*
X146077080Y-127923810D01*
X146077080Y-129522740D01*
X147425820Y-129522740D01*
X147584570Y-129363990D01*
X147584570Y-128273751D01*
X147487897Y-128040362D01*
X147309269Y-127861733D01*
X147075880Y-127765060D01*
X146235830Y-127765060D01*
X146077080Y-127923810D01*
X145823080Y-127923810D01*
X145664330Y-127765060D01*
X144824280Y-127765060D01*
X144590891Y-127861733D01*
X144412263Y-128040362D01*
X144315590Y-128273751D01*
X143974064Y-128273751D01*
X143953552Y-128164743D01*
X143860000Y-128019359D01*
X143860000Y-125738717D01*
X144043841Y-125702148D01*
X144290403Y-125537401D01*
X146590000Y-123237804D01*
X146590000Y-124594000D01*
X146651658Y-124903974D01*
X146715821Y-125000000D01*
X146827244Y-125166756D01*
X150598175Y-128937687D01*
X150532559Y-128979910D01*
X150387569Y-129192110D01*
X150336560Y-129444000D01*
X150336560Y-131476000D01*
X150380838Y-131711317D01*
X150519910Y-131927441D01*
X150682948Y-132038840D01*
X150593615Y-132135182D01*
X150394025Y-132617056D01*
X150513164Y-132873000D01*
X151873000Y-132873000D01*
X151873000Y-132853000D01*
X152127000Y-132853000D01*
X152127000Y-132873000D01*
X153486836Y-132873000D01*
X153605975Y-132617056D01*
X153406385Y-132135182D01*
X153315903Y-132037602D01*
X153467441Y-131940090D01*
X153612431Y-131727890D01*
X153663440Y-131476000D01*
X153663440Y-129444000D01*
X153619162Y-129208683D01*
X153480090Y-128992559D01*
X153267890Y-128847569D01*
X153016000Y-128796560D01*
X152689899Y-128796560D01*
X152617001Y-128687461D01*
X152572756Y-128621243D01*
X148210000Y-124258488D01*
X148210000Y-121150461D01*
X148413201Y-121234838D01*
X148785167Y-121235162D01*
X149128943Y-121093117D01*
X149392192Y-120830327D01*
X149534838Y-120486799D01*
X149534879Y-120439923D01*
X149722266Y-120252536D01*
X149785910Y-120351441D01*
X149998110Y-120496431D01*
X150250000Y-120547440D01*
X151800000Y-120547440D01*
X152035317Y-120503162D01*
X152251441Y-120364090D01*
X152396431Y-120151890D01*
X152425164Y-120010000D01*
X157573258Y-120010000D01*
X157596838Y-120135317D01*
X157735910Y-120351441D01*
X157948110Y-120496431D01*
X158200000Y-120547440D01*
X159750000Y-120547440D01*
X159985317Y-120503162D01*
X160201441Y-120364090D01*
X160346431Y-120151890D01*
X160397440Y-119900000D01*
X160397440Y-118600000D01*
X160353162Y-118364683D01*
X160214090Y-118148559D01*
X160001890Y-118003569D01*
X159750000Y-117952560D01*
X158200000Y-117952560D01*
X157964683Y-117996838D01*
X157748559Y-118135910D01*
X157603569Y-118348110D01*
X157574836Y-118490000D01*
X152426742Y-118490000D01*
X152403162Y-118364683D01*
X152264090Y-118148559D01*
X152051890Y-118003569D01*
X151800000Y-117952560D01*
X150250000Y-117952560D01*
X150014683Y-117996838D01*
X149798559Y-118135910D01*
X149653569Y-118348110D01*
X149623779Y-118495216D01*
X149359160Y-118547852D01*
X149112599Y-118712599D01*
X148460320Y-119364878D01*
X148414833Y-119364838D01*
X148210000Y-119449473D01*
X148210000Y-115035750D01*
X149615000Y-115035750D01*
X149615000Y-115526310D01*
X149711673Y-115759699D01*
X149890302Y-115938327D01*
X150123691Y-116035000D01*
X150739250Y-116035000D01*
X150898000Y-115876250D01*
X150898000Y-114877000D01*
X151152000Y-114877000D01*
X151152000Y-115876250D01*
X151310750Y-116035000D01*
X151926309Y-116035000D01*
X152159698Y-115938327D01*
X152338327Y-115759699D01*
X152435000Y-115526310D01*
X152435000Y-115035750D01*
X157565000Y-115035750D01*
X157565000Y-115526310D01*
X157661673Y-115759699D01*
X157840302Y-115938327D01*
X158073691Y-116035000D01*
X158689250Y-116035000D01*
X158848000Y-115876250D01*
X158848000Y-114877000D01*
X159102000Y-114877000D01*
X159102000Y-115876250D01*
X159260750Y-116035000D01*
X159876309Y-116035000D01*
X160109698Y-115938327D01*
X160288327Y-115759699D01*
X160385000Y-115526310D01*
X160385000Y-115035750D01*
X160226250Y-114877000D01*
X159102000Y-114877000D01*
X158848000Y-114877000D01*
X157723750Y-114877000D01*
X157565000Y-115035750D01*
X152435000Y-115035750D01*
X152276250Y-114877000D01*
X151152000Y-114877000D01*
X150898000Y-114877000D01*
X149773750Y-114877000D01*
X149615000Y-115035750D01*
X148210000Y-115035750D01*
X148210000Y-113973690D01*
X149615000Y-113973690D01*
X149615000Y-114464250D01*
X149773750Y-114623000D01*
X150898000Y-114623000D01*
X150898000Y-113623750D01*
X151152000Y-113623750D01*
X151152000Y-114623000D01*
X152276250Y-114623000D01*
X152435000Y-114464250D01*
X152435000Y-113973690D01*
X157565000Y-113973690D01*
X157565000Y-114464250D01*
X157723750Y-114623000D01*
X158848000Y-114623000D01*
X158848000Y-113623750D01*
X159102000Y-113623750D01*
X159102000Y-114623000D01*
X160226250Y-114623000D01*
X160385000Y-114464250D01*
X160385000Y-113973690D01*
X160288327Y-113740301D01*
X160109698Y-113561673D01*
X159876309Y-113465000D01*
X159260750Y-113465000D01*
X159102000Y-113623750D01*
X158848000Y-113623750D01*
X158689250Y-113465000D01*
X158073691Y-113465000D01*
X157840302Y-113561673D01*
X157661673Y-113740301D01*
X157565000Y-113973690D01*
X152435000Y-113973690D01*
X152338327Y-113740301D01*
X152159698Y-113561673D01*
X151926309Y-113465000D01*
X151310750Y-113465000D01*
X151152000Y-113623750D01*
X150898000Y-113623750D01*
X150739250Y-113465000D01*
X150123691Y-113465000D01*
X149890302Y-113561673D01*
X149711673Y-113740301D01*
X149615000Y-113973690D01*
X148210000Y-113973690D01*
X148210000Y-112250000D01*
X148187093Y-112134838D01*
X148148343Y-111940027D01*
X147972757Y-111677244D01*
X145422756Y-109127244D01*
X145362226Y-109086799D01*
X145164592Y-108954744D01*
X145064090Y-108798559D01*
X144960000Y-108727437D01*
X144960000Y-107362463D01*
X144992192Y-107330327D01*
X145134838Y-106986799D01*
X145135162Y-106614833D01*
X144993117Y-106271057D01*
X144730327Y-106007808D01*
X144386799Y-105865162D01*
X144014833Y-105864838D01*
X143671057Y-106006883D01*
X143407808Y-106269673D01*
X143265162Y-106613201D01*
X143264838Y-106985167D01*
X143406883Y-107328943D01*
X143440000Y-107362118D01*
X143440000Y-108727069D01*
X143348559Y-108785910D01*
X143203569Y-108998110D01*
X143152560Y-109250000D01*
X143152560Y-109827758D01*
X141460000Y-108135198D01*
X141460000Y-99035000D01*
X144400000Y-99035000D01*
X144630795Y-98991573D01*
X144842767Y-98855173D01*
X144849201Y-98845756D01*
X144940000Y-98907796D01*
X144940000Y-99737537D01*
X144907808Y-99769673D01*
X144765162Y-100113201D01*
X144764838Y-100485167D01*
X144906883Y-100828943D01*
X145169673Y-101092192D01*
X145513201Y-101234838D01*
X145885167Y-101235162D01*
X146228943Y-101093117D01*
X146492192Y-100830327D01*
X146634838Y-100486799D01*
X146634970Y-100335118D01*
X146685167Y-100335162D01*
X147028943Y-100193117D01*
X147292192Y-99930327D01*
X147434838Y-99586799D01*
X147434879Y-99539923D01*
X148337401Y-98637401D01*
X148500115Y-98393881D01*
X148588355Y-98606924D01*
X148978642Y-99035183D01*
X149503108Y-99281486D01*
X149733000Y-99160819D01*
X149733000Y-97967000D01*
X149713000Y-97967000D01*
X149713000Y-97713000D01*
X149733000Y-97713000D01*
X149733000Y-97693000D01*
X149987000Y-97693000D01*
X149987000Y-97713000D01*
X150007000Y-97713000D01*
X150007000Y-97967000D01*
X149987000Y-97967000D01*
X149987000Y-99160819D01*
X150216892Y-99281486D01*
X150741358Y-99035183D01*
X151131645Y-98606924D01*
X151131655Y-98606899D01*
X151320853Y-98890054D01*
X151802622Y-99211961D01*
X152370907Y-99325000D01*
X152429093Y-99325000D01*
X152997378Y-99211961D01*
X153479147Y-98890054D01*
X153801054Y-98408285D01*
X153840000Y-98212490D01*
X153840000Y-99494844D01*
X149862599Y-103472245D01*
X149697852Y-103718807D01*
X149640000Y-104009646D01*
X149640000Y-111637537D01*
X149607808Y-111669673D01*
X149465162Y-112013201D01*
X149464838Y-112385167D01*
X149606883Y-112728943D01*
X149869673Y-112992192D01*
X150213201Y-113134838D01*
X150585167Y-113135162D01*
X150928943Y-112993117D01*
X151192192Y-112730327D01*
X151334838Y-112386799D01*
X151335162Y-112014833D01*
X151193117Y-111671057D01*
X151160000Y-111637882D01*
X151160000Y-104324448D01*
X151332515Y-104151933D01*
X151362851Y-104304438D01*
X151527598Y-104551000D01*
X151754466Y-104777868D01*
X151706089Y-104848670D01*
X151655080Y-105100560D01*
X151655080Y-106299440D01*
X151699358Y-106534757D01*
X151838430Y-106750881D01*
X151840716Y-106752443D01*
X151706189Y-106949330D01*
X151655180Y-107201220D01*
X151655180Y-107998780D01*
X151699458Y-108234097D01*
X151838530Y-108450221D01*
X152050730Y-108595211D01*
X152302620Y-108646220D01*
X153100180Y-108646220D01*
X153335497Y-108601942D01*
X153450693Y-108527815D01*
X153549330Y-108595211D01*
X153801220Y-108646220D01*
X154598780Y-108646220D01*
X154834097Y-108601942D01*
X155050221Y-108462870D01*
X155154897Y-108309672D01*
X155192721Y-108302148D01*
X155439283Y-108137401D01*
X156340000Y-107236684D01*
X156340000Y-110637537D01*
X156307808Y-110669673D01*
X156165162Y-111013201D01*
X156164838Y-111385167D01*
X156306883Y-111728943D01*
X156569673Y-111992192D01*
X156913201Y-112134838D01*
X157285167Y-112135162D01*
X157628943Y-111993117D01*
X157892192Y-111730327D01*
X158034838Y-111386799D01*
X158035162Y-111014833D01*
X157893117Y-110671057D01*
X157860000Y-110637882D01*
X157860000Y-104900000D01*
X157802148Y-104609161D01*
X157637401Y-104362599D01*
X156435122Y-103160320D01*
X156435162Y-103114833D01*
X156371186Y-102960000D01*
X157237537Y-102960000D01*
X157269673Y-102992192D01*
X157613201Y-103134838D01*
X157985167Y-103135162D01*
X158328943Y-102993117D01*
X158592192Y-102730327D01*
X158734838Y-102386799D01*
X158735162Y-102014833D01*
X158593117Y-101671057D01*
X158330327Y-101407808D01*
X157986799Y-101265162D01*
X157614833Y-101264838D01*
X157271057Y-101406883D01*
X157237882Y-101440000D01*
X156212747Y-101440000D01*
X156234838Y-101386799D01*
X156235162Y-101014833D01*
X156093117Y-100671057D01*
X155830327Y-100407808D01*
X155486799Y-100265162D01*
X155192286Y-100264905D01*
X155302148Y-100100485D01*
X155360000Y-99809646D01*
X155360000Y-96561790D01*
X155573170Y-96880821D01*
X156136044Y-97256922D01*
X156800000Y-97388991D01*
X157463956Y-97256922D01*
X158026830Y-96880821D01*
X158402931Y-96317947D01*
X158535000Y-95653991D01*
X158535000Y-95586009D01*
X158402931Y-94922053D01*
X158026830Y-94359179D01*
X157463956Y-93983078D01*
X156800000Y-93851009D01*
X156136044Y-93983078D01*
X155573170Y-94359179D01*
X155360000Y-94678210D01*
X155360000Y-93362463D01*
X155392192Y-93330327D01*
X155534838Y-92986799D01*
X155535162Y-92614833D01*
X155393117Y-92271057D01*
X155182428Y-92060000D01*
X155500000Y-92060000D01*
X155790839Y-92002148D01*
X156037401Y-91837401D01*
X157337401Y-90537401D01*
X157502148Y-90290839D01*
X157560000Y-90000000D01*
X157560000Y-89747440D01*
X157900000Y-89747440D01*
X158135317Y-89703162D01*
X158351441Y-89564090D01*
X158496431Y-89351890D01*
X158547440Y-89100000D01*
X158547440Y-86900000D01*
X158503162Y-86664683D01*
X158364090Y-86448559D01*
X158151890Y-86303569D01*
X157900000Y-86252560D01*
X155700000Y-86252560D01*
X155464683Y-86296838D01*
X155248559Y-86435910D01*
X155103569Y-86648110D01*
X155052560Y-86900000D01*
X155052560Y-89100000D01*
X155096838Y-89335317D01*
X155235910Y-89551441D01*
X155448110Y-89696431D01*
X155700000Y-89747440D01*
X155977758Y-89747440D01*
X155185198Y-90540000D01*
X150005513Y-90540000D01*
X150772756Y-89772757D01*
X150881524Y-89609974D01*
X150948342Y-89509974D01*
X151010000Y-89200000D01*
X151010000Y-85900000D01*
X150984352Y-85771057D01*
X150948343Y-85590027D01*
X150772757Y-85327244D01*
X150572756Y-85127244D01*
X150309974Y-84951658D01*
X150000000Y-84890000D01*
X147200000Y-84890000D01*
X146890026Y-84951658D01*
X146825698Y-84994641D01*
X146627243Y-85127244D01*
X145240501Y-86513987D01*
X145334838Y-86286799D01*
X145335162Y-85914833D01*
X145193117Y-85571057D01*
X144930327Y-85307808D01*
X144586799Y-85165162D01*
X144214833Y-85164838D01*
X144053838Y-85231360D01*
X144030327Y-85207808D01*
X143686799Y-85065162D01*
X143314833Y-85064838D01*
X142971057Y-85206883D01*
X142707808Y-85469673D01*
X142565162Y-85813201D01*
X142565121Y-85860077D01*
X142398674Y-86026524D01*
X142293117Y-85771057D01*
X142030327Y-85507808D01*
X141686799Y-85365162D01*
X141314833Y-85364838D01*
X140971057Y-85506883D01*
X140937882Y-85540000D01*
X135649448Y-85540000D01*
X135358608Y-85597852D01*
X135112047Y-85762599D01*
X134535053Y-86339593D01*
X134535162Y-86214833D01*
X134393117Y-85871057D01*
X134130327Y-85607808D01*
X133786799Y-85465162D01*
X133613593Y-85465011D01*
X133837401Y-85241203D01*
X134002148Y-84994641D01*
X134060000Y-84703802D01*
X134060000Y-83860000D01*
X149664860Y-83860000D01*
X149664838Y-83885167D01*
X149806883Y-84228943D01*
X150069673Y-84492192D01*
X150413201Y-84634838D01*
X150785167Y-84635162D01*
X151128943Y-84493117D01*
X151392192Y-84230327D01*
X151534838Y-83886799D01*
X151535162Y-83514833D01*
X151393117Y-83171057D01*
X151130327Y-82907808D01*
X150786799Y-82765162D01*
X150739923Y-82765121D01*
X150537401Y-82562599D01*
X150485878Y-82528172D01*
X157332538Y-82528172D01*
X157737709Y-83508761D01*
X158487293Y-84259655D01*
X159467173Y-84666536D01*
X160528172Y-84667462D01*
X161508761Y-84262291D01*
X162259655Y-83512707D01*
X162666536Y-82532827D01*
X162667462Y-81471828D01*
X162262291Y-80491239D01*
X161512707Y-79740345D01*
X160532827Y-79333464D01*
X159471828Y-79332538D01*
X158491239Y-79737709D01*
X157740345Y-80487293D01*
X157333464Y-81467173D01*
X157332538Y-82528172D01*
X150485878Y-82528172D01*
X150290839Y-82397852D01*
X150000000Y-82340000D01*
X133300000Y-82340000D01*
X133009161Y-82397852D01*
X132762599Y-82562599D01*
X132597852Y-82809161D01*
X132540000Y-83100000D01*
X132540000Y-84389000D01*
X132026825Y-84902175D01*
X132002931Y-84782053D01*
X131626830Y-84219179D01*
X131063956Y-83843078D01*
X130400000Y-83711009D01*
X129736044Y-83843078D01*
X129173170Y-84219179D01*
X128797069Y-84782053D01*
X128665000Y-85446009D01*
X128665000Y-85513991D01*
X128797069Y-86177947D01*
X129173170Y-86740821D01*
X129736044Y-87116922D01*
X130400000Y-87248991D01*
X130540000Y-87221143D01*
X130540000Y-88694487D01*
X128732756Y-86887244D01*
X128647574Y-86830327D01*
X128469974Y-86711658D01*
X128160000Y-86650000D01*
X126930566Y-86650000D01*
X126643186Y-86457979D01*
X126228135Y-86375420D01*
X125571865Y-86375420D01*
X125156814Y-86457979D01*
X124804951Y-86693086D01*
X124569844Y-87044949D01*
X124487285Y-87460000D01*
X124569844Y-87875051D01*
X124716809Y-88095000D01*
X124569844Y-88314949D01*
X124487285Y-88730000D01*
X124569844Y-89145051D01*
X124719641Y-89369238D01*
X124555019Y-89706065D01*
X124681932Y-89873000D01*
X125773000Y-89873000D01*
X125773000Y-89853000D01*
X126027000Y-89853000D01*
X126027000Y-89873000D01*
X127118068Y-89873000D01*
X127244981Y-89706065D01*
X127080359Y-89369238D01*
X127230156Y-89145051D01*
X127312715Y-88730000D01*
X127230156Y-88314949D01*
X127200122Y-88270000D01*
X127824488Y-88270000D01*
X129427244Y-89872757D01*
X129427247Y-89872759D01*
X129482570Y-89928082D01*
X129590000Y-90188083D01*
X129590000Y-91352560D01*
X129300000Y-91352560D01*
X129064683Y-91396838D01*
X128848559Y-91535910D01*
X128703569Y-91748110D01*
X128652560Y-92000000D01*
X128652560Y-93271819D01*
X128568001Y-93254999D01*
X126331999Y-93254999D01*
X126041159Y-93312851D01*
X125794598Y-93477598D01*
X123862599Y-95409597D01*
X123697852Y-95656159D01*
X123640000Y-95946998D01*
X123640000Y-98252560D01*
X123550000Y-98252560D01*
X123314683Y-98296838D01*
X123098559Y-98435910D01*
X122953569Y-98648110D01*
X122902560Y-98900000D01*
X122902560Y-99800000D01*
X122946838Y-100035317D01*
X123085910Y-100251441D01*
X123298110Y-100396431D01*
X123550000Y-100447440D01*
X125250000Y-100447440D01*
X125485317Y-100403162D01*
X125525282Y-100377445D01*
X125677598Y-100605402D01*
X125744598Y-100672402D01*
X125991159Y-100837149D01*
X126281999Y-100895001D01*
X129114999Y-100895001D01*
X129405838Y-100837149D01*
X129652400Y-100672402D01*
X129877362Y-100447440D01*
X131150000Y-100447440D01*
X131385317Y-100403162D01*
X131601441Y-100264090D01*
X131746431Y-100051890D01*
X131797440Y-99800000D01*
X131797440Y-98900000D01*
X131753162Y-98664683D01*
X131614090Y-98448559D01*
X131401890Y-98303569D01*
X131160000Y-98254585D01*
X131160000Y-97662463D01*
X131192192Y-97630327D01*
X131334838Y-97286799D01*
X131335162Y-96914833D01*
X131193117Y-96571057D01*
X131048557Y-96426245D01*
X131339680Y-96135122D01*
X131385167Y-96135162D01*
X131728943Y-95993117D01*
X131992192Y-95730327D01*
X132134838Y-95386799D01*
X132135013Y-95186252D01*
X132305402Y-95072402D01*
X132372402Y-95005402D01*
X132537149Y-94758841D01*
X132595001Y-94468001D01*
X132595001Y-94094800D01*
X134000600Y-92689201D01*
X134008427Y-92730795D01*
X134144827Y-92942767D01*
X134352949Y-93084971D01*
X134600000Y-93135000D01*
X137400000Y-93135000D01*
X137630795Y-93091573D01*
X137718712Y-93035000D01*
X137990000Y-93035000D01*
X137990000Y-93131702D01*
X138029546Y-93131702D01*
X138015029Y-93152949D01*
X137999674Y-93228776D01*
X137990000Y-93238450D01*
X137990000Y-93276546D01*
X137965000Y-93400000D01*
X137965000Y-93665000D01*
X134700000Y-93665000D01*
X134469205Y-93708427D01*
X134257233Y-93844827D01*
X134115029Y-94052949D01*
X134065000Y-94300000D01*
X134065000Y-95300000D01*
X134108427Y-95530795D01*
X134244827Y-95742767D01*
X134452949Y-95884971D01*
X134700000Y-95935000D01*
X139940000Y-95935000D01*
X139940000Y-96269700D01*
X139822998Y-96269700D01*
X139822998Y-96428448D01*
X139664250Y-96269700D01*
X139473691Y-96269700D01*
X139240302Y-96366373D01*
X139166778Y-96439896D01*
X138986799Y-96365162D01*
X138614833Y-96364838D01*
X138271057Y-96506883D01*
X138007808Y-96769673D01*
X137865162Y-97113201D01*
X137864838Y-97485167D01*
X138006883Y-97828943D01*
X138140000Y-97962293D01*
X138140000Y-101740000D01*
X138135000Y-101740000D01*
X137892414Y-101788254D01*
X137844160Y-101797852D01*
X137597599Y-101962599D01*
X137297440Y-102262758D01*
X137297440Y-102200000D01*
X137253162Y-101964683D01*
X137114090Y-101748559D01*
X137044289Y-101700866D01*
X137101441Y-101664090D01*
X137246431Y-101451890D01*
X137297440Y-101200000D01*
X137297440Y-100700000D01*
X137253162Y-100464683D01*
X137114090Y-100248559D01*
X136960000Y-100143274D01*
X136960000Y-99900000D01*
X136902148Y-99609161D01*
X136835080Y-99508787D01*
X136835162Y-99414833D01*
X136693117Y-99071057D01*
X136430327Y-98807808D01*
X136086799Y-98665162D01*
X135714833Y-98664838D01*
X135371057Y-98806883D01*
X135107808Y-99069673D01*
X134965162Y-99413201D01*
X134964838Y-99785167D01*
X135106883Y-100128943D01*
X135264063Y-100286397D01*
X135153569Y-100448110D01*
X135102560Y-100700000D01*
X135102560Y-101200000D01*
X135146838Y-101435317D01*
X135285910Y-101651441D01*
X135355711Y-101699134D01*
X135298559Y-101735910D01*
X135153569Y-101948110D01*
X135102560Y-102200000D01*
X135102560Y-102365002D01*
X134914833Y-102364838D01*
X134897440Y-102372025D01*
X134897440Y-101750000D01*
X134853162Y-101514683D01*
X134714090Y-101298559D01*
X134501890Y-101153569D01*
X134283918Y-101109428D01*
X134334838Y-100986799D01*
X134335162Y-100614833D01*
X134245337Y-100397440D01*
X134250000Y-100397440D01*
X134485317Y-100353162D01*
X134701441Y-100214090D01*
X134846431Y-100001890D01*
X134897440Y-99750000D01*
X134897440Y-98850000D01*
X134853162Y-98614683D01*
X134714090Y-98398559D01*
X134501890Y-98253569D01*
X134250000Y-98202560D01*
X132550000Y-98202560D01*
X132314683Y-98246838D01*
X132098559Y-98385910D01*
X131953569Y-98598110D01*
X131902560Y-98850000D01*
X131902560Y-99750000D01*
X131946838Y-99985317D01*
X132085910Y-100201441D01*
X132298110Y-100346431D01*
X132345006Y-100355928D01*
X131677598Y-101023336D01*
X131512851Y-101269898D01*
X131511190Y-101278250D01*
X131401890Y-101203569D01*
X131150000Y-101152560D01*
X129450000Y-101152560D01*
X129214683Y-101196838D01*
X128998559Y-101335910D01*
X128853569Y-101548110D01*
X128850919Y-101561197D01*
X128714090Y-101348559D01*
X128501890Y-101203569D01*
X128250000Y-101152560D01*
X126550000Y-101152560D01*
X126314683Y-101196838D01*
X126098559Y-101335910D01*
X125953569Y-101548110D01*
X125902560Y-101800000D01*
X125902560Y-102700000D01*
X125946838Y-102935317D01*
X126085910Y-103151441D01*
X126298110Y-103296431D01*
X126550000Y-103347440D01*
X127822638Y-103347440D01*
X128020382Y-103545184D01*
X127871057Y-103606883D01*
X127607808Y-103869673D01*
X127465162Y-104213201D01*
X127464838Y-104585167D01*
X127606883Y-104928943D01*
X127640000Y-104962118D01*
X127640000Y-105023258D01*
X127514683Y-105046838D01*
X127490594Y-105062339D01*
X127376309Y-105015000D01*
X127235750Y-105015000D01*
X127077000Y-105173750D01*
X127077000Y-105775000D01*
X127097000Y-105775000D01*
X127097000Y-106025000D01*
X127077000Y-106025000D01*
X127077000Y-106047000D01*
X126823000Y-106047000D01*
X126823000Y-106025000D01*
X126173750Y-106025000D01*
X126015000Y-106183750D01*
X126015000Y-106276310D01*
X126111673Y-106509699D01*
X126290302Y-106688327D01*
X126523691Y-106785000D01*
X126664250Y-106785000D01*
X126822998Y-106626252D01*
X126822998Y-106785000D01*
X126892629Y-106785000D01*
X126807808Y-106869673D01*
X126665162Y-107213201D01*
X126664838Y-107585167D01*
X126806883Y-107928943D01*
X127069673Y-108192192D01*
X127413201Y-108334838D01*
X127785167Y-108335162D01*
X128128943Y-108193117D01*
X128392192Y-107930327D01*
X128534838Y-107586799D01*
X128534879Y-107539923D01*
X128587401Y-107487401D01*
X128752148Y-107240839D01*
X128810000Y-106950000D01*
X128810000Y-106601563D01*
X128946431Y-106401890D01*
X128997440Y-106150000D01*
X128997440Y-105997546D01*
X129102148Y-105840839D01*
X129160000Y-105550000D01*
X129160000Y-104962463D01*
X129192192Y-104930327D01*
X129254785Y-104779587D01*
X135640000Y-111164802D01*
X135640000Y-112937537D01*
X135607808Y-112969673D01*
X135465162Y-113313201D01*
X135464838Y-113685167D01*
X135606883Y-114028943D01*
X135869673Y-114292192D01*
X135949754Y-114325444D01*
X132322638Y-117952560D01*
X131200000Y-117952560D01*
X130964683Y-117996838D01*
X130748559Y-118135910D01*
X130603569Y-118348110D01*
X130574836Y-118490000D01*
X125426742Y-118490000D01*
X125403162Y-118364683D01*
X125264090Y-118148559D01*
X125051890Y-118003569D01*
X124800000Y-117952560D01*
X123250000Y-117952560D01*
X123014683Y-117996838D01*
X122798559Y-118135910D01*
X122653569Y-118348110D01*
X122602560Y-118600000D01*
X120127000Y-118600000D01*
X120127000Y-115035750D01*
X122615000Y-115035750D01*
X122615000Y-115526310D01*
X122711673Y-115759699D01*
X122890302Y-115938327D01*
X123123691Y-116035000D01*
X123739250Y-116035000D01*
X123898000Y-115876250D01*
X123898000Y-114877000D01*
X124152000Y-114877000D01*
X124152000Y-115876250D01*
X124310750Y-116035000D01*
X124926309Y-116035000D01*
X125159698Y-115938327D01*
X125338327Y-115759699D01*
X125435000Y-115526310D01*
X125435000Y-115035750D01*
X130565000Y-115035750D01*
X130565000Y-115526310D01*
X130661673Y-115759699D01*
X130840302Y-115938327D01*
X131073691Y-116035000D01*
X131689250Y-116035000D01*
X131848000Y-115876250D01*
X131848000Y-114877000D01*
X132102000Y-114877000D01*
X132102000Y-115876250D01*
X132260750Y-116035000D01*
X132876309Y-116035000D01*
X133109698Y-115938327D01*
X133288327Y-115759699D01*
X133385000Y-115526310D01*
X133385000Y-115035750D01*
X133226250Y-114877000D01*
X132102000Y-114877000D01*
X131848000Y-114877000D01*
X130723750Y-114877000D01*
X130565000Y-115035750D01*
X125435000Y-115035750D01*
X125276250Y-114877000D01*
X124152000Y-114877000D01*
X123898000Y-114877000D01*
X122773750Y-114877000D01*
X122615000Y-115035750D01*
X120127000Y-115035750D01*
X120127000Y-113973690D01*
X122615000Y-113973690D01*
X122615000Y-114464250D01*
X122773750Y-114623000D01*
X123898000Y-114623000D01*
X123898000Y-113623750D01*
X124152000Y-113623750D01*
X124152000Y-114623000D01*
X125276250Y-114623000D01*
X125435000Y-114464250D01*
X125435000Y-113973690D01*
X130565000Y-113973690D01*
X130565000Y-114464250D01*
X130723750Y-114623000D01*
X131848000Y-114623000D01*
X131848000Y-113623750D01*
X132102000Y-113623750D01*
X132102000Y-114623000D01*
X133226250Y-114623000D01*
X133385000Y-114464250D01*
X133385000Y-113973690D01*
X133288327Y-113740301D01*
X133109698Y-113561673D01*
X132876309Y-113465000D01*
X132260750Y-113465000D01*
X132102000Y-113623750D01*
X131848000Y-113623750D01*
X131689250Y-113465000D01*
X131073691Y-113465000D01*
X130840302Y-113561673D01*
X130661673Y-113740301D01*
X130565000Y-113973690D01*
X125435000Y-113973690D01*
X125338327Y-113740301D01*
X125159698Y-113561673D01*
X124926309Y-113465000D01*
X124310750Y-113465000D01*
X124152000Y-113623750D01*
X123898000Y-113623750D01*
X123739250Y-113465000D01*
X123123691Y-113465000D01*
X122890302Y-113561673D01*
X122711673Y-113740301D01*
X122615000Y-113973690D01*
X120127000Y-113973690D01*
X120127000Y-105523690D01*
X126015000Y-105523690D01*
X126015000Y-105616250D01*
X126173750Y-105775000D01*
X126823000Y-105775000D01*
X126823000Y-105173750D01*
X126664250Y-105015000D01*
X126523691Y-105015000D01*
X126290302Y-105111673D01*
X126111673Y-105290301D01*
X126015000Y-105523690D01*
X120127000Y-105523690D01*
X120127000Y-102535750D01*
X122915000Y-102535750D01*
X122915000Y-102826309D01*
X123011673Y-103059698D01*
X123190301Y-103238327D01*
X123423690Y-103335000D01*
X124114250Y-103335000D01*
X124273000Y-103176250D01*
X124273000Y-102377000D01*
X124527000Y-102377000D01*
X124527000Y-103176250D01*
X124685750Y-103335000D01*
X125376310Y-103335000D01*
X125609699Y-103238327D01*
X125788327Y-103059698D01*
X125885000Y-102826309D01*
X125885000Y-102535750D01*
X125726250Y-102377000D01*
X124527000Y-102377000D01*
X124273000Y-102377000D01*
X123073750Y-102377000D01*
X122915000Y-102535750D01*
X120127000Y-102535750D01*
X120127000Y-101673691D01*
X122915000Y-101673691D01*
X122915000Y-101964250D01*
X123073750Y-102123000D01*
X124273000Y-102123000D01*
X124273000Y-101323750D01*
X124527000Y-101323750D01*
X124527000Y-102123000D01*
X125726250Y-102123000D01*
X125885000Y-101964250D01*
X125885000Y-101673691D01*
X125788327Y-101440302D01*
X125609699Y-101261673D01*
X125376310Y-101165000D01*
X124685750Y-101165000D01*
X124527000Y-101323750D01*
X124273000Y-101323750D01*
X124114250Y-101165000D01*
X123423690Y-101165000D01*
X123190301Y-101261673D01*
X123011673Y-101440302D01*
X122915000Y-101673691D01*
X120127000Y-101673691D01*
X120127000Y-90293935D01*
X124555019Y-90293935D01*
X124742294Y-90677111D01*
X125066627Y-90953420D01*
X125472010Y-91084580D01*
X125773000Y-91084580D01*
X125773000Y-90127000D01*
X126027000Y-90127000D01*
X126027000Y-91084580D01*
X126327990Y-91084580D01*
X126733373Y-90953420D01*
X127057706Y-90677111D01*
X127244981Y-90293935D01*
X127118068Y-90127000D01*
X126027000Y-90127000D01*
X125773000Y-90127000D01*
X124681932Y-90127000D01*
X124555019Y-90293935D01*
X120127000Y-90293935D01*
X120127000Y-82528172D01*
X120332538Y-82528172D01*
X120737709Y-83508761D01*
X121487293Y-84259655D01*
X122467173Y-84666536D01*
X123528172Y-84667462D01*
X124508761Y-84262291D01*
X125259655Y-83512707D01*
X125666536Y-82532827D01*
X125667462Y-81471828D01*
X125262291Y-80491239D01*
X124512707Y-79740345D01*
X123532827Y-79333464D01*
X122471828Y-79332538D01*
X121491239Y-79737709D01*
X120740345Y-80487293D01*
X120333464Y-81467173D01*
X120332538Y-82528172D01*
X120127000Y-82528172D01*
X120127000Y-79842333D01*
X120390714Y-79490714D01*
X120755683Y-79216988D01*
X121115634Y-79127000D01*
X161984366Y-79127000D01*
X162347857Y-79217873D01*
X162347857Y-79217873D01*
G37*
X162347857Y-79217873D02*
X162608419Y-79391581D01*
X162782127Y-79652143D01*
X162873000Y-80015634D01*
X162873000Y-135887423D01*
X162778801Y-136358418D01*
X162699816Y-136516388D01*
X162346846Y-136781115D01*
X161887423Y-136873000D01*
X147373116Y-136873000D01*
X147487897Y-136758218D01*
X147584570Y-136524829D01*
X147584570Y-135434590D01*
X147425820Y-135275840D01*
X146077080Y-135275840D01*
X146077080Y-135295840D01*
X145823080Y-135295840D01*
X145823080Y-135275840D01*
X144474340Y-135275840D01*
X144315590Y-135434590D01*
X144315590Y-136524829D01*
X144412263Y-136758218D01*
X144527044Y-136873000D01*
X138472956Y-136873000D01*
X138587737Y-136758218D01*
X138684410Y-136524829D01*
X138684410Y-135434590D01*
X138525660Y-135275840D01*
X137176920Y-135275840D01*
X137176920Y-135295840D01*
X136922920Y-135295840D01*
X136922920Y-135275840D01*
X135574180Y-135275840D01*
X135415430Y-135434590D01*
X135415430Y-136524829D01*
X135512103Y-136758218D01*
X135626884Y-136873000D01*
X121124459Y-136873000D01*
X120662761Y-136688320D01*
X120304691Y-136419768D01*
X120127000Y-135975541D01*
X120127000Y-134528172D01*
X120332538Y-134528172D01*
X120737709Y-135508761D01*
X121487293Y-136259655D01*
X122467173Y-136666536D01*
X123528172Y-136667462D01*
X124508761Y-136262291D01*
X125259655Y-135512707D01*
X125666536Y-134532827D01*
X125667199Y-133772851D01*
X135415430Y-133772851D01*
X135415430Y-134863090D01*
X135574180Y-135021840D01*
X136922920Y-135021840D01*
X136922920Y-133422910D01*
X137176920Y-133422910D01*
X137176920Y-135021840D01*
X138525660Y-135021840D01*
X138684410Y-134863090D01*
X138684410Y-133772851D01*
X144315590Y-133772851D01*
X144315590Y-134863090D01*
X144474340Y-135021840D01*
X145823080Y-135021840D01*
X145823080Y-133422910D01*
X146077080Y-133422910D01*
X146077080Y-135021840D01*
X147425820Y-135021840D01*
X147584570Y-134863090D01*
X147584570Y-133772851D01*
X147487897Y-133539462D01*
X147331380Y-133382944D01*
X150394025Y-133382944D01*
X150593615Y-133864818D01*
X151031621Y-134337188D01*
X151617054Y-134605983D01*
X151873000Y-134487367D01*
X151873000Y-133127000D01*
X152127000Y-133127000D01*
X152127000Y-134487367D01*
X152382946Y-134605983D01*
X152552417Y-134528172D01*
X157332538Y-134528172D01*
X157737709Y-135508761D01*
X158487293Y-136259655D01*
X159467173Y-136666536D01*
X160528172Y-136667462D01*
X161508761Y-136262291D01*
X162259655Y-135512707D01*
X162666536Y-134532827D01*
X162667462Y-133471828D01*
X162262291Y-132491239D01*
X161512707Y-131740345D01*
X160532827Y-131333464D01*
X159471828Y-131332538D01*
X158491239Y-131737709D01*
X157740345Y-132487293D01*
X157333464Y-133467173D01*
X157332538Y-134528172D01*
X152552417Y-134528172D01*
X152968379Y-134337188D01*
X153406385Y-133864818D01*
X153605975Y-133382944D01*
X153486836Y-133127000D01*
X152127000Y-133127000D01*
X151873000Y-133127000D01*
X150513164Y-133127000D01*
X150394025Y-133382944D01*
X147331380Y-133382944D01*
X147309269Y-133360833D01*
X147075880Y-133264160D01*
X146235830Y-133264160D01*
X146077080Y-133422910D01*
X145823080Y-133422910D01*
X145664330Y-133264160D01*
X144824280Y-133264160D01*
X144590891Y-133360833D01*
X144412263Y-133539462D01*
X144315590Y-133772851D01*
X138684410Y-133772851D01*
X138587737Y-133539462D01*
X138409109Y-133360833D01*
X138175720Y-133264160D01*
X137335670Y-133264160D01*
X137176920Y-133422910D01*
X136922920Y-133422910D01*
X136764170Y-133264160D01*
X135924120Y-133264160D01*
X135690731Y-133360833D01*
X135512103Y-133539462D01*
X135415430Y-133772851D01*
X125667199Y-133772851D01*
X125667462Y-133471828D01*
X125262291Y-132491239D01*
X124512707Y-131740345D01*
X123532827Y-131333464D01*
X122471828Y-131332538D01*
X121491239Y-131737709D01*
X120740345Y-132487293D01*
X120333464Y-133467173D01*
X120332538Y-134528172D01*
X120127000Y-134528172D01*
X120127000Y-129935490D01*
X135415430Y-129935490D01*
X135415430Y-131025729D01*
X135512103Y-131259118D01*
X135690731Y-131437747D01*
X135924120Y-131534420D01*
X136764170Y-131534420D01*
X136922920Y-131375670D01*
X136922920Y-129776740D01*
X137176920Y-129776740D01*
X137176920Y-131375670D01*
X137335670Y-131534420D01*
X138175720Y-131534420D01*
X138409109Y-131437747D01*
X138587737Y-131259118D01*
X138684410Y-131025729D01*
X138684410Y-129935490D01*
X138525660Y-129776740D01*
X137176920Y-129776740D01*
X136922920Y-129776740D01*
X135574180Y-129776740D01*
X135415430Y-129935490D01*
X120127000Y-129935490D01*
X120127000Y-128273751D01*
X135415430Y-128273751D01*
X135415430Y-129363990D01*
X135574180Y-129522740D01*
X136922920Y-129522740D01*
X136922920Y-127923810D01*
X137176920Y-127923810D01*
X137176920Y-129522740D01*
X138525660Y-129522740D01*
X138684410Y-129363990D01*
X138684410Y-128273751D01*
X139014610Y-128273751D01*
X139014610Y-129264930D01*
X139173360Y-129423680D01*
X139774705Y-129423680D01*
X139774705Y-127923810D01*
X139615955Y-127765060D01*
X139523300Y-127765060D01*
X139289911Y-127861733D01*
X139111283Y-128040362D01*
X139014610Y-128273751D01*
X138684410Y-128273751D01*
X138587737Y-128040362D01*
X138409109Y-127861733D01*
X138175720Y-127765060D01*
X137335670Y-127765060D01*
X137176920Y-127923810D01*
X136922920Y-127923810D01*
X136764170Y-127765060D01*
X135924120Y-127765060D01*
X135690731Y-127861733D01*
X135512103Y-128040362D01*
X135415430Y-128273751D01*
X120127000Y-128273751D01*
X120127000Y-118600000D01*
X122602560Y-118600000D01*
X122602560Y-119900000D01*
X122646838Y-120135317D01*
X122785910Y-120351441D01*
X122998110Y-120496431D01*
X123250000Y-120547440D01*
X124800000Y-120547440D01*
X125035317Y-120503162D01*
X125251441Y-120364090D01*
X125396431Y-120151890D01*
X125425164Y-120010000D01*
X128905532Y-120010000D01*
X128671057Y-120106883D01*
X128407808Y-120369673D01*
X128265162Y-120713201D01*
X128264838Y-121085167D01*
X128406883Y-121428943D01*
X128669673Y-121692192D01*
X129013201Y-121834838D01*
X129385167Y-121835162D01*
X129728943Y-121693117D01*
X129762118Y-121660000D01*
X132353002Y-121660000D01*
X132643841Y-121602148D01*
X132890403Y-121437401D01*
X133622402Y-120705402D01*
X133787149Y-120458840D01*
X133845001Y-120168001D01*
X133845001Y-119230353D01*
X136198352Y-116877002D01*
X136273748Y-116877002D01*
X136115000Y-117035750D01*
X136115000Y-117526310D01*
X136211673Y-117759699D01*
X136390302Y-117938327D01*
X136623691Y-118035000D01*
X137239250Y-118035000D01*
X137398000Y-117876250D01*
X137398000Y-116877000D01*
X137652000Y-116877000D01*
X137652000Y-117876250D01*
X137810750Y-118035000D01*
X138426309Y-118035000D01*
X138659698Y-117938327D01*
X138838327Y-117759699D01*
X138935000Y-117526310D01*
X138935000Y-117035750D01*
X144065000Y-117035750D01*
X144065000Y-117526310D01*
X144161673Y-117759699D01*
X144340302Y-117938327D01*
X144573691Y-118035000D01*
X145189250Y-118035000D01*
X145348000Y-117876250D01*
X145348000Y-116877000D01*
X144223750Y-116877000D01*
X144065000Y-117035750D01*
X138935000Y-117035750D01*
X138776250Y-116877000D01*
X137652000Y-116877000D01*
X137398000Y-116877000D01*
X137378000Y-116877000D01*
X137378000Y-116623000D01*
X137398000Y-116623000D01*
X137398000Y-116603000D01*
X137652000Y-116603000D01*
X137652000Y-116623000D01*
X138776250Y-116623000D01*
X138935000Y-116464250D01*
X138935000Y-115973690D01*
X144065000Y-115973690D01*
X144065000Y-116464250D01*
X144223750Y-116623000D01*
X145348000Y-116623000D01*
X145348000Y-115623750D01*
X145189250Y-115465000D01*
X144573691Y-115465000D01*
X144340302Y-115561673D01*
X144161673Y-115740301D01*
X144065000Y-115973690D01*
X138935000Y-115973690D01*
X138838327Y-115740301D01*
X138659698Y-115561673D01*
X138426309Y-115465000D01*
X137810750Y-115465000D01*
X137652002Y-115623748D01*
X137652002Y-115465000D01*
X137610354Y-115465000D01*
X137926542Y-115148812D01*
X138069673Y-115292192D01*
X138413201Y-115434838D01*
X138785167Y-115435162D01*
X139128943Y-115293117D01*
X139392192Y-115030327D01*
X139534838Y-114686799D01*
X139535162Y-114314833D01*
X139393117Y-113971057D01*
X139248833Y-113826521D01*
X139337401Y-113737953D01*
X139502148Y-113491391D01*
X139560000Y-113200552D01*
X139560000Y-110537804D01*
X143059597Y-114037401D01*
X143306158Y-114202148D01*
X143354412Y-114211746D01*
X143596998Y-114260000D01*
X143837537Y-114260000D01*
X143869673Y-114292192D01*
X144213201Y-114434838D01*
X144585167Y-114435162D01*
X144928943Y-114293117D01*
X145192192Y-114030327D01*
X145334838Y-113686799D01*
X145335162Y-113314833D01*
X145193117Y-112971057D01*
X145019803Y-112797440D01*
X145122638Y-112797440D01*
X145825001Y-113499803D01*
X145825001Y-115465000D01*
X145760750Y-115465000D01*
X145602000Y-115623750D01*
X145602000Y-116623000D01*
X145622000Y-116623000D01*
X145622000Y-116877000D01*
X145602000Y-116877000D01*
X145602000Y-117876250D01*
X145760750Y-118035000D01*
X145825001Y-118035000D01*
X145825001Y-119952560D01*
X144700000Y-119952560D01*
X144464683Y-119996838D01*
X144248559Y-120135910D01*
X144103569Y-120348110D01*
X144074836Y-120490000D01*
X138926742Y-120490000D01*
X138903162Y-120364683D01*
X138764090Y-120148559D01*
X138551890Y-120003569D01*
X138300000Y-119952560D01*
X136750000Y-119952560D01*
X136514683Y-119996838D01*
X136298559Y-120135910D01*
X136153569Y-120348110D01*
X136124836Y-120490000D01*
X135750000Y-120490000D01*
X135459160Y-120547852D01*
X135212599Y-120712599D01*
X134860320Y-121064878D01*
X134814833Y-121064838D01*
X134471057Y-121206883D01*
X134207808Y-121469673D01*
X134065162Y-121813201D01*
X134064838Y-122185167D01*
X134206883Y-122528943D01*
X134469673Y-122792192D01*
X134813201Y-122934838D01*
X135185167Y-122935162D01*
X135528943Y-122793117D01*
X135792192Y-122530327D01*
X135934838Y-122186799D01*
X135934879Y-122139923D01*
X136064802Y-122010000D01*
X136123258Y-122010000D01*
X136146838Y-122135317D01*
X136285910Y-122351441D01*
X136498110Y-122496431D01*
X136750000Y-122547440D01*
X138300000Y-122547440D01*
X138535317Y-122503162D01*
X138751441Y-122364090D01*
X138896431Y-122151890D01*
X138925164Y-122010000D01*
X144073258Y-122010000D01*
X144096838Y-122135317D01*
X144235910Y-122351441D01*
X144448110Y-122496431D01*
X144700000Y-122547440D01*
X145130760Y-122547440D01*
X143517318Y-124160882D01*
X143286799Y-124065162D01*
X142914833Y-124064838D01*
X142571057Y-124206883D01*
X142307808Y-124469673D01*
X142165162Y-124813201D01*
X142164838Y-125185167D01*
X142306883Y-125528943D01*
X142340000Y-125562118D01*
X142340000Y-127752620D01*
X142049910Y-127752620D01*
X141894548Y-127781853D01*
X141750190Y-127752620D01*
X141249810Y-127752620D01*
X141094448Y-127781853D01*
X140950090Y-127752620D01*
X140449710Y-127752620D01*
X140309816Y-127778943D01*
X140276300Y-127765060D01*
X140183645Y-127765060D01*
X140038845Y-127909860D01*
X139998269Y-127935970D01*
X139853279Y-128148170D01*
X139802270Y-128400060D01*
X139802270Y-129697680D01*
X139774705Y-129697680D01*
X139774705Y-129677680D01*
X139173360Y-129677680D01*
X139014610Y-129836430D01*
X139014610Y-130827609D01*
X139111283Y-131060998D01*
X139114642Y-131064357D01*
X139085570Y-131064332D01*
X138686797Y-131229102D01*
X138381434Y-131533933D01*
X138215969Y-131932417D01*
X138215592Y-132363890D01*
X138380362Y-132762663D01*
X138685193Y-133068026D01*
X139083677Y-133233491D01*
X139515150Y-133233868D01*
X139913923Y-133069098D01*
X140219286Y-132764267D01*
X140384751Y-132365783D01*
X140385128Y-131934310D01*
X140220358Y-131535537D01*
X140021468Y-131336300D01*
X140026802Y-131336300D01*
X140026802Y-131180879D01*
X140031293Y-131183948D01*
X140183645Y-131336300D01*
X140276300Y-131336300D01*
X140313069Y-131321070D01*
X140449710Y-131348740D01*
X140950090Y-131348740D01*
X141105452Y-131319507D01*
X141249810Y-131348740D01*
X141750190Y-131348740D01*
X141905552Y-131319507D01*
X142049910Y-131348740D01*
X142550290Y-131348740D01*
X142705652Y-131319507D01*
X142850010Y-131348740D01*
X142966230Y-131348740D01*
X142780714Y-131533933D01*
X142615249Y-131932417D01*
X142614872Y-132363890D01*
X142779642Y-132762663D01*
X143084473Y-133068026D01*
X143482957Y-133233491D01*
X143914430Y-133233868D01*
X144313203Y-133069098D01*
X144618566Y-132764267D01*
X144784031Y-132365783D01*
X144784408Y-131934310D01*
X144619638Y-131535537D01*
X144314807Y-131230174D01*
X143916323Y-131064709D01*
X143870651Y-131064669D01*
X143946821Y-130953190D01*
X143997830Y-130701300D01*
X143997830Y-129935490D01*
X144315590Y-129935490D01*
X144315590Y-131025729D01*
X144412263Y-131259118D01*
X144590891Y-131437747D01*
X144824280Y-131534420D01*
X145664330Y-131534420D01*
X145823080Y-131375670D01*
X145823080Y-129776740D01*
X146077080Y-129776740D01*
X146077080Y-131375670D01*
X146235830Y-131534420D01*
X147075880Y-131534420D01*
X147309269Y-131437747D01*
X147487897Y-131259118D01*
X147584570Y-131025729D01*
X147584570Y-129935490D01*
X147425820Y-129776740D01*
X146077080Y-129776740D01*
X145823080Y-129776740D01*
X144474340Y-129776740D01*
X144315590Y-129935490D01*
X143997830Y-129935490D01*
X143997830Y-128400060D01*
X143974064Y-128273751D01*
X144315590Y-128273751D01*
X144315590Y-129363990D01*
X144474340Y-129522740D01*
X145823080Y-129522740D01*
X145823080Y-127923810D01*
X146077080Y-127923810D01*
X146077080Y-129522740D01*
X147425820Y-129522740D01*
X147584570Y-129363990D01*
X147584570Y-128273751D01*
X147487897Y-128040362D01*
X147309269Y-127861733D01*
X147075880Y-127765060D01*
X146235830Y-127765060D01*
X146077080Y-127923810D01*
X145823080Y-127923810D01*
X145664330Y-127765060D01*
X144824280Y-127765060D01*
X144590891Y-127861733D01*
X144412263Y-128040362D01*
X144315590Y-128273751D01*
X143974064Y-128273751D01*
X143953552Y-128164743D01*
X143860000Y-128019359D01*
X143860000Y-125738717D01*
X144043841Y-125702148D01*
X144290403Y-125537401D01*
X146590000Y-123237804D01*
X146590000Y-124594000D01*
X146651658Y-124903974D01*
X146715821Y-125000000D01*
X146827244Y-125166756D01*
X150598175Y-128937687D01*
X150532559Y-128979910D01*
X150387569Y-129192110D01*
X150336560Y-129444000D01*
X150336560Y-131476000D01*
X150380838Y-131711317D01*
X150519910Y-131927441D01*
X150682948Y-132038840D01*
X150593615Y-132135182D01*
X150394025Y-132617056D01*
X150513164Y-132873000D01*
X151873000Y-132873000D01*
X151873000Y-132853000D01*
X152127000Y-132853000D01*
X152127000Y-132873000D01*
X153486836Y-132873000D01*
X153605975Y-132617056D01*
X153406385Y-132135182D01*
X153315903Y-132037602D01*
X153467441Y-131940090D01*
X153612431Y-131727890D01*
X153663440Y-131476000D01*
X153663440Y-129444000D01*
X153619162Y-129208683D01*
X153480090Y-128992559D01*
X153267890Y-128847569D01*
X153016000Y-128796560D01*
X152689899Y-128796560D01*
X152617001Y-128687461D01*
X152572756Y-128621243D01*
X148210000Y-124258488D01*
X148210000Y-121150461D01*
X148413201Y-121234838D01*
X148785167Y-121235162D01*
X149128943Y-121093117D01*
X149392192Y-120830327D01*
X149534838Y-120486799D01*
X149534879Y-120439923D01*
X149722266Y-120252536D01*
X149785910Y-120351441D01*
X149998110Y-120496431D01*
X150250000Y-120547440D01*
X151800000Y-120547440D01*
X152035317Y-120503162D01*
X152251441Y-120364090D01*
X152396431Y-120151890D01*
X152425164Y-120010000D01*
X157573258Y-120010000D01*
X157596838Y-120135317D01*
X157735910Y-120351441D01*
X157948110Y-120496431D01*
X158200000Y-120547440D01*
X159750000Y-120547440D01*
X159985317Y-120503162D01*
X160201441Y-120364090D01*
X160346431Y-120151890D01*
X160397440Y-119900000D01*
X160397440Y-118600000D01*
X160353162Y-118364683D01*
X160214090Y-118148559D01*
X160001890Y-118003569D01*
X159750000Y-117952560D01*
X158200000Y-117952560D01*
X157964683Y-117996838D01*
X157748559Y-118135910D01*
X157603569Y-118348110D01*
X157574836Y-118490000D01*
X152426742Y-118490000D01*
X152403162Y-118364683D01*
X152264090Y-118148559D01*
X152051890Y-118003569D01*
X151800000Y-117952560D01*
X150250000Y-117952560D01*
X150014683Y-117996838D01*
X149798559Y-118135910D01*
X149653569Y-118348110D01*
X149623779Y-118495216D01*
X149359160Y-118547852D01*
X149112599Y-118712599D01*
X148460320Y-119364878D01*
X148414833Y-119364838D01*
X148210000Y-119449473D01*
X148210000Y-115035750D01*
X149615000Y-115035750D01*
X149615000Y-115526310D01*
X149711673Y-115759699D01*
X149890302Y-115938327D01*
X150123691Y-116035000D01*
X150739250Y-116035000D01*
X150898000Y-115876250D01*
X150898000Y-114877000D01*
X151152000Y-114877000D01*
X151152000Y-115876250D01*
X151310750Y-116035000D01*
X151926309Y-116035000D01*
X152159698Y-115938327D01*
X152338327Y-115759699D01*
X152435000Y-115526310D01*
X152435000Y-115035750D01*
X157565000Y-115035750D01*
X157565000Y-115526310D01*
X157661673Y-115759699D01*
X157840302Y-115938327D01*
X158073691Y-116035000D01*
X158689250Y-116035000D01*
X158848000Y-115876250D01*
X158848000Y-114877000D01*
X159102000Y-114877000D01*
X159102000Y-115876250D01*
X159260750Y-116035000D01*
X159876309Y-116035000D01*
X160109698Y-115938327D01*
X160288327Y-115759699D01*
X160385000Y-115526310D01*
X160385000Y-115035750D01*
X160226250Y-114877000D01*
X159102000Y-114877000D01*
X158848000Y-114877000D01*
X157723750Y-114877000D01*
X157565000Y-115035750D01*
X152435000Y-115035750D01*
X152276250Y-114877000D01*
X151152000Y-114877000D01*
X150898000Y-114877000D01*
X149773750Y-114877000D01*
X149615000Y-115035750D01*
X148210000Y-115035750D01*
X148210000Y-113973690D01*
X149615000Y-113973690D01*
X149615000Y-114464250D01*
X149773750Y-114623000D01*
X150898000Y-114623000D01*
X150898000Y-113623750D01*
X151152000Y-113623750D01*
X151152000Y-114623000D01*
X152276250Y-114623000D01*
X152435000Y-114464250D01*
X152435000Y-113973690D01*
X157565000Y-113973690D01*
X157565000Y-114464250D01*
X157723750Y-114623000D01*
X158848000Y-114623000D01*
X158848000Y-113623750D01*
X159102000Y-113623750D01*
X159102000Y-114623000D01*
X160226250Y-114623000D01*
X160385000Y-114464250D01*
X160385000Y-113973690D01*
X160288327Y-113740301D01*
X160109698Y-113561673D01*
X159876309Y-113465000D01*
X159260750Y-113465000D01*
X159102000Y-113623750D01*
X158848000Y-113623750D01*
X158689250Y-113465000D01*
X158073691Y-113465000D01*
X157840302Y-113561673D01*
X157661673Y-113740301D01*
X157565000Y-113973690D01*
X152435000Y-113973690D01*
X152338327Y-113740301D01*
X152159698Y-113561673D01*
X151926309Y-113465000D01*
X151310750Y-113465000D01*
X151152000Y-113623750D01*
X150898000Y-113623750D01*
X150739250Y-113465000D01*
X150123691Y-113465000D01*
X149890302Y-113561673D01*
X149711673Y-113740301D01*
X149615000Y-113973690D01*
X148210000Y-113973690D01*
X148210000Y-112250000D01*
X148187093Y-112134838D01*
X148148343Y-111940027D01*
X147972757Y-111677244D01*
X145422756Y-109127244D01*
X145362226Y-109086799D01*
X145164592Y-108954744D01*
X145064090Y-108798559D01*
X144960000Y-108727437D01*
X144960000Y-107362463D01*
X144992192Y-107330327D01*
X145134838Y-106986799D01*
X145135162Y-106614833D01*
X144993117Y-106271057D01*
X144730327Y-106007808D01*
X144386799Y-105865162D01*
X144014833Y-105864838D01*
X143671057Y-106006883D01*
X143407808Y-106269673D01*
X143265162Y-106613201D01*
X143264838Y-106985167D01*
X143406883Y-107328943D01*
X143440000Y-107362118D01*
X143440000Y-108727069D01*
X143348559Y-108785910D01*
X143203569Y-108998110D01*
X143152560Y-109250000D01*
X143152560Y-109827758D01*
X141460000Y-108135198D01*
X141460000Y-99035000D01*
X144400000Y-99035000D01*
X144630795Y-98991573D01*
X144842767Y-98855173D01*
X144849201Y-98845756D01*
X144940000Y-98907796D01*
X144940000Y-99737537D01*
X144907808Y-99769673D01*
X144765162Y-100113201D01*
X144764838Y-100485167D01*
X144906883Y-100828943D01*
X145169673Y-101092192D01*
X145513201Y-101234838D01*
X145885167Y-101235162D01*
X146228943Y-101093117D01*
X146492192Y-100830327D01*
X146634838Y-100486799D01*
X146634970Y-100335118D01*
X146685167Y-100335162D01*
X147028943Y-100193117D01*
X147292192Y-99930327D01*
X147434838Y-99586799D01*
X147434879Y-99539923D01*
X148337401Y-98637401D01*
X148500115Y-98393881D01*
X148588355Y-98606924D01*
X148978642Y-99035183D01*
X149503108Y-99281486D01*
X149733000Y-99160819D01*
X149733000Y-97967000D01*
X149713000Y-97967000D01*
X149713000Y-97713000D01*
X149733000Y-97713000D01*
X149733000Y-97693000D01*
X149987000Y-97693000D01*
X149987000Y-97713000D01*
X150007000Y-97713000D01*
X150007000Y-97967000D01*
X149987000Y-97967000D01*
X149987000Y-99160819D01*
X150216892Y-99281486D01*
X150741358Y-99035183D01*
X151131645Y-98606924D01*
X151131655Y-98606899D01*
X151320853Y-98890054D01*
X151802622Y-99211961D01*
X152370907Y-99325000D01*
X152429093Y-99325000D01*
X152997378Y-99211961D01*
X153479147Y-98890054D01*
X153801054Y-98408285D01*
X153840000Y-98212490D01*
X153840000Y-99494844D01*
X149862599Y-103472245D01*
X149697852Y-103718807D01*
X149640000Y-104009646D01*
X149640000Y-111637537D01*
X149607808Y-111669673D01*
X149465162Y-112013201D01*
X149464838Y-112385167D01*
X149606883Y-112728943D01*
X149869673Y-112992192D01*
X150213201Y-113134838D01*
X150585167Y-113135162D01*
X150928943Y-112993117D01*
X151192192Y-112730327D01*
X151334838Y-112386799D01*
X151335162Y-112014833D01*
X151193117Y-111671057D01*
X151160000Y-111637882D01*
X151160000Y-104324448D01*
X151332515Y-104151933D01*
X151362851Y-104304438D01*
X151527598Y-104551000D01*
X151754466Y-104777868D01*
X151706089Y-104848670D01*
X151655080Y-105100560D01*
X151655080Y-106299440D01*
X151699358Y-106534757D01*
X151838430Y-106750881D01*
X151840716Y-106752443D01*
X151706189Y-106949330D01*
X151655180Y-107201220D01*
X151655180Y-107998780D01*
X151699458Y-108234097D01*
X151838530Y-108450221D01*
X152050730Y-108595211D01*
X152302620Y-108646220D01*
X153100180Y-108646220D01*
X153335497Y-108601942D01*
X153450693Y-108527815D01*
X153549330Y-108595211D01*
X153801220Y-108646220D01*
X154598780Y-108646220D01*
X154834097Y-108601942D01*
X155050221Y-108462870D01*
X155154897Y-108309672D01*
X155192721Y-108302148D01*
X155439283Y-108137401D01*
X156340000Y-107236684D01*
X156340000Y-110637537D01*
X156307808Y-110669673D01*
X156165162Y-111013201D01*
X156164838Y-111385167D01*
X156306883Y-111728943D01*
X156569673Y-111992192D01*
X156913201Y-112134838D01*
X157285167Y-112135162D01*
X157628943Y-111993117D01*
X157892192Y-111730327D01*
X158034838Y-111386799D01*
X158035162Y-111014833D01*
X157893117Y-110671057D01*
X157860000Y-110637882D01*
X157860000Y-104900000D01*
X157802148Y-104609161D01*
X157637401Y-104362599D01*
X156435122Y-103160320D01*
X156435162Y-103114833D01*
X156371186Y-102960000D01*
X157237537Y-102960000D01*
X157269673Y-102992192D01*
X157613201Y-103134838D01*
X157985167Y-103135162D01*
X158328943Y-102993117D01*
X158592192Y-102730327D01*
X158734838Y-102386799D01*
X158735162Y-102014833D01*
X158593117Y-101671057D01*
X158330327Y-101407808D01*
X157986799Y-101265162D01*
X157614833Y-101264838D01*
X157271057Y-101406883D01*
X157237882Y-101440000D01*
X156212747Y-101440000D01*
X156234838Y-101386799D01*
X156235162Y-101014833D01*
X156093117Y-100671057D01*
X155830327Y-100407808D01*
X155486799Y-100265162D01*
X155192286Y-100264905D01*
X155302148Y-100100485D01*
X155360000Y-99809646D01*
X155360000Y-96561790D01*
X155573170Y-96880821D01*
X156136044Y-97256922D01*
X156800000Y-97388991D01*
X157463956Y-97256922D01*
X158026830Y-96880821D01*
X158402931Y-96317947D01*
X158535000Y-95653991D01*
X158535000Y-95586009D01*
X158402931Y-94922053D01*
X158026830Y-94359179D01*
X157463956Y-93983078D01*
X156800000Y-93851009D01*
X156136044Y-93983078D01*
X155573170Y-94359179D01*
X155360000Y-94678210D01*
X155360000Y-93362463D01*
X155392192Y-93330327D01*
X155534838Y-92986799D01*
X155535162Y-92614833D01*
X155393117Y-92271057D01*
X155182428Y-92060000D01*
X155500000Y-92060000D01*
X155790839Y-92002148D01*
X156037401Y-91837401D01*
X157337401Y-90537401D01*
X157502148Y-90290839D01*
X157560000Y-90000000D01*
X157560000Y-89747440D01*
X157900000Y-89747440D01*
X158135317Y-89703162D01*
X158351441Y-89564090D01*
X158496431Y-89351890D01*
X158547440Y-89100000D01*
X158547440Y-86900000D01*
X158503162Y-86664683D01*
X158364090Y-86448559D01*
X158151890Y-86303569D01*
X157900000Y-86252560D01*
X155700000Y-86252560D01*
X155464683Y-86296838D01*
X155248559Y-86435910D01*
X155103569Y-86648110D01*
X155052560Y-86900000D01*
X155052560Y-89100000D01*
X155096838Y-89335317D01*
X155235910Y-89551441D01*
X155448110Y-89696431D01*
X155700000Y-89747440D01*
X155977758Y-89747440D01*
X155185198Y-90540000D01*
X150005513Y-90540000D01*
X150772756Y-89772757D01*
X150881524Y-89609974D01*
X150948342Y-89509974D01*
X151010000Y-89200000D01*
X151010000Y-85900000D01*
X150984352Y-85771057D01*
X150948343Y-85590027D01*
X150772757Y-85327244D01*
X150572756Y-85127244D01*
X150309974Y-84951658D01*
X150000000Y-84890000D01*
X147200000Y-84890000D01*
X146890026Y-84951658D01*
X146825698Y-84994641D01*
X146627243Y-85127244D01*
X145240501Y-86513987D01*
X145334838Y-86286799D01*
X145335162Y-85914833D01*
X145193117Y-85571057D01*
X144930327Y-85307808D01*
X144586799Y-85165162D01*
X144214833Y-85164838D01*
X144053838Y-85231360D01*
X144030327Y-85207808D01*
X143686799Y-85065162D01*
X143314833Y-85064838D01*
X142971057Y-85206883D01*
X142707808Y-85469673D01*
X142565162Y-85813201D01*
X142565121Y-85860077D01*
X142398674Y-86026524D01*
X142293117Y-85771057D01*
X142030327Y-85507808D01*
X141686799Y-85365162D01*
X141314833Y-85364838D01*
X140971057Y-85506883D01*
X140937882Y-85540000D01*
X135649448Y-85540000D01*
X135358608Y-85597852D01*
X135112047Y-85762599D01*
X134535053Y-86339593D01*
X134535162Y-86214833D01*
X134393117Y-85871057D01*
X134130327Y-85607808D01*
X133786799Y-85465162D01*
X133613593Y-85465011D01*
X133837401Y-85241203D01*
X134002148Y-84994641D01*
X134060000Y-84703802D01*
X134060000Y-83860000D01*
X149664860Y-83860000D01*
X149664838Y-83885167D01*
X149806883Y-84228943D01*
X150069673Y-84492192D01*
X150413201Y-84634838D01*
X150785167Y-84635162D01*
X151128943Y-84493117D01*
X151392192Y-84230327D01*
X151534838Y-83886799D01*
X151535162Y-83514833D01*
X151393117Y-83171057D01*
X151130327Y-82907808D01*
X150786799Y-82765162D01*
X150739923Y-82765121D01*
X150537401Y-82562599D01*
X150485878Y-82528172D01*
X157332538Y-82528172D01*
X157737709Y-83508761D01*
X158487293Y-84259655D01*
X159467173Y-84666536D01*
X160528172Y-84667462D01*
X161508761Y-84262291D01*
X162259655Y-83512707D01*
X162666536Y-82532827D01*
X162667462Y-81471828D01*
X162262291Y-80491239D01*
X161512707Y-79740345D01*
X160532827Y-79333464D01*
X159471828Y-79332538D01*
X158491239Y-79737709D01*
X157740345Y-80487293D01*
X157333464Y-81467173D01*
X157332538Y-82528172D01*
X150485878Y-82528172D01*
X150290839Y-82397852D01*
X150000000Y-82340000D01*
X133300000Y-82340000D01*
X133009161Y-82397852D01*
X132762599Y-82562599D01*
X132597852Y-82809161D01*
X132540000Y-83100000D01*
X132540000Y-84389000D01*
X132026825Y-84902175D01*
X132002931Y-84782053D01*
X131626830Y-84219179D01*
X131063956Y-83843078D01*
X130400000Y-83711009D01*
X129736044Y-83843078D01*
X129173170Y-84219179D01*
X128797069Y-84782053D01*
X128665000Y-85446009D01*
X128665000Y-85513991D01*
X128797069Y-86177947D01*
X129173170Y-86740821D01*
X129736044Y-87116922D01*
X130400000Y-87248991D01*
X130540000Y-87221143D01*
X130540000Y-88694487D01*
X128732756Y-86887244D01*
X128647574Y-86830327D01*
X128469974Y-86711658D01*
X128160000Y-86650000D01*
X126930566Y-86650000D01*
X126643186Y-86457979D01*
X126228135Y-86375420D01*
X125571865Y-86375420D01*
X125156814Y-86457979D01*
X124804951Y-86693086D01*
X124569844Y-87044949D01*
X124487285Y-87460000D01*
X124569844Y-87875051D01*
X124716809Y-88095000D01*
X124569844Y-88314949D01*
X124487285Y-88730000D01*
X124569844Y-89145051D01*
X124719641Y-89369238D01*
X124555019Y-89706065D01*
X124681932Y-89873000D01*
X125773000Y-89873000D01*
X125773000Y-89853000D01*
X126027000Y-89853000D01*
X126027000Y-89873000D01*
X127118068Y-89873000D01*
X127244981Y-89706065D01*
X127080359Y-89369238D01*
X127230156Y-89145051D01*
X127312715Y-88730000D01*
X127230156Y-88314949D01*
X127200122Y-88270000D01*
X127824488Y-88270000D01*
X129427244Y-89872757D01*
X129427247Y-89872759D01*
X129482570Y-89928082D01*
X129590000Y-90188083D01*
X129590000Y-91352560D01*
X129300000Y-91352560D01*
X129064683Y-91396838D01*
X128848559Y-91535910D01*
X128703569Y-91748110D01*
X128652560Y-92000000D01*
X128652560Y-93271819D01*
X128568001Y-93254999D01*
X126331999Y-93254999D01*
X126041159Y-93312851D01*
X125794598Y-93477598D01*
X123862599Y-95409597D01*
X123697852Y-95656159D01*
X123640000Y-95946998D01*
X123640000Y-98252560D01*
X123550000Y-98252560D01*
X123314683Y-98296838D01*
X123098559Y-98435910D01*
X122953569Y-98648110D01*
X122902560Y-98900000D01*
X122902560Y-99800000D01*
X122946838Y-100035317D01*
X123085910Y-100251441D01*
X123298110Y-100396431D01*
X123550000Y-100447440D01*
X125250000Y-100447440D01*
X125485317Y-100403162D01*
X125525282Y-100377445D01*
X125677598Y-100605402D01*
X125744598Y-100672402D01*
X125991159Y-100837149D01*
X126281999Y-100895001D01*
X129114999Y-100895001D01*
X129405838Y-100837149D01*
X129652400Y-100672402D01*
X129877362Y-100447440D01*
X131150000Y-100447440D01*
X131385317Y-100403162D01*
X131601441Y-100264090D01*
X131746431Y-100051890D01*
X131797440Y-99800000D01*
X131797440Y-98900000D01*
X131753162Y-98664683D01*
X131614090Y-98448559D01*
X131401890Y-98303569D01*
X131160000Y-98254585D01*
X131160000Y-97662463D01*
X131192192Y-97630327D01*
X131334838Y-97286799D01*
X131335162Y-96914833D01*
X131193117Y-96571057D01*
X131048557Y-96426245D01*
X131339680Y-96135122D01*
X131385167Y-96135162D01*
X131728943Y-95993117D01*
X131992192Y-95730327D01*
X132134838Y-95386799D01*
X132135013Y-95186252D01*
X132305402Y-95072402D01*
X132372402Y-95005402D01*
X132537149Y-94758841D01*
X132595001Y-94468001D01*
X132595001Y-94094800D01*
X134000600Y-92689201D01*
X134008427Y-92730795D01*
X134144827Y-92942767D01*
X134352949Y-93084971D01*
X134600000Y-93135000D01*
X137400000Y-93135000D01*
X137630795Y-93091573D01*
X137718712Y-93035000D01*
X137990000Y-93035000D01*
X137990000Y-93131702D01*
X138029546Y-93131702D01*
X138015029Y-93152949D01*
X137999674Y-93228776D01*
X137990000Y-93238450D01*
X137990000Y-93276546D01*
X137965000Y-93400000D01*
X137965000Y-93665000D01*
X134700000Y-93665000D01*
X134469205Y-93708427D01*
X134257233Y-93844827D01*
X134115029Y-94052949D01*
X134065000Y-94300000D01*
X134065000Y-95300000D01*
X134108427Y-95530795D01*
X134244827Y-95742767D01*
X134452949Y-95884971D01*
X134700000Y-95935000D01*
X139940000Y-95935000D01*
X139940000Y-96269700D01*
X139822998Y-96269700D01*
X139822998Y-96428448D01*
X139664250Y-96269700D01*
X139473691Y-96269700D01*
X139240302Y-96366373D01*
X139166778Y-96439896D01*
X138986799Y-96365162D01*
X138614833Y-96364838D01*
X138271057Y-96506883D01*
X138007808Y-96769673D01*
X137865162Y-97113201D01*
X137864838Y-97485167D01*
X138006883Y-97828943D01*
X138140000Y-97962293D01*
X138140000Y-101740000D01*
X138135000Y-101740000D01*
X137892414Y-101788254D01*
X137844160Y-101797852D01*
X137597599Y-101962599D01*
X137297440Y-102262758D01*
X137297440Y-102200000D01*
X137253162Y-101964683D01*
X137114090Y-101748559D01*
X137044289Y-101700866D01*
X137101441Y-101664090D01*
X137246431Y-101451890D01*
X137297440Y-101200000D01*
X137297440Y-100700000D01*
X137253162Y-100464683D01*
X137114090Y-100248559D01*
X136960000Y-100143274D01*
X136960000Y-99900000D01*
X136902148Y-99609161D01*
X136835080Y-99508787D01*
X136835162Y-99414833D01*
X136693117Y-99071057D01*
X136430327Y-98807808D01*
X136086799Y-98665162D01*
X135714833Y-98664838D01*
X135371057Y-98806883D01*
X135107808Y-99069673D01*
X134965162Y-99413201D01*
X134964838Y-99785167D01*
X135106883Y-100128943D01*
X135264063Y-100286397D01*
X135153569Y-100448110D01*
X135102560Y-100700000D01*
X135102560Y-101200000D01*
X135146838Y-101435317D01*
X135285910Y-101651441D01*
X135355711Y-101699134D01*
X135298559Y-101735910D01*
X135153569Y-101948110D01*
X135102560Y-102200000D01*
X135102560Y-102365002D01*
X134914833Y-102364838D01*
X134897440Y-102372025D01*
X134897440Y-101750000D01*
X134853162Y-101514683D01*
X134714090Y-101298559D01*
X134501890Y-101153569D01*
X134283918Y-101109428D01*
X134334838Y-100986799D01*
X134335162Y-100614833D01*
X134245337Y-100397440D01*
X134250000Y-100397440D01*
X134485317Y-100353162D01*
X134701441Y-100214090D01*
X134846431Y-100001890D01*
X134897440Y-99750000D01*
X134897440Y-98850000D01*
X134853162Y-98614683D01*
X134714090Y-98398559D01*
X134501890Y-98253569D01*
X134250000Y-98202560D01*
X132550000Y-98202560D01*
X132314683Y-98246838D01*
X132098559Y-98385910D01*
X131953569Y-98598110D01*
X131902560Y-98850000D01*
X131902560Y-99750000D01*
X131946838Y-99985317D01*
X132085910Y-100201441D01*
X132298110Y-100346431D01*
X132345006Y-100355928D01*
X131677598Y-101023336D01*
X131512851Y-101269898D01*
X131511190Y-101278250D01*
X131401890Y-101203569D01*
X131150000Y-101152560D01*
X129450000Y-101152560D01*
X129214683Y-101196838D01*
X128998559Y-101335910D01*
X128853569Y-101548110D01*
X128850919Y-101561197D01*
X128714090Y-101348559D01*
X128501890Y-101203569D01*
X128250000Y-101152560D01*
X126550000Y-101152560D01*
X126314683Y-101196838D01*
X126098559Y-101335910D01*
X125953569Y-101548110D01*
X125902560Y-101800000D01*
X125902560Y-102700000D01*
X125946838Y-102935317D01*
X126085910Y-103151441D01*
X126298110Y-103296431D01*
X126550000Y-103347440D01*
X127822638Y-103347440D01*
X128020382Y-103545184D01*
X127871057Y-103606883D01*
X127607808Y-103869673D01*
X127465162Y-104213201D01*
X127464838Y-104585167D01*
X127606883Y-104928943D01*
X127640000Y-104962118D01*
X127640000Y-105023258D01*
X127514683Y-105046838D01*
X127490594Y-105062339D01*
X127376309Y-105015000D01*
X127235750Y-105015000D01*
X127077000Y-105173750D01*
X127077000Y-105775000D01*
X127097000Y-105775000D01*
X127097000Y-106025000D01*
X127077000Y-106025000D01*
X127077000Y-106047000D01*
X126823000Y-106047000D01*
X126823000Y-106025000D01*
X126173750Y-106025000D01*
X126015000Y-106183750D01*
X126015000Y-106276310D01*
X126111673Y-106509699D01*
X126290302Y-106688327D01*
X126523691Y-106785000D01*
X126664250Y-106785000D01*
X126822998Y-106626252D01*
X126822998Y-106785000D01*
X126892629Y-106785000D01*
X126807808Y-106869673D01*
X126665162Y-107213201D01*
X126664838Y-107585167D01*
X126806883Y-107928943D01*
X127069673Y-108192192D01*
X127413201Y-108334838D01*
X127785167Y-108335162D01*
X128128943Y-108193117D01*
X128392192Y-107930327D01*
X128534838Y-107586799D01*
X128534879Y-107539923D01*
X128587401Y-107487401D01*
X128752148Y-107240839D01*
X128810000Y-106950000D01*
X128810000Y-106601563D01*
X128946431Y-106401890D01*
X128997440Y-106150000D01*
X128997440Y-105997546D01*
X129102148Y-105840839D01*
X129160000Y-105550000D01*
X129160000Y-104962463D01*
X129192192Y-104930327D01*
X129254785Y-104779587D01*
X135640000Y-111164802D01*
X135640000Y-112937537D01*
X135607808Y-112969673D01*
X135465162Y-113313201D01*
X135464838Y-113685167D01*
X135606883Y-114028943D01*
X135869673Y-114292192D01*
X135949754Y-114325444D01*
X132322638Y-117952560D01*
X131200000Y-117952560D01*
X130964683Y-117996838D01*
X130748559Y-118135910D01*
X130603569Y-118348110D01*
X130574836Y-118490000D01*
X125426742Y-118490000D01*
X125403162Y-118364683D01*
X125264090Y-118148559D01*
X125051890Y-118003569D01*
X124800000Y-117952560D01*
X123250000Y-117952560D01*
X123014683Y-117996838D01*
X122798559Y-118135910D01*
X122653569Y-118348110D01*
X122602560Y-118600000D01*
X120127000Y-118600000D01*
X120127000Y-115035750D01*
X122615000Y-115035750D01*
X122615000Y-115526310D01*
X122711673Y-115759699D01*
X122890302Y-115938327D01*
X123123691Y-116035000D01*
X123739250Y-116035000D01*
X123898000Y-115876250D01*
X123898000Y-114877000D01*
X124152000Y-114877000D01*
X124152000Y-115876250D01*
X124310750Y-116035000D01*
X124926309Y-116035000D01*
X125159698Y-115938327D01*
X125338327Y-115759699D01*
X125435000Y-115526310D01*
X125435000Y-115035750D01*
X130565000Y-115035750D01*
X130565000Y-115526310D01*
X130661673Y-115759699D01*
X130840302Y-115938327D01*
X131073691Y-116035000D01*
X131689250Y-116035000D01*
X131848000Y-115876250D01*
X131848000Y-114877000D01*
X132102000Y-114877000D01*
X132102000Y-115876250D01*
X132260750Y-116035000D01*
X132876309Y-116035000D01*
X133109698Y-115938327D01*
X133288327Y-115759699D01*
X133385000Y-115526310D01*
X133385000Y-115035750D01*
X133226250Y-114877000D01*
X132102000Y-114877000D01*
X131848000Y-114877000D01*
X130723750Y-114877000D01*
X130565000Y-115035750D01*
X125435000Y-115035750D01*
X125276250Y-114877000D01*
X124152000Y-114877000D01*
X123898000Y-114877000D01*
X122773750Y-114877000D01*
X122615000Y-115035750D01*
X120127000Y-115035750D01*
X120127000Y-113973690D01*
X122615000Y-113973690D01*
X122615000Y-114464250D01*
X122773750Y-114623000D01*
X123898000Y-114623000D01*
X123898000Y-113623750D01*
X124152000Y-113623750D01*
X124152000Y-114623000D01*
X125276250Y-114623000D01*
X125435000Y-114464250D01*
X125435000Y-113973690D01*
X130565000Y-113973690D01*
X130565000Y-114464250D01*
X130723750Y-114623000D01*
X131848000Y-114623000D01*
X131848000Y-113623750D01*
X132102000Y-113623750D01*
X132102000Y-114623000D01*
X133226250Y-114623000D01*
X133385000Y-114464250D01*
X133385000Y-113973690D01*
X133288327Y-113740301D01*
X133109698Y-113561673D01*
X132876309Y-113465000D01*
X132260750Y-113465000D01*
X132102000Y-113623750D01*
X131848000Y-113623750D01*
X131689250Y-113465000D01*
X131073691Y-113465000D01*
X130840302Y-113561673D01*
X130661673Y-113740301D01*
X130565000Y-113973690D01*
X125435000Y-113973690D01*
X125338327Y-113740301D01*
X125159698Y-113561673D01*
X124926309Y-113465000D01*
X124310750Y-113465000D01*
X124152000Y-113623750D01*
X123898000Y-113623750D01*
X123739250Y-113465000D01*
X123123691Y-113465000D01*
X122890302Y-113561673D01*
X122711673Y-113740301D01*
X122615000Y-113973690D01*
X120127000Y-113973690D01*
X120127000Y-105523690D01*
X126015000Y-105523690D01*
X126015000Y-105616250D01*
X126173750Y-105775000D01*
X126823000Y-105775000D01*
X126823000Y-105173750D01*
X126664250Y-105015000D01*
X126523691Y-105015000D01*
X126290302Y-105111673D01*
X126111673Y-105290301D01*
X126015000Y-105523690D01*
X120127000Y-105523690D01*
X120127000Y-102535750D01*
X122915000Y-102535750D01*
X122915000Y-102826309D01*
X123011673Y-103059698D01*
X123190301Y-103238327D01*
X123423690Y-103335000D01*
X124114250Y-103335000D01*
X124273000Y-103176250D01*
X124273000Y-102377000D01*
X124527000Y-102377000D01*
X124527000Y-103176250D01*
X124685750Y-103335000D01*
X125376310Y-103335000D01*
X125609699Y-103238327D01*
X125788327Y-103059698D01*
X125885000Y-102826309D01*
X125885000Y-102535750D01*
X125726250Y-102377000D01*
X124527000Y-102377000D01*
X124273000Y-102377000D01*
X123073750Y-102377000D01*
X122915000Y-102535750D01*
X120127000Y-102535750D01*
X120127000Y-101673691D01*
X122915000Y-101673691D01*
X122915000Y-101964250D01*
X123073750Y-102123000D01*
X124273000Y-102123000D01*
X124273000Y-101323750D01*
X124527000Y-101323750D01*
X124527000Y-102123000D01*
X125726250Y-102123000D01*
X125885000Y-101964250D01*
X125885000Y-101673691D01*
X125788327Y-101440302D01*
X125609699Y-101261673D01*
X125376310Y-101165000D01*
X124685750Y-101165000D01*
X124527000Y-101323750D01*
X124273000Y-101323750D01*
X124114250Y-101165000D01*
X123423690Y-101165000D01*
X123190301Y-101261673D01*
X123011673Y-101440302D01*
X122915000Y-101673691D01*
X120127000Y-101673691D01*
X120127000Y-90293935D01*
X124555019Y-90293935D01*
X124742294Y-90677111D01*
X125066627Y-90953420D01*
X125472010Y-91084580D01*
X125773000Y-91084580D01*
X125773000Y-90127000D01*
X126027000Y-90127000D01*
X126027000Y-91084580D01*
X126327990Y-91084580D01*
X126733373Y-90953420D01*
X127057706Y-90677111D01*
X127244981Y-90293935D01*
X127118068Y-90127000D01*
X126027000Y-90127000D01*
X125773000Y-90127000D01*
X124681932Y-90127000D01*
X124555019Y-90293935D01*
X120127000Y-90293935D01*
X120127000Y-82528172D01*
X120332538Y-82528172D01*
X120737709Y-83508761D01*
X121487293Y-84259655D01*
X122467173Y-84666536D01*
X123528172Y-84667462D01*
X124508761Y-84262291D01*
X125259655Y-83512707D01*
X125666536Y-82532827D01*
X125667462Y-81471828D01*
X125262291Y-80491239D01*
X124512707Y-79740345D01*
X123532827Y-79333464D01*
X122471828Y-79332538D01*
X121491239Y-79737709D01*
X120740345Y-80487293D01*
X120333464Y-81467173D01*
X120332538Y-82528172D01*
X120127000Y-82528172D01*
X120127000Y-79842333D01*
X120390714Y-79490714D01*
X120755683Y-79216988D01*
X121115634Y-79127000D01*
X161984366Y-79127000D01*
X162347857Y-79217873D01*
G36*
X134569673Y-104092192D02*
X134764848Y-104173236D01*
X134764838Y-104185167D01*
X134906883Y-104528943D01*
X134974245Y-104596422D01*
X134997852Y-104715103D01*
X135162599Y-104961665D01*
X136740000Y-106539066D01*
X136740000Y-108137537D01*
X136707808Y-108169673D01*
X136608613Y-108408560D01*
X136593117Y-108371057D01*
X136330327Y-108107808D01*
X135986799Y-107965162D01*
X135614833Y-107964838D01*
X135349730Y-108074376D01*
X134037302Y-106761948D01*
X134173000Y-106626250D01*
X134173000Y-106025000D01*
X134427000Y-106025000D01*
X134427000Y-106626250D01*
X134585750Y-106785000D01*
X134726309Y-106785000D01*
X134959698Y-106688327D01*
X135138327Y-106509699D01*
X135235000Y-106276310D01*
X135235000Y-106183750D01*
X135076250Y-106025000D01*
X134427000Y-106025000D01*
X134173000Y-106025000D01*
X134153000Y-106025000D01*
X134153000Y-105775000D01*
X134173000Y-105775000D01*
X134173000Y-105173750D01*
X134427000Y-105173750D01*
X134427000Y-105775000D01*
X135076250Y-105775000D01*
X135235000Y-105616250D01*
X135235000Y-105523690D01*
X135138327Y-105290301D01*
X134959698Y-105111673D01*
X134726309Y-105015000D01*
X134585750Y-105015000D01*
X134427000Y-105173750D01*
X134173000Y-105173750D01*
X134014250Y-105015000D01*
X133873691Y-105015000D01*
X133846702Y-105026179D01*
X133764095Y-104902550D01*
X134028943Y-104793117D01*
X134292192Y-104530327D01*
X134434838Y-104186799D01*
X134435038Y-103957322D01*
X134569673Y-104092192D01*
X134569673Y-104092192D01*
G37*
X134569673Y-104092192D02*
X134764848Y-104173236D01*
X134764838Y-104185167D01*
X134906883Y-104528943D01*
X134974245Y-104596422D01*
X134997852Y-104715103D01*
X135162599Y-104961665D01*
X136740000Y-106539066D01*
X136740000Y-108137537D01*
X136707808Y-108169673D01*
X136608613Y-108408560D01*
X136593117Y-108371057D01*
X136330327Y-108107808D01*
X135986799Y-107965162D01*
X135614833Y-107964838D01*
X135349730Y-108074376D01*
X134037302Y-106761948D01*
X134173000Y-106626250D01*
X134173000Y-106025000D01*
X134427000Y-106025000D01*
X134427000Y-106626250D01*
X134585750Y-106785000D01*
X134726309Y-106785000D01*
X134959698Y-106688327D01*
X135138327Y-106509699D01*
X135235000Y-106276310D01*
X135235000Y-106183750D01*
X135076250Y-106025000D01*
X134427000Y-106025000D01*
X134173000Y-106025000D01*
X134153000Y-106025000D01*
X134153000Y-105775000D01*
X134173000Y-105775000D01*
X134173000Y-105173750D01*
X134427000Y-105173750D01*
X134427000Y-105775000D01*
X135076250Y-105775000D01*
X135235000Y-105616250D01*
X135235000Y-105523690D01*
X135138327Y-105290301D01*
X134959698Y-105111673D01*
X134726309Y-105015000D01*
X134585750Y-105015000D01*
X134427000Y-105173750D01*
X134173000Y-105173750D01*
X134014250Y-105015000D01*
X133873691Y-105015000D01*
X133846702Y-105026179D01*
X133764095Y-104902550D01*
X134028943Y-104793117D01*
X134292192Y-104530327D01*
X134434838Y-104186799D01*
X134435038Y-103957322D01*
X134569673Y-104092192D01*
G36*
X127027000Y-95326250D02*
X127185750Y-95485000D01*
X127326309Y-95485000D01*
X127353298Y-95473821D01*
X127401671Y-95546216D01*
X127326309Y-95515000D01*
X127185750Y-95515000D01*
X127027000Y-95673750D01*
X127027000Y-96275000D01*
X127047000Y-96275000D01*
X127047000Y-96525000D01*
X127027000Y-96525000D01*
X127027000Y-96547000D01*
X126773000Y-96547000D01*
X126773000Y-96525000D01*
X126123750Y-96525000D01*
X125965000Y-96683750D01*
X125965000Y-96776310D01*
X126061673Y-97009699D01*
X126240302Y-97188327D01*
X126473691Y-97285000D01*
X126540198Y-97285000D01*
X125677598Y-98147600D01*
X125550974Y-98337107D01*
X125501890Y-98303569D01*
X125250000Y-98252560D01*
X125160000Y-98252560D01*
X125160000Y-96261800D01*
X125398110Y-96023690D01*
X125965000Y-96023690D01*
X125965000Y-96116250D01*
X126123750Y-96275000D01*
X126773000Y-96275000D01*
X126773000Y-95673750D01*
X126614250Y-95515000D01*
X126473691Y-95515000D01*
X126240302Y-95611673D01*
X126061673Y-95790301D01*
X125965000Y-96023690D01*
X125398110Y-96023690D01*
X126136887Y-95284913D01*
X126240302Y-95388327D01*
X126473691Y-95485000D01*
X126614250Y-95485000D01*
X126773000Y-95326250D01*
X126773000Y-94774999D01*
X127027000Y-94774999D01*
X127027000Y-95326250D01*
X127027000Y-95326250D01*
G37*
X127027000Y-95326250D02*
X127185750Y-95485000D01*
X127326309Y-95485000D01*
X127353298Y-95473821D01*
X127401671Y-95546216D01*
X127326309Y-95515000D01*
X127185750Y-95515000D01*
X127027000Y-95673750D01*
X127027000Y-96275000D01*
X127047000Y-96275000D01*
X127047000Y-96525000D01*
X127027000Y-96525000D01*
X127027000Y-96547000D01*
X126773000Y-96547000D01*
X126773000Y-96525000D01*
X126123750Y-96525000D01*
X125965000Y-96683750D01*
X125965000Y-96776310D01*
X126061673Y-97009699D01*
X126240302Y-97188327D01*
X126473691Y-97285000D01*
X126540198Y-97285000D01*
X125677598Y-98147600D01*
X125550974Y-98337107D01*
X125501890Y-98303569D01*
X125250000Y-98252560D01*
X125160000Y-98252560D01*
X125160000Y-96261800D01*
X125398110Y-96023690D01*
X125965000Y-96023690D01*
X125965000Y-96116250D01*
X126123750Y-96275000D01*
X126773000Y-96275000D01*
X126773000Y-95673750D01*
X126614250Y-95515000D01*
X126473691Y-95515000D01*
X126240302Y-95611673D01*
X126061673Y-95790301D01*
X125965000Y-96023690D01*
X125398110Y-96023690D01*
X126136887Y-95284913D01*
X126240302Y-95388327D01*
X126473691Y-95485000D01*
X126614250Y-95485000D01*
X126773000Y-95326250D01*
X126773000Y-94774999D01*
X127027000Y-94774999D01*
X127027000Y-95326250D01*
G36*
X149390000Y-88864487D02*
X147371918Y-90882570D01*
X147071057Y-91006883D01*
X146807808Y-91269673D01*
X146665162Y-91613201D01*
X146664838Y-91985167D01*
X146806883Y-92328943D01*
X146817921Y-92340000D01*
X146359550Y-92340000D01*
X146201250Y-92181700D01*
X145227000Y-92181700D01*
X145227000Y-92201700D01*
X144973000Y-92201700D01*
X144973000Y-92181700D01*
X144953000Y-92181700D01*
X144953000Y-91927700D01*
X144973000Y-91927700D01*
X144973000Y-91907700D01*
X145227000Y-91907700D01*
X145227000Y-91927700D01*
X146201250Y-91927700D01*
X146360000Y-91768950D01*
X146360000Y-91428391D01*
X146268156Y-91206660D01*
X146290839Y-91202148D01*
X146537401Y-91037401D01*
X147439680Y-90135122D01*
X147485167Y-90135162D01*
X147828943Y-89993117D01*
X148092192Y-89730327D01*
X148234838Y-89386799D01*
X148235162Y-89014833D01*
X148093117Y-88671057D01*
X147830327Y-88407808D01*
X147486799Y-88265162D01*
X147114833Y-88264838D01*
X146771057Y-88406883D01*
X146507808Y-88669673D01*
X146365162Y-89013201D01*
X146365121Y-89060077D01*
X145685198Y-89740000D01*
X144305512Y-89740000D01*
X145970513Y-88075000D01*
X146312559Y-88075000D01*
X146613201Y-88199838D01*
X146985167Y-88200162D01*
X147328943Y-88058117D01*
X147592192Y-87795327D01*
X147734838Y-87451799D01*
X147735162Y-87079833D01*
X147593117Y-86736057D01*
X147451410Y-86594103D01*
X147535513Y-86510000D01*
X149390000Y-86510000D01*
X149390000Y-88864487D01*
X149390000Y-88864487D01*
G37*
X149390000Y-88864487D02*
X147371918Y-90882570D01*
X147071057Y-91006883D01*
X146807808Y-91269673D01*
X146665162Y-91613201D01*
X146664838Y-91985167D01*
X146806883Y-92328943D01*
X146817921Y-92340000D01*
X146359550Y-92340000D01*
X146201250Y-92181700D01*
X145227000Y-92181700D01*
X145227000Y-92201700D01*
X144973000Y-92201700D01*
X144973000Y-92181700D01*
X144953000Y-92181700D01*
X144953000Y-91927700D01*
X144973000Y-91927700D01*
X144973000Y-91907700D01*
X145227000Y-91907700D01*
X145227000Y-91927700D01*
X146201250Y-91927700D01*
X146360000Y-91768950D01*
X146360000Y-91428391D01*
X146268156Y-91206660D01*
X146290839Y-91202148D01*
X146537401Y-91037401D01*
X147439680Y-90135122D01*
X147485167Y-90135162D01*
X147828943Y-89993117D01*
X148092192Y-89730327D01*
X148234838Y-89386799D01*
X148235162Y-89014833D01*
X148093117Y-88671057D01*
X147830327Y-88407808D01*
X147486799Y-88265162D01*
X147114833Y-88264838D01*
X146771057Y-88406883D01*
X146507808Y-88669673D01*
X146365162Y-89013201D01*
X146365121Y-89060077D01*
X145685198Y-89740000D01*
X144305512Y-89740000D01*
X145970513Y-88075000D01*
X146312559Y-88075000D01*
X146613201Y-88199838D01*
X146985167Y-88200162D01*
X147328943Y-88058117D01*
X147592192Y-87795327D01*
X147734838Y-87451799D01*
X147735162Y-87079833D01*
X147593117Y-86736057D01*
X147451410Y-86594103D01*
X147535513Y-86510000D01*
X149390000Y-86510000D01*
X149390000Y-88864487D01*
M02*
