G04 #@! TF.FileFunction,Copper,L1,Top,Signal*
%FSLAX46Y46*%
G04 Gerber Fmt 4.6, Leading zero omitted, Abs format (unit mm)*
G04 Created by KiCad (PCBNEW 4.0.7) date 2017 November 19, Sunday 17:56:15*
%MOMM*%
%LPD*%
G01*
G04 APERTURE LIST*
%ADD10C,0.100000*%
%ADD11C,4.064000*%
%ADD12R,0.500000X0.600000*%
%ADD13R,0.350000X0.300000*%
%ADD14R,0.800000X0.750000*%
%ADD15R,1.100000X0.600000*%
%ADD16R,2.032000X2.032000*%
%ADD17O,2.032000X2.032000*%
%ADD18R,0.900000X1.700000*%
%ADD19R,0.500000X0.900000*%
%ADD20R,2.100580X5.600700*%
%ADD21R,1.700000X1.700000*%
%ADD22O,1.700000X1.700000*%
%ADD23R,1.600000X2.600000*%
%ADD24R,1.600000X0.550000*%
%ADD25R,0.550000X1.600000*%
%ADD26R,2.500000X2.550000*%
%ADD27R,2.200000X2.200000*%
%ADD28O,2.200000X2.200000*%
%ADD29R,2.200000X1.500000*%
%ADD30O,1.501140X0.899160*%
%ADD31R,1.700000X1.500000*%
%ADD32R,0.250000X1.100000*%
%ADD33C,0.600000*%
%ADD34C,0.250000*%
%ADD35C,0.350000*%
%ADD36C,0.254000*%
G04 APERTURE END LIST*
D10*
D11*
X160000000Y-134000000D03*
X123000000Y-134000000D03*
X160000000Y-82000000D03*
D12*
X142000000Y-103100000D03*
X142000000Y-102000000D03*
D13*
X143300000Y-102800000D03*
X143300000Y-102250000D03*
D14*
X135150000Y-91900000D03*
X136650000Y-91900000D03*
X139200000Y-112500000D03*
X137700000Y-112500000D03*
D12*
X129600000Y-108300000D03*
X129600000Y-109400000D03*
D15*
X155500000Y-104800000D03*
X152700000Y-104800000D03*
X152700000Y-105750000D03*
X152700000Y-106700000D03*
X155500000Y-106700000D03*
D16*
X152000000Y-130460000D03*
D17*
X152000000Y-133000000D03*
D18*
X160700000Y-100300000D03*
X157800000Y-100300000D03*
X155650000Y-111200000D03*
X152750000Y-111200000D03*
X132650000Y-124600000D03*
X129750000Y-124600000D03*
X150800000Y-101200000D03*
X153700000Y-101200000D03*
D19*
X136500000Y-93600000D03*
X135000000Y-93600000D03*
X148550000Y-122200000D03*
X150050000Y-122200000D03*
X129550000Y-122200000D03*
X131050000Y-122200000D03*
X139050000Y-110800000D03*
X137550000Y-110800000D03*
D20*
X124600000Y-106048860D03*
X124600000Y-96351140D03*
D21*
X152400000Y-92760000D03*
D22*
X149860000Y-92760000D03*
X152400000Y-95300000D03*
X149860000Y-95300000D03*
X152400000Y-97840000D03*
X149860000Y-97840000D03*
D23*
X159300000Y-108400000D03*
X159300000Y-104800000D03*
X148600000Y-108400000D03*
X148600000Y-104800000D03*
D24*
X130400000Y-98500000D03*
X130400000Y-99300000D03*
X130400000Y-100100000D03*
X130400000Y-100900000D03*
X130400000Y-101700000D03*
X130400000Y-102500000D03*
X130400000Y-103300000D03*
X130400000Y-104100000D03*
D25*
X131850000Y-105550000D03*
X132650000Y-105550000D03*
X133450000Y-105550000D03*
X134250000Y-105550000D03*
X135050000Y-105550000D03*
X135850000Y-105550000D03*
X136650000Y-105550000D03*
X137450000Y-105550000D03*
D24*
X138900000Y-104100000D03*
X138900000Y-103300000D03*
X138900000Y-102500000D03*
X138900000Y-101700000D03*
X138900000Y-100900000D03*
X138900000Y-100100000D03*
X138900000Y-99300000D03*
X138900000Y-98500000D03*
D25*
X137450000Y-97050000D03*
X136650000Y-97050000D03*
X135850000Y-97050000D03*
X135050000Y-97050000D03*
X134250000Y-97050000D03*
X133450000Y-97050000D03*
X132650000Y-97050000D03*
X131850000Y-97050000D03*
D26*
X145000000Y-91700000D03*
X145000000Y-96750000D03*
D27*
X130400000Y-93100000D03*
D28*
X130400000Y-85480000D03*
D27*
X156800000Y-88000000D03*
D28*
X156800000Y-95620000D03*
D29*
X127100000Y-118400000D03*
X127100000Y-112000000D03*
D30*
X125900000Y-88730000D03*
X125900000Y-87460000D03*
X125900000Y-90000000D03*
D11*
X123000000Y-82000000D03*
D31*
X148925000Y-80450000D03*
X134125000Y-80450000D03*
D32*
X147275000Y-84350000D03*
X146775000Y-84350000D03*
X146275000Y-84350000D03*
X145775000Y-84350000D03*
X145275000Y-84350000D03*
X144775000Y-84350000D03*
X144275000Y-84350000D03*
X143775000Y-84350000D03*
X143275000Y-84350000D03*
X142775000Y-84350000D03*
X142275000Y-84350000D03*
X141775000Y-84350000D03*
X141275000Y-84350000D03*
X140775000Y-84350000D03*
X140275000Y-84350000D03*
X139775000Y-84350000D03*
X139275000Y-84350000D03*
X138775000Y-84350000D03*
X138275000Y-84350000D03*
X137775000Y-84350000D03*
X137275000Y-84350000D03*
X136775000Y-84350000D03*
X136275000Y-84350000D03*
X135775000Y-84350000D03*
D33*
X140300000Y-88600000D03*
X129200000Y-120900000D03*
X138800000Y-106800000D03*
X135100000Y-103300000D03*
X147300000Y-89200000D03*
X140000000Y-90500000D03*
X145700000Y-100300000D03*
X137500000Y-118800000D03*
X133806513Y-92706513D03*
X149000000Y-86600000D03*
X134900000Y-102000000D03*
X143300000Y-101100000D03*
X143800000Y-99600000D03*
X126300000Y-92400000D03*
X136500000Y-107500000D03*
X148700000Y-115800000D03*
X145500000Y-115100000D03*
X150000000Y-102800000D03*
X148600000Y-100700000D03*
X152700000Y-113100000D03*
X131800000Y-110900000D03*
X131000000Y-127700000D03*
X143100000Y-125000000D03*
X144200000Y-106800000D03*
X143500000Y-86000000D03*
X134200000Y-88700000D03*
X127600000Y-107400000D03*
X128400000Y-104400000D03*
X131200000Y-95200000D03*
X130400000Y-97100000D03*
X133400000Y-100800000D03*
X157800000Y-102200000D03*
X152700000Y-103300000D03*
X155300000Y-101200000D03*
X157100000Y-111200000D03*
X155500000Y-103300000D03*
X154600000Y-92800000D03*
X150400000Y-112200000D03*
X144400000Y-113500000D03*
X139700000Y-106200000D03*
X138800000Y-97300000D03*
X136700000Y-103935000D03*
X146500000Y-99400000D03*
X131300000Y-90600000D03*
X150600000Y-83700000D03*
X135900000Y-99600000D03*
X141500000Y-86300000D03*
X132700000Y-91800000D03*
X138600000Y-114500000D03*
X136400000Y-113500000D03*
X148600000Y-120300000D03*
X135800000Y-108900000D03*
X135000000Y-122000000D03*
X135700000Y-104000000D03*
X133500000Y-104000000D03*
X137500000Y-108700000D03*
X146800000Y-87265000D03*
X138000000Y-90500000D03*
X132600000Y-88200000D03*
X133600000Y-86400000D03*
X130400000Y-89700000D03*
X147600000Y-91800000D03*
X144400000Y-86100000D03*
D34*
X140275000Y-84350000D02*
X140275000Y-86075000D01*
X140275000Y-86075000D02*
X140300000Y-86100000D01*
X140300000Y-87300000D02*
X140300000Y-87100000D01*
X140300000Y-87100000D02*
X140300000Y-86100000D01*
X140300000Y-88600000D02*
X140300000Y-87100000D01*
X137775000Y-85875000D02*
X138000000Y-86100000D01*
X138000000Y-86100000D02*
X138600000Y-86100000D01*
X137775000Y-84350000D02*
X137775000Y-85875000D01*
X138275000Y-85775000D02*
X138600000Y-86100000D01*
X138600000Y-86100000D02*
X140300000Y-86100000D01*
X138275000Y-84350000D02*
X138275000Y-85775000D01*
X139775000Y-84350000D02*
X139775000Y-85575000D01*
X139775000Y-85575000D02*
X140300000Y-86100000D01*
X147300000Y-89200000D02*
X147300000Y-90200000D01*
X147300000Y-90200000D02*
X149860000Y-92760000D01*
X130400000Y-100900000D02*
X132100000Y-100900000D01*
X132100000Y-100900000D02*
X133600000Y-102400000D01*
X133600000Y-102400000D02*
X133600000Y-102500000D01*
X136900000Y-102500000D02*
X135900000Y-102500000D01*
X135900000Y-102500000D02*
X135100000Y-103300000D01*
X137700000Y-103300000D02*
X136900000Y-102500000D01*
X138900000Y-103300000D02*
X137700000Y-103300000D01*
X129200000Y-120900000D02*
X129200000Y-121850000D01*
X129200000Y-121850000D02*
X129550000Y-122200000D01*
X139050000Y-110800000D02*
X139050000Y-107050000D01*
X139050000Y-107050000D02*
X138800000Y-106800000D01*
X135100000Y-103300000D02*
X134400000Y-103300000D01*
X134400000Y-103300000D02*
X133600000Y-102500000D01*
X136500000Y-93600000D02*
X136500000Y-93400000D01*
X136500000Y-93400000D02*
X139400000Y-90500000D01*
X139400000Y-90500000D02*
X140000000Y-90500000D01*
X144500000Y-103500000D02*
X144500000Y-101500000D01*
X144500000Y-101500000D02*
X145700000Y-100300000D01*
X144000000Y-104000000D02*
X144500000Y-103500000D01*
X142900000Y-104000000D02*
X144000000Y-104000000D01*
X139050000Y-110800000D02*
X139050000Y-110600000D01*
X139050000Y-110600000D02*
X141400000Y-108250000D01*
X141400000Y-108250000D02*
X141400000Y-104000000D01*
X129550000Y-122200000D02*
X129550000Y-122400000D01*
X147264999Y-122985001D02*
X148050000Y-122200000D01*
X129550000Y-122400000D02*
X130135001Y-122985001D01*
X130135001Y-122985001D02*
X147264999Y-122985001D01*
X148050000Y-122200000D02*
X148550000Y-122200000D01*
X138900000Y-103300000D02*
X140700000Y-103300000D01*
X140700000Y-103300000D02*
X141400000Y-104000000D01*
X141400000Y-104000000D02*
X142300000Y-104000000D01*
X142300000Y-104000000D02*
X142000000Y-103700000D01*
X142000000Y-103700000D02*
X142000000Y-103100000D01*
X142900000Y-104000000D02*
X142300000Y-104000000D01*
X143300000Y-103600000D02*
X142900000Y-104000000D01*
X143300000Y-102800000D02*
X143300000Y-103600000D01*
X130400000Y-102500000D02*
X133600000Y-102500000D01*
X127100000Y-118400000D02*
X127100000Y-120250000D01*
X127100000Y-120250000D02*
X129050000Y-122200000D01*
X129050000Y-122200000D02*
X129550000Y-122200000D01*
X149000000Y-86600000D02*
X149000000Y-80525000D01*
X149000000Y-80525000D02*
X148925000Y-80450000D01*
X148925000Y-80450000D02*
X145300000Y-80450000D01*
X145300000Y-80450000D02*
X144800000Y-80450000D01*
X145275000Y-84350000D02*
X145275000Y-80475000D01*
X145275000Y-80475000D02*
X145300000Y-80450000D01*
X144800000Y-80450000D02*
X144200000Y-80450000D01*
X144775000Y-84350000D02*
X144775000Y-80475000D01*
X144775000Y-80475000D02*
X144800000Y-80450000D01*
X144200000Y-80450000D02*
X143800000Y-80450000D01*
X144275000Y-84350000D02*
X144275000Y-80525000D01*
X144275000Y-80525000D02*
X144200000Y-80450000D01*
X143800000Y-80450000D02*
X143300000Y-80450000D01*
X143775000Y-84350000D02*
X143775000Y-80475000D01*
X143775000Y-80475000D02*
X143800000Y-80450000D01*
X143300000Y-80450000D02*
X141300000Y-80450000D01*
X143275000Y-84350000D02*
X143275000Y-80475000D01*
X143275000Y-80475000D02*
X143300000Y-80450000D01*
X141300000Y-80450000D02*
X140700000Y-80450000D01*
X141275000Y-84350000D02*
X141275000Y-80475000D01*
X141275000Y-80475000D02*
X141300000Y-80450000D01*
X140700000Y-80450000D02*
X139300000Y-80450000D01*
X140775000Y-84350000D02*
X140775000Y-80525000D01*
X140775000Y-80525000D02*
X140700000Y-80450000D01*
X138800000Y-80450000D02*
X136700000Y-80450000D01*
X136700000Y-80450000D02*
X136300000Y-80450000D01*
X136775000Y-84350000D02*
X136775000Y-80525000D01*
X136775000Y-80525000D02*
X136700000Y-80450000D01*
X136300000Y-80450000D02*
X134125000Y-80450000D01*
X136275000Y-84350000D02*
X136275000Y-80475000D01*
X136275000Y-80475000D02*
X136300000Y-80450000D01*
X139300000Y-80450000D02*
X138800000Y-80450000D01*
X139275000Y-84350000D02*
X139275000Y-80475000D01*
X139275000Y-80475000D02*
X139300000Y-80450000D01*
X138775000Y-84350000D02*
X138775000Y-80475000D01*
X138775000Y-80475000D02*
X138800000Y-80450000D01*
X132400000Y-80800000D02*
X132750000Y-80450000D01*
X132750000Y-80450000D02*
X134125000Y-80450000D01*
X128100000Y-100400000D02*
X128100000Y-95397498D01*
X128100000Y-95397498D02*
X125918291Y-93215789D01*
X125918291Y-93215789D02*
X123281709Y-93215789D01*
X123281709Y-93215789D02*
X123214709Y-93282789D01*
X123214709Y-93282789D02*
X123214709Y-99419491D01*
X123214709Y-99419491D02*
X126139991Y-102344773D01*
X126139991Y-102344773D02*
X126139991Y-105000189D01*
X126139991Y-105000189D02*
X128500000Y-107360198D01*
X128500000Y-107360198D02*
X128500000Y-109300000D01*
X128500000Y-109300000D02*
X128600000Y-109400000D01*
X128600000Y-109400000D02*
X129600000Y-109400000D01*
X152700000Y-105750000D02*
X154100000Y-105750000D01*
X154100000Y-105750000D02*
X158350000Y-105750000D01*
X154100000Y-110550000D02*
X154100000Y-105750000D01*
X152750000Y-111200000D02*
X153450000Y-111200000D01*
X153450000Y-111200000D02*
X154100000Y-110550000D01*
X135460010Y-116760010D02*
X137500000Y-118800000D01*
X137700000Y-112500000D02*
X136400000Y-112500000D01*
X136400000Y-112500000D02*
X135460010Y-113439990D01*
X135460010Y-113439990D02*
X135460010Y-116760010D01*
X136650000Y-91900000D02*
X136625000Y-91900000D01*
X136625000Y-91900000D02*
X135818487Y-92706513D01*
X135818487Y-92706513D02*
X135721489Y-92706513D01*
X135721489Y-92706513D02*
X133806513Y-92706513D01*
X129600000Y-109350000D02*
X129600000Y-109400000D01*
X130400000Y-100100000D02*
X128400000Y-100100000D01*
X128400000Y-100100000D02*
X128100000Y-100400000D01*
X128100000Y-100400000D02*
X128100000Y-101400000D01*
X128100000Y-101400000D02*
X128400000Y-101700000D01*
X128400000Y-101700000D02*
X130400000Y-101700000D01*
X138900000Y-101700000D02*
X135200000Y-101700000D01*
X135200000Y-101700000D02*
X134900000Y-102000000D01*
X143300000Y-102250000D02*
X143300000Y-101100000D01*
X145000000Y-96750000D02*
X145000000Y-98400000D01*
X145000000Y-98400000D02*
X143800000Y-99600000D01*
X136650000Y-91900000D02*
X136650000Y-91275000D01*
X136650000Y-91275000D02*
X134835001Y-89460001D01*
X134835001Y-89460001D02*
X134835001Y-88395199D01*
X134835001Y-88395199D02*
X133939802Y-87500000D01*
X133939802Y-87500000D02*
X132800000Y-87500000D01*
X132800000Y-87500000D02*
X132400000Y-87100000D01*
X132400000Y-87100000D02*
X132400000Y-80800000D01*
X126300000Y-92400000D02*
X125900000Y-92000000D01*
X125900000Y-92000000D02*
X125900000Y-90000000D01*
X138900000Y-100900000D02*
X140900000Y-100900000D01*
X140900000Y-100900000D02*
X141700000Y-101700000D01*
X142000000Y-102000000D02*
X143050000Y-102000000D01*
X143050000Y-102000000D02*
X143300000Y-102250000D01*
X138900000Y-101700000D02*
X141700000Y-101700000D01*
X141700000Y-101700000D02*
X142000000Y-102000000D01*
X131235001Y-108264999D02*
X135000000Y-108264999D01*
X135000000Y-108264999D02*
X136104801Y-108264999D01*
X136500000Y-107500000D02*
X136500000Y-107924264D01*
X136500000Y-107924264D02*
X136159265Y-108264999D01*
X136159265Y-108264999D02*
X135000000Y-108264999D01*
X145500000Y-115100000D02*
X146200000Y-115800000D01*
X146200000Y-115800000D02*
X148700000Y-115800000D01*
X150000000Y-102800000D02*
X150000000Y-104450000D01*
X150000000Y-104450000D02*
X149650000Y-104800000D01*
X149650000Y-104800000D02*
X148600000Y-104800000D01*
X149860000Y-97840000D02*
X149860000Y-99440000D01*
X149860000Y-99440000D02*
X148600000Y-100700000D01*
X150800000Y-101200000D02*
X150800000Y-103650000D01*
X150800000Y-103650000D02*
X149650000Y-104800000D01*
X158350000Y-105750000D02*
X159300000Y-104800000D01*
X149650000Y-104800000D02*
X150600000Y-105750000D01*
X150600000Y-105750000D02*
X151900000Y-105750000D01*
X151900000Y-105750000D02*
X152700000Y-105750000D01*
X152700000Y-113100000D02*
X152700000Y-111250000D01*
X152700000Y-111250000D02*
X152750000Y-111200000D01*
X129600000Y-109400000D02*
X130300000Y-109400000D01*
X130300000Y-109400000D02*
X131800000Y-110900000D01*
X129600000Y-109400000D02*
X130100000Y-109400000D01*
X130100000Y-109400000D02*
X131235001Y-108264999D01*
X136104801Y-108264999D02*
X136435001Y-108595199D01*
X136435001Y-108595199D02*
X136435001Y-111260001D01*
X136435001Y-111260001D02*
X137675000Y-112500000D01*
X137675000Y-112500000D02*
X137700000Y-112500000D01*
X131000000Y-127700000D02*
X130575736Y-127700000D01*
X130575736Y-127700000D02*
X129750000Y-126874264D01*
X129750000Y-126874264D02*
X129750000Y-125700000D01*
X129750000Y-125700000D02*
X129750000Y-124600000D01*
X156850000Y-108600000D02*
X157050000Y-108400000D01*
X157050000Y-108400000D02*
X159300000Y-108400000D01*
X155500000Y-106700000D02*
X155500000Y-107250000D01*
X155500000Y-107250000D02*
X156850000Y-108600000D01*
X159300000Y-108400000D02*
X159300000Y-114253002D01*
X159300000Y-114253002D02*
X148553002Y-125000000D01*
X148553002Y-125000000D02*
X143524264Y-125000000D01*
X143524264Y-125000000D02*
X143100000Y-125000000D01*
X156800000Y-95620000D02*
X160700000Y-99520000D01*
X160700000Y-99520000D02*
X160700000Y-100300000D01*
X161100000Y-101800000D02*
X161100000Y-107200000D01*
X160700000Y-100300000D02*
X160700000Y-101400000D01*
X160700000Y-101400000D02*
X161100000Y-101800000D01*
X143100000Y-125000000D02*
X133050000Y-125000000D01*
X133050000Y-125000000D02*
X132650000Y-124600000D01*
X148600000Y-108400000D02*
X152000000Y-108400000D01*
X152000000Y-108400000D02*
X152700000Y-107700000D01*
X152700000Y-107700000D02*
X152700000Y-106700000D01*
X148600000Y-108400000D02*
X145800000Y-108400000D01*
X145800000Y-108400000D02*
X144200000Y-106800000D01*
X143500000Y-86000000D02*
X143500000Y-86424264D01*
X143500000Y-86424264D02*
X143810737Y-86735001D01*
X146275000Y-85625000D02*
X146275000Y-85150000D01*
X143810737Y-86735001D02*
X145164999Y-86735001D01*
X145164999Y-86735001D02*
X146275000Y-85625000D01*
X146275000Y-85150000D02*
X146275000Y-84350000D01*
X134200000Y-89900000D02*
X134200000Y-88700000D01*
X134200000Y-91600000D02*
X134500000Y-91900000D01*
X134500000Y-91900000D02*
X135150000Y-91900000D01*
X134200000Y-89900000D02*
X134200000Y-91600000D01*
X126600000Y-104750000D02*
X126600000Y-103300000D01*
X126600000Y-103300000D02*
X126600000Y-101401490D01*
X130400000Y-103300000D02*
X128560198Y-103300000D01*
X128560198Y-103300000D02*
X126600000Y-103300000D01*
X126600000Y-101401490D02*
X124600000Y-99401490D01*
X124600000Y-99401490D02*
X124600000Y-96351140D01*
X129600000Y-108300000D02*
X129600000Y-107750000D01*
X129600000Y-107750000D02*
X126600000Y-104750000D01*
X129600000Y-108300000D02*
X129600000Y-108250000D01*
X127600000Y-107400000D02*
X126248860Y-106048860D01*
X126248860Y-106048860D02*
X124600000Y-106048860D01*
X130400000Y-104100000D02*
X128700000Y-104100000D01*
X128700000Y-104100000D02*
X128400000Y-104400000D01*
X131200000Y-95200000D02*
X131649448Y-95200000D01*
X131649448Y-95200000D02*
X132159458Y-94689990D01*
X132159458Y-94689990D02*
X132840542Y-94689990D01*
X132840542Y-94689990D02*
X133450000Y-95299448D01*
X133450000Y-95299448D02*
X133450000Y-96000000D01*
X133450000Y-96000000D02*
X133450000Y-97050000D01*
X132350000Y-95150000D02*
X131585001Y-95914999D01*
X131585001Y-95914999D02*
X131160737Y-95914999D01*
X131160737Y-95914999D02*
X130400000Y-96675736D01*
X130400000Y-96675736D02*
X130400000Y-97100000D01*
X132650000Y-95150000D02*
X132350000Y-95150000D01*
X132650000Y-97050000D02*
X132650000Y-95150000D01*
X131850000Y-97050000D02*
X131850000Y-99250000D01*
X131850000Y-99250000D02*
X133400000Y-100800000D01*
X157800000Y-102200000D02*
X157800000Y-100300000D01*
X152700000Y-103300000D02*
X152700000Y-104800000D01*
X155300000Y-101200000D02*
X153700000Y-101200000D01*
X122700000Y-108950000D02*
X122700000Y-91629010D01*
X122700000Y-91629010D02*
X125599010Y-88730000D01*
X125599010Y-88730000D02*
X125900000Y-88730000D01*
X127100000Y-112000000D02*
X125750000Y-112000000D01*
X125750000Y-112000000D02*
X122700000Y-108950000D01*
X125900000Y-88730000D02*
X127150000Y-88730000D01*
X127150000Y-88730000D02*
X130400000Y-85480000D01*
X157100000Y-111200000D02*
X155650000Y-111200000D01*
X155500000Y-104800000D02*
X155500000Y-103300000D01*
X154600000Y-92800000D02*
X152440000Y-92800000D01*
X152440000Y-92800000D02*
X152400000Y-92760000D01*
X137450000Y-105550000D02*
X137450000Y-106600000D01*
X137450000Y-106600000D02*
X138464999Y-107614999D01*
X138464999Y-107614999D02*
X138464999Y-113143001D01*
X138464999Y-113143001D02*
X139126799Y-113804801D01*
X139126799Y-113804801D02*
X143764999Y-113804801D01*
X143764999Y-113804801D02*
X144095199Y-114135001D01*
X148464999Y-114135001D02*
X150400000Y-112200000D01*
X144095199Y-114135001D02*
X148464999Y-114135001D01*
X144360198Y-105700000D02*
X144996998Y-105700000D01*
X151071997Y-99025001D02*
X152968801Y-99025001D01*
X144996998Y-105700000D02*
X150014999Y-100681999D01*
X153585001Y-96485001D02*
X153249999Y-96149999D01*
X150014999Y-100681999D02*
X150014999Y-100081999D01*
X150014999Y-100081999D02*
X151071997Y-99025001D01*
X152968801Y-99025001D02*
X153585001Y-98408801D01*
X153585001Y-98408801D02*
X153585001Y-96485001D01*
X153249999Y-96149999D02*
X152400000Y-95300000D01*
X143000000Y-107300000D02*
X143000000Y-107060198D01*
X143000000Y-107060198D02*
X144360198Y-105700000D01*
X144400000Y-108700000D02*
X143000000Y-107300000D01*
X144400000Y-113500000D02*
X144400000Y-108700000D01*
X140700000Y-104500000D02*
X140700000Y-105200000D01*
X140700000Y-105200000D02*
X139700000Y-106200000D01*
X140300000Y-104100000D02*
X140700000Y-104500000D01*
X139425000Y-104100000D02*
X140300000Y-104100000D01*
X138900000Y-104100000D02*
X139425000Y-104100000D01*
X138800000Y-97300000D02*
X140100000Y-97300000D01*
X140100000Y-97300000D02*
X143035001Y-100235001D01*
X143035001Y-100235001D02*
X144104801Y-100235001D01*
X144104801Y-100235001D02*
X144939802Y-99400000D01*
X144939802Y-99400000D02*
X146500000Y-99400000D01*
X136650000Y-105550000D02*
X136650000Y-103985000D01*
X136650000Y-103985000D02*
X136700000Y-103935000D01*
X131300000Y-90600000D02*
X131835001Y-91135001D01*
X131835001Y-91135001D02*
X131835001Y-93033897D01*
X134250000Y-96000000D02*
X134250000Y-97050000D01*
X131835001Y-93033897D02*
X134250000Y-95448896D01*
X134250000Y-95448896D02*
X134250000Y-96000000D01*
X151045001Y-84145001D02*
X150600000Y-83700000D01*
X152400000Y-97840000D02*
X151045001Y-96485001D01*
X151045001Y-96485001D02*
X151045001Y-84145001D01*
X142600000Y-88500000D02*
X143200000Y-88500000D01*
X142275000Y-84350000D02*
X142275000Y-88175000D01*
X142275000Y-88175000D02*
X142600000Y-88500000D01*
X143200000Y-88500000D02*
X144928002Y-88500000D01*
X142775000Y-84350000D02*
X142775000Y-88075000D01*
X142775000Y-88075000D02*
X143200000Y-88500000D01*
X146585001Y-90156999D02*
X146585001Y-93243001D01*
X146585001Y-93243001D02*
X146518001Y-93310001D01*
X144928002Y-88500000D02*
X146585001Y-90156999D01*
X146518001Y-93310001D02*
X138539999Y-93310001D01*
X138539999Y-93310001D02*
X135850000Y-96000000D01*
X135850000Y-96000000D02*
X135850000Y-97050000D01*
X135900000Y-99600000D02*
X135900000Y-97100000D01*
X135900000Y-97100000D02*
X135850000Y-97050000D01*
X141500000Y-86300000D02*
X141775000Y-86025000D01*
X141775000Y-86025000D02*
X141775000Y-84350000D01*
X132700000Y-91800000D02*
X132700000Y-92800000D01*
X132700000Y-92800000D02*
X133500000Y-93600000D01*
X133500000Y-93600000D02*
X135000000Y-93600000D01*
X134900000Y-93500000D02*
X135000000Y-93600000D01*
X135050000Y-95050000D02*
X135000000Y-95000000D01*
X135000000Y-95000000D02*
X135000000Y-93600000D01*
X135050000Y-97050000D02*
X135050000Y-95050000D01*
X138600000Y-114500000D02*
X142800000Y-114500000D01*
X142800000Y-114500000D02*
X148600000Y-120300000D01*
X137600000Y-113500000D02*
X138600000Y-114500000D01*
X136400000Y-113500000D02*
X137600000Y-113500000D01*
X148600000Y-120300000D02*
X150050000Y-121750000D01*
X150050000Y-121750000D02*
X150050000Y-122200000D01*
X135800000Y-108900000D02*
X135000000Y-109700000D01*
X135000000Y-109700000D02*
X135000000Y-122000000D01*
X135000000Y-122000000D02*
X131250000Y-122000000D01*
X131250000Y-122000000D02*
X131050000Y-122200000D01*
X133500000Y-104000000D02*
X135700000Y-104000000D01*
X137500000Y-108700000D02*
X137500000Y-110750000D01*
X137500000Y-110750000D02*
X137550000Y-110800000D01*
X146800000Y-86000000D02*
X146775000Y-85975000D01*
X146775000Y-85975000D02*
X146775000Y-84350000D01*
D35*
X146800000Y-87265000D02*
X146800000Y-86000000D01*
D34*
X146775000Y-87240000D02*
X146800000Y-87265000D01*
D35*
X136300000Y-89700000D02*
X138800000Y-89700000D01*
X138800000Y-89700000D02*
X141900000Y-89700000D01*
X138000000Y-90500000D02*
X138800000Y-89700000D01*
X132600000Y-88200000D02*
X131100000Y-89700000D01*
X131100000Y-89700000D02*
X130400000Y-89700000D01*
X135900000Y-86400000D02*
X133600000Y-86400000D01*
X145000000Y-91700000D02*
X142700000Y-91700000D01*
X141900000Y-89700000D02*
X142700000Y-90500000D01*
X142700000Y-90500000D02*
X142700000Y-91700000D01*
X135900000Y-89300000D02*
X136300000Y-89700000D01*
X135900000Y-88600000D02*
X135900000Y-89300000D01*
X135900000Y-88600000D02*
X135900000Y-87739802D01*
X135900000Y-87739802D02*
X135900000Y-86400000D01*
X146800000Y-102000000D02*
X147600000Y-101200000D01*
X147600000Y-101200000D02*
X147600000Y-98800000D01*
X145700000Y-102000000D02*
X146800000Y-102000000D01*
X142850552Y-104700000D02*
X144700000Y-104700000D01*
X140900000Y-112500000D02*
X142100000Y-111300000D01*
X142100000Y-111300000D02*
X142100000Y-108975000D01*
X139200000Y-112500000D02*
X140900000Y-112500000D01*
D34*
X144600000Y-91700000D02*
X145000000Y-91700000D01*
D35*
X147600000Y-98800000D02*
X147600000Y-91800000D01*
X145700000Y-103700000D02*
X145700000Y-102000000D01*
X144700000Y-104700000D02*
X145700000Y-103700000D01*
X142100000Y-108975000D02*
X142100000Y-105450552D01*
X142100000Y-105450552D02*
X142850552Y-104700000D01*
D34*
X145775000Y-84350000D02*
X145775000Y-85150000D01*
X145775000Y-85150000D02*
X144825000Y-86100000D01*
X144825000Y-86100000D02*
X144400000Y-86100000D01*
D36*
G36*
X156473000Y-106900000D02*
X156483006Y-106949410D01*
X156511447Y-106991035D01*
X156553841Y-107018315D01*
X156600000Y-107027000D01*
X161673000Y-107027000D01*
X161673000Y-110173000D01*
X156927000Y-110173000D01*
X156927000Y-109500000D01*
X156916994Y-109450590D01*
X156888553Y-109408965D01*
X156846159Y-109381685D01*
X156800000Y-109373000D01*
X154860000Y-109373000D01*
X154860000Y-106510000D01*
X156473000Y-106510000D01*
X156473000Y-106900000D01*
X156473000Y-106900000D01*
G37*
X156473000Y-106900000D02*
X156483006Y-106949410D01*
X156511447Y-106991035D01*
X156553841Y-107018315D01*
X156600000Y-107027000D01*
X161673000Y-107027000D01*
X161673000Y-110173000D01*
X156927000Y-110173000D01*
X156927000Y-109500000D01*
X156916994Y-109450590D01*
X156888553Y-109408965D01*
X156846159Y-109381685D01*
X156800000Y-109373000D01*
X154860000Y-109373000D01*
X154860000Y-106510000D01*
X156473000Y-106510000D01*
X156473000Y-106900000D01*
G36*
X152150000Y-106697440D02*
X153250000Y-106697440D01*
X153340000Y-106680505D01*
X153340000Y-109573000D01*
X151700000Y-109573000D01*
X151650590Y-109583006D01*
X151608965Y-109611447D01*
X151581685Y-109653841D01*
X151573000Y-109700000D01*
X151573000Y-110073000D01*
X146527000Y-110073000D01*
X146527000Y-107027000D01*
X151800000Y-107027000D01*
X151849410Y-107016994D01*
X151891035Y-106988553D01*
X151918315Y-106946159D01*
X151927000Y-106900000D01*
X151927000Y-106652281D01*
X152150000Y-106697440D01*
X152150000Y-106697440D01*
G37*
X152150000Y-106697440D02*
X153250000Y-106697440D01*
X153340000Y-106680505D01*
X153340000Y-109573000D01*
X151700000Y-109573000D01*
X151650590Y-109583006D01*
X151608965Y-109611447D01*
X151581685Y-109653841D01*
X151573000Y-109700000D01*
X151573000Y-110073000D01*
X146527000Y-110073000D01*
X146527000Y-107027000D01*
X151800000Y-107027000D01*
X151849410Y-107016994D01*
X151891035Y-106988553D01*
X151918315Y-106946159D01*
X151927000Y-106900000D01*
X151927000Y-106652281D01*
X152150000Y-106697440D01*
G36*
X132915302Y-79161673D02*
X132736673Y-79340301D01*
X132640000Y-79573690D01*
X132640000Y-80164250D01*
X132798750Y-80323000D01*
X133998000Y-80323000D01*
X133998000Y-80303000D01*
X134252000Y-80303000D01*
X134252000Y-80323000D01*
X135451250Y-80323000D01*
X135610000Y-80164250D01*
X135610000Y-79573690D01*
X135513327Y-79340301D01*
X135334698Y-79161673D01*
X135250990Y-79127000D01*
X147799010Y-79127000D01*
X147715302Y-79161673D01*
X147536673Y-79340301D01*
X147440000Y-79573690D01*
X147440000Y-80164250D01*
X147598750Y-80323000D01*
X148798000Y-80323000D01*
X148798000Y-80303000D01*
X149052000Y-80303000D01*
X149052000Y-80323000D01*
X150251250Y-80323000D01*
X150410000Y-80164250D01*
X150410000Y-79573690D01*
X150313327Y-79340301D01*
X150134698Y-79161673D01*
X150050990Y-79127000D01*
X161887423Y-79127000D01*
X162346846Y-79218885D01*
X162699816Y-79483612D01*
X162778801Y-79641582D01*
X162873000Y-80112577D01*
X162873000Y-135984366D01*
X162782127Y-136347857D01*
X162608419Y-136608419D01*
X162347857Y-136782127D01*
X161984366Y-136873000D01*
X121115634Y-136873000D01*
X120755683Y-136783012D01*
X120390714Y-136509286D01*
X120127000Y-136157667D01*
X120127000Y-134528172D01*
X120332538Y-134528172D01*
X120737709Y-135508761D01*
X121487293Y-136259655D01*
X122467173Y-136666536D01*
X123528172Y-136667462D01*
X124508761Y-136262291D01*
X125259655Y-135512707D01*
X125666536Y-134532827D01*
X125667462Y-133471828D01*
X125630736Y-133382944D01*
X150394025Y-133382944D01*
X150593615Y-133864818D01*
X151031621Y-134337188D01*
X151617054Y-134605983D01*
X151873000Y-134487367D01*
X151873000Y-133127000D01*
X152127000Y-133127000D01*
X152127000Y-134487367D01*
X152382946Y-134605983D01*
X152552417Y-134528172D01*
X157332538Y-134528172D01*
X157737709Y-135508761D01*
X158487293Y-136259655D01*
X159467173Y-136666536D01*
X160528172Y-136667462D01*
X161508761Y-136262291D01*
X162259655Y-135512707D01*
X162666536Y-134532827D01*
X162667462Y-133471828D01*
X162262291Y-132491239D01*
X161512707Y-131740345D01*
X160532827Y-131333464D01*
X159471828Y-131332538D01*
X158491239Y-131737709D01*
X157740345Y-132487293D01*
X157333464Y-133467173D01*
X157332538Y-134528172D01*
X152552417Y-134528172D01*
X152968379Y-134337188D01*
X153406385Y-133864818D01*
X153605975Y-133382944D01*
X153486836Y-133127000D01*
X152127000Y-133127000D01*
X151873000Y-133127000D01*
X150513164Y-133127000D01*
X150394025Y-133382944D01*
X125630736Y-133382944D01*
X125262291Y-132491239D01*
X125135165Y-132363890D01*
X138215592Y-132363890D01*
X138380362Y-132762663D01*
X138685193Y-133068026D01*
X139083677Y-133233491D01*
X139515150Y-133233868D01*
X139913923Y-133069098D01*
X140219286Y-132764267D01*
X140384751Y-132365783D01*
X140384752Y-132363890D01*
X142614872Y-132363890D01*
X142779642Y-132762663D01*
X143084473Y-133068026D01*
X143482957Y-133233491D01*
X143914430Y-133233868D01*
X144313203Y-133069098D01*
X144618566Y-132764267D01*
X144784031Y-132365783D01*
X144784408Y-131934310D01*
X144619638Y-131535537D01*
X144314807Y-131230174D01*
X143916323Y-131064709D01*
X143484850Y-131064332D01*
X143086077Y-131229102D01*
X142780714Y-131533933D01*
X142615249Y-131932417D01*
X142614872Y-132363890D01*
X140384752Y-132363890D01*
X140385128Y-131934310D01*
X140220358Y-131535537D01*
X139915527Y-131230174D01*
X139517043Y-131064709D01*
X139085570Y-131064332D01*
X138686797Y-131229102D01*
X138381434Y-131533933D01*
X138215969Y-131932417D01*
X138215592Y-132363890D01*
X125135165Y-132363890D01*
X124512707Y-131740345D01*
X123532827Y-131333464D01*
X122471828Y-131332538D01*
X121491239Y-131737709D01*
X120740345Y-132487293D01*
X120333464Y-133467173D01*
X120332538Y-134528172D01*
X120127000Y-134528172D01*
X120127000Y-129444000D01*
X150336560Y-129444000D01*
X150336560Y-131476000D01*
X150380838Y-131711317D01*
X150519910Y-131927441D01*
X150682948Y-132038840D01*
X150593615Y-132135182D01*
X150394025Y-132617056D01*
X150513164Y-132873000D01*
X151873000Y-132873000D01*
X151873000Y-132853000D01*
X152127000Y-132853000D01*
X152127000Y-132873000D01*
X153486836Y-132873000D01*
X153605975Y-132617056D01*
X153406385Y-132135182D01*
X153315903Y-132037602D01*
X153467441Y-131940090D01*
X153612431Y-131727890D01*
X153663440Y-131476000D01*
X153663440Y-129444000D01*
X153619162Y-129208683D01*
X153480090Y-128992559D01*
X153267890Y-128847569D01*
X153016000Y-128796560D01*
X150984000Y-128796560D01*
X150748683Y-128840838D01*
X150532559Y-128979910D01*
X150387569Y-129192110D01*
X150336560Y-129444000D01*
X120127000Y-129444000D01*
X120127000Y-124885750D01*
X128665000Y-124885750D01*
X128665000Y-125576310D01*
X128761673Y-125809699D01*
X128940302Y-125988327D01*
X129173691Y-126085000D01*
X129464250Y-126085000D01*
X129623000Y-125926250D01*
X129623000Y-124727000D01*
X129877000Y-124727000D01*
X129877000Y-125926250D01*
X130035750Y-126085000D01*
X130326309Y-126085000D01*
X130559698Y-125988327D01*
X130738327Y-125809699D01*
X130835000Y-125576310D01*
X130835000Y-124885750D01*
X130676250Y-124727000D01*
X129877000Y-124727000D01*
X129623000Y-124727000D01*
X128823750Y-124727000D01*
X128665000Y-124885750D01*
X120127000Y-124885750D01*
X120127000Y-91629010D01*
X121940000Y-91629010D01*
X121940000Y-108950000D01*
X121997852Y-109240839D01*
X122162599Y-109487401D01*
X125212599Y-112537401D01*
X125352560Y-112630920D01*
X125352560Y-112750000D01*
X125396838Y-112985317D01*
X125535910Y-113201441D01*
X125748110Y-113346431D01*
X126000000Y-113397440D01*
X128200000Y-113397440D01*
X128435317Y-113353162D01*
X128651441Y-113214090D01*
X128796431Y-113001890D01*
X128847440Y-112750000D01*
X128847440Y-111250000D01*
X128803162Y-111014683D01*
X128664090Y-110798559D01*
X128451890Y-110653569D01*
X128200000Y-110602560D01*
X126000000Y-110602560D01*
X125764683Y-110646838D01*
X125586377Y-110761575D01*
X124510552Y-109685750D01*
X128715000Y-109685750D01*
X128715000Y-109826309D01*
X128811673Y-110059698D01*
X128990301Y-110238327D01*
X129223690Y-110335000D01*
X129316250Y-110335000D01*
X129475000Y-110176250D01*
X129475000Y-109527000D01*
X129725000Y-109527000D01*
X129725000Y-110176250D01*
X129883750Y-110335000D01*
X129976310Y-110335000D01*
X130209699Y-110238327D01*
X130388327Y-110059698D01*
X130485000Y-109826309D01*
X130485000Y-109685750D01*
X130326250Y-109527000D01*
X129725000Y-109527000D01*
X129475000Y-109527000D01*
X128873750Y-109527000D01*
X128715000Y-109685750D01*
X124510552Y-109685750D01*
X124321452Y-109496650D01*
X125650290Y-109496650D01*
X125885607Y-109452372D01*
X126101731Y-109313300D01*
X126246721Y-109101100D01*
X126297730Y-108849210D01*
X126297730Y-107172532D01*
X126664878Y-107539680D01*
X126664838Y-107585167D01*
X126806883Y-107928943D01*
X127069673Y-108192192D01*
X127413201Y-108334838D01*
X127785167Y-108335162D01*
X128128943Y-108193117D01*
X128392192Y-107930327D01*
X128484126Y-107708928D01*
X128714792Y-107939594D01*
X128702560Y-108000000D01*
X128702560Y-108600000D01*
X128746838Y-108835317D01*
X128762339Y-108859406D01*
X128715000Y-108973691D01*
X128715000Y-109114250D01*
X128873750Y-109273000D01*
X129475000Y-109273000D01*
X129475000Y-109253000D01*
X129725000Y-109253000D01*
X129725000Y-109273000D01*
X130326250Y-109273000D01*
X130485000Y-109114250D01*
X130485000Y-108973691D01*
X130439033Y-108862717D01*
X130446431Y-108851890D01*
X130497440Y-108600000D01*
X130497440Y-108000000D01*
X130453162Y-107764683D01*
X130322544Y-107561697D01*
X130302148Y-107459161D01*
X130137401Y-107212599D01*
X128259680Y-105334878D01*
X128585167Y-105335162D01*
X128928943Y-105193117D01*
X129192192Y-104930327D01*
X129213356Y-104879358D01*
X129348110Y-104971431D01*
X129600000Y-105022440D01*
X130927560Y-105022440D01*
X130927560Y-106350000D01*
X130971838Y-106585317D01*
X131110910Y-106801441D01*
X131323110Y-106946431D01*
X131575000Y-106997440D01*
X132125000Y-106997440D01*
X132254589Y-106973056D01*
X132375000Y-106997440D01*
X132925000Y-106997440D01*
X133054589Y-106973056D01*
X133175000Y-106997440D01*
X133725000Y-106997440D01*
X133854589Y-106973056D01*
X133975000Y-106997440D01*
X134525000Y-106997440D01*
X134654589Y-106973056D01*
X134775000Y-106997440D01*
X135325000Y-106997440D01*
X135454589Y-106973056D01*
X135575000Y-106997440D01*
X136125000Y-106997440D01*
X136254589Y-106973056D01*
X136375000Y-106997440D01*
X136819080Y-106997440D01*
X136912599Y-107137401D01*
X137540232Y-107765034D01*
X137314833Y-107764838D01*
X136971057Y-107906883D01*
X136707808Y-108169673D01*
X136608613Y-108408560D01*
X136593117Y-108371057D01*
X136330327Y-108107808D01*
X135986799Y-107965162D01*
X135614833Y-107964838D01*
X135271057Y-108106883D01*
X135007808Y-108369673D01*
X134865162Y-108713201D01*
X134865121Y-108760077D01*
X134462599Y-109162599D01*
X134297852Y-109409161D01*
X134240000Y-109700000D01*
X134240000Y-121240000D01*
X131678386Y-121240000D01*
X131551890Y-121153569D01*
X131300000Y-121102560D01*
X130800000Y-121102560D01*
X130564683Y-121146838D01*
X130348559Y-121285910D01*
X130300866Y-121355711D01*
X130264090Y-121298559D01*
X130094908Y-121182962D01*
X130134838Y-121086799D01*
X130135162Y-120714833D01*
X129993117Y-120371057D01*
X129730327Y-120107808D01*
X129386799Y-119965162D01*
X129014833Y-119964838D01*
X128671057Y-120106883D01*
X128407808Y-120369673D01*
X128374556Y-120449754D01*
X127860000Y-119935198D01*
X127860000Y-119797440D01*
X128200000Y-119797440D01*
X128435317Y-119753162D01*
X128651441Y-119614090D01*
X128796431Y-119401890D01*
X128847440Y-119150000D01*
X128847440Y-117650000D01*
X128803162Y-117414683D01*
X128664090Y-117198559D01*
X128451890Y-117053569D01*
X128200000Y-117002560D01*
X126000000Y-117002560D01*
X125764683Y-117046838D01*
X125548559Y-117185910D01*
X125403569Y-117398110D01*
X125352560Y-117650000D01*
X125352560Y-119150000D01*
X125396838Y-119385317D01*
X125535910Y-119601441D01*
X125748110Y-119746431D01*
X126000000Y-119797440D01*
X126340000Y-119797440D01*
X126340000Y-120250000D01*
X126397852Y-120540839D01*
X126562599Y-120787401D01*
X128512599Y-122737401D01*
X128691498Y-122856938D01*
X128696838Y-122885317D01*
X128835910Y-123101441D01*
X128975750Y-123196990D01*
X128940302Y-123211673D01*
X128761673Y-123390301D01*
X128665000Y-123623690D01*
X128665000Y-124314250D01*
X128823750Y-124473000D01*
X129623000Y-124473000D01*
X129623000Y-124453000D01*
X129877000Y-124453000D01*
X129877000Y-124473000D01*
X130676250Y-124473000D01*
X130835000Y-124314250D01*
X130835000Y-123745001D01*
X131553572Y-123745001D01*
X131552560Y-123750000D01*
X131552560Y-125450000D01*
X131596838Y-125685317D01*
X131735910Y-125901441D01*
X131948110Y-126046431D01*
X132200000Y-126097440D01*
X133100000Y-126097440D01*
X133335317Y-126053162D01*
X133551441Y-125914090D01*
X133656726Y-125760000D01*
X142537537Y-125760000D01*
X142569673Y-125792192D01*
X142913201Y-125934838D01*
X143285167Y-125935162D01*
X143628943Y-125793117D01*
X143662118Y-125760000D01*
X148553002Y-125760000D01*
X148843841Y-125702148D01*
X149090403Y-125537401D01*
X159837401Y-114790403D01*
X160002148Y-114543842D01*
X160060000Y-114253002D01*
X160060000Y-110935000D01*
X161800000Y-110935000D01*
X162030795Y-110891573D01*
X162242767Y-110755173D01*
X162384971Y-110547051D01*
X162435000Y-110300000D01*
X162435000Y-106900000D01*
X162391573Y-106669205D01*
X162255173Y-106457233D01*
X162047051Y-106315029D01*
X161860000Y-106277150D01*
X161860000Y-101800000D01*
X161802148Y-101509161D01*
X161802148Y-101509160D01*
X161738363Y-101413699D01*
X161746431Y-101401890D01*
X161797440Y-101150000D01*
X161797440Y-99450000D01*
X161753162Y-99214683D01*
X161614090Y-98998559D01*
X161401890Y-98853569D01*
X161150000Y-98802560D01*
X161057362Y-98802560D01*
X158431106Y-96176304D01*
X158535000Y-95653991D01*
X158535000Y-95586009D01*
X158402931Y-94922053D01*
X158026830Y-94359179D01*
X157463956Y-93983078D01*
X156800000Y-93851009D01*
X156136044Y-93983078D01*
X155573170Y-94359179D01*
X155197069Y-94922053D01*
X155065000Y-95586009D01*
X155065000Y-95653991D01*
X155197069Y-96317947D01*
X155573170Y-96880821D01*
X156136044Y-97256922D01*
X156800000Y-97388991D01*
X157379016Y-97273818D01*
X159602560Y-99497362D01*
X159602560Y-101150000D01*
X159646838Y-101385317D01*
X159785910Y-101601441D01*
X159998110Y-101746431D01*
X160040770Y-101755070D01*
X160162599Y-101937401D01*
X160340000Y-102114802D01*
X160340000Y-102912092D01*
X160226310Y-102865000D01*
X159585750Y-102865000D01*
X159427000Y-103023750D01*
X159427000Y-104673000D01*
X159447000Y-104673000D01*
X159447000Y-104927000D01*
X159427000Y-104927000D01*
X159427000Y-104947000D01*
X159173000Y-104947000D01*
X159173000Y-104927000D01*
X158023750Y-104927000D01*
X157865000Y-105085750D01*
X157865000Y-106226309D01*
X157881026Y-106265000D01*
X157235000Y-106265000D01*
X157235000Y-106200000D01*
X157191573Y-105969205D01*
X157055173Y-105757233D01*
X156847051Y-105615029D01*
X156600000Y-105565000D01*
X156500027Y-105565000D01*
X156501441Y-105564090D01*
X156646431Y-105351890D01*
X156697440Y-105100000D01*
X156697440Y-104500000D01*
X156653162Y-104264683D01*
X156514090Y-104048559D01*
X156301890Y-103903569D01*
X156260000Y-103895086D01*
X156260000Y-103862463D01*
X156292192Y-103830327D01*
X156434838Y-103486799D01*
X156435162Y-103114833D01*
X156293117Y-102771057D01*
X156030327Y-102507808D01*
X155686799Y-102365162D01*
X155314833Y-102364838D01*
X154971057Y-102506883D01*
X154707808Y-102769673D01*
X154565162Y-103113201D01*
X154564838Y-103485167D01*
X154706883Y-103828943D01*
X154740000Y-103862118D01*
X154740000Y-103892074D01*
X154714683Y-103896838D01*
X154498559Y-104035910D01*
X154353569Y-104248110D01*
X154302560Y-104500000D01*
X154302560Y-105100000D01*
X154346838Y-105335317D01*
X154485910Y-105551441D01*
X154547696Y-105593658D01*
X154469205Y-105608427D01*
X154257233Y-105744827D01*
X154115029Y-105952949D01*
X154100041Y-106026960D01*
X154055173Y-105957233D01*
X153847051Y-105815029D01*
X153600000Y-105765000D01*
X153311431Y-105765000D01*
X153250000Y-105752560D01*
X152150000Y-105752560D01*
X152083887Y-105765000D01*
X151800000Y-105765000D01*
X151569205Y-105808427D01*
X151357233Y-105944827D01*
X151215029Y-106152949D01*
X151192338Y-106265000D01*
X150018974Y-106265000D01*
X150035000Y-106226309D01*
X150035000Y-105085750D01*
X149876250Y-104927000D01*
X148727000Y-104927000D01*
X148727000Y-104947000D01*
X148473000Y-104947000D01*
X148473000Y-104927000D01*
X147323750Y-104927000D01*
X147165000Y-105085750D01*
X147165000Y-106226309D01*
X147181026Y-106265000D01*
X146400000Y-106265000D01*
X146169205Y-106308427D01*
X145957233Y-106444827D01*
X145815029Y-106652949D01*
X145765000Y-106900000D01*
X145765000Y-107290198D01*
X145135122Y-106660320D01*
X145135162Y-106614833D01*
X145065552Y-106446364D01*
X145287837Y-106402148D01*
X145534399Y-106237401D01*
X147211275Y-104560525D01*
X147323750Y-104673000D01*
X148473000Y-104673000D01*
X148473000Y-104653000D01*
X148727000Y-104653000D01*
X148727000Y-104673000D01*
X149876250Y-104673000D01*
X150035000Y-104514250D01*
X150035000Y-103373691D01*
X149938327Y-103140302D01*
X149759699Y-102961673D01*
X149526310Y-102865000D01*
X148906800Y-102865000D01*
X149715000Y-102056800D01*
X149715000Y-102176310D01*
X149811673Y-102409699D01*
X149990302Y-102588327D01*
X150223691Y-102685000D01*
X150514250Y-102685000D01*
X150673000Y-102526250D01*
X150673000Y-101327000D01*
X150927000Y-101327000D01*
X150927000Y-102526250D01*
X151085750Y-102685000D01*
X151376309Y-102685000D01*
X151609698Y-102588327D01*
X151788327Y-102409699D01*
X151885000Y-102176310D01*
X151885000Y-101485750D01*
X151726250Y-101327000D01*
X150927000Y-101327000D01*
X150673000Y-101327000D01*
X150653000Y-101327000D01*
X150653000Y-101073000D01*
X150673000Y-101073000D01*
X150673000Y-101053000D01*
X150927000Y-101053000D01*
X150927000Y-101073000D01*
X151726250Y-101073000D01*
X151885000Y-100914250D01*
X151885000Y-100223690D01*
X151788327Y-99990301D01*
X151609698Y-99811673D01*
X151545306Y-99785001D01*
X152955376Y-99785001D01*
X152798559Y-99885910D01*
X152653569Y-100098110D01*
X152602560Y-100350000D01*
X152602560Y-102050000D01*
X152646838Y-102285317D01*
X152698111Y-102364998D01*
X152514833Y-102364838D01*
X152171057Y-102506883D01*
X151907808Y-102769673D01*
X151765162Y-103113201D01*
X151764838Y-103485167D01*
X151906883Y-103828943D01*
X151940000Y-103862118D01*
X151940000Y-103892074D01*
X151914683Y-103896838D01*
X151698559Y-104035910D01*
X151553569Y-104248110D01*
X151502560Y-104500000D01*
X151502560Y-105100000D01*
X151535389Y-105274469D01*
X151515000Y-105323691D01*
X151515000Y-105464250D01*
X151673750Y-105623000D01*
X151790640Y-105623000D01*
X151898110Y-105696431D01*
X152150000Y-105747440D01*
X153250000Y-105747440D01*
X153485317Y-105703162D01*
X153609892Y-105623000D01*
X153726250Y-105623000D01*
X153885000Y-105464250D01*
X153885000Y-105323691D01*
X153862931Y-105270411D01*
X153897440Y-105100000D01*
X153897440Y-104500000D01*
X153853162Y-104264683D01*
X153714090Y-104048559D01*
X153501890Y-103903569D01*
X153460000Y-103895086D01*
X153460000Y-103862463D01*
X153492192Y-103830327D01*
X153634838Y-103486799D01*
X153635162Y-103114833D01*
X153493117Y-102771057D01*
X153419628Y-102697440D01*
X154150000Y-102697440D01*
X154385317Y-102653162D01*
X154601441Y-102514090D01*
X154746431Y-102301890D01*
X154797440Y-102050000D01*
X154797440Y-102003722D01*
X155113201Y-102134838D01*
X155485167Y-102135162D01*
X155828943Y-101993117D01*
X156092192Y-101730327D01*
X156234838Y-101386799D01*
X156235162Y-101014833D01*
X156093117Y-100671057D01*
X155830327Y-100407808D01*
X155486799Y-100265162D01*
X155114833Y-100264838D01*
X154797440Y-100395982D01*
X154797440Y-100350000D01*
X154753162Y-100114683D01*
X154614090Y-99898559D01*
X154401890Y-99753569D01*
X154150000Y-99702560D01*
X153296440Y-99702560D01*
X153506202Y-99562402D01*
X153618604Y-99450000D01*
X156702560Y-99450000D01*
X156702560Y-101150000D01*
X156746838Y-101385317D01*
X156885910Y-101601441D01*
X157002937Y-101681402D01*
X156865162Y-102013201D01*
X156864838Y-102385167D01*
X157006883Y-102728943D01*
X157269673Y-102992192D01*
X157613201Y-103134838D01*
X157966829Y-103135146D01*
X157961673Y-103140302D01*
X157865000Y-103373691D01*
X157865000Y-104514250D01*
X158023750Y-104673000D01*
X159173000Y-104673000D01*
X159173000Y-103023750D01*
X159014250Y-102865000D01*
X158457284Y-102865000D01*
X158592192Y-102730327D01*
X158734838Y-102386799D01*
X158735162Y-102014833D01*
X158597275Y-101681119D01*
X158701441Y-101614090D01*
X158846431Y-101401890D01*
X158897440Y-101150000D01*
X158897440Y-99450000D01*
X158853162Y-99214683D01*
X158714090Y-98998559D01*
X158501890Y-98853569D01*
X158250000Y-98802560D01*
X157350000Y-98802560D01*
X157114683Y-98846838D01*
X156898559Y-98985910D01*
X156753569Y-99198110D01*
X156702560Y-99450000D01*
X153618604Y-99450000D01*
X154122402Y-98946202D01*
X154287149Y-98699641D01*
X154345001Y-98408801D01*
X154345001Y-96485001D01*
X154309571Y-96306883D01*
X154287149Y-96194161D01*
X154122402Y-95947600D01*
X153841210Y-95666408D01*
X153914093Y-95300000D01*
X153801054Y-94731715D01*
X153479147Y-94249946D01*
X153437548Y-94222150D01*
X153485317Y-94213162D01*
X153701441Y-94074090D01*
X153846431Y-93861890D01*
X153897440Y-93610000D01*
X153897440Y-93560000D01*
X154037537Y-93560000D01*
X154069673Y-93592192D01*
X154413201Y-93734838D01*
X154785167Y-93735162D01*
X155128943Y-93593117D01*
X155392192Y-93330327D01*
X155534838Y-92986799D01*
X155535162Y-92614833D01*
X155393117Y-92271057D01*
X155130327Y-92007808D01*
X154786799Y-91865162D01*
X154414833Y-91864838D01*
X154071057Y-92006883D01*
X154037882Y-92040000D01*
X153897440Y-92040000D01*
X153897440Y-91910000D01*
X153853162Y-91674683D01*
X153714090Y-91458559D01*
X153501890Y-91313569D01*
X153250000Y-91262560D01*
X151805001Y-91262560D01*
X151805001Y-86900000D01*
X155052560Y-86900000D01*
X155052560Y-89100000D01*
X155096838Y-89335317D01*
X155235910Y-89551441D01*
X155448110Y-89696431D01*
X155700000Y-89747440D01*
X157900000Y-89747440D01*
X158135317Y-89703162D01*
X158351441Y-89564090D01*
X158496431Y-89351890D01*
X158547440Y-89100000D01*
X158547440Y-86900000D01*
X158503162Y-86664683D01*
X158364090Y-86448559D01*
X158151890Y-86303569D01*
X157900000Y-86252560D01*
X155700000Y-86252560D01*
X155464683Y-86296838D01*
X155248559Y-86435910D01*
X155103569Y-86648110D01*
X155052560Y-86900000D01*
X151805001Y-86900000D01*
X151805001Y-84145001D01*
X151747149Y-83854162D01*
X151747149Y-83854161D01*
X151582402Y-83607600D01*
X151535122Y-83560320D01*
X151535162Y-83514833D01*
X151393117Y-83171057D01*
X151130327Y-82907808D01*
X150786799Y-82765162D01*
X150414833Y-82764838D01*
X150071057Y-82906883D01*
X149807808Y-83169673D01*
X149665162Y-83513201D01*
X149664838Y-83885167D01*
X149806883Y-84228943D01*
X150069673Y-84492192D01*
X150285001Y-84581604D01*
X150285001Y-91353751D01*
X149889093Y-91275000D01*
X149830907Y-91275000D01*
X149513031Y-91338229D01*
X148060000Y-89885198D01*
X148060000Y-89762463D01*
X148092192Y-89730327D01*
X148234838Y-89386799D01*
X148235162Y-89014833D01*
X148093117Y-88671057D01*
X147830327Y-88407808D01*
X147486799Y-88265162D01*
X147114833Y-88264838D01*
X146771057Y-88406883D01*
X146507808Y-88669673D01*
X146409420Y-88906616D01*
X145465403Y-87962599D01*
X145218841Y-87797852D01*
X144928002Y-87740000D01*
X143535000Y-87740000D01*
X143535000Y-87440153D01*
X143568151Y-87446747D01*
X143810737Y-87495001D01*
X145164999Y-87495001D01*
X145455838Y-87437149D01*
X145702400Y-87272402D01*
X145865135Y-87109667D01*
X145864838Y-87450167D01*
X146006883Y-87793943D01*
X146269673Y-88057192D01*
X146613201Y-88199838D01*
X146985167Y-88200162D01*
X147328943Y-88058117D01*
X147592192Y-87795327D01*
X147734838Y-87451799D01*
X147735162Y-87079833D01*
X147610000Y-86776917D01*
X147610000Y-86000000D01*
X147548342Y-85690026D01*
X147535000Y-85670058D01*
X147535000Y-85522038D01*
X147635317Y-85503162D01*
X147851441Y-85364090D01*
X147996431Y-85151890D01*
X148047440Y-84900000D01*
X148047440Y-83800000D01*
X148003162Y-83564683D01*
X147864090Y-83348559D01*
X147651890Y-83203569D01*
X147400000Y-83152560D01*
X147150000Y-83152560D01*
X147020411Y-83176944D01*
X146900000Y-83152560D01*
X146650000Y-83152560D01*
X146520411Y-83176944D01*
X146400000Y-83152560D01*
X146150000Y-83152560D01*
X146020411Y-83176944D01*
X145900000Y-83152560D01*
X145650000Y-83152560D01*
X145544295Y-83172450D01*
X145526309Y-83165000D01*
X145496250Y-83165000D01*
X145475938Y-83185312D01*
X145414683Y-83196838D01*
X145280931Y-83282905D01*
X145259698Y-83261673D01*
X145073154Y-83184404D01*
X145053750Y-83165000D01*
X144996250Y-83165000D01*
X144976846Y-83184404D01*
X144790302Y-83261673D01*
X144775000Y-83276975D01*
X144759698Y-83261673D01*
X144573154Y-83184404D01*
X144553750Y-83165000D01*
X144496250Y-83165000D01*
X144476846Y-83184404D01*
X144290302Y-83261673D01*
X144275000Y-83276975D01*
X144259698Y-83261673D01*
X144073154Y-83184404D01*
X144053750Y-83165000D01*
X143996250Y-83165000D01*
X143976846Y-83184404D01*
X143790302Y-83261673D01*
X143775000Y-83276975D01*
X143759698Y-83261673D01*
X143573154Y-83184404D01*
X143553750Y-83165000D01*
X143496250Y-83165000D01*
X143476846Y-83184404D01*
X143290302Y-83261673D01*
X143268636Y-83283338D01*
X143151890Y-83203569D01*
X143077192Y-83188442D01*
X143053750Y-83165000D01*
X143023691Y-83165000D01*
X143003247Y-83173468D01*
X142900000Y-83152560D01*
X142650000Y-83152560D01*
X142520411Y-83176944D01*
X142400000Y-83152560D01*
X142150000Y-83152560D01*
X142020411Y-83176944D01*
X141900000Y-83152560D01*
X141650000Y-83152560D01*
X141544295Y-83172450D01*
X141526309Y-83165000D01*
X141496250Y-83165000D01*
X141475938Y-83185312D01*
X141414683Y-83196838D01*
X141280931Y-83282905D01*
X141259698Y-83261673D01*
X141073154Y-83184404D01*
X141053750Y-83165000D01*
X140996250Y-83165000D01*
X140976846Y-83184404D01*
X140790302Y-83261673D01*
X140768636Y-83283338D01*
X140651890Y-83203569D01*
X140577192Y-83188442D01*
X140553750Y-83165000D01*
X140523691Y-83165000D01*
X140503247Y-83173468D01*
X140400000Y-83152560D01*
X140150000Y-83152560D01*
X140020411Y-83176944D01*
X139900000Y-83152560D01*
X139650000Y-83152560D01*
X139544295Y-83172450D01*
X139526309Y-83165000D01*
X139496250Y-83165000D01*
X139475938Y-83185312D01*
X139414683Y-83196838D01*
X139280931Y-83282905D01*
X139259698Y-83261673D01*
X139073154Y-83184404D01*
X139053750Y-83165000D01*
X138996250Y-83165000D01*
X138976846Y-83184404D01*
X138790302Y-83261673D01*
X138768636Y-83283338D01*
X138651890Y-83203569D01*
X138577192Y-83188442D01*
X138553750Y-83165000D01*
X138523691Y-83165000D01*
X138503247Y-83173468D01*
X138400000Y-83152560D01*
X138150000Y-83152560D01*
X138020411Y-83176944D01*
X137900000Y-83152560D01*
X137650000Y-83152560D01*
X137520411Y-83176944D01*
X137400000Y-83152560D01*
X137150000Y-83152560D01*
X137044295Y-83172450D01*
X137026309Y-83165000D01*
X136996250Y-83165000D01*
X136975938Y-83185312D01*
X136914683Y-83196838D01*
X136780931Y-83282905D01*
X136759698Y-83261673D01*
X136573154Y-83184404D01*
X136553750Y-83165000D01*
X136496250Y-83165000D01*
X136476846Y-83184404D01*
X136290302Y-83261673D01*
X136268636Y-83283338D01*
X136151890Y-83203569D01*
X136077192Y-83188442D01*
X136053750Y-83165000D01*
X136023691Y-83165000D01*
X136003247Y-83173468D01*
X135900000Y-83152560D01*
X135650000Y-83152560D01*
X135414683Y-83196838D01*
X135198559Y-83335910D01*
X135053569Y-83548110D01*
X135002560Y-83800000D01*
X135002560Y-84900000D01*
X135046838Y-85135317D01*
X135185910Y-85351441D01*
X135398110Y-85496431D01*
X135650000Y-85547440D01*
X135900000Y-85547440D01*
X136005705Y-85527550D01*
X136023691Y-85535000D01*
X136053750Y-85535000D01*
X136074062Y-85514688D01*
X136135317Y-85503162D01*
X136269069Y-85417095D01*
X136290302Y-85438327D01*
X136476846Y-85515596D01*
X136496250Y-85535000D01*
X136553750Y-85535000D01*
X136573154Y-85515596D01*
X136759698Y-85438327D01*
X136781364Y-85416662D01*
X136898110Y-85496431D01*
X136972808Y-85511558D01*
X136996250Y-85535000D01*
X137015000Y-85535000D01*
X137015000Y-85875000D01*
X137072852Y-86165839D01*
X137237599Y-86412401D01*
X137462599Y-86637401D01*
X137709161Y-86802148D01*
X138000000Y-86860000D01*
X139540000Y-86860000D01*
X139540000Y-88037537D01*
X139507808Y-88069673D01*
X139365162Y-88413201D01*
X139364838Y-88785167D01*
X139408154Y-88890000D01*
X136710000Y-88890000D01*
X136710000Y-86400000D01*
X136648342Y-86090026D01*
X136472756Y-85827244D01*
X136209974Y-85651658D01*
X135900000Y-85590000D01*
X134087441Y-85590000D01*
X133786799Y-85465162D01*
X133414833Y-85464838D01*
X133071057Y-85606883D01*
X132807808Y-85869673D01*
X132665162Y-86213201D01*
X132664838Y-86585167D01*
X132806883Y-86928943D01*
X133069673Y-87192192D01*
X133413201Y-87334838D01*
X133785167Y-87335162D01*
X134088083Y-87210000D01*
X135090000Y-87210000D01*
X135090000Y-88405532D01*
X134993117Y-88171057D01*
X134730327Y-87907808D01*
X134386799Y-87765162D01*
X134014833Y-87764838D01*
X133671057Y-87906883D01*
X133535138Y-88042565D01*
X133535162Y-88014833D01*
X133393117Y-87671057D01*
X133130327Y-87407808D01*
X132786799Y-87265162D01*
X132414833Y-87264838D01*
X132071057Y-87406883D01*
X131807808Y-87669673D01*
X131682116Y-87972371D01*
X130800563Y-88853925D01*
X130586799Y-88765162D01*
X130214833Y-88764838D01*
X129871057Y-88906883D01*
X129607808Y-89169673D01*
X129465162Y-89513201D01*
X129464838Y-89885167D01*
X129606883Y-90228943D01*
X129869673Y-90492192D01*
X130213201Y-90634838D01*
X130364969Y-90634970D01*
X130364838Y-90785167D01*
X130506883Y-91128943D01*
X130730110Y-91352560D01*
X129300000Y-91352560D01*
X129064683Y-91396838D01*
X128848559Y-91535910D01*
X128703569Y-91748110D01*
X128652560Y-92000000D01*
X128652560Y-94200000D01*
X128696838Y-94435317D01*
X128835910Y-94651441D01*
X129048110Y-94796431D01*
X129300000Y-94847440D01*
X130333992Y-94847440D01*
X130265162Y-95013201D01*
X130264838Y-95385167D01*
X130367443Y-95633491D01*
X129862599Y-96138335D01*
X129697852Y-96384897D01*
X129674301Y-96503296D01*
X129607808Y-96569673D01*
X129465162Y-96913201D01*
X129464838Y-97285167D01*
X129586687Y-97580065D01*
X129364683Y-97621838D01*
X129148559Y-97760910D01*
X129003569Y-97973110D01*
X128952560Y-98225000D01*
X128952560Y-98775000D01*
X128976944Y-98904589D01*
X128952560Y-99025000D01*
X128952560Y-99575000D01*
X128972450Y-99680705D01*
X128965000Y-99698690D01*
X128965000Y-99814250D01*
X129061401Y-99910651D01*
X129135910Y-100026441D01*
X129243397Y-100099884D01*
X129148559Y-100160910D01*
X129059505Y-100291245D01*
X128965000Y-100385750D01*
X128965000Y-100501310D01*
X128973468Y-100521753D01*
X128952560Y-100625000D01*
X128952560Y-101175000D01*
X128972450Y-101280705D01*
X128965000Y-101298690D01*
X128965000Y-101414250D01*
X129061401Y-101510651D01*
X129135910Y-101626441D01*
X129243397Y-101699884D01*
X129148559Y-101760910D01*
X129059505Y-101891245D01*
X128965000Y-101985750D01*
X128965000Y-102101310D01*
X128973468Y-102121753D01*
X128952560Y-102225000D01*
X128952560Y-102540000D01*
X127360000Y-102540000D01*
X127360000Y-101401490D01*
X127302148Y-101110651D01*
X127137401Y-100864089D01*
X125972226Y-99698914D01*
X126101731Y-99615580D01*
X126246721Y-99403380D01*
X126297730Y-99151490D01*
X126297730Y-93550790D01*
X126253452Y-93315473D01*
X126114380Y-93099349D01*
X125902180Y-92954359D01*
X125650290Y-92903350D01*
X123549710Y-92903350D01*
X123460000Y-92920230D01*
X123460000Y-91943812D01*
X124737175Y-90666637D01*
X124742294Y-90677111D01*
X125066627Y-90953420D01*
X125472010Y-91084580D01*
X125773000Y-91084580D01*
X125773000Y-90127000D01*
X126027000Y-90127000D01*
X126027000Y-91084580D01*
X126327990Y-91084580D01*
X126733373Y-90953420D01*
X127057706Y-90677111D01*
X127244981Y-90293935D01*
X127118068Y-90127000D01*
X126027000Y-90127000D01*
X125773000Y-90127000D01*
X125753000Y-90127000D01*
X125753000Y-89873000D01*
X125773000Y-89873000D01*
X125773000Y-89853000D01*
X126027000Y-89853000D01*
X126027000Y-89873000D01*
X127118068Y-89873000D01*
X127244981Y-89706065D01*
X127139381Y-89490000D01*
X127150000Y-89490000D01*
X127440839Y-89432148D01*
X127687401Y-89267401D01*
X129820984Y-87133818D01*
X130400000Y-87248991D01*
X131063956Y-87116922D01*
X131626830Y-86740821D01*
X132002931Y-86177947D01*
X132135000Y-85513991D01*
X132135000Y-85446009D01*
X132002931Y-84782053D01*
X131626830Y-84219179D01*
X131063956Y-83843078D01*
X130400000Y-83711009D01*
X129736044Y-83843078D01*
X129173170Y-84219179D01*
X128797069Y-84782053D01*
X128665000Y-85446009D01*
X128665000Y-85513991D01*
X128768894Y-86036304D01*
X127304649Y-87500549D01*
X127312715Y-87460000D01*
X127230156Y-87044949D01*
X126995049Y-86693086D01*
X126643186Y-86457979D01*
X126228135Y-86375420D01*
X125571865Y-86375420D01*
X125156814Y-86457979D01*
X124804951Y-86693086D01*
X124569844Y-87044949D01*
X124487285Y-87460000D01*
X124569844Y-87875051D01*
X124716809Y-88095000D01*
X124569844Y-88314949D01*
X124487285Y-88730000D01*
X124493411Y-88760797D01*
X122162599Y-91091609D01*
X121997852Y-91338171D01*
X121940000Y-91629010D01*
X120127000Y-91629010D01*
X120127000Y-82528172D01*
X120332538Y-82528172D01*
X120737709Y-83508761D01*
X121487293Y-84259655D01*
X122467173Y-84666536D01*
X123528172Y-84667462D01*
X124508761Y-84262291D01*
X125259655Y-83512707D01*
X125666536Y-82532827D01*
X125666540Y-82528172D01*
X157332538Y-82528172D01*
X157737709Y-83508761D01*
X158487293Y-84259655D01*
X159467173Y-84666536D01*
X160528172Y-84667462D01*
X161508761Y-84262291D01*
X162259655Y-83512707D01*
X162666536Y-82532827D01*
X162667462Y-81471828D01*
X162262291Y-80491239D01*
X161512707Y-79740345D01*
X160532827Y-79333464D01*
X159471828Y-79332538D01*
X158491239Y-79737709D01*
X157740345Y-80487293D01*
X157333464Y-81467173D01*
X157332538Y-82528172D01*
X125666540Y-82528172D01*
X125667462Y-81471828D01*
X125363321Y-80735750D01*
X132640000Y-80735750D01*
X132640000Y-81326310D01*
X132736673Y-81559699D01*
X132915302Y-81738327D01*
X133148691Y-81835000D01*
X133839250Y-81835000D01*
X133998000Y-81676250D01*
X133998000Y-80577000D01*
X134252000Y-80577000D01*
X134252000Y-81676250D01*
X134410750Y-81835000D01*
X135101309Y-81835000D01*
X135334698Y-81738327D01*
X135513327Y-81559699D01*
X135610000Y-81326310D01*
X135610000Y-80735750D01*
X147440000Y-80735750D01*
X147440000Y-81326310D01*
X147536673Y-81559699D01*
X147715302Y-81738327D01*
X147948691Y-81835000D01*
X148639250Y-81835000D01*
X148798000Y-81676250D01*
X148798000Y-80577000D01*
X149052000Y-80577000D01*
X149052000Y-81676250D01*
X149210750Y-81835000D01*
X149901309Y-81835000D01*
X150134698Y-81738327D01*
X150313327Y-81559699D01*
X150410000Y-81326310D01*
X150410000Y-80735750D01*
X150251250Y-80577000D01*
X149052000Y-80577000D01*
X148798000Y-80577000D01*
X147598750Y-80577000D01*
X147440000Y-80735750D01*
X135610000Y-80735750D01*
X135451250Y-80577000D01*
X134252000Y-80577000D01*
X133998000Y-80577000D01*
X132798750Y-80577000D01*
X132640000Y-80735750D01*
X125363321Y-80735750D01*
X125262291Y-80491239D01*
X124512707Y-79740345D01*
X123532827Y-79333464D01*
X122471828Y-79332538D01*
X121491239Y-79737709D01*
X120740345Y-80487293D01*
X120333464Y-81467173D01*
X120332538Y-82528172D01*
X120127000Y-82528172D01*
X120127000Y-80024460D01*
X120304691Y-79580232D01*
X120662761Y-79311680D01*
X121124460Y-79127000D01*
X132999010Y-79127000D01*
X132915302Y-79161673D01*
X132915302Y-79161673D01*
G37*
X132915302Y-79161673D02*
X132736673Y-79340301D01*
X132640000Y-79573690D01*
X132640000Y-80164250D01*
X132798750Y-80323000D01*
X133998000Y-80323000D01*
X133998000Y-80303000D01*
X134252000Y-80303000D01*
X134252000Y-80323000D01*
X135451250Y-80323000D01*
X135610000Y-80164250D01*
X135610000Y-79573690D01*
X135513327Y-79340301D01*
X135334698Y-79161673D01*
X135250990Y-79127000D01*
X147799010Y-79127000D01*
X147715302Y-79161673D01*
X147536673Y-79340301D01*
X147440000Y-79573690D01*
X147440000Y-80164250D01*
X147598750Y-80323000D01*
X148798000Y-80323000D01*
X148798000Y-80303000D01*
X149052000Y-80303000D01*
X149052000Y-80323000D01*
X150251250Y-80323000D01*
X150410000Y-80164250D01*
X150410000Y-79573690D01*
X150313327Y-79340301D01*
X150134698Y-79161673D01*
X150050990Y-79127000D01*
X161887423Y-79127000D01*
X162346846Y-79218885D01*
X162699816Y-79483612D01*
X162778801Y-79641582D01*
X162873000Y-80112577D01*
X162873000Y-135984366D01*
X162782127Y-136347857D01*
X162608419Y-136608419D01*
X162347857Y-136782127D01*
X161984366Y-136873000D01*
X121115634Y-136873000D01*
X120755683Y-136783012D01*
X120390714Y-136509286D01*
X120127000Y-136157667D01*
X120127000Y-134528172D01*
X120332538Y-134528172D01*
X120737709Y-135508761D01*
X121487293Y-136259655D01*
X122467173Y-136666536D01*
X123528172Y-136667462D01*
X124508761Y-136262291D01*
X125259655Y-135512707D01*
X125666536Y-134532827D01*
X125667462Y-133471828D01*
X125630736Y-133382944D01*
X150394025Y-133382944D01*
X150593615Y-133864818D01*
X151031621Y-134337188D01*
X151617054Y-134605983D01*
X151873000Y-134487367D01*
X151873000Y-133127000D01*
X152127000Y-133127000D01*
X152127000Y-134487367D01*
X152382946Y-134605983D01*
X152552417Y-134528172D01*
X157332538Y-134528172D01*
X157737709Y-135508761D01*
X158487293Y-136259655D01*
X159467173Y-136666536D01*
X160528172Y-136667462D01*
X161508761Y-136262291D01*
X162259655Y-135512707D01*
X162666536Y-134532827D01*
X162667462Y-133471828D01*
X162262291Y-132491239D01*
X161512707Y-131740345D01*
X160532827Y-131333464D01*
X159471828Y-131332538D01*
X158491239Y-131737709D01*
X157740345Y-132487293D01*
X157333464Y-133467173D01*
X157332538Y-134528172D01*
X152552417Y-134528172D01*
X152968379Y-134337188D01*
X153406385Y-133864818D01*
X153605975Y-133382944D01*
X153486836Y-133127000D01*
X152127000Y-133127000D01*
X151873000Y-133127000D01*
X150513164Y-133127000D01*
X150394025Y-133382944D01*
X125630736Y-133382944D01*
X125262291Y-132491239D01*
X125135165Y-132363890D01*
X138215592Y-132363890D01*
X138380362Y-132762663D01*
X138685193Y-133068026D01*
X139083677Y-133233491D01*
X139515150Y-133233868D01*
X139913923Y-133069098D01*
X140219286Y-132764267D01*
X140384751Y-132365783D01*
X140384752Y-132363890D01*
X142614872Y-132363890D01*
X142779642Y-132762663D01*
X143084473Y-133068026D01*
X143482957Y-133233491D01*
X143914430Y-133233868D01*
X144313203Y-133069098D01*
X144618566Y-132764267D01*
X144784031Y-132365783D01*
X144784408Y-131934310D01*
X144619638Y-131535537D01*
X144314807Y-131230174D01*
X143916323Y-131064709D01*
X143484850Y-131064332D01*
X143086077Y-131229102D01*
X142780714Y-131533933D01*
X142615249Y-131932417D01*
X142614872Y-132363890D01*
X140384752Y-132363890D01*
X140385128Y-131934310D01*
X140220358Y-131535537D01*
X139915527Y-131230174D01*
X139517043Y-131064709D01*
X139085570Y-131064332D01*
X138686797Y-131229102D01*
X138381434Y-131533933D01*
X138215969Y-131932417D01*
X138215592Y-132363890D01*
X125135165Y-132363890D01*
X124512707Y-131740345D01*
X123532827Y-131333464D01*
X122471828Y-131332538D01*
X121491239Y-131737709D01*
X120740345Y-132487293D01*
X120333464Y-133467173D01*
X120332538Y-134528172D01*
X120127000Y-134528172D01*
X120127000Y-129444000D01*
X150336560Y-129444000D01*
X150336560Y-131476000D01*
X150380838Y-131711317D01*
X150519910Y-131927441D01*
X150682948Y-132038840D01*
X150593615Y-132135182D01*
X150394025Y-132617056D01*
X150513164Y-132873000D01*
X151873000Y-132873000D01*
X151873000Y-132853000D01*
X152127000Y-132853000D01*
X152127000Y-132873000D01*
X153486836Y-132873000D01*
X153605975Y-132617056D01*
X153406385Y-132135182D01*
X153315903Y-132037602D01*
X153467441Y-131940090D01*
X153612431Y-131727890D01*
X153663440Y-131476000D01*
X153663440Y-129444000D01*
X153619162Y-129208683D01*
X153480090Y-128992559D01*
X153267890Y-128847569D01*
X153016000Y-128796560D01*
X150984000Y-128796560D01*
X150748683Y-128840838D01*
X150532559Y-128979910D01*
X150387569Y-129192110D01*
X150336560Y-129444000D01*
X120127000Y-129444000D01*
X120127000Y-124885750D01*
X128665000Y-124885750D01*
X128665000Y-125576310D01*
X128761673Y-125809699D01*
X128940302Y-125988327D01*
X129173691Y-126085000D01*
X129464250Y-126085000D01*
X129623000Y-125926250D01*
X129623000Y-124727000D01*
X129877000Y-124727000D01*
X129877000Y-125926250D01*
X130035750Y-126085000D01*
X130326309Y-126085000D01*
X130559698Y-125988327D01*
X130738327Y-125809699D01*
X130835000Y-125576310D01*
X130835000Y-124885750D01*
X130676250Y-124727000D01*
X129877000Y-124727000D01*
X129623000Y-124727000D01*
X128823750Y-124727000D01*
X128665000Y-124885750D01*
X120127000Y-124885750D01*
X120127000Y-91629010D01*
X121940000Y-91629010D01*
X121940000Y-108950000D01*
X121997852Y-109240839D01*
X122162599Y-109487401D01*
X125212599Y-112537401D01*
X125352560Y-112630920D01*
X125352560Y-112750000D01*
X125396838Y-112985317D01*
X125535910Y-113201441D01*
X125748110Y-113346431D01*
X126000000Y-113397440D01*
X128200000Y-113397440D01*
X128435317Y-113353162D01*
X128651441Y-113214090D01*
X128796431Y-113001890D01*
X128847440Y-112750000D01*
X128847440Y-111250000D01*
X128803162Y-111014683D01*
X128664090Y-110798559D01*
X128451890Y-110653569D01*
X128200000Y-110602560D01*
X126000000Y-110602560D01*
X125764683Y-110646838D01*
X125586377Y-110761575D01*
X124510552Y-109685750D01*
X128715000Y-109685750D01*
X128715000Y-109826309D01*
X128811673Y-110059698D01*
X128990301Y-110238327D01*
X129223690Y-110335000D01*
X129316250Y-110335000D01*
X129475000Y-110176250D01*
X129475000Y-109527000D01*
X129725000Y-109527000D01*
X129725000Y-110176250D01*
X129883750Y-110335000D01*
X129976310Y-110335000D01*
X130209699Y-110238327D01*
X130388327Y-110059698D01*
X130485000Y-109826309D01*
X130485000Y-109685750D01*
X130326250Y-109527000D01*
X129725000Y-109527000D01*
X129475000Y-109527000D01*
X128873750Y-109527000D01*
X128715000Y-109685750D01*
X124510552Y-109685750D01*
X124321452Y-109496650D01*
X125650290Y-109496650D01*
X125885607Y-109452372D01*
X126101731Y-109313300D01*
X126246721Y-109101100D01*
X126297730Y-108849210D01*
X126297730Y-107172532D01*
X126664878Y-107539680D01*
X126664838Y-107585167D01*
X126806883Y-107928943D01*
X127069673Y-108192192D01*
X127413201Y-108334838D01*
X127785167Y-108335162D01*
X128128943Y-108193117D01*
X128392192Y-107930327D01*
X128484126Y-107708928D01*
X128714792Y-107939594D01*
X128702560Y-108000000D01*
X128702560Y-108600000D01*
X128746838Y-108835317D01*
X128762339Y-108859406D01*
X128715000Y-108973691D01*
X128715000Y-109114250D01*
X128873750Y-109273000D01*
X129475000Y-109273000D01*
X129475000Y-109253000D01*
X129725000Y-109253000D01*
X129725000Y-109273000D01*
X130326250Y-109273000D01*
X130485000Y-109114250D01*
X130485000Y-108973691D01*
X130439033Y-108862717D01*
X130446431Y-108851890D01*
X130497440Y-108600000D01*
X130497440Y-108000000D01*
X130453162Y-107764683D01*
X130322544Y-107561697D01*
X130302148Y-107459161D01*
X130137401Y-107212599D01*
X128259680Y-105334878D01*
X128585167Y-105335162D01*
X128928943Y-105193117D01*
X129192192Y-104930327D01*
X129213356Y-104879358D01*
X129348110Y-104971431D01*
X129600000Y-105022440D01*
X130927560Y-105022440D01*
X130927560Y-106350000D01*
X130971838Y-106585317D01*
X131110910Y-106801441D01*
X131323110Y-106946431D01*
X131575000Y-106997440D01*
X132125000Y-106997440D01*
X132254589Y-106973056D01*
X132375000Y-106997440D01*
X132925000Y-106997440D01*
X133054589Y-106973056D01*
X133175000Y-106997440D01*
X133725000Y-106997440D01*
X133854589Y-106973056D01*
X133975000Y-106997440D01*
X134525000Y-106997440D01*
X134654589Y-106973056D01*
X134775000Y-106997440D01*
X135325000Y-106997440D01*
X135454589Y-106973056D01*
X135575000Y-106997440D01*
X136125000Y-106997440D01*
X136254589Y-106973056D01*
X136375000Y-106997440D01*
X136819080Y-106997440D01*
X136912599Y-107137401D01*
X137540232Y-107765034D01*
X137314833Y-107764838D01*
X136971057Y-107906883D01*
X136707808Y-108169673D01*
X136608613Y-108408560D01*
X136593117Y-108371057D01*
X136330327Y-108107808D01*
X135986799Y-107965162D01*
X135614833Y-107964838D01*
X135271057Y-108106883D01*
X135007808Y-108369673D01*
X134865162Y-108713201D01*
X134865121Y-108760077D01*
X134462599Y-109162599D01*
X134297852Y-109409161D01*
X134240000Y-109700000D01*
X134240000Y-121240000D01*
X131678386Y-121240000D01*
X131551890Y-121153569D01*
X131300000Y-121102560D01*
X130800000Y-121102560D01*
X130564683Y-121146838D01*
X130348559Y-121285910D01*
X130300866Y-121355711D01*
X130264090Y-121298559D01*
X130094908Y-121182962D01*
X130134838Y-121086799D01*
X130135162Y-120714833D01*
X129993117Y-120371057D01*
X129730327Y-120107808D01*
X129386799Y-119965162D01*
X129014833Y-119964838D01*
X128671057Y-120106883D01*
X128407808Y-120369673D01*
X128374556Y-120449754D01*
X127860000Y-119935198D01*
X127860000Y-119797440D01*
X128200000Y-119797440D01*
X128435317Y-119753162D01*
X128651441Y-119614090D01*
X128796431Y-119401890D01*
X128847440Y-119150000D01*
X128847440Y-117650000D01*
X128803162Y-117414683D01*
X128664090Y-117198559D01*
X128451890Y-117053569D01*
X128200000Y-117002560D01*
X126000000Y-117002560D01*
X125764683Y-117046838D01*
X125548559Y-117185910D01*
X125403569Y-117398110D01*
X125352560Y-117650000D01*
X125352560Y-119150000D01*
X125396838Y-119385317D01*
X125535910Y-119601441D01*
X125748110Y-119746431D01*
X126000000Y-119797440D01*
X126340000Y-119797440D01*
X126340000Y-120250000D01*
X126397852Y-120540839D01*
X126562599Y-120787401D01*
X128512599Y-122737401D01*
X128691498Y-122856938D01*
X128696838Y-122885317D01*
X128835910Y-123101441D01*
X128975750Y-123196990D01*
X128940302Y-123211673D01*
X128761673Y-123390301D01*
X128665000Y-123623690D01*
X128665000Y-124314250D01*
X128823750Y-124473000D01*
X129623000Y-124473000D01*
X129623000Y-124453000D01*
X129877000Y-124453000D01*
X129877000Y-124473000D01*
X130676250Y-124473000D01*
X130835000Y-124314250D01*
X130835000Y-123745001D01*
X131553572Y-123745001D01*
X131552560Y-123750000D01*
X131552560Y-125450000D01*
X131596838Y-125685317D01*
X131735910Y-125901441D01*
X131948110Y-126046431D01*
X132200000Y-126097440D01*
X133100000Y-126097440D01*
X133335317Y-126053162D01*
X133551441Y-125914090D01*
X133656726Y-125760000D01*
X142537537Y-125760000D01*
X142569673Y-125792192D01*
X142913201Y-125934838D01*
X143285167Y-125935162D01*
X143628943Y-125793117D01*
X143662118Y-125760000D01*
X148553002Y-125760000D01*
X148843841Y-125702148D01*
X149090403Y-125537401D01*
X159837401Y-114790403D01*
X160002148Y-114543842D01*
X160060000Y-114253002D01*
X160060000Y-110935000D01*
X161800000Y-110935000D01*
X162030795Y-110891573D01*
X162242767Y-110755173D01*
X162384971Y-110547051D01*
X162435000Y-110300000D01*
X162435000Y-106900000D01*
X162391573Y-106669205D01*
X162255173Y-106457233D01*
X162047051Y-106315029D01*
X161860000Y-106277150D01*
X161860000Y-101800000D01*
X161802148Y-101509161D01*
X161802148Y-101509160D01*
X161738363Y-101413699D01*
X161746431Y-101401890D01*
X161797440Y-101150000D01*
X161797440Y-99450000D01*
X161753162Y-99214683D01*
X161614090Y-98998559D01*
X161401890Y-98853569D01*
X161150000Y-98802560D01*
X161057362Y-98802560D01*
X158431106Y-96176304D01*
X158535000Y-95653991D01*
X158535000Y-95586009D01*
X158402931Y-94922053D01*
X158026830Y-94359179D01*
X157463956Y-93983078D01*
X156800000Y-93851009D01*
X156136044Y-93983078D01*
X155573170Y-94359179D01*
X155197069Y-94922053D01*
X155065000Y-95586009D01*
X155065000Y-95653991D01*
X155197069Y-96317947D01*
X155573170Y-96880821D01*
X156136044Y-97256922D01*
X156800000Y-97388991D01*
X157379016Y-97273818D01*
X159602560Y-99497362D01*
X159602560Y-101150000D01*
X159646838Y-101385317D01*
X159785910Y-101601441D01*
X159998110Y-101746431D01*
X160040770Y-101755070D01*
X160162599Y-101937401D01*
X160340000Y-102114802D01*
X160340000Y-102912092D01*
X160226310Y-102865000D01*
X159585750Y-102865000D01*
X159427000Y-103023750D01*
X159427000Y-104673000D01*
X159447000Y-104673000D01*
X159447000Y-104927000D01*
X159427000Y-104927000D01*
X159427000Y-104947000D01*
X159173000Y-104947000D01*
X159173000Y-104927000D01*
X158023750Y-104927000D01*
X157865000Y-105085750D01*
X157865000Y-106226309D01*
X157881026Y-106265000D01*
X157235000Y-106265000D01*
X157235000Y-106200000D01*
X157191573Y-105969205D01*
X157055173Y-105757233D01*
X156847051Y-105615029D01*
X156600000Y-105565000D01*
X156500027Y-105565000D01*
X156501441Y-105564090D01*
X156646431Y-105351890D01*
X156697440Y-105100000D01*
X156697440Y-104500000D01*
X156653162Y-104264683D01*
X156514090Y-104048559D01*
X156301890Y-103903569D01*
X156260000Y-103895086D01*
X156260000Y-103862463D01*
X156292192Y-103830327D01*
X156434838Y-103486799D01*
X156435162Y-103114833D01*
X156293117Y-102771057D01*
X156030327Y-102507808D01*
X155686799Y-102365162D01*
X155314833Y-102364838D01*
X154971057Y-102506883D01*
X154707808Y-102769673D01*
X154565162Y-103113201D01*
X154564838Y-103485167D01*
X154706883Y-103828943D01*
X154740000Y-103862118D01*
X154740000Y-103892074D01*
X154714683Y-103896838D01*
X154498559Y-104035910D01*
X154353569Y-104248110D01*
X154302560Y-104500000D01*
X154302560Y-105100000D01*
X154346838Y-105335317D01*
X154485910Y-105551441D01*
X154547696Y-105593658D01*
X154469205Y-105608427D01*
X154257233Y-105744827D01*
X154115029Y-105952949D01*
X154100041Y-106026960D01*
X154055173Y-105957233D01*
X153847051Y-105815029D01*
X153600000Y-105765000D01*
X153311431Y-105765000D01*
X153250000Y-105752560D01*
X152150000Y-105752560D01*
X152083887Y-105765000D01*
X151800000Y-105765000D01*
X151569205Y-105808427D01*
X151357233Y-105944827D01*
X151215029Y-106152949D01*
X151192338Y-106265000D01*
X150018974Y-106265000D01*
X150035000Y-106226309D01*
X150035000Y-105085750D01*
X149876250Y-104927000D01*
X148727000Y-104927000D01*
X148727000Y-104947000D01*
X148473000Y-104947000D01*
X148473000Y-104927000D01*
X147323750Y-104927000D01*
X147165000Y-105085750D01*
X147165000Y-106226309D01*
X147181026Y-106265000D01*
X146400000Y-106265000D01*
X146169205Y-106308427D01*
X145957233Y-106444827D01*
X145815029Y-106652949D01*
X145765000Y-106900000D01*
X145765000Y-107290198D01*
X145135122Y-106660320D01*
X145135162Y-106614833D01*
X145065552Y-106446364D01*
X145287837Y-106402148D01*
X145534399Y-106237401D01*
X147211275Y-104560525D01*
X147323750Y-104673000D01*
X148473000Y-104673000D01*
X148473000Y-104653000D01*
X148727000Y-104653000D01*
X148727000Y-104673000D01*
X149876250Y-104673000D01*
X150035000Y-104514250D01*
X150035000Y-103373691D01*
X149938327Y-103140302D01*
X149759699Y-102961673D01*
X149526310Y-102865000D01*
X148906800Y-102865000D01*
X149715000Y-102056800D01*
X149715000Y-102176310D01*
X149811673Y-102409699D01*
X149990302Y-102588327D01*
X150223691Y-102685000D01*
X150514250Y-102685000D01*
X150673000Y-102526250D01*
X150673000Y-101327000D01*
X150927000Y-101327000D01*
X150927000Y-102526250D01*
X151085750Y-102685000D01*
X151376309Y-102685000D01*
X151609698Y-102588327D01*
X151788327Y-102409699D01*
X151885000Y-102176310D01*
X151885000Y-101485750D01*
X151726250Y-101327000D01*
X150927000Y-101327000D01*
X150673000Y-101327000D01*
X150653000Y-101327000D01*
X150653000Y-101073000D01*
X150673000Y-101073000D01*
X150673000Y-101053000D01*
X150927000Y-101053000D01*
X150927000Y-101073000D01*
X151726250Y-101073000D01*
X151885000Y-100914250D01*
X151885000Y-100223690D01*
X151788327Y-99990301D01*
X151609698Y-99811673D01*
X151545306Y-99785001D01*
X152955376Y-99785001D01*
X152798559Y-99885910D01*
X152653569Y-100098110D01*
X152602560Y-100350000D01*
X152602560Y-102050000D01*
X152646838Y-102285317D01*
X152698111Y-102364998D01*
X152514833Y-102364838D01*
X152171057Y-102506883D01*
X151907808Y-102769673D01*
X151765162Y-103113201D01*
X151764838Y-103485167D01*
X151906883Y-103828943D01*
X151940000Y-103862118D01*
X151940000Y-103892074D01*
X151914683Y-103896838D01*
X151698559Y-104035910D01*
X151553569Y-104248110D01*
X151502560Y-104500000D01*
X151502560Y-105100000D01*
X151535389Y-105274469D01*
X151515000Y-105323691D01*
X151515000Y-105464250D01*
X151673750Y-105623000D01*
X151790640Y-105623000D01*
X151898110Y-105696431D01*
X152150000Y-105747440D01*
X153250000Y-105747440D01*
X153485317Y-105703162D01*
X153609892Y-105623000D01*
X153726250Y-105623000D01*
X153885000Y-105464250D01*
X153885000Y-105323691D01*
X153862931Y-105270411D01*
X153897440Y-105100000D01*
X153897440Y-104500000D01*
X153853162Y-104264683D01*
X153714090Y-104048559D01*
X153501890Y-103903569D01*
X153460000Y-103895086D01*
X153460000Y-103862463D01*
X153492192Y-103830327D01*
X153634838Y-103486799D01*
X153635162Y-103114833D01*
X153493117Y-102771057D01*
X153419628Y-102697440D01*
X154150000Y-102697440D01*
X154385317Y-102653162D01*
X154601441Y-102514090D01*
X154746431Y-102301890D01*
X154797440Y-102050000D01*
X154797440Y-102003722D01*
X155113201Y-102134838D01*
X155485167Y-102135162D01*
X155828943Y-101993117D01*
X156092192Y-101730327D01*
X156234838Y-101386799D01*
X156235162Y-101014833D01*
X156093117Y-100671057D01*
X155830327Y-100407808D01*
X155486799Y-100265162D01*
X155114833Y-100264838D01*
X154797440Y-100395982D01*
X154797440Y-100350000D01*
X154753162Y-100114683D01*
X154614090Y-99898559D01*
X154401890Y-99753569D01*
X154150000Y-99702560D01*
X153296440Y-99702560D01*
X153506202Y-99562402D01*
X153618604Y-99450000D01*
X156702560Y-99450000D01*
X156702560Y-101150000D01*
X156746838Y-101385317D01*
X156885910Y-101601441D01*
X157002937Y-101681402D01*
X156865162Y-102013201D01*
X156864838Y-102385167D01*
X157006883Y-102728943D01*
X157269673Y-102992192D01*
X157613201Y-103134838D01*
X157966829Y-103135146D01*
X157961673Y-103140302D01*
X157865000Y-103373691D01*
X157865000Y-104514250D01*
X158023750Y-104673000D01*
X159173000Y-104673000D01*
X159173000Y-103023750D01*
X159014250Y-102865000D01*
X158457284Y-102865000D01*
X158592192Y-102730327D01*
X158734838Y-102386799D01*
X158735162Y-102014833D01*
X158597275Y-101681119D01*
X158701441Y-101614090D01*
X158846431Y-101401890D01*
X158897440Y-101150000D01*
X158897440Y-99450000D01*
X158853162Y-99214683D01*
X158714090Y-98998559D01*
X158501890Y-98853569D01*
X158250000Y-98802560D01*
X157350000Y-98802560D01*
X157114683Y-98846838D01*
X156898559Y-98985910D01*
X156753569Y-99198110D01*
X156702560Y-99450000D01*
X153618604Y-99450000D01*
X154122402Y-98946202D01*
X154287149Y-98699641D01*
X154345001Y-98408801D01*
X154345001Y-96485001D01*
X154309571Y-96306883D01*
X154287149Y-96194161D01*
X154122402Y-95947600D01*
X153841210Y-95666408D01*
X153914093Y-95300000D01*
X153801054Y-94731715D01*
X153479147Y-94249946D01*
X153437548Y-94222150D01*
X153485317Y-94213162D01*
X153701441Y-94074090D01*
X153846431Y-93861890D01*
X153897440Y-93610000D01*
X153897440Y-93560000D01*
X154037537Y-93560000D01*
X154069673Y-93592192D01*
X154413201Y-93734838D01*
X154785167Y-93735162D01*
X155128943Y-93593117D01*
X155392192Y-93330327D01*
X155534838Y-92986799D01*
X155535162Y-92614833D01*
X155393117Y-92271057D01*
X155130327Y-92007808D01*
X154786799Y-91865162D01*
X154414833Y-91864838D01*
X154071057Y-92006883D01*
X154037882Y-92040000D01*
X153897440Y-92040000D01*
X153897440Y-91910000D01*
X153853162Y-91674683D01*
X153714090Y-91458559D01*
X153501890Y-91313569D01*
X153250000Y-91262560D01*
X151805001Y-91262560D01*
X151805001Y-86900000D01*
X155052560Y-86900000D01*
X155052560Y-89100000D01*
X155096838Y-89335317D01*
X155235910Y-89551441D01*
X155448110Y-89696431D01*
X155700000Y-89747440D01*
X157900000Y-89747440D01*
X158135317Y-89703162D01*
X158351441Y-89564090D01*
X158496431Y-89351890D01*
X158547440Y-89100000D01*
X158547440Y-86900000D01*
X158503162Y-86664683D01*
X158364090Y-86448559D01*
X158151890Y-86303569D01*
X157900000Y-86252560D01*
X155700000Y-86252560D01*
X155464683Y-86296838D01*
X155248559Y-86435910D01*
X155103569Y-86648110D01*
X155052560Y-86900000D01*
X151805001Y-86900000D01*
X151805001Y-84145001D01*
X151747149Y-83854162D01*
X151747149Y-83854161D01*
X151582402Y-83607600D01*
X151535122Y-83560320D01*
X151535162Y-83514833D01*
X151393117Y-83171057D01*
X151130327Y-82907808D01*
X150786799Y-82765162D01*
X150414833Y-82764838D01*
X150071057Y-82906883D01*
X149807808Y-83169673D01*
X149665162Y-83513201D01*
X149664838Y-83885167D01*
X149806883Y-84228943D01*
X150069673Y-84492192D01*
X150285001Y-84581604D01*
X150285001Y-91353751D01*
X149889093Y-91275000D01*
X149830907Y-91275000D01*
X149513031Y-91338229D01*
X148060000Y-89885198D01*
X148060000Y-89762463D01*
X148092192Y-89730327D01*
X148234838Y-89386799D01*
X148235162Y-89014833D01*
X148093117Y-88671057D01*
X147830327Y-88407808D01*
X147486799Y-88265162D01*
X147114833Y-88264838D01*
X146771057Y-88406883D01*
X146507808Y-88669673D01*
X146409420Y-88906616D01*
X145465403Y-87962599D01*
X145218841Y-87797852D01*
X144928002Y-87740000D01*
X143535000Y-87740000D01*
X143535000Y-87440153D01*
X143568151Y-87446747D01*
X143810737Y-87495001D01*
X145164999Y-87495001D01*
X145455838Y-87437149D01*
X145702400Y-87272402D01*
X145865135Y-87109667D01*
X145864838Y-87450167D01*
X146006883Y-87793943D01*
X146269673Y-88057192D01*
X146613201Y-88199838D01*
X146985167Y-88200162D01*
X147328943Y-88058117D01*
X147592192Y-87795327D01*
X147734838Y-87451799D01*
X147735162Y-87079833D01*
X147610000Y-86776917D01*
X147610000Y-86000000D01*
X147548342Y-85690026D01*
X147535000Y-85670058D01*
X147535000Y-85522038D01*
X147635317Y-85503162D01*
X147851441Y-85364090D01*
X147996431Y-85151890D01*
X148047440Y-84900000D01*
X148047440Y-83800000D01*
X148003162Y-83564683D01*
X147864090Y-83348559D01*
X147651890Y-83203569D01*
X147400000Y-83152560D01*
X147150000Y-83152560D01*
X147020411Y-83176944D01*
X146900000Y-83152560D01*
X146650000Y-83152560D01*
X146520411Y-83176944D01*
X146400000Y-83152560D01*
X146150000Y-83152560D01*
X146020411Y-83176944D01*
X145900000Y-83152560D01*
X145650000Y-83152560D01*
X145544295Y-83172450D01*
X145526309Y-83165000D01*
X145496250Y-83165000D01*
X145475938Y-83185312D01*
X145414683Y-83196838D01*
X145280931Y-83282905D01*
X145259698Y-83261673D01*
X145073154Y-83184404D01*
X145053750Y-83165000D01*
X144996250Y-83165000D01*
X144976846Y-83184404D01*
X144790302Y-83261673D01*
X144775000Y-83276975D01*
X144759698Y-83261673D01*
X144573154Y-83184404D01*
X144553750Y-83165000D01*
X144496250Y-83165000D01*
X144476846Y-83184404D01*
X144290302Y-83261673D01*
X144275000Y-83276975D01*
X144259698Y-83261673D01*
X144073154Y-83184404D01*
X144053750Y-83165000D01*
X143996250Y-83165000D01*
X143976846Y-83184404D01*
X143790302Y-83261673D01*
X143775000Y-83276975D01*
X143759698Y-83261673D01*
X143573154Y-83184404D01*
X143553750Y-83165000D01*
X143496250Y-83165000D01*
X143476846Y-83184404D01*
X143290302Y-83261673D01*
X143268636Y-83283338D01*
X143151890Y-83203569D01*
X143077192Y-83188442D01*
X143053750Y-83165000D01*
X143023691Y-83165000D01*
X143003247Y-83173468D01*
X142900000Y-83152560D01*
X142650000Y-83152560D01*
X142520411Y-83176944D01*
X142400000Y-83152560D01*
X142150000Y-83152560D01*
X142020411Y-83176944D01*
X141900000Y-83152560D01*
X141650000Y-83152560D01*
X141544295Y-83172450D01*
X141526309Y-83165000D01*
X141496250Y-83165000D01*
X141475938Y-83185312D01*
X141414683Y-83196838D01*
X141280931Y-83282905D01*
X141259698Y-83261673D01*
X141073154Y-83184404D01*
X141053750Y-83165000D01*
X140996250Y-83165000D01*
X140976846Y-83184404D01*
X140790302Y-83261673D01*
X140768636Y-83283338D01*
X140651890Y-83203569D01*
X140577192Y-83188442D01*
X140553750Y-83165000D01*
X140523691Y-83165000D01*
X140503247Y-83173468D01*
X140400000Y-83152560D01*
X140150000Y-83152560D01*
X140020411Y-83176944D01*
X139900000Y-83152560D01*
X139650000Y-83152560D01*
X139544295Y-83172450D01*
X139526309Y-83165000D01*
X139496250Y-83165000D01*
X139475938Y-83185312D01*
X139414683Y-83196838D01*
X139280931Y-83282905D01*
X139259698Y-83261673D01*
X139073154Y-83184404D01*
X139053750Y-83165000D01*
X138996250Y-83165000D01*
X138976846Y-83184404D01*
X138790302Y-83261673D01*
X138768636Y-83283338D01*
X138651890Y-83203569D01*
X138577192Y-83188442D01*
X138553750Y-83165000D01*
X138523691Y-83165000D01*
X138503247Y-83173468D01*
X138400000Y-83152560D01*
X138150000Y-83152560D01*
X138020411Y-83176944D01*
X137900000Y-83152560D01*
X137650000Y-83152560D01*
X137520411Y-83176944D01*
X137400000Y-83152560D01*
X137150000Y-83152560D01*
X137044295Y-83172450D01*
X137026309Y-83165000D01*
X136996250Y-83165000D01*
X136975938Y-83185312D01*
X136914683Y-83196838D01*
X136780931Y-83282905D01*
X136759698Y-83261673D01*
X136573154Y-83184404D01*
X136553750Y-83165000D01*
X136496250Y-83165000D01*
X136476846Y-83184404D01*
X136290302Y-83261673D01*
X136268636Y-83283338D01*
X136151890Y-83203569D01*
X136077192Y-83188442D01*
X136053750Y-83165000D01*
X136023691Y-83165000D01*
X136003247Y-83173468D01*
X135900000Y-83152560D01*
X135650000Y-83152560D01*
X135414683Y-83196838D01*
X135198559Y-83335910D01*
X135053569Y-83548110D01*
X135002560Y-83800000D01*
X135002560Y-84900000D01*
X135046838Y-85135317D01*
X135185910Y-85351441D01*
X135398110Y-85496431D01*
X135650000Y-85547440D01*
X135900000Y-85547440D01*
X136005705Y-85527550D01*
X136023691Y-85535000D01*
X136053750Y-85535000D01*
X136074062Y-85514688D01*
X136135317Y-85503162D01*
X136269069Y-85417095D01*
X136290302Y-85438327D01*
X136476846Y-85515596D01*
X136496250Y-85535000D01*
X136553750Y-85535000D01*
X136573154Y-85515596D01*
X136759698Y-85438327D01*
X136781364Y-85416662D01*
X136898110Y-85496431D01*
X136972808Y-85511558D01*
X136996250Y-85535000D01*
X137015000Y-85535000D01*
X137015000Y-85875000D01*
X137072852Y-86165839D01*
X137237599Y-86412401D01*
X137462599Y-86637401D01*
X137709161Y-86802148D01*
X138000000Y-86860000D01*
X139540000Y-86860000D01*
X139540000Y-88037537D01*
X139507808Y-88069673D01*
X139365162Y-88413201D01*
X139364838Y-88785167D01*
X139408154Y-88890000D01*
X136710000Y-88890000D01*
X136710000Y-86400000D01*
X136648342Y-86090026D01*
X136472756Y-85827244D01*
X136209974Y-85651658D01*
X135900000Y-85590000D01*
X134087441Y-85590000D01*
X133786799Y-85465162D01*
X133414833Y-85464838D01*
X133071057Y-85606883D01*
X132807808Y-85869673D01*
X132665162Y-86213201D01*
X132664838Y-86585167D01*
X132806883Y-86928943D01*
X133069673Y-87192192D01*
X133413201Y-87334838D01*
X133785167Y-87335162D01*
X134088083Y-87210000D01*
X135090000Y-87210000D01*
X135090000Y-88405532D01*
X134993117Y-88171057D01*
X134730327Y-87907808D01*
X134386799Y-87765162D01*
X134014833Y-87764838D01*
X133671057Y-87906883D01*
X133535138Y-88042565D01*
X133535162Y-88014833D01*
X133393117Y-87671057D01*
X133130327Y-87407808D01*
X132786799Y-87265162D01*
X132414833Y-87264838D01*
X132071057Y-87406883D01*
X131807808Y-87669673D01*
X131682116Y-87972371D01*
X130800563Y-88853925D01*
X130586799Y-88765162D01*
X130214833Y-88764838D01*
X129871057Y-88906883D01*
X129607808Y-89169673D01*
X129465162Y-89513201D01*
X129464838Y-89885167D01*
X129606883Y-90228943D01*
X129869673Y-90492192D01*
X130213201Y-90634838D01*
X130364969Y-90634970D01*
X130364838Y-90785167D01*
X130506883Y-91128943D01*
X130730110Y-91352560D01*
X129300000Y-91352560D01*
X129064683Y-91396838D01*
X128848559Y-91535910D01*
X128703569Y-91748110D01*
X128652560Y-92000000D01*
X128652560Y-94200000D01*
X128696838Y-94435317D01*
X128835910Y-94651441D01*
X129048110Y-94796431D01*
X129300000Y-94847440D01*
X130333992Y-94847440D01*
X130265162Y-95013201D01*
X130264838Y-95385167D01*
X130367443Y-95633491D01*
X129862599Y-96138335D01*
X129697852Y-96384897D01*
X129674301Y-96503296D01*
X129607808Y-96569673D01*
X129465162Y-96913201D01*
X129464838Y-97285167D01*
X129586687Y-97580065D01*
X129364683Y-97621838D01*
X129148559Y-97760910D01*
X129003569Y-97973110D01*
X128952560Y-98225000D01*
X128952560Y-98775000D01*
X128976944Y-98904589D01*
X128952560Y-99025000D01*
X128952560Y-99575000D01*
X128972450Y-99680705D01*
X128965000Y-99698690D01*
X128965000Y-99814250D01*
X129061401Y-99910651D01*
X129135910Y-100026441D01*
X129243397Y-100099884D01*
X129148559Y-100160910D01*
X129059505Y-100291245D01*
X128965000Y-100385750D01*
X128965000Y-100501310D01*
X128973468Y-100521753D01*
X128952560Y-100625000D01*
X128952560Y-101175000D01*
X128972450Y-101280705D01*
X128965000Y-101298690D01*
X128965000Y-101414250D01*
X129061401Y-101510651D01*
X129135910Y-101626441D01*
X129243397Y-101699884D01*
X129148559Y-101760910D01*
X129059505Y-101891245D01*
X128965000Y-101985750D01*
X128965000Y-102101310D01*
X128973468Y-102121753D01*
X128952560Y-102225000D01*
X128952560Y-102540000D01*
X127360000Y-102540000D01*
X127360000Y-101401490D01*
X127302148Y-101110651D01*
X127137401Y-100864089D01*
X125972226Y-99698914D01*
X126101731Y-99615580D01*
X126246721Y-99403380D01*
X126297730Y-99151490D01*
X126297730Y-93550790D01*
X126253452Y-93315473D01*
X126114380Y-93099349D01*
X125902180Y-92954359D01*
X125650290Y-92903350D01*
X123549710Y-92903350D01*
X123460000Y-92920230D01*
X123460000Y-91943812D01*
X124737175Y-90666637D01*
X124742294Y-90677111D01*
X125066627Y-90953420D01*
X125472010Y-91084580D01*
X125773000Y-91084580D01*
X125773000Y-90127000D01*
X126027000Y-90127000D01*
X126027000Y-91084580D01*
X126327990Y-91084580D01*
X126733373Y-90953420D01*
X127057706Y-90677111D01*
X127244981Y-90293935D01*
X127118068Y-90127000D01*
X126027000Y-90127000D01*
X125773000Y-90127000D01*
X125753000Y-90127000D01*
X125753000Y-89873000D01*
X125773000Y-89873000D01*
X125773000Y-89853000D01*
X126027000Y-89853000D01*
X126027000Y-89873000D01*
X127118068Y-89873000D01*
X127244981Y-89706065D01*
X127139381Y-89490000D01*
X127150000Y-89490000D01*
X127440839Y-89432148D01*
X127687401Y-89267401D01*
X129820984Y-87133818D01*
X130400000Y-87248991D01*
X131063956Y-87116922D01*
X131626830Y-86740821D01*
X132002931Y-86177947D01*
X132135000Y-85513991D01*
X132135000Y-85446009D01*
X132002931Y-84782053D01*
X131626830Y-84219179D01*
X131063956Y-83843078D01*
X130400000Y-83711009D01*
X129736044Y-83843078D01*
X129173170Y-84219179D01*
X128797069Y-84782053D01*
X128665000Y-85446009D01*
X128665000Y-85513991D01*
X128768894Y-86036304D01*
X127304649Y-87500549D01*
X127312715Y-87460000D01*
X127230156Y-87044949D01*
X126995049Y-86693086D01*
X126643186Y-86457979D01*
X126228135Y-86375420D01*
X125571865Y-86375420D01*
X125156814Y-86457979D01*
X124804951Y-86693086D01*
X124569844Y-87044949D01*
X124487285Y-87460000D01*
X124569844Y-87875051D01*
X124716809Y-88095000D01*
X124569844Y-88314949D01*
X124487285Y-88730000D01*
X124493411Y-88760797D01*
X122162599Y-91091609D01*
X121997852Y-91338171D01*
X121940000Y-91629010D01*
X120127000Y-91629010D01*
X120127000Y-82528172D01*
X120332538Y-82528172D01*
X120737709Y-83508761D01*
X121487293Y-84259655D01*
X122467173Y-84666536D01*
X123528172Y-84667462D01*
X124508761Y-84262291D01*
X125259655Y-83512707D01*
X125666536Y-82532827D01*
X125666540Y-82528172D01*
X157332538Y-82528172D01*
X157737709Y-83508761D01*
X158487293Y-84259655D01*
X159467173Y-84666536D01*
X160528172Y-84667462D01*
X161508761Y-84262291D01*
X162259655Y-83512707D01*
X162666536Y-82532827D01*
X162667462Y-81471828D01*
X162262291Y-80491239D01*
X161512707Y-79740345D01*
X160532827Y-79333464D01*
X159471828Y-79332538D01*
X158491239Y-79737709D01*
X157740345Y-80487293D01*
X157333464Y-81467173D01*
X157332538Y-82528172D01*
X125666540Y-82528172D01*
X125667462Y-81471828D01*
X125363321Y-80735750D01*
X132640000Y-80735750D01*
X132640000Y-81326310D01*
X132736673Y-81559699D01*
X132915302Y-81738327D01*
X133148691Y-81835000D01*
X133839250Y-81835000D01*
X133998000Y-81676250D01*
X133998000Y-80577000D01*
X134252000Y-80577000D01*
X134252000Y-81676250D01*
X134410750Y-81835000D01*
X135101309Y-81835000D01*
X135334698Y-81738327D01*
X135513327Y-81559699D01*
X135610000Y-81326310D01*
X135610000Y-80735750D01*
X147440000Y-80735750D01*
X147440000Y-81326310D01*
X147536673Y-81559699D01*
X147715302Y-81738327D01*
X147948691Y-81835000D01*
X148639250Y-81835000D01*
X148798000Y-81676250D01*
X148798000Y-80577000D01*
X149052000Y-80577000D01*
X149052000Y-81676250D01*
X149210750Y-81835000D01*
X149901309Y-81835000D01*
X150134698Y-81738327D01*
X150313327Y-81559699D01*
X150410000Y-81326310D01*
X150410000Y-80735750D01*
X150251250Y-80577000D01*
X149052000Y-80577000D01*
X148798000Y-80577000D01*
X147598750Y-80577000D01*
X147440000Y-80735750D01*
X135610000Y-80735750D01*
X135451250Y-80577000D01*
X134252000Y-80577000D01*
X133998000Y-80577000D01*
X132798750Y-80577000D01*
X132640000Y-80735750D01*
X125363321Y-80735750D01*
X125262291Y-80491239D01*
X124512707Y-79740345D01*
X123532827Y-79333464D01*
X122471828Y-79332538D01*
X121491239Y-79737709D01*
X120740345Y-80487293D01*
X120333464Y-81467173D01*
X120332538Y-82528172D01*
X120127000Y-82528172D01*
X120127000Y-80024460D01*
X120304691Y-79580232D01*
X120662761Y-79311680D01*
X121124460Y-79127000D01*
X132999010Y-79127000D01*
X132915302Y-79161673D01*
G36*
X135869673Y-114292192D02*
X136213201Y-114434838D01*
X136585167Y-114435162D01*
X136928943Y-114293117D01*
X136962118Y-114260000D01*
X137285198Y-114260000D01*
X137664878Y-114639680D01*
X137664838Y-114685167D01*
X137806883Y-115028943D01*
X138069673Y-115292192D01*
X138413201Y-115434838D01*
X138785167Y-115435162D01*
X139128943Y-115293117D01*
X139162118Y-115260000D01*
X142485198Y-115260000D01*
X147664878Y-120439680D01*
X147664838Y-120485167D01*
X147806883Y-120828943D01*
X148069673Y-121092192D01*
X148158680Y-121129151D01*
X148064683Y-121146838D01*
X147848559Y-121285910D01*
X147703569Y-121498110D01*
X147694930Y-121540770D01*
X147512599Y-121662599D01*
X146950197Y-122225001D01*
X135918975Y-122225001D01*
X135934838Y-122186799D01*
X135935162Y-121814833D01*
X135793117Y-121471057D01*
X135760000Y-121437882D01*
X135760000Y-114182327D01*
X135869673Y-114292192D01*
X135869673Y-114292192D01*
G37*
X135869673Y-114292192D02*
X136213201Y-114434838D01*
X136585167Y-114435162D01*
X136928943Y-114293117D01*
X136962118Y-114260000D01*
X137285198Y-114260000D01*
X137664878Y-114639680D01*
X137664838Y-114685167D01*
X137806883Y-115028943D01*
X138069673Y-115292192D01*
X138413201Y-115434838D01*
X138785167Y-115435162D01*
X139128943Y-115293117D01*
X139162118Y-115260000D01*
X142485198Y-115260000D01*
X147664878Y-120439680D01*
X147664838Y-120485167D01*
X147806883Y-120828943D01*
X148069673Y-121092192D01*
X148158680Y-121129151D01*
X148064683Y-121146838D01*
X147848559Y-121285910D01*
X147703569Y-121498110D01*
X147694930Y-121540770D01*
X147512599Y-121662599D01*
X146950197Y-122225001D01*
X135918975Y-122225001D01*
X135934838Y-122186799D01*
X135935162Y-121814833D01*
X135793117Y-121471057D01*
X135760000Y-121437882D01*
X135760000Y-114182327D01*
X135869673Y-114292192D01*
G36*
X145262599Y-108937401D02*
X145509161Y-109102148D01*
X145765000Y-109153038D01*
X145765000Y-110200000D01*
X145808427Y-110430795D01*
X145944827Y-110642767D01*
X146152949Y-110784971D01*
X146400000Y-110835000D01*
X151665000Y-110835000D01*
X151665000Y-110914250D01*
X151823750Y-111073000D01*
X152623000Y-111073000D01*
X152623000Y-111053000D01*
X152877000Y-111053000D01*
X152877000Y-111073000D01*
X153676250Y-111073000D01*
X153835000Y-110914250D01*
X153835000Y-110288867D01*
X154042767Y-110155173D01*
X154184971Y-109947051D01*
X154199959Y-109873040D01*
X154244827Y-109942767D01*
X154452949Y-110084971D01*
X154600192Y-110114788D01*
X154552560Y-110350000D01*
X154552560Y-112050000D01*
X154596838Y-112285317D01*
X154735910Y-112501441D01*
X154948110Y-112646431D01*
X155200000Y-112697440D01*
X156100000Y-112697440D01*
X156335317Y-112653162D01*
X156551441Y-112514090D01*
X156696431Y-112301890D01*
X156744450Y-112064766D01*
X156913201Y-112134838D01*
X157285167Y-112135162D01*
X157628943Y-111993117D01*
X157892192Y-111730327D01*
X158034838Y-111386799D01*
X158035162Y-111014833D01*
X158002176Y-110935000D01*
X158540000Y-110935000D01*
X158540000Y-113938200D01*
X150912720Y-121565480D01*
X150903162Y-121514683D01*
X150764090Y-121298559D01*
X150551890Y-121153569D01*
X150522399Y-121147597D01*
X149535122Y-120160320D01*
X149535162Y-120114833D01*
X149393117Y-119771057D01*
X149130327Y-119507808D01*
X148786799Y-119365162D01*
X148739923Y-119365121D01*
X144269803Y-114895001D01*
X148464999Y-114895001D01*
X148755838Y-114837149D01*
X149002400Y-114672402D01*
X150539680Y-113135122D01*
X150585167Y-113135162D01*
X150928943Y-112993117D01*
X151192192Y-112730327D01*
X151334838Y-112386799D01*
X151335162Y-112014833D01*
X151193117Y-111671057D01*
X151008134Y-111485750D01*
X151665000Y-111485750D01*
X151665000Y-112176310D01*
X151761673Y-112409699D01*
X151940302Y-112588327D01*
X152173691Y-112685000D01*
X152464250Y-112685000D01*
X152623000Y-112526250D01*
X152623000Y-111327000D01*
X152877000Y-111327000D01*
X152877000Y-112526250D01*
X153035750Y-112685000D01*
X153326309Y-112685000D01*
X153559698Y-112588327D01*
X153738327Y-112409699D01*
X153835000Y-112176310D01*
X153835000Y-111485750D01*
X153676250Y-111327000D01*
X152877000Y-111327000D01*
X152623000Y-111327000D01*
X151823750Y-111327000D01*
X151665000Y-111485750D01*
X151008134Y-111485750D01*
X150930327Y-111407808D01*
X150586799Y-111265162D01*
X150214833Y-111264838D01*
X149871057Y-111406883D01*
X149607808Y-111669673D01*
X149465162Y-112013201D01*
X149465121Y-112060077D01*
X148150197Y-113375001D01*
X145335110Y-113375001D01*
X145335162Y-113314833D01*
X145193117Y-112971057D01*
X145160000Y-112937882D01*
X145160000Y-108834802D01*
X145262599Y-108937401D01*
X145262599Y-108937401D01*
G37*
X145262599Y-108937401D02*
X145509161Y-109102148D01*
X145765000Y-109153038D01*
X145765000Y-110200000D01*
X145808427Y-110430795D01*
X145944827Y-110642767D01*
X146152949Y-110784971D01*
X146400000Y-110835000D01*
X151665000Y-110835000D01*
X151665000Y-110914250D01*
X151823750Y-111073000D01*
X152623000Y-111073000D01*
X152623000Y-111053000D01*
X152877000Y-111053000D01*
X152877000Y-111073000D01*
X153676250Y-111073000D01*
X153835000Y-110914250D01*
X153835000Y-110288867D01*
X154042767Y-110155173D01*
X154184971Y-109947051D01*
X154199959Y-109873040D01*
X154244827Y-109942767D01*
X154452949Y-110084971D01*
X154600192Y-110114788D01*
X154552560Y-110350000D01*
X154552560Y-112050000D01*
X154596838Y-112285317D01*
X154735910Y-112501441D01*
X154948110Y-112646431D01*
X155200000Y-112697440D01*
X156100000Y-112697440D01*
X156335317Y-112653162D01*
X156551441Y-112514090D01*
X156696431Y-112301890D01*
X156744450Y-112064766D01*
X156913201Y-112134838D01*
X157285167Y-112135162D01*
X157628943Y-111993117D01*
X157892192Y-111730327D01*
X158034838Y-111386799D01*
X158035162Y-111014833D01*
X158002176Y-110935000D01*
X158540000Y-110935000D01*
X158540000Y-113938200D01*
X150912720Y-121565480D01*
X150903162Y-121514683D01*
X150764090Y-121298559D01*
X150551890Y-121153569D01*
X150522399Y-121147597D01*
X149535122Y-120160320D01*
X149535162Y-120114833D01*
X149393117Y-119771057D01*
X149130327Y-119507808D01*
X148786799Y-119365162D01*
X148739923Y-119365121D01*
X144269803Y-114895001D01*
X148464999Y-114895001D01*
X148755838Y-114837149D01*
X149002400Y-114672402D01*
X150539680Y-113135122D01*
X150585167Y-113135162D01*
X150928943Y-112993117D01*
X151192192Y-112730327D01*
X151334838Y-112386799D01*
X151335162Y-112014833D01*
X151193117Y-111671057D01*
X151008134Y-111485750D01*
X151665000Y-111485750D01*
X151665000Y-112176310D01*
X151761673Y-112409699D01*
X151940302Y-112588327D01*
X152173691Y-112685000D01*
X152464250Y-112685000D01*
X152623000Y-112526250D01*
X152623000Y-111327000D01*
X152877000Y-111327000D01*
X152877000Y-112526250D01*
X153035750Y-112685000D01*
X153326309Y-112685000D01*
X153559698Y-112588327D01*
X153738327Y-112409699D01*
X153835000Y-112176310D01*
X153835000Y-111485750D01*
X153676250Y-111327000D01*
X152877000Y-111327000D01*
X152623000Y-111327000D01*
X151823750Y-111327000D01*
X151665000Y-111485750D01*
X151008134Y-111485750D01*
X150930327Y-111407808D01*
X150586799Y-111265162D01*
X150214833Y-111264838D01*
X149871057Y-111406883D01*
X149607808Y-111669673D01*
X149465162Y-112013201D01*
X149465121Y-112060077D01*
X148150197Y-113375001D01*
X145335110Y-113375001D01*
X145335162Y-113314833D01*
X145193117Y-112971057D01*
X145160000Y-112937882D01*
X145160000Y-108834802D01*
X145262599Y-108937401D01*
G36*
X136706883Y-109228943D02*
X136740000Y-109262118D01*
X136740000Y-110044791D01*
X136703569Y-110098110D01*
X136652560Y-110350000D01*
X136652560Y-111250000D01*
X136696838Y-111485317D01*
X136831847Y-111695127D01*
X136761673Y-111765301D01*
X136665000Y-111998690D01*
X136665000Y-112214250D01*
X136823750Y-112373000D01*
X137573000Y-112373000D01*
X137573000Y-112353000D01*
X137704999Y-112353000D01*
X137704999Y-112647000D01*
X137573000Y-112647000D01*
X137573000Y-112627000D01*
X136823750Y-112627000D01*
X136797922Y-112652828D01*
X136586799Y-112565162D01*
X136214833Y-112564838D01*
X135871057Y-112706883D01*
X135760000Y-112817746D01*
X135760000Y-110014802D01*
X135939680Y-109835122D01*
X135985167Y-109835162D01*
X136328943Y-109693117D01*
X136592192Y-109430327D01*
X136691387Y-109191440D01*
X136706883Y-109228943D01*
X136706883Y-109228943D01*
G37*
X136706883Y-109228943D02*
X136740000Y-109262118D01*
X136740000Y-110044791D01*
X136703569Y-110098110D01*
X136652560Y-110350000D01*
X136652560Y-111250000D01*
X136696838Y-111485317D01*
X136831847Y-111695127D01*
X136761673Y-111765301D01*
X136665000Y-111998690D01*
X136665000Y-112214250D01*
X136823750Y-112373000D01*
X137573000Y-112373000D01*
X137573000Y-112353000D01*
X137704999Y-112353000D01*
X137704999Y-112647000D01*
X137573000Y-112647000D01*
X137573000Y-112627000D01*
X136823750Y-112627000D01*
X136797922Y-112652828D01*
X136586799Y-112565162D01*
X136214833Y-112564838D01*
X135871057Y-112706883D01*
X135760000Y-112817746D01*
X135760000Y-110014802D01*
X135939680Y-109835122D01*
X135985167Y-109835162D01*
X136328943Y-109693117D01*
X136592192Y-109430327D01*
X136691387Y-109191440D01*
X136706883Y-109228943D01*
G36*
X142497600Y-100772402D02*
X142744161Y-100937149D01*
X143035001Y-100995001D01*
X143940949Y-100995001D01*
X143797852Y-101209161D01*
X143740000Y-101500000D01*
X143740000Y-101522447D01*
X143601310Y-101465000D01*
X143546250Y-101465000D01*
X143387500Y-101623750D01*
X143387500Y-102002560D01*
X143212500Y-102002560D01*
X143212500Y-101623750D01*
X143053750Y-101465000D01*
X142998690Y-101465000D01*
X142863221Y-101521113D01*
X142788327Y-101340302D01*
X142609699Y-101161673D01*
X142376310Y-101065000D01*
X142283750Y-101065000D01*
X142125000Y-101223750D01*
X142125000Y-101873000D01*
X142147000Y-101873000D01*
X142147000Y-102127000D01*
X142125000Y-102127000D01*
X142125000Y-102147000D01*
X141875000Y-102147000D01*
X141875000Y-102127000D01*
X141273750Y-102127000D01*
X141115000Y-102285750D01*
X141115000Y-102426309D01*
X141160967Y-102537283D01*
X141153569Y-102548110D01*
X141125302Y-102687697D01*
X140990839Y-102597852D01*
X140700000Y-102540000D01*
X140347440Y-102540000D01*
X140347440Y-102225000D01*
X140327550Y-102119295D01*
X140335000Y-102101310D01*
X140335000Y-101985750D01*
X140238599Y-101889349D01*
X140164090Y-101773559D01*
X140066290Y-101706735D01*
X140199334Y-101573691D01*
X141115000Y-101573691D01*
X141115000Y-101714250D01*
X141273750Y-101873000D01*
X141875000Y-101873000D01*
X141875000Y-101223750D01*
X141716250Y-101065000D01*
X141623690Y-101065000D01*
X141390301Y-101161673D01*
X141211673Y-101340302D01*
X141115000Y-101573691D01*
X140199334Y-101573691D01*
X140238327Y-101534699D01*
X140255139Y-101494111D01*
X140335000Y-101414250D01*
X140335000Y-101185750D01*
X140255139Y-101105889D01*
X140238327Y-101065301D01*
X140066666Y-100893641D01*
X140151441Y-100839090D01*
X140240495Y-100708755D01*
X140335000Y-100614250D01*
X140335000Y-100498690D01*
X140326532Y-100478247D01*
X140347440Y-100375000D01*
X140347440Y-99825000D01*
X140323056Y-99695411D01*
X140347440Y-99575000D01*
X140347440Y-99025000D01*
X140323056Y-98895411D01*
X140347440Y-98775000D01*
X140347440Y-98622242D01*
X142497600Y-100772402D01*
X142497600Y-100772402D01*
G37*
X142497600Y-100772402D02*
X142744161Y-100937149D01*
X143035001Y-100995001D01*
X143940949Y-100995001D01*
X143797852Y-101209161D01*
X143740000Y-101500000D01*
X143740000Y-101522447D01*
X143601310Y-101465000D01*
X143546250Y-101465000D01*
X143387500Y-101623750D01*
X143387500Y-102002560D01*
X143212500Y-102002560D01*
X143212500Y-101623750D01*
X143053750Y-101465000D01*
X142998690Y-101465000D01*
X142863221Y-101521113D01*
X142788327Y-101340302D01*
X142609699Y-101161673D01*
X142376310Y-101065000D01*
X142283750Y-101065000D01*
X142125000Y-101223750D01*
X142125000Y-101873000D01*
X142147000Y-101873000D01*
X142147000Y-102127000D01*
X142125000Y-102127000D01*
X142125000Y-102147000D01*
X141875000Y-102147000D01*
X141875000Y-102127000D01*
X141273750Y-102127000D01*
X141115000Y-102285750D01*
X141115000Y-102426309D01*
X141160967Y-102537283D01*
X141153569Y-102548110D01*
X141125302Y-102687697D01*
X140990839Y-102597852D01*
X140700000Y-102540000D01*
X140347440Y-102540000D01*
X140347440Y-102225000D01*
X140327550Y-102119295D01*
X140335000Y-102101310D01*
X140335000Y-101985750D01*
X140238599Y-101889349D01*
X140164090Y-101773559D01*
X140066290Y-101706735D01*
X140199334Y-101573691D01*
X141115000Y-101573691D01*
X141115000Y-101714250D01*
X141273750Y-101873000D01*
X141875000Y-101873000D01*
X141875000Y-101223750D01*
X141716250Y-101065000D01*
X141623690Y-101065000D01*
X141390301Y-101161673D01*
X141211673Y-101340302D01*
X141115000Y-101573691D01*
X140199334Y-101573691D01*
X140238327Y-101534699D01*
X140255139Y-101494111D01*
X140335000Y-101414250D01*
X140335000Y-101185750D01*
X140255139Y-101105889D01*
X140238327Y-101065301D01*
X140066666Y-100893641D01*
X140151441Y-100839090D01*
X140240495Y-100708755D01*
X140335000Y-100614250D01*
X140335000Y-100498690D01*
X140326532Y-100478247D01*
X140347440Y-100375000D01*
X140347440Y-99825000D01*
X140323056Y-99695411D01*
X140347440Y-99575000D01*
X140347440Y-99025000D01*
X140323056Y-98895411D01*
X140347440Y-98775000D01*
X140347440Y-98622242D01*
X142497600Y-100772402D01*
G36*
X137175000Y-98497440D02*
X137452560Y-98497440D01*
X137452560Y-98775000D01*
X137476944Y-98904589D01*
X137452560Y-99025000D01*
X137452560Y-99575000D01*
X137476944Y-99704589D01*
X137452560Y-99825000D01*
X137452560Y-100375000D01*
X137472450Y-100480705D01*
X137465000Y-100498690D01*
X137465000Y-100614250D01*
X137561401Y-100710651D01*
X137635910Y-100826441D01*
X137733710Y-100893265D01*
X137561673Y-101065301D01*
X137544861Y-101105889D01*
X137465000Y-101185750D01*
X137465000Y-101414250D01*
X137544861Y-101494111D01*
X137561673Y-101534699D01*
X137733334Y-101706359D01*
X137648559Y-101760910D01*
X137559505Y-101891245D01*
X137465000Y-101985750D01*
X137465000Y-101990198D01*
X137437401Y-101962599D01*
X137190839Y-101797852D01*
X136900000Y-101740000D01*
X135900000Y-101740000D01*
X135609161Y-101797852D01*
X135362599Y-101962599D01*
X134960320Y-102364878D01*
X134914833Y-102364838D01*
X134649339Y-102474537D01*
X134306664Y-102131862D01*
X134302148Y-102109160D01*
X134137401Y-101862599D01*
X133885761Y-101610959D01*
X133928943Y-101593117D01*
X134192192Y-101330327D01*
X134334838Y-100986799D01*
X134335162Y-100614833D01*
X134193117Y-100271057D01*
X133930327Y-100007808D01*
X133586799Y-99865162D01*
X133539923Y-99865121D01*
X132610000Y-98935198D01*
X132610000Y-98497440D01*
X132925000Y-98497440D01*
X133054589Y-98473056D01*
X133175000Y-98497440D01*
X133725000Y-98497440D01*
X133854589Y-98473056D01*
X133975000Y-98497440D01*
X134525000Y-98497440D01*
X134654589Y-98473056D01*
X134775000Y-98497440D01*
X135140000Y-98497440D01*
X135140000Y-99037537D01*
X135107808Y-99069673D01*
X134965162Y-99413201D01*
X134964838Y-99785167D01*
X135106883Y-100128943D01*
X135369673Y-100392192D01*
X135713201Y-100534838D01*
X136085167Y-100535162D01*
X136428943Y-100393117D01*
X136692192Y-100130327D01*
X136834838Y-99786799D01*
X136835162Y-99414833D01*
X136693117Y-99071057D01*
X136660000Y-99037882D01*
X136660000Y-98497440D01*
X136925000Y-98497440D01*
X137054589Y-98473056D01*
X137175000Y-98497440D01*
X137175000Y-98497440D01*
G37*
X137175000Y-98497440D02*
X137452560Y-98497440D01*
X137452560Y-98775000D01*
X137476944Y-98904589D01*
X137452560Y-99025000D01*
X137452560Y-99575000D01*
X137476944Y-99704589D01*
X137452560Y-99825000D01*
X137452560Y-100375000D01*
X137472450Y-100480705D01*
X137465000Y-100498690D01*
X137465000Y-100614250D01*
X137561401Y-100710651D01*
X137635910Y-100826441D01*
X137733710Y-100893265D01*
X137561673Y-101065301D01*
X137544861Y-101105889D01*
X137465000Y-101185750D01*
X137465000Y-101414250D01*
X137544861Y-101494111D01*
X137561673Y-101534699D01*
X137733334Y-101706359D01*
X137648559Y-101760910D01*
X137559505Y-101891245D01*
X137465000Y-101985750D01*
X137465000Y-101990198D01*
X137437401Y-101962599D01*
X137190839Y-101797852D01*
X136900000Y-101740000D01*
X135900000Y-101740000D01*
X135609161Y-101797852D01*
X135362599Y-101962599D01*
X134960320Y-102364878D01*
X134914833Y-102364838D01*
X134649339Y-102474537D01*
X134306664Y-102131862D01*
X134302148Y-102109160D01*
X134137401Y-101862599D01*
X133885761Y-101610959D01*
X133928943Y-101593117D01*
X134192192Y-101330327D01*
X134334838Y-100986799D01*
X134335162Y-100614833D01*
X134193117Y-100271057D01*
X133930327Y-100007808D01*
X133586799Y-99865162D01*
X133539923Y-99865121D01*
X132610000Y-98935198D01*
X132610000Y-98497440D01*
X132925000Y-98497440D01*
X133054589Y-98473056D01*
X133175000Y-98497440D01*
X133725000Y-98497440D01*
X133854589Y-98473056D01*
X133975000Y-98497440D01*
X134525000Y-98497440D01*
X134654589Y-98473056D01*
X134775000Y-98497440D01*
X135140000Y-98497440D01*
X135140000Y-99037537D01*
X135107808Y-99069673D01*
X134965162Y-99413201D01*
X134964838Y-99785167D01*
X135106883Y-100128943D01*
X135369673Y-100392192D01*
X135713201Y-100534838D01*
X136085167Y-100535162D01*
X136428943Y-100393117D01*
X136692192Y-100130327D01*
X136834838Y-99786799D01*
X136835162Y-99414833D01*
X136693117Y-99071057D01*
X136660000Y-99037882D01*
X136660000Y-98497440D01*
X136925000Y-98497440D01*
X137054589Y-98473056D01*
X137175000Y-98497440D01*
G36*
X148418524Y-98196890D02*
X148588355Y-98606924D01*
X148978642Y-99035183D01*
X149503108Y-99281486D01*
X149732998Y-99160820D01*
X149732998Y-99289198D01*
X149477598Y-99544598D01*
X149312851Y-99791160D01*
X149254999Y-100081999D01*
X149254999Y-100367197D01*
X148406972Y-101215224D01*
X148410000Y-101200000D01*
X148410000Y-97967002D01*
X148539844Y-97967002D01*
X148418524Y-98196890D01*
X148418524Y-98196890D01*
G37*
X148418524Y-98196890D02*
X148588355Y-98606924D01*
X148978642Y-99035183D01*
X149503108Y-99281486D01*
X149732998Y-99160820D01*
X149732998Y-99289198D01*
X149477598Y-99544598D01*
X149312851Y-99791160D01*
X149254999Y-100081999D01*
X149254999Y-100367197D01*
X148406972Y-101215224D01*
X148410000Y-101200000D01*
X148410000Y-97967002D01*
X148539844Y-97967002D01*
X148418524Y-98196890D01*
G36*
X146790000Y-95119341D02*
X146788327Y-95115302D01*
X146609699Y-94936673D01*
X146376310Y-94840000D01*
X145285750Y-94840000D01*
X145127000Y-94998750D01*
X145127000Y-96623000D01*
X145147000Y-96623000D01*
X145147000Y-96877000D01*
X145127000Y-96877000D01*
X145127000Y-96897000D01*
X144873000Y-96897000D01*
X144873000Y-96877000D01*
X143273750Y-96877000D01*
X143115000Y-97035750D01*
X143115000Y-98151309D01*
X143211673Y-98384698D01*
X143390301Y-98563327D01*
X143623690Y-98660000D01*
X144714250Y-98660000D01*
X144872998Y-98501252D01*
X144872998Y-98653288D01*
X144648963Y-98697852D01*
X144402401Y-98862599D01*
X143789999Y-99475001D01*
X143349803Y-99475001D01*
X140637401Y-96762599D01*
X140390839Y-96597852D01*
X140100000Y-96540000D01*
X139362463Y-96540000D01*
X139330327Y-96507808D01*
X138986799Y-96365162D01*
X138614833Y-96364838D01*
X138372440Y-96464993D01*
X138372440Y-96250000D01*
X138328162Y-96014683D01*
X138189090Y-95798559D01*
X137976890Y-95653569D01*
X137725000Y-95602560D01*
X137322242Y-95602560D01*
X137576111Y-95348691D01*
X143115000Y-95348691D01*
X143115000Y-96464250D01*
X143273750Y-96623000D01*
X144873000Y-96623000D01*
X144873000Y-94998750D01*
X144714250Y-94840000D01*
X143623690Y-94840000D01*
X143390301Y-94936673D01*
X143211673Y-95115302D01*
X143115000Y-95348691D01*
X137576111Y-95348691D01*
X138854801Y-94070001D01*
X146518001Y-94070001D01*
X146790000Y-94015897D01*
X146790000Y-95119341D01*
X146790000Y-95119341D01*
G37*
X146790000Y-95119341D02*
X146788327Y-95115302D01*
X146609699Y-94936673D01*
X146376310Y-94840000D01*
X145285750Y-94840000D01*
X145127000Y-94998750D01*
X145127000Y-96623000D01*
X145147000Y-96623000D01*
X145147000Y-96877000D01*
X145127000Y-96877000D01*
X145127000Y-96897000D01*
X144873000Y-96897000D01*
X144873000Y-96877000D01*
X143273750Y-96877000D01*
X143115000Y-97035750D01*
X143115000Y-98151309D01*
X143211673Y-98384698D01*
X143390301Y-98563327D01*
X143623690Y-98660000D01*
X144714250Y-98660000D01*
X144872998Y-98501252D01*
X144872998Y-98653288D01*
X144648963Y-98697852D01*
X144402401Y-98862599D01*
X143789999Y-99475001D01*
X143349803Y-99475001D01*
X140637401Y-96762599D01*
X140390839Y-96597852D01*
X140100000Y-96540000D01*
X139362463Y-96540000D01*
X139330327Y-96507808D01*
X138986799Y-96365162D01*
X138614833Y-96364838D01*
X138372440Y-96464993D01*
X138372440Y-96250000D01*
X138328162Y-96014683D01*
X138189090Y-95798559D01*
X137976890Y-95653569D01*
X137725000Y-95602560D01*
X137322242Y-95602560D01*
X137576111Y-95348691D01*
X143115000Y-95348691D01*
X143115000Y-96464250D01*
X143273750Y-96623000D01*
X144873000Y-96623000D01*
X144873000Y-94998750D01*
X144714250Y-94840000D01*
X143623690Y-94840000D01*
X143390301Y-94936673D01*
X143211673Y-95115302D01*
X143115000Y-95348691D01*
X137576111Y-95348691D01*
X138854801Y-94070001D01*
X146518001Y-94070001D01*
X146790000Y-94015897D01*
X146790000Y-95119341D01*
G36*
X149987000Y-97713000D02*
X150007000Y-97713000D01*
X150007000Y-97967000D01*
X149987000Y-97967000D01*
X149987000Y-97987000D01*
X149733000Y-97987000D01*
X149733000Y-97967000D01*
X149713000Y-97967000D01*
X149713000Y-97713000D01*
X149733000Y-97713000D01*
X149733000Y-97693000D01*
X149987000Y-97693000D01*
X149987000Y-97713000D01*
X149987000Y-97713000D01*
G37*
X149987000Y-97713000D02*
X150007000Y-97713000D01*
X150007000Y-97967000D01*
X149987000Y-97967000D01*
X149987000Y-97987000D01*
X149733000Y-97987000D01*
X149733000Y-97967000D01*
X149713000Y-97967000D01*
X149713000Y-97713000D01*
X149733000Y-97713000D01*
X149733000Y-97693000D01*
X149987000Y-97693000D01*
X149987000Y-97713000D01*
G36*
X133662599Y-92137401D02*
X133962599Y-92437401D01*
X134203492Y-92598360D01*
X134278613Y-92715102D01*
X134193274Y-92840000D01*
X133814802Y-92840000D01*
X133460000Y-92485198D01*
X133460000Y-92362463D01*
X133492192Y-92330327D01*
X133606910Y-92054056D01*
X133662599Y-92137401D01*
X133662599Y-92137401D01*
G37*
X133662599Y-92137401D02*
X133962599Y-92437401D01*
X134203492Y-92598360D01*
X134278613Y-92715102D01*
X134193274Y-92840000D01*
X133814802Y-92840000D01*
X133460000Y-92485198D01*
X133460000Y-92362463D01*
X133492192Y-92330327D01*
X133606910Y-92054056D01*
X133662599Y-92137401D01*
G36*
X135090000Y-89300000D02*
X135151658Y-89609974D01*
X135246329Y-89751658D01*
X135327244Y-89872756D01*
X135727243Y-90272756D01*
X135790216Y-90314833D01*
X135990026Y-90448342D01*
X136300000Y-90510000D01*
X137064991Y-90510000D01*
X137064838Y-90685167D01*
X137149473Y-90890000D01*
X136935750Y-90890000D01*
X136777000Y-91048750D01*
X136777000Y-91773000D01*
X136797000Y-91773000D01*
X136797000Y-92027000D01*
X136777000Y-92027000D01*
X136777000Y-92047000D01*
X136523000Y-92047000D01*
X136523000Y-92027000D01*
X136503000Y-92027000D01*
X136503000Y-91773000D01*
X136523000Y-91773000D01*
X136523000Y-91048750D01*
X136364250Y-90890000D01*
X136123691Y-90890000D01*
X135890302Y-90986673D01*
X135888932Y-90988043D01*
X135801890Y-90928569D01*
X135550000Y-90877560D01*
X134960000Y-90877560D01*
X134960000Y-89262463D01*
X134992192Y-89230327D01*
X135090000Y-88994780D01*
X135090000Y-89300000D01*
X135090000Y-89300000D01*
G37*
X135090000Y-89300000D02*
X135151658Y-89609974D01*
X135246329Y-89751658D01*
X135327244Y-89872756D01*
X135727243Y-90272756D01*
X135790216Y-90314833D01*
X135990026Y-90448342D01*
X136300000Y-90510000D01*
X137064991Y-90510000D01*
X137064838Y-90685167D01*
X137149473Y-90890000D01*
X136935750Y-90890000D01*
X136777000Y-91048750D01*
X136777000Y-91773000D01*
X136797000Y-91773000D01*
X136797000Y-92027000D01*
X136777000Y-92027000D01*
X136777000Y-92047000D01*
X136523000Y-92047000D01*
X136523000Y-92027000D01*
X136503000Y-92027000D01*
X136503000Y-91773000D01*
X136523000Y-91773000D01*
X136523000Y-91048750D01*
X136364250Y-90890000D01*
X136123691Y-90890000D01*
X135890302Y-90986673D01*
X135888932Y-90988043D01*
X135801890Y-90928569D01*
X135550000Y-90877560D01*
X134960000Y-90877560D01*
X134960000Y-89262463D01*
X134992192Y-89230327D01*
X135090000Y-88994780D01*
X135090000Y-89300000D01*
G36*
X144400000Y-84477000D02*
X144150000Y-84477000D01*
X144150000Y-84223000D01*
X144400000Y-84223000D01*
X144400000Y-84477000D01*
X144400000Y-84477000D01*
G37*
X144400000Y-84477000D02*
X144150000Y-84477000D01*
X144150000Y-84223000D01*
X144400000Y-84223000D01*
X144400000Y-84477000D01*
M02*
