G04 #@! TF.GenerationSoftware,KiCad,Pcbnew,5.0.2+dfsg1-1*
G04 #@! TF.CreationDate,2019-09-05T11:37:23+02:00*
G04 #@! TF.ProjectId,xling,786c696e-672e-46b6-9963-61645f706362,0.3*
G04 #@! TF.SameCoordinates,Original*
G04 #@! TF.FileFunction,Legend,Bot*
G04 #@! TF.FilePolarity,Positive*
%FSLAX46Y46*%
G04 Gerber Fmt 4.6, Leading zero omitted, Abs format (unit mm)*
G04 Created by KiCad (PCBNEW 5.0.2+dfsg1-1) date Thu 05 Sep 2019 11:37:23 CEST*
%MOMM*%
%LPD*%
G01*
G04 APERTURE LIST*
%ADD10C,0.200000*%
%ADD11C,0.350000*%
%ADD12C,0.150000*%
%ADD13C,0.120000*%
G04 APERTURE END LIST*
D10*
X57194285Y-51250904D02*
X56927619Y-52050904D01*
X56660952Y-51250904D01*
X56127619Y-51631857D02*
X56013333Y-51669952D01*
X55975238Y-51708047D01*
X55937142Y-51784238D01*
X55937142Y-51898523D01*
X55975238Y-51974714D01*
X56013333Y-52012809D01*
X56089523Y-52050904D01*
X56394285Y-52050904D01*
X56394285Y-51250904D01*
X56127619Y-51250904D01*
X56051428Y-51289000D01*
X56013333Y-51327095D01*
X55975238Y-51403285D01*
X55975238Y-51479476D01*
X56013333Y-51555666D01*
X56051428Y-51593761D01*
X56127619Y-51631857D01*
X56394285Y-51631857D01*
X55632380Y-51822333D02*
X55251428Y-51822333D01*
X55708571Y-52050904D02*
X55441904Y-51250904D01*
X55175238Y-52050904D01*
X55022857Y-51250904D02*
X54565714Y-51250904D01*
X54794285Y-52050904D02*
X54794285Y-51250904D01*
X60680523Y-50400000D02*
X60756714Y-50361904D01*
X60871000Y-50361904D01*
X60985285Y-50400000D01*
X61061476Y-50476190D01*
X61099571Y-50552380D01*
X61137666Y-50704761D01*
X61137666Y-50819047D01*
X61099571Y-50971428D01*
X61061476Y-51047619D01*
X60985285Y-51123809D01*
X60871000Y-51161904D01*
X60794809Y-51161904D01*
X60680523Y-51123809D01*
X60642428Y-51085714D01*
X60642428Y-50819047D01*
X60794809Y-50819047D01*
X60299571Y-51161904D02*
X60299571Y-50361904D01*
X59842428Y-51161904D01*
X59842428Y-50361904D01*
X59461476Y-51161904D02*
X59461476Y-50361904D01*
X59271000Y-50361904D01*
X59156714Y-50400000D01*
X59080523Y-50476190D01*
X59042428Y-50552380D01*
X59004333Y-50704761D01*
X59004333Y-50819047D01*
X59042428Y-50971428D01*
X59080523Y-51047619D01*
X59156714Y-51123809D01*
X59271000Y-51161904D01*
X59461476Y-51161904D01*
X65227000Y-50857142D02*
X64617476Y-50857142D01*
X64922238Y-51161904D02*
X64922238Y-50552380D01*
X64312714Y-50361904D02*
X63817476Y-50361904D01*
X64084142Y-50666666D01*
X63969857Y-50666666D01*
X63893666Y-50704761D01*
X63855571Y-50742857D01*
X63817476Y-50819047D01*
X63817476Y-51009523D01*
X63855571Y-51085714D01*
X63893666Y-51123809D01*
X63969857Y-51161904D01*
X64198428Y-51161904D01*
X64274619Y-51123809D01*
X64312714Y-51085714D01*
X63474619Y-51085714D02*
X63436523Y-51123809D01*
X63474619Y-51161904D01*
X63512714Y-51123809D01*
X63474619Y-51085714D01*
X63474619Y-51161904D01*
X63169857Y-50361904D02*
X62674619Y-50361904D01*
X62941285Y-50666666D01*
X62827000Y-50666666D01*
X62750809Y-50704761D01*
X62712714Y-50742857D01*
X62674619Y-50819047D01*
X62674619Y-51009523D01*
X62712714Y-51085714D01*
X62750809Y-51123809D01*
X62827000Y-51161904D01*
X63055571Y-51161904D01*
X63131761Y-51123809D01*
X63169857Y-51085714D01*
X62446047Y-50361904D02*
X62179380Y-51161904D01*
X61912714Y-50361904D01*
X54078238Y-80324523D02*
X54030619Y-80181666D01*
X54030619Y-79943571D01*
X54078238Y-79848333D01*
X54125857Y-79800714D01*
X54221095Y-79753095D01*
X54316333Y-79753095D01*
X54411571Y-79800714D01*
X54459190Y-79848333D01*
X54506809Y-79943571D01*
X54554428Y-80134047D01*
X54602047Y-80229285D01*
X54649666Y-80276904D01*
X54744904Y-80324523D01*
X54840142Y-80324523D01*
X54935380Y-80276904D01*
X54983000Y-80229285D01*
X55030619Y-80134047D01*
X55030619Y-79895952D01*
X54983000Y-79753095D01*
X54030619Y-79324523D02*
X55030619Y-79324523D01*
X54554428Y-79324523D02*
X54554428Y-78753095D01*
X54030619Y-78753095D02*
X55030619Y-78753095D01*
X54030619Y-77753095D02*
X54030619Y-78324523D01*
X54030619Y-78038809D02*
X55030619Y-78038809D01*
X54887761Y-78134047D01*
X54792523Y-78229285D01*
X54744904Y-78324523D01*
X54030619Y-76800714D02*
X54030619Y-77372142D01*
X54030619Y-77086428D02*
X55030619Y-77086428D01*
X54887761Y-77181666D01*
X54792523Y-77276904D01*
X54744904Y-77372142D01*
X55030619Y-76181666D02*
X55030619Y-76086428D01*
X54983000Y-75991190D01*
X54935380Y-75943571D01*
X54840142Y-75895952D01*
X54649666Y-75848333D01*
X54411571Y-75848333D01*
X54221095Y-75895952D01*
X54125857Y-75943571D01*
X54078238Y-75991190D01*
X54030619Y-76086428D01*
X54030619Y-76181666D01*
X54078238Y-76276904D01*
X54125857Y-76324523D01*
X54221095Y-76372142D01*
X54411571Y-76419761D01*
X54649666Y-76419761D01*
X54840142Y-76372142D01*
X54935380Y-76324523D01*
X54983000Y-76276904D01*
X55030619Y-76181666D01*
X55030619Y-74991190D02*
X55030619Y-75181666D01*
X54983000Y-75276904D01*
X54935380Y-75324523D01*
X54792523Y-75419761D01*
X54602047Y-75467380D01*
X54221095Y-75467380D01*
X54125857Y-75419761D01*
X54078238Y-75372142D01*
X54030619Y-75276904D01*
X54030619Y-75086428D01*
X54078238Y-74991190D01*
X54125857Y-74943571D01*
X54221095Y-74895952D01*
X54459190Y-74895952D01*
X54554428Y-74943571D01*
X54602047Y-74991190D01*
X54649666Y-75086428D01*
X54649666Y-75276904D01*
X54602047Y-75372142D01*
X54554428Y-75419761D01*
X54459190Y-75467380D01*
X54983000Y-73943571D02*
X55030619Y-74038809D01*
X55030619Y-74181666D01*
X54983000Y-74324523D01*
X54887761Y-74419761D01*
X54792523Y-74467380D01*
X54602047Y-74515000D01*
X54459190Y-74515000D01*
X54268714Y-74467380D01*
X54173476Y-74419761D01*
X54078238Y-74324523D01*
X54030619Y-74181666D01*
X54030619Y-74086428D01*
X54078238Y-73943571D01*
X54125857Y-73895952D01*
X54459190Y-73895952D01*
X54459190Y-74086428D01*
X84547333Y-52346380D02*
X84547333Y-51822571D01*
X84594952Y-51727333D01*
X84690190Y-51679714D01*
X84880666Y-51679714D01*
X84975904Y-51727333D01*
X84547333Y-52298761D02*
X84642571Y-52346380D01*
X84880666Y-52346380D01*
X84975904Y-52298761D01*
X85023523Y-52203523D01*
X85023523Y-52108285D01*
X84975904Y-52013047D01*
X84880666Y-51965428D01*
X84642571Y-51965428D01*
X84547333Y-51917809D01*
X83452095Y-51679714D02*
X83071142Y-51679714D01*
X83309238Y-51346380D02*
X83309238Y-52203523D01*
X83261619Y-52298761D01*
X83166380Y-52346380D01*
X83071142Y-52346380D01*
X82309238Y-52346380D02*
X82309238Y-51822571D01*
X82356857Y-51727333D01*
X82452095Y-51679714D01*
X82642571Y-51679714D01*
X82737809Y-51727333D01*
X82309238Y-52298761D02*
X82404476Y-52346380D01*
X82642571Y-52346380D01*
X82737809Y-52298761D01*
X82785428Y-52203523D01*
X82785428Y-52108285D01*
X82737809Y-52013047D01*
X82642571Y-51965428D01*
X82404476Y-51965428D01*
X82309238Y-51917809D01*
X81833047Y-52346380D02*
X81833047Y-51679714D01*
X81833047Y-51774952D02*
X81785428Y-51727333D01*
X81690190Y-51679714D01*
X81547333Y-51679714D01*
X81452095Y-51727333D01*
X81404476Y-51822571D01*
X81404476Y-52346380D01*
X81404476Y-51822571D02*
X81356857Y-51727333D01*
X81261619Y-51679714D01*
X81118761Y-51679714D01*
X81023523Y-51727333D01*
X80975904Y-51822571D01*
X80975904Y-52346380D01*
X80071142Y-52346380D02*
X80071142Y-51822571D01*
X80118761Y-51727333D01*
X80214000Y-51679714D01*
X80404476Y-51679714D01*
X80499714Y-51727333D01*
X80071142Y-52298761D02*
X80166380Y-52346380D01*
X80404476Y-52346380D01*
X80499714Y-52298761D01*
X80547333Y-52203523D01*
X80547333Y-52108285D01*
X80499714Y-52013047D01*
X80404476Y-51965428D01*
X80166380Y-51965428D01*
X80071142Y-51917809D01*
X79166380Y-51679714D02*
X79166380Y-52489238D01*
X79214000Y-52584476D01*
X79261619Y-52632095D01*
X79356857Y-52679714D01*
X79499714Y-52679714D01*
X79594952Y-52632095D01*
X79166380Y-52298761D02*
X79261619Y-52346380D01*
X79452095Y-52346380D01*
X79547333Y-52298761D01*
X79594952Y-52251142D01*
X79642571Y-52155904D01*
X79642571Y-51870190D01*
X79594952Y-51774952D01*
X79547333Y-51727333D01*
X79452095Y-51679714D01*
X79261619Y-51679714D01*
X79166380Y-51727333D01*
X78547333Y-52346380D02*
X78642571Y-52298761D01*
X78690190Y-52251142D01*
X78737809Y-52155904D01*
X78737809Y-51870190D01*
X78690190Y-51774952D01*
X78642571Y-51727333D01*
X78547333Y-51679714D01*
X78404476Y-51679714D01*
X78309238Y-51727333D01*
X78261619Y-51774952D01*
X78214000Y-51870190D01*
X78214000Y-52155904D01*
X78261619Y-52251142D01*
X78309238Y-52298761D01*
X78404476Y-52346380D01*
X78547333Y-52346380D01*
X77928285Y-51679714D02*
X77547333Y-51679714D01*
X77785428Y-51346380D02*
X77785428Y-52203523D01*
X77737809Y-52298761D01*
X77642571Y-52346380D01*
X77547333Y-52346380D01*
X76785428Y-52298761D02*
X76880666Y-52346380D01*
X77071142Y-52346380D01*
X77166380Y-52298761D01*
X77214000Y-52251142D01*
X77261619Y-52155904D01*
X77261619Y-51870190D01*
X77214000Y-51774952D01*
X77166380Y-51727333D01*
X77071142Y-51679714D01*
X76880666Y-51679714D01*
X76785428Y-51727333D01*
X76356857Y-52346380D02*
X76356857Y-51346380D01*
X75928285Y-52346380D02*
X75928285Y-51822571D01*
X75975904Y-51727333D01*
X76071142Y-51679714D01*
X76214000Y-51679714D01*
X76309238Y-51727333D01*
X76356857Y-51774952D01*
X75452095Y-52346380D02*
X75452095Y-51679714D01*
X75452095Y-51346380D02*
X75499714Y-51394000D01*
X75452095Y-51441619D01*
X75404476Y-51394000D01*
X75452095Y-51346380D01*
X75452095Y-51441619D01*
X74975904Y-51965428D02*
X74214000Y-51965428D01*
X73594952Y-52346380D02*
X73690190Y-52298761D01*
X73737809Y-52203523D01*
X73737809Y-51346380D01*
X73214000Y-52346380D02*
X73214000Y-51679714D01*
X73214000Y-51346380D02*
X73261619Y-51394000D01*
X73214000Y-51441619D01*
X73166380Y-51394000D01*
X73214000Y-51346380D01*
X73214000Y-51441619D01*
X72737809Y-52346380D02*
X72737809Y-51346380D01*
X72642571Y-51965428D02*
X72356857Y-52346380D01*
X72356857Y-51679714D02*
X72737809Y-52060666D01*
X71547333Y-52298761D02*
X71642571Y-52346380D01*
X71833047Y-52346380D01*
X71928285Y-52298761D01*
X71975904Y-52203523D01*
X71975904Y-51822571D01*
X71928285Y-51727333D01*
X71833047Y-51679714D01*
X71642571Y-51679714D01*
X71547333Y-51727333D01*
X71499714Y-51822571D01*
X71499714Y-51917809D01*
X71975904Y-52013047D01*
X70452095Y-51679714D02*
X70071142Y-51679714D01*
X70309238Y-51346380D02*
X70309238Y-52203523D01*
X70261619Y-52298761D01*
X70166380Y-52346380D01*
X70071142Y-52346380D01*
X69594952Y-52346380D02*
X69690190Y-52298761D01*
X69737809Y-52251142D01*
X69785428Y-52155904D01*
X69785428Y-51870190D01*
X69737809Y-51774952D01*
X69690190Y-51727333D01*
X69594952Y-51679714D01*
X69452095Y-51679714D01*
X69356857Y-51727333D01*
X69309238Y-51774952D01*
X69261619Y-51870190D01*
X69261619Y-52155904D01*
X69309238Y-52251142D01*
X69356857Y-52298761D01*
X69452095Y-52346380D01*
X69594952Y-52346380D01*
X68928285Y-51679714D02*
X68690190Y-52346380D01*
X68452095Y-51679714D02*
X68690190Y-52346380D01*
X68785428Y-52584476D01*
X68833047Y-52632095D01*
X68928285Y-52679714D01*
X84690190Y-54427333D02*
X84737809Y-54379714D01*
X84833047Y-54236857D01*
X84880666Y-54141619D01*
X84928285Y-53998761D01*
X84975904Y-53760666D01*
X84975904Y-53570190D01*
X84928285Y-53332095D01*
X84880666Y-53189238D01*
X84833047Y-53094000D01*
X84737809Y-52951142D01*
X84690190Y-52903523D01*
X83880666Y-53998761D02*
X83975904Y-54046380D01*
X84166380Y-54046380D01*
X84261619Y-53998761D01*
X84309238Y-53951142D01*
X84356857Y-53855904D01*
X84356857Y-53570190D01*
X84309238Y-53474952D01*
X84261619Y-53427333D01*
X84166380Y-53379714D01*
X83975904Y-53379714D01*
X83880666Y-53427333D01*
X83547333Y-54427333D02*
X83499714Y-54379714D01*
X83404476Y-54236857D01*
X83356857Y-54141619D01*
X83309238Y-53998761D01*
X83261619Y-53760666D01*
X83261619Y-53570190D01*
X83309238Y-53332095D01*
X83356857Y-53189238D01*
X83404476Y-53094000D01*
X83499714Y-52951142D01*
X83547333Y-52903523D01*
X82071142Y-53141619D02*
X82023523Y-53094000D01*
X81928285Y-53046380D01*
X81690190Y-53046380D01*
X81594952Y-53094000D01*
X81547333Y-53141619D01*
X81499714Y-53236857D01*
X81499714Y-53332095D01*
X81547333Y-53474952D01*
X82118761Y-54046380D01*
X81499714Y-54046380D01*
X80880666Y-53046380D02*
X80785428Y-53046380D01*
X80690190Y-53094000D01*
X80642571Y-53141619D01*
X80594952Y-53236857D01*
X80547333Y-53427333D01*
X80547333Y-53665428D01*
X80594952Y-53855904D01*
X80642571Y-53951142D01*
X80690190Y-53998761D01*
X80785428Y-54046380D01*
X80880666Y-54046380D01*
X80975904Y-53998761D01*
X81023523Y-53951142D01*
X81071142Y-53855904D01*
X81118761Y-53665428D01*
X81118761Y-53427333D01*
X81071142Y-53236857D01*
X81023523Y-53141619D01*
X80975904Y-53094000D01*
X80880666Y-53046380D01*
X79594952Y-54046380D02*
X80166380Y-54046380D01*
X79880666Y-54046380D02*
X79880666Y-53046380D01*
X79975904Y-53189238D01*
X80071142Y-53284476D01*
X80166380Y-53332095D01*
X79118761Y-54046380D02*
X78928285Y-54046380D01*
X78833047Y-53998761D01*
X78785428Y-53951142D01*
X78690190Y-53808285D01*
X78642571Y-53617809D01*
X78642571Y-53236857D01*
X78690190Y-53141619D01*
X78737809Y-53094000D01*
X78833047Y-53046380D01*
X79023523Y-53046380D01*
X79118761Y-53094000D01*
X79166380Y-53141619D01*
X79214000Y-53236857D01*
X79214000Y-53474952D01*
X79166380Y-53570190D01*
X79118761Y-53617809D01*
X79023523Y-53665428D01*
X78833047Y-53665428D01*
X78737809Y-53617809D01*
X78690190Y-53570190D01*
X78642571Y-53474952D01*
X77023523Y-54046380D02*
X77023523Y-53046380D01*
X77023523Y-53998761D02*
X77118761Y-54046380D01*
X77309238Y-54046380D01*
X77404476Y-53998761D01*
X77452095Y-53951142D01*
X77499714Y-53855904D01*
X77499714Y-53570190D01*
X77452095Y-53474952D01*
X77404476Y-53427333D01*
X77309238Y-53379714D01*
X77118761Y-53379714D01*
X77023523Y-53427333D01*
X76594952Y-53998761D02*
X76499714Y-54046380D01*
X76309238Y-54046380D01*
X76214000Y-53998761D01*
X76166380Y-53903523D01*
X76166380Y-53855904D01*
X76214000Y-53760666D01*
X76309238Y-53713047D01*
X76452095Y-53713047D01*
X76547333Y-53665428D01*
X76594952Y-53570190D01*
X76594952Y-53522571D01*
X76547333Y-53427333D01*
X76452095Y-53379714D01*
X76309238Y-53379714D01*
X76214000Y-53427333D01*
X75594952Y-54046380D02*
X75690190Y-53998761D01*
X75737809Y-53903523D01*
X75737809Y-53046380D01*
X84404476Y-55651142D02*
X84452095Y-55698761D01*
X84594952Y-55746380D01*
X84690190Y-55746380D01*
X84833047Y-55698761D01*
X84928285Y-55603523D01*
X84975904Y-55508285D01*
X85023523Y-55317809D01*
X85023523Y-55174952D01*
X84975904Y-54984476D01*
X84928285Y-54889238D01*
X84833047Y-54794000D01*
X84690190Y-54746380D01*
X84594952Y-54746380D01*
X84452095Y-54794000D01*
X84404476Y-54841619D01*
X83404476Y-55651142D02*
X83452095Y-55698761D01*
X83594952Y-55746380D01*
X83690190Y-55746380D01*
X83833047Y-55698761D01*
X83928285Y-55603523D01*
X83975904Y-55508285D01*
X84023523Y-55317809D01*
X84023523Y-55174952D01*
X83975904Y-54984476D01*
X83928285Y-54889238D01*
X83833047Y-54794000D01*
X83690190Y-54746380D01*
X83594952Y-54746380D01*
X83452095Y-54794000D01*
X83404476Y-54841619D01*
X82975904Y-55365428D02*
X82214000Y-55365428D01*
X81404476Y-55222571D02*
X81261619Y-55270190D01*
X81214000Y-55317809D01*
X81166380Y-55413047D01*
X81166380Y-55555904D01*
X81214000Y-55651142D01*
X81261619Y-55698761D01*
X81356857Y-55746380D01*
X81737809Y-55746380D01*
X81737809Y-54746380D01*
X81404476Y-54746380D01*
X81309238Y-54794000D01*
X81261619Y-54841619D01*
X81214000Y-54936857D01*
X81214000Y-55032095D01*
X81261619Y-55127333D01*
X81309238Y-55174952D01*
X81404476Y-55222571D01*
X81737809Y-55222571D01*
X80547333Y-55270190D02*
X80547333Y-55746380D01*
X80880666Y-54746380D02*
X80547333Y-55270190D01*
X80214000Y-54746380D01*
X79880666Y-55365428D02*
X79118761Y-55365428D01*
X78690190Y-55698761D02*
X78547333Y-55746380D01*
X78309238Y-55746380D01*
X78214000Y-55698761D01*
X78166380Y-55651142D01*
X78118761Y-55555904D01*
X78118761Y-55460666D01*
X78166380Y-55365428D01*
X78214000Y-55317809D01*
X78309238Y-55270190D01*
X78499714Y-55222571D01*
X78594952Y-55174952D01*
X78642571Y-55127333D01*
X78690190Y-55032095D01*
X78690190Y-54936857D01*
X78642571Y-54841619D01*
X78594952Y-54794000D01*
X78499714Y-54746380D01*
X78261619Y-54746380D01*
X78118761Y-54794000D01*
X77737809Y-55460666D02*
X77261619Y-55460666D01*
X77833047Y-55746380D02*
X77499714Y-54746380D01*
X77166380Y-55746380D01*
D11*
X84845071Y-48362523D02*
X83578404Y-50262523D01*
X83578404Y-48362523D02*
X84845071Y-50262523D01*
X81949833Y-50262523D02*
X82854595Y-50262523D01*
X82854595Y-48362523D01*
X81316500Y-50262523D02*
X81316500Y-48362523D01*
X80411738Y-50262523D02*
X80411738Y-48362523D01*
X79326023Y-50262523D01*
X79326023Y-48362523D01*
X77426023Y-48453000D02*
X77606976Y-48362523D01*
X77878404Y-48362523D01*
X78149833Y-48453000D01*
X78330785Y-48633952D01*
X78421261Y-48814904D01*
X78511738Y-49176809D01*
X78511738Y-49448238D01*
X78421261Y-49810142D01*
X78330785Y-49991095D01*
X78149833Y-50172047D01*
X77878404Y-50262523D01*
X77697452Y-50262523D01*
X77426023Y-50172047D01*
X77335547Y-50081571D01*
X77335547Y-49448238D01*
X77697452Y-49448238D01*
X75254595Y-48995857D02*
X74802214Y-50262523D01*
X74349833Y-48995857D01*
X73264119Y-48362523D02*
X73083166Y-48362523D01*
X72902214Y-48453000D01*
X72811738Y-48543476D01*
X72721261Y-48724428D01*
X72630785Y-49086333D01*
X72630785Y-49538714D01*
X72721261Y-49900619D01*
X72811738Y-50081571D01*
X72902214Y-50172047D01*
X73083166Y-50262523D01*
X73264119Y-50262523D01*
X73445071Y-50172047D01*
X73535547Y-50081571D01*
X73626023Y-49900619D01*
X73716500Y-49538714D01*
X73716500Y-49086333D01*
X73626023Y-48724428D01*
X73535547Y-48543476D01*
X73445071Y-48453000D01*
X73264119Y-48362523D01*
X71816500Y-50081571D02*
X71726023Y-50172047D01*
X71816500Y-50262523D01*
X71906976Y-50172047D01*
X71816500Y-50081571D01*
X71816500Y-50262523D01*
X71092690Y-48362523D02*
X69916500Y-48362523D01*
X70549833Y-49086333D01*
X70278404Y-49086333D01*
X70097452Y-49176809D01*
X70006976Y-49267285D01*
X69916500Y-49448238D01*
X69916500Y-49900619D01*
X70006976Y-50081571D01*
X70097452Y-50172047D01*
X70278404Y-50262523D01*
X70821261Y-50262523D01*
X71002214Y-50172047D01*
X71092690Y-50081571D01*
D12*
G04 #@! TO.C,SW1*
X79882000Y-75310000D02*
G75*
G03X79882000Y-75310000I-1700000J0D01*
G01*
D13*
X76582000Y-72860000D02*
X79782000Y-72860000D01*
X76582000Y-77760000D02*
X79782000Y-77760000D01*
X80782000Y-76460000D02*
X80782000Y-74160000D01*
X75582000Y-76460000D02*
X75582000Y-74160000D01*
D12*
G04 #@! TO.C,SW2*
X71382000Y-76860000D02*
G75*
G03X71382000Y-76860000I-1700000J0D01*
G01*
D13*
X68082000Y-74410000D02*
X71282000Y-74410000D01*
X68082000Y-79310000D02*
X71282000Y-79310000D01*
X72282000Y-78010000D02*
X72282000Y-75710000D01*
X67082000Y-78010000D02*
X67082000Y-75710000D01*
D12*
G04 #@! TO.C,SW3*
X62882000Y-75460000D02*
G75*
G03X62882000Y-75460000I-1700000J0D01*
G01*
D13*
X59582000Y-73010000D02*
X62782000Y-73010000D01*
X59582000Y-77910000D02*
X62782000Y-77910000D01*
X63782000Y-76610000D02*
X63782000Y-74310000D01*
X58582000Y-76610000D02*
X58582000Y-74310000D01*
G04 #@! TO.C,TP1*
X64827000Y-48387000D02*
G75*
G03X64827000Y-48387000I-1200000J0D01*
G01*
G04 #@! TO.C,TP2*
X57080000Y-49403000D02*
G75*
G03X57080000Y-49403000I-1200000J0D01*
G01*
G04 #@! TO.C,TP5*
X61271000Y-48387000D02*
G75*
G03X61271000Y-48387000I-1200000J0D01*
G01*
G04 #@! TO.C,SW1*
D12*
X79115333Y-78769333D02*
X79015333Y-78802666D01*
X78848666Y-78802666D01*
X78782000Y-78769333D01*
X78748666Y-78736000D01*
X78715333Y-78669333D01*
X78715333Y-78602666D01*
X78748666Y-78536000D01*
X78782000Y-78502666D01*
X78848666Y-78469333D01*
X78982000Y-78436000D01*
X79048666Y-78402666D01*
X79082000Y-78369333D01*
X79115333Y-78302666D01*
X79115333Y-78236000D01*
X79082000Y-78169333D01*
X79048666Y-78136000D01*
X78982000Y-78102666D01*
X78815333Y-78102666D01*
X78715333Y-78136000D01*
X78482000Y-78102666D02*
X78315333Y-78802666D01*
X78182000Y-78302666D01*
X78048666Y-78802666D01*
X77882000Y-78102666D01*
X77248666Y-78802666D02*
X77648666Y-78802666D01*
X77448666Y-78802666D02*
X77448666Y-78102666D01*
X77515333Y-78202666D01*
X77582000Y-78269333D01*
X77648666Y-78302666D01*
G04 #@! TO.C,SW2*
X70615333Y-80293333D02*
X70515333Y-80326666D01*
X70348666Y-80326666D01*
X70282000Y-80293333D01*
X70248666Y-80260000D01*
X70215333Y-80193333D01*
X70215333Y-80126666D01*
X70248666Y-80060000D01*
X70282000Y-80026666D01*
X70348666Y-79993333D01*
X70482000Y-79960000D01*
X70548666Y-79926666D01*
X70582000Y-79893333D01*
X70615333Y-79826666D01*
X70615333Y-79760000D01*
X70582000Y-79693333D01*
X70548666Y-79660000D01*
X70482000Y-79626666D01*
X70315333Y-79626666D01*
X70215333Y-79660000D01*
X69982000Y-79626666D02*
X69815333Y-80326666D01*
X69682000Y-79826666D01*
X69548666Y-80326666D01*
X69382000Y-79626666D01*
X69148666Y-79693333D02*
X69115333Y-79660000D01*
X69048666Y-79626666D01*
X68882000Y-79626666D01*
X68815333Y-79660000D01*
X68782000Y-79693333D01*
X68748666Y-79760000D01*
X68748666Y-79826666D01*
X68782000Y-79926666D01*
X69182000Y-80326666D01*
X68748666Y-80326666D01*
G04 #@! TO.C,SW3*
X62115333Y-78896333D02*
X62015333Y-78929666D01*
X61848666Y-78929666D01*
X61782000Y-78896333D01*
X61748666Y-78863000D01*
X61715333Y-78796333D01*
X61715333Y-78729666D01*
X61748666Y-78663000D01*
X61782000Y-78629666D01*
X61848666Y-78596333D01*
X61982000Y-78563000D01*
X62048666Y-78529666D01*
X62082000Y-78496333D01*
X62115333Y-78429666D01*
X62115333Y-78363000D01*
X62082000Y-78296333D01*
X62048666Y-78263000D01*
X61982000Y-78229666D01*
X61815333Y-78229666D01*
X61715333Y-78263000D01*
X61482000Y-78229666D02*
X61315333Y-78929666D01*
X61182000Y-78429666D01*
X61048666Y-78929666D01*
X60882000Y-78229666D01*
X60682000Y-78229666D02*
X60248666Y-78229666D01*
X60482000Y-78496333D01*
X60382000Y-78496333D01*
X60315333Y-78529666D01*
X60282000Y-78563000D01*
X60248666Y-78629666D01*
X60248666Y-78796333D01*
X60282000Y-78863000D01*
X60315333Y-78896333D01*
X60382000Y-78929666D01*
X60582000Y-78929666D01*
X60648666Y-78896333D01*
X60682000Y-78863000D01*
G04 #@! TD*
M02*
