G04 #@! TF.GenerationSoftware,KiCad,Pcbnew,5.1.6*
G04 #@! TF.CreationDate,2020-09-12T16:37:34+02:00*
G04 #@! TF.ProjectId,xling,786c696e-672e-46b6-9963-61645f706362,4*
G04 #@! TF.SameCoordinates,Original*
G04 #@! TF.FileFunction,Profile,NP*
%FSLAX46Y46*%
G04 Gerber Fmt 4.6, Leading zero omitted, Abs format (unit mm)*
G04 Created by KiCad (PCBNEW 5.1.6) date 2020-09-12 16:37:34*
%MOMM*%
%LPD*%
G01*
G04 APERTURE LIST*
G04 #@! TA.AperFunction,Profile*
%ADD10C,0.200000*%
G04 #@! TD*
G04 APERTURE END LIST*
D10*
X77182000Y-42860000D02*
G75*
G02*
X77182000Y-44860000I0J-1000000D01*
G01*
X62182000Y-44860000D02*
G75*
G02*
X62182000Y-42860000I0J1000000D01*
G01*
X87182000Y-78520245D02*
X87182000Y-83360000D01*
X86182000Y-78520245D02*
G75*
G02*
X86200000Y-77200000I0J660245D01*
G01*
X87182000Y-78520245D02*
X86182000Y-78520245D01*
X87182000Y-77200000D02*
X86200000Y-77200000D01*
X77182000Y-42860000D02*
X69682000Y-42860000D01*
X77182000Y-44860000D02*
X69682000Y-44860000D01*
X62182000Y-42860000D02*
X69682000Y-42860000D01*
X69682000Y-44860000D02*
X62182000Y-44860000D01*
X85175092Y-45602228D02*
G75*
G02*
X80182000Y-43360000I-1993092J2242228D01*
G01*
X87182000Y-45610000D02*
X85175092Y-45602228D01*
X54182001Y-45609999D02*
X52182000Y-45610000D01*
X59192397Y-43360000D02*
G75*
G02*
X54182001Y-45609999I-3010397J0D01*
G01*
X77302000Y-39360000D02*
X80182000Y-39360000D01*
X80182000Y-43360000D02*
X80182000Y-39360000D01*
X59192397Y-43360000D02*
X59182000Y-39360000D01*
X87182000Y-83360000D02*
G75*
G02*
X84182000Y-86360000I-3000000J0D01*
G01*
X55182000Y-86360000D02*
G75*
G02*
X52182000Y-83360000I0J3000000D01*
G01*
X59182000Y-39360000D02*
X62062000Y-39360000D01*
X76032000Y-40122000D02*
X63332000Y-40122000D01*
X77302000Y-39360000D02*
X76032000Y-40122000D01*
X62062000Y-39360000D02*
X63332000Y-40122000D01*
X87182000Y-45610000D02*
X87182000Y-77200000D01*
X52182000Y-83360000D02*
X52182000Y-45610000D01*
X84182000Y-86360000D02*
X55182000Y-86360000D01*
M02*
