G04 #@! TF.GenerationSoftware,KiCad,Pcbnew,5.1.6*
G04 #@! TF.CreationDate,2020-09-13T12:05:48+02:00*
G04 #@! TF.ProjectId,xling,786c696e-672e-46b6-9963-61645f706362,4*
G04 #@! TF.SameCoordinates,Original*
G04 #@! TF.FileFunction,Legend,Top*
G04 #@! TF.FilePolarity,Positive*
%FSLAX46Y46*%
G04 Gerber Fmt 4.6, Leading zero omitted, Abs format (unit mm)*
G04 Created by KiCad (PCBNEW 5.1.6) date 2020-09-13 12:05:48*
%MOMM*%
%LPD*%
G01*
G04 APERTURE LIST*
%ADD10C,0.150000*%
%ADD11C,0.175000*%
%ADD12C,0.120000*%
%ADD13C,0.125000*%
G04 APERTURE END LIST*
D10*
X55065000Y-51816800D02*
X55165000Y-51850133D01*
X55198333Y-51883466D01*
X55231666Y-51950133D01*
X55231666Y-52050133D01*
X55198333Y-52116800D01*
X55165000Y-52150133D01*
X55098333Y-52183466D01*
X54831666Y-52183466D01*
X54831666Y-51483466D01*
X55065000Y-51483466D01*
X55131666Y-51516800D01*
X55165000Y-51550133D01*
X55198333Y-51616800D01*
X55198333Y-51683466D01*
X55165000Y-51750133D01*
X55131666Y-51783466D01*
X55065000Y-51816800D01*
X54831666Y-51816800D01*
X55831666Y-52183466D02*
X55831666Y-51816800D01*
X55798333Y-51750133D01*
X55731666Y-51716800D01*
X55598333Y-51716800D01*
X55531666Y-51750133D01*
X55831666Y-52150133D02*
X55765000Y-52183466D01*
X55598333Y-52183466D01*
X55531666Y-52150133D01*
X55498333Y-52083466D01*
X55498333Y-52016800D01*
X55531666Y-51950133D01*
X55598333Y-51916800D01*
X55765000Y-51916800D01*
X55831666Y-51883466D01*
X56065000Y-51716800D02*
X56331666Y-51716800D01*
X56165000Y-51483466D02*
X56165000Y-52083466D01*
X56198333Y-52150133D01*
X56265000Y-52183466D01*
X56331666Y-52183466D01*
X56465000Y-51716800D02*
X56731666Y-51716800D01*
X56565000Y-51483466D02*
X56565000Y-52083466D01*
X56598333Y-52150133D01*
X56665000Y-52183466D01*
X56731666Y-52183466D01*
X57231666Y-52150133D02*
X57165000Y-52183466D01*
X57031666Y-52183466D01*
X56965000Y-52150133D01*
X56931666Y-52083466D01*
X56931666Y-51816800D01*
X56965000Y-51750133D01*
X57031666Y-51716800D01*
X57165000Y-51716800D01*
X57231666Y-51750133D01*
X57265000Y-51816800D01*
X57265000Y-51883466D01*
X56931666Y-51950133D01*
X57565000Y-52183466D02*
X57565000Y-51716800D01*
X57565000Y-51850133D02*
X57598333Y-51783466D01*
X57631666Y-51750133D01*
X57698333Y-51716800D01*
X57765000Y-51716800D01*
X57931666Y-51716800D02*
X58098333Y-52183466D01*
X58265000Y-51716800D02*
X58098333Y-52183466D01*
X58031666Y-52350133D01*
X57998333Y-52383466D01*
X57931666Y-52416800D01*
X75866809Y-85491580D02*
X75866809Y-84491580D01*
X76914428Y-85396342D02*
X76866809Y-85443961D01*
X76723952Y-85491580D01*
X76628714Y-85491580D01*
X76485857Y-85443961D01*
X76390619Y-85348723D01*
X76343000Y-85253485D01*
X76295380Y-85063009D01*
X76295380Y-84920152D01*
X76343000Y-84729676D01*
X76390619Y-84634438D01*
X76485857Y-84539200D01*
X76628714Y-84491580D01*
X76723952Y-84491580D01*
X76866809Y-84539200D01*
X76914428Y-84586819D01*
X77295380Y-85443961D02*
X77438238Y-85491580D01*
X77676333Y-85491580D01*
X77771571Y-85443961D01*
X77819190Y-85396342D01*
X77866809Y-85301104D01*
X77866809Y-85205866D01*
X77819190Y-85110628D01*
X77771571Y-85063009D01*
X77676333Y-85015390D01*
X77485857Y-84967771D01*
X77390619Y-84920152D01*
X77343000Y-84872533D01*
X77295380Y-84777295D01*
X77295380Y-84682057D01*
X77343000Y-84586819D01*
X77390619Y-84539200D01*
X77485857Y-84491580D01*
X77723952Y-84491580D01*
X77866809Y-84539200D01*
X78295380Y-85491580D02*
X78295380Y-84491580D01*
X78676333Y-84491580D01*
X78771571Y-84539200D01*
X78819190Y-84586819D01*
X78866809Y-84682057D01*
X78866809Y-84824914D01*
X78819190Y-84920152D01*
X78771571Y-84967771D01*
X78676333Y-85015390D01*
X78295380Y-85015390D01*
D11*
X81348666Y-77979583D02*
X81015333Y-78212916D01*
X81348666Y-78379583D02*
X80648666Y-78379583D01*
X80648666Y-78112916D01*
X80682000Y-78046250D01*
X80715333Y-78012916D01*
X80782000Y-77979583D01*
X80882000Y-77979583D01*
X80948666Y-78012916D01*
X80982000Y-78046250D01*
X81015333Y-78112916D01*
X81015333Y-78379583D01*
X81315333Y-77712916D02*
X81348666Y-77612916D01*
X81348666Y-77446250D01*
X81315333Y-77379583D01*
X81282000Y-77346250D01*
X81215333Y-77312916D01*
X81148666Y-77312916D01*
X81082000Y-77346250D01*
X81048666Y-77379583D01*
X81015333Y-77446250D01*
X80982000Y-77579583D01*
X80948666Y-77646250D01*
X80915333Y-77679583D01*
X80848666Y-77712916D01*
X80782000Y-77712916D01*
X80715333Y-77679583D01*
X80682000Y-77646250D01*
X80648666Y-77579583D01*
X80648666Y-77412916D01*
X80682000Y-77312916D01*
X80648666Y-77112916D02*
X80648666Y-76712916D01*
X81348666Y-76912916D02*
X80648666Y-76912916D01*
X79182000Y-78012916D02*
X79148666Y-78079583D01*
X79148666Y-78179583D01*
X79182000Y-78279583D01*
X79248666Y-78346250D01*
X79315333Y-78379583D01*
X79448666Y-78412916D01*
X79548666Y-78412916D01*
X79682000Y-78379583D01*
X79748666Y-78346250D01*
X79815333Y-78279583D01*
X79848666Y-78179583D01*
X79848666Y-78112916D01*
X79815333Y-78012916D01*
X79782000Y-77979583D01*
X79548666Y-77979583D01*
X79548666Y-78112916D01*
X79848666Y-77679583D02*
X79148666Y-77679583D01*
X79848666Y-77279583D01*
X79148666Y-77279583D01*
X79848666Y-76946250D02*
X79148666Y-76946250D01*
X79148666Y-76779583D01*
X79182000Y-76679583D01*
X79248666Y-76612916D01*
X79315333Y-76579583D01*
X79448666Y-76546250D01*
X79548666Y-76546250D01*
X79682000Y-76579583D01*
X79748666Y-76612916D01*
X79815333Y-76679583D01*
X79848666Y-76779583D01*
X79848666Y-76946250D01*
X78315333Y-78412916D02*
X78348666Y-78312916D01*
X78348666Y-78146250D01*
X78315333Y-78079583D01*
X78282000Y-78046250D01*
X78215333Y-78012916D01*
X78148666Y-78012916D01*
X78082000Y-78046250D01*
X78048666Y-78079583D01*
X78015333Y-78146250D01*
X77982000Y-78279583D01*
X77948666Y-78346250D01*
X77915333Y-78379583D01*
X77848666Y-78412916D01*
X77782000Y-78412916D01*
X77715333Y-78379583D01*
X77682000Y-78346250D01*
X77648666Y-78279583D01*
X77648666Y-78112916D01*
X77682000Y-78012916D01*
X78282000Y-77312916D02*
X78315333Y-77346250D01*
X78348666Y-77446250D01*
X78348666Y-77512916D01*
X78315333Y-77612916D01*
X78248666Y-77679583D01*
X78182000Y-77712916D01*
X78048666Y-77746250D01*
X77948666Y-77746250D01*
X77815333Y-77712916D01*
X77748666Y-77679583D01*
X77682000Y-77612916D01*
X77648666Y-77512916D01*
X77648666Y-77446250D01*
X77682000Y-77346250D01*
X77715333Y-77312916D01*
X78348666Y-77012916D02*
X77648666Y-77012916D01*
X78348666Y-76612916D02*
X77948666Y-76912916D01*
X77648666Y-76612916D02*
X78048666Y-77012916D01*
X76898666Y-78429583D02*
X76198666Y-78429583D01*
X76698666Y-78196250D01*
X76198666Y-77962916D01*
X76898666Y-77962916D01*
X76898666Y-77629583D02*
X76198666Y-77629583D01*
X76865333Y-77329583D02*
X76898666Y-77229583D01*
X76898666Y-77062916D01*
X76865333Y-76996250D01*
X76832000Y-76962916D01*
X76765333Y-76929583D01*
X76698666Y-76929583D01*
X76632000Y-76962916D01*
X76598666Y-76996250D01*
X76565333Y-77062916D01*
X76532000Y-77196250D01*
X76498666Y-77262916D01*
X76465333Y-77296250D01*
X76398666Y-77329583D01*
X76332000Y-77329583D01*
X76265333Y-77296250D01*
X76232000Y-77262916D01*
X76198666Y-77196250D01*
X76198666Y-77029583D01*
X76232000Y-76929583D01*
X76198666Y-76496250D02*
X76198666Y-76362916D01*
X76232000Y-76296250D01*
X76298666Y-76229583D01*
X76432000Y-76196250D01*
X76665333Y-76196250D01*
X76798666Y-76229583D01*
X76865333Y-76296250D01*
X76898666Y-76362916D01*
X76898666Y-76496250D01*
X76865333Y-76562916D01*
X76798666Y-76629583D01*
X76665333Y-76662916D01*
X76432000Y-76662916D01*
X76298666Y-76629583D01*
X76232000Y-76562916D01*
X76198666Y-76496250D01*
X75398666Y-78379583D02*
X74698666Y-78379583D01*
X75198666Y-78146250D01*
X74698666Y-77912916D01*
X75398666Y-77912916D01*
X74698666Y-77446250D02*
X74698666Y-77312916D01*
X74732000Y-77246250D01*
X74798666Y-77179583D01*
X74932000Y-77146250D01*
X75165333Y-77146250D01*
X75298666Y-77179583D01*
X75365333Y-77246250D01*
X75398666Y-77312916D01*
X75398666Y-77446250D01*
X75365333Y-77512916D01*
X75298666Y-77579583D01*
X75165333Y-77612916D01*
X74932000Y-77612916D01*
X74798666Y-77579583D01*
X74732000Y-77512916D01*
X74698666Y-77446250D01*
X75365333Y-76879583D02*
X75398666Y-76779583D01*
X75398666Y-76612916D01*
X75365333Y-76546250D01*
X75332000Y-76512916D01*
X75265333Y-76479583D01*
X75198666Y-76479583D01*
X75132000Y-76512916D01*
X75098666Y-76546250D01*
X75065333Y-76612916D01*
X75032000Y-76746250D01*
X74998666Y-76812916D01*
X74965333Y-76846250D01*
X74898666Y-76879583D01*
X74832000Y-76879583D01*
X74765333Y-76846250D01*
X74732000Y-76812916D01*
X74698666Y-76746250D01*
X74698666Y-76579583D01*
X74732000Y-76479583D01*
X75398666Y-76179583D02*
X74698666Y-76179583D01*
X73148666Y-78479583D02*
X73848666Y-78246250D01*
X73148666Y-78012916D01*
X73782000Y-77379583D02*
X73815333Y-77412916D01*
X73848666Y-77512916D01*
X73848666Y-77579583D01*
X73815333Y-77679583D01*
X73748666Y-77746250D01*
X73682000Y-77779583D01*
X73548666Y-77812916D01*
X73448666Y-77812916D01*
X73315333Y-77779583D01*
X73248666Y-77746250D01*
X73182000Y-77679583D01*
X73148666Y-77579583D01*
X73148666Y-77512916D01*
X73182000Y-77412916D01*
X73215333Y-77379583D01*
X73782000Y-76679583D02*
X73815333Y-76712916D01*
X73848666Y-76812916D01*
X73848666Y-76879583D01*
X73815333Y-76979583D01*
X73748666Y-77046250D01*
X73682000Y-77079583D01*
X73548666Y-77112916D01*
X73448666Y-77112916D01*
X73315333Y-77079583D01*
X73248666Y-77046250D01*
X73182000Y-76979583D01*
X73148666Y-76879583D01*
X73148666Y-76812916D01*
X73182000Y-76712916D01*
X73215333Y-76679583D01*
D12*
X54358000Y-71462900D02*
X54358000Y-72392900D01*
X54356000Y-74891900D02*
X54356000Y-73961900D01*
X54356000Y-74891900D02*
X56516000Y-74891900D01*
X54358000Y-71462900D02*
X55818000Y-71462900D01*
D10*
X64160400Y-71183500D02*
X63068200Y-71183500D01*
X64160400Y-71183500D02*
X64160400Y-74764900D01*
X60807600Y-74764900D02*
X60807600Y-72464900D01*
X55600600Y-61976000D02*
X55600600Y-63195200D01*
X58659400Y-61976000D02*
X55600600Y-61976000D01*
X58661300Y-65506600D02*
X56661300Y-65506600D01*
X73024516Y-73264439D02*
X72732481Y-73556474D01*
X73738269Y-73259772D02*
X73379059Y-73618983D01*
X65198399Y-66138783D02*
X65675697Y-65661486D01*
X73468862Y-57976084D02*
X72991565Y-58453381D01*
X81514818Y-66004079D02*
X81037521Y-66481376D01*
X73379059Y-73618983D02*
X73024516Y-73264439D01*
X81514818Y-66004079D02*
X81037521Y-65526782D01*
X73468862Y-57976084D02*
X73946159Y-58453381D01*
X65198399Y-66138783D02*
X65675697Y-66616080D01*
X73738269Y-73259772D02*
X74497278Y-74018781D01*
D12*
X59588400Y-70942200D02*
X57505600Y-70942200D01*
X57505600Y-70662800D02*
X59588400Y-70662800D01*
X59588400Y-75904900D02*
X57505600Y-75904900D01*
X59588400Y-70662800D02*
X59588400Y-75904900D01*
X57505600Y-70662800D02*
X57505600Y-75904900D01*
X60883800Y-76377800D02*
X60883800Y-78054200D01*
X60883800Y-76377800D02*
X64084200Y-76377800D01*
X60883800Y-78054200D02*
X64084200Y-78054200D01*
X64084200Y-78054200D02*
X64084200Y-76377800D01*
X59766200Y-81788000D02*
X59766200Y-78257400D01*
X59766200Y-81788000D02*
X54787800Y-81788000D01*
X59766200Y-78257400D02*
X54787800Y-78257400D01*
X54787800Y-78257400D02*
X54787800Y-81788000D01*
X54787800Y-82042000D02*
X54787800Y-85572600D01*
X54787800Y-82042000D02*
X59766200Y-82042000D01*
X54787800Y-85572600D02*
X59766200Y-85572600D01*
X59766200Y-85572600D02*
X59766200Y-82042000D01*
X66979800Y-56337200D02*
X68656200Y-56337200D01*
X66979800Y-56337200D02*
X66979800Y-53136800D01*
X68656200Y-56337200D02*
X68656200Y-53136800D01*
X68656200Y-53136800D02*
X66979800Y-53136800D01*
X65201800Y-56337200D02*
X66878200Y-56337200D01*
X65201800Y-56337200D02*
X65201800Y-53136800D01*
X66878200Y-56337200D02*
X66878200Y-53136800D01*
X66878200Y-53136800D02*
X65201800Y-53136800D01*
X80845209Y-72105185D02*
X79659815Y-70919791D01*
X80845209Y-72105185D02*
X78582185Y-74368209D01*
X79659815Y-70919791D02*
X77396791Y-73182815D01*
X77396791Y-73182815D02*
X78582185Y-74368209D01*
X75869800Y-56337200D02*
X77546200Y-56337200D01*
X75869800Y-56337200D02*
X75869800Y-53136800D01*
X77546200Y-56337200D02*
X77546200Y-53136800D01*
X77546200Y-53136800D02*
X75869800Y-53136800D01*
X84401209Y-71089185D02*
X83215815Y-69903791D01*
X84401209Y-71089185D02*
X82138185Y-73352209D01*
X83215815Y-69903791D02*
X80952791Y-72166815D01*
X80952791Y-72166815D02*
X82138185Y-73352209D01*
X82115209Y-73375185D02*
X80929815Y-72189791D01*
X82115209Y-73375185D02*
X79852185Y-75638209D01*
X80929815Y-72189791D02*
X78666791Y-74452815D01*
X78666791Y-74452815D02*
X79852185Y-75638209D01*
X70129400Y-75666600D02*
X70129400Y-73990200D01*
X70129400Y-75666600D02*
X66929000Y-75666600D01*
X70129400Y-73990200D02*
X66929000Y-73990200D01*
X66929000Y-73990200D02*
X66929000Y-75666600D01*
X83027185Y-60886791D02*
X81841791Y-62072185D01*
X83027185Y-60886791D02*
X85290209Y-63149815D01*
X81841791Y-62072185D02*
X84104815Y-64335209D01*
X84104815Y-64335209D02*
X85290209Y-63149815D01*
X85671209Y-72359185D02*
X84485815Y-71173791D01*
X85671209Y-72359185D02*
X83408185Y-74622209D01*
X84485815Y-71173791D02*
X82222791Y-73436815D01*
X82222791Y-73436815D02*
X83408185Y-74622209D01*
X71704200Y-77393800D02*
X71704200Y-75717400D01*
X71704200Y-77393800D02*
X68503800Y-77393800D01*
X71704200Y-75717400D02*
X68503800Y-75717400D01*
X68503800Y-75717400D02*
X68503800Y-77393800D01*
X56057800Y-66344800D02*
X56057800Y-68021200D01*
X56057800Y-66344800D02*
X59258200Y-66344800D01*
X56057800Y-68021200D02*
X59258200Y-68021200D01*
X59258200Y-68021200D02*
X59258200Y-66344800D01*
X59486800Y-57962800D02*
X59486800Y-59639200D01*
X59486800Y-57962800D02*
X62687200Y-57962800D01*
X59486800Y-59639200D02*
X62687200Y-59639200D01*
X62687200Y-59639200D02*
X62687200Y-57962800D01*
X63068200Y-65608200D02*
X63068200Y-63931800D01*
X63068200Y-65608200D02*
X59867800Y-65608200D01*
X63068200Y-63931800D02*
X59867800Y-63931800D01*
X59867800Y-63931800D02*
X59867800Y-65608200D01*
X64592200Y-69672200D02*
X64592200Y-67995800D01*
X64592200Y-69672200D02*
X61391800Y-69672200D01*
X64592200Y-67995800D02*
X61391800Y-67995800D01*
X61391800Y-67995800D02*
X61391800Y-69672200D01*
X66078100Y-74193400D02*
X64401700Y-74193400D01*
X66078100Y-74193400D02*
X66078100Y-77393800D01*
X64401700Y-74193400D02*
X64401700Y-77393800D01*
X64401700Y-77393800D02*
X66078100Y-77393800D01*
X64592200Y-67894200D02*
X64592200Y-66217800D01*
X64592200Y-67894200D02*
X61391800Y-67894200D01*
X64592200Y-66217800D02*
X61391800Y-66217800D01*
X61391800Y-66217800D02*
X61391800Y-67894200D01*
X55676800Y-59867800D02*
X55676800Y-61544200D01*
X55676800Y-59867800D02*
X58877200Y-59867800D01*
X55676800Y-61544200D02*
X58877200Y-61544200D01*
X58877200Y-61544200D02*
X58877200Y-59867800D01*
X70535800Y-56337200D02*
X72212200Y-56337200D01*
X70535800Y-56337200D02*
X70535800Y-53136800D01*
X72212200Y-56337200D02*
X72212200Y-53136800D01*
X72212200Y-53136800D02*
X70535800Y-53136800D01*
X74091800Y-56337200D02*
X75768200Y-56337200D01*
X74091800Y-56337200D02*
X74091800Y-53136800D01*
X75768200Y-56337200D02*
X75768200Y-53136800D01*
X75768200Y-53136800D02*
X74091800Y-53136800D01*
X63423800Y-56337200D02*
X65100200Y-56337200D01*
X63423800Y-56337200D02*
X63423800Y-53136800D01*
X65100200Y-56337200D02*
X65100200Y-53136800D01*
X65100200Y-53136800D02*
X63423800Y-53136800D01*
X72313800Y-56337200D02*
X73990200Y-56337200D01*
X72313800Y-56337200D02*
X72313800Y-53136800D01*
X73990200Y-56337200D02*
X73990200Y-53136800D01*
X73990200Y-53136800D02*
X72313800Y-53136800D01*
X68757800Y-56337200D02*
X70434200Y-56337200D01*
X68757800Y-56337200D02*
X68757800Y-53136800D01*
X70434200Y-56337200D02*
X70434200Y-53136800D01*
X70434200Y-53136800D02*
X68757800Y-53136800D01*
X67365249Y-59677145D02*
X66179855Y-58491751D01*
X67365249Y-59677145D02*
X65138145Y-61904249D01*
X66179855Y-58491751D02*
X63952751Y-60718855D01*
X63952751Y-60718855D02*
X65138145Y-61904249D01*
X83134200Y-47701200D02*
X81457800Y-47701200D01*
X83134200Y-47701200D02*
X83134200Y-50850800D01*
X81457800Y-47701200D02*
X81457800Y-50850800D01*
X81457800Y-50850800D02*
X83134200Y-50850800D01*
X67551145Y-70366251D02*
X66365751Y-71551645D01*
X67551145Y-70366251D02*
X69778249Y-72593355D01*
X66365751Y-71551645D02*
X68592855Y-73778749D01*
X68592855Y-73778749D02*
X69778249Y-72593355D01*
X85077300Y-60655200D02*
X85077300Y-58978800D01*
X85077300Y-60655200D02*
X81927700Y-60655200D01*
X85077300Y-58978800D02*
X81927700Y-58978800D01*
X81927700Y-58978800D02*
X81927700Y-60655200D01*
X81991200Y-52628800D02*
X81991200Y-54305200D01*
X81991200Y-52628800D02*
X85140800Y-52628800D01*
X81991200Y-54305200D02*
X85140800Y-54305200D01*
X85140800Y-54305200D02*
X85140800Y-52628800D01*
X68635249Y-60947145D02*
X67449855Y-59761751D01*
X68635249Y-60947145D02*
X66408145Y-63174249D01*
X67449855Y-59761751D02*
X65222751Y-61988855D01*
X65222751Y-61988855D02*
X66408145Y-63174249D01*
X56121300Y-50914300D02*
X57797700Y-50914300D01*
X56121300Y-50914300D02*
X56121300Y-47764700D01*
X57797700Y-50914300D02*
X57797700Y-47764700D01*
X57797700Y-47764700D02*
X56121300Y-47764700D01*
X53771800Y-50914300D02*
X55448200Y-50914300D01*
X53771800Y-50914300D02*
X53771800Y-47764700D01*
X55448200Y-50914300D02*
X55448200Y-47764700D01*
X55448200Y-47764700D02*
X53771800Y-47764700D01*
X79425645Y-59825251D02*
X78240251Y-61010645D01*
X79425645Y-59825251D02*
X81652749Y-62052355D01*
X78240251Y-61010645D02*
X80467355Y-63237749D01*
X80467355Y-63237749D02*
X81652749Y-62052355D01*
X85039200Y-47701200D02*
X83362800Y-47701200D01*
X85039200Y-47701200D02*
X85039200Y-50850800D01*
X83362800Y-47701200D02*
X83362800Y-50850800D01*
X83362800Y-50850800D02*
X85039200Y-50850800D01*
X82219800Y-78282800D02*
X83896200Y-78282800D01*
X82219800Y-78282800D02*
X82219800Y-75133200D01*
X83896200Y-78282800D02*
X83896200Y-75133200D01*
X83896200Y-75133200D02*
X82219800Y-75133200D01*
X81775145Y-62174751D02*
X80589751Y-63360145D01*
X81775145Y-62174751D02*
X84002249Y-64401855D01*
X80589751Y-63360145D02*
X82816855Y-65587249D01*
X82816855Y-65587249D02*
X84002249Y-64401855D01*
X84251800Y-69900800D02*
X85928200Y-69900800D01*
X84251800Y-69900800D02*
X84251800Y-66751200D01*
X85928200Y-69900800D02*
X85928200Y-66751200D01*
X85928200Y-66751200D02*
X84251800Y-66751200D01*
X71678800Y-79171800D02*
X71678800Y-77495400D01*
X71678800Y-79171800D02*
X68529200Y-79171800D01*
X71678800Y-77495400D02*
X68529200Y-77495400D01*
X68529200Y-77495400D02*
X68529200Y-79171800D01*
X62661800Y-61544200D02*
X62661800Y-59867800D01*
X62661800Y-61544200D02*
X59512200Y-61544200D01*
X62661800Y-59867800D02*
X59512200Y-59867800D01*
X59512200Y-59867800D02*
X59512200Y-61544200D01*
X55702200Y-57785000D02*
X55702200Y-59461400D01*
X55702200Y-57785000D02*
X58851800Y-57785000D01*
X55702200Y-59461400D02*
X58851800Y-59461400D01*
X58851800Y-59461400D02*
X58851800Y-57785000D01*
X59486800Y-78054200D02*
X59486800Y-76377800D01*
X59486800Y-78054200D02*
X56337200Y-78054200D01*
X59486800Y-76377800D02*
X56337200Y-76377800D01*
X56337200Y-76377800D02*
X56337200Y-78054200D01*
X59232800Y-69799200D02*
X59232800Y-68122800D01*
X59232800Y-69799200D02*
X56083200Y-69799200D01*
X59232800Y-68122800D02*
X56083200Y-68122800D01*
X56083200Y-68122800D02*
X56083200Y-69799200D01*
X64058800Y-79832200D02*
X64058800Y-78155800D01*
X64058800Y-79832200D02*
X60909200Y-79832200D01*
X64058800Y-78155800D02*
X60909200Y-78155800D01*
X60909200Y-78155800D02*
X60909200Y-79832200D01*
X63741145Y-60904751D02*
X62555751Y-62090145D01*
X63741145Y-60904751D02*
X65968249Y-63131855D01*
X62555751Y-62090145D02*
X64782855Y-64317249D01*
X64782855Y-64317249D02*
X65968249Y-63131855D01*
X79700751Y-70878855D02*
X80886145Y-72064249D01*
X79700751Y-70878855D02*
X81927855Y-68651751D01*
X80886145Y-72064249D02*
X83113249Y-69837145D01*
X83113249Y-69837145D02*
X81927855Y-68651751D01*
X62890400Y-56769000D02*
X62890400Y-55092600D01*
X62890400Y-56769000D02*
X59740800Y-56769000D01*
X62890400Y-55092600D02*
X59740800Y-55092600D01*
X59740800Y-55092600D02*
X59740800Y-56769000D01*
D10*
X58389000Y-47659000D02*
X80995000Y-47659000D01*
X58389000Y-50961000D02*
X80995000Y-50961000D01*
X58389000Y-50961000D02*
X58389000Y-47659000D01*
X58770000Y-50961000D02*
X58770000Y-47659000D01*
X80995000Y-50961000D02*
X80995000Y-47659000D01*
D12*
X85442000Y-55542000D02*
X85442000Y-54542000D01*
X85442000Y-54542000D02*
X84392000Y-54542000D01*
X83042000Y-58542000D02*
X81242000Y-58542000D01*
X83042000Y-54942000D02*
X81242000Y-54942000D01*
X83767000Y-83695000D02*
X83767000Y-79565000D01*
X83767000Y-79565000D02*
X81592000Y-79565000D01*
X81592000Y-79565000D02*
X81592000Y-79165000D01*
X70797000Y-83695000D02*
X70797000Y-79565000D01*
X70797000Y-79565000D02*
X72972000Y-79565000D01*
X82752000Y-85885000D02*
X81597000Y-85885000D01*
X81597000Y-85885000D02*
X81597000Y-83885000D01*
X81597000Y-83885000D02*
X72967000Y-83885000D01*
X72967000Y-83885000D02*
X72967000Y-85885000D01*
X72967000Y-85885000D02*
X71812000Y-85885000D01*
X60882000Y-81347500D02*
X61332000Y-81347500D01*
X60882000Y-83197500D02*
X60882000Y-81347500D01*
X68682000Y-85747500D02*
X68682000Y-85497500D01*
X60882000Y-85747500D02*
X60882000Y-85497500D01*
X68682000Y-83197500D02*
X68682000Y-81347500D01*
X68682000Y-81347500D02*
X68232000Y-81347500D01*
X63082000Y-80797500D02*
X63532000Y-80797500D01*
X63082000Y-80797500D02*
X63082000Y-81247500D01*
X59915553Y-54641000D02*
X59915553Y-54141000D01*
X59562000Y-54391000D02*
X59915553Y-54641000D01*
X59915553Y-54141000D02*
X59562000Y-54391000D01*
X53927000Y-56031000D02*
X53927000Y-56281000D01*
X54727000Y-56031000D02*
X53927000Y-56031000D01*
X54727000Y-53951000D02*
X54727000Y-56031000D01*
X53927000Y-53951000D02*
X54727000Y-53951000D01*
X53927000Y-53701000D02*
X53927000Y-53951000D01*
X58867000Y-57351000D02*
X58867000Y-56201000D01*
X55277000Y-57351000D02*
X58867000Y-57351000D01*
X58867000Y-53781000D02*
X59067000Y-53781000D01*
X58867000Y-52631000D02*
X58867000Y-53781000D01*
X55277000Y-52631000D02*
X58867000Y-52631000D01*
D10*
X54492533Y-71185833D02*
X54425866Y-71152500D01*
X54359200Y-71085833D01*
X54259200Y-70985833D01*
X54192533Y-70952500D01*
X54125866Y-70952500D01*
X54159200Y-71119166D02*
X54092533Y-71085833D01*
X54025866Y-71019166D01*
X53992533Y-70885833D01*
X53992533Y-70652500D01*
X54025866Y-70519166D01*
X54092533Y-70452500D01*
X54159200Y-70419166D01*
X54292533Y-70419166D01*
X54359200Y-70452500D01*
X54425866Y-70519166D01*
X54459200Y-70652500D01*
X54459200Y-70885833D01*
X54425866Y-71019166D01*
X54359200Y-71085833D01*
X54292533Y-71119166D01*
X54159200Y-71119166D01*
X55125866Y-71119166D02*
X54725866Y-71119166D01*
X54925866Y-71119166D02*
X54925866Y-70419166D01*
X54859200Y-70519166D01*
X54792533Y-70585833D01*
X54725866Y-70619166D01*
X61950666Y-73276666D02*
X61950666Y-73843333D01*
X61984000Y-73910000D01*
X62017333Y-73943333D01*
X62084000Y-73976666D01*
X62217333Y-73976666D01*
X62284000Y-73943333D01*
X62317333Y-73910000D01*
X62350666Y-73843333D01*
X62350666Y-73276666D01*
X62617333Y-73276666D02*
X63050666Y-73276666D01*
X62817333Y-73543333D01*
X62917333Y-73543333D01*
X62984000Y-73576666D01*
X63017333Y-73610000D01*
X63050666Y-73676666D01*
X63050666Y-73843333D01*
X63017333Y-73910000D01*
X62984000Y-73943333D01*
X62917333Y-73976666D01*
X62717333Y-73976666D01*
X62650666Y-73943333D01*
X62617333Y-73910000D01*
X54330666Y-63370666D02*
X54330666Y-63937333D01*
X54364000Y-64004000D01*
X54397333Y-64037333D01*
X54464000Y-64070666D01*
X54597333Y-64070666D01*
X54664000Y-64037333D01*
X54697333Y-64004000D01*
X54730666Y-63937333D01*
X54730666Y-63370666D01*
X55364000Y-63604000D02*
X55364000Y-64070666D01*
X55197333Y-63337333D02*
X55030666Y-63837333D01*
X55464000Y-63837333D01*
X72644095Y-65492380D02*
X72644095Y-66301904D01*
X72691714Y-66397142D01*
X72739333Y-66444761D01*
X72834571Y-66492380D01*
X73025047Y-66492380D01*
X73120285Y-66444761D01*
X73167904Y-66397142D01*
X73215523Y-66301904D01*
X73215523Y-65492380D01*
X73644095Y-65587619D02*
X73691714Y-65540000D01*
X73786952Y-65492380D01*
X74025047Y-65492380D01*
X74120285Y-65540000D01*
X74167904Y-65587619D01*
X74215523Y-65682857D01*
X74215523Y-65778095D01*
X74167904Y-65920952D01*
X73596476Y-66492380D01*
X74215523Y-66492380D01*
X58055733Y-73621066D02*
X58055733Y-72921066D01*
X58222400Y-72921066D01*
X58322400Y-72954400D01*
X58389066Y-73021066D01*
X58422400Y-73087733D01*
X58455733Y-73221066D01*
X58455733Y-73321066D01*
X58422400Y-73454400D01*
X58389066Y-73521066D01*
X58322400Y-73587733D01*
X58222400Y-73621066D01*
X58055733Y-73621066D01*
X59122400Y-73621066D02*
X58722400Y-73621066D01*
X58922400Y-73621066D02*
X58922400Y-72921066D01*
X58855733Y-73021066D01*
X58789066Y-73087733D01*
X58722400Y-73121066D01*
D13*
X60692466Y-77462800D02*
X60359133Y-77696133D01*
X60692466Y-77862800D02*
X59992466Y-77862800D01*
X59992466Y-77596133D01*
X60025800Y-77529466D01*
X60059133Y-77496133D01*
X60125800Y-77462800D01*
X60225800Y-77462800D01*
X60292466Y-77496133D01*
X60325800Y-77529466D01*
X60359133Y-77596133D01*
X60359133Y-77862800D01*
X60692466Y-76796133D02*
X60692466Y-77196133D01*
X60692466Y-76996133D02*
X59992466Y-76996133D01*
X60092466Y-77062800D01*
X60159133Y-77129466D01*
X60192466Y-77196133D01*
X59992466Y-76162800D02*
X59992466Y-76496133D01*
X60325800Y-76529466D01*
X60292466Y-76496133D01*
X60259133Y-76429466D01*
X60259133Y-76262800D01*
X60292466Y-76196133D01*
X60325800Y-76162800D01*
X60392466Y-76129466D01*
X60559133Y-76129466D01*
X60625800Y-76162800D01*
X60659133Y-76196133D01*
X60692466Y-76262800D01*
X60692466Y-76429466D01*
X60659133Y-76496133D01*
X60625800Y-76529466D01*
D10*
X57593666Y-80126666D02*
X57593666Y-80460000D01*
X56893666Y-80460000D01*
X57593666Y-79526666D02*
X57593666Y-79926666D01*
X57593666Y-79726666D02*
X56893666Y-79726666D01*
X56993666Y-79793333D01*
X57060333Y-79860000D01*
X57093666Y-79926666D01*
X57593666Y-83936666D02*
X57593666Y-84270000D01*
X56893666Y-84270000D01*
X56960333Y-83736666D02*
X56927000Y-83703333D01*
X56893666Y-83636666D01*
X56893666Y-83470000D01*
X56927000Y-83403333D01*
X56960333Y-83370000D01*
X57027000Y-83336666D01*
X57093666Y-83336666D01*
X57193666Y-83370000D01*
X57593666Y-83770000D01*
X57593666Y-83336666D01*
D13*
X68134666Y-52567666D02*
X67801333Y-52801000D01*
X68134666Y-52967666D02*
X67434666Y-52967666D01*
X67434666Y-52701000D01*
X67468000Y-52634333D01*
X67501333Y-52601000D01*
X67568000Y-52567666D01*
X67668000Y-52567666D01*
X67734666Y-52601000D01*
X67768000Y-52634333D01*
X67801333Y-52701000D01*
X67801333Y-52967666D01*
X68134666Y-51901000D02*
X68134666Y-52301000D01*
X68134666Y-52101000D02*
X67434666Y-52101000D01*
X67534666Y-52167666D01*
X67601333Y-52234333D01*
X67634666Y-52301000D01*
X66356666Y-52567666D02*
X66023333Y-52801000D01*
X66356666Y-52967666D02*
X65656666Y-52967666D01*
X65656666Y-52701000D01*
X65690000Y-52634333D01*
X65723333Y-52601000D01*
X65790000Y-52567666D01*
X65890000Y-52567666D01*
X65956666Y-52601000D01*
X65990000Y-52634333D01*
X66023333Y-52701000D01*
X66023333Y-52967666D01*
X65723333Y-52301000D02*
X65690000Y-52267666D01*
X65656666Y-52201000D01*
X65656666Y-52034333D01*
X65690000Y-51967666D01*
X65723333Y-51934333D01*
X65790000Y-51901000D01*
X65856666Y-51901000D01*
X65956666Y-51934333D01*
X66356666Y-52334333D01*
X66356666Y-51901000D01*
X78373422Y-71934412D02*
X77972728Y-71863702D01*
X78090579Y-72217255D02*
X77595604Y-71722280D01*
X77784166Y-71533719D01*
X77854877Y-71510148D01*
X77902017Y-71510148D01*
X77972728Y-71533719D01*
X78043439Y-71604429D01*
X78067009Y-71675140D01*
X78067009Y-71722280D01*
X78043439Y-71792991D01*
X77854877Y-71981553D01*
X78043439Y-71274446D02*
X78349852Y-70968033D01*
X78373422Y-71321587D01*
X78444133Y-71250876D01*
X78514843Y-71227306D01*
X78561984Y-71227306D01*
X78632694Y-71250876D01*
X78750545Y-71368727D01*
X78774116Y-71439438D01*
X78774116Y-71486578D01*
X78750545Y-71557289D01*
X78609124Y-71698710D01*
X78538413Y-71722280D01*
X78491273Y-71722280D01*
X77024666Y-52567666D02*
X76691333Y-52801000D01*
X77024666Y-52967666D02*
X76324666Y-52967666D01*
X76324666Y-52701000D01*
X76358000Y-52634333D01*
X76391333Y-52601000D01*
X76458000Y-52567666D01*
X76558000Y-52567666D01*
X76624666Y-52601000D01*
X76658000Y-52634333D01*
X76691333Y-52701000D01*
X76691333Y-52967666D01*
X76558000Y-51967666D02*
X77024666Y-51967666D01*
X76291333Y-52134333D02*
X76791333Y-52301000D01*
X76791333Y-51867666D01*
X85714020Y-71045412D02*
X85313326Y-70974702D01*
X85431177Y-71328255D02*
X84936202Y-70833280D01*
X85124764Y-70644719D01*
X85195475Y-70621148D01*
X85242615Y-70621148D01*
X85313326Y-70644719D01*
X85384037Y-70715429D01*
X85407607Y-70786140D01*
X85407607Y-70833280D01*
X85384037Y-70903991D01*
X85195475Y-71092553D01*
X85666879Y-70102603D02*
X85431177Y-70338306D01*
X85643309Y-70597578D01*
X85643309Y-70550438D01*
X85666879Y-70479727D01*
X85784731Y-70361876D01*
X85855441Y-70338306D01*
X85902582Y-70338306D01*
X85973292Y-70361876D01*
X86091143Y-70479727D01*
X86114714Y-70550438D01*
X86114714Y-70597578D01*
X86091143Y-70668289D01*
X85973292Y-70786140D01*
X85902582Y-70809710D01*
X85855441Y-70809710D01*
X81548421Y-75236412D02*
X81147727Y-75165702D01*
X81265578Y-75519255D02*
X80770603Y-75024280D01*
X80959165Y-74835719D01*
X81029876Y-74812148D01*
X81077016Y-74812148D01*
X81147727Y-74835719D01*
X81218438Y-74906429D01*
X81242008Y-74977140D01*
X81242008Y-75024280D01*
X81218438Y-75094991D01*
X81029876Y-75283553D01*
X81477710Y-74317174D02*
X81383429Y-74411455D01*
X81359859Y-74482165D01*
X81359859Y-74529306D01*
X81383429Y-74647157D01*
X81454140Y-74765008D01*
X81642702Y-74953570D01*
X81713412Y-74977140D01*
X81760553Y-74977140D01*
X81831264Y-74953570D01*
X81925544Y-74859289D01*
X81949115Y-74788578D01*
X81949115Y-74741438D01*
X81925544Y-74670727D01*
X81807693Y-74552876D01*
X81736983Y-74529306D01*
X81689842Y-74529306D01*
X81619132Y-74552876D01*
X81524851Y-74647157D01*
X81501280Y-74717867D01*
X81501280Y-74765008D01*
X81524851Y-74835719D01*
X70800133Y-75145066D02*
X70566800Y-74811733D01*
X70400133Y-75145066D02*
X70400133Y-74445066D01*
X70666800Y-74445066D01*
X70733466Y-74478400D01*
X70766800Y-74511733D01*
X70800133Y-74578400D01*
X70800133Y-74678400D01*
X70766800Y-74745066D01*
X70733466Y-74778400D01*
X70666800Y-74811733D01*
X70400133Y-74811733D01*
X71033466Y-74445066D02*
X71500133Y-74445066D01*
X71200133Y-75145066D01*
X84910587Y-64530421D02*
X84981297Y-64129727D01*
X84627744Y-64247578D02*
X85122719Y-63752603D01*
X85311280Y-63941165D01*
X85334851Y-64011876D01*
X85334851Y-64059016D01*
X85311280Y-64129727D01*
X85240570Y-64200438D01*
X85169859Y-64224008D01*
X85122719Y-64224008D01*
X85052008Y-64200438D01*
X84863446Y-64011876D01*
X85476272Y-64530421D02*
X85452702Y-64459710D01*
X85452702Y-64412570D01*
X85476272Y-64341859D01*
X85499842Y-64318289D01*
X85570553Y-64294719D01*
X85617693Y-64294719D01*
X85688404Y-64318289D01*
X85782685Y-64412570D01*
X85806255Y-64483280D01*
X85806255Y-64530421D01*
X85782685Y-64601132D01*
X85759115Y-64624702D01*
X85688404Y-64648272D01*
X85641264Y-64648272D01*
X85570553Y-64624702D01*
X85476272Y-64530421D01*
X85405561Y-64506851D01*
X85358421Y-64506851D01*
X85287710Y-64530421D01*
X85193429Y-64624702D01*
X85169859Y-64695412D01*
X85169859Y-64742553D01*
X85193429Y-64813264D01*
X85287710Y-64907544D01*
X85358421Y-64931115D01*
X85405561Y-64931115D01*
X85476272Y-64907544D01*
X85570553Y-64813264D01*
X85594123Y-64742553D01*
X85594123Y-64695412D01*
X85570553Y-64624702D01*
X85130131Y-74246122D02*
X84729437Y-74175412D01*
X84847288Y-74528965D02*
X84352313Y-74033990D01*
X84540875Y-73845429D01*
X84611586Y-73821858D01*
X84658726Y-73821858D01*
X84729437Y-73845429D01*
X84800148Y-73916139D01*
X84823718Y-73986850D01*
X84823718Y-74033990D01*
X84800148Y-74104701D01*
X84611586Y-74293263D01*
X85365833Y-74010420D02*
X85460114Y-73916139D01*
X85483684Y-73845429D01*
X85483684Y-73798288D01*
X85460114Y-73680437D01*
X85389403Y-73562586D01*
X85200842Y-73374024D01*
X85130131Y-73350454D01*
X85082990Y-73350454D01*
X85012280Y-73374024D01*
X84917999Y-73468305D01*
X84894429Y-73539016D01*
X84894429Y-73586156D01*
X84917999Y-73656867D01*
X85035850Y-73774718D01*
X85106561Y-73798288D01*
X85153701Y-73798288D01*
X85224412Y-73774718D01*
X85318693Y-73680437D01*
X85342263Y-73609726D01*
X85342263Y-73562586D01*
X85318693Y-73491875D01*
X66961600Y-76872266D02*
X66728266Y-76538933D01*
X66561600Y-76872266D02*
X66561600Y-76172266D01*
X66828266Y-76172266D01*
X66894933Y-76205600D01*
X66928266Y-76238933D01*
X66961600Y-76305600D01*
X66961600Y-76405600D01*
X66928266Y-76472266D01*
X66894933Y-76505600D01*
X66828266Y-76538933D01*
X66561600Y-76538933D01*
X67628266Y-76872266D02*
X67228266Y-76872266D01*
X67428266Y-76872266D02*
X67428266Y-76172266D01*
X67361600Y-76272266D01*
X67294933Y-76338933D01*
X67228266Y-76372266D01*
X68061600Y-76172266D02*
X68128266Y-76172266D01*
X68194933Y-76205600D01*
X68228266Y-76238933D01*
X68261600Y-76305600D01*
X68294933Y-76438933D01*
X68294933Y-76605600D01*
X68261600Y-76738933D01*
X68228266Y-76805600D01*
X68194933Y-76838933D01*
X68128266Y-76872266D01*
X68061600Y-76872266D01*
X67994933Y-76838933D01*
X67961600Y-76805600D01*
X67928266Y-76738933D01*
X67894933Y-76605600D01*
X67894933Y-76438933D01*
X67928266Y-76305600D01*
X67961600Y-76238933D01*
X67994933Y-76205600D01*
X68061600Y-76172266D01*
X54477500Y-67499666D02*
X54244166Y-67166333D01*
X54077500Y-67499666D02*
X54077500Y-66799666D01*
X54344166Y-66799666D01*
X54410833Y-66833000D01*
X54444166Y-66866333D01*
X54477500Y-66933000D01*
X54477500Y-67033000D01*
X54444166Y-67099666D01*
X54410833Y-67133000D01*
X54344166Y-67166333D01*
X54077500Y-67166333D01*
X55144166Y-67499666D02*
X54744166Y-67499666D01*
X54944166Y-67499666D02*
X54944166Y-66799666D01*
X54877500Y-66899666D01*
X54810833Y-66966333D01*
X54744166Y-66999666D01*
X55810833Y-67499666D02*
X55410833Y-67499666D01*
X55610833Y-67499666D02*
X55610833Y-66799666D01*
X55544166Y-66899666D01*
X55477500Y-66966333D01*
X55410833Y-66999666D01*
X60637000Y-57733366D02*
X60403666Y-57400033D01*
X60237000Y-57733366D02*
X60237000Y-57033366D01*
X60503666Y-57033366D01*
X60570333Y-57066700D01*
X60603666Y-57100033D01*
X60637000Y-57166700D01*
X60637000Y-57266700D01*
X60603666Y-57333366D01*
X60570333Y-57366700D01*
X60503666Y-57400033D01*
X60237000Y-57400033D01*
X61303666Y-57733366D02*
X60903666Y-57733366D01*
X61103666Y-57733366D02*
X61103666Y-57033366D01*
X61037000Y-57133366D01*
X60970333Y-57200033D01*
X60903666Y-57233366D01*
X61570333Y-57100033D02*
X61603666Y-57066700D01*
X61670333Y-57033366D01*
X61837000Y-57033366D01*
X61903666Y-57066700D01*
X61937000Y-57100033D01*
X61970333Y-57166700D01*
X61970333Y-57233366D01*
X61937000Y-57333366D01*
X61537000Y-57733366D01*
X61970333Y-57733366D01*
X61018000Y-63689666D02*
X60784666Y-63356333D01*
X60618000Y-63689666D02*
X60618000Y-62989666D01*
X60884666Y-62989666D01*
X60951333Y-63023000D01*
X60984666Y-63056333D01*
X61018000Y-63123000D01*
X61018000Y-63223000D01*
X60984666Y-63289666D01*
X60951333Y-63323000D01*
X60884666Y-63356333D01*
X60618000Y-63356333D01*
X61684666Y-63689666D02*
X61284666Y-63689666D01*
X61484666Y-63689666D02*
X61484666Y-62989666D01*
X61418000Y-63089666D01*
X61351333Y-63156333D01*
X61284666Y-63189666D01*
X61918000Y-62989666D02*
X62351333Y-62989666D01*
X62118000Y-63256333D01*
X62218000Y-63256333D01*
X62284666Y-63289666D01*
X62318000Y-63323000D01*
X62351333Y-63389666D01*
X62351333Y-63556333D01*
X62318000Y-63623000D01*
X62284666Y-63656333D01*
X62218000Y-63689666D01*
X62018000Y-63689666D01*
X61951333Y-63656333D01*
X61918000Y-63623000D01*
X59875000Y-69150666D02*
X59641666Y-68817333D01*
X59475000Y-69150666D02*
X59475000Y-68450666D01*
X59741666Y-68450666D01*
X59808333Y-68484000D01*
X59841666Y-68517333D01*
X59875000Y-68584000D01*
X59875000Y-68684000D01*
X59841666Y-68750666D01*
X59808333Y-68784000D01*
X59741666Y-68817333D01*
X59475000Y-68817333D01*
X60541666Y-69150666D02*
X60141666Y-69150666D01*
X60341666Y-69150666D02*
X60341666Y-68450666D01*
X60275000Y-68550666D01*
X60208333Y-68617333D01*
X60141666Y-68650666D01*
X61141666Y-68684000D02*
X61141666Y-69150666D01*
X60975000Y-68417333D02*
X60808333Y-68917333D01*
X61241666Y-68917333D01*
X64916900Y-73875066D02*
X64683566Y-73541733D01*
X64516900Y-73875066D02*
X64516900Y-73175066D01*
X64783566Y-73175066D01*
X64850233Y-73208400D01*
X64883566Y-73241733D01*
X64916900Y-73308400D01*
X64916900Y-73408400D01*
X64883566Y-73475066D01*
X64850233Y-73508400D01*
X64783566Y-73541733D01*
X64516900Y-73541733D01*
X65583566Y-73875066D02*
X65183566Y-73875066D01*
X65383566Y-73875066D02*
X65383566Y-73175066D01*
X65316900Y-73275066D01*
X65250233Y-73341733D01*
X65183566Y-73375066D01*
X66183566Y-73175066D02*
X66050233Y-73175066D01*
X65983566Y-73208400D01*
X65950233Y-73241733D01*
X65883566Y-73341733D01*
X65850233Y-73475066D01*
X65850233Y-73741733D01*
X65883566Y-73808400D01*
X65916900Y-73841733D01*
X65983566Y-73875066D01*
X66116900Y-73875066D01*
X66183566Y-73841733D01*
X66216900Y-73808400D01*
X66250233Y-73741733D01*
X66250233Y-73575066D01*
X66216900Y-73508400D01*
X66183566Y-73475066D01*
X66116900Y-73441733D01*
X65983566Y-73441733D01*
X65916900Y-73475066D01*
X65883566Y-73508400D01*
X65850233Y-73575066D01*
X59875000Y-67372666D02*
X59641666Y-67039333D01*
X59475000Y-67372666D02*
X59475000Y-66672666D01*
X59741666Y-66672666D01*
X59808333Y-66706000D01*
X59841666Y-66739333D01*
X59875000Y-66806000D01*
X59875000Y-66906000D01*
X59841666Y-66972666D01*
X59808333Y-67006000D01*
X59741666Y-67039333D01*
X59475000Y-67039333D01*
X60541666Y-67372666D02*
X60141666Y-67372666D01*
X60341666Y-67372666D02*
X60341666Y-66672666D01*
X60275000Y-66772666D01*
X60208333Y-66839333D01*
X60141666Y-66872666D01*
X60775000Y-66672666D02*
X61241666Y-66672666D01*
X60941666Y-67372666D01*
X53982200Y-61022666D02*
X53748866Y-60689333D01*
X53582200Y-61022666D02*
X53582200Y-60322666D01*
X53848866Y-60322666D01*
X53915533Y-60356000D01*
X53948866Y-60389333D01*
X53982200Y-60456000D01*
X53982200Y-60556000D01*
X53948866Y-60622666D01*
X53915533Y-60656000D01*
X53848866Y-60689333D01*
X53582200Y-60689333D01*
X54648866Y-61022666D02*
X54248866Y-61022666D01*
X54448866Y-61022666D02*
X54448866Y-60322666D01*
X54382200Y-60422666D01*
X54315533Y-60489333D01*
X54248866Y-60522666D01*
X55048866Y-60622666D02*
X54982200Y-60589333D01*
X54948866Y-60556000D01*
X54915533Y-60489333D01*
X54915533Y-60456000D01*
X54948866Y-60389333D01*
X54982200Y-60356000D01*
X55048866Y-60322666D01*
X55182200Y-60322666D01*
X55248866Y-60356000D01*
X55282200Y-60389333D01*
X55315533Y-60456000D01*
X55315533Y-60489333D01*
X55282200Y-60556000D01*
X55248866Y-60589333D01*
X55182200Y-60622666D01*
X55048866Y-60622666D01*
X54982200Y-60656000D01*
X54948866Y-60689333D01*
X54915533Y-60756000D01*
X54915533Y-60889333D01*
X54948866Y-60956000D01*
X54982200Y-60989333D01*
X55048866Y-61022666D01*
X55182200Y-61022666D01*
X55248866Y-60989333D01*
X55282200Y-60956000D01*
X55315533Y-60889333D01*
X55315533Y-60756000D01*
X55282200Y-60689333D01*
X55248866Y-60656000D01*
X55182200Y-60622666D01*
X71690666Y-52583500D02*
X71357333Y-52816833D01*
X71690666Y-52983500D02*
X70990666Y-52983500D01*
X70990666Y-52716833D01*
X71024000Y-52650166D01*
X71057333Y-52616833D01*
X71124000Y-52583500D01*
X71224000Y-52583500D01*
X71290666Y-52616833D01*
X71324000Y-52650166D01*
X71357333Y-52716833D01*
X71357333Y-52983500D01*
X71690666Y-51916833D02*
X71690666Y-52316833D01*
X71690666Y-52116833D02*
X70990666Y-52116833D01*
X71090666Y-52183500D01*
X71157333Y-52250166D01*
X71190666Y-52316833D01*
X71690666Y-51583500D02*
X71690666Y-51450166D01*
X71657333Y-51383500D01*
X71624000Y-51350166D01*
X71524000Y-51283500D01*
X71390666Y-51250166D01*
X71124000Y-51250166D01*
X71057333Y-51283500D01*
X71024000Y-51316833D01*
X70990666Y-51383500D01*
X70990666Y-51516833D01*
X71024000Y-51583500D01*
X71057333Y-51616833D01*
X71124000Y-51650166D01*
X71290666Y-51650166D01*
X71357333Y-51616833D01*
X71390666Y-51583500D01*
X71424000Y-51516833D01*
X71424000Y-51383500D01*
X71390666Y-51316833D01*
X71357333Y-51283500D01*
X71290666Y-51250166D01*
X75246666Y-52583500D02*
X74913333Y-52816833D01*
X75246666Y-52983500D02*
X74546666Y-52983500D01*
X74546666Y-52716833D01*
X74580000Y-52650166D01*
X74613333Y-52616833D01*
X74680000Y-52583500D01*
X74780000Y-52583500D01*
X74846666Y-52616833D01*
X74880000Y-52650166D01*
X74913333Y-52716833D01*
X74913333Y-52983500D01*
X74613333Y-52316833D02*
X74580000Y-52283500D01*
X74546666Y-52216833D01*
X74546666Y-52050166D01*
X74580000Y-51983500D01*
X74613333Y-51950166D01*
X74680000Y-51916833D01*
X74746666Y-51916833D01*
X74846666Y-51950166D01*
X75246666Y-52350166D01*
X75246666Y-51916833D01*
X74546666Y-51483500D02*
X74546666Y-51416833D01*
X74580000Y-51350166D01*
X74613333Y-51316833D01*
X74680000Y-51283500D01*
X74813333Y-51250166D01*
X74980000Y-51250166D01*
X75113333Y-51283500D01*
X75180000Y-51316833D01*
X75213333Y-51350166D01*
X75246666Y-51416833D01*
X75246666Y-51483500D01*
X75213333Y-51550166D01*
X75180000Y-51583500D01*
X75113333Y-51616833D01*
X74980000Y-51650166D01*
X74813333Y-51650166D01*
X74680000Y-51616833D01*
X74613333Y-51583500D01*
X74580000Y-51550166D01*
X74546666Y-51483500D01*
X64578666Y-52583500D02*
X64245333Y-52816833D01*
X64578666Y-52983500D02*
X63878666Y-52983500D01*
X63878666Y-52716833D01*
X63912000Y-52650166D01*
X63945333Y-52616833D01*
X64012000Y-52583500D01*
X64112000Y-52583500D01*
X64178666Y-52616833D01*
X64212000Y-52650166D01*
X64245333Y-52716833D01*
X64245333Y-52983500D01*
X63945333Y-52316833D02*
X63912000Y-52283500D01*
X63878666Y-52216833D01*
X63878666Y-52050166D01*
X63912000Y-51983500D01*
X63945333Y-51950166D01*
X64012000Y-51916833D01*
X64078666Y-51916833D01*
X64178666Y-51950166D01*
X64578666Y-52350166D01*
X64578666Y-51916833D01*
X64578666Y-51250166D02*
X64578666Y-51650166D01*
X64578666Y-51450166D02*
X63878666Y-51450166D01*
X63978666Y-51516833D01*
X64045333Y-51583500D01*
X64078666Y-51650166D01*
X73468666Y-52583500D02*
X73135333Y-52816833D01*
X73468666Y-52983500D02*
X72768666Y-52983500D01*
X72768666Y-52716833D01*
X72802000Y-52650166D01*
X72835333Y-52616833D01*
X72902000Y-52583500D01*
X73002000Y-52583500D01*
X73068666Y-52616833D01*
X73102000Y-52650166D01*
X73135333Y-52716833D01*
X73135333Y-52983500D01*
X72835333Y-52316833D02*
X72802000Y-52283500D01*
X72768666Y-52216833D01*
X72768666Y-52050166D01*
X72802000Y-51983500D01*
X72835333Y-51950166D01*
X72902000Y-51916833D01*
X72968666Y-51916833D01*
X73068666Y-51950166D01*
X73468666Y-52350166D01*
X73468666Y-51916833D01*
X72835333Y-51650166D02*
X72802000Y-51616833D01*
X72768666Y-51550166D01*
X72768666Y-51383500D01*
X72802000Y-51316833D01*
X72835333Y-51283500D01*
X72902000Y-51250166D01*
X72968666Y-51250166D01*
X73068666Y-51283500D01*
X73468666Y-51683500D01*
X73468666Y-51250166D01*
X69912666Y-52583500D02*
X69579333Y-52816833D01*
X69912666Y-52983500D02*
X69212666Y-52983500D01*
X69212666Y-52716833D01*
X69246000Y-52650166D01*
X69279333Y-52616833D01*
X69346000Y-52583500D01*
X69446000Y-52583500D01*
X69512666Y-52616833D01*
X69546000Y-52650166D01*
X69579333Y-52716833D01*
X69579333Y-52983500D01*
X69279333Y-52316833D02*
X69246000Y-52283500D01*
X69212666Y-52216833D01*
X69212666Y-52050166D01*
X69246000Y-51983500D01*
X69279333Y-51950166D01*
X69346000Y-51916833D01*
X69412666Y-51916833D01*
X69512666Y-51950166D01*
X69912666Y-52350166D01*
X69912666Y-51916833D01*
X69212666Y-51683500D02*
X69212666Y-51250166D01*
X69479333Y-51483500D01*
X69479333Y-51383500D01*
X69512666Y-51316833D01*
X69546000Y-51283500D01*
X69612666Y-51250166D01*
X69779333Y-51250166D01*
X69846000Y-51283500D01*
X69879333Y-51316833D01*
X69912666Y-51383500D01*
X69912666Y-51583500D01*
X69879333Y-51650166D01*
X69846000Y-51683500D01*
D10*
X67455080Y-58780872D02*
X67455080Y-58828012D01*
X67407940Y-58922293D01*
X67360800Y-58969434D01*
X67266519Y-59016574D01*
X67172238Y-59016574D01*
X67101527Y-58993004D01*
X66983676Y-58922293D01*
X66912965Y-58851583D01*
X66842255Y-58733732D01*
X66818684Y-58663021D01*
X66818684Y-58568740D01*
X66865825Y-58474459D01*
X66912965Y-58427319D01*
X67007246Y-58380178D01*
X67054387Y-58380178D01*
X67973625Y-58356608D02*
X67690783Y-58639451D01*
X67832204Y-58498029D02*
X67337229Y-58003055D01*
X67360800Y-58120906D01*
X67360800Y-58215187D01*
X67337229Y-58285897D01*
X82179333Y-47367000D02*
X82146000Y-47400333D01*
X82046000Y-47433666D01*
X81979333Y-47433666D01*
X81879333Y-47400333D01*
X81812666Y-47333666D01*
X81779333Y-47267000D01*
X81746000Y-47133666D01*
X81746000Y-47033666D01*
X81779333Y-46900333D01*
X81812666Y-46833666D01*
X81879333Y-46767000D01*
X81979333Y-46733666D01*
X82046000Y-46733666D01*
X82146000Y-46767000D01*
X82179333Y-46800333D01*
X82446000Y-46800333D02*
X82479333Y-46767000D01*
X82546000Y-46733666D01*
X82712666Y-46733666D01*
X82779333Y-46767000D01*
X82812666Y-46800333D01*
X82846000Y-46867000D01*
X82846000Y-46933666D01*
X82812666Y-47033666D01*
X82412666Y-47433666D01*
X82846000Y-47433666D01*
X66009328Y-70376080D02*
X65962188Y-70376080D01*
X65867907Y-70328940D01*
X65820766Y-70281800D01*
X65773626Y-70187519D01*
X65773626Y-70093238D01*
X65797196Y-70022527D01*
X65867907Y-69904676D01*
X65938617Y-69833965D01*
X66056468Y-69763255D01*
X66127179Y-69739684D01*
X66221460Y-69739684D01*
X66315741Y-69786825D01*
X66362881Y-69833965D01*
X66410022Y-69928246D01*
X66410022Y-69975387D01*
X66622154Y-70093238D02*
X66928567Y-70399651D01*
X66575013Y-70423221D01*
X66645724Y-70493932D01*
X66669294Y-70564642D01*
X66669294Y-70611783D01*
X66645724Y-70682493D01*
X66527873Y-70800344D01*
X66457162Y-70823915D01*
X66410022Y-70823915D01*
X66339311Y-70800344D01*
X66197890Y-70658923D01*
X66174320Y-70588212D01*
X66174320Y-70541072D01*
X85786133Y-60067000D02*
X85752800Y-60100333D01*
X85652800Y-60133666D01*
X85586133Y-60133666D01*
X85486133Y-60100333D01*
X85419466Y-60033666D01*
X85386133Y-59967000D01*
X85352800Y-59833666D01*
X85352800Y-59733666D01*
X85386133Y-59600333D01*
X85419466Y-59533666D01*
X85486133Y-59467000D01*
X85586133Y-59433666D01*
X85652800Y-59433666D01*
X85752800Y-59467000D01*
X85786133Y-59500333D01*
X86419466Y-59433666D02*
X86086133Y-59433666D01*
X86052800Y-59767000D01*
X86086133Y-59733666D01*
X86152800Y-59700333D01*
X86319466Y-59700333D01*
X86386133Y-59733666D01*
X86419466Y-59767000D01*
X86452800Y-59833666D01*
X86452800Y-60000333D01*
X86419466Y-60067000D01*
X86386133Y-60100333D01*
X86319466Y-60133666D01*
X86152800Y-60133666D01*
X86086133Y-60100333D01*
X86052800Y-60067000D01*
X85811533Y-53717000D02*
X85778200Y-53750333D01*
X85678200Y-53783666D01*
X85611533Y-53783666D01*
X85511533Y-53750333D01*
X85444866Y-53683666D01*
X85411533Y-53617000D01*
X85378200Y-53483666D01*
X85378200Y-53383666D01*
X85411533Y-53250333D01*
X85444866Y-53183666D01*
X85511533Y-53117000D01*
X85611533Y-53083666D01*
X85678200Y-53083666D01*
X85778200Y-53117000D01*
X85811533Y-53150333D01*
X86411533Y-53083666D02*
X86278200Y-53083666D01*
X86211533Y-53117000D01*
X86178200Y-53150333D01*
X86111533Y-53250333D01*
X86078200Y-53383666D01*
X86078200Y-53650333D01*
X86111533Y-53717000D01*
X86144866Y-53750333D01*
X86211533Y-53783666D01*
X86344866Y-53783666D01*
X86411533Y-53750333D01*
X86444866Y-53717000D01*
X86478200Y-53650333D01*
X86478200Y-53483666D01*
X86444866Y-53417000D01*
X86411533Y-53383666D01*
X86344866Y-53350333D01*
X86211533Y-53350333D01*
X86144866Y-53383666D01*
X86111533Y-53417000D01*
X86078200Y-53483666D01*
X68775880Y-60000072D02*
X68775880Y-60047212D01*
X68728740Y-60141493D01*
X68681600Y-60188634D01*
X68587319Y-60235774D01*
X68493038Y-60235774D01*
X68422327Y-60212204D01*
X68304476Y-60141493D01*
X68233765Y-60070783D01*
X68163055Y-59952932D01*
X68139484Y-59882221D01*
X68139484Y-59787940D01*
X68186625Y-59693659D01*
X68233765Y-59646519D01*
X68328046Y-59599378D01*
X68375187Y-59599378D01*
X68493038Y-59387246D02*
X68823021Y-59057263D01*
X69105864Y-59764370D01*
X56842833Y-47494000D02*
X56809500Y-47527333D01*
X56709500Y-47560666D01*
X56642833Y-47560666D01*
X56542833Y-47527333D01*
X56476166Y-47460666D01*
X56442833Y-47394000D01*
X56409500Y-47260666D01*
X56409500Y-47160666D01*
X56442833Y-47027333D01*
X56476166Y-46960666D01*
X56542833Y-46894000D01*
X56642833Y-46860666D01*
X56709500Y-46860666D01*
X56809500Y-46894000D01*
X56842833Y-46927333D01*
X57242833Y-47160666D02*
X57176166Y-47127333D01*
X57142833Y-47094000D01*
X57109500Y-47027333D01*
X57109500Y-46994000D01*
X57142833Y-46927333D01*
X57176166Y-46894000D01*
X57242833Y-46860666D01*
X57376166Y-46860666D01*
X57442833Y-46894000D01*
X57476166Y-46927333D01*
X57509500Y-46994000D01*
X57509500Y-47027333D01*
X57476166Y-47094000D01*
X57442833Y-47127333D01*
X57376166Y-47160666D01*
X57242833Y-47160666D01*
X57176166Y-47194000D01*
X57142833Y-47227333D01*
X57109500Y-47294000D01*
X57109500Y-47427333D01*
X57142833Y-47494000D01*
X57176166Y-47527333D01*
X57242833Y-47560666D01*
X57376166Y-47560666D01*
X57442833Y-47527333D01*
X57476166Y-47494000D01*
X57509500Y-47427333D01*
X57509500Y-47294000D01*
X57476166Y-47227333D01*
X57442833Y-47194000D01*
X57376166Y-47160666D01*
X54493333Y-47494000D02*
X54460000Y-47527333D01*
X54360000Y-47560666D01*
X54293333Y-47560666D01*
X54193333Y-47527333D01*
X54126666Y-47460666D01*
X54093333Y-47394000D01*
X54060000Y-47260666D01*
X54060000Y-47160666D01*
X54093333Y-47027333D01*
X54126666Y-46960666D01*
X54193333Y-46894000D01*
X54293333Y-46860666D01*
X54360000Y-46860666D01*
X54460000Y-46894000D01*
X54493333Y-46927333D01*
X54826666Y-47560666D02*
X54960000Y-47560666D01*
X55026666Y-47527333D01*
X55060000Y-47494000D01*
X55126666Y-47394000D01*
X55160000Y-47260666D01*
X55160000Y-46994000D01*
X55126666Y-46927333D01*
X55093333Y-46894000D01*
X55026666Y-46860666D01*
X54893333Y-46860666D01*
X54826666Y-46894000D01*
X54793333Y-46927333D01*
X54760000Y-46994000D01*
X54760000Y-47160666D01*
X54793333Y-47227333D01*
X54826666Y-47260666D01*
X54893333Y-47294000D01*
X55026666Y-47294000D01*
X55093333Y-47260666D01*
X55126666Y-47227333D01*
X55160000Y-47160666D01*
X77419525Y-59408878D02*
X77372384Y-59408878D01*
X77278103Y-59361738D01*
X77230963Y-59314597D01*
X77183822Y-59220316D01*
X77183822Y-59126035D01*
X77207393Y-59055325D01*
X77278103Y-58937474D01*
X77348814Y-58866763D01*
X77466665Y-58796052D01*
X77537376Y-58772482D01*
X77631657Y-58772482D01*
X77725938Y-58819622D01*
X77773078Y-58866763D01*
X77820219Y-58961044D01*
X77820219Y-59008184D01*
X77843789Y-59927423D02*
X77560946Y-59644580D01*
X77702367Y-59786002D02*
X78197342Y-59291027D01*
X78079491Y-59314597D01*
X77985210Y-59314597D01*
X77914500Y-59291027D01*
X78645177Y-59738861D02*
X78692317Y-59786002D01*
X78715887Y-59856712D01*
X78715887Y-59903853D01*
X78692317Y-59974564D01*
X78621606Y-60092415D01*
X78503755Y-60210266D01*
X78385904Y-60280977D01*
X78315193Y-60304547D01*
X78268053Y-60304547D01*
X78197342Y-60280977D01*
X78150202Y-60233836D01*
X78126632Y-60163125D01*
X78126632Y-60115985D01*
X78150202Y-60045274D01*
X78220912Y-59927423D01*
X78338764Y-59809572D01*
X78456615Y-59738861D01*
X78527325Y-59715291D01*
X78574466Y-59715291D01*
X78645177Y-59738861D01*
X83751000Y-47367000D02*
X83717666Y-47400333D01*
X83617666Y-47433666D01*
X83551000Y-47433666D01*
X83451000Y-47400333D01*
X83384333Y-47333666D01*
X83351000Y-47267000D01*
X83317666Y-47133666D01*
X83317666Y-47033666D01*
X83351000Y-46900333D01*
X83384333Y-46833666D01*
X83451000Y-46767000D01*
X83551000Y-46733666D01*
X83617666Y-46733666D01*
X83717666Y-46767000D01*
X83751000Y-46800333D01*
X84417666Y-47433666D02*
X84017666Y-47433666D01*
X84217666Y-47433666D02*
X84217666Y-46733666D01*
X84151000Y-46833666D01*
X84084333Y-46900333D01*
X84017666Y-46933666D01*
X85084333Y-47433666D02*
X84684333Y-47433666D01*
X84884333Y-47433666D02*
X84884333Y-46733666D01*
X84817666Y-46833666D01*
X84751000Y-46900333D01*
X84684333Y-46933666D01*
X84959000Y-77158000D02*
X84992333Y-77191333D01*
X85025666Y-77291333D01*
X85025666Y-77358000D01*
X84992333Y-77458000D01*
X84925666Y-77524666D01*
X84859000Y-77558000D01*
X84725666Y-77591333D01*
X84625666Y-77591333D01*
X84492333Y-77558000D01*
X84425666Y-77524666D01*
X84359000Y-77458000D01*
X84325666Y-77358000D01*
X84325666Y-77291333D01*
X84359000Y-77191333D01*
X84392333Y-77158000D01*
X85025666Y-76491333D02*
X85025666Y-76891333D01*
X85025666Y-76691333D02*
X84325666Y-76691333D01*
X84425666Y-76758000D01*
X84492333Y-76824666D01*
X84525666Y-76891333D01*
X84392333Y-76224666D02*
X84359000Y-76191333D01*
X84325666Y-76124666D01*
X84325666Y-75958000D01*
X84359000Y-75891333D01*
X84392333Y-75858000D01*
X84459000Y-75824666D01*
X84525666Y-75824666D01*
X84625666Y-75858000D01*
X85025666Y-76258000D01*
X85025666Y-75824666D01*
X83706025Y-65644578D02*
X83658884Y-65644578D01*
X83564603Y-65597438D01*
X83517463Y-65550297D01*
X83470322Y-65456016D01*
X83470322Y-65361735D01*
X83493893Y-65291025D01*
X83564603Y-65173174D01*
X83635314Y-65102463D01*
X83753165Y-65031752D01*
X83823876Y-65008182D01*
X83918157Y-65008182D01*
X84012438Y-65055322D01*
X84059578Y-65102463D01*
X84106719Y-65196744D01*
X84106719Y-65243884D01*
X84130289Y-66163123D02*
X83847446Y-65880280D01*
X83988867Y-66021702D02*
X84483842Y-65526727D01*
X84365991Y-65550297D01*
X84271710Y-65550297D01*
X84201000Y-65526727D01*
X84790255Y-65833140D02*
X85096668Y-66139553D01*
X84743115Y-66163123D01*
X84813825Y-66233834D01*
X84837396Y-66304544D01*
X84837396Y-66351685D01*
X84813825Y-66422396D01*
X84695974Y-66540247D01*
X84625264Y-66563817D01*
X84578123Y-66563817D01*
X84507412Y-66540247D01*
X84365991Y-66398825D01*
X84342421Y-66328115D01*
X84342421Y-66280974D01*
X82582600Y-68042600D02*
X82549266Y-68075933D01*
X82449266Y-68109266D01*
X82382600Y-68109266D01*
X82282600Y-68075933D01*
X82215933Y-68009266D01*
X82182600Y-67942600D01*
X82149266Y-67809266D01*
X82149266Y-67709266D01*
X82182600Y-67575933D01*
X82215933Y-67509266D01*
X82282600Y-67442600D01*
X82382600Y-67409266D01*
X82449266Y-67409266D01*
X82549266Y-67442600D01*
X82582600Y-67475933D01*
X83249266Y-68109266D02*
X82849266Y-68109266D01*
X83049266Y-68109266D02*
X83049266Y-67409266D01*
X82982600Y-67509266D01*
X82915933Y-67575933D01*
X82849266Y-67609266D01*
X83849266Y-67642600D02*
X83849266Y-68109266D01*
X83682600Y-67375933D02*
X83515933Y-67875933D01*
X83949266Y-67875933D01*
X66910800Y-78583600D02*
X66877466Y-78616933D01*
X66777466Y-78650266D01*
X66710800Y-78650266D01*
X66610800Y-78616933D01*
X66544133Y-78550266D01*
X66510800Y-78483600D01*
X66477466Y-78350266D01*
X66477466Y-78250266D01*
X66510800Y-78116933D01*
X66544133Y-78050266D01*
X66610800Y-77983600D01*
X66710800Y-77950266D01*
X66777466Y-77950266D01*
X66877466Y-77983600D01*
X66910800Y-78016933D01*
X67577466Y-78650266D02*
X67177466Y-78650266D01*
X67377466Y-78650266D02*
X67377466Y-77950266D01*
X67310800Y-78050266D01*
X67244133Y-78116933D01*
X67177466Y-78150266D01*
X68210800Y-77950266D02*
X67877466Y-77950266D01*
X67844133Y-78283600D01*
X67877466Y-78250266D01*
X67944133Y-78216933D01*
X68110800Y-78216933D01*
X68177466Y-78250266D01*
X68210800Y-78283600D01*
X68244133Y-78350266D01*
X68244133Y-78516933D01*
X68210800Y-78583600D01*
X68177466Y-78616933D01*
X68110800Y-78650266D01*
X67944133Y-78650266D01*
X67877466Y-78616933D01*
X67844133Y-78583600D01*
X60637000Y-62480000D02*
X60603666Y-62513333D01*
X60503666Y-62546666D01*
X60437000Y-62546666D01*
X60337000Y-62513333D01*
X60270333Y-62446666D01*
X60237000Y-62380000D01*
X60203666Y-62246666D01*
X60203666Y-62146666D01*
X60237000Y-62013333D01*
X60270333Y-61946666D01*
X60337000Y-61880000D01*
X60437000Y-61846666D01*
X60503666Y-61846666D01*
X60603666Y-61880000D01*
X60637000Y-61913333D01*
X61303666Y-62546666D02*
X60903666Y-62546666D01*
X61103666Y-62546666D02*
X61103666Y-61846666D01*
X61037000Y-61946666D01*
X60970333Y-62013333D01*
X60903666Y-62046666D01*
X61903666Y-61846666D02*
X61770333Y-61846666D01*
X61703666Y-61880000D01*
X61670333Y-61913333D01*
X61603666Y-62013333D01*
X61570333Y-62146666D01*
X61570333Y-62413333D01*
X61603666Y-62480000D01*
X61637000Y-62513333D01*
X61703666Y-62546666D01*
X61837000Y-62546666D01*
X61903666Y-62513333D01*
X61937000Y-62480000D01*
X61970333Y-62413333D01*
X61970333Y-62246666D01*
X61937000Y-62180000D01*
X61903666Y-62146666D01*
X61837000Y-62113333D01*
X61703666Y-62113333D01*
X61637000Y-62146666D01*
X61603666Y-62180000D01*
X61570333Y-62246666D01*
X53982200Y-58898600D02*
X53948866Y-58931933D01*
X53848866Y-58965266D01*
X53782200Y-58965266D01*
X53682200Y-58931933D01*
X53615533Y-58865266D01*
X53582200Y-58798600D01*
X53548866Y-58665266D01*
X53548866Y-58565266D01*
X53582200Y-58431933D01*
X53615533Y-58365266D01*
X53682200Y-58298600D01*
X53782200Y-58265266D01*
X53848866Y-58265266D01*
X53948866Y-58298600D01*
X53982200Y-58331933D01*
X54648866Y-58965266D02*
X54248866Y-58965266D01*
X54448866Y-58965266D02*
X54448866Y-58265266D01*
X54382200Y-58365266D01*
X54315533Y-58431933D01*
X54248866Y-58465266D01*
X54882200Y-58265266D02*
X55348866Y-58265266D01*
X55048866Y-58965266D01*
X54718800Y-77466000D02*
X54685466Y-77499333D01*
X54585466Y-77532666D01*
X54518800Y-77532666D01*
X54418800Y-77499333D01*
X54352133Y-77432666D01*
X54318800Y-77366000D01*
X54285466Y-77232666D01*
X54285466Y-77132666D01*
X54318800Y-76999333D01*
X54352133Y-76932666D01*
X54418800Y-76866000D01*
X54518800Y-76832666D01*
X54585466Y-76832666D01*
X54685466Y-76866000D01*
X54718800Y-76899333D01*
X55385466Y-77532666D02*
X54985466Y-77532666D01*
X55185466Y-77532666D02*
X55185466Y-76832666D01*
X55118800Y-76932666D01*
X55052133Y-76999333D01*
X54985466Y-77032666D01*
X55785466Y-77132666D02*
X55718800Y-77099333D01*
X55685466Y-77066000D01*
X55652133Y-76999333D01*
X55652133Y-76966000D01*
X55685466Y-76899333D01*
X55718800Y-76866000D01*
X55785466Y-76832666D01*
X55918800Y-76832666D01*
X55985466Y-76866000D01*
X56018800Y-76899333D01*
X56052133Y-76966000D01*
X56052133Y-76999333D01*
X56018800Y-77066000D01*
X55985466Y-77099333D01*
X55918800Y-77132666D01*
X55785466Y-77132666D01*
X55718800Y-77166000D01*
X55685466Y-77199333D01*
X55652133Y-77266000D01*
X55652133Y-77399333D01*
X55685466Y-77466000D01*
X55718800Y-77499333D01*
X55785466Y-77532666D01*
X55918800Y-77532666D01*
X55985466Y-77499333D01*
X56018800Y-77466000D01*
X56052133Y-77399333D01*
X56052133Y-77266000D01*
X56018800Y-77199333D01*
X55985466Y-77166000D01*
X55918800Y-77132666D01*
X54414000Y-69211000D02*
X54380666Y-69244333D01*
X54280666Y-69277666D01*
X54214000Y-69277666D01*
X54114000Y-69244333D01*
X54047333Y-69177666D01*
X54014000Y-69111000D01*
X53980666Y-68977666D01*
X53980666Y-68877666D01*
X54014000Y-68744333D01*
X54047333Y-68677666D01*
X54114000Y-68611000D01*
X54214000Y-68577666D01*
X54280666Y-68577666D01*
X54380666Y-68611000D01*
X54414000Y-68644333D01*
X55080666Y-69277666D02*
X54680666Y-69277666D01*
X54880666Y-69277666D02*
X54880666Y-68577666D01*
X54814000Y-68677666D01*
X54747333Y-68744333D01*
X54680666Y-68777666D01*
X55414000Y-69277666D02*
X55547333Y-69277666D01*
X55614000Y-69244333D01*
X55647333Y-69211000D01*
X55714000Y-69111000D01*
X55747333Y-68977666D01*
X55747333Y-68711000D01*
X55714000Y-68644333D01*
X55680666Y-68611000D01*
X55614000Y-68577666D01*
X55480666Y-68577666D01*
X55414000Y-68611000D01*
X55380666Y-68644333D01*
X55347333Y-68711000D01*
X55347333Y-68877666D01*
X55380666Y-68944333D01*
X55414000Y-68977666D01*
X55480666Y-69011000D01*
X55614000Y-69011000D01*
X55680666Y-68977666D01*
X55714000Y-68944333D01*
X55747333Y-68877666D01*
X60651200Y-79596400D02*
X60684533Y-79629733D01*
X60717866Y-79729733D01*
X60717866Y-79796400D01*
X60684533Y-79896400D01*
X60617866Y-79963066D01*
X60551200Y-79996400D01*
X60417866Y-80029733D01*
X60317866Y-80029733D01*
X60184533Y-79996400D01*
X60117866Y-79963066D01*
X60051200Y-79896400D01*
X60017866Y-79796400D01*
X60017866Y-79729733D01*
X60051200Y-79629733D01*
X60084533Y-79596400D01*
X60084533Y-79329733D02*
X60051200Y-79296400D01*
X60017866Y-79229733D01*
X60017866Y-79063066D01*
X60051200Y-78996400D01*
X60084533Y-78963066D01*
X60151200Y-78929733D01*
X60217866Y-78929733D01*
X60317866Y-78963066D01*
X60717866Y-79363066D01*
X60717866Y-78929733D01*
X60017866Y-78496400D02*
X60017866Y-78429733D01*
X60051200Y-78363066D01*
X60084533Y-78329733D01*
X60151200Y-78296400D01*
X60284533Y-78263066D01*
X60451200Y-78263066D01*
X60584533Y-78296400D01*
X60651200Y-78329733D01*
X60684533Y-78363066D01*
X60717866Y-78429733D01*
X60717866Y-78496400D01*
X60684533Y-78563066D01*
X60651200Y-78596400D01*
X60584533Y-78629733D01*
X60451200Y-78663066D01*
X60284533Y-78663066D01*
X60151200Y-78629733D01*
X60084533Y-78596400D01*
X60051200Y-78563066D01*
X60017866Y-78496400D01*
X63513025Y-64247578D02*
X63465884Y-64247578D01*
X63371603Y-64200438D01*
X63324463Y-64153297D01*
X63277322Y-64059016D01*
X63277322Y-63964735D01*
X63300893Y-63894025D01*
X63371603Y-63776174D01*
X63442314Y-63705463D01*
X63560165Y-63634752D01*
X63630876Y-63611182D01*
X63725157Y-63611182D01*
X63819438Y-63658322D01*
X63866578Y-63705463D01*
X63913719Y-63799744D01*
X63913719Y-63846884D01*
X64102280Y-64035446D02*
X64149421Y-64035446D01*
X64220132Y-64059016D01*
X64337983Y-64176867D01*
X64361553Y-64247578D01*
X64361553Y-64294719D01*
X64337983Y-64365429D01*
X64290842Y-64412570D01*
X64196561Y-64459710D01*
X63630876Y-64459710D01*
X63937289Y-64766123D01*
X64573685Y-64506851D02*
X64620825Y-64506851D01*
X64691536Y-64530421D01*
X64809387Y-64648272D01*
X64832957Y-64718983D01*
X64832957Y-64766123D01*
X64809387Y-64836834D01*
X64762247Y-64883974D01*
X64667966Y-64931115D01*
X64102280Y-64931115D01*
X64408693Y-65237528D01*
X80485280Y-69728273D02*
X80485280Y-69775413D01*
X80438140Y-69869694D01*
X80391000Y-69916835D01*
X80296719Y-69963975D01*
X80202438Y-69963975D01*
X80131727Y-69940405D01*
X80013876Y-69869694D01*
X79943165Y-69798984D01*
X79872455Y-69681133D01*
X79848884Y-69610422D01*
X79848884Y-69516141D01*
X79896025Y-69421860D01*
X79943165Y-69374720D01*
X80037446Y-69327579D01*
X80084587Y-69327579D01*
X80626702Y-69021166D02*
X80956685Y-69351149D01*
X80320289Y-68950456D02*
X80555991Y-69421860D01*
X80862404Y-69115447D01*
X61437100Y-54618700D02*
X61403766Y-54652033D01*
X61303766Y-54685366D01*
X61237100Y-54685366D01*
X61137100Y-54652033D01*
X61070433Y-54585366D01*
X61037100Y-54518700D01*
X61003766Y-54385366D01*
X61003766Y-54285366D01*
X61037100Y-54152033D01*
X61070433Y-54085366D01*
X61137100Y-54018700D01*
X61237100Y-53985366D01*
X61303766Y-53985366D01*
X61403766Y-54018700D01*
X61437100Y-54052033D01*
X61703766Y-54052033D02*
X61737100Y-54018700D01*
X61803766Y-53985366D01*
X61970433Y-53985366D01*
X62037100Y-54018700D01*
X62070433Y-54052033D01*
X62103766Y-54118700D01*
X62103766Y-54185366D01*
X62070433Y-54285366D01*
X61670433Y-54685366D01*
X62103766Y-54685366D01*
X62770433Y-54685366D02*
X62370433Y-54685366D01*
X62570433Y-54685366D02*
X62570433Y-53985366D01*
X62503766Y-54085366D01*
X62437100Y-54152033D01*
X62370433Y-54185366D01*
X59309095Y-46188380D02*
X59309095Y-46997904D01*
X59356714Y-47093142D01*
X59404333Y-47140761D01*
X59499571Y-47188380D01*
X59690047Y-47188380D01*
X59785285Y-47140761D01*
X59832904Y-47093142D01*
X59880523Y-46997904D01*
X59880523Y-46188380D01*
X60880523Y-47188380D02*
X60309095Y-47188380D01*
X60594809Y-47188380D02*
X60594809Y-46188380D01*
X60499571Y-46331238D01*
X60404333Y-46426476D01*
X60309095Y-46474095D01*
X81718209Y-56719790D02*
X81718209Y-57195980D01*
X81384876Y-56195980D02*
X81718209Y-56719790D01*
X82051542Y-56195980D01*
X82908685Y-57195980D02*
X82337257Y-57195980D01*
X82622971Y-57195980D02*
X82622971Y-56195980D01*
X82527733Y-56338838D01*
X82432495Y-56434076D01*
X82337257Y-56481695D01*
X77109666Y-81734866D02*
X77109666Y-82234866D01*
X77076333Y-82334866D01*
X77009666Y-82401533D01*
X76909666Y-82434866D01*
X76843000Y-82434866D01*
X77809666Y-82434866D02*
X77409666Y-82434866D01*
X77609666Y-82434866D02*
X77609666Y-81734866D01*
X77543000Y-81834866D01*
X77476333Y-81901533D01*
X77409666Y-81934866D01*
X64536666Y-79525066D02*
X64536666Y-80025066D01*
X64503333Y-80125066D01*
X64436666Y-80191733D01*
X64336666Y-80225066D01*
X64270000Y-80225066D01*
X64836666Y-79591733D02*
X64870000Y-79558400D01*
X64936666Y-79525066D01*
X65103333Y-79525066D01*
X65170000Y-79558400D01*
X65203333Y-79591733D01*
X65236666Y-79658400D01*
X65236666Y-79725066D01*
X65203333Y-79825066D01*
X64803333Y-80225066D01*
X65236666Y-80225066D01*
X56257866Y-54367180D02*
X56257866Y-55081466D01*
X56210247Y-55224323D01*
X56115009Y-55319561D01*
X55972152Y-55367180D01*
X55876914Y-55367180D01*
X56638819Y-54367180D02*
X57257866Y-54367180D01*
X56924533Y-54748133D01*
X57067390Y-54748133D01*
X57162628Y-54795752D01*
X57210247Y-54843371D01*
X57257866Y-54938609D01*
X57257866Y-55176704D01*
X57210247Y-55271942D01*
X57162628Y-55319561D01*
X57067390Y-55367180D01*
X56781676Y-55367180D01*
X56686438Y-55319561D01*
X56638819Y-55271942D01*
M02*
