G04 #@! TF.FileFunction,Legend,Top*
%FSLAX46Y46*%
G04 Gerber Fmt 4.6, Leading zero omitted, Abs format (unit mm)*
G04 Created by KiCad (PCBNEW 4.0.7) date Thu Jul 12 22:31:34 2018*
%MOMM*%
%LPD*%
G01*
G04 APERTURE LIST*
%ADD10C,0.100000*%
%ADD11C,0.120000*%
%ADD12C,0.150000*%
G04 APERTURE END LIST*
D10*
D11*
X154924000Y-116836000D02*
X152924000Y-116836000D01*
X152924000Y-118876000D02*
X154924000Y-118876000D01*
D12*
X123738640Y-99560380D02*
X123738640Y-111259620D01*
X128737360Y-111259620D02*
X128737360Y-99560380D01*
X123738640Y-111259620D02*
X124587000Y-111259620D01*
X128737360Y-111259620D02*
X127889000Y-111259620D01*
X123738640Y-99560380D02*
X124587000Y-99560380D01*
X128737360Y-99560380D02*
X127889000Y-99560380D01*
D11*
X148586000Y-109490000D02*
X148586000Y-111490000D01*
X150626000Y-111490000D02*
X150626000Y-109490000D01*
X130564000Y-98386000D02*
X131564000Y-98386000D01*
X131564000Y-96686000D02*
X130564000Y-96686000D01*
X130564000Y-101942000D02*
X131564000Y-101942000D01*
X131564000Y-100242000D02*
X130564000Y-100242000D01*
X149186000Y-100068000D02*
X149186000Y-99068000D01*
X147486000Y-99068000D02*
X147486000Y-100068000D01*
X148554000Y-102036000D02*
X155654000Y-102036000D01*
X148554000Y-105736000D02*
X155654000Y-105736000D01*
X148554000Y-102036000D02*
X148554000Y-105736000D01*
X130548000Y-103974000D02*
X131548000Y-103974000D01*
X131548000Y-102274000D02*
X130548000Y-102274000D01*
X130564000Y-100164000D02*
X131564000Y-100164000D01*
X131564000Y-98464000D02*
X130564000Y-98464000D01*
X144868000Y-110990000D02*
X144868000Y-109990000D01*
X143168000Y-109990000D02*
X143168000Y-110990000D01*
X146646000Y-110990000D02*
X146646000Y-109990000D01*
X144946000Y-109990000D02*
X144946000Y-110990000D01*
X148424000Y-110990000D02*
X148424000Y-109990000D01*
X146724000Y-109990000D02*
X146724000Y-110990000D01*
X127244000Y-93084000D02*
X127114000Y-93084000D01*
X127114000Y-93084000D02*
X127114000Y-87764000D01*
X127114000Y-87764000D02*
X127244000Y-87764000D01*
X129804000Y-93084000D02*
X129934000Y-93084000D01*
X129934000Y-93084000D02*
X129934000Y-87764000D01*
X129934000Y-87764000D02*
X129804000Y-87764000D01*
X127114000Y-92244000D02*
X129934000Y-92244000D01*
X126756000Y-87764000D02*
X126886000Y-87764000D01*
X126886000Y-87764000D02*
X126886000Y-93084000D01*
X126886000Y-93084000D02*
X126756000Y-93084000D01*
X124196000Y-87764000D02*
X124066000Y-87764000D01*
X124066000Y-87764000D02*
X124066000Y-93084000D01*
X124066000Y-93084000D02*
X124196000Y-93084000D01*
X126886000Y-88604000D02*
X124066000Y-88604000D01*
D12*
X153800000Y-110044000D02*
X153800000Y-111344000D01*
X151000000Y-110044000D02*
X153800000Y-110044000D01*
X151000000Y-111344000D02*
X151000000Y-110044000D01*
X153800000Y-111344000D02*
X151000000Y-111344000D01*
D11*
X135850000Y-122868000D02*
X143550000Y-122868000D01*
X135850000Y-123868000D02*
X143550000Y-123868000D01*
X143550000Y-123868000D02*
X143550000Y-114668000D01*
X143550000Y-114668000D02*
X135850000Y-114668000D01*
X135850000Y-114668000D02*
X135850000Y-123868000D01*
X149800000Y-96266000D02*
X149800000Y-91126000D01*
X149800000Y-91126000D02*
X155000000Y-91126000D01*
X155000000Y-91126000D02*
X155000000Y-98866000D01*
X155000000Y-98866000D02*
X152400000Y-98866000D01*
X152400000Y-98866000D02*
X152400000Y-96266000D01*
X152400000Y-96266000D02*
X149800000Y-96266000D01*
X149800000Y-97536000D02*
X149800000Y-98866000D01*
X149800000Y-98866000D02*
X151070000Y-98866000D01*
X144262000Y-99078000D02*
X143332000Y-99078000D01*
X141102000Y-99078000D02*
X142032000Y-99078000D01*
X141102000Y-99078000D02*
X141102000Y-101238000D01*
X144262000Y-99078000D02*
X144262000Y-100538000D01*
X156264000Y-109416000D02*
X156264000Y-111416000D01*
X154124000Y-111416000D02*
X154124000Y-109416000D01*
X152924000Y-114500000D02*
X154924000Y-114500000D01*
X154924000Y-116640000D02*
X152924000Y-116640000D01*
X147120000Y-98568000D02*
X147120000Y-100568000D01*
X144980000Y-100568000D02*
X144980000Y-98568000D01*
X141052000Y-103878000D02*
X141052000Y-102878000D01*
X142412000Y-102878000D02*
X142412000Y-103878000D01*
X139528000Y-103878000D02*
X139528000Y-102878000D01*
X140888000Y-102878000D02*
X140888000Y-103878000D01*
X130064000Y-104340000D02*
X132064000Y-104340000D01*
X132064000Y-106480000D02*
X130064000Y-106480000D01*
X130564000Y-106762000D02*
X131564000Y-106762000D01*
X131564000Y-108122000D02*
X130564000Y-108122000D01*
X132162000Y-110990000D02*
X132162000Y-109990000D01*
X133522000Y-109990000D02*
X133522000Y-110990000D01*
X140798000Y-110990000D02*
X140798000Y-109990000D01*
X142158000Y-109990000D02*
X142158000Y-110990000D01*
X138376000Y-111490000D02*
X138376000Y-109490000D01*
X140516000Y-109490000D02*
X140516000Y-111490000D01*
X136090000Y-111490000D02*
X136090000Y-109490000D01*
X138230000Y-109490000D02*
X138230000Y-111490000D01*
X133804000Y-111490000D02*
X133804000Y-109490000D01*
X135944000Y-109490000D02*
X135944000Y-111490000D01*
D12*
X150700000Y-88568000D02*
X154100000Y-88568000D01*
X150702944Y-88565056D02*
G75*
G02X152400000Y-84468000I1697056J1697056D01*
G01*
X154097056Y-88565056D02*
G75*
G03X152400000Y-84468000I-1697056J1697056D01*
G01*
X132200000Y-92700000D02*
X133600000Y-92700000D01*
X131600000Y-92100000D02*
X132200000Y-92700000D01*
X131600000Y-89100000D02*
X131600000Y-92100000D01*
X147200000Y-92600000D02*
X145800000Y-92600000D01*
X147800000Y-92000000D02*
X147200000Y-92600000D01*
X147800000Y-89100000D02*
X147800000Y-92000000D01*
X131600000Y-87200000D02*
X131600000Y-86700000D01*
X147800000Y-86700000D02*
X131600000Y-86700000D01*
X147800000Y-87200000D02*
X147800000Y-86700000D01*
X148844000Y-115570000D02*
X151384000Y-115570000D01*
X146024000Y-115290000D02*
X147574000Y-115290000D01*
X148844000Y-115570000D02*
X148844000Y-118110000D01*
X147574000Y-118390000D02*
X146024000Y-118390000D01*
X146024000Y-118390000D02*
X146024000Y-115290000D01*
X148844000Y-118110000D02*
X151384000Y-118110000D01*
X151384000Y-118110000D02*
X151384000Y-115570000D01*
X140300000Y-100568000D02*
X139500000Y-100568000D01*
X140300000Y-98568000D02*
X138800000Y-98568000D01*
X140300000Y-99968000D02*
X140300000Y-100568000D01*
X140300000Y-99168000D02*
X140300000Y-98568000D01*
D11*
X145262000Y-105038000D02*
X146462000Y-105038000D01*
X146462000Y-106798000D02*
X145262000Y-106798000D01*
D12*
X125761809Y-96750190D02*
X125761809Y-97226381D01*
X125428476Y-96226381D02*
X125761809Y-96750190D01*
X126095143Y-96226381D01*
X126952286Y-97226381D02*
X126380857Y-97226381D01*
X126666571Y-97226381D02*
X126666571Y-96226381D01*
X126571333Y-96369238D01*
X126476095Y-96464476D01*
X126380857Y-96512095D01*
X152011143Y-100941143D02*
X151963524Y-100988762D01*
X151820667Y-101036381D01*
X151725429Y-101036381D01*
X151582571Y-100988762D01*
X151487333Y-100893524D01*
X151439714Y-100798286D01*
X151392095Y-100607810D01*
X151392095Y-100464952D01*
X151439714Y-100274476D01*
X151487333Y-100179238D01*
X151582571Y-100084000D01*
X151725429Y-100036381D01*
X151820667Y-100036381D01*
X151963524Y-100084000D01*
X152011143Y-100131619D01*
X152963524Y-101036381D02*
X152392095Y-101036381D01*
X152677809Y-101036381D02*
X152677809Y-100036381D01*
X152582571Y-100179238D01*
X152487333Y-100274476D01*
X152392095Y-100322095D01*
X153582571Y-100036381D02*
X153677810Y-100036381D01*
X153773048Y-100084000D01*
X153820667Y-100131619D01*
X153868286Y-100226857D01*
X153915905Y-100417333D01*
X153915905Y-100655429D01*
X153868286Y-100845905D01*
X153820667Y-100941143D01*
X153773048Y-100988762D01*
X153677810Y-101036381D01*
X153582571Y-101036381D01*
X153487333Y-100988762D01*
X153439714Y-100941143D01*
X153392095Y-100845905D01*
X153344476Y-100655429D01*
X153344476Y-100417333D01*
X153392095Y-100226857D01*
X153439714Y-100131619D01*
X153487333Y-100084000D01*
X153582571Y-100036381D01*
X127785905Y-84780381D02*
X127785905Y-83780381D01*
X128024000Y-83780381D01*
X128166858Y-83828000D01*
X128262096Y-83923238D01*
X128309715Y-84018476D01*
X128357334Y-84208952D01*
X128357334Y-84351810D01*
X128309715Y-84542286D01*
X128262096Y-84637524D01*
X128166858Y-84732762D01*
X128024000Y-84780381D01*
X127785905Y-84780381D01*
X128690667Y-83780381D02*
X129309715Y-83780381D01*
X128976381Y-84161333D01*
X129119239Y-84161333D01*
X129214477Y-84208952D01*
X129262096Y-84256571D01*
X129309715Y-84351810D01*
X129309715Y-84589905D01*
X129262096Y-84685143D01*
X129214477Y-84732762D01*
X129119239Y-84780381D01*
X128833524Y-84780381D01*
X128738286Y-84732762D01*
X128690667Y-84685143D01*
X124737905Y-84780381D02*
X124737905Y-83780381D01*
X124976000Y-83780381D01*
X125118858Y-83828000D01*
X125214096Y-83923238D01*
X125261715Y-84018476D01*
X125309334Y-84208952D01*
X125309334Y-84351810D01*
X125261715Y-84542286D01*
X125214096Y-84637524D01*
X125118858Y-84732762D01*
X124976000Y-84780381D01*
X124737905Y-84780381D01*
X126214096Y-83780381D02*
X125737905Y-83780381D01*
X125690286Y-84256571D01*
X125737905Y-84208952D01*
X125833143Y-84161333D01*
X126071239Y-84161333D01*
X126166477Y-84208952D01*
X126214096Y-84256571D01*
X126261715Y-84351810D01*
X126261715Y-84589905D01*
X126214096Y-84685143D01*
X126166477Y-84732762D01*
X126071239Y-84780381D01*
X125833143Y-84780381D01*
X125737905Y-84732762D01*
X125690286Y-84685143D01*
X152066667Y-106640381D02*
X152066667Y-107354667D01*
X152019047Y-107497524D01*
X151923809Y-107592762D01*
X151780952Y-107640381D01*
X151685714Y-107640381D01*
X152447619Y-106640381D02*
X153066667Y-106640381D01*
X152733333Y-107021333D01*
X152876191Y-107021333D01*
X152971429Y-107068952D01*
X153019048Y-107116571D01*
X153066667Y-107211810D01*
X153066667Y-107449905D01*
X153019048Y-107545143D01*
X152971429Y-107592762D01*
X152876191Y-107640381D01*
X152590476Y-107640381D01*
X152495238Y-107592762D01*
X152447619Y-107545143D01*
X138438095Y-112990381D02*
X138438095Y-113799905D01*
X138485714Y-113895143D01*
X138533333Y-113942762D01*
X138628571Y-113990381D01*
X138819048Y-113990381D01*
X138914286Y-113942762D01*
X138961905Y-113895143D01*
X139009524Y-113799905D01*
X139009524Y-112990381D01*
X139438095Y-113942762D02*
X139580952Y-113990381D01*
X139819048Y-113990381D01*
X139914286Y-113942762D01*
X139961905Y-113895143D01*
X140009524Y-113799905D01*
X140009524Y-113704667D01*
X139961905Y-113609429D01*
X139914286Y-113561810D01*
X139819048Y-113514190D01*
X139628571Y-113466571D01*
X139533333Y-113418952D01*
X139485714Y-113371333D01*
X139438095Y-113276095D01*
X139438095Y-113180857D01*
X139485714Y-113085619D01*
X139533333Y-113038000D01*
X139628571Y-112990381D01*
X139866667Y-112990381D01*
X140009524Y-113038000D01*
X140771429Y-113466571D02*
X140914286Y-113514190D01*
X140961905Y-113561810D01*
X141009524Y-113657048D01*
X141009524Y-113799905D01*
X140961905Y-113895143D01*
X140914286Y-113942762D01*
X140819048Y-113990381D01*
X140438095Y-113990381D01*
X140438095Y-112990381D01*
X140771429Y-112990381D01*
X140866667Y-113038000D01*
X140914286Y-113085619D01*
X140961905Y-113180857D01*
X140961905Y-113276095D01*
X140914286Y-113371333D01*
X140866667Y-113418952D01*
X140771429Y-113466571D01*
X140438095Y-113466571D01*
X151423810Y-90368381D02*
X151423810Y-89368381D01*
X151852381Y-90320762D02*
X151995238Y-90368381D01*
X152233334Y-90368381D01*
X152328572Y-90320762D01*
X152376191Y-90273143D01*
X152423810Y-90177905D01*
X152423810Y-90082667D01*
X152376191Y-89987429D01*
X152328572Y-89939810D01*
X152233334Y-89892190D01*
X152042857Y-89844571D01*
X151947619Y-89796952D01*
X151900000Y-89749333D01*
X151852381Y-89654095D01*
X151852381Y-89558857D01*
X151900000Y-89463619D01*
X151947619Y-89416000D01*
X152042857Y-89368381D01*
X152280953Y-89368381D01*
X152423810Y-89416000D01*
X152852381Y-90368381D02*
X152852381Y-89368381D01*
X153233334Y-89368381D01*
X153328572Y-89416000D01*
X153376191Y-89463619D01*
X153423810Y-89558857D01*
X153423810Y-89701714D01*
X153376191Y-89796952D01*
X153328572Y-89844571D01*
X153233334Y-89892190D01*
X152852381Y-89892190D01*
X142652762Y-97829619D02*
X142557524Y-97782000D01*
X142462286Y-97686762D01*
X142319429Y-97543905D01*
X142224190Y-97496286D01*
X142128952Y-97496286D01*
X142176571Y-97734381D02*
X142081333Y-97686762D01*
X141986095Y-97591524D01*
X141938476Y-97401048D01*
X141938476Y-97067714D01*
X141986095Y-96877238D01*
X142081333Y-96782000D01*
X142176571Y-96734381D01*
X142367048Y-96734381D01*
X142462286Y-96782000D01*
X142557524Y-96877238D01*
X142605143Y-97067714D01*
X142605143Y-97401048D01*
X142557524Y-97591524D01*
X142462286Y-97686762D01*
X142367048Y-97734381D01*
X142176571Y-97734381D01*
X142986095Y-96829619D02*
X143033714Y-96782000D01*
X143128952Y-96734381D01*
X143367048Y-96734381D01*
X143462286Y-96782000D01*
X143509905Y-96829619D01*
X143557524Y-96924857D01*
X143557524Y-97020095D01*
X143509905Y-97162952D01*
X142938476Y-97734381D01*
X143557524Y-97734381D01*
X151638095Y-83018381D02*
X151638095Y-83827905D01*
X151685714Y-83923143D01*
X151733333Y-83970762D01*
X151828571Y-84018381D01*
X152019048Y-84018381D01*
X152114286Y-83970762D01*
X152161905Y-83923143D01*
X152209524Y-83827905D01*
X152209524Y-83018381D01*
X153209524Y-84018381D02*
X152638095Y-84018381D01*
X152923809Y-84018381D02*
X152923809Y-83018381D01*
X152828571Y-83161238D01*
X152733333Y-83256476D01*
X152638095Y-83304095D01*
X138938095Y-85050381D02*
X138938095Y-85859905D01*
X138985714Y-85955143D01*
X139033333Y-86002762D01*
X139128571Y-86050381D01*
X139319048Y-86050381D01*
X139414286Y-86002762D01*
X139461905Y-85955143D01*
X139509524Y-85859905D01*
X139509524Y-85050381D01*
X139890476Y-85050381D02*
X140509524Y-85050381D01*
X140176190Y-85431333D01*
X140319048Y-85431333D01*
X140414286Y-85478952D01*
X140461905Y-85526571D01*
X140509524Y-85621810D01*
X140509524Y-85859905D01*
X140461905Y-85955143D01*
X140414286Y-86002762D01*
X140319048Y-86050381D01*
X140033333Y-86050381D01*
X139938095Y-86002762D01*
X139890476Y-85955143D01*
X139604762Y-97829619D02*
X139509524Y-97782000D01*
X139414286Y-97686762D01*
X139271429Y-97543905D01*
X139176190Y-97496286D01*
X139080952Y-97496286D01*
X139128571Y-97734381D02*
X139033333Y-97686762D01*
X138938095Y-97591524D01*
X138890476Y-97401048D01*
X138890476Y-97067714D01*
X138938095Y-96877238D01*
X139033333Y-96782000D01*
X139128571Y-96734381D01*
X139319048Y-96734381D01*
X139414286Y-96782000D01*
X139509524Y-96877238D01*
X139557143Y-97067714D01*
X139557143Y-97401048D01*
X139509524Y-97591524D01*
X139414286Y-97686762D01*
X139319048Y-97734381D01*
X139128571Y-97734381D01*
X139890476Y-96734381D02*
X140509524Y-96734381D01*
X140176190Y-97115333D01*
X140319048Y-97115333D01*
X140414286Y-97162952D01*
X140461905Y-97210571D01*
X140509524Y-97305810D01*
X140509524Y-97543905D01*
X140461905Y-97639143D01*
X140414286Y-97686762D01*
X140319048Y-97734381D01*
X140033333Y-97734381D01*
X139938095Y-97686762D01*
X139890476Y-97639143D01*
M02*
