M48
;DRILL file {KiCad 4.0.7} date Thu Jul 12 22:31:58 2018
;FORMAT={2:4/ absolute / inch / suppress leading zeros}
FMAT,2
INCH,TZ
T1C0.016
T2C0.024
T3C0.039
T4C0.040
T5C0.043
T6C0.087
%
G90
G05
M72
T1
X48850Y-31500
X49041Y-31041
X49041Y-31959
X49300Y-41900
X49500Y-30850
X49500Y-32150
X49500Y-47700
X49959Y-31041
X49959Y-31959
X50100Y-45500
X50150Y-31500
X50600Y-43114
X50600Y-47700
X51500Y-43400
X51600Y-35800
X51600Y-37300
X51600Y-45600
X51700Y-44300
X52300Y-44300
X52500Y-39100
X52500Y-39500
X52500Y-39900
X52600Y-38100
X52600Y-40600
X53400Y-41800
X53400Y-42400
X53400Y-47000
X53600Y-35600
X54200Y-37000
X54300Y-37700
X54300Y-42400
X54700Y-37700
X54700Y-40800
X54800Y-40000
X54900Y-42400
X55000Y-47800
X55200Y-39528
X55300Y-37700
X55781Y-37700
X56000Y-44400
X56100Y-37700
X56500Y-40300
X56500Y-40681
X56500Y-41000
X56700Y-44400
X57100Y-46864
X57800Y-35700
X57900Y-40400
X58100Y-47500
X58300Y-36900
X58300Y-41500
X58500Y-38000
X58900Y-43500
X59100Y-39900
X59400Y-42400
X59850Y-31500
X60041Y-31041
X60041Y-31959
X60100Y-39800
X60100Y-41300
X60500Y-30850
X60500Y-32150
X60959Y-31041
X60959Y-31959
X61150Y-31500
T2
X59500Y-34200
X60000Y-34200
X60500Y-34200
T3
X59500Y-36400
X59500Y-37400
X59500Y-38400
X60500Y-36400
X60500Y-37400
X60500Y-38400
T4
X58100Y-46000
X59100Y-46000
T5
X49400Y-34100
X49400Y-37100
X50600Y-34100
X50600Y-37100
T6
X49500Y-31500
X60500Y-31500
T0
M30
