G04 #@! TF.FileFunction,Paste,Top*
%FSLAX46Y46*%
G04 Gerber Fmt 4.6, Leading zero omitted, Abs format (unit mm)*
G04 Created by KiCad (PCBNEW 4.0.7) date Thu Jul 12 22:31:34 2018*
%MOMM*%
%LPD*%
G01*
G04 APERTURE LIST*
%ADD10C,0.100000*%
%ADD11R,0.900000X1.440000*%
%ADD12R,1.890522X5.040630*%
%ADD13R,1.440000X0.900000*%
%ADD14R,0.900000X1.125000*%
%ADD15R,1.125000X0.900000*%
%ADD16R,2.295000X2.250000*%
%ADD17R,0.540000X0.990000*%
%ADD18R,0.450000X2.070000*%
%ADD19R,1.800000X2.250000*%
%ADD20R,0.720000X0.810000*%
%ADD21R,1.530000X0.810000*%
%ADD22R,0.810000X1.530000*%
%ADD23R,0.810000X0.450000*%
%ADD24R,0.450000X0.810000*%
%ADD25R,2.250000X1.350000*%
%ADD26R,0.225000X1.350000*%
%ADD27R,0.457200X0.320400*%
%ADD28R,0.630000X1.170000*%
G04 APERTURE END LIST*
D10*
D11*
X152424000Y-117856000D03*
X155424000Y-117856000D03*
D12*
X126238000Y-100561140D03*
X126238000Y-110258860D03*
D13*
X149606000Y-111990000D03*
X149606000Y-108990000D03*
D14*
X132064000Y-97536000D03*
X130064000Y-97536000D03*
X132064000Y-101092000D03*
X130064000Y-101092000D03*
D15*
X148336000Y-98568000D03*
X148336000Y-100568000D03*
D16*
X150129000Y-103886000D03*
X155179000Y-103886000D03*
D14*
X132048000Y-103124000D03*
X130048000Y-103124000D03*
X132064000Y-99314000D03*
X130064000Y-99314000D03*
D15*
X144018000Y-109490000D03*
X144018000Y-111490000D03*
X145796000Y-109490000D03*
X145796000Y-111490000D03*
X147574000Y-109490000D03*
X147574000Y-111490000D03*
D17*
X153350000Y-112094000D03*
X153350000Y-109294000D03*
X152400000Y-109294000D03*
X151450000Y-109294000D03*
X151450000Y-112094000D03*
D18*
X138100000Y-115818000D03*
X138900000Y-115818000D03*
X139700000Y-115818000D03*
X140500000Y-115818000D03*
X141300000Y-115818000D03*
D19*
X135250000Y-115918000D03*
X135250000Y-121418000D03*
X144150000Y-115918000D03*
X144150000Y-121418000D03*
D20*
X141732000Y-100838000D03*
X143632000Y-100838000D03*
X142682000Y-98838000D03*
D21*
X155194000Y-111866000D03*
X155194000Y-108966000D03*
D22*
X155374000Y-115570000D03*
X152474000Y-115570000D03*
D21*
X146050000Y-101018000D03*
X146050000Y-98118000D03*
D23*
X141732000Y-102628000D03*
X141732000Y-104128000D03*
X140208000Y-102628000D03*
X140208000Y-104128000D03*
D22*
X132514000Y-105410000D03*
X129614000Y-105410000D03*
D24*
X131814000Y-107442000D03*
X130314000Y-107442000D03*
D23*
X132842000Y-109740000D03*
X132842000Y-111240000D03*
X141478000Y-109740000D03*
X141478000Y-111240000D03*
D21*
X139446000Y-109040000D03*
X139446000Y-111940000D03*
X137160000Y-109040000D03*
X137160000Y-111940000D03*
X134874000Y-109040000D03*
X134874000Y-111940000D03*
D25*
X147500000Y-88150000D03*
X131900000Y-88150000D03*
D26*
X145450000Y-92250000D03*
X144950000Y-92250000D03*
X144450000Y-92250000D03*
X143950000Y-92250000D03*
X143450000Y-92250000D03*
X142950000Y-92250000D03*
X142450000Y-92250000D03*
X141950000Y-92250000D03*
X141450000Y-92250000D03*
X140950000Y-92250000D03*
X140450000Y-92250000D03*
X139950000Y-92250000D03*
X139450000Y-92250000D03*
X138950000Y-92250000D03*
X138450000Y-92250000D03*
X137950000Y-92250000D03*
X137450000Y-92250000D03*
X136950000Y-92250000D03*
X136450000Y-92250000D03*
X135950000Y-92250000D03*
X135450000Y-92250000D03*
X134950000Y-92250000D03*
X134450000Y-92250000D03*
X133950000Y-92250000D03*
D27*
X140348000Y-99568000D03*
X139053000Y-99068000D03*
X139053000Y-100068000D03*
D28*
X146812000Y-105918000D03*
X144912000Y-105918000D03*
M02*
