G04 #@! TF.FileFunction,Legend,Bot*
%FSLAX46Y46*%
G04 Gerber Fmt 4.6, Leading zero omitted, Abs format (unit mm)*
G04 Created by KiCad (PCBNEW 4.0.7) date Thu Jul 12 22:31:34 2018*
%MOMM*%
%LPD*%
G01*
G04 APERTURE LIST*
%ADD10C,0.100000*%
%ADD11C,0.300000*%
%ADD12C,0.120000*%
%ADD13C,0.150000*%
G04 APERTURE END LIST*
D10*
D11*
X146378572Y-88880000D02*
X146450000Y-88808571D01*
X146592857Y-88594286D01*
X146664286Y-88451429D01*
X146735715Y-88237143D01*
X146807143Y-87880000D01*
X146807143Y-87594286D01*
X146735715Y-87237143D01*
X146664286Y-87022857D01*
X146592857Y-86880000D01*
X146450000Y-86665714D01*
X146378572Y-86594286D01*
X145807143Y-88308571D02*
X145807143Y-87308571D01*
X145807143Y-87451429D02*
X145735715Y-87380000D01*
X145592857Y-87308571D01*
X145378572Y-87308571D01*
X145235715Y-87380000D01*
X145164286Y-87522857D01*
X145164286Y-88308571D01*
X145164286Y-87522857D02*
X145092857Y-87380000D01*
X144950000Y-87308571D01*
X144735715Y-87308571D01*
X144592857Y-87380000D01*
X144521429Y-87522857D01*
X144521429Y-88308571D01*
X143164286Y-88237143D02*
X143307143Y-88308571D01*
X143592857Y-88308571D01*
X143735715Y-88237143D01*
X143807143Y-88165714D01*
X143878572Y-88022857D01*
X143878572Y-87594286D01*
X143807143Y-87451429D01*
X143735715Y-87380000D01*
X143592857Y-87308571D01*
X143307143Y-87308571D01*
X143164286Y-87380000D01*
X141878572Y-87308571D02*
X141878572Y-88308571D01*
X142521429Y-87308571D02*
X142521429Y-88094286D01*
X142450001Y-88237143D01*
X142307143Y-88308571D01*
X142092858Y-88308571D01*
X141950001Y-88237143D01*
X141878572Y-88165714D01*
X141235715Y-88237143D02*
X141092858Y-88308571D01*
X140807143Y-88308571D01*
X140664286Y-88237143D01*
X140592858Y-88094286D01*
X140592858Y-88022857D01*
X140664286Y-87880000D01*
X140807143Y-87808571D01*
X141021429Y-87808571D01*
X141164286Y-87737143D01*
X141235715Y-87594286D01*
X141235715Y-87522857D01*
X141164286Y-87380000D01*
X141021429Y-87308571D01*
X140807143Y-87308571D01*
X140664286Y-87380000D01*
X139950000Y-88308571D02*
X139950000Y-87308571D01*
X139950000Y-86808571D02*
X140021429Y-86880000D01*
X139950000Y-86951429D01*
X139878572Y-86880000D01*
X139950000Y-86808571D01*
X139950000Y-86951429D01*
X139235714Y-88308571D02*
X139235714Y-87308571D01*
X139235714Y-87451429D02*
X139164286Y-87380000D01*
X139021428Y-87308571D01*
X138807143Y-87308571D01*
X138664286Y-87380000D01*
X138592857Y-87522857D01*
X138592857Y-88308571D01*
X138592857Y-87522857D02*
X138521428Y-87380000D01*
X138378571Y-87308571D01*
X138164286Y-87308571D01*
X138021428Y-87380000D01*
X137950000Y-87522857D01*
X137950000Y-88308571D01*
X137235714Y-88165714D02*
X137164286Y-88237143D01*
X137235714Y-88308571D01*
X137307143Y-88237143D01*
X137235714Y-88165714D01*
X137235714Y-88308571D01*
X136307142Y-88308571D02*
X136450000Y-88237143D01*
X136521428Y-88165714D01*
X136592857Y-88022857D01*
X136592857Y-87594286D01*
X136521428Y-87451429D01*
X136450000Y-87380000D01*
X136307142Y-87308571D01*
X136092857Y-87308571D01*
X135950000Y-87380000D01*
X135878571Y-87451429D01*
X135807142Y-87594286D01*
X135807142Y-88022857D01*
X135878571Y-88165714D01*
X135950000Y-88237143D01*
X136092857Y-88308571D01*
X136307142Y-88308571D01*
X135164285Y-88308571D02*
X135164285Y-87308571D01*
X135164285Y-87594286D02*
X135092857Y-87451429D01*
X135021428Y-87380000D01*
X134878571Y-87308571D01*
X134735714Y-87308571D01*
X133592857Y-87308571D02*
X133592857Y-88522857D01*
X133664286Y-88665714D01*
X133735714Y-88737143D01*
X133878571Y-88808571D01*
X134092857Y-88808571D01*
X134235714Y-88737143D01*
X133592857Y-88237143D02*
X133735714Y-88308571D01*
X134021428Y-88308571D01*
X134164286Y-88237143D01*
X134235714Y-88165714D01*
X134307143Y-88022857D01*
X134307143Y-87594286D01*
X134235714Y-87451429D01*
X134164286Y-87380000D01*
X134021428Y-87308571D01*
X133735714Y-87308571D01*
X133592857Y-87380000D01*
X133021428Y-88880000D02*
X132950000Y-88808571D01*
X132807143Y-88594286D01*
X132735714Y-88451429D01*
X132664285Y-88237143D01*
X132592857Y-87880000D01*
X132592857Y-87594286D01*
X132664285Y-87237143D01*
X132735714Y-87022857D01*
X132807143Y-86880000D01*
X132950000Y-86665714D01*
X133021428Y-86594286D01*
X155328571Y-119574571D02*
X155185714Y-119574571D01*
X155042857Y-119646000D01*
X154971428Y-119717429D01*
X154899999Y-119860286D01*
X154828571Y-120146000D01*
X154828571Y-120503143D01*
X154899999Y-120788857D01*
X154971428Y-120931714D01*
X155042857Y-121003143D01*
X155185714Y-121074571D01*
X155328571Y-121074571D01*
X155471428Y-121003143D01*
X155542857Y-120931714D01*
X155614285Y-120788857D01*
X155685714Y-120503143D01*
X155685714Y-120146000D01*
X155614285Y-119860286D01*
X155542857Y-119717429D01*
X155471428Y-119646000D01*
X155328571Y-119574571D01*
X154185714Y-120931714D02*
X154114286Y-121003143D01*
X154185714Y-121074571D01*
X154257143Y-121003143D01*
X154185714Y-120931714D01*
X154185714Y-121074571D01*
X152685714Y-121074571D02*
X153542857Y-121074571D01*
X153114285Y-121074571D02*
X153114285Y-119574571D01*
X153257142Y-119788857D01*
X153400000Y-119931714D01*
X153542857Y-120003143D01*
X152042857Y-120931714D02*
X151971429Y-121003143D01*
X152042857Y-121074571D01*
X152114286Y-121003143D01*
X152042857Y-120931714D01*
X152042857Y-121074571D01*
X151400000Y-119717429D02*
X151328571Y-119646000D01*
X151185714Y-119574571D01*
X150828571Y-119574571D01*
X150685714Y-119646000D01*
X150614285Y-119717429D01*
X150542857Y-119860286D01*
X150542857Y-120003143D01*
X150614285Y-120217429D01*
X151471428Y-121074571D01*
X150542857Y-121074571D01*
X149971429Y-119717429D02*
X149900000Y-119646000D01*
X149757143Y-119574571D01*
X149400000Y-119574571D01*
X149257143Y-119646000D01*
X149185714Y-119717429D01*
X149114286Y-119860286D01*
X149114286Y-120003143D01*
X149185714Y-120217429D01*
X150042857Y-121074571D01*
X149114286Y-121074571D01*
X142307142Y-78670571D02*
X141307142Y-80170571D01*
X141307142Y-78670571D02*
X142307142Y-80170571D01*
X140521428Y-80170571D02*
X140664286Y-80099143D01*
X140735714Y-79956286D01*
X140735714Y-78670571D01*
X139950000Y-80170571D02*
X139950000Y-79170571D01*
X139950000Y-78670571D02*
X140021429Y-78742000D01*
X139950000Y-78813429D01*
X139878572Y-78742000D01*
X139950000Y-78670571D01*
X139950000Y-78813429D01*
X139235714Y-79170571D02*
X139235714Y-80170571D01*
X139235714Y-79313429D02*
X139164286Y-79242000D01*
X139021428Y-79170571D01*
X138807143Y-79170571D01*
X138664286Y-79242000D01*
X138592857Y-79384857D01*
X138592857Y-80170571D01*
X137235714Y-79170571D02*
X137235714Y-80384857D01*
X137307143Y-80527714D01*
X137378571Y-80599143D01*
X137521428Y-80670571D01*
X137735714Y-80670571D01*
X137878571Y-80599143D01*
X137235714Y-80099143D02*
X137378571Y-80170571D01*
X137664285Y-80170571D01*
X137807143Y-80099143D01*
X137878571Y-80027714D01*
X137950000Y-79884857D01*
X137950000Y-79456286D01*
X137878571Y-79313429D01*
X137807143Y-79242000D01*
X137664285Y-79170571D01*
X137378571Y-79170571D01*
X137235714Y-79242000D01*
X148128571Y-81220571D02*
X147628571Y-82720571D01*
X147128571Y-81220571D01*
X146628571Y-82720571D02*
X146628571Y-81720571D01*
X146628571Y-81220571D02*
X146700000Y-81292000D01*
X146628571Y-81363429D01*
X146557143Y-81292000D01*
X146628571Y-81220571D01*
X146628571Y-81363429D01*
X145914285Y-82720571D02*
X145914285Y-81720571D01*
X145914285Y-82006286D02*
X145842857Y-81863429D01*
X145771428Y-81792000D01*
X145628571Y-81720571D01*
X145485714Y-81720571D01*
X145200000Y-81720571D02*
X144628571Y-81720571D01*
X144985714Y-81220571D02*
X144985714Y-82506286D01*
X144914286Y-82649143D01*
X144771428Y-82720571D01*
X144628571Y-82720571D01*
X143485714Y-81720571D02*
X143485714Y-82720571D01*
X144128571Y-81720571D02*
X144128571Y-82506286D01*
X144057143Y-82649143D01*
X143914285Y-82720571D01*
X143700000Y-82720571D01*
X143557143Y-82649143D01*
X143485714Y-82577714D01*
X142128571Y-82720571D02*
X142128571Y-81934857D01*
X142200000Y-81792000D01*
X142342857Y-81720571D01*
X142628571Y-81720571D01*
X142771428Y-81792000D01*
X142128571Y-82649143D02*
X142271428Y-82720571D01*
X142628571Y-82720571D01*
X142771428Y-82649143D01*
X142842857Y-82506286D01*
X142842857Y-82363429D01*
X142771428Y-82220571D01*
X142628571Y-82149143D01*
X142271428Y-82149143D01*
X142128571Y-82077714D01*
X141199999Y-82720571D02*
X141342857Y-82649143D01*
X141414285Y-82506286D01*
X141414285Y-81220571D01*
X139485714Y-82720571D02*
X139485714Y-81220571D01*
X138985714Y-82292000D01*
X138485714Y-81220571D01*
X138485714Y-82720571D01*
X137557142Y-82720571D02*
X137700000Y-82649143D01*
X137771428Y-82577714D01*
X137842857Y-82434857D01*
X137842857Y-82006286D01*
X137771428Y-81863429D01*
X137700000Y-81792000D01*
X137557142Y-81720571D01*
X137342857Y-81720571D01*
X137200000Y-81792000D01*
X137128571Y-81863429D01*
X137057142Y-82006286D01*
X137057142Y-82434857D01*
X137128571Y-82577714D01*
X137200000Y-82649143D01*
X137342857Y-82720571D01*
X137557142Y-82720571D01*
X136414285Y-81720571D02*
X136414285Y-82720571D01*
X136414285Y-81863429D02*
X136342857Y-81792000D01*
X136199999Y-81720571D01*
X135985714Y-81720571D01*
X135842857Y-81792000D01*
X135771428Y-81934857D01*
X135771428Y-82720571D01*
X135128571Y-82649143D02*
X134985714Y-82720571D01*
X134699999Y-82720571D01*
X134557142Y-82649143D01*
X134485714Y-82506286D01*
X134485714Y-82434857D01*
X134557142Y-82292000D01*
X134699999Y-82220571D01*
X134914285Y-82220571D01*
X135057142Y-82149143D01*
X135128571Y-82006286D01*
X135128571Y-81934857D01*
X135057142Y-81792000D01*
X134914285Y-81720571D01*
X134699999Y-81720571D01*
X134557142Y-81792000D01*
X134057142Y-81720571D02*
X133485713Y-81720571D01*
X133842856Y-81220571D02*
X133842856Y-82506286D01*
X133771428Y-82649143D01*
X133628570Y-82720571D01*
X133485713Y-82720571D01*
X132414285Y-82649143D02*
X132557142Y-82720571D01*
X132842856Y-82720571D01*
X132985713Y-82649143D01*
X133057142Y-82506286D01*
X133057142Y-81934857D01*
X132985713Y-81792000D01*
X132842856Y-81720571D01*
X132557142Y-81720571D01*
X132414285Y-81792000D01*
X132342856Y-81934857D01*
X132342856Y-82077714D01*
X133057142Y-82220571D01*
X131699999Y-82720571D02*
X131699999Y-81720571D01*
X131699999Y-82006286D02*
X131628571Y-81863429D01*
X131557142Y-81792000D01*
X131414285Y-81720571D01*
X131271428Y-81720571D01*
X145628571Y-85270571D02*
X145628571Y-83770571D01*
X145628571Y-84342000D02*
X145485714Y-84270571D01*
X145200000Y-84270571D01*
X145057143Y-84342000D01*
X144985714Y-84413429D01*
X144914285Y-84556286D01*
X144914285Y-84984857D01*
X144985714Y-85127714D01*
X145057143Y-85199143D01*
X145200000Y-85270571D01*
X145485714Y-85270571D01*
X145628571Y-85199143D01*
X144414285Y-84270571D02*
X144057142Y-85270571D01*
X143700000Y-84270571D02*
X144057142Y-85270571D01*
X144200000Y-85627714D01*
X144271428Y-85699143D01*
X144414285Y-85770571D01*
X141985714Y-85270571D02*
X141985714Y-83770571D01*
X141485714Y-84842000D01*
X140985714Y-83770571D01*
X140985714Y-85270571D01*
X139414285Y-85127714D02*
X139485714Y-85199143D01*
X139700000Y-85270571D01*
X139842857Y-85270571D01*
X140057142Y-85199143D01*
X140200000Y-85056286D01*
X140271428Y-84913429D01*
X140342857Y-84627714D01*
X140342857Y-84413429D01*
X140271428Y-84127714D01*
X140200000Y-83984857D01*
X140057142Y-83842000D01*
X139842857Y-83770571D01*
X139700000Y-83770571D01*
X139485714Y-83842000D01*
X139414285Y-83913429D01*
X138771428Y-83770571D02*
X138771428Y-84984857D01*
X138700000Y-85127714D01*
X138628571Y-85199143D01*
X138485714Y-85270571D01*
X138200000Y-85270571D01*
X138057142Y-85199143D01*
X137985714Y-85127714D01*
X137914285Y-84984857D01*
X137914285Y-83770571D01*
X137271428Y-85199143D02*
X137057142Y-85270571D01*
X136699999Y-85270571D01*
X136557142Y-85199143D01*
X136485713Y-85127714D01*
X136414285Y-84984857D01*
X136414285Y-84842000D01*
X136485713Y-84699143D01*
X136557142Y-84627714D01*
X136699999Y-84556286D01*
X136985713Y-84484857D01*
X137128571Y-84413429D01*
X137199999Y-84342000D01*
X137271428Y-84199143D01*
X137271428Y-84056286D01*
X137199999Y-83913429D01*
X137128571Y-83842000D01*
X136985713Y-83770571D01*
X136628571Y-83770571D01*
X136414285Y-83842000D01*
X135771428Y-85270571D02*
X135771428Y-84270571D01*
X135771428Y-83770571D02*
X135842857Y-83842000D01*
X135771428Y-83913429D01*
X135700000Y-83842000D01*
X135771428Y-83770571D01*
X135771428Y-83913429D01*
X135057142Y-85270571D02*
X135057142Y-84270571D01*
X135057142Y-84413429D02*
X134985714Y-84342000D01*
X134842856Y-84270571D01*
X134628571Y-84270571D01*
X134485714Y-84342000D01*
X134414285Y-84484857D01*
X134414285Y-85270571D01*
X134414285Y-84484857D02*
X134342856Y-84342000D01*
X134199999Y-84270571D01*
X133985714Y-84270571D01*
X133842856Y-84342000D01*
X133771428Y-84484857D01*
X133771428Y-85270571D01*
D12*
X134928000Y-94546000D02*
X134928000Y-92546000D01*
X132788000Y-92546000D02*
X132788000Y-94546000D01*
X140296000Y-91956000D02*
X140296000Y-92956000D01*
X138596000Y-92956000D02*
X138596000Y-91956000D01*
X127504000Y-119364000D02*
X127504000Y-117364000D01*
X129544000Y-117364000D02*
X129544000Y-119364000D01*
X140370000Y-92614000D02*
X140370000Y-93314000D01*
X141570000Y-93314000D02*
X141570000Y-92614000D01*
X138220000Y-120158000D02*
X138220000Y-122158000D01*
X141180000Y-122158000D02*
X141180000Y-120158000D01*
X155694000Y-101724000D02*
X155694000Y-99424000D01*
X155694000Y-99424000D02*
X148294000Y-99424000D01*
X148294000Y-99424000D02*
X148294000Y-101724000D01*
X148294000Y-104524000D02*
X148294000Y-106824000D01*
X148294000Y-106824000D02*
X155694000Y-106824000D01*
X155694000Y-106824000D02*
X155694000Y-104524000D01*
X142946000Y-120652000D02*
X143876000Y-120652000D01*
X146106000Y-120652000D02*
X145176000Y-120652000D01*
X146106000Y-120652000D02*
X146106000Y-122812000D01*
X142946000Y-120652000D02*
X142946000Y-122112000D01*
X136960000Y-94546000D02*
X136960000Y-92546000D01*
X134820000Y-92546000D02*
X134820000Y-94546000D01*
X127118000Y-118964000D02*
X127118000Y-117764000D01*
X125358000Y-117764000D02*
X125358000Y-118964000D01*
X123326000Y-117764000D02*
X123326000Y-118964000D01*
X125086000Y-118964000D02*
X125086000Y-117764000D01*
D13*
X137345000Y-105225000D02*
X137345000Y-105000000D01*
X144595000Y-105225000D02*
X144595000Y-104900000D01*
X144595000Y-97975000D02*
X144595000Y-98300000D01*
X137345000Y-97975000D02*
X137345000Y-98300000D01*
X137345000Y-105225000D02*
X137670000Y-105225000D01*
X137345000Y-97975000D02*
X137670000Y-97975000D01*
X144595000Y-97975000D02*
X144270000Y-97975000D01*
X144595000Y-105225000D02*
X144270000Y-105225000D01*
X137345000Y-105000000D02*
X135920000Y-105000000D01*
D12*
X133488000Y-120990000D02*
X131688000Y-120990000D01*
X131688000Y-117770000D02*
X134138000Y-117770000D01*
X132008000Y-114990000D02*
X132008000Y-114960000D01*
X132008000Y-108530000D02*
X132008000Y-108560000D01*
X125548000Y-108530000D02*
X125548000Y-108560000D01*
X125548000Y-114960000D02*
X125548000Y-114990000D01*
X132008000Y-113060000D02*
X132008000Y-110460000D01*
X125548000Y-114990000D02*
X132008000Y-114990000D01*
X125548000Y-113060000D02*
X125548000Y-110460000D01*
X125548000Y-108530000D02*
X132008000Y-108530000D01*
X142930000Y-116768000D02*
X142930000Y-116738000D01*
X142930000Y-110308000D02*
X142930000Y-110338000D01*
X136470000Y-110308000D02*
X136470000Y-110338000D01*
X136470000Y-116738000D02*
X136470000Y-116768000D01*
X142930000Y-114838000D02*
X142930000Y-112238000D01*
X136470000Y-116768000D02*
X142930000Y-116768000D01*
X136470000Y-114838000D02*
X136470000Y-112238000D01*
X136470000Y-110308000D02*
X142930000Y-110308000D01*
X153852000Y-114990000D02*
X153852000Y-114960000D01*
X153852000Y-108530000D02*
X153852000Y-108560000D01*
X147392000Y-108530000D02*
X147392000Y-108560000D01*
X147392000Y-114960000D02*
X147392000Y-114990000D01*
X153852000Y-113060000D02*
X153852000Y-110460000D01*
X147392000Y-114990000D02*
X153852000Y-114990000D01*
X147392000Y-113060000D02*
X147392000Y-110460000D01*
X147392000Y-108530000D02*
X153852000Y-108530000D01*
X146650000Y-105800000D02*
X145450000Y-105800000D01*
X145450000Y-107560000D02*
X146650000Y-107560000D01*
D13*
X139866666Y-118562381D02*
X140342857Y-118562381D01*
X140342857Y-117562381D01*
X139009523Y-118562381D02*
X139580952Y-118562381D01*
X139295238Y-118562381D02*
X139295238Y-117562381D01*
X139390476Y-117705238D01*
X139485714Y-117800476D01*
X139580952Y-117848095D01*
X149264666Y-99004381D02*
X149740857Y-99004381D01*
X149740857Y-98004381D01*
X148978952Y-98099619D02*
X148931333Y-98052000D01*
X148836095Y-98004381D01*
X148597999Y-98004381D01*
X148502761Y-98052000D01*
X148455142Y-98099619D01*
X148407523Y-98194857D01*
X148407523Y-98290095D01*
X148455142Y-98432952D01*
X149026571Y-99004381D01*
X148407523Y-99004381D01*
X144621238Y-119165619D02*
X144716476Y-119118000D01*
X144811714Y-119022762D01*
X144954571Y-118879905D01*
X145049810Y-118832286D01*
X145145048Y-118832286D01*
X145097429Y-119070381D02*
X145192667Y-119022762D01*
X145287905Y-118927524D01*
X145335524Y-118737048D01*
X145335524Y-118403714D01*
X145287905Y-118213238D01*
X145192667Y-118118000D01*
X145097429Y-118070381D01*
X144906952Y-118070381D01*
X144811714Y-118118000D01*
X144716476Y-118213238D01*
X144668857Y-118403714D01*
X144668857Y-118737048D01*
X144716476Y-118927524D01*
X144811714Y-119022762D01*
X144906952Y-119070381D01*
X145097429Y-119070381D01*
X143716476Y-119070381D02*
X144287905Y-119070381D01*
X144002191Y-119070381D02*
X144002191Y-118070381D01*
X144097429Y-118213238D01*
X144192667Y-118308476D01*
X144287905Y-118356095D01*
X141731905Y-94956381D02*
X141731905Y-95765905D01*
X141684286Y-95861143D01*
X141636667Y-95908762D01*
X141541429Y-95956381D01*
X141350952Y-95956381D01*
X141255714Y-95908762D01*
X141208095Y-95861143D01*
X141160476Y-95765905D01*
X141160476Y-94956381D01*
X140731905Y-95051619D02*
X140684286Y-95004000D01*
X140589048Y-94956381D01*
X140350952Y-94956381D01*
X140255714Y-95004000D01*
X140208095Y-95051619D01*
X140160476Y-95146857D01*
X140160476Y-95242095D01*
X140208095Y-95384952D01*
X140779524Y-95956381D01*
X140160476Y-95956381D01*
X133349905Y-116038381D02*
X133349905Y-116847905D01*
X133302286Y-116943143D01*
X133254667Y-116990762D01*
X133159429Y-117038381D01*
X132968952Y-117038381D01*
X132873714Y-116990762D01*
X132826095Y-116943143D01*
X132778476Y-116847905D01*
X132778476Y-116038381D01*
X131873714Y-116371714D02*
X131873714Y-117038381D01*
X132111810Y-115990762D02*
X132349905Y-116705048D01*
X131730857Y-116705048D01*
X130111333Y-108100762D02*
X129968476Y-108148381D01*
X129730380Y-108148381D01*
X129635142Y-108100762D01*
X129587523Y-108053143D01*
X129539904Y-107957905D01*
X129539904Y-107862667D01*
X129587523Y-107767429D01*
X129635142Y-107719810D01*
X129730380Y-107672190D01*
X129920857Y-107624571D01*
X130016095Y-107576952D01*
X130063714Y-107529333D01*
X130111333Y-107434095D01*
X130111333Y-107338857D01*
X130063714Y-107243619D01*
X130016095Y-107196000D01*
X129920857Y-107148381D01*
X129682761Y-107148381D01*
X129539904Y-107196000D01*
X129206571Y-107148381D02*
X128968476Y-108148381D01*
X128777999Y-107434095D01*
X128587523Y-108148381D01*
X128349428Y-107148381D01*
X128016095Y-107243619D02*
X127968476Y-107196000D01*
X127873238Y-107148381D01*
X127635142Y-107148381D01*
X127539904Y-107196000D01*
X127492285Y-107243619D01*
X127444666Y-107338857D01*
X127444666Y-107434095D01*
X127492285Y-107576952D01*
X128063714Y-108148381D01*
X127444666Y-108148381D01*
X141033333Y-109878762D02*
X140890476Y-109926381D01*
X140652380Y-109926381D01*
X140557142Y-109878762D01*
X140509523Y-109831143D01*
X140461904Y-109735905D01*
X140461904Y-109640667D01*
X140509523Y-109545429D01*
X140557142Y-109497810D01*
X140652380Y-109450190D01*
X140842857Y-109402571D01*
X140938095Y-109354952D01*
X140985714Y-109307333D01*
X141033333Y-109212095D01*
X141033333Y-109116857D01*
X140985714Y-109021619D01*
X140938095Y-108974000D01*
X140842857Y-108926381D01*
X140604761Y-108926381D01*
X140461904Y-108974000D01*
X140128571Y-108926381D02*
X139890476Y-109926381D01*
X139699999Y-109212095D01*
X139509523Y-109926381D01*
X139271428Y-108926381D01*
X138985714Y-108926381D02*
X138366666Y-108926381D01*
X138700000Y-109307333D01*
X138557142Y-109307333D01*
X138461904Y-109354952D01*
X138414285Y-109402571D01*
X138366666Y-109497810D01*
X138366666Y-109735905D01*
X138414285Y-109831143D01*
X138461904Y-109878762D01*
X138557142Y-109926381D01*
X138842857Y-109926381D01*
X138938095Y-109878762D01*
X138985714Y-109831143D01*
X151955333Y-108100762D02*
X151812476Y-108148381D01*
X151574380Y-108148381D01*
X151479142Y-108100762D01*
X151431523Y-108053143D01*
X151383904Y-107957905D01*
X151383904Y-107862667D01*
X151431523Y-107767429D01*
X151479142Y-107719810D01*
X151574380Y-107672190D01*
X151764857Y-107624571D01*
X151860095Y-107576952D01*
X151907714Y-107529333D01*
X151955333Y-107434095D01*
X151955333Y-107338857D01*
X151907714Y-107243619D01*
X151860095Y-107196000D01*
X151764857Y-107148381D01*
X151526761Y-107148381D01*
X151383904Y-107196000D01*
X151050571Y-107148381D02*
X150812476Y-108148381D01*
X150621999Y-107434095D01*
X150431523Y-108148381D01*
X150193428Y-107148381D01*
X149383904Y-107481714D02*
X149383904Y-108148381D01*
X149622000Y-107100762D02*
X149860095Y-107815048D01*
X149241047Y-107815048D01*
M02*
