G04 #@! TF.FileFunction,Copper,L1,Top,Signal*
%FSLAX46Y46*%
G04 Gerber Fmt 4.6, Leading zero omitted, Abs format (unit mm)*
G04 Created by KiCad (PCBNEW 4.0.7) date Thu Jul 12 22:31:34 2018*
%MOMM*%
%LPD*%
G01*
G04 APERTURE LIST*
%ADD10C,0.100000*%
%ADD11R,1.000000X1.600000*%
%ADD12R,2.100580X5.600700*%
%ADD13R,1.600000X1.000000*%
%ADD14R,1.000000X1.250000*%
%ADD15R,1.250000X1.000000*%
%ADD16R,2.550000X2.500000*%
%ADD17R,2.200000X2.200000*%
%ADD18O,2.200000X2.200000*%
%ADD19R,0.600000X1.100000*%
%ADD20R,0.500000X2.300000*%
%ADD21R,2.000000X2.500000*%
%ADD22R,1.700000X1.700000*%
%ADD23O,1.700000X1.700000*%
%ADD24R,0.800000X0.900000*%
%ADD25R,1.700000X0.900000*%
%ADD26R,0.900000X1.700000*%
%ADD27R,0.900000X0.500000*%
%ADD28R,0.500000X0.900000*%
%ADD29O,0.899160X1.501140*%
%ADD30R,2.500000X1.500000*%
%ADD31R,0.250000X1.500000*%
%ADD32R,2.032000X2.032000*%
%ADD33O,2.032000X2.032000*%
%ADD34R,0.508000X0.356000*%
%ADD35R,0.700000X1.300000*%
%ADD36C,4.400000*%
%ADD37C,0.700000*%
%ADD38C,0.600000*%
%ADD39C,0.500000*%
%ADD40C,0.250000*%
%ADD41C,0.550000*%
%ADD42C,0.254000*%
G04 APERTURE END LIST*
D10*
D11*
X152424000Y-117856000D03*
X155424000Y-117856000D03*
D12*
X126238000Y-100561140D03*
X126238000Y-110258860D03*
D13*
X149606000Y-111990000D03*
X149606000Y-108990000D03*
D14*
X132064000Y-97536000D03*
X130064000Y-97536000D03*
X132064000Y-101092000D03*
X130064000Y-101092000D03*
D15*
X148336000Y-98568000D03*
X148336000Y-100568000D03*
D16*
X150129000Y-103886000D03*
X155179000Y-103886000D03*
D14*
X132048000Y-103124000D03*
X130048000Y-103124000D03*
X132064000Y-99314000D03*
X130064000Y-99314000D03*
D15*
X144018000Y-109490000D03*
X144018000Y-111490000D03*
X145796000Y-109490000D03*
X145796000Y-111490000D03*
X147574000Y-109490000D03*
X147574000Y-111490000D03*
D17*
X128524000Y-94234000D03*
D18*
X128524000Y-86614000D03*
D17*
X125476000Y-86614000D03*
D18*
X125476000Y-94234000D03*
D19*
X153350000Y-112094000D03*
X153350000Y-109294000D03*
X152400000Y-109294000D03*
X151450000Y-109294000D03*
X151450000Y-112094000D03*
D20*
X138100000Y-115818000D03*
X138900000Y-115818000D03*
X139700000Y-115818000D03*
X140500000Y-115818000D03*
X141300000Y-115818000D03*
D21*
X135250000Y-115918000D03*
X135250000Y-121418000D03*
X144150000Y-115918000D03*
X144150000Y-121418000D03*
D22*
X151130000Y-97536000D03*
D23*
X153670000Y-97536000D03*
X151130000Y-94996000D03*
X153670000Y-94996000D03*
X151130000Y-92456000D03*
X153670000Y-92456000D03*
D24*
X141732000Y-100838000D03*
X143632000Y-100838000D03*
X142682000Y-98838000D03*
D25*
X155194000Y-111866000D03*
X155194000Y-108966000D03*
D26*
X155374000Y-115570000D03*
X152474000Y-115570000D03*
D25*
X146050000Y-101018000D03*
X146050000Y-98118000D03*
D27*
X141732000Y-102628000D03*
X141732000Y-104128000D03*
X140208000Y-102628000D03*
X140208000Y-104128000D03*
D26*
X132514000Y-105410000D03*
X129614000Y-105410000D03*
D28*
X131814000Y-107442000D03*
X130314000Y-107442000D03*
D27*
X132842000Y-109740000D03*
X132842000Y-111240000D03*
X141478000Y-109740000D03*
X141478000Y-111240000D03*
D25*
X139446000Y-109040000D03*
X139446000Y-111940000D03*
X137160000Y-109040000D03*
X137160000Y-111940000D03*
X134874000Y-109040000D03*
X134874000Y-111940000D03*
D29*
X152400000Y-86868000D03*
X153670000Y-86868000D03*
X151130000Y-86868000D03*
D30*
X147500000Y-88150000D03*
X131900000Y-88150000D03*
D31*
X145450000Y-92250000D03*
X144950000Y-92250000D03*
X144450000Y-92250000D03*
X143950000Y-92250000D03*
X143450000Y-92250000D03*
X142950000Y-92250000D03*
X142450000Y-92250000D03*
X141950000Y-92250000D03*
X141450000Y-92250000D03*
X140950000Y-92250000D03*
X140450000Y-92250000D03*
X139950000Y-92250000D03*
X139450000Y-92250000D03*
X138950000Y-92250000D03*
X138450000Y-92250000D03*
X137950000Y-92250000D03*
X137450000Y-92250000D03*
X136950000Y-92250000D03*
X136450000Y-92250000D03*
X135950000Y-92250000D03*
X135450000Y-92250000D03*
X134950000Y-92250000D03*
X134450000Y-92250000D03*
X133950000Y-92250000D03*
D32*
X147574000Y-116840000D03*
D33*
X150114000Y-116840000D03*
D34*
X140348000Y-99568000D03*
X139053000Y-99068000D03*
X139053000Y-100068000D03*
D35*
X146812000Y-105918000D03*
X144912000Y-105918000D03*
D36*
X125730000Y-80010000D03*
D37*
X127380000Y-80010000D03*
X126896726Y-81176726D03*
X125730000Y-81660000D03*
X124563274Y-81176726D03*
X124080000Y-80010000D03*
X124563274Y-78843274D03*
X125730000Y-78360000D03*
X126896726Y-78843274D03*
D36*
X153670000Y-80010000D03*
D37*
X155320000Y-80010000D03*
X154836726Y-81176726D03*
X153670000Y-81660000D03*
X152503274Y-81176726D03*
X152020000Y-80010000D03*
X152503274Y-78843274D03*
X153670000Y-78360000D03*
X154836726Y-78843274D03*
D38*
X133604000Y-96774000D03*
X140208000Y-100400000D03*
X133350000Y-101346000D03*
X136144000Y-90424000D03*
X130810000Y-110236000D03*
X146812000Y-90678000D03*
X131064000Y-90932000D03*
X125222000Y-106426000D03*
X145034000Y-119034000D03*
X139700000Y-121412000D03*
X131064000Y-115824000D03*
X128524000Y-109510000D03*
X148590000Y-96520000D03*
X148082000Y-93726000D03*
X135636000Y-106172000D03*
X152654000Y-101092000D03*
X131064000Y-94742000D03*
X125730000Y-121158000D03*
X135636000Y-119380000D03*
X128524000Y-121158000D03*
X147066000Y-102616000D03*
X152654000Y-104902000D03*
X144018000Y-112776000D03*
X149606000Y-110490000D03*
X139192000Y-101600000D03*
X147574000Y-120650000D03*
X127254000Y-115570000D03*
X150876000Y-107696000D03*
X142494000Y-95758000D03*
X133350000Y-100330000D03*
X133350000Y-99314000D03*
X139446000Y-107696000D03*
X137922000Y-107696000D03*
X135636000Y-107696000D03*
X143510000Y-102362000D03*
X140462000Y-95758000D03*
X138938000Y-95758000D03*
X143510000Y-104140000D03*
X143510000Y-103329997D03*
X131318000Y-112522000D03*
X132842000Y-112522000D03*
X142240000Y-112776000D03*
X141683997Y-95758000D03*
X137922000Y-95758000D03*
X133604000Y-103124000D03*
X138938000Y-103632000D03*
X137668000Y-93980000D03*
X150114000Y-101346000D03*
X148082000Y-105410000D03*
D39*
X132814000Y-97536000D02*
X133830000Y-96520000D01*
X133830000Y-96520000D02*
X134973001Y-95376999D01*
D40*
X133604000Y-96774000D02*
X133830000Y-96548000D01*
X133830000Y-96548000D02*
X133830000Y-96520000D01*
D39*
X132842000Y-107442000D02*
X131814000Y-107442000D01*
X133604000Y-96774000D02*
X133604000Y-97198264D01*
X133604000Y-97198264D02*
X134620000Y-98214264D01*
X134620000Y-98214264D02*
X134620000Y-104140000D01*
X133604000Y-105156000D02*
X133604000Y-106680000D01*
X134620000Y-104140000D02*
X133604000Y-105156000D01*
X133604000Y-106680000D02*
X132842000Y-107442000D01*
X140208000Y-101092000D02*
X140208000Y-100400000D01*
D41*
X132064000Y-101092000D02*
X133096000Y-101092000D01*
X133096000Y-101092000D02*
X133350000Y-101346000D01*
D39*
X136652000Y-94996000D02*
X138430000Y-94996000D01*
D40*
X138430000Y-94996000D02*
X138450000Y-94976000D01*
D39*
X142748000Y-101072000D02*
X142748000Y-101812000D01*
X142748000Y-101812000D02*
X141932000Y-102628000D01*
D40*
X141932000Y-102628000D02*
X141732000Y-102628000D01*
D39*
X143632000Y-100838000D02*
X142982000Y-100838000D01*
X142982000Y-100838000D02*
X142748000Y-101072000D01*
D40*
X136450000Y-92250000D02*
X136450000Y-90730000D01*
X136450000Y-90730000D02*
X136144000Y-90424000D01*
X135950000Y-92250000D02*
X135950000Y-90618000D01*
X135950000Y-90618000D02*
X136144000Y-90424000D01*
D39*
X136144000Y-94996000D02*
X135636000Y-94996000D01*
D40*
X135950000Y-94682000D02*
X135636000Y-94996000D01*
D39*
X135636000Y-94996000D02*
X135382000Y-94996000D01*
D40*
X135950000Y-92250000D02*
X135950000Y-94682000D01*
D39*
X136652000Y-94996000D02*
X136144000Y-94996000D01*
D40*
X136450000Y-92250000D02*
X136450000Y-94690000D01*
X136450000Y-94690000D02*
X136144000Y-94996000D01*
X138450000Y-92250000D02*
X138450000Y-94976000D01*
X134973001Y-95376999D02*
X135001001Y-95376999D01*
D39*
X135001001Y-95376999D02*
X135382000Y-94996000D01*
X132842000Y-109740000D02*
X131306000Y-109740000D01*
X131306000Y-109740000D02*
X130810000Y-110236000D01*
X140208000Y-102628000D02*
X140208000Y-101092000D01*
D40*
X132064000Y-97536000D02*
X132064000Y-97411000D01*
D39*
X132064000Y-97536000D02*
X132814000Y-97536000D01*
X133784000Y-109982000D02*
X140536000Y-109982000D01*
X140536000Y-109982000D02*
X140778000Y-109740000D01*
X140778000Y-109740000D02*
X141478000Y-109740000D01*
X132842000Y-109740000D02*
X133542000Y-109740000D01*
X133542000Y-109740000D02*
X133784000Y-109982000D01*
X131814000Y-107442000D02*
X131814000Y-108912000D01*
X131814000Y-108912000D02*
X132642000Y-109740000D01*
D40*
X132642000Y-109740000D02*
X132842000Y-109740000D01*
D39*
X140208000Y-102628000D02*
X141732000Y-102628000D01*
D40*
X140196000Y-102616000D02*
X140208000Y-102628000D01*
D39*
X144706000Y-101018000D02*
X144526000Y-100838000D01*
X144526000Y-100838000D02*
X143632000Y-100838000D01*
X146050000Y-101018000D02*
X144706000Y-101018000D01*
D40*
X147500000Y-88150000D02*
X147500000Y-89990000D01*
X147500000Y-89990000D02*
X146812000Y-90678000D01*
X143002000Y-88150000D02*
X143510000Y-88150000D01*
X143510000Y-88150000D02*
X147500000Y-88150000D01*
X143450000Y-92250000D02*
X143450000Y-88210000D01*
X143450000Y-88210000D02*
X143510000Y-88150000D01*
X142494000Y-88150000D02*
X143002000Y-88150000D01*
X142950000Y-92250000D02*
X142950000Y-88202000D01*
X142950000Y-88202000D02*
X143002000Y-88150000D01*
X141986000Y-88150000D02*
X142494000Y-88150000D01*
X142450000Y-92250000D02*
X142450000Y-88194000D01*
X142450000Y-88194000D02*
X142494000Y-88150000D01*
X141478000Y-88150000D02*
X141986000Y-88150000D01*
X141950000Y-92250000D02*
X141950000Y-88186000D01*
X141950000Y-88186000D02*
X141986000Y-88150000D01*
X139446000Y-88150000D02*
X141478000Y-88150000D01*
X141450000Y-92250000D02*
X141450000Y-88178000D01*
X141450000Y-88178000D02*
X141478000Y-88150000D01*
X138938000Y-88150000D02*
X139446000Y-88150000D01*
X139450000Y-92250000D02*
X139450000Y-88154000D01*
X139450000Y-88154000D02*
X139446000Y-88150000D01*
X137744000Y-88150000D02*
X138938000Y-88150000D01*
X138950000Y-92250000D02*
X138950000Y-88162000D01*
X138950000Y-88162000D02*
X138938000Y-88150000D01*
X136950000Y-88944000D02*
X137414000Y-88480000D01*
X137414000Y-88480000D02*
X137744000Y-88150000D01*
X137450000Y-92250000D02*
X137450000Y-88516000D01*
X137450000Y-88516000D02*
X137414000Y-88480000D01*
X136950000Y-92250000D02*
X136950000Y-88944000D01*
X131064000Y-90932000D02*
X131900000Y-90096000D01*
X131900000Y-90096000D02*
X131900000Y-88150000D01*
X125222000Y-106426000D02*
X126238000Y-105410000D01*
X126238000Y-105410000D02*
X129614000Y-105410000D01*
X144150000Y-121418000D02*
X144150000Y-119918000D01*
X144150000Y-119918000D02*
X145034000Y-119034000D01*
X135250000Y-121418000D02*
X139694000Y-121418000D01*
X139694000Y-121418000D02*
X139700000Y-121412000D01*
X135250000Y-115918000D02*
X131158000Y-115918000D01*
X131158000Y-115918000D02*
X131064000Y-115824000D01*
X148082000Y-93726000D02*
X148590000Y-94234000D01*
X148590000Y-94234000D02*
X148590000Y-96520000D01*
X152654000Y-99754081D02*
X152654000Y-101092000D01*
X153670000Y-97536000D02*
X153670000Y-98738081D01*
X153670000Y-98738081D02*
X152654000Y-99754081D01*
X133858000Y-94996000D02*
X133096000Y-94996000D01*
X133096000Y-94996000D02*
X131318000Y-94996000D01*
X134450000Y-93642000D02*
X133096000Y-94996000D01*
X134450000Y-92250000D02*
X134450000Y-93642000D01*
X131318000Y-94996000D02*
X131064000Y-94742000D01*
X134950000Y-93904000D02*
X133858000Y-94996000D01*
X134950000Y-92250000D02*
X134950000Y-93904000D01*
X135250000Y-121418000D02*
X128784000Y-121418000D01*
X128784000Y-121418000D02*
X128524000Y-121158000D01*
X154940000Y-110236000D02*
X155194000Y-109982000D01*
X155194000Y-109982000D02*
X155194000Y-109666000D01*
X125730000Y-121158000D02*
X128524000Y-121158000D01*
X135636000Y-119380000D02*
X135935999Y-119080001D01*
X135935999Y-119080001D02*
X135935999Y-118572001D01*
X135935999Y-118572001D02*
X137160000Y-117348000D01*
X137160000Y-117348000D02*
X137160000Y-116078000D01*
X137160000Y-116078000D02*
X137000000Y-115918000D01*
X137000000Y-115918000D02*
X135250000Y-115918000D01*
X135250000Y-121418000D02*
X135250000Y-119766000D01*
X135250000Y-119766000D02*
X135636000Y-119380000D01*
X144912000Y-105918000D02*
X144912000Y-106818000D01*
X144912000Y-106818000D02*
X145282000Y-107188000D01*
X152400000Y-105918000D02*
X152654000Y-105664000D01*
X145282000Y-107188000D02*
X148590000Y-107188000D01*
X148590000Y-107188000D02*
X149860000Y-105918000D01*
X149860000Y-105918000D02*
X152400000Y-105918000D01*
X152654000Y-105664000D02*
X152654000Y-104902000D01*
X147066000Y-102616000D02*
X147365999Y-102316001D01*
X147365999Y-102316001D02*
X147619999Y-102316001D01*
X147619999Y-102316001D02*
X148336000Y-101600000D01*
X155179000Y-103886000D02*
X153654000Y-103886000D01*
X153654000Y-103886000D02*
X152654000Y-104886000D01*
X152654000Y-104886000D02*
X152654000Y-104902000D01*
X139053000Y-100068000D02*
X139053000Y-101461000D01*
X139053000Y-101461000D02*
X139192000Y-101600000D01*
X144018000Y-111490000D02*
X144018000Y-112776000D01*
X141300000Y-115818000D02*
X144050000Y-115818000D01*
X144050000Y-115818000D02*
X144150000Y-115918000D01*
X130048000Y-103999000D02*
X129925000Y-103999000D01*
X129925000Y-103999000D02*
X129614000Y-104310000D01*
X129614000Y-104310000D02*
X129614000Y-105410000D01*
X130048000Y-103124000D02*
X130048000Y-103999000D01*
X130048000Y-103124000D02*
X130048000Y-101108000D01*
X130048000Y-101108000D02*
X130064000Y-101092000D01*
X155194000Y-109666000D02*
X155194000Y-108966000D01*
X148336000Y-100568000D02*
X148336000Y-101600000D01*
X130064000Y-99314000D02*
X130064000Y-101092000D01*
X130064000Y-97536000D02*
X130064000Y-99314000D01*
X149606000Y-110490000D02*
X149606000Y-108990000D01*
D39*
X154940000Y-113792000D02*
X155374000Y-114226000D01*
X155374000Y-114226000D02*
X155374000Y-115570000D01*
X152898000Y-113792000D02*
X154940000Y-113792000D01*
D40*
X151450000Y-112094000D02*
X151450000Y-112344000D01*
D39*
X151450000Y-112344000D02*
X152898000Y-113792000D01*
X149352000Y-120650000D02*
X147574000Y-120650000D01*
X152654000Y-120650000D02*
X149352000Y-120650000D01*
X152908000Y-120396000D02*
X152654000Y-120650000D01*
X153670000Y-119634000D02*
X152908000Y-120396000D01*
X153670000Y-116574000D02*
X153670000Y-119634000D01*
X155374000Y-115570000D02*
X154674000Y-115570000D01*
X154674000Y-115570000D02*
X153670000Y-116574000D01*
X133096000Y-114046000D02*
X124800002Y-114046000D01*
X124800002Y-114046000D02*
X124376001Y-113621999D01*
X133604000Y-113538000D02*
X133096000Y-114046000D01*
X137414000Y-113538000D02*
X133604000Y-113538000D01*
X137998000Y-114122000D02*
X137414000Y-113538000D01*
D40*
X138100000Y-114122000D02*
X137998000Y-114122000D01*
D39*
X149606000Y-111990000D02*
X149606000Y-112740000D01*
X149606000Y-112740000D02*
X148808000Y-113538000D01*
X148808000Y-113538000D02*
X147758000Y-113538000D01*
X125476000Y-94234000D02*
X124376001Y-95333999D01*
X124376001Y-95333999D02*
X124376001Y-113621999D01*
X138100000Y-115818000D02*
X138100000Y-114122000D01*
X138100000Y-114122000D02*
X138684000Y-113538000D01*
X138684000Y-113538000D02*
X147758000Y-113538000D01*
X151450000Y-112094000D02*
X149710000Y-112094000D01*
D40*
X149710000Y-112094000D02*
X149606000Y-111990000D01*
D39*
X124206000Y-115570000D02*
X127254000Y-115570000D01*
X123444000Y-114808000D02*
X124206000Y-115570000D01*
X123444000Y-89996000D02*
X123444000Y-114808000D01*
X125476000Y-86614000D02*
X125476000Y-87964000D01*
X125476000Y-87964000D02*
X123444000Y-89996000D01*
X152424000Y-117856000D02*
X152424000Y-119102000D01*
X152424000Y-119102000D02*
X151892000Y-119634000D01*
X147574000Y-118106000D02*
X147574000Y-116840000D01*
X151892000Y-119634000D02*
X149102000Y-119634000D01*
X149102000Y-119634000D02*
X147574000Y-118106000D01*
D40*
X151450000Y-109294000D02*
X151450000Y-108270000D01*
X151450000Y-108270000D02*
X150876000Y-107696000D01*
X144450000Y-92250000D02*
X144450000Y-94452552D01*
X144450000Y-94452552D02*
X143144552Y-95758000D01*
X143144552Y-95758000D02*
X142918264Y-95758000D01*
X142918264Y-95758000D02*
X142494000Y-95758000D01*
X132048000Y-103124000D02*
X132511802Y-103124000D01*
X132511802Y-103124000D02*
X133985001Y-101650801D01*
X133985001Y-101650801D02*
X133985001Y-100965001D01*
X133985001Y-100965001D02*
X133350000Y-100330000D01*
X132048000Y-103124000D02*
X132048000Y-103999000D01*
X132048000Y-103999000D02*
X131728999Y-104318001D01*
X131728999Y-104318001D02*
X131728999Y-105198003D01*
X131728999Y-105198003D02*
X130332001Y-106595001D01*
X130332001Y-106595001D02*
X126851509Y-106595001D01*
X126851509Y-106595001D02*
X126238000Y-107208510D01*
X126238000Y-107208510D02*
X126238000Y-110258860D01*
X132048000Y-103249000D02*
X132048000Y-103124000D01*
X132064000Y-99314000D02*
X132064000Y-99189000D01*
X132064000Y-99189000D02*
X131228999Y-98353999D01*
X127172791Y-96575999D02*
X126238000Y-97510790D01*
X131228999Y-98353999D02*
X131228999Y-96972997D01*
X131228999Y-96972997D02*
X130832001Y-96575999D01*
X130832001Y-96575999D02*
X127172791Y-96575999D01*
X126238000Y-97510790D02*
X126238000Y-100561140D01*
X132064000Y-99314000D02*
X133350000Y-99314000D01*
X144018000Y-109490000D02*
X143780000Y-109490000D01*
X143780000Y-109490000D02*
X143330000Y-109040000D01*
X143330000Y-109040000D02*
X142806000Y-109040000D01*
X139446000Y-109040000D02*
X142806000Y-109040000D01*
X139446000Y-107696000D02*
X139446000Y-109040000D01*
X137160000Y-108458000D02*
X137160000Y-109040000D01*
X137922000Y-107696000D02*
X137160000Y-108458000D01*
X145796000Y-109490000D02*
X145671000Y-109490000D01*
X145671000Y-109490000D02*
X144760990Y-108579990D01*
X144760990Y-108579990D02*
X141269792Y-108579990D01*
X141269792Y-108579990D02*
X139750801Y-107060999D01*
X139750801Y-107060999D02*
X138557001Y-107060999D01*
X138557001Y-107060999D02*
X137922000Y-107696000D01*
X134874000Y-108033736D02*
X134874000Y-109040000D01*
X135636000Y-107696000D02*
X135211736Y-107696000D01*
X135211736Y-107696000D02*
X134874000Y-108033736D01*
X135636000Y-107696000D02*
X136982198Y-107696000D01*
X136982198Y-107696000D02*
X138077209Y-106600989D01*
X138077209Y-106600989D02*
X140128989Y-106600989D01*
X140128989Y-106600989D02*
X141647980Y-108119980D01*
X141647980Y-108119980D02*
X146078981Y-108119981D01*
X146078981Y-108119981D02*
X147449000Y-109490000D01*
X147449000Y-109490000D02*
X147574000Y-109490000D01*
X128524000Y-86614000D02*
X131064000Y-84074000D01*
X131064000Y-84074000D02*
X151384000Y-84074000D01*
X151384000Y-84074000D02*
X152400000Y-85090000D01*
X152400000Y-85090000D02*
X152400000Y-86868000D01*
X152400000Y-86567010D02*
X152400000Y-86868000D01*
X155194000Y-111866000D02*
X153578000Y-111866000D01*
X153578000Y-111866000D02*
X153350000Y-112094000D01*
X150876000Y-102108000D02*
X151130000Y-101854000D01*
X151130000Y-101854000D02*
X151130000Y-100838000D01*
X148778998Y-102108000D02*
X150876000Y-102108000D01*
X143510000Y-102362000D02*
X144399001Y-103251001D01*
X144399001Y-103251001D02*
X147635997Y-103251001D01*
X147635997Y-103251001D02*
X148778998Y-102108000D01*
X151130000Y-100838000D02*
X151130000Y-97536000D01*
X141458000Y-104902000D02*
X137922000Y-104902000D01*
X141732000Y-104628000D02*
X141458000Y-104902000D01*
X141732000Y-104128000D02*
X141732000Y-104628000D01*
X137922000Y-104902000D02*
X137160000Y-104140000D01*
X137160000Y-104140000D02*
X137160000Y-98044000D01*
X137160000Y-98044000D02*
X138938000Y-96266000D01*
X138938000Y-96266000D02*
X138938000Y-95928264D01*
X138938000Y-95928264D02*
X138938000Y-95758000D01*
X140462000Y-95758000D02*
X140462000Y-95504000D01*
X140462000Y-95504000D02*
X140450000Y-95492000D01*
X140950000Y-92250000D02*
X140950000Y-95016000D01*
X140950000Y-95016000D02*
X140462000Y-95504000D01*
X140450000Y-92250000D02*
X140450000Y-95492000D01*
X143510000Y-104140000D02*
X141744000Y-104140000D01*
X141744000Y-104140000D02*
X141732000Y-104128000D01*
X139950000Y-92250000D02*
X139950000Y-95076198D01*
X139950000Y-95076198D02*
X139826999Y-95199199D01*
X139826999Y-95199199D02*
X139750801Y-95199199D01*
X139750801Y-95199199D02*
X139573001Y-95376999D01*
X139573001Y-95376999D02*
X139573001Y-96392999D01*
X139573001Y-96392999D02*
X137620010Y-98345990D01*
X138049001Y-104267001D02*
X139368999Y-104267001D01*
X137620010Y-98345990D02*
X137620010Y-103838010D01*
X137620010Y-103838010D02*
X138049001Y-104267001D01*
X139368999Y-104267001D02*
X139508000Y-104128000D01*
X139508000Y-104128000D02*
X140208000Y-104128000D01*
X143510000Y-103329997D02*
X140506003Y-103329997D01*
X140506003Y-103329997D02*
X140208000Y-103628000D01*
X140208000Y-103628000D02*
X140208000Y-104128000D01*
X131318000Y-112522000D02*
X131617999Y-112222001D01*
X131617999Y-112222001D02*
X131617999Y-111160999D01*
X131617999Y-111160999D02*
X131780998Y-110998000D01*
X130314000Y-107442000D02*
X130314000Y-109792198D01*
X130314000Y-109792198D02*
X130174999Y-109931199D01*
X130174999Y-109931199D02*
X130174999Y-110540801D01*
X130174999Y-110540801D02*
X130632198Y-110998000D01*
X130632198Y-110998000D02*
X131780998Y-110998000D01*
X131780998Y-110998000D02*
X132123999Y-110654999D01*
X132123999Y-110654999D02*
X137760999Y-110654999D01*
X137760999Y-110654999D02*
X139046000Y-111940000D01*
X139046000Y-111940000D02*
X139446000Y-111940000D01*
X132842000Y-112522000D02*
X132842000Y-111240000D01*
X132842000Y-111240000D02*
X133670998Y-111240000D01*
X136760000Y-111940000D02*
X137160000Y-111940000D01*
X133670998Y-111240000D02*
X133755999Y-111154999D01*
X133755999Y-111154999D02*
X135974999Y-111154999D01*
X135974999Y-111154999D02*
X136760000Y-111940000D01*
X134874000Y-111940000D02*
X135274000Y-111940000D01*
X135274000Y-111940000D02*
X136059001Y-112725001D01*
X136059001Y-112725001D02*
X140766999Y-112725001D01*
X140766999Y-112725001D02*
X141478000Y-112014000D01*
X141478000Y-111240000D02*
X141478000Y-112014000D01*
X141478000Y-112014000D02*
X142240000Y-112776000D01*
D39*
X151892000Y-103648000D02*
X153239001Y-102300999D01*
D40*
X153239001Y-102300999D02*
X153239001Y-102284999D01*
D39*
X153239001Y-102284999D02*
X155448000Y-100076000D01*
X155448000Y-100076000D02*
X155448000Y-90932000D01*
X155448000Y-90932000D02*
X153908570Y-89392570D01*
X153908570Y-89392570D02*
X151130000Y-89392570D01*
X146050000Y-93980000D02*
X146542570Y-93980000D01*
X146542570Y-93980000D02*
X148844000Y-91678570D01*
X146050000Y-93980000D02*
X145288000Y-93980000D01*
D40*
X145288000Y-93980000D02*
X144950000Y-93642000D01*
X144950000Y-93642000D02*
X144950000Y-92250000D01*
D39*
X149844570Y-86106000D02*
X138002000Y-86106000D01*
X151892000Y-103648000D02*
X151654000Y-103886000D01*
X151654000Y-103886000D02*
X150129000Y-103886000D01*
X151130000Y-89392570D02*
X151130000Y-86868000D01*
X150368000Y-86106000D02*
X151130000Y-86868000D01*
X149844570Y-86106000D02*
X150368000Y-86106000D01*
X138002000Y-86106000D02*
X137043001Y-87064999D01*
X128524000Y-94234000D02*
X129874000Y-94234000D01*
X129874000Y-94234000D02*
X137043001Y-87064999D01*
X148844000Y-91678570D02*
X149944999Y-90577571D01*
X149944999Y-90577571D02*
X151130000Y-89392570D01*
D40*
X143950000Y-92250000D02*
X143950000Y-94302000D01*
X143950000Y-94302000D02*
X143129001Y-95122999D01*
X143129001Y-95122999D02*
X141894734Y-95122999D01*
X141894734Y-95122999D02*
X141683997Y-95333736D01*
X141683997Y-95333736D02*
X141683997Y-95758000D01*
X152654000Y-108204000D02*
X153060000Y-108204000D01*
X148082000Y-108458000D02*
X148385001Y-108154999D01*
X137922000Y-95758000D02*
X137922000Y-96631448D01*
X146269524Y-107659972D02*
X147067552Y-108458000D01*
X137922000Y-96631448D02*
X136699990Y-97853458D01*
X147067552Y-108458000D02*
X148082000Y-108458000D01*
X141949971Y-107659971D02*
X146269524Y-107659972D01*
X136699990Y-97853458D02*
X136699991Y-104330543D01*
X136699991Y-104330543D02*
X137731458Y-105362010D01*
X153060000Y-108204000D02*
X153350000Y-108494000D01*
X137731458Y-105362010D02*
X139652010Y-105362010D01*
X151510999Y-107060999D02*
X152654000Y-108204000D01*
X139652010Y-105362010D02*
X141949971Y-107659971D01*
X148385001Y-108154999D02*
X149477199Y-108154999D01*
X149477199Y-108154999D02*
X150571199Y-107060999D01*
X150571199Y-107060999D02*
X151510999Y-107060999D01*
X153350000Y-108494000D02*
X153350000Y-109294000D01*
X132514000Y-105410000D02*
X132514000Y-105010000D01*
X132514000Y-105010000D02*
X133604000Y-103920000D01*
X133604000Y-103920000D02*
X133604000Y-103124000D01*
X139053000Y-99068000D02*
X138977000Y-99068000D01*
X138977000Y-99068000D02*
X138080020Y-99964980D01*
X138080020Y-99964980D02*
X138080020Y-103282020D01*
X138080020Y-103282020D02*
X138430000Y-103632000D01*
X138430000Y-103632000D02*
X138938000Y-103632000D01*
X137950000Y-92250000D02*
X137950000Y-93698000D01*
X137950000Y-93698000D02*
X137668000Y-93980000D01*
X150114000Y-101346000D02*
X150114000Y-100221000D01*
X150114000Y-100221000D02*
X148461000Y-98568000D01*
X148461000Y-98568000D02*
X148336000Y-98568000D01*
X142682000Y-98838000D02*
X142682000Y-98138000D01*
X143487001Y-97332999D02*
X147850999Y-97332999D01*
X142682000Y-98138000D02*
X143487001Y-97332999D01*
X147850999Y-97332999D02*
X148336000Y-97818000D01*
X148336000Y-97818000D02*
X148336000Y-98568000D01*
X142682000Y-98788000D02*
X142682000Y-98838000D01*
X140348000Y-99568000D02*
X141162000Y-99568000D01*
X141162000Y-99568000D02*
X141732000Y-100138000D01*
X141732000Y-100138000D02*
X141732000Y-100838000D01*
X146050000Y-98118000D02*
X146050000Y-98818000D01*
X146050000Y-98818000D02*
X144815001Y-100052999D01*
X144815001Y-100052999D02*
X142467001Y-100052999D01*
X142467001Y-100052999D02*
X141732000Y-100788000D01*
X141732000Y-100788000D02*
X141732000Y-100838000D01*
X146812000Y-105918000D02*
X147574000Y-105918000D01*
X147574000Y-105918000D02*
X148082000Y-105410000D01*
X147066000Y-106172000D02*
X146812000Y-105918000D01*
D42*
G36*
X132971846Y-77592257D02*
X133023291Y-77610691D01*
X133068728Y-77641051D01*
X133157047Y-77658619D01*
X133241820Y-77688995D01*
X133296402Y-77686339D01*
X133350000Y-77697000D01*
X146050000Y-77697000D01*
X146103598Y-77686339D01*
X146158180Y-77688995D01*
X146242953Y-77658619D01*
X146331272Y-77641051D01*
X146376709Y-77610691D01*
X146428154Y-77592257D01*
X147523583Y-76935000D01*
X154867610Y-76935000D01*
X155625233Y-77085701D01*
X156206146Y-77473854D01*
X156594300Y-78054768D01*
X156745000Y-78812390D01*
X156745000Y-102069217D01*
X156580309Y-102001000D01*
X155464750Y-102001000D01*
X155306000Y-102159750D01*
X155306000Y-103759000D01*
X155326000Y-103759000D01*
X155326000Y-104013000D01*
X155306000Y-104013000D01*
X155306000Y-105612250D01*
X155464750Y-105771000D01*
X156580309Y-105771000D01*
X156745000Y-105702783D01*
X156745000Y-121847610D01*
X156594300Y-122605232D01*
X156206146Y-123186146D01*
X155625233Y-123574299D01*
X154867610Y-123725000D01*
X124532390Y-123725000D01*
X123774768Y-123574300D01*
X123193854Y-123186146D01*
X122805701Y-122605233D01*
X122655000Y-121847610D01*
X122655000Y-121703750D01*
X133615000Y-121703750D01*
X133615000Y-122794309D01*
X133711673Y-123027698D01*
X133890301Y-123206327D01*
X134123690Y-123303000D01*
X134964250Y-123303000D01*
X135123000Y-123144250D01*
X135123000Y-121545000D01*
X135377000Y-121545000D01*
X135377000Y-123144250D01*
X135535750Y-123303000D01*
X136376310Y-123303000D01*
X136609699Y-123206327D01*
X136788327Y-123027698D01*
X136885000Y-122794309D01*
X136885000Y-121703750D01*
X142515000Y-121703750D01*
X142515000Y-122794309D01*
X142611673Y-123027698D01*
X142790301Y-123206327D01*
X143023690Y-123303000D01*
X143864250Y-123303000D01*
X144023000Y-123144250D01*
X144023000Y-121545000D01*
X144277000Y-121545000D01*
X144277000Y-123144250D01*
X144435750Y-123303000D01*
X145276310Y-123303000D01*
X145509699Y-123206327D01*
X145688327Y-123027698D01*
X145785000Y-122794309D01*
X145785000Y-121703750D01*
X145626250Y-121545000D01*
X144277000Y-121545000D01*
X144023000Y-121545000D01*
X142673750Y-121545000D01*
X142515000Y-121703750D01*
X136885000Y-121703750D01*
X136726250Y-121545000D01*
X135377000Y-121545000D01*
X135123000Y-121545000D01*
X133773750Y-121545000D01*
X133615000Y-121703750D01*
X122655000Y-121703750D01*
X122655000Y-120041691D01*
X133615000Y-120041691D01*
X133615000Y-121132250D01*
X133773750Y-121291000D01*
X135123000Y-121291000D01*
X135123000Y-119691750D01*
X135377000Y-119691750D01*
X135377000Y-121291000D01*
X136726250Y-121291000D01*
X136885000Y-121132250D01*
X136885000Y-120041691D01*
X142515000Y-120041691D01*
X142515000Y-121132250D01*
X142673750Y-121291000D01*
X144023000Y-121291000D01*
X144023000Y-119691750D01*
X144277000Y-119691750D01*
X144277000Y-121291000D01*
X145626250Y-121291000D01*
X145785000Y-121132250D01*
X145785000Y-120041691D01*
X145688327Y-119808302D01*
X145509699Y-119629673D01*
X145276310Y-119533000D01*
X144435750Y-119533000D01*
X144277000Y-119691750D01*
X144023000Y-119691750D01*
X143864250Y-119533000D01*
X143023690Y-119533000D01*
X142790301Y-119629673D01*
X142611673Y-119808302D01*
X142515000Y-120041691D01*
X136885000Y-120041691D01*
X136788327Y-119808302D01*
X136609699Y-119629673D01*
X136376310Y-119533000D01*
X135535750Y-119533000D01*
X135377000Y-119691750D01*
X135123000Y-119691750D01*
X134964250Y-119533000D01*
X134123690Y-119533000D01*
X133890301Y-119629673D01*
X133711673Y-119808302D01*
X133615000Y-120041691D01*
X122655000Y-120041691D01*
X122655000Y-115189528D01*
X122718291Y-115284250D01*
X122818210Y-115433790D01*
X123580208Y-116195787D01*
X123580210Y-116195790D01*
X123867325Y-116387633D01*
X123923516Y-116398810D01*
X124206000Y-116455001D01*
X124206005Y-116455000D01*
X126947178Y-116455000D01*
X127067201Y-116504838D01*
X127439167Y-116505162D01*
X127782943Y-116363117D01*
X127942588Y-116203750D01*
X133615000Y-116203750D01*
X133615000Y-117294309D01*
X133711673Y-117527698D01*
X133890301Y-117706327D01*
X134123690Y-117803000D01*
X134964250Y-117803000D01*
X135123000Y-117644250D01*
X135123000Y-116045000D01*
X135377000Y-116045000D01*
X135377000Y-117644250D01*
X135535750Y-117803000D01*
X136376310Y-117803000D01*
X136609699Y-117706327D01*
X136788327Y-117527698D01*
X136885000Y-117294309D01*
X136885000Y-116203750D01*
X136726250Y-116045000D01*
X135377000Y-116045000D01*
X135123000Y-116045000D01*
X133773750Y-116045000D01*
X133615000Y-116203750D01*
X127942588Y-116203750D01*
X128046192Y-116100327D01*
X128188838Y-115756799D01*
X128189162Y-115384833D01*
X128047117Y-115041057D01*
X127937252Y-114931000D01*
X133095995Y-114931000D01*
X133096000Y-114931001D01*
X133378484Y-114874810D01*
X133434675Y-114863633D01*
X133615000Y-114743144D01*
X133615000Y-115632250D01*
X133773750Y-115791000D01*
X135123000Y-115791000D01*
X135123000Y-115771000D01*
X135377000Y-115771000D01*
X135377000Y-115791000D01*
X136726250Y-115791000D01*
X136885000Y-115632250D01*
X136885000Y-114541691D01*
X136835837Y-114423000D01*
X137047420Y-114423000D01*
X137215000Y-114590579D01*
X137215000Y-114606569D01*
X137202560Y-114668000D01*
X137202560Y-116968000D01*
X137246838Y-117203317D01*
X137330191Y-117332851D01*
X137285127Y-117332812D01*
X136886200Y-117497646D01*
X136580718Y-117802595D01*
X136415189Y-118201233D01*
X136414812Y-118632873D01*
X136579646Y-119031800D01*
X136884595Y-119337282D01*
X137283233Y-119502811D01*
X137714873Y-119503188D01*
X138113800Y-119338354D01*
X138419282Y-119033405D01*
X138584811Y-118634767D01*
X138585188Y-118203127D01*
X138420354Y-117804200D01*
X138231923Y-117615440D01*
X138350000Y-117615440D01*
X138505507Y-117586179D01*
X138650000Y-117615440D01*
X139150000Y-117615440D01*
X139305507Y-117586179D01*
X139450000Y-117615440D01*
X139950000Y-117615440D01*
X140105507Y-117586179D01*
X140250000Y-117615440D01*
X140750000Y-117615440D01*
X140890086Y-117589081D01*
X140923690Y-117603000D01*
X141016250Y-117603000D01*
X141161384Y-117457866D01*
X141172998Y-117450393D01*
X141172998Y-117603000D01*
X141180662Y-117603000D01*
X140980718Y-117802595D01*
X140815189Y-118201233D01*
X140814812Y-118632873D01*
X140979646Y-119031800D01*
X141284595Y-119337282D01*
X141683233Y-119502811D01*
X142114873Y-119503188D01*
X142513800Y-119338354D01*
X142819282Y-119033405D01*
X142984811Y-118634767D01*
X142985188Y-118203127D01*
X142820354Y-117804200D01*
X142515405Y-117498718D01*
X142116767Y-117333189D01*
X142082866Y-117333159D01*
X142088327Y-117327698D01*
X142185000Y-117094309D01*
X142185000Y-116203750D01*
X142515000Y-116203750D01*
X142515000Y-117294309D01*
X142611673Y-117527698D01*
X142790301Y-117706327D01*
X143023690Y-117803000D01*
X143864250Y-117803000D01*
X144023000Y-117644250D01*
X144023000Y-116045000D01*
X144277000Y-116045000D01*
X144277000Y-117644250D01*
X144435750Y-117803000D01*
X145276310Y-117803000D01*
X145509699Y-117706327D01*
X145688327Y-117527698D01*
X145785000Y-117294309D01*
X145785000Y-116203750D01*
X145626250Y-116045000D01*
X144277000Y-116045000D01*
X144023000Y-116045000D01*
X142673750Y-116045000D01*
X142515000Y-116203750D01*
X142185000Y-116203750D01*
X142185000Y-116103750D01*
X142026250Y-115945000D01*
X141425000Y-115945000D01*
X141425000Y-115965000D01*
X141397440Y-115965000D01*
X141397440Y-115671000D01*
X141425000Y-115671000D01*
X141425000Y-115691000D01*
X142026250Y-115691000D01*
X142185000Y-115532250D01*
X142185000Y-114541691D01*
X142135837Y-114423000D01*
X142564163Y-114423000D01*
X142515000Y-114541691D01*
X142515000Y-115632250D01*
X142673750Y-115791000D01*
X144023000Y-115791000D01*
X144023000Y-115771000D01*
X144277000Y-115771000D01*
X144277000Y-115791000D01*
X145626250Y-115791000D01*
X145785000Y-115632250D01*
X145785000Y-114541691D01*
X145735837Y-114423000D01*
X148807995Y-114423000D01*
X148808000Y-114423001D01*
X149090484Y-114366810D01*
X149146675Y-114355633D01*
X149433790Y-114163790D01*
X149433791Y-114163789D01*
X150231787Y-113365792D01*
X150231790Y-113365790D01*
X150384368Y-113137440D01*
X150406000Y-113137440D01*
X150641317Y-113093162D01*
X150671815Y-113073537D01*
X150685910Y-113095441D01*
X150898110Y-113240431D01*
X151144809Y-113290389D01*
X151939421Y-114085000D01*
X151897691Y-114085000D01*
X151664302Y-114181673D01*
X151485673Y-114360301D01*
X151389000Y-114593690D01*
X151389000Y-115284250D01*
X151547750Y-115443000D01*
X152347000Y-115443000D01*
X152347000Y-115423000D01*
X152601000Y-115423000D01*
X152601000Y-115443000D01*
X152621000Y-115443000D01*
X152621000Y-115697000D01*
X152601000Y-115697000D01*
X152601000Y-115717000D01*
X152347000Y-115717000D01*
X152347000Y-115697000D01*
X151547750Y-115697000D01*
X151410685Y-115834065D01*
X150978818Y-115433615D01*
X150496944Y-115234025D01*
X150241000Y-115353164D01*
X150241000Y-116713000D01*
X150261000Y-116713000D01*
X150261000Y-116967000D01*
X150241000Y-116967000D01*
X150241000Y-118326836D01*
X150496944Y-118445975D01*
X150978818Y-118246385D01*
X151276560Y-117970303D01*
X151276560Y-118656000D01*
X151294059Y-118749000D01*
X149468579Y-118749000D01*
X149040363Y-118320784D01*
X149041441Y-118320090D01*
X149152840Y-118157052D01*
X149249182Y-118246385D01*
X149731056Y-118445975D01*
X149987000Y-118326836D01*
X149987000Y-116967000D01*
X149967000Y-116967000D01*
X149967000Y-116713000D01*
X149987000Y-116713000D01*
X149987000Y-115353164D01*
X149731056Y-115234025D01*
X149249182Y-115433615D01*
X149151602Y-115524097D01*
X149054090Y-115372559D01*
X148841890Y-115227569D01*
X148590000Y-115176560D01*
X146558000Y-115176560D01*
X146322683Y-115220838D01*
X146106559Y-115359910D01*
X145961569Y-115572110D01*
X145910560Y-115824000D01*
X145910560Y-117856000D01*
X145954838Y-118091317D01*
X146093910Y-118307441D01*
X146306110Y-118452431D01*
X146558000Y-118503440D01*
X146795632Y-118503440D01*
X146882116Y-118632873D01*
X146948210Y-118731790D01*
X147981421Y-119765000D01*
X147880822Y-119765000D01*
X147760799Y-119715162D01*
X147388833Y-119714838D01*
X147045057Y-119856883D01*
X146781808Y-120119673D01*
X146639162Y-120463201D01*
X146638838Y-120835167D01*
X146780883Y-121178943D01*
X147043673Y-121442192D01*
X147387201Y-121584838D01*
X147759167Y-121585162D01*
X147880569Y-121535000D01*
X152653995Y-121535000D01*
X152654000Y-121535001D01*
X152936484Y-121478810D01*
X152992675Y-121467633D01*
X153279790Y-121275790D01*
X153533787Y-121021792D01*
X153533790Y-121021790D01*
X154295787Y-120259792D01*
X154295790Y-120259790D01*
X154487633Y-119972675D01*
X154527906Y-119770211D01*
X154555001Y-119634000D01*
X154555000Y-119633995D01*
X154555000Y-119185025D01*
X154564302Y-119194327D01*
X154797691Y-119291000D01*
X155138250Y-119291000D01*
X155297000Y-119132250D01*
X155297000Y-117983000D01*
X155551000Y-117983000D01*
X155551000Y-119132250D01*
X155709750Y-119291000D01*
X156050309Y-119291000D01*
X156283698Y-119194327D01*
X156462327Y-119015699D01*
X156559000Y-118782310D01*
X156559000Y-118141750D01*
X156400250Y-117983000D01*
X155551000Y-117983000D01*
X155297000Y-117983000D01*
X155277000Y-117983000D01*
X155277000Y-117729000D01*
X155297000Y-117729000D01*
X155297000Y-117709000D01*
X155551000Y-117709000D01*
X155551000Y-117729000D01*
X156400250Y-117729000D01*
X156559000Y-117570250D01*
X156559000Y-116929690D01*
X156462327Y-116696301D01*
X156423375Y-116657350D01*
X156471440Y-116420000D01*
X156471440Y-114720000D01*
X156427162Y-114484683D01*
X156288090Y-114268559D01*
X156259000Y-114248683D01*
X156259000Y-114226005D01*
X156259001Y-114226000D01*
X156191633Y-113887326D01*
X156191633Y-113887325D01*
X155999790Y-113600210D01*
X155999787Y-113600208D01*
X155565790Y-113166210D01*
X155522732Y-113137440D01*
X155278675Y-112974367D01*
X155223742Y-112963440D01*
X156044000Y-112963440D01*
X156279317Y-112919162D01*
X156495441Y-112780090D01*
X156640431Y-112567890D01*
X156691440Y-112316000D01*
X156691440Y-111416000D01*
X156647162Y-111180683D01*
X156508090Y-110964559D01*
X156295890Y-110819569D01*
X156044000Y-110768560D01*
X154344000Y-110768560D01*
X154108683Y-110812838D01*
X153899924Y-110947171D01*
X153650000Y-110896560D01*
X153050000Y-110896560D01*
X152814683Y-110940838D01*
X152598559Y-111079910D01*
X152453569Y-111292110D01*
X152402560Y-111544000D01*
X152402560Y-112044980D01*
X152397440Y-112039860D01*
X152397440Y-111544000D01*
X152353162Y-111308683D01*
X152214090Y-111092559D01*
X152001890Y-110947569D01*
X151750000Y-110896560D01*
X151150000Y-110896560D01*
X150914683Y-110940838D01*
X150818064Y-111003011D01*
X150657890Y-110893569D01*
X150406000Y-110842560D01*
X148825247Y-110842560D01*
X148737327Y-110630302D01*
X148596090Y-110489064D01*
X148650441Y-110454090D01*
X148795431Y-110241890D01*
X148819102Y-110125000D01*
X149320250Y-110125000D01*
X149479000Y-109966250D01*
X149479000Y-109117000D01*
X149459000Y-109117000D01*
X149459000Y-108914999D01*
X149477199Y-108914999D01*
X149738613Y-108863000D01*
X149753000Y-108863000D01*
X149753000Y-109117000D01*
X149733000Y-109117000D01*
X149733000Y-109966250D01*
X149891750Y-110125000D01*
X150532310Y-110125000D01*
X150566990Y-110110635D01*
X150685910Y-110295441D01*
X150898110Y-110440431D01*
X151150000Y-110491440D01*
X151750000Y-110491440D01*
X151924469Y-110458611D01*
X151973691Y-110479000D01*
X152114250Y-110479000D01*
X152273000Y-110320250D01*
X152273000Y-110203360D01*
X152346431Y-110095890D01*
X152397440Y-109844000D01*
X152397440Y-109147000D01*
X152402560Y-109147000D01*
X152402560Y-109844000D01*
X152446838Y-110079317D01*
X152527000Y-110203892D01*
X152527000Y-110320250D01*
X152685750Y-110479000D01*
X152826309Y-110479000D01*
X152879589Y-110456931D01*
X153050000Y-110491440D01*
X153650000Y-110491440D01*
X153885317Y-110447162D01*
X154101441Y-110308090D01*
X154246431Y-110095890D01*
X154255521Y-110051000D01*
X154908250Y-110051000D01*
X155067000Y-109892250D01*
X155067000Y-109093000D01*
X155321000Y-109093000D01*
X155321000Y-109892250D01*
X155479750Y-110051000D01*
X156170310Y-110051000D01*
X156403699Y-109954327D01*
X156582327Y-109775698D01*
X156679000Y-109542309D01*
X156679000Y-109251750D01*
X156520250Y-109093000D01*
X155321000Y-109093000D01*
X155067000Y-109093000D01*
X155047000Y-109093000D01*
X155047000Y-108839000D01*
X155067000Y-108839000D01*
X155067000Y-108039750D01*
X155321000Y-108039750D01*
X155321000Y-108839000D01*
X156520250Y-108839000D01*
X156679000Y-108680250D01*
X156679000Y-108389691D01*
X156582327Y-108156302D01*
X156403699Y-107977673D01*
X156170310Y-107881000D01*
X155479750Y-107881000D01*
X155321000Y-108039750D01*
X155067000Y-108039750D01*
X154908250Y-107881000D01*
X154217690Y-107881000D01*
X153984301Y-107977673D01*
X153934655Y-108027319D01*
X153887401Y-107956599D01*
X153597401Y-107666599D01*
X153350839Y-107501852D01*
X153060000Y-107444000D01*
X152968802Y-107444000D01*
X152048400Y-106523598D01*
X151801838Y-106358851D01*
X151510999Y-106300999D01*
X150571199Y-106300999D01*
X150280360Y-106358851D01*
X150033798Y-106523598D01*
X149162397Y-107394999D01*
X148385001Y-107394999D01*
X148094162Y-107452851D01*
X147847600Y-107617598D01*
X147767198Y-107698000D01*
X147382354Y-107698000D01*
X146899794Y-107215440D01*
X147162000Y-107215440D01*
X147397317Y-107171162D01*
X147613441Y-107032090D01*
X147758431Y-106819890D01*
X147796111Y-106633819D01*
X147864839Y-106620148D01*
X148111401Y-106455401D01*
X148221680Y-106345122D01*
X148267167Y-106345162D01*
X148610943Y-106203117D01*
X148874192Y-105940327D01*
X148939337Y-105783440D01*
X151404000Y-105783440D01*
X151639317Y-105739162D01*
X151855441Y-105600090D01*
X152000431Y-105387890D01*
X152051440Y-105136000D01*
X152051440Y-104664368D01*
X152279790Y-104511790D01*
X152517787Y-104273792D01*
X152517790Y-104273790D01*
X152619829Y-104171750D01*
X153269000Y-104171750D01*
X153269000Y-105262310D01*
X153365673Y-105495699D01*
X153544302Y-105674327D01*
X153777691Y-105771000D01*
X154893250Y-105771000D01*
X155052000Y-105612250D01*
X155052000Y-104013000D01*
X153427750Y-104013000D01*
X153269000Y-104171750D01*
X152619829Y-104171750D01*
X153269000Y-103522579D01*
X153269000Y-103600250D01*
X153427750Y-103759000D01*
X155052000Y-103759000D01*
X155052000Y-102159750D01*
X154893250Y-102001000D01*
X154774580Y-102001000D01*
X156073787Y-100701792D01*
X156073790Y-100701790D01*
X156265633Y-100414675D01*
X156333000Y-100076000D01*
X156333000Y-90932005D01*
X156333001Y-90932000D01*
X156265633Y-90593326D01*
X156265633Y-90593325D01*
X156073790Y-90306210D01*
X156073787Y-90306208D01*
X154534360Y-88766780D01*
X154247245Y-88574937D01*
X154191054Y-88563760D01*
X153908570Y-88507569D01*
X153908565Y-88507570D01*
X152015000Y-88507570D01*
X152015000Y-88204134D01*
X152400000Y-88280715D01*
X152815051Y-88198156D01*
X153039238Y-88048359D01*
X153376065Y-88212981D01*
X153543000Y-88086068D01*
X153543000Y-86995000D01*
X153797000Y-86995000D01*
X153797000Y-88086068D01*
X153963935Y-88212981D01*
X154347111Y-88025706D01*
X154623420Y-87701373D01*
X154754580Y-87295990D01*
X154754580Y-86995000D01*
X153797000Y-86995000D01*
X153543000Y-86995000D01*
X153523000Y-86995000D01*
X153523000Y-86741000D01*
X153543000Y-86741000D01*
X153543000Y-85649932D01*
X153797000Y-85649932D01*
X153797000Y-86741000D01*
X154754580Y-86741000D01*
X154754580Y-86440010D01*
X154623420Y-86034627D01*
X154347111Y-85710294D01*
X153963935Y-85523019D01*
X153797000Y-85649932D01*
X153543000Y-85649932D01*
X153376065Y-85523019D01*
X153160000Y-85628619D01*
X153160000Y-85090000D01*
X153102148Y-84799161D01*
X152937401Y-84552599D01*
X151921401Y-83536599D01*
X151674839Y-83371852D01*
X151384000Y-83314000D01*
X131064000Y-83314000D01*
X130821414Y-83362254D01*
X130773160Y-83371852D01*
X130526599Y-83536599D01*
X129103016Y-84960182D01*
X128524000Y-84845009D01*
X127860044Y-84977078D01*
X127297170Y-85353179D01*
X127216029Y-85474615D01*
X127179162Y-85278683D01*
X127040090Y-85062559D01*
X126827890Y-84917569D01*
X126576000Y-84866560D01*
X124376000Y-84866560D01*
X124140683Y-84910838D01*
X123924559Y-85049910D01*
X123779569Y-85262110D01*
X123728560Y-85514000D01*
X123728560Y-87714000D01*
X123772838Y-87949317D01*
X123911910Y-88165441D01*
X123977894Y-88210526D01*
X122818210Y-89370210D01*
X122655000Y-89614472D01*
X122655000Y-80571442D01*
X122894509Y-80571442D01*
X123325202Y-81613801D01*
X124122005Y-82411995D01*
X125163610Y-82844507D01*
X126291442Y-82845491D01*
X127333801Y-82414798D01*
X128131995Y-81617995D01*
X128564507Y-80576390D01*
X128564511Y-80571442D01*
X150834509Y-80571442D01*
X151265202Y-81613801D01*
X152062005Y-82411995D01*
X153103610Y-82844507D01*
X154231442Y-82845491D01*
X155273801Y-82414798D01*
X156071995Y-81617995D01*
X156504507Y-80576390D01*
X156505491Y-79448558D01*
X156074798Y-78406199D01*
X155277995Y-77608005D01*
X154236390Y-77175493D01*
X153108558Y-77174509D01*
X152066199Y-77605202D01*
X151268005Y-78402005D01*
X150835493Y-79443610D01*
X150834509Y-80571442D01*
X128564511Y-80571442D01*
X128565491Y-79448558D01*
X128134798Y-78406199D01*
X127337995Y-77608005D01*
X126296390Y-77175493D01*
X125168558Y-77174509D01*
X124126199Y-77605202D01*
X123328005Y-78402005D01*
X122895493Y-79443610D01*
X122894509Y-80571442D01*
X122655000Y-80571442D01*
X122655000Y-78812390D01*
X122805701Y-78054767D01*
X123193854Y-77473854D01*
X123774768Y-77085700D01*
X124532390Y-76935000D01*
X131876418Y-76935000D01*
X132971846Y-77592257D01*
X132971846Y-77592257D01*
G37*
X132971846Y-77592257D02*
X133023291Y-77610691D01*
X133068728Y-77641051D01*
X133157047Y-77658619D01*
X133241820Y-77688995D01*
X133296402Y-77686339D01*
X133350000Y-77697000D01*
X146050000Y-77697000D01*
X146103598Y-77686339D01*
X146158180Y-77688995D01*
X146242953Y-77658619D01*
X146331272Y-77641051D01*
X146376709Y-77610691D01*
X146428154Y-77592257D01*
X147523583Y-76935000D01*
X154867610Y-76935000D01*
X155625233Y-77085701D01*
X156206146Y-77473854D01*
X156594300Y-78054768D01*
X156745000Y-78812390D01*
X156745000Y-102069217D01*
X156580309Y-102001000D01*
X155464750Y-102001000D01*
X155306000Y-102159750D01*
X155306000Y-103759000D01*
X155326000Y-103759000D01*
X155326000Y-104013000D01*
X155306000Y-104013000D01*
X155306000Y-105612250D01*
X155464750Y-105771000D01*
X156580309Y-105771000D01*
X156745000Y-105702783D01*
X156745000Y-121847610D01*
X156594300Y-122605232D01*
X156206146Y-123186146D01*
X155625233Y-123574299D01*
X154867610Y-123725000D01*
X124532390Y-123725000D01*
X123774768Y-123574300D01*
X123193854Y-123186146D01*
X122805701Y-122605233D01*
X122655000Y-121847610D01*
X122655000Y-121703750D01*
X133615000Y-121703750D01*
X133615000Y-122794309D01*
X133711673Y-123027698D01*
X133890301Y-123206327D01*
X134123690Y-123303000D01*
X134964250Y-123303000D01*
X135123000Y-123144250D01*
X135123000Y-121545000D01*
X135377000Y-121545000D01*
X135377000Y-123144250D01*
X135535750Y-123303000D01*
X136376310Y-123303000D01*
X136609699Y-123206327D01*
X136788327Y-123027698D01*
X136885000Y-122794309D01*
X136885000Y-121703750D01*
X142515000Y-121703750D01*
X142515000Y-122794309D01*
X142611673Y-123027698D01*
X142790301Y-123206327D01*
X143023690Y-123303000D01*
X143864250Y-123303000D01*
X144023000Y-123144250D01*
X144023000Y-121545000D01*
X144277000Y-121545000D01*
X144277000Y-123144250D01*
X144435750Y-123303000D01*
X145276310Y-123303000D01*
X145509699Y-123206327D01*
X145688327Y-123027698D01*
X145785000Y-122794309D01*
X145785000Y-121703750D01*
X145626250Y-121545000D01*
X144277000Y-121545000D01*
X144023000Y-121545000D01*
X142673750Y-121545000D01*
X142515000Y-121703750D01*
X136885000Y-121703750D01*
X136726250Y-121545000D01*
X135377000Y-121545000D01*
X135123000Y-121545000D01*
X133773750Y-121545000D01*
X133615000Y-121703750D01*
X122655000Y-121703750D01*
X122655000Y-120041691D01*
X133615000Y-120041691D01*
X133615000Y-121132250D01*
X133773750Y-121291000D01*
X135123000Y-121291000D01*
X135123000Y-119691750D01*
X135377000Y-119691750D01*
X135377000Y-121291000D01*
X136726250Y-121291000D01*
X136885000Y-121132250D01*
X136885000Y-120041691D01*
X142515000Y-120041691D01*
X142515000Y-121132250D01*
X142673750Y-121291000D01*
X144023000Y-121291000D01*
X144023000Y-119691750D01*
X144277000Y-119691750D01*
X144277000Y-121291000D01*
X145626250Y-121291000D01*
X145785000Y-121132250D01*
X145785000Y-120041691D01*
X145688327Y-119808302D01*
X145509699Y-119629673D01*
X145276310Y-119533000D01*
X144435750Y-119533000D01*
X144277000Y-119691750D01*
X144023000Y-119691750D01*
X143864250Y-119533000D01*
X143023690Y-119533000D01*
X142790301Y-119629673D01*
X142611673Y-119808302D01*
X142515000Y-120041691D01*
X136885000Y-120041691D01*
X136788327Y-119808302D01*
X136609699Y-119629673D01*
X136376310Y-119533000D01*
X135535750Y-119533000D01*
X135377000Y-119691750D01*
X135123000Y-119691750D01*
X134964250Y-119533000D01*
X134123690Y-119533000D01*
X133890301Y-119629673D01*
X133711673Y-119808302D01*
X133615000Y-120041691D01*
X122655000Y-120041691D01*
X122655000Y-115189528D01*
X122718291Y-115284250D01*
X122818210Y-115433790D01*
X123580208Y-116195787D01*
X123580210Y-116195790D01*
X123867325Y-116387633D01*
X123923516Y-116398810D01*
X124206000Y-116455001D01*
X124206005Y-116455000D01*
X126947178Y-116455000D01*
X127067201Y-116504838D01*
X127439167Y-116505162D01*
X127782943Y-116363117D01*
X127942588Y-116203750D01*
X133615000Y-116203750D01*
X133615000Y-117294309D01*
X133711673Y-117527698D01*
X133890301Y-117706327D01*
X134123690Y-117803000D01*
X134964250Y-117803000D01*
X135123000Y-117644250D01*
X135123000Y-116045000D01*
X135377000Y-116045000D01*
X135377000Y-117644250D01*
X135535750Y-117803000D01*
X136376310Y-117803000D01*
X136609699Y-117706327D01*
X136788327Y-117527698D01*
X136885000Y-117294309D01*
X136885000Y-116203750D01*
X136726250Y-116045000D01*
X135377000Y-116045000D01*
X135123000Y-116045000D01*
X133773750Y-116045000D01*
X133615000Y-116203750D01*
X127942588Y-116203750D01*
X128046192Y-116100327D01*
X128188838Y-115756799D01*
X128189162Y-115384833D01*
X128047117Y-115041057D01*
X127937252Y-114931000D01*
X133095995Y-114931000D01*
X133096000Y-114931001D01*
X133378484Y-114874810D01*
X133434675Y-114863633D01*
X133615000Y-114743144D01*
X133615000Y-115632250D01*
X133773750Y-115791000D01*
X135123000Y-115791000D01*
X135123000Y-115771000D01*
X135377000Y-115771000D01*
X135377000Y-115791000D01*
X136726250Y-115791000D01*
X136885000Y-115632250D01*
X136885000Y-114541691D01*
X136835837Y-114423000D01*
X137047420Y-114423000D01*
X137215000Y-114590579D01*
X137215000Y-114606569D01*
X137202560Y-114668000D01*
X137202560Y-116968000D01*
X137246838Y-117203317D01*
X137330191Y-117332851D01*
X137285127Y-117332812D01*
X136886200Y-117497646D01*
X136580718Y-117802595D01*
X136415189Y-118201233D01*
X136414812Y-118632873D01*
X136579646Y-119031800D01*
X136884595Y-119337282D01*
X137283233Y-119502811D01*
X137714873Y-119503188D01*
X138113800Y-119338354D01*
X138419282Y-119033405D01*
X138584811Y-118634767D01*
X138585188Y-118203127D01*
X138420354Y-117804200D01*
X138231923Y-117615440D01*
X138350000Y-117615440D01*
X138505507Y-117586179D01*
X138650000Y-117615440D01*
X139150000Y-117615440D01*
X139305507Y-117586179D01*
X139450000Y-117615440D01*
X139950000Y-117615440D01*
X140105507Y-117586179D01*
X140250000Y-117615440D01*
X140750000Y-117615440D01*
X140890086Y-117589081D01*
X140923690Y-117603000D01*
X141016250Y-117603000D01*
X141161384Y-117457866D01*
X141172998Y-117450393D01*
X141172998Y-117603000D01*
X141180662Y-117603000D01*
X140980718Y-117802595D01*
X140815189Y-118201233D01*
X140814812Y-118632873D01*
X140979646Y-119031800D01*
X141284595Y-119337282D01*
X141683233Y-119502811D01*
X142114873Y-119503188D01*
X142513800Y-119338354D01*
X142819282Y-119033405D01*
X142984811Y-118634767D01*
X142985188Y-118203127D01*
X142820354Y-117804200D01*
X142515405Y-117498718D01*
X142116767Y-117333189D01*
X142082866Y-117333159D01*
X142088327Y-117327698D01*
X142185000Y-117094309D01*
X142185000Y-116203750D01*
X142515000Y-116203750D01*
X142515000Y-117294309D01*
X142611673Y-117527698D01*
X142790301Y-117706327D01*
X143023690Y-117803000D01*
X143864250Y-117803000D01*
X144023000Y-117644250D01*
X144023000Y-116045000D01*
X144277000Y-116045000D01*
X144277000Y-117644250D01*
X144435750Y-117803000D01*
X145276310Y-117803000D01*
X145509699Y-117706327D01*
X145688327Y-117527698D01*
X145785000Y-117294309D01*
X145785000Y-116203750D01*
X145626250Y-116045000D01*
X144277000Y-116045000D01*
X144023000Y-116045000D01*
X142673750Y-116045000D01*
X142515000Y-116203750D01*
X142185000Y-116203750D01*
X142185000Y-116103750D01*
X142026250Y-115945000D01*
X141425000Y-115945000D01*
X141425000Y-115965000D01*
X141397440Y-115965000D01*
X141397440Y-115671000D01*
X141425000Y-115671000D01*
X141425000Y-115691000D01*
X142026250Y-115691000D01*
X142185000Y-115532250D01*
X142185000Y-114541691D01*
X142135837Y-114423000D01*
X142564163Y-114423000D01*
X142515000Y-114541691D01*
X142515000Y-115632250D01*
X142673750Y-115791000D01*
X144023000Y-115791000D01*
X144023000Y-115771000D01*
X144277000Y-115771000D01*
X144277000Y-115791000D01*
X145626250Y-115791000D01*
X145785000Y-115632250D01*
X145785000Y-114541691D01*
X145735837Y-114423000D01*
X148807995Y-114423000D01*
X148808000Y-114423001D01*
X149090484Y-114366810D01*
X149146675Y-114355633D01*
X149433790Y-114163790D01*
X149433791Y-114163789D01*
X150231787Y-113365792D01*
X150231790Y-113365790D01*
X150384368Y-113137440D01*
X150406000Y-113137440D01*
X150641317Y-113093162D01*
X150671815Y-113073537D01*
X150685910Y-113095441D01*
X150898110Y-113240431D01*
X151144809Y-113290389D01*
X151939421Y-114085000D01*
X151897691Y-114085000D01*
X151664302Y-114181673D01*
X151485673Y-114360301D01*
X151389000Y-114593690D01*
X151389000Y-115284250D01*
X151547750Y-115443000D01*
X152347000Y-115443000D01*
X152347000Y-115423000D01*
X152601000Y-115423000D01*
X152601000Y-115443000D01*
X152621000Y-115443000D01*
X152621000Y-115697000D01*
X152601000Y-115697000D01*
X152601000Y-115717000D01*
X152347000Y-115717000D01*
X152347000Y-115697000D01*
X151547750Y-115697000D01*
X151410685Y-115834065D01*
X150978818Y-115433615D01*
X150496944Y-115234025D01*
X150241000Y-115353164D01*
X150241000Y-116713000D01*
X150261000Y-116713000D01*
X150261000Y-116967000D01*
X150241000Y-116967000D01*
X150241000Y-118326836D01*
X150496944Y-118445975D01*
X150978818Y-118246385D01*
X151276560Y-117970303D01*
X151276560Y-118656000D01*
X151294059Y-118749000D01*
X149468579Y-118749000D01*
X149040363Y-118320784D01*
X149041441Y-118320090D01*
X149152840Y-118157052D01*
X149249182Y-118246385D01*
X149731056Y-118445975D01*
X149987000Y-118326836D01*
X149987000Y-116967000D01*
X149967000Y-116967000D01*
X149967000Y-116713000D01*
X149987000Y-116713000D01*
X149987000Y-115353164D01*
X149731056Y-115234025D01*
X149249182Y-115433615D01*
X149151602Y-115524097D01*
X149054090Y-115372559D01*
X148841890Y-115227569D01*
X148590000Y-115176560D01*
X146558000Y-115176560D01*
X146322683Y-115220838D01*
X146106559Y-115359910D01*
X145961569Y-115572110D01*
X145910560Y-115824000D01*
X145910560Y-117856000D01*
X145954838Y-118091317D01*
X146093910Y-118307441D01*
X146306110Y-118452431D01*
X146558000Y-118503440D01*
X146795632Y-118503440D01*
X146882116Y-118632873D01*
X146948210Y-118731790D01*
X147981421Y-119765000D01*
X147880822Y-119765000D01*
X147760799Y-119715162D01*
X147388833Y-119714838D01*
X147045057Y-119856883D01*
X146781808Y-120119673D01*
X146639162Y-120463201D01*
X146638838Y-120835167D01*
X146780883Y-121178943D01*
X147043673Y-121442192D01*
X147387201Y-121584838D01*
X147759167Y-121585162D01*
X147880569Y-121535000D01*
X152653995Y-121535000D01*
X152654000Y-121535001D01*
X152936484Y-121478810D01*
X152992675Y-121467633D01*
X153279790Y-121275790D01*
X153533787Y-121021792D01*
X153533790Y-121021790D01*
X154295787Y-120259792D01*
X154295790Y-120259790D01*
X154487633Y-119972675D01*
X154527906Y-119770211D01*
X154555001Y-119634000D01*
X154555000Y-119633995D01*
X154555000Y-119185025D01*
X154564302Y-119194327D01*
X154797691Y-119291000D01*
X155138250Y-119291000D01*
X155297000Y-119132250D01*
X155297000Y-117983000D01*
X155551000Y-117983000D01*
X155551000Y-119132250D01*
X155709750Y-119291000D01*
X156050309Y-119291000D01*
X156283698Y-119194327D01*
X156462327Y-119015699D01*
X156559000Y-118782310D01*
X156559000Y-118141750D01*
X156400250Y-117983000D01*
X155551000Y-117983000D01*
X155297000Y-117983000D01*
X155277000Y-117983000D01*
X155277000Y-117729000D01*
X155297000Y-117729000D01*
X155297000Y-117709000D01*
X155551000Y-117709000D01*
X155551000Y-117729000D01*
X156400250Y-117729000D01*
X156559000Y-117570250D01*
X156559000Y-116929690D01*
X156462327Y-116696301D01*
X156423375Y-116657350D01*
X156471440Y-116420000D01*
X156471440Y-114720000D01*
X156427162Y-114484683D01*
X156288090Y-114268559D01*
X156259000Y-114248683D01*
X156259000Y-114226005D01*
X156259001Y-114226000D01*
X156191633Y-113887326D01*
X156191633Y-113887325D01*
X155999790Y-113600210D01*
X155999787Y-113600208D01*
X155565790Y-113166210D01*
X155522732Y-113137440D01*
X155278675Y-112974367D01*
X155223742Y-112963440D01*
X156044000Y-112963440D01*
X156279317Y-112919162D01*
X156495441Y-112780090D01*
X156640431Y-112567890D01*
X156691440Y-112316000D01*
X156691440Y-111416000D01*
X156647162Y-111180683D01*
X156508090Y-110964559D01*
X156295890Y-110819569D01*
X156044000Y-110768560D01*
X154344000Y-110768560D01*
X154108683Y-110812838D01*
X153899924Y-110947171D01*
X153650000Y-110896560D01*
X153050000Y-110896560D01*
X152814683Y-110940838D01*
X152598559Y-111079910D01*
X152453569Y-111292110D01*
X152402560Y-111544000D01*
X152402560Y-112044980D01*
X152397440Y-112039860D01*
X152397440Y-111544000D01*
X152353162Y-111308683D01*
X152214090Y-111092559D01*
X152001890Y-110947569D01*
X151750000Y-110896560D01*
X151150000Y-110896560D01*
X150914683Y-110940838D01*
X150818064Y-111003011D01*
X150657890Y-110893569D01*
X150406000Y-110842560D01*
X148825247Y-110842560D01*
X148737327Y-110630302D01*
X148596090Y-110489064D01*
X148650441Y-110454090D01*
X148795431Y-110241890D01*
X148819102Y-110125000D01*
X149320250Y-110125000D01*
X149479000Y-109966250D01*
X149479000Y-109117000D01*
X149459000Y-109117000D01*
X149459000Y-108914999D01*
X149477199Y-108914999D01*
X149738613Y-108863000D01*
X149753000Y-108863000D01*
X149753000Y-109117000D01*
X149733000Y-109117000D01*
X149733000Y-109966250D01*
X149891750Y-110125000D01*
X150532310Y-110125000D01*
X150566990Y-110110635D01*
X150685910Y-110295441D01*
X150898110Y-110440431D01*
X151150000Y-110491440D01*
X151750000Y-110491440D01*
X151924469Y-110458611D01*
X151973691Y-110479000D01*
X152114250Y-110479000D01*
X152273000Y-110320250D01*
X152273000Y-110203360D01*
X152346431Y-110095890D01*
X152397440Y-109844000D01*
X152397440Y-109147000D01*
X152402560Y-109147000D01*
X152402560Y-109844000D01*
X152446838Y-110079317D01*
X152527000Y-110203892D01*
X152527000Y-110320250D01*
X152685750Y-110479000D01*
X152826309Y-110479000D01*
X152879589Y-110456931D01*
X153050000Y-110491440D01*
X153650000Y-110491440D01*
X153885317Y-110447162D01*
X154101441Y-110308090D01*
X154246431Y-110095890D01*
X154255521Y-110051000D01*
X154908250Y-110051000D01*
X155067000Y-109892250D01*
X155067000Y-109093000D01*
X155321000Y-109093000D01*
X155321000Y-109892250D01*
X155479750Y-110051000D01*
X156170310Y-110051000D01*
X156403699Y-109954327D01*
X156582327Y-109775698D01*
X156679000Y-109542309D01*
X156679000Y-109251750D01*
X156520250Y-109093000D01*
X155321000Y-109093000D01*
X155067000Y-109093000D01*
X155047000Y-109093000D01*
X155047000Y-108839000D01*
X155067000Y-108839000D01*
X155067000Y-108039750D01*
X155321000Y-108039750D01*
X155321000Y-108839000D01*
X156520250Y-108839000D01*
X156679000Y-108680250D01*
X156679000Y-108389691D01*
X156582327Y-108156302D01*
X156403699Y-107977673D01*
X156170310Y-107881000D01*
X155479750Y-107881000D01*
X155321000Y-108039750D01*
X155067000Y-108039750D01*
X154908250Y-107881000D01*
X154217690Y-107881000D01*
X153984301Y-107977673D01*
X153934655Y-108027319D01*
X153887401Y-107956599D01*
X153597401Y-107666599D01*
X153350839Y-107501852D01*
X153060000Y-107444000D01*
X152968802Y-107444000D01*
X152048400Y-106523598D01*
X151801838Y-106358851D01*
X151510999Y-106300999D01*
X150571199Y-106300999D01*
X150280360Y-106358851D01*
X150033798Y-106523598D01*
X149162397Y-107394999D01*
X148385001Y-107394999D01*
X148094162Y-107452851D01*
X147847600Y-107617598D01*
X147767198Y-107698000D01*
X147382354Y-107698000D01*
X146899794Y-107215440D01*
X147162000Y-107215440D01*
X147397317Y-107171162D01*
X147613441Y-107032090D01*
X147758431Y-106819890D01*
X147796111Y-106633819D01*
X147864839Y-106620148D01*
X148111401Y-106455401D01*
X148221680Y-106345122D01*
X148267167Y-106345162D01*
X148610943Y-106203117D01*
X148874192Y-105940327D01*
X148939337Y-105783440D01*
X151404000Y-105783440D01*
X151639317Y-105739162D01*
X151855441Y-105600090D01*
X152000431Y-105387890D01*
X152051440Y-105136000D01*
X152051440Y-104664368D01*
X152279790Y-104511790D01*
X152517787Y-104273792D01*
X152517790Y-104273790D01*
X152619829Y-104171750D01*
X153269000Y-104171750D01*
X153269000Y-105262310D01*
X153365673Y-105495699D01*
X153544302Y-105674327D01*
X153777691Y-105771000D01*
X154893250Y-105771000D01*
X155052000Y-105612250D01*
X155052000Y-104013000D01*
X153427750Y-104013000D01*
X153269000Y-104171750D01*
X152619829Y-104171750D01*
X153269000Y-103522579D01*
X153269000Y-103600250D01*
X153427750Y-103759000D01*
X155052000Y-103759000D01*
X155052000Y-102159750D01*
X154893250Y-102001000D01*
X154774580Y-102001000D01*
X156073787Y-100701792D01*
X156073790Y-100701790D01*
X156265633Y-100414675D01*
X156333000Y-100076000D01*
X156333000Y-90932005D01*
X156333001Y-90932000D01*
X156265633Y-90593326D01*
X156265633Y-90593325D01*
X156073790Y-90306210D01*
X156073787Y-90306208D01*
X154534360Y-88766780D01*
X154247245Y-88574937D01*
X154191054Y-88563760D01*
X153908570Y-88507569D01*
X153908565Y-88507570D01*
X152015000Y-88507570D01*
X152015000Y-88204134D01*
X152400000Y-88280715D01*
X152815051Y-88198156D01*
X153039238Y-88048359D01*
X153376065Y-88212981D01*
X153543000Y-88086068D01*
X153543000Y-86995000D01*
X153797000Y-86995000D01*
X153797000Y-88086068D01*
X153963935Y-88212981D01*
X154347111Y-88025706D01*
X154623420Y-87701373D01*
X154754580Y-87295990D01*
X154754580Y-86995000D01*
X153797000Y-86995000D01*
X153543000Y-86995000D01*
X153523000Y-86995000D01*
X153523000Y-86741000D01*
X153543000Y-86741000D01*
X153543000Y-85649932D01*
X153797000Y-85649932D01*
X153797000Y-86741000D01*
X154754580Y-86741000D01*
X154754580Y-86440010D01*
X154623420Y-86034627D01*
X154347111Y-85710294D01*
X153963935Y-85523019D01*
X153797000Y-85649932D01*
X153543000Y-85649932D01*
X153376065Y-85523019D01*
X153160000Y-85628619D01*
X153160000Y-85090000D01*
X153102148Y-84799161D01*
X152937401Y-84552599D01*
X151921401Y-83536599D01*
X151674839Y-83371852D01*
X151384000Y-83314000D01*
X131064000Y-83314000D01*
X130821414Y-83362254D01*
X130773160Y-83371852D01*
X130526599Y-83536599D01*
X129103016Y-84960182D01*
X128524000Y-84845009D01*
X127860044Y-84977078D01*
X127297170Y-85353179D01*
X127216029Y-85474615D01*
X127179162Y-85278683D01*
X127040090Y-85062559D01*
X126827890Y-84917569D01*
X126576000Y-84866560D01*
X124376000Y-84866560D01*
X124140683Y-84910838D01*
X123924559Y-85049910D01*
X123779569Y-85262110D01*
X123728560Y-85514000D01*
X123728560Y-87714000D01*
X123772838Y-87949317D01*
X123911910Y-88165441D01*
X123977894Y-88210526D01*
X122818210Y-89370210D01*
X122655000Y-89614472D01*
X122655000Y-80571442D01*
X122894509Y-80571442D01*
X123325202Y-81613801D01*
X124122005Y-82411995D01*
X125163610Y-82844507D01*
X126291442Y-82845491D01*
X127333801Y-82414798D01*
X128131995Y-81617995D01*
X128564507Y-80576390D01*
X128564511Y-80571442D01*
X150834509Y-80571442D01*
X151265202Y-81613801D01*
X152062005Y-82411995D01*
X153103610Y-82844507D01*
X154231442Y-82845491D01*
X155273801Y-82414798D01*
X156071995Y-81617995D01*
X156504507Y-80576390D01*
X156505491Y-79448558D01*
X156074798Y-78406199D01*
X155277995Y-77608005D01*
X154236390Y-77175493D01*
X153108558Y-77174509D01*
X152066199Y-77605202D01*
X151268005Y-78402005D01*
X150835493Y-79443610D01*
X150834509Y-80571442D01*
X128564511Y-80571442D01*
X128565491Y-79448558D01*
X128134798Y-78406199D01*
X127337995Y-77608005D01*
X126296390Y-77175493D01*
X125168558Y-77174509D01*
X124126199Y-77605202D01*
X123328005Y-78402005D01*
X122895493Y-79443610D01*
X122894509Y-80571442D01*
X122655000Y-80571442D01*
X122655000Y-78812390D01*
X122805701Y-78054767D01*
X123193854Y-77473854D01*
X123774768Y-77085700D01*
X124532390Y-76935000D01*
X131876418Y-76935000D01*
X132971846Y-77592257D01*
G36*
X129416560Y-107892000D02*
X129460838Y-108127317D01*
X129554000Y-108272095D01*
X129554000Y-109518912D01*
X129472851Y-109640360D01*
X129414999Y-109931199D01*
X129414999Y-110540801D01*
X129472851Y-110831640D01*
X129637598Y-111078202D01*
X130094797Y-111535401D01*
X130341359Y-111700148D01*
X130632198Y-111758000D01*
X130759889Y-111758000D01*
X130525808Y-111991673D01*
X130383162Y-112335201D01*
X130382838Y-112707167D01*
X130524883Y-113050943D01*
X130634748Y-113161000D01*
X127915117Y-113161000D01*
X127935730Y-113059210D01*
X127935730Y-107458510D01*
X127916253Y-107355001D01*
X129416560Y-107355001D01*
X129416560Y-107892000D01*
X129416560Y-107892000D01*
G37*
X129416560Y-107892000D02*
X129460838Y-108127317D01*
X129554000Y-108272095D01*
X129554000Y-109518912D01*
X129472851Y-109640360D01*
X129414999Y-109931199D01*
X129414999Y-110540801D01*
X129472851Y-110831640D01*
X129637598Y-111078202D01*
X130094797Y-111535401D01*
X130341359Y-111700148D01*
X130632198Y-111758000D01*
X130759889Y-111758000D01*
X130525808Y-111991673D01*
X130383162Y-112335201D01*
X130382838Y-112707167D01*
X130524883Y-113050943D01*
X130634748Y-113161000D01*
X127915117Y-113161000D01*
X127935730Y-113059210D01*
X127935730Y-107458510D01*
X127916253Y-107355001D01*
X129416560Y-107355001D01*
X129416560Y-107892000D01*
G36*
X142745560Y-109990000D02*
X142789838Y-110225317D01*
X142928910Y-110441441D01*
X142997006Y-110487969D01*
X142854673Y-110630302D01*
X142758000Y-110863691D01*
X142758000Y-111204250D01*
X142916750Y-111363000D01*
X143891000Y-111363000D01*
X143891000Y-111343000D01*
X144145000Y-111343000D01*
X144145000Y-111363000D01*
X145669000Y-111363000D01*
X145669000Y-111343000D01*
X145923000Y-111343000D01*
X145923000Y-111363000D01*
X147447000Y-111363000D01*
X147447000Y-111343000D01*
X147701000Y-111343000D01*
X147701000Y-111363000D01*
X147721000Y-111363000D01*
X147721000Y-111617000D01*
X147701000Y-111617000D01*
X147701000Y-112466250D01*
X147859750Y-112625000D01*
X148183962Y-112625000D01*
X148189231Y-112653000D01*
X143175108Y-112653000D01*
X143175162Y-112590833D01*
X143173295Y-112586314D01*
X143266690Y-112625000D01*
X143732250Y-112625000D01*
X143891000Y-112466250D01*
X143891000Y-111617000D01*
X144145000Y-111617000D01*
X144145000Y-112466250D01*
X144303750Y-112625000D01*
X144769310Y-112625000D01*
X144907000Y-112567967D01*
X145044690Y-112625000D01*
X145510250Y-112625000D01*
X145669000Y-112466250D01*
X145669000Y-111617000D01*
X145923000Y-111617000D01*
X145923000Y-112466250D01*
X146081750Y-112625000D01*
X146547310Y-112625000D01*
X146685000Y-112567967D01*
X146822690Y-112625000D01*
X147288250Y-112625000D01*
X147447000Y-112466250D01*
X147447000Y-111617000D01*
X145923000Y-111617000D01*
X145669000Y-111617000D01*
X144145000Y-111617000D01*
X143891000Y-111617000D01*
X142916750Y-111617000D01*
X142758000Y-111775750D01*
X142758000Y-111978689D01*
X142450015Y-111850802D01*
X142524431Y-111741890D01*
X142575440Y-111490000D01*
X142575440Y-110990000D01*
X142531162Y-110754683D01*
X142392090Y-110538559D01*
X142322289Y-110490866D01*
X142379441Y-110454090D01*
X142524431Y-110241890D01*
X142575440Y-109990000D01*
X142575440Y-109800000D01*
X142745560Y-109800000D01*
X142745560Y-109990000D01*
X142745560Y-109990000D01*
G37*
X142745560Y-109990000D02*
X142789838Y-110225317D01*
X142928910Y-110441441D01*
X142997006Y-110487969D01*
X142854673Y-110630302D01*
X142758000Y-110863691D01*
X142758000Y-111204250D01*
X142916750Y-111363000D01*
X143891000Y-111363000D01*
X143891000Y-111343000D01*
X144145000Y-111343000D01*
X144145000Y-111363000D01*
X145669000Y-111363000D01*
X145669000Y-111343000D01*
X145923000Y-111343000D01*
X145923000Y-111363000D01*
X147447000Y-111363000D01*
X147447000Y-111343000D01*
X147701000Y-111343000D01*
X147701000Y-111363000D01*
X147721000Y-111363000D01*
X147721000Y-111617000D01*
X147701000Y-111617000D01*
X147701000Y-112466250D01*
X147859750Y-112625000D01*
X148183962Y-112625000D01*
X148189231Y-112653000D01*
X143175108Y-112653000D01*
X143175162Y-112590833D01*
X143173295Y-112586314D01*
X143266690Y-112625000D01*
X143732250Y-112625000D01*
X143891000Y-112466250D01*
X143891000Y-111617000D01*
X144145000Y-111617000D01*
X144145000Y-112466250D01*
X144303750Y-112625000D01*
X144769310Y-112625000D01*
X144907000Y-112567967D01*
X145044690Y-112625000D01*
X145510250Y-112625000D01*
X145669000Y-112466250D01*
X145669000Y-111617000D01*
X145923000Y-111617000D01*
X145923000Y-112466250D01*
X146081750Y-112625000D01*
X146547310Y-112625000D01*
X146685000Y-112567967D01*
X146822690Y-112625000D01*
X147288250Y-112625000D01*
X147447000Y-112466250D01*
X147447000Y-111617000D01*
X145923000Y-111617000D01*
X145669000Y-111617000D01*
X144145000Y-111617000D01*
X143891000Y-111617000D01*
X142916750Y-111617000D01*
X142758000Y-111775750D01*
X142758000Y-111978689D01*
X142450015Y-111850802D01*
X142524431Y-111741890D01*
X142575440Y-111490000D01*
X142575440Y-110990000D01*
X142531162Y-110754683D01*
X142392090Y-110538559D01*
X142322289Y-110490866D01*
X142379441Y-110454090D01*
X142524431Y-110241890D01*
X142575440Y-109990000D01*
X142575440Y-109800000D01*
X142745560Y-109800000D01*
X142745560Y-109990000D01*
G36*
X136986838Y-95943167D02*
X137128883Y-96286943D01*
X137160266Y-96318380D01*
X136162589Y-97316057D01*
X135997842Y-97562619D01*
X135939990Y-97853458D01*
X135939991Y-104330543D01*
X135997843Y-104621382D01*
X136162590Y-104867944D01*
X137194057Y-105899411D01*
X137440619Y-106064158D01*
X137522876Y-106080520D01*
X136667396Y-106936000D01*
X136198463Y-106936000D01*
X136166327Y-106903808D01*
X135822799Y-106761162D01*
X135450833Y-106760838D01*
X135107057Y-106902883D01*
X135039578Y-106970245D01*
X134920897Y-106993852D01*
X134674335Y-107158599D01*
X134336599Y-107496335D01*
X134171852Y-107742897D01*
X134132136Y-107942560D01*
X134024000Y-107942560D01*
X133788683Y-107986838D01*
X133572559Y-108125910D01*
X133427569Y-108338110D01*
X133376560Y-108590000D01*
X133376560Y-108855000D01*
X133353431Y-108855000D01*
X133292000Y-108842560D01*
X132996139Y-108842560D01*
X132699000Y-108545420D01*
X132699000Y-108327000D01*
X132841995Y-108327000D01*
X132842000Y-108327001D01*
X133139868Y-108267750D01*
X133180675Y-108259633D01*
X133467790Y-108067790D01*
X134229787Y-107305792D01*
X134229790Y-107305790D01*
X134421633Y-107018675D01*
X134446234Y-106895000D01*
X134489001Y-106680000D01*
X134489000Y-106679995D01*
X134489000Y-105522580D01*
X135245787Y-104765792D01*
X135245790Y-104765790D01*
X135437633Y-104478675D01*
X135454874Y-104391999D01*
X135505001Y-104140000D01*
X135505000Y-104139995D01*
X135505000Y-98214269D01*
X135505001Y-98214264D01*
X135437633Y-97875590D01*
X135437633Y-97875589D01*
X135245790Y-97588474D01*
X135245787Y-97588472D01*
X134629448Y-96972132D01*
X135542407Y-96059172D01*
X135626791Y-96002789D01*
X135748580Y-95881000D01*
X136986892Y-95881000D01*
X136986838Y-95943167D01*
X136986838Y-95943167D01*
G37*
X136986838Y-95943167D02*
X137128883Y-96286943D01*
X137160266Y-96318380D01*
X136162589Y-97316057D01*
X135997842Y-97562619D01*
X135939990Y-97853458D01*
X135939991Y-104330543D01*
X135997843Y-104621382D01*
X136162590Y-104867944D01*
X137194057Y-105899411D01*
X137440619Y-106064158D01*
X137522876Y-106080520D01*
X136667396Y-106936000D01*
X136198463Y-106936000D01*
X136166327Y-106903808D01*
X135822799Y-106761162D01*
X135450833Y-106760838D01*
X135107057Y-106902883D01*
X135039578Y-106970245D01*
X134920897Y-106993852D01*
X134674335Y-107158599D01*
X134336599Y-107496335D01*
X134171852Y-107742897D01*
X134132136Y-107942560D01*
X134024000Y-107942560D01*
X133788683Y-107986838D01*
X133572559Y-108125910D01*
X133427569Y-108338110D01*
X133376560Y-108590000D01*
X133376560Y-108855000D01*
X133353431Y-108855000D01*
X133292000Y-108842560D01*
X132996139Y-108842560D01*
X132699000Y-108545420D01*
X132699000Y-108327000D01*
X132841995Y-108327000D01*
X132842000Y-108327001D01*
X133139868Y-108267750D01*
X133180675Y-108259633D01*
X133467790Y-108067790D01*
X134229787Y-107305792D01*
X134229790Y-107305790D01*
X134421633Y-107018675D01*
X134446234Y-106895000D01*
X134489001Y-106680000D01*
X134489000Y-106679995D01*
X134489000Y-105522580D01*
X135245787Y-104765792D01*
X135245790Y-104765790D01*
X135437633Y-104478675D01*
X135454874Y-104391999D01*
X135505001Y-104140000D01*
X135505000Y-104139995D01*
X135505000Y-98214269D01*
X135505001Y-98214264D01*
X135437633Y-97875590D01*
X135437633Y-97875589D01*
X135245790Y-97588474D01*
X135245787Y-97588472D01*
X134629448Y-96972132D01*
X135542407Y-96059172D01*
X135626791Y-96002789D01*
X135748580Y-95881000D01*
X136986892Y-95881000D01*
X136986838Y-95943167D01*
G36*
X148206560Y-104475108D02*
X147896833Y-104474838D01*
X147553057Y-104616883D01*
X147463986Y-104705798D01*
X147413890Y-104671569D01*
X147162000Y-104620560D01*
X146462000Y-104620560D01*
X146226683Y-104664838D01*
X146010559Y-104803910D01*
X145865569Y-105016110D01*
X145858809Y-105049490D01*
X145800327Y-104908301D01*
X145621698Y-104729673D01*
X145388309Y-104633000D01*
X145197750Y-104633000D01*
X145039000Y-104791750D01*
X145039000Y-105791000D01*
X145059000Y-105791000D01*
X145059000Y-106045000D01*
X145039000Y-106045000D01*
X145039000Y-106065000D01*
X144785000Y-106065000D01*
X144785000Y-106045000D01*
X144085750Y-106045000D01*
X143927000Y-106203750D01*
X143927000Y-106694310D01*
X144012188Y-106899971D01*
X142264773Y-106899971D01*
X141026802Y-105662000D01*
X141458000Y-105662000D01*
X141748839Y-105604148D01*
X141995401Y-105439401D01*
X142269401Y-105165401D01*
X142388937Y-104986502D01*
X142417317Y-104981162D01*
X142543446Y-104900000D01*
X142947537Y-104900000D01*
X142979673Y-104932192D01*
X143323201Y-105074838D01*
X143695167Y-105075162D01*
X144008118Y-104945854D01*
X143927000Y-105141690D01*
X143927000Y-105632250D01*
X144085750Y-105791000D01*
X144785000Y-105791000D01*
X144785000Y-104791750D01*
X144626250Y-104633000D01*
X144435691Y-104633000D01*
X144271423Y-104701042D01*
X144302192Y-104670327D01*
X144444838Y-104326799D01*
X144445113Y-104011001D01*
X147635997Y-104011001D01*
X147926836Y-103953149D01*
X148173398Y-103788402D01*
X148206560Y-103755240D01*
X148206560Y-104475108D01*
X148206560Y-104475108D01*
G37*
X148206560Y-104475108D02*
X147896833Y-104474838D01*
X147553057Y-104616883D01*
X147463986Y-104705798D01*
X147413890Y-104671569D01*
X147162000Y-104620560D01*
X146462000Y-104620560D01*
X146226683Y-104664838D01*
X146010559Y-104803910D01*
X145865569Y-105016110D01*
X145858809Y-105049490D01*
X145800327Y-104908301D01*
X145621698Y-104729673D01*
X145388309Y-104633000D01*
X145197750Y-104633000D01*
X145039000Y-104791750D01*
X145039000Y-105791000D01*
X145059000Y-105791000D01*
X145059000Y-106045000D01*
X145039000Y-106045000D01*
X145039000Y-106065000D01*
X144785000Y-106065000D01*
X144785000Y-106045000D01*
X144085750Y-106045000D01*
X143927000Y-106203750D01*
X143927000Y-106694310D01*
X144012188Y-106899971D01*
X142264773Y-106899971D01*
X141026802Y-105662000D01*
X141458000Y-105662000D01*
X141748839Y-105604148D01*
X141995401Y-105439401D01*
X142269401Y-105165401D01*
X142388937Y-104986502D01*
X142417317Y-104981162D01*
X142543446Y-104900000D01*
X142947537Y-104900000D01*
X142979673Y-104932192D01*
X143323201Y-105074838D01*
X143695167Y-105075162D01*
X144008118Y-104945854D01*
X143927000Y-105141690D01*
X143927000Y-105632250D01*
X144085750Y-105791000D01*
X144785000Y-105791000D01*
X144785000Y-104791750D01*
X144626250Y-104633000D01*
X144435691Y-104633000D01*
X144271423Y-104701042D01*
X144302192Y-104670327D01*
X144444838Y-104326799D01*
X144445113Y-104011001D01*
X147635997Y-104011001D01*
X147926836Y-103953149D01*
X148173398Y-103788402D01*
X148206560Y-103755240D01*
X148206560Y-104475108D01*
G36*
X129087750Y-97409000D02*
X129937000Y-97409000D01*
X129937000Y-97389000D01*
X130191000Y-97389000D01*
X130191000Y-97409000D01*
X130211000Y-97409000D01*
X130211000Y-97663000D01*
X130191000Y-97663000D01*
X130191000Y-99187000D01*
X130211000Y-99187000D01*
X130211000Y-99441000D01*
X130191000Y-99441000D01*
X130191000Y-100965000D01*
X130211000Y-100965000D01*
X130211000Y-101219000D01*
X130191000Y-101219000D01*
X130191000Y-102006750D01*
X130175000Y-102022750D01*
X130175000Y-102997000D01*
X130195000Y-102997000D01*
X130195000Y-103251000D01*
X130175000Y-103251000D01*
X130175000Y-103271000D01*
X129921000Y-103271000D01*
X129921000Y-103251000D01*
X129071750Y-103251000D01*
X128913000Y-103409750D01*
X128913000Y-103875310D01*
X128948829Y-103961808D01*
X128804302Y-104021673D01*
X128625673Y-104200301D01*
X128529000Y-104433690D01*
X128529000Y-105124250D01*
X128687750Y-105283000D01*
X129487000Y-105283000D01*
X129487000Y-105263000D01*
X129741000Y-105263000D01*
X129741000Y-105283000D01*
X129761000Y-105283000D01*
X129761000Y-105537000D01*
X129741000Y-105537000D01*
X129741000Y-105557000D01*
X129487000Y-105557000D01*
X129487000Y-105537000D01*
X128687750Y-105537000D01*
X128529000Y-105695750D01*
X128529000Y-105835001D01*
X126851509Y-105835001D01*
X126560670Y-105892853D01*
X126314108Y-106057600D01*
X125700599Y-106671109D01*
X125607080Y-106811070D01*
X125261001Y-106811070D01*
X125261001Y-104008930D01*
X127288290Y-104008930D01*
X127523607Y-103964652D01*
X127739731Y-103825580D01*
X127884721Y-103613380D01*
X127935730Y-103361490D01*
X127935730Y-102372690D01*
X128913000Y-102372690D01*
X128913000Y-102838250D01*
X129071750Y-102997000D01*
X129921000Y-102997000D01*
X129921000Y-102209250D01*
X129937000Y-102193250D01*
X129937000Y-101219000D01*
X129087750Y-101219000D01*
X128929000Y-101377750D01*
X128929000Y-101843310D01*
X129025673Y-102076699D01*
X129048974Y-102100000D01*
X129009673Y-102139301D01*
X128913000Y-102372690D01*
X127935730Y-102372690D01*
X127935730Y-99599750D01*
X128929000Y-99599750D01*
X128929000Y-100065310D01*
X128986033Y-100203000D01*
X128929000Y-100340690D01*
X128929000Y-100806250D01*
X129087750Y-100965000D01*
X129937000Y-100965000D01*
X129937000Y-99441000D01*
X129087750Y-99441000D01*
X128929000Y-99599750D01*
X127935730Y-99599750D01*
X127935730Y-97821750D01*
X128929000Y-97821750D01*
X128929000Y-98287310D01*
X128986033Y-98425000D01*
X128929000Y-98562690D01*
X128929000Y-99028250D01*
X129087750Y-99187000D01*
X129937000Y-99187000D01*
X129937000Y-97663000D01*
X129087750Y-97663000D01*
X128929000Y-97821750D01*
X127935730Y-97821750D01*
X127935730Y-97760790D01*
X127891452Y-97525473D01*
X127769529Y-97335999D01*
X129014749Y-97335999D01*
X129087750Y-97409000D01*
X129087750Y-97409000D01*
G37*
X129087750Y-97409000D02*
X129937000Y-97409000D01*
X129937000Y-97389000D01*
X130191000Y-97389000D01*
X130191000Y-97409000D01*
X130211000Y-97409000D01*
X130211000Y-97663000D01*
X130191000Y-97663000D01*
X130191000Y-99187000D01*
X130211000Y-99187000D01*
X130211000Y-99441000D01*
X130191000Y-99441000D01*
X130191000Y-100965000D01*
X130211000Y-100965000D01*
X130211000Y-101219000D01*
X130191000Y-101219000D01*
X130191000Y-102006750D01*
X130175000Y-102022750D01*
X130175000Y-102997000D01*
X130195000Y-102997000D01*
X130195000Y-103251000D01*
X130175000Y-103251000D01*
X130175000Y-103271000D01*
X129921000Y-103271000D01*
X129921000Y-103251000D01*
X129071750Y-103251000D01*
X128913000Y-103409750D01*
X128913000Y-103875310D01*
X128948829Y-103961808D01*
X128804302Y-104021673D01*
X128625673Y-104200301D01*
X128529000Y-104433690D01*
X128529000Y-105124250D01*
X128687750Y-105283000D01*
X129487000Y-105283000D01*
X129487000Y-105263000D01*
X129741000Y-105263000D01*
X129741000Y-105283000D01*
X129761000Y-105283000D01*
X129761000Y-105537000D01*
X129741000Y-105537000D01*
X129741000Y-105557000D01*
X129487000Y-105557000D01*
X129487000Y-105537000D01*
X128687750Y-105537000D01*
X128529000Y-105695750D01*
X128529000Y-105835001D01*
X126851509Y-105835001D01*
X126560670Y-105892853D01*
X126314108Y-106057600D01*
X125700599Y-106671109D01*
X125607080Y-106811070D01*
X125261001Y-106811070D01*
X125261001Y-104008930D01*
X127288290Y-104008930D01*
X127523607Y-103964652D01*
X127739731Y-103825580D01*
X127884721Y-103613380D01*
X127935730Y-103361490D01*
X127935730Y-102372690D01*
X128913000Y-102372690D01*
X128913000Y-102838250D01*
X129071750Y-102997000D01*
X129921000Y-102997000D01*
X129921000Y-102209250D01*
X129937000Y-102193250D01*
X129937000Y-101219000D01*
X129087750Y-101219000D01*
X128929000Y-101377750D01*
X128929000Y-101843310D01*
X129025673Y-102076699D01*
X129048974Y-102100000D01*
X129009673Y-102139301D01*
X128913000Y-102372690D01*
X127935730Y-102372690D01*
X127935730Y-99599750D01*
X128929000Y-99599750D01*
X128929000Y-100065310D01*
X128986033Y-100203000D01*
X128929000Y-100340690D01*
X128929000Y-100806250D01*
X129087750Y-100965000D01*
X129937000Y-100965000D01*
X129937000Y-99441000D01*
X129087750Y-99441000D01*
X128929000Y-99599750D01*
X127935730Y-99599750D01*
X127935730Y-97821750D01*
X128929000Y-97821750D01*
X128929000Y-98287310D01*
X128986033Y-98425000D01*
X128929000Y-98562690D01*
X128929000Y-99028250D01*
X129087750Y-99187000D01*
X129937000Y-99187000D01*
X129937000Y-97663000D01*
X129087750Y-97663000D01*
X128929000Y-97821750D01*
X127935730Y-97821750D01*
X127935730Y-97760790D01*
X127891452Y-97525473D01*
X127769529Y-97335999D01*
X129014749Y-97335999D01*
X129087750Y-97409000D01*
G36*
X139180000Y-99979000D02*
X139200000Y-99979000D01*
X139200000Y-100157000D01*
X139180000Y-100157000D01*
X139180000Y-100722250D01*
X139323000Y-100865250D01*
X139323000Y-101903331D01*
X139306559Y-101913910D01*
X139161569Y-102126110D01*
X139110560Y-102378000D01*
X139110560Y-102697150D01*
X138840020Y-102696914D01*
X138840020Y-100808230D01*
X138926000Y-100722250D01*
X138926000Y-100193802D01*
X139180000Y-99939802D01*
X139180000Y-99979000D01*
X139180000Y-99979000D01*
G37*
X139180000Y-99979000D02*
X139200000Y-99979000D01*
X139200000Y-100157000D01*
X139180000Y-100157000D01*
X139180000Y-100722250D01*
X139323000Y-100865250D01*
X139323000Y-101903331D01*
X139306559Y-101913910D01*
X139161569Y-102126110D01*
X139110560Y-102378000D01*
X139110560Y-102697150D01*
X138840020Y-102696914D01*
X138840020Y-100808230D01*
X138926000Y-100722250D01*
X138926000Y-100193802D01*
X139180000Y-99939802D01*
X139180000Y-99979000D01*
G36*
X148208998Y-101603198D02*
X147321195Y-102491001D01*
X144713803Y-102491001D01*
X144445122Y-102222320D01*
X144445162Y-102176833D01*
X144314563Y-101860760D01*
X144360597Y-101831138D01*
X144367325Y-101835633D01*
X144706000Y-101903000D01*
X144725331Y-101903000D01*
X144735910Y-101919441D01*
X144948110Y-102064431D01*
X145200000Y-102115440D01*
X146900000Y-102115440D01*
X147135317Y-102071162D01*
X147351441Y-101932090D01*
X147496431Y-101719890D01*
X147506417Y-101670578D01*
X147584690Y-101703000D01*
X148050250Y-101703000D01*
X148208998Y-101544252D01*
X148208998Y-101603198D01*
X148208998Y-101603198D01*
G37*
X148208998Y-101603198D02*
X147321195Y-102491001D01*
X144713803Y-102491001D01*
X144445122Y-102222320D01*
X144445162Y-102176833D01*
X144314563Y-101860760D01*
X144360597Y-101831138D01*
X144367325Y-101835633D01*
X144706000Y-101903000D01*
X144725331Y-101903000D01*
X144735910Y-101919441D01*
X144948110Y-102064431D01*
X145200000Y-102115440D01*
X146900000Y-102115440D01*
X147135317Y-102071162D01*
X147351441Y-101932090D01*
X147496431Y-101719890D01*
X147506417Y-101670578D01*
X147584690Y-101703000D01*
X148050250Y-101703000D01*
X148208998Y-101544252D01*
X148208998Y-101603198D01*
G36*
X153797000Y-97409000D02*
X153817000Y-97409000D01*
X153817000Y-97663000D01*
X153797000Y-97663000D01*
X153797000Y-98856819D01*
X154026892Y-98977486D01*
X154551358Y-98731183D01*
X154563000Y-98718408D01*
X154563000Y-99709421D01*
X152613211Y-101659209D01*
X152580991Y-101707430D01*
X151960403Y-102328017D01*
X151868090Y-102184559D01*
X151825193Y-102155249D01*
X151832148Y-102144840D01*
X151890000Y-101854000D01*
X151890000Y-99033440D01*
X151980000Y-99033440D01*
X152215317Y-98989162D01*
X152431441Y-98850090D01*
X152576431Y-98637890D01*
X152599555Y-98523699D01*
X152788642Y-98731183D01*
X153313108Y-98977486D01*
X153543000Y-98856819D01*
X153543000Y-97663000D01*
X153523000Y-97663000D01*
X153523000Y-97409000D01*
X153543000Y-97409000D01*
X153543000Y-97389000D01*
X153797000Y-97389000D01*
X153797000Y-97409000D01*
X153797000Y-97409000D01*
G37*
X153797000Y-97409000D02*
X153817000Y-97409000D01*
X153817000Y-97663000D01*
X153797000Y-97663000D01*
X153797000Y-98856819D01*
X154026892Y-98977486D01*
X154551358Y-98731183D01*
X154563000Y-98718408D01*
X154563000Y-99709421D01*
X152613211Y-101659209D01*
X152580991Y-101707430D01*
X151960403Y-102328017D01*
X151868090Y-102184559D01*
X151825193Y-102155249D01*
X151832148Y-102144840D01*
X151890000Y-101854000D01*
X151890000Y-99033440D01*
X151980000Y-99033440D01*
X152215317Y-98989162D01*
X152431441Y-98850090D01*
X152576431Y-98637890D01*
X152599555Y-98523699D01*
X152788642Y-98731183D01*
X153313108Y-98977486D01*
X153543000Y-98856819D01*
X153543000Y-97663000D01*
X153523000Y-97663000D01*
X153523000Y-97409000D01*
X153543000Y-97409000D01*
X153543000Y-97389000D01*
X153797000Y-97389000D01*
X153797000Y-97409000D01*
G36*
X148463000Y-100441000D02*
X148483000Y-100441000D01*
X148483000Y-100695000D01*
X148463000Y-100695000D01*
X148463000Y-100715000D01*
X148209000Y-100715000D01*
X148209000Y-100695000D01*
X148189000Y-100695000D01*
X148189000Y-100441000D01*
X148209000Y-100441000D01*
X148209000Y-100421000D01*
X148463000Y-100421000D01*
X148463000Y-100441000D01*
X148463000Y-100441000D01*
G37*
X148463000Y-100441000D02*
X148483000Y-100441000D01*
X148483000Y-100695000D01*
X148463000Y-100695000D01*
X148463000Y-100715000D01*
X148209000Y-100715000D01*
X148209000Y-100695000D01*
X148189000Y-100695000D01*
X148189000Y-100441000D01*
X148209000Y-100441000D01*
X148209000Y-100421000D01*
X148463000Y-100421000D01*
X148463000Y-100441000D01*
G36*
X149615907Y-92456000D02*
X149728946Y-93024285D01*
X150050853Y-93506054D01*
X150380026Y-93726000D01*
X150050853Y-93945946D01*
X149728946Y-94427715D01*
X149615907Y-94996000D01*
X149728946Y-95564285D01*
X150050853Y-96046054D01*
X150092452Y-96073850D01*
X150044683Y-96082838D01*
X149828559Y-96221910D01*
X149683569Y-96434110D01*
X149632560Y-96686000D01*
X149632560Y-98386000D01*
X149676838Y-98621317D01*
X149815910Y-98837441D01*
X150028110Y-98982431D01*
X150280000Y-99033440D01*
X150370000Y-99033440D01*
X150370000Y-99402198D01*
X149608440Y-98640638D01*
X149608440Y-98068000D01*
X149564162Y-97832683D01*
X149425090Y-97616559D01*
X149212890Y-97471569D01*
X148967846Y-97421946D01*
X148873401Y-97280599D01*
X148388400Y-96795598D01*
X148141838Y-96630851D01*
X147850999Y-96572999D01*
X143487001Y-96572999D01*
X143196161Y-96630851D01*
X142949600Y-96795598D01*
X142144599Y-97600599D01*
X142002496Y-97813271D01*
X141830559Y-97923910D01*
X141685569Y-98136110D01*
X141634560Y-98388000D01*
X141634560Y-98987274D01*
X141452839Y-98865852D01*
X141162000Y-98808000D01*
X140875010Y-98808000D01*
X140853890Y-98793569D01*
X140602000Y-98742560D01*
X140094000Y-98742560D01*
X139932418Y-98772964D01*
X139910162Y-98654683D01*
X139771090Y-98438559D01*
X139558890Y-98293569D01*
X139307000Y-98242560D01*
X138799000Y-98242560D01*
X138798066Y-98242736D01*
X140110402Y-96930400D01*
X140270453Y-96690867D01*
X140275201Y-96692838D01*
X140647167Y-96693162D01*
X140990943Y-96551117D01*
X141072911Y-96469292D01*
X141153670Y-96550192D01*
X141497198Y-96692838D01*
X141869164Y-96693162D01*
X142089115Y-96602280D01*
X142307201Y-96692838D01*
X142679167Y-96693162D01*
X143022943Y-96551117D01*
X143056118Y-96518000D01*
X143144552Y-96518000D01*
X143435391Y-96460148D01*
X143681953Y-96295401D01*
X144987401Y-94989953D01*
X145096363Y-94826881D01*
X145288000Y-94865000D01*
X146542565Y-94865000D01*
X146542570Y-94865001D01*
X146825054Y-94808810D01*
X146881245Y-94797633D01*
X147168360Y-94605790D01*
X149469787Y-92304362D01*
X149469790Y-92304360D01*
X149689841Y-92084309D01*
X149615907Y-92456000D01*
X149615907Y-92456000D01*
G37*
X149615907Y-92456000D02*
X149728946Y-93024285D01*
X150050853Y-93506054D01*
X150380026Y-93726000D01*
X150050853Y-93945946D01*
X149728946Y-94427715D01*
X149615907Y-94996000D01*
X149728946Y-95564285D01*
X150050853Y-96046054D01*
X150092452Y-96073850D01*
X150044683Y-96082838D01*
X149828559Y-96221910D01*
X149683569Y-96434110D01*
X149632560Y-96686000D01*
X149632560Y-98386000D01*
X149676838Y-98621317D01*
X149815910Y-98837441D01*
X150028110Y-98982431D01*
X150280000Y-99033440D01*
X150370000Y-99033440D01*
X150370000Y-99402198D01*
X149608440Y-98640638D01*
X149608440Y-98068000D01*
X149564162Y-97832683D01*
X149425090Y-97616559D01*
X149212890Y-97471569D01*
X148967846Y-97421946D01*
X148873401Y-97280599D01*
X148388400Y-96795598D01*
X148141838Y-96630851D01*
X147850999Y-96572999D01*
X143487001Y-96572999D01*
X143196161Y-96630851D01*
X142949600Y-96795598D01*
X142144599Y-97600599D01*
X142002496Y-97813271D01*
X141830559Y-97923910D01*
X141685569Y-98136110D01*
X141634560Y-98388000D01*
X141634560Y-98987274D01*
X141452839Y-98865852D01*
X141162000Y-98808000D01*
X140875010Y-98808000D01*
X140853890Y-98793569D01*
X140602000Y-98742560D01*
X140094000Y-98742560D01*
X139932418Y-98772964D01*
X139910162Y-98654683D01*
X139771090Y-98438559D01*
X139558890Y-98293569D01*
X139307000Y-98242560D01*
X138799000Y-98242560D01*
X138798066Y-98242736D01*
X140110402Y-96930400D01*
X140270453Y-96690867D01*
X140275201Y-96692838D01*
X140647167Y-96693162D01*
X140990943Y-96551117D01*
X141072911Y-96469292D01*
X141153670Y-96550192D01*
X141497198Y-96692838D01*
X141869164Y-96693162D01*
X142089115Y-96602280D01*
X142307201Y-96692838D01*
X142679167Y-96693162D01*
X143022943Y-96551117D01*
X143056118Y-96518000D01*
X143144552Y-96518000D01*
X143435391Y-96460148D01*
X143681953Y-96295401D01*
X144987401Y-94989953D01*
X145096363Y-94826881D01*
X145288000Y-94865000D01*
X146542565Y-94865000D01*
X146542570Y-94865001D01*
X146825054Y-94808810D01*
X146881245Y-94797633D01*
X147168360Y-94605790D01*
X149469787Y-92304362D01*
X149469790Y-92304360D01*
X149689841Y-92084309D01*
X149615907Y-92456000D01*
G36*
X133177560Y-93000000D02*
X133221838Y-93235317D01*
X133360910Y-93451441D01*
X133573110Y-93596431D01*
X133825000Y-93647440D01*
X134075000Y-93647440D01*
X134180705Y-93627550D01*
X134198691Y-93635000D01*
X134228750Y-93635000D01*
X134249062Y-93614688D01*
X134310317Y-93603162D01*
X134444069Y-93517095D01*
X134465302Y-93538327D01*
X134651846Y-93615596D01*
X134671250Y-93635000D01*
X134728750Y-93635000D01*
X134748154Y-93615596D01*
X134934698Y-93538327D01*
X134956364Y-93516662D01*
X135073110Y-93596431D01*
X135147808Y-93611558D01*
X135171250Y-93635000D01*
X135190000Y-93635000D01*
X135190000Y-94149191D01*
X135101481Y-94166799D01*
X135043325Y-94178367D01*
X134756210Y-94370210D01*
X134756208Y-94370213D01*
X134431592Y-94694828D01*
X134347212Y-94751209D01*
X133204210Y-95894210D01*
X133204208Y-95894213D01*
X133147450Y-95950971D01*
X133075057Y-95980883D01*
X132811808Y-96243673D01*
X132784969Y-96308307D01*
X132564000Y-96263560D01*
X131594364Y-96263560D01*
X131369402Y-96038598D01*
X131122840Y-95873851D01*
X130832001Y-95815999D01*
X130047610Y-95815999D01*
X130075441Y-95798090D01*
X130220431Y-95585890D01*
X130271440Y-95334000D01*
X130271440Y-95012368D01*
X130499790Y-94859790D01*
X133177560Y-92182020D01*
X133177560Y-93000000D01*
X133177560Y-93000000D01*
G37*
X133177560Y-93000000D02*
X133221838Y-93235317D01*
X133360910Y-93451441D01*
X133573110Y-93596431D01*
X133825000Y-93647440D01*
X134075000Y-93647440D01*
X134180705Y-93627550D01*
X134198691Y-93635000D01*
X134228750Y-93635000D01*
X134249062Y-93614688D01*
X134310317Y-93603162D01*
X134444069Y-93517095D01*
X134465302Y-93538327D01*
X134651846Y-93615596D01*
X134671250Y-93635000D01*
X134728750Y-93635000D01*
X134748154Y-93615596D01*
X134934698Y-93538327D01*
X134956364Y-93516662D01*
X135073110Y-93596431D01*
X135147808Y-93611558D01*
X135171250Y-93635000D01*
X135190000Y-93635000D01*
X135190000Y-94149191D01*
X135101481Y-94166799D01*
X135043325Y-94178367D01*
X134756210Y-94370210D01*
X134756208Y-94370213D01*
X134431592Y-94694828D01*
X134347212Y-94751209D01*
X133204210Y-95894210D01*
X133204208Y-95894213D01*
X133147450Y-95950971D01*
X133075057Y-95980883D01*
X132811808Y-96243673D01*
X132784969Y-96308307D01*
X132564000Y-96263560D01*
X131594364Y-96263560D01*
X131369402Y-96038598D01*
X131122840Y-95873851D01*
X130832001Y-95815999D01*
X130047610Y-95815999D01*
X130075441Y-95798090D01*
X130220431Y-95585890D01*
X130271440Y-95334000D01*
X130271440Y-95012368D01*
X130499790Y-94859790D01*
X133177560Y-92182020D01*
X133177560Y-93000000D01*
G36*
X151640000Y-85404802D02*
X151640000Y-85601287D01*
X151545051Y-85537844D01*
X151130000Y-85455285D01*
X150995599Y-85482019D01*
X150993790Y-85480210D01*
X150956487Y-85455285D01*
X150706675Y-85288367D01*
X150650484Y-85277190D01*
X150368000Y-85220999D01*
X150367995Y-85221000D01*
X138002000Y-85221000D01*
X137663325Y-85288367D01*
X137376210Y-85480210D01*
X137376208Y-85480213D01*
X136417211Y-86439209D01*
X136417209Y-86439212D01*
X133753102Y-89103319D01*
X133785000Y-89026310D01*
X133785000Y-88435750D01*
X133626250Y-88277000D01*
X132027000Y-88277000D01*
X132027000Y-89376250D01*
X132185750Y-89535000D01*
X133276309Y-89535000D01*
X133353319Y-89503101D01*
X130121672Y-92734748D01*
X130088090Y-92682559D01*
X129875890Y-92537569D01*
X129624000Y-92486560D01*
X127424000Y-92486560D01*
X127188683Y-92530838D01*
X126972559Y-92669910D01*
X126827569Y-92882110D01*
X126784404Y-93095263D01*
X126702830Y-92973179D01*
X126139956Y-92597078D01*
X125476000Y-92465009D01*
X124812044Y-92597078D01*
X124329000Y-92919838D01*
X124329000Y-90362580D01*
X126101787Y-88589792D01*
X126101790Y-88589790D01*
X126204715Y-88435750D01*
X130015000Y-88435750D01*
X130015000Y-89026310D01*
X130111673Y-89259699D01*
X130290302Y-89438327D01*
X130523691Y-89535000D01*
X131614250Y-89535000D01*
X131773000Y-89376250D01*
X131773000Y-88277000D01*
X130173750Y-88277000D01*
X130015000Y-88435750D01*
X126204715Y-88435750D01*
X126254368Y-88361440D01*
X126576000Y-88361440D01*
X126811317Y-88317162D01*
X127027441Y-88178090D01*
X127172431Y-87965890D01*
X127215596Y-87752737D01*
X127297170Y-87874821D01*
X127860044Y-88250922D01*
X128524000Y-88382991D01*
X129187956Y-88250922D01*
X129750830Y-87874821D01*
X130015000Y-87479463D01*
X130015000Y-87864250D01*
X130173750Y-88023000D01*
X131773000Y-88023000D01*
X131773000Y-86923750D01*
X132027000Y-86923750D01*
X132027000Y-88023000D01*
X133626250Y-88023000D01*
X133785000Y-87864250D01*
X133785000Y-87273690D01*
X133688327Y-87040301D01*
X133509698Y-86861673D01*
X133276309Y-86765000D01*
X132185750Y-86765000D01*
X132027000Y-86923750D01*
X131773000Y-86923750D01*
X131614250Y-86765000D01*
X130523691Y-86765000D01*
X130290302Y-86861673D01*
X130198170Y-86953805D01*
X130259000Y-86647991D01*
X130259000Y-86580009D01*
X130155106Y-86057696D01*
X131378802Y-84834000D01*
X151069198Y-84834000D01*
X151640000Y-85404802D01*
X151640000Y-85404802D01*
G37*
X151640000Y-85404802D02*
X151640000Y-85601287D01*
X151545051Y-85537844D01*
X151130000Y-85455285D01*
X150995599Y-85482019D01*
X150993790Y-85480210D01*
X150956487Y-85455285D01*
X150706675Y-85288367D01*
X150650484Y-85277190D01*
X150368000Y-85220999D01*
X150367995Y-85221000D01*
X138002000Y-85221000D01*
X137663325Y-85288367D01*
X137376210Y-85480210D01*
X137376208Y-85480213D01*
X136417211Y-86439209D01*
X136417209Y-86439212D01*
X133753102Y-89103319D01*
X133785000Y-89026310D01*
X133785000Y-88435750D01*
X133626250Y-88277000D01*
X132027000Y-88277000D01*
X132027000Y-89376250D01*
X132185750Y-89535000D01*
X133276309Y-89535000D01*
X133353319Y-89503101D01*
X130121672Y-92734748D01*
X130088090Y-92682559D01*
X129875890Y-92537569D01*
X129624000Y-92486560D01*
X127424000Y-92486560D01*
X127188683Y-92530838D01*
X126972559Y-92669910D01*
X126827569Y-92882110D01*
X126784404Y-93095263D01*
X126702830Y-92973179D01*
X126139956Y-92597078D01*
X125476000Y-92465009D01*
X124812044Y-92597078D01*
X124329000Y-92919838D01*
X124329000Y-90362580D01*
X126101787Y-88589792D01*
X126101790Y-88589790D01*
X126204715Y-88435750D01*
X130015000Y-88435750D01*
X130015000Y-89026310D01*
X130111673Y-89259699D01*
X130290302Y-89438327D01*
X130523691Y-89535000D01*
X131614250Y-89535000D01*
X131773000Y-89376250D01*
X131773000Y-88277000D01*
X130173750Y-88277000D01*
X130015000Y-88435750D01*
X126204715Y-88435750D01*
X126254368Y-88361440D01*
X126576000Y-88361440D01*
X126811317Y-88317162D01*
X127027441Y-88178090D01*
X127172431Y-87965890D01*
X127215596Y-87752737D01*
X127297170Y-87874821D01*
X127860044Y-88250922D01*
X128524000Y-88382991D01*
X129187956Y-88250922D01*
X129750830Y-87874821D01*
X130015000Y-87479463D01*
X130015000Y-87864250D01*
X130173750Y-88023000D01*
X131773000Y-88023000D01*
X131773000Y-86923750D01*
X132027000Y-86923750D01*
X132027000Y-88023000D01*
X133626250Y-88023000D01*
X133785000Y-87864250D01*
X133785000Y-87273690D01*
X133688327Y-87040301D01*
X133509698Y-86861673D01*
X133276309Y-86765000D01*
X132185750Y-86765000D01*
X132027000Y-86923750D01*
X131773000Y-86923750D01*
X131614250Y-86765000D01*
X130523691Y-86765000D01*
X130290302Y-86861673D01*
X130198170Y-86953805D01*
X130259000Y-86647991D01*
X130259000Y-86580009D01*
X130155106Y-86057696D01*
X131378802Y-84834000D01*
X151069198Y-84834000D01*
X151640000Y-85404802D01*
G36*
X145711673Y-87040301D02*
X145615000Y-87273690D01*
X145615000Y-87864250D01*
X145773750Y-88023000D01*
X147373000Y-88023000D01*
X147373000Y-88003000D01*
X147627000Y-88003000D01*
X147627000Y-88023000D01*
X149226250Y-88023000D01*
X149385000Y-87864250D01*
X149385000Y-87273690D01*
X149288327Y-87040301D01*
X149239026Y-86991000D01*
X150001420Y-86991000D01*
X150045420Y-87035000D01*
X150045420Y-87196135D01*
X150127979Y-87611186D01*
X150245000Y-87786321D01*
X150245000Y-89025991D01*
X149319209Y-89951781D01*
X149319207Y-89951784D01*
X148218210Y-91052780D01*
X148218208Y-91052783D01*
X146210112Y-93060878D01*
X146222440Y-93000000D01*
X146222440Y-91500000D01*
X146178162Y-91264683D01*
X146039090Y-91048559D01*
X145826890Y-90903569D01*
X145575000Y-90852560D01*
X145325000Y-90852560D01*
X145195411Y-90876944D01*
X145075000Y-90852560D01*
X144825000Y-90852560D01*
X144695411Y-90876944D01*
X144575000Y-90852560D01*
X144325000Y-90852560D01*
X144195411Y-90876944D01*
X144075000Y-90852560D01*
X143825000Y-90852560D01*
X143719295Y-90872450D01*
X143701309Y-90865000D01*
X143671250Y-90865000D01*
X143650938Y-90885312D01*
X143589683Y-90896838D01*
X143455931Y-90982905D01*
X143434698Y-90961673D01*
X143248154Y-90884404D01*
X143228750Y-90865000D01*
X143171250Y-90865000D01*
X143151846Y-90884404D01*
X142965302Y-90961673D01*
X142950000Y-90976975D01*
X142934698Y-90961673D01*
X142748154Y-90884404D01*
X142728750Y-90865000D01*
X142671250Y-90865000D01*
X142651846Y-90884404D01*
X142465302Y-90961673D01*
X142450000Y-90976975D01*
X142434698Y-90961673D01*
X142248154Y-90884404D01*
X142228750Y-90865000D01*
X142171250Y-90865000D01*
X142151846Y-90884404D01*
X141965302Y-90961673D01*
X141950000Y-90976975D01*
X141934698Y-90961673D01*
X141748154Y-90884404D01*
X141728750Y-90865000D01*
X141671250Y-90865000D01*
X141651846Y-90884404D01*
X141465302Y-90961673D01*
X141443636Y-90983338D01*
X141326890Y-90903569D01*
X141252192Y-90888442D01*
X141228750Y-90865000D01*
X141198691Y-90865000D01*
X141178247Y-90873468D01*
X141075000Y-90852560D01*
X140825000Y-90852560D01*
X140695411Y-90876944D01*
X140575000Y-90852560D01*
X140325000Y-90852560D01*
X140195411Y-90876944D01*
X140075000Y-90852560D01*
X139825000Y-90852560D01*
X139719295Y-90872450D01*
X139701309Y-90865000D01*
X139671250Y-90865000D01*
X139650938Y-90885312D01*
X139589683Y-90896838D01*
X139455931Y-90982905D01*
X139434698Y-90961673D01*
X139248154Y-90884404D01*
X139228750Y-90865000D01*
X139171250Y-90865000D01*
X139151846Y-90884404D01*
X138965302Y-90961673D01*
X138943636Y-90983338D01*
X138826890Y-90903569D01*
X138752192Y-90888442D01*
X138728750Y-90865000D01*
X138698691Y-90865000D01*
X138678247Y-90873468D01*
X138575000Y-90852560D01*
X138325000Y-90852560D01*
X138195411Y-90876944D01*
X138075000Y-90852560D01*
X137825000Y-90852560D01*
X137719295Y-90872450D01*
X137701309Y-90865000D01*
X137671250Y-90865000D01*
X137650938Y-90885312D01*
X137589683Y-90896838D01*
X137455931Y-90982905D01*
X137434698Y-90961673D01*
X137248154Y-90884404D01*
X137228750Y-90865000D01*
X137210000Y-90865000D01*
X137210000Y-90730000D01*
X137206984Y-90714839D01*
X137152148Y-90439160D01*
X137079083Y-90329810D01*
X137079162Y-90238833D01*
X136937117Y-89895057D01*
X136674327Y-89631808D01*
X136330799Y-89489162D01*
X135958833Y-89488838D01*
X135808713Y-89550866D01*
X136923829Y-88435750D01*
X145615000Y-88435750D01*
X145615000Y-89026310D01*
X145711673Y-89259699D01*
X145890302Y-89438327D01*
X146123691Y-89535000D01*
X147214250Y-89535000D01*
X147373000Y-89376250D01*
X147373000Y-88277000D01*
X147627000Y-88277000D01*
X147627000Y-89376250D01*
X147785750Y-89535000D01*
X148876309Y-89535000D01*
X149109698Y-89438327D01*
X149288327Y-89259699D01*
X149385000Y-89026310D01*
X149385000Y-88435750D01*
X149226250Y-88277000D01*
X147627000Y-88277000D01*
X147373000Y-88277000D01*
X145773750Y-88277000D01*
X145615000Y-88435750D01*
X136923829Y-88435750D01*
X137668788Y-87690791D01*
X137668791Y-87690789D01*
X138368579Y-86991000D01*
X145760974Y-86991000D01*
X145711673Y-87040301D01*
X145711673Y-87040301D01*
G37*
X145711673Y-87040301D02*
X145615000Y-87273690D01*
X145615000Y-87864250D01*
X145773750Y-88023000D01*
X147373000Y-88023000D01*
X147373000Y-88003000D01*
X147627000Y-88003000D01*
X147627000Y-88023000D01*
X149226250Y-88023000D01*
X149385000Y-87864250D01*
X149385000Y-87273690D01*
X149288327Y-87040301D01*
X149239026Y-86991000D01*
X150001420Y-86991000D01*
X150045420Y-87035000D01*
X150045420Y-87196135D01*
X150127979Y-87611186D01*
X150245000Y-87786321D01*
X150245000Y-89025991D01*
X149319209Y-89951781D01*
X149319207Y-89951784D01*
X148218210Y-91052780D01*
X148218208Y-91052783D01*
X146210112Y-93060878D01*
X146222440Y-93000000D01*
X146222440Y-91500000D01*
X146178162Y-91264683D01*
X146039090Y-91048559D01*
X145826890Y-90903569D01*
X145575000Y-90852560D01*
X145325000Y-90852560D01*
X145195411Y-90876944D01*
X145075000Y-90852560D01*
X144825000Y-90852560D01*
X144695411Y-90876944D01*
X144575000Y-90852560D01*
X144325000Y-90852560D01*
X144195411Y-90876944D01*
X144075000Y-90852560D01*
X143825000Y-90852560D01*
X143719295Y-90872450D01*
X143701309Y-90865000D01*
X143671250Y-90865000D01*
X143650938Y-90885312D01*
X143589683Y-90896838D01*
X143455931Y-90982905D01*
X143434698Y-90961673D01*
X143248154Y-90884404D01*
X143228750Y-90865000D01*
X143171250Y-90865000D01*
X143151846Y-90884404D01*
X142965302Y-90961673D01*
X142950000Y-90976975D01*
X142934698Y-90961673D01*
X142748154Y-90884404D01*
X142728750Y-90865000D01*
X142671250Y-90865000D01*
X142651846Y-90884404D01*
X142465302Y-90961673D01*
X142450000Y-90976975D01*
X142434698Y-90961673D01*
X142248154Y-90884404D01*
X142228750Y-90865000D01*
X142171250Y-90865000D01*
X142151846Y-90884404D01*
X141965302Y-90961673D01*
X141950000Y-90976975D01*
X141934698Y-90961673D01*
X141748154Y-90884404D01*
X141728750Y-90865000D01*
X141671250Y-90865000D01*
X141651846Y-90884404D01*
X141465302Y-90961673D01*
X141443636Y-90983338D01*
X141326890Y-90903569D01*
X141252192Y-90888442D01*
X141228750Y-90865000D01*
X141198691Y-90865000D01*
X141178247Y-90873468D01*
X141075000Y-90852560D01*
X140825000Y-90852560D01*
X140695411Y-90876944D01*
X140575000Y-90852560D01*
X140325000Y-90852560D01*
X140195411Y-90876944D01*
X140075000Y-90852560D01*
X139825000Y-90852560D01*
X139719295Y-90872450D01*
X139701309Y-90865000D01*
X139671250Y-90865000D01*
X139650938Y-90885312D01*
X139589683Y-90896838D01*
X139455931Y-90982905D01*
X139434698Y-90961673D01*
X139248154Y-90884404D01*
X139228750Y-90865000D01*
X139171250Y-90865000D01*
X139151846Y-90884404D01*
X138965302Y-90961673D01*
X138943636Y-90983338D01*
X138826890Y-90903569D01*
X138752192Y-90888442D01*
X138728750Y-90865000D01*
X138698691Y-90865000D01*
X138678247Y-90873468D01*
X138575000Y-90852560D01*
X138325000Y-90852560D01*
X138195411Y-90876944D01*
X138075000Y-90852560D01*
X137825000Y-90852560D01*
X137719295Y-90872450D01*
X137701309Y-90865000D01*
X137671250Y-90865000D01*
X137650938Y-90885312D01*
X137589683Y-90896838D01*
X137455931Y-90982905D01*
X137434698Y-90961673D01*
X137248154Y-90884404D01*
X137228750Y-90865000D01*
X137210000Y-90865000D01*
X137210000Y-90730000D01*
X137206984Y-90714839D01*
X137152148Y-90439160D01*
X137079083Y-90329810D01*
X137079162Y-90238833D01*
X136937117Y-89895057D01*
X136674327Y-89631808D01*
X136330799Y-89489162D01*
X135958833Y-89488838D01*
X135808713Y-89550866D01*
X136923829Y-88435750D01*
X145615000Y-88435750D01*
X145615000Y-89026310D01*
X145711673Y-89259699D01*
X145890302Y-89438327D01*
X146123691Y-89535000D01*
X147214250Y-89535000D01*
X147373000Y-89376250D01*
X147373000Y-88277000D01*
X147627000Y-88277000D01*
X147627000Y-89376250D01*
X147785750Y-89535000D01*
X148876309Y-89535000D01*
X149109698Y-89438327D01*
X149288327Y-89259699D01*
X149385000Y-89026310D01*
X149385000Y-88435750D01*
X149226250Y-88277000D01*
X147627000Y-88277000D01*
X147373000Y-88277000D01*
X145773750Y-88277000D01*
X145615000Y-88435750D01*
X136923829Y-88435750D01*
X137668788Y-87690791D01*
X137668791Y-87690789D01*
X138368579Y-86991000D01*
X145760974Y-86991000D01*
X145711673Y-87040301D01*
G36*
X142575000Y-92377000D02*
X142325000Y-92377000D01*
X142325000Y-92123000D01*
X142575000Y-92123000D01*
X142575000Y-92377000D01*
X142575000Y-92377000D01*
G37*
X142575000Y-92377000D02*
X142325000Y-92377000D01*
X142325000Y-92123000D01*
X142575000Y-92123000D01*
X142575000Y-92377000D01*
M02*
