G04 #@! TF.GenerationSoftware,KiCad,Pcbnew,5.0.2*
G04 #@! TF.CreationDate,2019-02-05T18:00:36+01:00*
G04 #@! TF.ProjectId,xling,786c696e-672e-46b6-9963-61645f706362,0.2.5*
G04 #@! TF.SameCoordinates,Original*
G04 #@! TF.FileFunction,Soldermask,Top*
G04 #@! TF.FilePolarity,Negative*
%FSLAX46Y46*%
G04 Gerber Fmt 4.6, Leading zero omitted, Abs format (unit mm)*
G04 Created by KiCad (PCBNEW 5.0.2) date Tue Feb  5 18:00:36 2019*
%MOMM*%
%LPD*%
G01*
G04 APERTURE LIST*
%ADD10C,0.100000*%
G04 APERTURE END LIST*
D10*
G36*
X127883480Y-120831001D02*
X127939712Y-120848059D01*
X127991538Y-120875761D01*
X128036961Y-120913039D01*
X128074239Y-120958462D01*
X128101941Y-121010288D01*
X128118999Y-121066520D01*
X128125000Y-121127454D01*
X128125000Y-122672546D01*
X128118999Y-122733480D01*
X128101941Y-122789712D01*
X128074239Y-122841538D01*
X128036961Y-122886961D01*
X127991538Y-122924239D01*
X127939712Y-122951941D01*
X127883480Y-122968999D01*
X127822546Y-122975000D01*
X126777454Y-122975000D01*
X126716520Y-122968999D01*
X126660288Y-122951941D01*
X126608462Y-122924239D01*
X126563039Y-122886961D01*
X126525761Y-122841538D01*
X126498059Y-122789712D01*
X126481001Y-122733480D01*
X126475000Y-122672546D01*
X126475000Y-121127454D01*
X126481001Y-121066520D01*
X126498059Y-121010288D01*
X126525761Y-120958462D01*
X126563039Y-120913039D01*
X126608462Y-120875761D01*
X126660288Y-120848059D01*
X126716520Y-120831001D01*
X126777454Y-120825000D01*
X127822546Y-120825000D01*
X127883480Y-120831001D01*
X127883480Y-120831001D01*
G37*
G36*
X125083480Y-120831001D02*
X125139712Y-120848059D01*
X125191538Y-120875761D01*
X125236961Y-120913039D01*
X125274239Y-120958462D01*
X125301941Y-121010288D01*
X125318999Y-121066520D01*
X125325000Y-121127454D01*
X125325000Y-122672546D01*
X125318999Y-122733480D01*
X125301941Y-122789712D01*
X125274239Y-122841538D01*
X125236961Y-122886961D01*
X125191538Y-122924239D01*
X125139712Y-122951941D01*
X125083480Y-122968999D01*
X125022546Y-122975000D01*
X123977454Y-122975000D01*
X123916520Y-122968999D01*
X123860288Y-122951941D01*
X123808462Y-122924239D01*
X123763039Y-122886961D01*
X123725761Y-122841538D01*
X123698059Y-122789712D01*
X123681001Y-122733480D01*
X123675000Y-122672546D01*
X123675000Y-121127454D01*
X123681001Y-121066520D01*
X123698059Y-121010288D01*
X123725761Y-120958462D01*
X123763039Y-120913039D01*
X123808462Y-120875761D01*
X123860288Y-120848059D01*
X123916520Y-120831001D01*
X123977454Y-120825000D01*
X125022546Y-120825000D01*
X125083480Y-120831001D01*
X125083480Y-120831001D01*
G37*
G36*
X130638510Y-121285881D02*
X130693570Y-121302583D01*
X130744312Y-121329705D01*
X130788791Y-121366209D01*
X130825295Y-121410688D01*
X130852417Y-121461430D01*
X130869119Y-121516490D01*
X130875000Y-121576204D01*
X130875000Y-122258796D01*
X130869119Y-122318510D01*
X130852417Y-122373570D01*
X130825295Y-122424312D01*
X130788791Y-122468791D01*
X130744312Y-122505295D01*
X130693570Y-122532417D01*
X130638510Y-122549119D01*
X130578796Y-122555000D01*
X129821204Y-122555000D01*
X129761490Y-122549119D01*
X129706430Y-122532417D01*
X129655688Y-122505295D01*
X129611209Y-122468791D01*
X129574705Y-122424312D01*
X129547583Y-122373570D01*
X129530881Y-122318510D01*
X129525000Y-122258796D01*
X129525000Y-121576204D01*
X129530881Y-121516490D01*
X129547583Y-121461430D01*
X129574705Y-121410688D01*
X129611209Y-121366209D01*
X129655688Y-121329705D01*
X129706430Y-121302583D01*
X129761490Y-121285881D01*
X129821204Y-121280000D01*
X130578796Y-121280000D01*
X130638510Y-121285881D01*
X130638510Y-121285881D01*
G37*
G36*
X133847498Y-120259844D02*
X133941249Y-120288283D01*
X134027649Y-120334465D01*
X134103382Y-120396618D01*
X134165535Y-120472351D01*
X134211717Y-120558751D01*
X134240156Y-120652502D01*
X134250000Y-120752454D01*
X134250000Y-121847546D01*
X134240156Y-121947498D01*
X134211717Y-122041249D01*
X134165535Y-122127649D01*
X134103382Y-122203382D01*
X134027649Y-122265535D01*
X133941249Y-122311717D01*
X133847498Y-122340156D01*
X133747546Y-122350000D01*
X132352454Y-122350000D01*
X132252502Y-122340156D01*
X132158751Y-122311717D01*
X132072351Y-122265535D01*
X131996618Y-122203382D01*
X131934465Y-122127649D01*
X131888283Y-122041249D01*
X131859844Y-121947498D01*
X131850000Y-121847546D01*
X131850000Y-120752454D01*
X131859844Y-120652502D01*
X131888283Y-120558751D01*
X131934465Y-120472351D01*
X131996618Y-120396618D01*
X132072351Y-120334465D01*
X132158751Y-120288283D01*
X132252502Y-120259844D01*
X132352454Y-120250000D01*
X133747546Y-120250000D01*
X133847498Y-120259844D01*
X133847498Y-120259844D01*
G37*
G36*
X142747498Y-120259844D02*
X142841249Y-120288283D01*
X142927649Y-120334465D01*
X143003382Y-120396618D01*
X143065535Y-120472351D01*
X143111717Y-120558751D01*
X143140156Y-120652502D01*
X143150000Y-120752454D01*
X143150000Y-121847546D01*
X143140156Y-121947498D01*
X143111717Y-122041249D01*
X143065535Y-122127649D01*
X143003382Y-122203382D01*
X142927649Y-122265535D01*
X142841249Y-122311717D01*
X142747498Y-122340156D01*
X142647546Y-122350000D01*
X141252454Y-122350000D01*
X141152502Y-122340156D01*
X141058751Y-122311717D01*
X140972351Y-122265535D01*
X140896618Y-122203382D01*
X140834465Y-122127649D01*
X140788283Y-122041249D01*
X140759844Y-121947498D01*
X140750000Y-121847546D01*
X140750000Y-120752454D01*
X140759844Y-120652502D01*
X140788283Y-120558751D01*
X140834465Y-120472351D01*
X140896618Y-120396618D01*
X140972351Y-120334465D01*
X141058751Y-120288283D01*
X141152502Y-120259844D01*
X141252454Y-120250000D01*
X142647546Y-120250000D01*
X142747498Y-120259844D01*
X142747498Y-120259844D01*
G37*
G36*
X145505836Y-119405192D02*
X145657695Y-119451259D01*
X145703762Y-119465233D01*
X145747572Y-119488650D01*
X145886169Y-119562731D01*
X146046054Y-119693946D01*
X146177269Y-119853831D01*
X146224123Y-119941490D01*
X146274767Y-120036238D01*
X146274767Y-120036239D01*
X146334808Y-120234164D01*
X146355080Y-120440000D01*
X146334808Y-120645836D01*
X146311268Y-120723435D01*
X146274767Y-120843762D01*
X146251848Y-120886640D01*
X146177269Y-121026169D01*
X146046054Y-121186054D01*
X145886169Y-121317269D01*
X145781229Y-121373360D01*
X145703762Y-121414767D01*
X145681032Y-121421662D01*
X145505836Y-121474808D01*
X145351582Y-121490000D01*
X145248418Y-121490000D01*
X145094164Y-121474808D01*
X144918968Y-121421662D01*
X144896238Y-121414767D01*
X144818771Y-121373360D01*
X144713831Y-121317269D01*
X144553946Y-121186054D01*
X144422731Y-121026169D01*
X144348152Y-120886640D01*
X144325233Y-120843762D01*
X144288732Y-120723435D01*
X144265192Y-120645836D01*
X144244920Y-120440000D01*
X144265192Y-120234164D01*
X144325233Y-120036239D01*
X144325233Y-120036238D01*
X144375877Y-119941490D01*
X144422731Y-119853831D01*
X144553946Y-119693946D01*
X144713831Y-119562731D01*
X144852428Y-119488650D01*
X144896238Y-119465233D01*
X144942305Y-119451259D01*
X145094164Y-119405192D01*
X145248418Y-119390000D01*
X145351582Y-119390000D01*
X145505836Y-119405192D01*
X145505836Y-119405192D01*
G37*
G36*
X130638510Y-119710881D02*
X130693570Y-119727583D01*
X130744312Y-119754705D01*
X130788791Y-119791209D01*
X130825295Y-119835688D01*
X130852417Y-119886430D01*
X130869119Y-119941490D01*
X130875000Y-120001204D01*
X130875000Y-120683796D01*
X130869119Y-120743510D01*
X130852417Y-120798570D01*
X130825295Y-120849312D01*
X130788791Y-120893791D01*
X130744312Y-120930295D01*
X130693570Y-120957417D01*
X130638510Y-120974119D01*
X130578796Y-120980000D01*
X129821204Y-120980000D01*
X129761490Y-120974119D01*
X129706430Y-120957417D01*
X129655688Y-120930295D01*
X129611209Y-120893791D01*
X129574705Y-120849312D01*
X129547583Y-120798570D01*
X129530881Y-120743510D01*
X129525000Y-120683796D01*
X129525000Y-120001204D01*
X129530881Y-119941490D01*
X129547583Y-119886430D01*
X129574705Y-119835688D01*
X129611209Y-119791209D01*
X129655688Y-119754705D01*
X129706430Y-119727583D01*
X129761490Y-119710881D01*
X129821204Y-119705000D01*
X130578796Y-119705000D01*
X130638510Y-119710881D01*
X130638510Y-119710881D01*
G37*
G36*
X127258225Y-116715040D02*
X127305078Y-116729253D01*
X127348259Y-116752334D01*
X127386106Y-116783394D01*
X127417166Y-116821241D01*
X127440247Y-116864422D01*
X127454460Y-116911275D01*
X127459500Y-116962454D01*
X127459500Y-117557546D01*
X127454460Y-117608725D01*
X127440247Y-117655578D01*
X127417166Y-117698758D01*
X127413454Y-117703282D01*
X127408009Y-117711432D01*
X127404259Y-117720487D01*
X127402347Y-117730101D01*
X127402347Y-117739902D01*
X127404259Y-117749516D01*
X127408011Y-117758571D01*
X127413454Y-117766718D01*
X127417166Y-117771242D01*
X127440247Y-117814422D01*
X127454460Y-117861275D01*
X127459500Y-117912454D01*
X127459500Y-118507546D01*
X127454460Y-118558725D01*
X127440247Y-118605578D01*
X127417166Y-118648758D01*
X127413454Y-118653282D01*
X127408009Y-118661432D01*
X127404259Y-118670487D01*
X127402347Y-118680101D01*
X127402347Y-118689902D01*
X127404259Y-118699516D01*
X127408011Y-118708571D01*
X127413454Y-118716718D01*
X127417166Y-118721242D01*
X127440247Y-118764422D01*
X127454460Y-118811275D01*
X127459500Y-118862454D01*
X127459500Y-119457546D01*
X127454460Y-119508725D01*
X127440247Y-119555578D01*
X127417166Y-119598759D01*
X127386106Y-119636606D01*
X127348259Y-119667666D01*
X127305078Y-119690747D01*
X127258225Y-119704960D01*
X127207046Y-119710000D01*
X126311954Y-119710000D01*
X126260775Y-119704960D01*
X126213922Y-119690747D01*
X126170741Y-119667666D01*
X126132894Y-119636606D01*
X126101834Y-119598759D01*
X126078753Y-119555578D01*
X126064540Y-119508725D01*
X126059500Y-119457546D01*
X126059500Y-118862454D01*
X126064540Y-118811275D01*
X126078753Y-118764422D01*
X126101834Y-118721242D01*
X126105546Y-118716718D01*
X126110991Y-118708568D01*
X126114741Y-118699513D01*
X126116653Y-118689899D01*
X126116653Y-118680098D01*
X126114741Y-118670484D01*
X126110989Y-118661429D01*
X126105546Y-118653282D01*
X126101834Y-118648758D01*
X126078753Y-118605578D01*
X126064540Y-118558725D01*
X126059500Y-118507546D01*
X126059500Y-117912454D01*
X126064540Y-117861275D01*
X126078753Y-117814422D01*
X126101834Y-117771242D01*
X126105546Y-117766718D01*
X126110991Y-117758568D01*
X126114741Y-117749513D01*
X126116653Y-117739899D01*
X126116653Y-117730098D01*
X126114741Y-117720484D01*
X126110989Y-117711429D01*
X126105546Y-117703282D01*
X126101834Y-117698758D01*
X126078753Y-117655578D01*
X126064540Y-117608725D01*
X126059500Y-117557546D01*
X126059500Y-116962454D01*
X126064540Y-116911275D01*
X126078753Y-116864422D01*
X126101834Y-116821241D01*
X126132894Y-116783394D01*
X126170741Y-116752334D01*
X126213922Y-116729253D01*
X126260775Y-116715040D01*
X126311954Y-116710000D01*
X127207046Y-116710000D01*
X127258225Y-116715040D01*
X127258225Y-116715040D01*
G37*
G36*
X125059225Y-116715040D02*
X125106078Y-116729253D01*
X125149259Y-116752334D01*
X125187106Y-116783394D01*
X125218166Y-116821241D01*
X125241247Y-116864422D01*
X125255460Y-116911275D01*
X125260500Y-116962454D01*
X125260500Y-117557546D01*
X125255460Y-117608725D01*
X125241247Y-117655578D01*
X125218166Y-117698758D01*
X125214454Y-117703282D01*
X125209009Y-117711432D01*
X125205259Y-117720487D01*
X125203347Y-117730101D01*
X125203347Y-117739902D01*
X125205259Y-117749516D01*
X125209011Y-117758571D01*
X125214454Y-117766718D01*
X125218166Y-117771242D01*
X125241247Y-117814422D01*
X125255460Y-117861275D01*
X125260500Y-117912454D01*
X125260500Y-118507546D01*
X125255460Y-118558725D01*
X125241247Y-118605578D01*
X125218166Y-118648758D01*
X125214454Y-118653282D01*
X125209009Y-118661432D01*
X125205259Y-118670487D01*
X125203347Y-118680101D01*
X125203347Y-118689902D01*
X125205259Y-118699516D01*
X125209011Y-118708571D01*
X125214454Y-118716718D01*
X125218166Y-118721242D01*
X125241247Y-118764422D01*
X125255460Y-118811275D01*
X125260500Y-118862454D01*
X125260500Y-119457546D01*
X125255460Y-119508725D01*
X125241247Y-119555578D01*
X125218166Y-119598759D01*
X125187106Y-119636606D01*
X125149259Y-119667666D01*
X125106078Y-119690747D01*
X125059225Y-119704960D01*
X125008046Y-119710000D01*
X124112954Y-119710000D01*
X124061775Y-119704960D01*
X124014922Y-119690747D01*
X123971741Y-119667666D01*
X123933894Y-119636606D01*
X123902834Y-119598759D01*
X123879753Y-119555578D01*
X123865540Y-119508725D01*
X123860500Y-119457546D01*
X123860500Y-118862454D01*
X123865540Y-118811275D01*
X123879753Y-118764422D01*
X123902834Y-118721242D01*
X123906546Y-118716718D01*
X123911991Y-118708568D01*
X123915741Y-118699513D01*
X123917653Y-118689899D01*
X123917653Y-118680098D01*
X123915741Y-118670484D01*
X123911989Y-118661429D01*
X123906546Y-118653282D01*
X123902834Y-118648758D01*
X123879753Y-118605578D01*
X123865540Y-118558725D01*
X123860500Y-118507546D01*
X123860500Y-117912454D01*
X123865540Y-117861275D01*
X123879753Y-117814422D01*
X123902834Y-117771242D01*
X123906546Y-117766718D01*
X123911991Y-117758568D01*
X123915741Y-117749513D01*
X123917653Y-117739899D01*
X123917653Y-117730098D01*
X123915741Y-117720484D01*
X123911989Y-117711429D01*
X123906546Y-117703282D01*
X123902834Y-117698758D01*
X123879753Y-117655578D01*
X123865540Y-117608725D01*
X123860500Y-117557546D01*
X123860500Y-116962454D01*
X123865540Y-116911275D01*
X123879753Y-116864422D01*
X123902834Y-116821241D01*
X123933894Y-116783394D01*
X123971741Y-116752334D01*
X124014922Y-116729253D01*
X124061775Y-116715040D01*
X124112954Y-116710000D01*
X125008046Y-116710000D01*
X125059225Y-116715040D01*
X125059225Y-116715040D01*
G37*
G36*
X135504182Y-117776900D02*
X135584091Y-117810000D01*
X135631574Y-117829668D01*
X135746224Y-117906274D01*
X135843726Y-118003776D01*
X135920332Y-118118426D01*
X135935787Y-118155739D01*
X135973100Y-118245818D01*
X136000000Y-118381055D01*
X136000000Y-118518945D01*
X135973100Y-118654182D01*
X135950572Y-118708568D01*
X135920332Y-118781574D01*
X135843726Y-118896224D01*
X135746224Y-118993726D01*
X135631574Y-119070332D01*
X135594261Y-119085787D01*
X135504182Y-119123100D01*
X135368945Y-119150000D01*
X135231055Y-119150000D01*
X135095818Y-119123100D01*
X135005739Y-119085787D01*
X134968426Y-119070332D01*
X134853776Y-118993726D01*
X134756274Y-118896224D01*
X134679668Y-118781574D01*
X134649428Y-118708568D01*
X134626900Y-118654182D01*
X134600000Y-118518945D01*
X134600000Y-118381055D01*
X134626900Y-118245818D01*
X134664213Y-118155739D01*
X134679668Y-118118426D01*
X134756274Y-118003776D01*
X134853776Y-117906274D01*
X134968426Y-117829668D01*
X135015909Y-117810000D01*
X135095818Y-117776900D01*
X135231055Y-117750000D01*
X135368945Y-117750000D01*
X135504182Y-117776900D01*
X135504182Y-117776900D01*
G37*
G36*
X139904182Y-117776900D02*
X139984091Y-117810000D01*
X140031574Y-117829668D01*
X140146224Y-117906274D01*
X140243726Y-118003776D01*
X140320332Y-118118426D01*
X140335787Y-118155739D01*
X140373100Y-118245818D01*
X140400000Y-118381055D01*
X140400000Y-118518945D01*
X140373100Y-118654182D01*
X140350572Y-118708568D01*
X140320332Y-118781574D01*
X140243726Y-118896224D01*
X140146224Y-118993726D01*
X140031574Y-119070332D01*
X139994261Y-119085787D01*
X139904182Y-119123100D01*
X139768945Y-119150000D01*
X139631055Y-119150000D01*
X139495818Y-119123100D01*
X139405739Y-119085787D01*
X139368426Y-119070332D01*
X139253776Y-118993726D01*
X139156274Y-118896224D01*
X139079668Y-118781574D01*
X139049428Y-118708568D01*
X139026900Y-118654182D01*
X139000000Y-118518945D01*
X139000000Y-118381055D01*
X139026900Y-118245818D01*
X139064213Y-118155739D01*
X139079668Y-118118426D01*
X139156274Y-118003776D01*
X139253776Y-117906274D01*
X139368426Y-117829668D01*
X139415909Y-117810000D01*
X139495818Y-117776900D01*
X139631055Y-117750000D01*
X139768945Y-117750000D01*
X139904182Y-117776900D01*
X139904182Y-117776900D01*
G37*
G36*
X146350000Y-118950000D02*
X144250000Y-118950000D01*
X144250000Y-116850000D01*
X146350000Y-116850000D01*
X146350000Y-118950000D01*
X146350000Y-118950000D01*
G37*
G36*
X130583480Y-116731001D02*
X130639712Y-116748059D01*
X130691538Y-116775761D01*
X130736961Y-116813039D01*
X130774239Y-116858462D01*
X130801941Y-116910288D01*
X130818999Y-116966520D01*
X130825000Y-117027454D01*
X130825000Y-118072546D01*
X130818999Y-118133480D01*
X130801941Y-118189712D01*
X130774239Y-118241538D01*
X130736961Y-118286961D01*
X130691538Y-118324239D01*
X130639712Y-118351941D01*
X130583480Y-118368999D01*
X130522546Y-118375000D01*
X128977454Y-118375000D01*
X128916520Y-118368999D01*
X128860288Y-118351941D01*
X128808462Y-118324239D01*
X128763039Y-118286961D01*
X128725761Y-118241538D01*
X128698059Y-118189712D01*
X128681001Y-118133480D01*
X128675000Y-118072546D01*
X128675000Y-117027454D01*
X128681001Y-116966520D01*
X128698059Y-116910288D01*
X128725761Y-116858462D01*
X128763039Y-116813039D01*
X128808462Y-116775761D01*
X128860288Y-116748059D01*
X128916520Y-116731001D01*
X128977454Y-116725000D01*
X130522546Y-116725000D01*
X130583480Y-116731001D01*
X130583480Y-116731001D01*
G37*
G36*
X139550000Y-116950000D02*
X135450000Y-116950000D01*
X135450000Y-114550000D01*
X139550000Y-114550000D01*
X139550000Y-116950000D01*
X139550000Y-116950000D01*
G37*
G36*
X142747498Y-114809844D02*
X142841249Y-114838283D01*
X142927649Y-114884465D01*
X143003382Y-114946618D01*
X143065535Y-115022351D01*
X143111717Y-115108751D01*
X143140156Y-115202502D01*
X143150000Y-115302454D01*
X143150000Y-116397546D01*
X143140156Y-116497498D01*
X143111717Y-116591249D01*
X143065535Y-116677649D01*
X143003382Y-116753382D01*
X142927649Y-116815535D01*
X142841249Y-116861717D01*
X142747498Y-116890156D01*
X142647546Y-116900000D01*
X141252454Y-116900000D01*
X141152502Y-116890156D01*
X141058751Y-116861717D01*
X140972351Y-116815535D01*
X140896618Y-116753382D01*
X140834465Y-116677649D01*
X140788283Y-116591249D01*
X140759844Y-116497498D01*
X140750000Y-116397546D01*
X140750000Y-115302454D01*
X140759844Y-115202502D01*
X140788283Y-115108751D01*
X140834465Y-115022351D01*
X140896618Y-114946618D01*
X140972351Y-114884465D01*
X141058751Y-114838283D01*
X141152502Y-114809844D01*
X141252454Y-114800000D01*
X142647546Y-114800000D01*
X142747498Y-114809844D01*
X142747498Y-114809844D01*
G37*
G36*
X133847498Y-114809844D02*
X133941249Y-114838283D01*
X134027649Y-114884465D01*
X134103382Y-114946618D01*
X134165535Y-115022351D01*
X134211717Y-115108751D01*
X134240156Y-115202502D01*
X134250000Y-115302454D01*
X134250000Y-116397546D01*
X134240156Y-116497498D01*
X134211717Y-116591249D01*
X134165535Y-116677649D01*
X134103382Y-116753382D01*
X134027649Y-116815535D01*
X133941249Y-116861717D01*
X133847498Y-116890156D01*
X133747546Y-116900000D01*
X132352454Y-116900000D01*
X132252502Y-116890156D01*
X132158751Y-116861717D01*
X132072351Y-116815535D01*
X131996618Y-116753382D01*
X131934465Y-116677649D01*
X131888283Y-116591249D01*
X131859844Y-116497498D01*
X131850000Y-116397546D01*
X131850000Y-115302454D01*
X131859844Y-115202502D01*
X131888283Y-115108751D01*
X131934465Y-115022351D01*
X131996618Y-114946618D01*
X132072351Y-114884465D01*
X132158751Y-114838283D01*
X132252502Y-114809844D01*
X132352454Y-114800000D01*
X133747546Y-114800000D01*
X133847498Y-114809844D01*
X133847498Y-114809844D01*
G37*
G36*
X130583480Y-113931001D02*
X130639712Y-113948059D01*
X130691538Y-113975761D01*
X130736961Y-114013039D01*
X130774239Y-114058462D01*
X130801941Y-114110288D01*
X130818999Y-114166520D01*
X130825000Y-114227454D01*
X130825000Y-115272546D01*
X130818999Y-115333480D01*
X130801941Y-115389712D01*
X130774239Y-115441538D01*
X130736961Y-115486961D01*
X130691538Y-115524239D01*
X130639712Y-115551941D01*
X130583480Y-115568999D01*
X130522546Y-115575000D01*
X128977454Y-115575000D01*
X128916520Y-115568999D01*
X128860288Y-115551941D01*
X128808462Y-115524239D01*
X128763039Y-115486961D01*
X128725761Y-115441538D01*
X128698059Y-115389712D01*
X128681001Y-115333480D01*
X128675000Y-115272546D01*
X128675000Y-114227454D01*
X128681001Y-114166520D01*
X128698059Y-114110288D01*
X128725761Y-114058462D01*
X128763039Y-114013039D01*
X128808462Y-113975761D01*
X128860288Y-113948059D01*
X128916520Y-113931001D01*
X128977454Y-113925000D01*
X130522546Y-113925000D01*
X130583480Y-113931001D01*
X130583480Y-113931001D01*
G37*
G36*
X156490480Y-110960237D02*
X156539259Y-110975035D01*
X156584206Y-110999059D01*
X156623607Y-111031393D01*
X156655941Y-111070794D01*
X156679965Y-111115741D01*
X156694763Y-111164520D01*
X156700000Y-111217695D01*
X156700000Y-113442305D01*
X156694763Y-113495480D01*
X156679965Y-113544259D01*
X156655941Y-113589206D01*
X156623607Y-113628607D01*
X156584206Y-113660941D01*
X156539259Y-113684965D01*
X156490480Y-113699763D01*
X156437305Y-113705000D01*
X154487695Y-113705000D01*
X154434520Y-113699763D01*
X154385741Y-113684965D01*
X154340794Y-113660941D01*
X154301393Y-113628607D01*
X154269059Y-113589206D01*
X154245035Y-113544259D01*
X154230237Y-113495480D01*
X154225000Y-113442305D01*
X154225000Y-111217695D01*
X154230237Y-111164520D01*
X154245035Y-111115741D01*
X154269059Y-111070794D01*
X154301393Y-111031393D01*
X154340794Y-110999059D01*
X154385741Y-110975035D01*
X154434520Y-110960237D01*
X154487695Y-110955000D01*
X156437305Y-110955000D01*
X156490480Y-110960237D01*
X156490480Y-110960237D01*
G37*
G36*
X151565480Y-110960237D02*
X151614259Y-110975035D01*
X151659206Y-110999059D01*
X151698607Y-111031393D01*
X151730941Y-111070794D01*
X151754965Y-111115741D01*
X151769763Y-111164520D01*
X151775000Y-111217695D01*
X151775000Y-113442305D01*
X151769763Y-113495480D01*
X151754965Y-113544259D01*
X151730941Y-113589206D01*
X151698607Y-113628607D01*
X151659206Y-113660941D01*
X151614259Y-113684965D01*
X151565480Y-113699763D01*
X151512305Y-113705000D01*
X149562695Y-113705000D01*
X149509520Y-113699763D01*
X149460741Y-113684965D01*
X149415794Y-113660941D01*
X149376393Y-113628607D01*
X149344059Y-113589206D01*
X149320035Y-113544259D01*
X149305237Y-113495480D01*
X149300000Y-113442305D01*
X149300000Y-111217695D01*
X149305237Y-111164520D01*
X149320035Y-111115741D01*
X149344059Y-111070794D01*
X149376393Y-111031393D01*
X149415794Y-110999059D01*
X149460741Y-110975035D01*
X149509520Y-110960237D01*
X149562695Y-110955000D01*
X151512305Y-110955000D01*
X151565480Y-110960237D01*
X151565480Y-110960237D01*
G37*
G36*
X142159480Y-111291001D02*
X142215712Y-111308059D01*
X142267538Y-111335761D01*
X142312961Y-111373039D01*
X142350239Y-111418462D01*
X142377941Y-111470288D01*
X142394999Y-111526520D01*
X142401000Y-111587454D01*
X142401000Y-112632546D01*
X142394999Y-112693480D01*
X142377941Y-112749712D01*
X142350239Y-112801538D01*
X142312961Y-112846961D01*
X142267538Y-112884239D01*
X142215712Y-112911941D01*
X142159480Y-112928999D01*
X142098546Y-112935000D01*
X140553454Y-112935000D01*
X140492520Y-112928999D01*
X140436288Y-112911941D01*
X140384462Y-112884239D01*
X140339039Y-112846961D01*
X140301761Y-112801538D01*
X140274059Y-112749712D01*
X140257001Y-112693480D01*
X140251000Y-112632546D01*
X140251000Y-111587454D01*
X140257001Y-111526520D01*
X140274059Y-111470288D01*
X140301761Y-111418462D01*
X140339039Y-111373039D01*
X140384462Y-111335761D01*
X140436288Y-111308059D01*
X140492520Y-111291001D01*
X140553454Y-111285000D01*
X142098546Y-111285000D01*
X142159480Y-111291001D01*
X142159480Y-111291001D01*
G37*
G36*
X139873480Y-111291001D02*
X139929712Y-111308059D01*
X139981538Y-111335761D01*
X140026961Y-111373039D01*
X140064239Y-111418462D01*
X140091941Y-111470288D01*
X140108999Y-111526520D01*
X140115000Y-111587454D01*
X140115000Y-112632546D01*
X140108999Y-112693480D01*
X140091941Y-112749712D01*
X140064239Y-112801538D01*
X140026961Y-112846961D01*
X139981538Y-112884239D01*
X139929712Y-112911941D01*
X139873480Y-112928999D01*
X139812546Y-112935000D01*
X138267454Y-112935000D01*
X138206520Y-112928999D01*
X138150288Y-112911941D01*
X138098462Y-112884239D01*
X138053039Y-112846961D01*
X138015761Y-112801538D01*
X137988059Y-112749712D01*
X137971001Y-112693480D01*
X137965000Y-112632546D01*
X137965000Y-111587454D01*
X137971001Y-111526520D01*
X137988059Y-111470288D01*
X138015761Y-111418462D01*
X138053039Y-111373039D01*
X138098462Y-111335761D01*
X138150288Y-111308059D01*
X138206520Y-111291001D01*
X138267454Y-111285000D01*
X139812546Y-111285000D01*
X139873480Y-111291001D01*
X139873480Y-111291001D01*
G37*
G36*
X137587480Y-111291001D02*
X137643712Y-111308059D01*
X137695538Y-111335761D01*
X137740961Y-111373039D01*
X137778239Y-111418462D01*
X137805941Y-111470288D01*
X137822999Y-111526520D01*
X137829000Y-111587454D01*
X137829000Y-112632546D01*
X137822999Y-112693480D01*
X137805941Y-112749712D01*
X137778239Y-112801538D01*
X137740961Y-112846961D01*
X137695538Y-112884239D01*
X137643712Y-112911941D01*
X137587480Y-112928999D01*
X137526546Y-112935000D01*
X135981454Y-112935000D01*
X135920520Y-112928999D01*
X135864288Y-112911941D01*
X135812462Y-112884239D01*
X135767039Y-112846961D01*
X135729761Y-112801538D01*
X135702059Y-112749712D01*
X135685001Y-112693480D01*
X135679000Y-112632546D01*
X135679000Y-111587454D01*
X135685001Y-111526520D01*
X135702059Y-111470288D01*
X135729761Y-111418462D01*
X135767039Y-111373039D01*
X135812462Y-111335761D01*
X135864288Y-111308059D01*
X135920520Y-111291001D01*
X135981454Y-111285000D01*
X137526546Y-111285000D01*
X137587480Y-111291001D01*
X137587480Y-111291001D01*
G37*
G36*
X127147180Y-106920278D02*
X127259718Y-106954416D01*
X127363430Y-107009852D01*
X127454340Y-107084460D01*
X127528948Y-107175370D01*
X127584384Y-107279082D01*
X127618522Y-107391620D01*
X127630290Y-107511109D01*
X127630290Y-112306611D01*
X127618522Y-112426100D01*
X127584384Y-112538638D01*
X127528948Y-112642350D01*
X127454340Y-112733260D01*
X127363430Y-112807868D01*
X127259718Y-112863304D01*
X127147180Y-112897442D01*
X127027691Y-112909210D01*
X125732309Y-112909210D01*
X125612820Y-112897442D01*
X125500282Y-112863304D01*
X125396570Y-112807868D01*
X125305660Y-112733260D01*
X125231052Y-112642350D01*
X125175616Y-112538638D01*
X125141478Y-112426100D01*
X125129710Y-112306611D01*
X125129710Y-107511109D01*
X125141478Y-107391620D01*
X125175616Y-107279082D01*
X125231052Y-107175370D01*
X125305660Y-107084460D01*
X125396570Y-107009852D01*
X125500282Y-106954416D01*
X125612820Y-106920278D01*
X125732309Y-106908510D01*
X127027691Y-106908510D01*
X127147180Y-106920278D01*
X127147180Y-106920278D01*
G37*
G36*
X146543388Y-110966361D02*
X146603138Y-110984486D01*
X146658204Y-111013921D01*
X146706470Y-111053530D01*
X146746079Y-111101796D01*
X146775514Y-111156862D01*
X146793639Y-111216612D01*
X146800000Y-111281204D01*
X146800000Y-112013796D01*
X146793639Y-112078388D01*
X146775514Y-112138138D01*
X146746079Y-112193204D01*
X146706470Y-112241470D01*
X146658204Y-112281079D01*
X146603138Y-112310514D01*
X146543388Y-112328639D01*
X146478796Y-112335000D01*
X145321204Y-112335000D01*
X145256612Y-112328639D01*
X145196862Y-112310514D01*
X145141796Y-112281079D01*
X145093530Y-112241470D01*
X145053921Y-112193204D01*
X145024486Y-112138138D01*
X145006361Y-112078388D01*
X145000000Y-112013796D01*
X145000000Y-111281204D01*
X145006361Y-111216612D01*
X145024486Y-111156862D01*
X145053921Y-111101796D01*
X145093530Y-111053530D01*
X145141796Y-111013921D01*
X145196862Y-110984486D01*
X145256612Y-110966361D01*
X145321204Y-110960000D01*
X146478796Y-110960000D01*
X146543388Y-110966361D01*
X146543388Y-110966361D01*
G37*
G36*
X148493388Y-110966361D02*
X148553138Y-110984486D01*
X148608204Y-111013921D01*
X148656470Y-111053530D01*
X148696079Y-111101796D01*
X148725514Y-111156862D01*
X148743639Y-111216612D01*
X148750000Y-111281204D01*
X148750000Y-112013796D01*
X148743639Y-112078388D01*
X148725514Y-112138138D01*
X148696079Y-112193204D01*
X148656470Y-112241470D01*
X148608204Y-112281079D01*
X148553138Y-112310514D01*
X148493388Y-112328639D01*
X148428796Y-112335000D01*
X147271204Y-112335000D01*
X147206612Y-112328639D01*
X147146862Y-112310514D01*
X147091796Y-112281079D01*
X147043530Y-112241470D01*
X147003921Y-112193204D01*
X146974486Y-112138138D01*
X146956361Y-112078388D01*
X146950000Y-112013796D01*
X146950000Y-111281204D01*
X146956361Y-111216612D01*
X146974486Y-111156862D01*
X147003921Y-111101796D01*
X147043530Y-111053530D01*
X147091796Y-111013921D01*
X147146862Y-110984486D01*
X147206612Y-110966361D01*
X147271204Y-110960000D01*
X148428796Y-110960000D01*
X148493388Y-110966361D01*
X148493388Y-110966361D01*
G37*
G36*
X144611388Y-110966361D02*
X144671138Y-110984486D01*
X144726204Y-111013921D01*
X144774470Y-111053530D01*
X144814079Y-111101796D01*
X144843514Y-111156862D01*
X144861639Y-111216612D01*
X144868000Y-111281204D01*
X144868000Y-112013796D01*
X144861639Y-112078388D01*
X144843514Y-112138138D01*
X144814079Y-112193204D01*
X144774470Y-112241470D01*
X144726204Y-112281079D01*
X144671138Y-112310514D01*
X144611388Y-112328639D01*
X144546796Y-112335000D01*
X143389204Y-112335000D01*
X143324612Y-112328639D01*
X143264862Y-112310514D01*
X143209796Y-112281079D01*
X143161530Y-112241470D01*
X143121921Y-112193204D01*
X143092486Y-112138138D01*
X143074361Y-112078388D01*
X143068000Y-112013796D01*
X143068000Y-111281204D01*
X143074361Y-111216612D01*
X143092486Y-111156862D01*
X143121921Y-111101796D01*
X143161530Y-111053530D01*
X143209796Y-111013921D01*
X143264862Y-110984486D01*
X143324612Y-110966361D01*
X143389204Y-110960000D01*
X144546796Y-110960000D01*
X144611388Y-110966361D01*
X144611388Y-110966361D01*
G37*
G36*
X134738510Y-110655881D02*
X134793570Y-110672583D01*
X134844312Y-110699705D01*
X134888791Y-110736209D01*
X134925295Y-110780688D01*
X134952417Y-110831430D01*
X134969119Y-110886490D01*
X134975000Y-110946204D01*
X134975000Y-111628796D01*
X134969119Y-111688510D01*
X134952417Y-111743570D01*
X134925295Y-111794312D01*
X134888791Y-111838791D01*
X134844312Y-111875295D01*
X134793570Y-111902417D01*
X134738510Y-111919119D01*
X134678796Y-111925000D01*
X133921204Y-111925000D01*
X133861490Y-111919119D01*
X133806430Y-111902417D01*
X133755688Y-111875295D01*
X133711209Y-111838791D01*
X133674705Y-111794312D01*
X133647583Y-111743570D01*
X133630881Y-111688510D01*
X133625000Y-111628796D01*
X133625000Y-110946204D01*
X133630881Y-110886490D01*
X133647583Y-110831430D01*
X133674705Y-110780688D01*
X133711209Y-110736209D01*
X133755688Y-110699705D01*
X133806430Y-110672583D01*
X133861490Y-110655881D01*
X133921204Y-110650000D01*
X134678796Y-110650000D01*
X134738510Y-110655881D01*
X134738510Y-110655881D01*
G37*
G36*
X132888510Y-110655881D02*
X132943570Y-110672583D01*
X132994312Y-110699705D01*
X133038791Y-110736209D01*
X133075295Y-110780688D01*
X133102417Y-110831430D01*
X133119119Y-110886490D01*
X133125000Y-110946204D01*
X133125000Y-111628796D01*
X133119119Y-111688510D01*
X133102417Y-111743570D01*
X133075295Y-111794312D01*
X133038791Y-111838791D01*
X132994312Y-111875295D01*
X132943570Y-111902417D01*
X132888510Y-111919119D01*
X132828796Y-111925000D01*
X132071204Y-111925000D01*
X132011490Y-111919119D01*
X131956430Y-111902417D01*
X131905688Y-111875295D01*
X131861209Y-111838791D01*
X131824705Y-111794312D01*
X131797583Y-111743570D01*
X131780881Y-111688510D01*
X131775000Y-111628796D01*
X131775000Y-110946204D01*
X131780881Y-110886490D01*
X131797583Y-110831430D01*
X131824705Y-110780688D01*
X131861209Y-110736209D01*
X131905688Y-110699705D01*
X131956430Y-110672583D01*
X132011490Y-110655881D01*
X132071204Y-110650000D01*
X132828796Y-110650000D01*
X132888510Y-110655881D01*
X132888510Y-110655881D01*
G37*
G36*
X130988510Y-110655881D02*
X131043570Y-110672583D01*
X131094312Y-110699705D01*
X131138791Y-110736209D01*
X131175295Y-110780688D01*
X131202417Y-110831430D01*
X131219119Y-110886490D01*
X131225000Y-110946204D01*
X131225000Y-111628796D01*
X131219119Y-111688510D01*
X131202417Y-111743570D01*
X131175295Y-111794312D01*
X131138791Y-111838791D01*
X131094312Y-111875295D01*
X131043570Y-111902417D01*
X130988510Y-111919119D01*
X130928796Y-111925000D01*
X130171204Y-111925000D01*
X130111490Y-111919119D01*
X130056430Y-111902417D01*
X130005688Y-111875295D01*
X129961209Y-111838791D01*
X129924705Y-111794312D01*
X129897583Y-111743570D01*
X129880881Y-111688510D01*
X129875000Y-111628796D01*
X129875000Y-110946204D01*
X129880881Y-110886490D01*
X129897583Y-110831430D01*
X129924705Y-110780688D01*
X129961209Y-110736209D01*
X130005688Y-110699705D01*
X130056430Y-110672583D01*
X130111490Y-110655881D01*
X130171204Y-110650000D01*
X130928796Y-110650000D01*
X130988510Y-110655881D01*
X130988510Y-110655881D01*
G37*
G36*
X148493388Y-109091361D02*
X148553138Y-109109486D01*
X148608204Y-109138921D01*
X148656470Y-109178530D01*
X148696079Y-109226796D01*
X148725514Y-109281862D01*
X148743639Y-109341612D01*
X148750000Y-109406204D01*
X148750000Y-110138796D01*
X148743639Y-110203388D01*
X148725514Y-110263138D01*
X148696079Y-110318204D01*
X148656470Y-110366470D01*
X148608204Y-110406079D01*
X148553138Y-110435514D01*
X148493388Y-110453639D01*
X148428796Y-110460000D01*
X147271204Y-110460000D01*
X147206612Y-110453639D01*
X147146862Y-110435514D01*
X147091796Y-110406079D01*
X147043530Y-110366470D01*
X147003921Y-110318204D01*
X146974486Y-110263138D01*
X146956361Y-110203388D01*
X146950000Y-110138796D01*
X146950000Y-109406204D01*
X146956361Y-109341612D01*
X146974486Y-109281862D01*
X147003921Y-109226796D01*
X147043530Y-109178530D01*
X147091796Y-109138921D01*
X147146862Y-109109486D01*
X147206612Y-109091361D01*
X147271204Y-109085000D01*
X148428796Y-109085000D01*
X148493388Y-109091361D01*
X148493388Y-109091361D01*
G37*
G36*
X144611388Y-109091361D02*
X144671138Y-109109486D01*
X144726204Y-109138921D01*
X144774470Y-109178530D01*
X144814079Y-109226796D01*
X144843514Y-109281862D01*
X144861639Y-109341612D01*
X144868000Y-109406204D01*
X144868000Y-110138796D01*
X144861639Y-110203388D01*
X144843514Y-110263138D01*
X144814079Y-110318204D01*
X144774470Y-110366470D01*
X144726204Y-110406079D01*
X144671138Y-110435514D01*
X144611388Y-110453639D01*
X144546796Y-110460000D01*
X143389204Y-110460000D01*
X143324612Y-110453639D01*
X143264862Y-110435514D01*
X143209796Y-110406079D01*
X143161530Y-110366470D01*
X143121921Y-110318204D01*
X143092486Y-110263138D01*
X143074361Y-110203388D01*
X143068000Y-110138796D01*
X143068000Y-109406204D01*
X143074361Y-109341612D01*
X143092486Y-109281862D01*
X143121921Y-109226796D01*
X143161530Y-109178530D01*
X143209796Y-109138921D01*
X143264862Y-109109486D01*
X143324612Y-109091361D01*
X143389204Y-109085000D01*
X144546796Y-109085000D01*
X144611388Y-109091361D01*
X144611388Y-109091361D01*
G37*
G36*
X146543388Y-109091361D02*
X146603138Y-109109486D01*
X146658204Y-109138921D01*
X146706470Y-109178530D01*
X146746079Y-109226796D01*
X146775514Y-109281862D01*
X146793639Y-109341612D01*
X146800000Y-109406204D01*
X146800000Y-110138796D01*
X146793639Y-110203388D01*
X146775514Y-110263138D01*
X146746079Y-110318204D01*
X146706470Y-110366470D01*
X146658204Y-110406079D01*
X146603138Y-110435514D01*
X146543388Y-110453639D01*
X146478796Y-110460000D01*
X145321204Y-110460000D01*
X145256612Y-110453639D01*
X145196862Y-110435514D01*
X145141796Y-110406079D01*
X145093530Y-110366470D01*
X145053921Y-110318204D01*
X145024486Y-110263138D01*
X145006361Y-110203388D01*
X145000000Y-110138796D01*
X145000000Y-109406204D01*
X145006361Y-109341612D01*
X145024486Y-109281862D01*
X145053921Y-109226796D01*
X145093530Y-109178530D01*
X145141796Y-109138921D01*
X145196862Y-109109486D01*
X145256612Y-109091361D01*
X145321204Y-109085000D01*
X146478796Y-109085000D01*
X146543388Y-109091361D01*
X146543388Y-109091361D01*
G37*
G36*
X130988510Y-109080881D02*
X131043570Y-109097583D01*
X131094312Y-109124705D01*
X131138791Y-109161209D01*
X131175295Y-109205688D01*
X131202417Y-109256430D01*
X131219119Y-109311490D01*
X131225000Y-109371204D01*
X131225000Y-110053796D01*
X131219119Y-110113510D01*
X131202417Y-110168570D01*
X131175295Y-110219312D01*
X131138791Y-110263791D01*
X131094312Y-110300295D01*
X131043570Y-110327417D01*
X130988510Y-110344119D01*
X130928796Y-110350000D01*
X130171204Y-110350000D01*
X130111490Y-110344119D01*
X130056430Y-110327417D01*
X130005688Y-110300295D01*
X129961209Y-110263791D01*
X129924705Y-110219312D01*
X129897583Y-110168570D01*
X129880881Y-110113510D01*
X129875000Y-110053796D01*
X129875000Y-109371204D01*
X129880881Y-109311490D01*
X129897583Y-109256430D01*
X129924705Y-109205688D01*
X129961209Y-109161209D01*
X130005688Y-109124705D01*
X130056430Y-109097583D01*
X130111490Y-109080881D01*
X130171204Y-109075000D01*
X130928796Y-109075000D01*
X130988510Y-109080881D01*
X130988510Y-109080881D01*
G37*
G36*
X132888510Y-109080881D02*
X132943570Y-109097583D01*
X132994312Y-109124705D01*
X133038791Y-109161209D01*
X133075295Y-109205688D01*
X133102417Y-109256430D01*
X133119119Y-109311490D01*
X133125000Y-109371204D01*
X133125000Y-110053796D01*
X133119119Y-110113510D01*
X133102417Y-110168570D01*
X133075295Y-110219312D01*
X133038791Y-110263791D01*
X132994312Y-110300295D01*
X132943570Y-110327417D01*
X132888510Y-110344119D01*
X132828796Y-110350000D01*
X132071204Y-110350000D01*
X132011490Y-110344119D01*
X131956430Y-110327417D01*
X131905688Y-110300295D01*
X131861209Y-110263791D01*
X131824705Y-110219312D01*
X131797583Y-110168570D01*
X131780881Y-110113510D01*
X131775000Y-110053796D01*
X131775000Y-109371204D01*
X131780881Y-109311490D01*
X131797583Y-109256430D01*
X131824705Y-109205688D01*
X131861209Y-109161209D01*
X131905688Y-109124705D01*
X131956430Y-109097583D01*
X132011490Y-109080881D01*
X132071204Y-109075000D01*
X132828796Y-109075000D01*
X132888510Y-109080881D01*
X132888510Y-109080881D01*
G37*
G36*
X134738510Y-109080881D02*
X134793570Y-109097583D01*
X134844312Y-109124705D01*
X134888791Y-109161209D01*
X134925295Y-109205688D01*
X134952417Y-109256430D01*
X134969119Y-109311490D01*
X134975000Y-109371204D01*
X134975000Y-110053796D01*
X134969119Y-110113510D01*
X134952417Y-110168570D01*
X134925295Y-110219312D01*
X134888791Y-110263791D01*
X134844312Y-110300295D01*
X134793570Y-110327417D01*
X134738510Y-110344119D01*
X134678796Y-110350000D01*
X133921204Y-110350000D01*
X133861490Y-110344119D01*
X133806430Y-110327417D01*
X133755688Y-110300295D01*
X133711209Y-110263791D01*
X133674705Y-110219312D01*
X133647583Y-110168570D01*
X133630881Y-110113510D01*
X133625000Y-110053796D01*
X133625000Y-109371204D01*
X133630881Y-109311490D01*
X133647583Y-109256430D01*
X133674705Y-109205688D01*
X133711209Y-109161209D01*
X133755688Y-109124705D01*
X133806430Y-109097583D01*
X133861490Y-109080881D01*
X133921204Y-109075000D01*
X134678796Y-109075000D01*
X134738510Y-109080881D01*
X134738510Y-109080881D01*
G37*
G36*
X142159480Y-108491001D02*
X142215712Y-108508059D01*
X142267538Y-108535761D01*
X142312961Y-108573039D01*
X142350239Y-108618462D01*
X142377941Y-108670288D01*
X142394999Y-108726520D01*
X142401000Y-108787454D01*
X142401000Y-109832546D01*
X142394999Y-109893480D01*
X142377941Y-109949712D01*
X142350239Y-110001538D01*
X142312961Y-110046961D01*
X142267538Y-110084239D01*
X142215712Y-110111941D01*
X142159480Y-110128999D01*
X142098546Y-110135000D01*
X140553454Y-110135000D01*
X140492520Y-110128999D01*
X140436288Y-110111941D01*
X140384462Y-110084239D01*
X140339039Y-110046961D01*
X140301761Y-110001538D01*
X140274059Y-109949712D01*
X140257001Y-109893480D01*
X140251000Y-109832546D01*
X140251000Y-108787454D01*
X140257001Y-108726520D01*
X140274059Y-108670288D01*
X140301761Y-108618462D01*
X140339039Y-108573039D01*
X140384462Y-108535761D01*
X140436288Y-108508059D01*
X140492520Y-108491001D01*
X140553454Y-108485000D01*
X142098546Y-108485000D01*
X142159480Y-108491001D01*
X142159480Y-108491001D01*
G37*
G36*
X139873480Y-108491001D02*
X139929712Y-108508059D01*
X139981538Y-108535761D01*
X140026961Y-108573039D01*
X140064239Y-108618462D01*
X140091941Y-108670288D01*
X140108999Y-108726520D01*
X140115000Y-108787454D01*
X140115000Y-109832546D01*
X140108999Y-109893480D01*
X140091941Y-109949712D01*
X140064239Y-110001538D01*
X140026961Y-110046961D01*
X139981538Y-110084239D01*
X139929712Y-110111941D01*
X139873480Y-110128999D01*
X139812546Y-110135000D01*
X138267454Y-110135000D01*
X138206520Y-110128999D01*
X138150288Y-110111941D01*
X138098462Y-110084239D01*
X138053039Y-110046961D01*
X138015761Y-110001538D01*
X137988059Y-109949712D01*
X137971001Y-109893480D01*
X137965000Y-109832546D01*
X137965000Y-108787454D01*
X137971001Y-108726520D01*
X137988059Y-108670288D01*
X138015761Y-108618462D01*
X138053039Y-108573039D01*
X138098462Y-108535761D01*
X138150288Y-108508059D01*
X138206520Y-108491001D01*
X138267454Y-108485000D01*
X139812546Y-108485000D01*
X139873480Y-108491001D01*
X139873480Y-108491001D01*
G37*
G36*
X137587480Y-108491001D02*
X137643712Y-108508059D01*
X137695538Y-108535761D01*
X137740961Y-108573039D01*
X137778239Y-108618462D01*
X137805941Y-108670288D01*
X137822999Y-108726520D01*
X137829000Y-108787454D01*
X137829000Y-109832546D01*
X137822999Y-109893480D01*
X137805941Y-109949712D01*
X137778239Y-110001538D01*
X137740961Y-110046961D01*
X137695538Y-110084239D01*
X137643712Y-110111941D01*
X137587480Y-110128999D01*
X137526546Y-110135000D01*
X135981454Y-110135000D01*
X135920520Y-110128999D01*
X135864288Y-110111941D01*
X135812462Y-110084239D01*
X135767039Y-110046961D01*
X135729761Y-110001538D01*
X135702059Y-109949712D01*
X135685001Y-109893480D01*
X135679000Y-109832546D01*
X135679000Y-108787454D01*
X135685001Y-108726520D01*
X135702059Y-108670288D01*
X135729761Y-108618462D01*
X135767039Y-108573039D01*
X135812462Y-108535761D01*
X135864288Y-108508059D01*
X135920520Y-108491001D01*
X135981454Y-108485000D01*
X137526546Y-108485000D01*
X137587480Y-108491001D01*
X137587480Y-108491001D01*
G37*
G36*
X133583480Y-105531001D02*
X133639712Y-105548059D01*
X133691538Y-105575761D01*
X133736961Y-105613039D01*
X133774239Y-105658462D01*
X133801941Y-105710288D01*
X133818999Y-105766520D01*
X133825000Y-105827454D01*
X133825000Y-107372546D01*
X133818999Y-107433480D01*
X133801941Y-107489712D01*
X133774239Y-107541538D01*
X133736961Y-107586961D01*
X133691538Y-107624239D01*
X133639712Y-107651941D01*
X133583480Y-107668999D01*
X133522546Y-107675000D01*
X132477454Y-107675000D01*
X132416520Y-107668999D01*
X132360288Y-107651941D01*
X132308462Y-107624239D01*
X132263039Y-107586961D01*
X132225761Y-107541538D01*
X132198059Y-107489712D01*
X132181001Y-107433480D01*
X132175000Y-107372546D01*
X132175000Y-105827454D01*
X132181001Y-105766520D01*
X132198059Y-105710288D01*
X132225761Y-105658462D01*
X132263039Y-105613039D01*
X132308462Y-105575761D01*
X132360288Y-105548059D01*
X132416520Y-105531001D01*
X132477454Y-105525000D01*
X133522546Y-105525000D01*
X133583480Y-105531001D01*
X133583480Y-105531001D01*
G37*
G36*
X130783480Y-105531001D02*
X130839712Y-105548059D01*
X130891538Y-105575761D01*
X130936961Y-105613039D01*
X130974239Y-105658462D01*
X131001941Y-105710288D01*
X131018999Y-105766520D01*
X131025000Y-105827454D01*
X131025000Y-107372546D01*
X131018999Y-107433480D01*
X131001941Y-107489712D01*
X130974239Y-107541538D01*
X130936961Y-107586961D01*
X130891538Y-107624239D01*
X130839712Y-107651941D01*
X130783480Y-107668999D01*
X130722546Y-107675000D01*
X129677454Y-107675000D01*
X129616520Y-107668999D01*
X129560288Y-107651941D01*
X129508462Y-107624239D01*
X129463039Y-107586961D01*
X129425761Y-107541538D01*
X129398059Y-107489712D01*
X129381001Y-107433480D01*
X129375000Y-107372546D01*
X129375000Y-105827454D01*
X129381001Y-105766520D01*
X129398059Y-105710288D01*
X129425761Y-105658462D01*
X129463039Y-105613039D01*
X129508462Y-105575761D01*
X129560288Y-105548059D01*
X129616520Y-105531001D01*
X129677454Y-105525000D01*
X130722546Y-105525000D01*
X130783480Y-105531001D01*
X130783480Y-105531001D01*
G37*
G36*
X145730388Y-104974361D02*
X145790138Y-104992486D01*
X145845204Y-105021921D01*
X145893470Y-105061530D01*
X145933079Y-105109796D01*
X145962514Y-105164862D01*
X145980639Y-105224612D01*
X145987000Y-105289204D01*
X145987000Y-106446796D01*
X145980639Y-106511388D01*
X145962514Y-106571138D01*
X145933079Y-106626204D01*
X145893470Y-106674470D01*
X145845204Y-106714079D01*
X145790138Y-106743514D01*
X145730388Y-106761639D01*
X145665796Y-106768000D01*
X144933204Y-106768000D01*
X144868612Y-106761639D01*
X144808862Y-106743514D01*
X144753796Y-106714079D01*
X144705530Y-106674470D01*
X144665921Y-106626204D01*
X144636486Y-106571138D01*
X144618361Y-106511388D01*
X144612000Y-106446796D01*
X144612000Y-105289204D01*
X144618361Y-105224612D01*
X144636486Y-105164862D01*
X144665921Y-105109796D01*
X144705530Y-105061530D01*
X144753796Y-105021921D01*
X144808862Y-104992486D01*
X144868612Y-104974361D01*
X144933204Y-104968000D01*
X145665796Y-104968000D01*
X145730388Y-104974361D01*
X145730388Y-104974361D01*
G37*
G36*
X143855388Y-104974361D02*
X143915138Y-104992486D01*
X143970204Y-105021921D01*
X144018470Y-105061530D01*
X144058079Y-105109796D01*
X144087514Y-105164862D01*
X144105639Y-105224612D01*
X144112000Y-105289204D01*
X144112000Y-106446796D01*
X144105639Y-106511388D01*
X144087514Y-106571138D01*
X144058079Y-106626204D01*
X144018470Y-106674470D01*
X143970204Y-106714079D01*
X143915138Y-106743514D01*
X143855388Y-106761639D01*
X143790796Y-106768000D01*
X143058204Y-106768000D01*
X142993612Y-106761639D01*
X142933862Y-106743514D01*
X142878796Y-106714079D01*
X142830530Y-106674470D01*
X142790921Y-106626204D01*
X142761486Y-106571138D01*
X142743361Y-106511388D01*
X142737000Y-106446796D01*
X142737000Y-105289204D01*
X142743361Y-105224612D01*
X142761486Y-105164862D01*
X142790921Y-105109796D01*
X142830530Y-105061530D01*
X142878796Y-105021921D01*
X142933862Y-104992486D01*
X142993612Y-104974361D01*
X143058204Y-104968000D01*
X143790796Y-104968000D01*
X143855388Y-104974361D01*
X143855388Y-104974361D01*
G37*
G36*
X132368388Y-103106361D02*
X132428138Y-103124486D01*
X132483204Y-103153921D01*
X132531470Y-103193530D01*
X132571079Y-103241796D01*
X132600514Y-103296862D01*
X132618639Y-103356612D01*
X132625000Y-103421204D01*
X132625000Y-104578796D01*
X132618639Y-104643388D01*
X132600514Y-104703138D01*
X132571079Y-104758204D01*
X132531470Y-104806470D01*
X132483204Y-104846079D01*
X132428138Y-104875514D01*
X132368388Y-104893639D01*
X132303796Y-104900000D01*
X131571204Y-104900000D01*
X131506612Y-104893639D01*
X131446862Y-104875514D01*
X131391796Y-104846079D01*
X131343530Y-104806470D01*
X131303921Y-104758204D01*
X131274486Y-104703138D01*
X131256361Y-104643388D01*
X131250000Y-104578796D01*
X131250000Y-103421204D01*
X131256361Y-103356612D01*
X131274486Y-103296862D01*
X131303921Y-103241796D01*
X131343530Y-103193530D01*
X131391796Y-103153921D01*
X131446862Y-103124486D01*
X131506612Y-103106361D01*
X131571204Y-103100000D01*
X132303796Y-103100000D01*
X132368388Y-103106361D01*
X132368388Y-103106361D01*
G37*
G36*
X130493388Y-103106361D02*
X130553138Y-103124486D01*
X130608204Y-103153921D01*
X130656470Y-103193530D01*
X130696079Y-103241796D01*
X130725514Y-103296862D01*
X130743639Y-103356612D01*
X130750000Y-103421204D01*
X130750000Y-104578796D01*
X130743639Y-104643388D01*
X130725514Y-104703138D01*
X130696079Y-104758204D01*
X130656470Y-104806470D01*
X130608204Y-104846079D01*
X130553138Y-104875514D01*
X130493388Y-104893639D01*
X130428796Y-104900000D01*
X129696204Y-104900000D01*
X129631612Y-104893639D01*
X129571862Y-104875514D01*
X129516796Y-104846079D01*
X129468530Y-104806470D01*
X129428921Y-104758204D01*
X129399486Y-104703138D01*
X129381361Y-104643388D01*
X129375000Y-104578796D01*
X129375000Y-103421204D01*
X129381361Y-103356612D01*
X129399486Y-103296862D01*
X129428921Y-103241796D01*
X129468530Y-103193530D01*
X129516796Y-103153921D01*
X129571862Y-103124486D01*
X129631612Y-103106361D01*
X129696204Y-103100000D01*
X130428796Y-103100000D01*
X130493388Y-103106361D01*
X130493388Y-103106361D01*
G37*
G36*
X145768388Y-103056361D02*
X145828138Y-103074486D01*
X145883204Y-103103921D01*
X145931470Y-103143530D01*
X145971079Y-103191796D01*
X146000514Y-103246862D01*
X146018639Y-103306612D01*
X146025000Y-103371204D01*
X146025000Y-104528796D01*
X146018639Y-104593388D01*
X146000514Y-104653138D01*
X145971079Y-104708204D01*
X145931470Y-104756470D01*
X145883204Y-104796079D01*
X145828138Y-104825514D01*
X145768388Y-104843639D01*
X145703796Y-104850000D01*
X144971204Y-104850000D01*
X144906612Y-104843639D01*
X144846862Y-104825514D01*
X144791796Y-104796079D01*
X144743530Y-104756470D01*
X144703921Y-104708204D01*
X144674486Y-104653138D01*
X144656361Y-104593388D01*
X144650000Y-104528796D01*
X144650000Y-103371204D01*
X144656361Y-103306612D01*
X144674486Y-103246862D01*
X144703921Y-103191796D01*
X144743530Y-103143530D01*
X144791796Y-103103921D01*
X144846862Y-103074486D01*
X144906612Y-103056361D01*
X144971204Y-103050000D01*
X145703796Y-103050000D01*
X145768388Y-103056361D01*
X145768388Y-103056361D01*
G37*
G36*
X143893388Y-103056361D02*
X143953138Y-103074486D01*
X144008204Y-103103921D01*
X144056470Y-103143530D01*
X144096079Y-103191796D01*
X144125514Y-103246862D01*
X144143639Y-103306612D01*
X144150000Y-103371204D01*
X144150000Y-104528796D01*
X144143639Y-104593388D01*
X144125514Y-104653138D01*
X144096079Y-104708204D01*
X144056470Y-104756470D01*
X144008204Y-104796079D01*
X143953138Y-104825514D01*
X143893388Y-104843639D01*
X143828796Y-104850000D01*
X143096204Y-104850000D01*
X143031612Y-104843639D01*
X142971862Y-104825514D01*
X142916796Y-104796079D01*
X142868530Y-104756470D01*
X142828921Y-104708204D01*
X142799486Y-104653138D01*
X142781361Y-104593388D01*
X142775000Y-104528796D01*
X142775000Y-103371204D01*
X142781361Y-103306612D01*
X142799486Y-103246862D01*
X142828921Y-103191796D01*
X142868530Y-103143530D01*
X142916796Y-103103921D01*
X142971862Y-103074486D01*
X143031612Y-103056361D01*
X143096204Y-103050000D01*
X143828796Y-103050000D01*
X143893388Y-103056361D01*
X143893388Y-103056361D01*
G37*
G36*
X152623600Y-103853600D02*
X150496400Y-103853600D01*
X150496400Y-101726400D01*
X152623600Y-101726400D01*
X152623600Y-103853600D01*
X152623600Y-103853600D01*
G37*
G36*
X154308502Y-101741789D02*
X154508991Y-101802607D01*
X154693761Y-101901368D01*
X154693763Y-101901370D01*
X154855718Y-102034282D01*
X154966758Y-102169586D01*
X154988632Y-102196239D01*
X155087393Y-102381009D01*
X155148211Y-102581498D01*
X155168746Y-102790000D01*
X155148211Y-102998502D01*
X155087393Y-103198991D01*
X154988632Y-103383761D01*
X154988630Y-103383763D01*
X154855718Y-103545718D01*
X154763291Y-103621570D01*
X154693761Y-103678632D01*
X154508991Y-103777393D01*
X154308502Y-103838211D01*
X154152251Y-103853600D01*
X154047749Y-103853600D01*
X153891498Y-103838211D01*
X153691009Y-103777393D01*
X153506239Y-103678632D01*
X153436709Y-103621570D01*
X153344282Y-103545718D01*
X153211370Y-103383763D01*
X153211368Y-103383761D01*
X153112607Y-103198991D01*
X153051789Y-102998502D01*
X153031254Y-102790000D01*
X153051789Y-102581498D01*
X153112607Y-102381009D01*
X153211368Y-102196239D01*
X153233242Y-102169586D01*
X153344282Y-102034282D01*
X153506237Y-101901370D01*
X153506239Y-101901368D01*
X153691009Y-101802607D01*
X153891498Y-101741789D01*
X154047749Y-101726400D01*
X154152251Y-101726400D01*
X154308502Y-101741789D01*
X154308502Y-101741789D01*
G37*
G36*
X141838510Y-102533881D02*
X141893570Y-102550583D01*
X141944312Y-102577705D01*
X141988791Y-102614209D01*
X142025295Y-102658688D01*
X142052417Y-102709430D01*
X142069119Y-102764490D01*
X142075000Y-102824204D01*
X142075000Y-103506796D01*
X142069119Y-103566510D01*
X142052417Y-103621570D01*
X142025295Y-103672312D01*
X141988791Y-103716791D01*
X141944312Y-103753295D01*
X141893570Y-103780417D01*
X141838510Y-103797119D01*
X141778796Y-103803000D01*
X141021204Y-103803000D01*
X140961490Y-103797119D01*
X140906430Y-103780417D01*
X140855688Y-103753295D01*
X140811209Y-103716791D01*
X140774705Y-103672312D01*
X140747583Y-103621570D01*
X140730881Y-103566510D01*
X140725000Y-103506796D01*
X140725000Y-102824204D01*
X140730881Y-102764490D01*
X140747583Y-102709430D01*
X140774705Y-102658688D01*
X140811209Y-102614209D01*
X140855688Y-102577705D01*
X140906430Y-102550583D01*
X140961490Y-102533881D01*
X141021204Y-102528000D01*
X141778796Y-102528000D01*
X141838510Y-102533881D01*
X141838510Y-102533881D01*
G37*
G36*
X140138510Y-102533881D02*
X140193570Y-102550583D01*
X140244312Y-102577705D01*
X140288791Y-102614209D01*
X140325295Y-102658688D01*
X140352417Y-102709430D01*
X140369119Y-102764490D01*
X140375000Y-102824204D01*
X140375000Y-103506796D01*
X140369119Y-103566510D01*
X140352417Y-103621570D01*
X140325295Y-103672312D01*
X140288791Y-103716791D01*
X140244312Y-103753295D01*
X140193570Y-103780417D01*
X140138510Y-103797119D01*
X140078796Y-103803000D01*
X139321204Y-103803000D01*
X139261490Y-103797119D01*
X139206430Y-103780417D01*
X139155688Y-103753295D01*
X139111209Y-103716791D01*
X139074705Y-103672312D01*
X139047583Y-103621570D01*
X139030881Y-103566510D01*
X139025000Y-103506796D01*
X139025000Y-102824204D01*
X139030881Y-102764490D01*
X139047583Y-102709430D01*
X139074705Y-102658688D01*
X139111209Y-102614209D01*
X139155688Y-102577705D01*
X139206430Y-102550583D01*
X139261490Y-102533881D01*
X139321204Y-102528000D01*
X140078796Y-102528000D01*
X140138510Y-102533881D01*
X140138510Y-102533881D01*
G37*
G36*
X127147180Y-97222558D02*
X127259718Y-97256696D01*
X127363430Y-97312132D01*
X127454340Y-97386740D01*
X127528948Y-97477650D01*
X127584384Y-97581362D01*
X127618522Y-97693900D01*
X127630290Y-97813389D01*
X127630290Y-102608891D01*
X127618522Y-102728380D01*
X127584384Y-102840918D01*
X127528948Y-102944630D01*
X127454340Y-103035540D01*
X127363430Y-103110148D01*
X127259718Y-103165584D01*
X127147180Y-103199722D01*
X127027691Y-103211490D01*
X125732309Y-103211490D01*
X125612820Y-103199722D01*
X125500282Y-103165584D01*
X125396570Y-103110148D01*
X125305660Y-103035540D01*
X125231052Y-102944630D01*
X125175616Y-102840918D01*
X125141478Y-102728380D01*
X125129710Y-102608891D01*
X125129710Y-97813389D01*
X125141478Y-97693900D01*
X125175616Y-97581362D01*
X125231052Y-97477650D01*
X125305660Y-97386740D01*
X125396570Y-97312132D01*
X125500282Y-97256696D01*
X125612820Y-97222558D01*
X125732309Y-97210790D01*
X127027691Y-97210790D01*
X127147180Y-97222558D01*
X127147180Y-97222558D01*
G37*
G36*
X132368388Y-101106361D02*
X132428138Y-101124486D01*
X132483204Y-101153921D01*
X132531470Y-101193530D01*
X132571079Y-101241796D01*
X132600514Y-101296862D01*
X132618639Y-101356612D01*
X132625000Y-101421204D01*
X132625000Y-102578796D01*
X132618639Y-102643388D01*
X132600514Y-102703138D01*
X132571079Y-102758204D01*
X132531470Y-102806470D01*
X132483204Y-102846079D01*
X132428138Y-102875514D01*
X132368388Y-102893639D01*
X132303796Y-102900000D01*
X131571204Y-102900000D01*
X131506612Y-102893639D01*
X131446862Y-102875514D01*
X131391796Y-102846079D01*
X131343530Y-102806470D01*
X131303921Y-102758204D01*
X131274486Y-102703138D01*
X131256361Y-102643388D01*
X131250000Y-102578796D01*
X131250000Y-101421204D01*
X131256361Y-101356612D01*
X131274486Y-101296862D01*
X131303921Y-101241796D01*
X131343530Y-101193530D01*
X131391796Y-101153921D01*
X131446862Y-101124486D01*
X131506612Y-101106361D01*
X131571204Y-101100000D01*
X132303796Y-101100000D01*
X132368388Y-101106361D01*
X132368388Y-101106361D01*
G37*
G36*
X130493388Y-101106361D02*
X130553138Y-101124486D01*
X130608204Y-101153921D01*
X130656470Y-101193530D01*
X130696079Y-101241796D01*
X130725514Y-101296862D01*
X130743639Y-101356612D01*
X130750000Y-101421204D01*
X130750000Y-102578796D01*
X130743639Y-102643388D01*
X130725514Y-102703138D01*
X130696079Y-102758204D01*
X130656470Y-102806470D01*
X130608204Y-102846079D01*
X130553138Y-102875514D01*
X130493388Y-102893639D01*
X130428796Y-102900000D01*
X129696204Y-102900000D01*
X129631612Y-102893639D01*
X129571862Y-102875514D01*
X129516796Y-102846079D01*
X129468530Y-102806470D01*
X129428921Y-102758204D01*
X129399486Y-102703138D01*
X129381361Y-102643388D01*
X129375000Y-102578796D01*
X129375000Y-101421204D01*
X129381361Y-101356612D01*
X129399486Y-101296862D01*
X129428921Y-101241796D01*
X129468530Y-101193530D01*
X129516796Y-101153921D01*
X129571862Y-101124486D01*
X129631612Y-101106361D01*
X129696204Y-101100000D01*
X130428796Y-101100000D01*
X130493388Y-101106361D01*
X130493388Y-101106361D01*
G37*
G36*
X146983480Y-100531001D02*
X147039712Y-100548059D01*
X147091538Y-100575761D01*
X147136961Y-100613039D01*
X147174239Y-100658462D01*
X147201941Y-100710288D01*
X147218999Y-100766520D01*
X147225000Y-100827454D01*
X147225000Y-102372546D01*
X147218999Y-102433480D01*
X147201941Y-102489712D01*
X147174239Y-102541538D01*
X147136961Y-102586961D01*
X147091538Y-102624239D01*
X147039712Y-102651941D01*
X146983480Y-102668999D01*
X146922546Y-102675000D01*
X145877454Y-102675000D01*
X145816520Y-102668999D01*
X145760288Y-102651941D01*
X145708462Y-102624239D01*
X145663039Y-102586961D01*
X145625761Y-102541538D01*
X145598059Y-102489712D01*
X145581001Y-102433480D01*
X145575000Y-102372546D01*
X145575000Y-100827454D01*
X145581001Y-100766520D01*
X145598059Y-100710288D01*
X145625761Y-100658462D01*
X145663039Y-100613039D01*
X145708462Y-100575761D01*
X145760288Y-100548059D01*
X145816520Y-100531001D01*
X145877454Y-100525000D01*
X146922546Y-100525000D01*
X146983480Y-100531001D01*
X146983480Y-100531001D01*
G37*
G36*
X144183480Y-100531001D02*
X144239712Y-100548059D01*
X144291538Y-100575761D01*
X144336961Y-100613039D01*
X144374239Y-100658462D01*
X144401941Y-100710288D01*
X144418999Y-100766520D01*
X144425000Y-100827454D01*
X144425000Y-102372546D01*
X144418999Y-102433480D01*
X144401941Y-102489712D01*
X144374239Y-102541538D01*
X144336961Y-102586961D01*
X144291538Y-102624239D01*
X144239712Y-102651941D01*
X144183480Y-102668999D01*
X144122546Y-102675000D01*
X143077454Y-102675000D01*
X143016520Y-102668999D01*
X142960288Y-102651941D01*
X142908462Y-102624239D01*
X142863039Y-102586961D01*
X142825761Y-102541538D01*
X142798059Y-102489712D01*
X142781001Y-102433480D01*
X142775000Y-102372546D01*
X142775000Y-100827454D01*
X142781001Y-100766520D01*
X142798059Y-100710288D01*
X142825761Y-100658462D01*
X142863039Y-100613039D01*
X142908462Y-100575761D01*
X142960288Y-100548059D01*
X143016520Y-100531001D01*
X143077454Y-100525000D01*
X144122546Y-100525000D01*
X144183480Y-100531001D01*
X144183480Y-100531001D01*
G37*
G36*
X141838510Y-100958881D02*
X141893570Y-100975583D01*
X141944312Y-101002705D01*
X141988791Y-101039209D01*
X142025295Y-101083688D01*
X142052417Y-101134430D01*
X142069119Y-101189490D01*
X142075000Y-101249204D01*
X142075000Y-101931796D01*
X142069119Y-101991510D01*
X142052417Y-102046570D01*
X142025295Y-102097312D01*
X141988791Y-102141791D01*
X141944312Y-102178295D01*
X141893570Y-102205417D01*
X141838510Y-102222119D01*
X141778796Y-102228000D01*
X141021204Y-102228000D01*
X140961490Y-102222119D01*
X140906430Y-102205417D01*
X140855688Y-102178295D01*
X140811209Y-102141791D01*
X140774705Y-102097312D01*
X140747583Y-102046570D01*
X140730881Y-101991510D01*
X140725000Y-101931796D01*
X140725000Y-101249204D01*
X140730881Y-101189490D01*
X140747583Y-101134430D01*
X140774705Y-101083688D01*
X140811209Y-101039209D01*
X140855688Y-101002705D01*
X140906430Y-100975583D01*
X140961490Y-100958881D01*
X141021204Y-100953000D01*
X141778796Y-100953000D01*
X141838510Y-100958881D01*
X141838510Y-100958881D01*
G37*
G36*
X140138510Y-100958881D02*
X140193570Y-100975583D01*
X140244312Y-101002705D01*
X140288791Y-101039209D01*
X140325295Y-101083688D01*
X140352417Y-101134430D01*
X140369119Y-101189490D01*
X140375000Y-101249204D01*
X140375000Y-101931796D01*
X140369119Y-101991510D01*
X140352417Y-102046570D01*
X140325295Y-102097312D01*
X140288791Y-102141791D01*
X140244312Y-102178295D01*
X140193570Y-102205417D01*
X140138510Y-102222119D01*
X140078796Y-102228000D01*
X139321204Y-102228000D01*
X139261490Y-102222119D01*
X139206430Y-102205417D01*
X139155688Y-102178295D01*
X139111209Y-102141791D01*
X139074705Y-102097312D01*
X139047583Y-102046570D01*
X139030881Y-101991510D01*
X139025000Y-101931796D01*
X139025000Y-101249204D01*
X139030881Y-101189490D01*
X139047583Y-101134430D01*
X139074705Y-101083688D01*
X139111209Y-101039209D01*
X139155688Y-101002705D01*
X139206430Y-100975583D01*
X139261490Y-100958881D01*
X139321204Y-100953000D01*
X140078796Y-100953000D01*
X140138510Y-100958881D01*
X140138510Y-100958881D01*
G37*
G36*
X151768502Y-99201789D02*
X151968991Y-99262607D01*
X152153761Y-99361368D01*
X152172428Y-99376688D01*
X152315718Y-99494282D01*
X152426758Y-99629586D01*
X152448632Y-99656239D01*
X152547393Y-99841009D01*
X152608211Y-100041498D01*
X152628746Y-100250000D01*
X152608211Y-100458502D01*
X152547393Y-100658991D01*
X152448632Y-100843761D01*
X152439408Y-100855000D01*
X152315718Y-101005718D01*
X152200834Y-101100000D01*
X152153761Y-101138632D01*
X151968991Y-101237393D01*
X151768502Y-101298211D01*
X151612251Y-101313600D01*
X151507749Y-101313600D01*
X151351498Y-101298211D01*
X151151009Y-101237393D01*
X150966239Y-101138632D01*
X150919166Y-101100000D01*
X150804282Y-101005718D01*
X150680592Y-100855000D01*
X150671368Y-100843761D01*
X150572607Y-100658991D01*
X150511789Y-100458502D01*
X150491254Y-100250000D01*
X150511789Y-100041498D01*
X150572607Y-99841009D01*
X150671368Y-99656239D01*
X150693242Y-99629586D01*
X150804282Y-99494282D01*
X150947572Y-99376688D01*
X150966239Y-99361368D01*
X151151009Y-99262607D01*
X151351498Y-99201789D01*
X151507749Y-99186400D01*
X151612251Y-99186400D01*
X151768502Y-99201789D01*
X151768502Y-99201789D01*
G37*
G36*
X154308502Y-99201789D02*
X154508991Y-99262607D01*
X154693761Y-99361368D01*
X154712428Y-99376688D01*
X154855718Y-99494282D01*
X154966758Y-99629586D01*
X154988632Y-99656239D01*
X155087393Y-99841009D01*
X155148211Y-100041498D01*
X155168746Y-100250000D01*
X155148211Y-100458502D01*
X155087393Y-100658991D01*
X154988632Y-100843761D01*
X154979408Y-100855000D01*
X154855718Y-101005718D01*
X154740834Y-101100000D01*
X154693761Y-101138632D01*
X154508991Y-101237393D01*
X154308502Y-101298211D01*
X154152251Y-101313600D01*
X154047749Y-101313600D01*
X153891498Y-101298211D01*
X153691009Y-101237393D01*
X153506239Y-101138632D01*
X153459166Y-101100000D01*
X153344282Y-101005718D01*
X153220592Y-100855000D01*
X153211368Y-100843761D01*
X153112607Y-100658991D01*
X153051789Y-100458502D01*
X153031254Y-100250000D01*
X153051789Y-100041498D01*
X153112607Y-99841009D01*
X153211368Y-99656239D01*
X153233242Y-99629586D01*
X153344282Y-99494282D01*
X153487572Y-99376688D01*
X153506239Y-99361368D01*
X153691009Y-99262607D01*
X153891498Y-99201789D01*
X154047749Y-99186400D01*
X154152251Y-99186400D01*
X154308502Y-99201789D01*
X154308502Y-99201789D01*
G37*
G36*
X130541388Y-99106361D02*
X130601138Y-99124486D01*
X130656204Y-99153921D01*
X130704470Y-99193530D01*
X130744079Y-99241796D01*
X130773514Y-99296862D01*
X130791639Y-99356612D01*
X130798000Y-99421204D01*
X130798000Y-100578796D01*
X130791639Y-100643388D01*
X130773514Y-100703138D01*
X130744079Y-100758204D01*
X130704470Y-100806470D01*
X130656204Y-100846079D01*
X130601138Y-100875514D01*
X130541388Y-100893639D01*
X130476796Y-100900000D01*
X129744204Y-100900000D01*
X129679612Y-100893639D01*
X129619862Y-100875514D01*
X129564796Y-100846079D01*
X129516530Y-100806470D01*
X129476921Y-100758204D01*
X129447486Y-100703138D01*
X129429361Y-100643388D01*
X129423000Y-100578796D01*
X129423000Y-99421204D01*
X129429361Y-99356612D01*
X129447486Y-99296862D01*
X129476921Y-99241796D01*
X129516530Y-99193530D01*
X129564796Y-99153921D01*
X129619862Y-99124486D01*
X129679612Y-99106361D01*
X129744204Y-99100000D01*
X130476796Y-99100000D01*
X130541388Y-99106361D01*
X130541388Y-99106361D01*
G37*
G36*
X132416388Y-99106361D02*
X132476138Y-99124486D01*
X132531204Y-99153921D01*
X132579470Y-99193530D01*
X132619079Y-99241796D01*
X132648514Y-99296862D01*
X132666639Y-99356612D01*
X132673000Y-99421204D01*
X132673000Y-100578796D01*
X132666639Y-100643388D01*
X132648514Y-100703138D01*
X132619079Y-100758204D01*
X132579470Y-100806470D01*
X132531204Y-100846079D01*
X132476138Y-100875514D01*
X132416388Y-100893639D01*
X132351796Y-100900000D01*
X131619204Y-100900000D01*
X131554612Y-100893639D01*
X131494862Y-100875514D01*
X131439796Y-100846079D01*
X131391530Y-100806470D01*
X131351921Y-100758204D01*
X131322486Y-100703138D01*
X131304361Y-100643388D01*
X131298000Y-100578796D01*
X131298000Y-99421204D01*
X131304361Y-99356612D01*
X131322486Y-99296862D01*
X131351921Y-99241796D01*
X131391530Y-99193530D01*
X131439796Y-99153921D01*
X131494862Y-99124486D01*
X131554612Y-99106361D01*
X131619204Y-99100000D01*
X132351796Y-99100000D01*
X132416388Y-99106361D01*
X132416388Y-99106361D01*
G37*
G36*
X142028602Y-98955521D02*
X142080145Y-98971156D01*
X142127648Y-98996547D01*
X142169284Y-99030716D01*
X142203453Y-99072352D01*
X142228844Y-99119855D01*
X142244479Y-99171398D01*
X142250000Y-99227454D01*
X142250000Y-99972546D01*
X142244479Y-100028602D01*
X142228844Y-100080145D01*
X142203453Y-100127648D01*
X142169284Y-100169284D01*
X142127648Y-100203453D01*
X142080145Y-100228844D01*
X142028602Y-100244479D01*
X141972546Y-100250000D01*
X141327454Y-100250000D01*
X141271398Y-100244479D01*
X141219855Y-100228844D01*
X141172352Y-100203453D01*
X141130716Y-100169284D01*
X141096547Y-100127648D01*
X141071156Y-100080145D01*
X141055521Y-100028602D01*
X141050000Y-99972546D01*
X141050000Y-99227454D01*
X141055521Y-99171398D01*
X141071156Y-99119855D01*
X141096547Y-99072352D01*
X141130716Y-99030716D01*
X141172352Y-98996547D01*
X141219855Y-98971156D01*
X141271398Y-98955521D01*
X141327454Y-98950000D01*
X141972546Y-98950000D01*
X142028602Y-98955521D01*
X142028602Y-98955521D01*
G37*
G36*
X143928602Y-98955521D02*
X143980145Y-98971156D01*
X144027648Y-98996547D01*
X144069284Y-99030716D01*
X144103453Y-99072352D01*
X144128844Y-99119855D01*
X144144479Y-99171398D01*
X144150000Y-99227454D01*
X144150000Y-99972546D01*
X144144479Y-100028602D01*
X144128844Y-100080145D01*
X144103453Y-100127648D01*
X144069284Y-100169284D01*
X144027648Y-100203453D01*
X143980145Y-100228844D01*
X143928602Y-100244479D01*
X143872546Y-100250000D01*
X143227454Y-100250000D01*
X143171398Y-100244479D01*
X143119855Y-100228844D01*
X143072352Y-100203453D01*
X143030716Y-100169284D01*
X142996547Y-100127648D01*
X142971156Y-100080145D01*
X142955521Y-100028602D01*
X142950000Y-99972546D01*
X142950000Y-99227454D01*
X142955521Y-99171398D01*
X142971156Y-99119855D01*
X142996547Y-99072352D01*
X143030716Y-99030716D01*
X143072352Y-98996547D01*
X143119855Y-98971156D01*
X143171398Y-98955521D01*
X143227454Y-98950000D01*
X143872546Y-98950000D01*
X143928602Y-98955521D01*
X143928602Y-98955521D01*
G37*
G36*
X138545946Y-98596388D02*
X138576667Y-98605707D01*
X138604980Y-98620841D01*
X138629795Y-98641205D01*
X138650159Y-98666020D01*
X138665293Y-98694333D01*
X138674612Y-98725054D01*
X138678000Y-98759454D01*
X138678000Y-99334546D01*
X138674612Y-99368946D01*
X138665293Y-99399667D01*
X138650159Y-99427980D01*
X138629795Y-99452795D01*
X138604980Y-99473159D01*
X138576667Y-99488293D01*
X138545946Y-99497612D01*
X138511546Y-99501000D01*
X138088454Y-99501000D01*
X138054054Y-99497612D01*
X138023333Y-99488293D01*
X137995020Y-99473159D01*
X137970205Y-99452795D01*
X137949841Y-99427980D01*
X137934707Y-99399667D01*
X137925388Y-99368946D01*
X137922000Y-99334546D01*
X137922000Y-98759454D01*
X137925388Y-98725054D01*
X137934707Y-98694333D01*
X137949841Y-98666020D01*
X137970205Y-98641205D01*
X137995020Y-98620841D01*
X138023333Y-98605707D01*
X138054054Y-98596388D01*
X138088454Y-98593000D01*
X138511546Y-98593000D01*
X138545946Y-98596388D01*
X138545946Y-98596388D01*
G37*
G36*
X139545946Y-98596388D02*
X139576667Y-98605707D01*
X139604980Y-98620841D01*
X139629795Y-98641205D01*
X139650159Y-98666020D01*
X139665293Y-98694333D01*
X139674612Y-98725054D01*
X139678000Y-98759454D01*
X139678000Y-99334546D01*
X139674612Y-99368946D01*
X139665293Y-99399667D01*
X139650159Y-99427980D01*
X139629795Y-99452795D01*
X139604980Y-99473159D01*
X139576667Y-99488293D01*
X139545946Y-99497612D01*
X139511546Y-99501000D01*
X139088454Y-99501000D01*
X139054054Y-99497612D01*
X139023333Y-99488293D01*
X138995020Y-99473159D01*
X138970205Y-99452795D01*
X138949841Y-99427980D01*
X138934707Y-99399667D01*
X138925388Y-99368946D01*
X138922000Y-99334546D01*
X138922000Y-98759454D01*
X138925388Y-98725054D01*
X138934707Y-98694333D01*
X138949841Y-98666020D01*
X138970205Y-98641205D01*
X138995020Y-98620841D01*
X139023333Y-98605707D01*
X139054054Y-98596388D01*
X139088454Y-98593000D01*
X139511546Y-98593000D01*
X139545946Y-98596388D01*
X139545946Y-98596388D01*
G37*
G36*
X132432388Y-97106361D02*
X132492138Y-97124486D01*
X132547204Y-97153921D01*
X132595470Y-97193530D01*
X132635079Y-97241796D01*
X132664514Y-97296862D01*
X132682639Y-97356612D01*
X132689000Y-97421204D01*
X132689000Y-98578796D01*
X132682639Y-98643388D01*
X132664514Y-98703138D01*
X132635079Y-98758204D01*
X132595470Y-98806470D01*
X132547204Y-98846079D01*
X132492138Y-98875514D01*
X132432388Y-98893639D01*
X132367796Y-98900000D01*
X131635204Y-98900000D01*
X131570612Y-98893639D01*
X131510862Y-98875514D01*
X131455796Y-98846079D01*
X131407530Y-98806470D01*
X131367921Y-98758204D01*
X131338486Y-98703138D01*
X131320361Y-98643388D01*
X131314000Y-98578796D01*
X131314000Y-97421204D01*
X131320361Y-97356612D01*
X131338486Y-97296862D01*
X131367921Y-97241796D01*
X131407530Y-97193530D01*
X131455796Y-97153921D01*
X131510862Y-97124486D01*
X131570612Y-97106361D01*
X131635204Y-97100000D01*
X132367796Y-97100000D01*
X132432388Y-97106361D01*
X132432388Y-97106361D01*
G37*
G36*
X130557388Y-97106361D02*
X130617138Y-97124486D01*
X130672204Y-97153921D01*
X130720470Y-97193530D01*
X130760079Y-97241796D01*
X130789514Y-97296862D01*
X130807639Y-97356612D01*
X130814000Y-97421204D01*
X130814000Y-98578796D01*
X130807639Y-98643388D01*
X130789514Y-98703138D01*
X130760079Y-98758204D01*
X130720470Y-98806470D01*
X130672204Y-98846079D01*
X130617138Y-98875514D01*
X130557388Y-98893639D01*
X130492796Y-98900000D01*
X129760204Y-98900000D01*
X129695612Y-98893639D01*
X129635862Y-98875514D01*
X129580796Y-98846079D01*
X129532530Y-98806470D01*
X129492921Y-98758204D01*
X129463486Y-98703138D01*
X129445361Y-98643388D01*
X129439000Y-98578796D01*
X129439000Y-97421204D01*
X129445361Y-97356612D01*
X129463486Y-97296862D01*
X129492921Y-97241796D01*
X129532530Y-97193530D01*
X129580796Y-97153921D01*
X129635862Y-97124486D01*
X129695612Y-97106361D01*
X129760204Y-97100000D01*
X130492796Y-97100000D01*
X130557388Y-97106361D01*
X130557388Y-97106361D01*
G37*
G36*
X154308502Y-96661789D02*
X154508991Y-96722607D01*
X154693761Y-96821368D01*
X154693763Y-96821370D01*
X154855718Y-96954282D01*
X154952615Y-97072352D01*
X154988632Y-97116239D01*
X155087393Y-97301009D01*
X155148211Y-97501498D01*
X155168746Y-97710000D01*
X155148211Y-97918502D01*
X155087393Y-98118991D01*
X154988632Y-98303761D01*
X154988630Y-98303763D01*
X154855718Y-98465718D01*
X154720414Y-98576758D01*
X154693761Y-98598632D01*
X154508991Y-98697393D01*
X154308502Y-98758211D01*
X154152251Y-98773600D01*
X154047749Y-98773600D01*
X153891498Y-98758211D01*
X153691009Y-98697393D01*
X153506239Y-98598632D01*
X153479586Y-98576758D01*
X153344282Y-98465718D01*
X153211370Y-98303763D01*
X153211368Y-98303761D01*
X153112607Y-98118991D01*
X153051789Y-97918502D01*
X153031254Y-97710000D01*
X153051789Y-97501498D01*
X153112607Y-97301009D01*
X153211368Y-97116239D01*
X153247385Y-97072352D01*
X153344282Y-96954282D01*
X153506237Y-96821370D01*
X153506239Y-96821368D01*
X153691009Y-96722607D01*
X153891498Y-96661789D01*
X154047749Y-96646400D01*
X154152251Y-96646400D01*
X154308502Y-96661789D01*
X154308502Y-96661789D01*
G37*
G36*
X151768502Y-96661789D02*
X151968991Y-96722607D01*
X152153761Y-96821368D01*
X152153763Y-96821370D01*
X152315718Y-96954282D01*
X152412615Y-97072352D01*
X152448632Y-97116239D01*
X152547393Y-97301009D01*
X152608211Y-97501498D01*
X152628746Y-97710000D01*
X152608211Y-97918502D01*
X152547393Y-98118991D01*
X152448632Y-98303761D01*
X152448630Y-98303763D01*
X152315718Y-98465718D01*
X152180414Y-98576758D01*
X152153761Y-98598632D01*
X151968991Y-98697393D01*
X151768502Y-98758211D01*
X151612251Y-98773600D01*
X151507749Y-98773600D01*
X151351498Y-98758211D01*
X151151009Y-98697393D01*
X150966239Y-98598632D01*
X150939586Y-98576758D01*
X150804282Y-98465718D01*
X150671370Y-98303763D01*
X150671368Y-98303761D01*
X150572607Y-98118991D01*
X150511789Y-97918502D01*
X150491254Y-97710000D01*
X150511789Y-97501498D01*
X150572607Y-97301009D01*
X150671368Y-97116239D01*
X150707385Y-97072352D01*
X150804282Y-96954282D01*
X150966237Y-96821370D01*
X150966239Y-96821368D01*
X151151009Y-96722607D01*
X151351498Y-96661789D01*
X151507749Y-96646400D01*
X151612251Y-96646400D01*
X151768502Y-96661789D01*
X151768502Y-96661789D01*
G37*
G36*
X142978602Y-96955521D02*
X143030145Y-96971156D01*
X143077648Y-96996547D01*
X143119284Y-97030716D01*
X143153453Y-97072352D01*
X143178844Y-97119855D01*
X143194479Y-97171398D01*
X143200000Y-97227454D01*
X143200000Y-97972546D01*
X143194479Y-98028602D01*
X143178844Y-98080145D01*
X143153453Y-98127648D01*
X143119284Y-98169284D01*
X143077648Y-98203453D01*
X143030145Y-98228844D01*
X142978602Y-98244479D01*
X142922546Y-98250000D01*
X142277454Y-98250000D01*
X142221398Y-98244479D01*
X142169855Y-98228844D01*
X142122352Y-98203453D01*
X142080716Y-98169284D01*
X142046547Y-98127648D01*
X142021156Y-98080145D01*
X142005521Y-98028602D01*
X142000000Y-97972546D01*
X142000000Y-97227454D01*
X142005521Y-97171398D01*
X142021156Y-97119855D01*
X142046547Y-97072352D01*
X142080716Y-97030716D01*
X142122352Y-96996547D01*
X142169855Y-96971156D01*
X142221398Y-96955521D01*
X142277454Y-96950000D01*
X142922546Y-96950000D01*
X142978602Y-96955521D01*
X142978602Y-96955521D01*
G37*
G36*
X139045946Y-97301388D02*
X139076667Y-97310707D01*
X139104980Y-97325841D01*
X139129795Y-97346205D01*
X139150159Y-97371020D01*
X139165293Y-97399333D01*
X139174612Y-97430054D01*
X139178000Y-97464454D01*
X139178000Y-98039546D01*
X139174612Y-98073946D01*
X139165293Y-98104667D01*
X139150159Y-98132980D01*
X139129795Y-98157795D01*
X139104980Y-98178159D01*
X139076667Y-98193293D01*
X139045946Y-98202612D01*
X139011546Y-98206000D01*
X138588454Y-98206000D01*
X138554054Y-98202612D01*
X138523333Y-98193293D01*
X138495020Y-98178159D01*
X138470205Y-98157795D01*
X138449841Y-98132980D01*
X138434707Y-98104667D01*
X138425388Y-98073946D01*
X138422000Y-98039546D01*
X138422000Y-97464454D01*
X138425388Y-97430054D01*
X138434707Y-97399333D01*
X138449841Y-97371020D01*
X138470205Y-97346205D01*
X138495020Y-97325841D01*
X138523333Y-97310707D01*
X138554054Y-97301388D01*
X138588454Y-97298000D01*
X139011546Y-97298000D01*
X139045946Y-97301388D01*
X139045946Y-97301388D01*
G37*
G36*
X128454844Y-92938809D02*
X128625560Y-92990596D01*
X128699896Y-93013145D01*
X128782267Y-93057173D01*
X128925734Y-93133858D01*
X128925736Y-93133860D01*
X129123687Y-93296313D01*
X129259406Y-93461689D01*
X129286142Y-93494266D01*
X129362827Y-93637733D01*
X129406855Y-93720104D01*
X129406855Y-93720105D01*
X129481191Y-93965156D01*
X129506290Y-94220000D01*
X129481191Y-94474844D01*
X129429404Y-94645560D01*
X129406855Y-94719896D01*
X129362827Y-94802267D01*
X129286142Y-94945734D01*
X129286140Y-94945736D01*
X129123687Y-95143687D01*
X128958311Y-95279406D01*
X128925734Y-95306142D01*
X128782267Y-95382827D01*
X128699896Y-95426855D01*
X128625560Y-95449404D01*
X128454844Y-95501191D01*
X128263867Y-95520000D01*
X128136133Y-95520000D01*
X127945156Y-95501191D01*
X127774440Y-95449404D01*
X127700104Y-95426855D01*
X127617733Y-95382827D01*
X127474266Y-95306142D01*
X127441689Y-95279406D01*
X127276313Y-95143687D01*
X127113860Y-94945736D01*
X127113858Y-94945734D01*
X127037173Y-94802267D01*
X126993145Y-94719896D01*
X126970596Y-94645560D01*
X126918809Y-94474844D01*
X126893710Y-94220000D01*
X126918809Y-93965156D01*
X126993145Y-93720105D01*
X126993145Y-93720104D01*
X127037173Y-93637733D01*
X127113858Y-93494266D01*
X127140594Y-93461689D01*
X127276313Y-93296313D01*
X127474264Y-93133860D01*
X127474266Y-93133858D01*
X127617733Y-93057173D01*
X127700104Y-93013145D01*
X127774440Y-92990596D01*
X127945156Y-92938809D01*
X128136133Y-92920000D01*
X128263867Y-92920000D01*
X128454844Y-92938809D01*
X128454844Y-92938809D01*
G37*
G36*
X125154844Y-92938809D02*
X125325560Y-92990596D01*
X125399896Y-93013145D01*
X125482267Y-93057173D01*
X125625734Y-93133858D01*
X125625736Y-93133860D01*
X125823687Y-93296313D01*
X125959406Y-93461689D01*
X125986142Y-93494266D01*
X126062827Y-93637733D01*
X126106855Y-93720104D01*
X126106855Y-93720105D01*
X126181191Y-93965156D01*
X126206290Y-94220000D01*
X126181191Y-94474844D01*
X126129404Y-94645560D01*
X126106855Y-94719896D01*
X126062827Y-94802267D01*
X125986142Y-94945734D01*
X125986140Y-94945736D01*
X125823687Y-95143687D01*
X125658311Y-95279406D01*
X125625734Y-95306142D01*
X125482267Y-95382827D01*
X125399896Y-95426855D01*
X125325560Y-95449404D01*
X125154844Y-95501191D01*
X124963867Y-95520000D01*
X124836133Y-95520000D01*
X124645156Y-95501191D01*
X124474440Y-95449404D01*
X124400104Y-95426855D01*
X124317733Y-95382827D01*
X124174266Y-95306142D01*
X124141689Y-95279406D01*
X123976313Y-95143687D01*
X123813860Y-94945736D01*
X123813858Y-94945734D01*
X123737173Y-94802267D01*
X123693145Y-94719896D01*
X123670596Y-94645560D01*
X123618809Y-94474844D01*
X123593710Y-94220000D01*
X123618809Y-93965156D01*
X123693145Y-93720105D01*
X123693145Y-93720104D01*
X123737173Y-93637733D01*
X123813858Y-93494266D01*
X123840594Y-93461689D01*
X123976313Y-93296313D01*
X124174264Y-93133860D01*
X124174266Y-93133858D01*
X124317733Y-93057173D01*
X124400104Y-93013145D01*
X124474440Y-92990596D01*
X124645156Y-92938809D01*
X124836133Y-92920000D01*
X124963867Y-92920000D01*
X125154844Y-92938809D01*
X125154844Y-92938809D01*
G37*
G36*
X145775000Y-93200000D02*
X133625000Y-93200000D01*
X133625000Y-91300000D01*
X145775000Y-91300000D01*
X145775000Y-93200000D01*
X145775000Y-93200000D01*
G37*
G36*
X132987743Y-87208883D02*
X133072115Y-87234477D01*
X133149873Y-87276040D01*
X133218027Y-87331973D01*
X133273960Y-87400127D01*
X133315523Y-87477885D01*
X133341117Y-87562257D01*
X133350000Y-87652454D01*
X133350000Y-88647546D01*
X133341117Y-88737743D01*
X133315523Y-88822115D01*
X133273960Y-88899873D01*
X133218027Y-88968027D01*
X133149873Y-89023960D01*
X133072115Y-89065523D01*
X132987743Y-89091117D01*
X132897546Y-89100000D01*
X130902454Y-89100000D01*
X130812257Y-89091117D01*
X130727885Y-89065523D01*
X130650127Y-89023960D01*
X130581973Y-88968027D01*
X130526040Y-88899873D01*
X130484477Y-88822115D01*
X130458883Y-88737743D01*
X130450000Y-88647546D01*
X130450000Y-87652454D01*
X130458883Y-87562257D01*
X130484477Y-87477885D01*
X130526040Y-87400127D01*
X130581973Y-87331973D01*
X130650127Y-87276040D01*
X130727885Y-87234477D01*
X130812257Y-87208883D01*
X130902454Y-87200000D01*
X132897546Y-87200000D01*
X132987743Y-87208883D01*
X132987743Y-87208883D01*
G37*
G36*
X148587743Y-87208883D02*
X148672115Y-87234477D01*
X148749873Y-87276040D01*
X148818027Y-87331973D01*
X148873960Y-87400127D01*
X148915523Y-87477885D01*
X148941117Y-87562257D01*
X148950000Y-87652454D01*
X148950000Y-88647546D01*
X148941117Y-88737743D01*
X148915523Y-88822115D01*
X148873960Y-88899873D01*
X148818027Y-88968027D01*
X148749873Y-89023960D01*
X148672115Y-89065523D01*
X148587743Y-89091117D01*
X148497546Y-89100000D01*
X146502454Y-89100000D01*
X146412257Y-89091117D01*
X146327885Y-89065523D01*
X146250127Y-89023960D01*
X146181973Y-88968027D01*
X146126040Y-88899873D01*
X146084477Y-88822115D01*
X146058883Y-88737743D01*
X146050000Y-88647546D01*
X146050000Y-87652454D01*
X146058883Y-87562257D01*
X146084477Y-87477885D01*
X146126040Y-87400127D01*
X146181973Y-87331973D01*
X146250127Y-87276040D01*
X146327885Y-87234477D01*
X146412257Y-87208883D01*
X146502454Y-87200000D01*
X148497546Y-87200000D01*
X148587743Y-87208883D01*
X148587743Y-87208883D01*
G37*
G36*
X154127339Y-86858829D02*
X154249785Y-86895973D01*
X154362632Y-86956291D01*
X154461545Y-87037465D01*
X154542719Y-87136377D01*
X154603037Y-87249224D01*
X154640181Y-87371670D01*
X154649580Y-87467099D01*
X154649580Y-88132901D01*
X154640181Y-88228330D01*
X154603037Y-88350776D01*
X154542719Y-88463623D01*
X154461545Y-88562535D01*
X154362633Y-88643709D01*
X154249786Y-88704027D01*
X154127340Y-88741171D01*
X154000000Y-88753713D01*
X153872661Y-88741171D01*
X153750215Y-88704027D01*
X153637368Y-88643709D01*
X153538456Y-88562535D01*
X153457282Y-88463623D01*
X153409094Y-88373471D01*
X153403650Y-88365324D01*
X153396719Y-88358393D01*
X153388569Y-88352948D01*
X153379514Y-88349197D01*
X153369900Y-88347285D01*
X153360099Y-88347285D01*
X153350485Y-88349197D01*
X153341430Y-88352948D01*
X153333280Y-88358394D01*
X153326349Y-88365325D01*
X153320907Y-88373469D01*
X153272719Y-88463623D01*
X153191545Y-88562535D01*
X153092633Y-88643709D01*
X152979786Y-88704027D01*
X152857340Y-88741171D01*
X152730000Y-88753713D01*
X152602661Y-88741171D01*
X152480215Y-88704027D01*
X152367368Y-88643709D01*
X152268456Y-88562535D01*
X152187282Y-88463623D01*
X152139094Y-88373471D01*
X152133650Y-88365324D01*
X152126719Y-88358393D01*
X152118569Y-88352948D01*
X152109514Y-88349197D01*
X152099900Y-88347285D01*
X152090099Y-88347285D01*
X152080485Y-88349197D01*
X152071430Y-88352948D01*
X152063280Y-88358394D01*
X152056349Y-88365325D01*
X152050907Y-88373469D01*
X152002719Y-88463623D01*
X151921545Y-88562535D01*
X151822633Y-88643709D01*
X151709786Y-88704027D01*
X151587340Y-88741171D01*
X151460000Y-88753713D01*
X151332661Y-88741171D01*
X151210215Y-88704027D01*
X151097368Y-88643709D01*
X150998456Y-88562535D01*
X150917282Y-88463623D01*
X150856963Y-88350776D01*
X150819819Y-88228330D01*
X150810420Y-88132901D01*
X150810420Y-87467100D01*
X150819819Y-87371671D01*
X150856963Y-87249225D01*
X150917281Y-87136378D01*
X150998455Y-87037465D01*
X151097367Y-86956291D01*
X151210214Y-86895973D01*
X151332660Y-86858829D01*
X151460000Y-86846287D01*
X151587339Y-86858829D01*
X151709785Y-86895973D01*
X151822632Y-86956291D01*
X151921545Y-87037465D01*
X152002719Y-87136377D01*
X152050907Y-87226531D01*
X152056349Y-87234676D01*
X152063280Y-87241607D01*
X152071430Y-87247052D01*
X152080486Y-87250803D01*
X152090099Y-87252715D01*
X152099901Y-87252715D01*
X152109514Y-87250803D01*
X152118570Y-87247052D01*
X152126720Y-87241607D01*
X152133651Y-87234676D01*
X152139096Y-87226526D01*
X152148396Y-87209127D01*
X152187281Y-87136378D01*
X152268455Y-87037465D01*
X152367367Y-86956291D01*
X152480214Y-86895973D01*
X152602660Y-86858829D01*
X152730000Y-86846287D01*
X152857339Y-86858829D01*
X152979785Y-86895973D01*
X153092632Y-86956291D01*
X153191545Y-87037465D01*
X153272719Y-87136377D01*
X153320907Y-87226531D01*
X153326349Y-87234676D01*
X153333280Y-87241607D01*
X153341430Y-87247052D01*
X153350486Y-87250803D01*
X153360099Y-87252715D01*
X153369901Y-87252715D01*
X153379514Y-87250803D01*
X153388570Y-87247052D01*
X153396720Y-87241607D01*
X153403651Y-87234676D01*
X153409096Y-87226526D01*
X153418396Y-87209127D01*
X153457281Y-87136378D01*
X153538455Y-87037465D01*
X153637367Y-86956291D01*
X153750214Y-86895973D01*
X153872660Y-86858829D01*
X154000000Y-86846287D01*
X154127339Y-86858829D01*
X154127339Y-86858829D01*
G37*
G36*
X126200000Y-87900000D02*
X123600000Y-87900000D01*
X123600000Y-85300000D01*
X126200000Y-85300000D01*
X126200000Y-87900000D01*
X126200000Y-87900000D01*
G37*
G36*
X129500000Y-87900000D02*
X126900000Y-87900000D01*
X126900000Y-85300000D01*
X129500000Y-85300000D01*
X129500000Y-87900000D01*
X129500000Y-87900000D01*
G37*
G36*
X154025496Y-77861487D02*
X154180054Y-77892230D01*
X154616826Y-78073147D01*
X154805771Y-78199396D01*
X155009913Y-78335799D01*
X155344201Y-78670087D01*
X155412799Y-78772751D01*
X155606853Y-79063174D01*
X155787770Y-79499946D01*
X155800141Y-79562138D01*
X155880000Y-79963619D01*
X155880000Y-80436381D01*
X155842041Y-80627213D01*
X155787770Y-80900054D01*
X155606853Y-81336826D01*
X155498227Y-81499396D01*
X155344201Y-81729913D01*
X155009913Y-82064201D01*
X154940587Y-82110523D01*
X154616826Y-82326853D01*
X154180054Y-82507770D01*
X154025496Y-82538513D01*
X153716381Y-82600000D01*
X153243619Y-82600000D01*
X152934504Y-82538513D01*
X152779946Y-82507770D01*
X152343174Y-82326853D01*
X152019413Y-82110523D01*
X151950087Y-82064201D01*
X151615799Y-81729913D01*
X151461773Y-81499396D01*
X151353147Y-81336826D01*
X151172230Y-80900054D01*
X151117959Y-80627213D01*
X151080000Y-80436381D01*
X151080000Y-79963619D01*
X151159859Y-79562138D01*
X151172230Y-79499946D01*
X151353147Y-79063174D01*
X151547201Y-78772751D01*
X151615799Y-78670087D01*
X151950087Y-78335799D01*
X152154229Y-78199396D01*
X152343174Y-78073147D01*
X152779946Y-77892230D01*
X152934504Y-77861487D01*
X153243619Y-77800000D01*
X153716381Y-77800000D01*
X154025496Y-77861487D01*
X154025496Y-77861487D01*
G37*
G36*
X126465496Y-77861487D02*
X126620054Y-77892230D01*
X127056826Y-78073147D01*
X127245771Y-78199396D01*
X127449913Y-78335799D01*
X127784201Y-78670087D01*
X127852799Y-78772751D01*
X128046853Y-79063174D01*
X128227770Y-79499946D01*
X128240141Y-79562138D01*
X128320000Y-79963619D01*
X128320000Y-80436381D01*
X128282041Y-80627213D01*
X128227770Y-80900054D01*
X128046853Y-81336826D01*
X127938227Y-81499396D01*
X127784201Y-81729913D01*
X127449913Y-82064201D01*
X127380587Y-82110523D01*
X127056826Y-82326853D01*
X126620054Y-82507770D01*
X126465496Y-82538513D01*
X126156381Y-82600000D01*
X125683619Y-82600000D01*
X125374504Y-82538513D01*
X125219946Y-82507770D01*
X124783174Y-82326853D01*
X124459413Y-82110523D01*
X124390087Y-82064201D01*
X124055799Y-81729913D01*
X123901773Y-81499396D01*
X123793147Y-81336826D01*
X123612230Y-80900054D01*
X123557959Y-80627213D01*
X123520000Y-80436381D01*
X123520000Y-79963619D01*
X123599859Y-79562138D01*
X123612230Y-79499946D01*
X123793147Y-79063174D01*
X123987201Y-78772751D01*
X124055799Y-78670087D01*
X124390087Y-78335799D01*
X124594229Y-78199396D01*
X124783174Y-78073147D01*
X125219946Y-77892230D01*
X125374504Y-77861487D01*
X125683619Y-77800000D01*
X126156381Y-77800000D01*
X126465496Y-77861487D01*
X126465496Y-77861487D01*
G37*
M02*
