G04 #@! TF.GenerationSoftware,KiCad,Pcbnew,5.0.2*
G04 #@! TF.CreationDate,2019-02-05T18:00:36+01:00*
G04 #@! TF.ProjectId,xling,786c696e-672e-46b6-9963-61645f706362,0.2.5*
G04 #@! TF.SameCoordinates,Original*
G04 #@! TF.FileFunction,Soldermask,Bot*
G04 #@! TF.FilePolarity,Negative*
%FSLAX46Y46*%
G04 Gerber Fmt 4.6, Leading zero omitted, Abs format (unit mm)*
G04 Created by KiCad (PCBNEW 5.0.2) date Tue Feb  5 18:00:36 2019*
%MOMM*%
%LPD*%
G01*
G04 APERTURE LIST*
%ADD10C,0.010000*%
%ADD11C,0.100000*%
G04 APERTURE END LIST*
D10*
G04 #@! TO.C,G\002A\002A\002A*
G36*
X148414274Y-90004226D02*
X148336714Y-90004644D01*
X148265840Y-90005289D01*
X148203326Y-90006134D01*
X148150848Y-90007150D01*
X148110079Y-90008311D01*
X148082693Y-90009588D01*
X148070365Y-90010954D01*
X148069977Y-90011122D01*
X148065641Y-90021166D01*
X148058750Y-90046743D01*
X148049556Y-90086686D01*
X148038308Y-90139828D01*
X148025255Y-90205003D01*
X148010646Y-90281043D01*
X147999820Y-90339076D01*
X147986402Y-90411234D01*
X147973670Y-90478641D01*
X147962002Y-90539366D01*
X147951779Y-90591478D01*
X147943380Y-90633047D01*
X147937185Y-90662142D01*
X147933572Y-90676832D01*
X147933244Y-90677752D01*
X147925906Y-90685898D01*
X147908800Y-90696827D01*
X147880585Y-90711192D01*
X147839925Y-90729646D01*
X147785480Y-90752844D01*
X147746247Y-90769063D01*
X147688691Y-90792602D01*
X147644664Y-90810313D01*
X147612041Y-90822819D01*
X147588695Y-90830746D01*
X147572501Y-90834718D01*
X147561331Y-90835359D01*
X147553061Y-90833293D01*
X147545564Y-90829146D01*
X147544346Y-90828364D01*
X147532069Y-90820160D01*
X147507699Y-90803638D01*
X147473098Y-90780068D01*
X147430130Y-90750722D01*
X147380657Y-90716872D01*
X147326541Y-90679789D01*
X147295852Y-90658737D01*
X147069604Y-90503467D01*
X146870053Y-90503467D01*
X146635160Y-90738472D01*
X146400267Y-90973478D01*
X146400267Y-91173319D01*
X146566399Y-91414812D01*
X146732531Y-91656306D01*
X146653182Y-91842667D01*
X146629628Y-91896906D01*
X146607757Y-91945220D01*
X146588606Y-91985469D01*
X146573210Y-92015515D01*
X146562604Y-92033219D01*
X146559149Y-92036941D01*
X146547732Y-92040236D01*
X146521586Y-92046186D01*
X146482639Y-92054402D01*
X146432820Y-92064493D01*
X146374055Y-92076069D01*
X146308274Y-92088741D01*
X146237405Y-92102119D01*
X146229651Y-92103567D01*
X146148423Y-92118968D01*
X146076911Y-92133036D01*
X146016349Y-92145504D01*
X145967969Y-92156106D01*
X145933005Y-92164573D01*
X145912691Y-92170641D01*
X145907915Y-92173190D01*
X145906542Y-92183594D01*
X145905254Y-92209258D01*
X145904079Y-92248506D01*
X145903045Y-92299665D01*
X145902179Y-92361060D01*
X145901509Y-92431017D01*
X145901063Y-92507862D01*
X145900868Y-92589920D01*
X145900863Y-92600046D01*
X145900899Y-92696927D01*
X145901096Y-92778203D01*
X145901491Y-92845204D01*
X145902122Y-92899257D01*
X145903024Y-92941692D01*
X145904235Y-92973836D01*
X145905792Y-92997019D01*
X145907731Y-93012568D01*
X145910090Y-93021813D01*
X145912674Y-93025903D01*
X145923507Y-93029666D01*
X145949062Y-93035999D01*
X145987391Y-93044497D01*
X146036547Y-93054751D01*
X146094582Y-93066356D01*
X146159549Y-93078905D01*
X146228057Y-93091727D01*
X146304533Y-93106079D01*
X146373302Y-93119501D01*
X146432778Y-93131653D01*
X146481377Y-93142194D01*
X146517514Y-93150785D01*
X146539603Y-93157086D01*
X146545746Y-93159849D01*
X146552317Y-93170398D01*
X146563752Y-93193830D01*
X146578991Y-93227554D01*
X146596971Y-93268976D01*
X146616632Y-93315505D01*
X146636912Y-93364549D01*
X146656749Y-93413515D01*
X146675083Y-93459812D01*
X146690851Y-93500847D01*
X146702992Y-93534029D01*
X146710445Y-93556765D01*
X146712206Y-93566353D01*
X146706875Y-93574781D01*
X146693113Y-93595452D01*
X146672079Y-93626656D01*
X146644933Y-93666680D01*
X146612834Y-93713814D01*
X146576942Y-93766346D01*
X146554783Y-93798701D01*
X146400267Y-94024128D01*
X146400267Y-94224970D01*
X146635565Y-94459718D01*
X146870864Y-94694467D01*
X147066633Y-94694467D01*
X147288749Y-94541780D01*
X147510866Y-94389094D01*
X147581769Y-94427744D01*
X147652673Y-94466393D01*
X147756205Y-94464013D01*
X147859738Y-94461633D01*
X148312814Y-93369433D01*
X148313274Y-93283342D01*
X148312982Y-93245632D01*
X148311827Y-93213419D01*
X148310011Y-93191033D01*
X148308594Y-93183859D01*
X148299860Y-93173792D01*
X148280155Y-93156828D01*
X148252572Y-93135498D01*
X148226044Y-93116382D01*
X148156148Y-93064945D01*
X148099107Y-93016481D01*
X148052024Y-92967756D01*
X148011997Y-92915538D01*
X147976127Y-92856595D01*
X147953192Y-92812169D01*
X147919301Y-92732439D01*
X147899612Y-92660607D01*
X147893912Y-92595684D01*
X147898023Y-92554410D01*
X147924802Y-92454920D01*
X147966872Y-92360801D01*
X148023020Y-92273629D01*
X148092036Y-92194980D01*
X148172706Y-92126427D01*
X148263820Y-92069549D01*
X148275633Y-92063464D01*
X148338775Y-92035667D01*
X148402088Y-92015087D01*
X148460706Y-92003115D01*
X148495767Y-92000599D01*
X148562090Y-92007742D01*
X148633613Y-92028081D01*
X148707369Y-92059975D01*
X148780390Y-92101787D01*
X148849709Y-92151877D01*
X148912358Y-92208607D01*
X148951252Y-92252129D01*
X148988601Y-92305386D01*
X149024421Y-92369372D01*
X149055707Y-92437944D01*
X149079456Y-92504962D01*
X149085203Y-92525993D01*
X149094147Y-92570186D01*
X149096883Y-92610463D01*
X149092904Y-92651252D01*
X149081701Y-92696983D01*
X149062766Y-92752087D01*
X149057749Y-92765289D01*
X149013780Y-92858197D01*
X148955989Y-92943539D01*
X148883702Y-93022095D01*
X148796242Y-93094644D01*
X148737067Y-93135064D01*
X148712044Y-93151791D01*
X148692855Y-93166019D01*
X148684280Y-93173972D01*
X148681745Y-93185769D01*
X148679683Y-93210620D01*
X148678334Y-93244645D01*
X148677930Y-93276421D01*
X148677800Y-93369675D01*
X148897680Y-93900920D01*
X148935028Y-93991084D01*
X148970640Y-94076921D01*
X149003963Y-94157102D01*
X149034442Y-94230304D01*
X149061525Y-94295199D01*
X149084657Y-94350462D01*
X149103284Y-94394767D01*
X149116853Y-94426789D01*
X149124810Y-94445200D01*
X149126577Y-94449015D01*
X149131817Y-94456217D01*
X149140434Y-94461025D01*
X149155518Y-94463914D01*
X149180158Y-94465360D01*
X149217443Y-94465839D01*
X149235942Y-94465867D01*
X149336289Y-94465867D01*
X149407836Y-94427805D01*
X149479384Y-94389744D01*
X149618342Y-94485425D01*
X149668188Y-94519695D01*
X149719999Y-94555224D01*
X149769621Y-94589171D01*
X149812903Y-94618695D01*
X149841008Y-94637786D01*
X149924717Y-94694467D01*
X150121030Y-94694467D01*
X150356148Y-94459348D01*
X150591267Y-94224229D01*
X150591267Y-94125865D01*
X150591107Y-94083567D01*
X150590079Y-94054111D01*
X150587359Y-94033405D01*
X150582122Y-94017358D01*
X150573545Y-94001878D01*
X150563165Y-93986333D01*
X150550757Y-93968180D01*
X150530402Y-93938427D01*
X150503725Y-93899446D01*
X150472347Y-93853608D01*
X150437892Y-93803285D01*
X150406531Y-93757489D01*
X150372437Y-93707301D01*
X150341740Y-93661337D01*
X150315692Y-93621536D01*
X150295548Y-93589838D01*
X150282560Y-93568182D01*
X150277981Y-93558523D01*
X150281014Y-93547807D01*
X150289548Y-93523683D01*
X150302719Y-93488435D01*
X150319664Y-93444348D01*
X150339519Y-93393704D01*
X150355358Y-93353899D01*
X150381676Y-93288964D01*
X150402912Y-93238523D01*
X150419743Y-93201146D01*
X150432847Y-93175403D01*
X150442903Y-93159864D01*
X150450589Y-93153100D01*
X150450627Y-93153083D01*
X150462883Y-93149856D01*
X150489791Y-93144007D01*
X150529340Y-93135932D01*
X150579518Y-93126030D01*
X150638317Y-93114696D01*
X150703724Y-93102329D01*
X150768132Y-93090357D01*
X150837532Y-93077361D01*
X150901884Y-93064924D01*
X150959232Y-93053456D01*
X151007617Y-93043363D01*
X151045082Y-93035053D01*
X151069669Y-93028935D01*
X151079282Y-93025553D01*
X151081974Y-93020682D01*
X151084232Y-93010059D01*
X151086089Y-92992398D01*
X151087580Y-92966410D01*
X151088741Y-92930807D01*
X151089605Y-92884300D01*
X151090208Y-92825603D01*
X151090584Y-92753426D01*
X151090767Y-92666482D01*
X151090800Y-92598125D01*
X151090800Y-92180257D01*
X151071750Y-92168504D01*
X151059271Y-92164334D01*
X151032105Y-92157620D01*
X150992240Y-92148778D01*
X150941663Y-92138220D01*
X150882360Y-92126363D01*
X150816318Y-92113619D01*
X150745523Y-92100405D01*
X150743667Y-92100064D01*
X150673216Y-92086922D01*
X150607845Y-92074309D01*
X150549473Y-92062626D01*
X150500015Y-92052275D01*
X150461388Y-92043658D01*
X150435509Y-92037176D01*
X150424296Y-92033230D01*
X150424160Y-92033113D01*
X150418112Y-92022839D01*
X150406753Y-91999706D01*
X150391270Y-91966436D01*
X150372853Y-91925752D01*
X150352690Y-91880376D01*
X150331968Y-91833031D01*
X150311876Y-91786438D01*
X150293602Y-91743320D01*
X150278335Y-91706400D01*
X150267261Y-91678400D01*
X150261571Y-91662041D01*
X150261067Y-91659433D01*
X150265705Y-91650543D01*
X150278885Y-91629402D01*
X150299502Y-91597676D01*
X150326453Y-91557031D01*
X150358636Y-91509135D01*
X150394946Y-91455653D01*
X150426167Y-91410049D01*
X150591267Y-91169763D01*
X150591267Y-90974064D01*
X150356519Y-90738765D01*
X150121770Y-90503467D01*
X149920790Y-90503467D01*
X149707812Y-90649150D01*
X149652781Y-90686814D01*
X149600699Y-90722498D01*
X149553649Y-90754773D01*
X149513714Y-90782208D01*
X149482977Y-90803374D01*
X149463520Y-90816841D01*
X149460227Y-90819143D01*
X149425620Y-90843452D01*
X149265493Y-90778313D01*
X149203585Y-90753060D01*
X149155550Y-90733202D01*
X149119549Y-90717823D01*
X149093742Y-90706006D01*
X149076290Y-90696836D01*
X149065352Y-90689398D01*
X149059089Y-90682774D01*
X149055661Y-90676050D01*
X149054758Y-90673401D01*
X149052066Y-90661561D01*
X149046678Y-90635010D01*
X149038966Y-90595692D01*
X149029305Y-90545549D01*
X149018070Y-90486523D01*
X149005633Y-90420559D01*
X148992369Y-90349597D01*
X148991008Y-90342281D01*
X148977580Y-90271136D01*
X148964719Y-90204999D01*
X148952826Y-90145777D01*
X148942300Y-90095380D01*
X148933540Y-90055714D01*
X148926945Y-90028687D01*
X148922915Y-90016207D01*
X148922647Y-90015805D01*
X148918006Y-90013040D01*
X148908189Y-90010726D01*
X148891870Y-90008826D01*
X148867727Y-90007304D01*
X148834437Y-90006123D01*
X148790676Y-90005248D01*
X148735120Y-90004641D01*
X148666448Y-90004267D01*
X148583334Y-90004088D01*
X148496847Y-90004063D01*
X148414274Y-90004226D01*
X148414274Y-90004226D01*
G37*
X148414274Y-90004226D02*
X148336714Y-90004644D01*
X148265840Y-90005289D01*
X148203326Y-90006134D01*
X148150848Y-90007150D01*
X148110079Y-90008311D01*
X148082693Y-90009588D01*
X148070365Y-90010954D01*
X148069977Y-90011122D01*
X148065641Y-90021166D01*
X148058750Y-90046743D01*
X148049556Y-90086686D01*
X148038308Y-90139828D01*
X148025255Y-90205003D01*
X148010646Y-90281043D01*
X147999820Y-90339076D01*
X147986402Y-90411234D01*
X147973670Y-90478641D01*
X147962002Y-90539366D01*
X147951779Y-90591478D01*
X147943380Y-90633047D01*
X147937185Y-90662142D01*
X147933572Y-90676832D01*
X147933244Y-90677752D01*
X147925906Y-90685898D01*
X147908800Y-90696827D01*
X147880585Y-90711192D01*
X147839925Y-90729646D01*
X147785480Y-90752844D01*
X147746247Y-90769063D01*
X147688691Y-90792602D01*
X147644664Y-90810313D01*
X147612041Y-90822819D01*
X147588695Y-90830746D01*
X147572501Y-90834718D01*
X147561331Y-90835359D01*
X147553061Y-90833293D01*
X147545564Y-90829146D01*
X147544346Y-90828364D01*
X147532069Y-90820160D01*
X147507699Y-90803638D01*
X147473098Y-90780068D01*
X147430130Y-90750722D01*
X147380657Y-90716872D01*
X147326541Y-90679789D01*
X147295852Y-90658737D01*
X147069604Y-90503467D01*
X146870053Y-90503467D01*
X146635160Y-90738472D01*
X146400267Y-90973478D01*
X146400267Y-91173319D01*
X146566399Y-91414812D01*
X146732531Y-91656306D01*
X146653182Y-91842667D01*
X146629628Y-91896906D01*
X146607757Y-91945220D01*
X146588606Y-91985469D01*
X146573210Y-92015515D01*
X146562604Y-92033219D01*
X146559149Y-92036941D01*
X146547732Y-92040236D01*
X146521586Y-92046186D01*
X146482639Y-92054402D01*
X146432820Y-92064493D01*
X146374055Y-92076069D01*
X146308274Y-92088741D01*
X146237405Y-92102119D01*
X146229651Y-92103567D01*
X146148423Y-92118968D01*
X146076911Y-92133036D01*
X146016349Y-92145504D01*
X145967969Y-92156106D01*
X145933005Y-92164573D01*
X145912691Y-92170641D01*
X145907915Y-92173190D01*
X145906542Y-92183594D01*
X145905254Y-92209258D01*
X145904079Y-92248506D01*
X145903045Y-92299665D01*
X145902179Y-92361060D01*
X145901509Y-92431017D01*
X145901063Y-92507862D01*
X145900868Y-92589920D01*
X145900863Y-92600046D01*
X145900899Y-92696927D01*
X145901096Y-92778203D01*
X145901491Y-92845204D01*
X145902122Y-92899257D01*
X145903024Y-92941692D01*
X145904235Y-92973836D01*
X145905792Y-92997019D01*
X145907731Y-93012568D01*
X145910090Y-93021813D01*
X145912674Y-93025903D01*
X145923507Y-93029666D01*
X145949062Y-93035999D01*
X145987391Y-93044497D01*
X146036547Y-93054751D01*
X146094582Y-93066356D01*
X146159549Y-93078905D01*
X146228057Y-93091727D01*
X146304533Y-93106079D01*
X146373302Y-93119501D01*
X146432778Y-93131653D01*
X146481377Y-93142194D01*
X146517514Y-93150785D01*
X146539603Y-93157086D01*
X146545746Y-93159849D01*
X146552317Y-93170398D01*
X146563752Y-93193830D01*
X146578991Y-93227554D01*
X146596971Y-93268976D01*
X146616632Y-93315505D01*
X146636912Y-93364549D01*
X146656749Y-93413515D01*
X146675083Y-93459812D01*
X146690851Y-93500847D01*
X146702992Y-93534029D01*
X146710445Y-93556765D01*
X146712206Y-93566353D01*
X146706875Y-93574781D01*
X146693113Y-93595452D01*
X146672079Y-93626656D01*
X146644933Y-93666680D01*
X146612834Y-93713814D01*
X146576942Y-93766346D01*
X146554783Y-93798701D01*
X146400267Y-94024128D01*
X146400267Y-94224970D01*
X146635565Y-94459718D01*
X146870864Y-94694467D01*
X147066633Y-94694467D01*
X147288749Y-94541780D01*
X147510866Y-94389094D01*
X147581769Y-94427744D01*
X147652673Y-94466393D01*
X147756205Y-94464013D01*
X147859738Y-94461633D01*
X148312814Y-93369433D01*
X148313274Y-93283342D01*
X148312982Y-93245632D01*
X148311827Y-93213419D01*
X148310011Y-93191033D01*
X148308594Y-93183859D01*
X148299860Y-93173792D01*
X148280155Y-93156828D01*
X148252572Y-93135498D01*
X148226044Y-93116382D01*
X148156148Y-93064945D01*
X148099107Y-93016481D01*
X148052024Y-92967756D01*
X148011997Y-92915538D01*
X147976127Y-92856595D01*
X147953192Y-92812169D01*
X147919301Y-92732439D01*
X147899612Y-92660607D01*
X147893912Y-92595684D01*
X147898023Y-92554410D01*
X147924802Y-92454920D01*
X147966872Y-92360801D01*
X148023020Y-92273629D01*
X148092036Y-92194980D01*
X148172706Y-92126427D01*
X148263820Y-92069549D01*
X148275633Y-92063464D01*
X148338775Y-92035667D01*
X148402088Y-92015087D01*
X148460706Y-92003115D01*
X148495767Y-92000599D01*
X148562090Y-92007742D01*
X148633613Y-92028081D01*
X148707369Y-92059975D01*
X148780390Y-92101787D01*
X148849709Y-92151877D01*
X148912358Y-92208607D01*
X148951252Y-92252129D01*
X148988601Y-92305386D01*
X149024421Y-92369372D01*
X149055707Y-92437944D01*
X149079456Y-92504962D01*
X149085203Y-92525993D01*
X149094147Y-92570186D01*
X149096883Y-92610463D01*
X149092904Y-92651252D01*
X149081701Y-92696983D01*
X149062766Y-92752087D01*
X149057749Y-92765289D01*
X149013780Y-92858197D01*
X148955989Y-92943539D01*
X148883702Y-93022095D01*
X148796242Y-93094644D01*
X148737067Y-93135064D01*
X148712044Y-93151791D01*
X148692855Y-93166019D01*
X148684280Y-93173972D01*
X148681745Y-93185769D01*
X148679683Y-93210620D01*
X148678334Y-93244645D01*
X148677930Y-93276421D01*
X148677800Y-93369675D01*
X148897680Y-93900920D01*
X148935028Y-93991084D01*
X148970640Y-94076921D01*
X149003963Y-94157102D01*
X149034442Y-94230304D01*
X149061525Y-94295199D01*
X149084657Y-94350462D01*
X149103284Y-94394767D01*
X149116853Y-94426789D01*
X149124810Y-94445200D01*
X149126577Y-94449015D01*
X149131817Y-94456217D01*
X149140434Y-94461025D01*
X149155518Y-94463914D01*
X149180158Y-94465360D01*
X149217443Y-94465839D01*
X149235942Y-94465867D01*
X149336289Y-94465867D01*
X149407836Y-94427805D01*
X149479384Y-94389744D01*
X149618342Y-94485425D01*
X149668188Y-94519695D01*
X149719999Y-94555224D01*
X149769621Y-94589171D01*
X149812903Y-94618695D01*
X149841008Y-94637786D01*
X149924717Y-94694467D01*
X150121030Y-94694467D01*
X150356148Y-94459348D01*
X150591267Y-94224229D01*
X150591267Y-94125865D01*
X150591107Y-94083567D01*
X150590079Y-94054111D01*
X150587359Y-94033405D01*
X150582122Y-94017358D01*
X150573545Y-94001878D01*
X150563165Y-93986333D01*
X150550757Y-93968180D01*
X150530402Y-93938427D01*
X150503725Y-93899446D01*
X150472347Y-93853608D01*
X150437892Y-93803285D01*
X150406531Y-93757489D01*
X150372437Y-93707301D01*
X150341740Y-93661337D01*
X150315692Y-93621536D01*
X150295548Y-93589838D01*
X150282560Y-93568182D01*
X150277981Y-93558523D01*
X150281014Y-93547807D01*
X150289548Y-93523683D01*
X150302719Y-93488435D01*
X150319664Y-93444348D01*
X150339519Y-93393704D01*
X150355358Y-93353899D01*
X150381676Y-93288964D01*
X150402912Y-93238523D01*
X150419743Y-93201146D01*
X150432847Y-93175403D01*
X150442903Y-93159864D01*
X150450589Y-93153100D01*
X150450627Y-93153083D01*
X150462883Y-93149856D01*
X150489791Y-93144007D01*
X150529340Y-93135932D01*
X150579518Y-93126030D01*
X150638317Y-93114696D01*
X150703724Y-93102329D01*
X150768132Y-93090357D01*
X150837532Y-93077361D01*
X150901884Y-93064924D01*
X150959232Y-93053456D01*
X151007617Y-93043363D01*
X151045082Y-93035053D01*
X151069669Y-93028935D01*
X151079282Y-93025553D01*
X151081974Y-93020682D01*
X151084232Y-93010059D01*
X151086089Y-92992398D01*
X151087580Y-92966410D01*
X151088741Y-92930807D01*
X151089605Y-92884300D01*
X151090208Y-92825603D01*
X151090584Y-92753426D01*
X151090767Y-92666482D01*
X151090800Y-92598125D01*
X151090800Y-92180257D01*
X151071750Y-92168504D01*
X151059271Y-92164334D01*
X151032105Y-92157620D01*
X150992240Y-92148778D01*
X150941663Y-92138220D01*
X150882360Y-92126363D01*
X150816318Y-92113619D01*
X150745523Y-92100405D01*
X150743667Y-92100064D01*
X150673216Y-92086922D01*
X150607845Y-92074309D01*
X150549473Y-92062626D01*
X150500015Y-92052275D01*
X150461388Y-92043658D01*
X150435509Y-92037176D01*
X150424296Y-92033230D01*
X150424160Y-92033113D01*
X150418112Y-92022839D01*
X150406753Y-91999706D01*
X150391270Y-91966436D01*
X150372853Y-91925752D01*
X150352690Y-91880376D01*
X150331968Y-91833031D01*
X150311876Y-91786438D01*
X150293602Y-91743320D01*
X150278335Y-91706400D01*
X150267261Y-91678400D01*
X150261571Y-91662041D01*
X150261067Y-91659433D01*
X150265705Y-91650543D01*
X150278885Y-91629402D01*
X150299502Y-91597676D01*
X150326453Y-91557031D01*
X150358636Y-91509135D01*
X150394946Y-91455653D01*
X150426167Y-91410049D01*
X150591267Y-91169763D01*
X150591267Y-90974064D01*
X150356519Y-90738765D01*
X150121770Y-90503467D01*
X149920790Y-90503467D01*
X149707812Y-90649150D01*
X149652781Y-90686814D01*
X149600699Y-90722498D01*
X149553649Y-90754773D01*
X149513714Y-90782208D01*
X149482977Y-90803374D01*
X149463520Y-90816841D01*
X149460227Y-90819143D01*
X149425620Y-90843452D01*
X149265493Y-90778313D01*
X149203585Y-90753060D01*
X149155550Y-90733202D01*
X149119549Y-90717823D01*
X149093742Y-90706006D01*
X149076290Y-90696836D01*
X149065352Y-90689398D01*
X149059089Y-90682774D01*
X149055661Y-90676050D01*
X149054758Y-90673401D01*
X149052066Y-90661561D01*
X149046678Y-90635010D01*
X149038966Y-90595692D01*
X149029305Y-90545549D01*
X149018070Y-90486523D01*
X149005633Y-90420559D01*
X148992369Y-90349597D01*
X148991008Y-90342281D01*
X148977580Y-90271136D01*
X148964719Y-90204999D01*
X148952826Y-90145777D01*
X148942300Y-90095380D01*
X148933540Y-90055714D01*
X148926945Y-90028687D01*
X148922915Y-90016207D01*
X148922647Y-90015805D01*
X148918006Y-90013040D01*
X148908189Y-90010726D01*
X148891870Y-90008826D01*
X148867727Y-90007304D01*
X148834437Y-90006123D01*
X148790676Y-90005248D01*
X148735120Y-90004641D01*
X148666448Y-90004267D01*
X148583334Y-90004088D01*
X148496847Y-90004063D01*
X148414274Y-90004226D01*
G36*
X148033778Y-80039994D02*
X148032084Y-80081772D01*
X148026201Y-80107100D01*
X148014929Y-80118103D01*
X147997068Y-80116908D01*
X147991444Y-80114958D01*
X147983707Y-80107124D01*
X147979261Y-80088700D01*
X147977459Y-80056249D01*
X147977333Y-80039994D01*
X147977333Y-79970445D01*
X147751555Y-79970445D01*
X147751555Y-80039994D01*
X147749861Y-80081772D01*
X147743979Y-80107100D01*
X147732707Y-80118103D01*
X147714846Y-80116908D01*
X147709222Y-80114958D01*
X147701485Y-80107124D01*
X147697039Y-80088700D01*
X147695237Y-80056249D01*
X147695111Y-80039994D01*
X147695111Y-79970445D01*
X147469333Y-79970445D01*
X147469333Y-80040216D01*
X147468193Y-80079946D01*
X147463725Y-80103832D01*
X147454354Y-80114762D01*
X147438509Y-80115625D01*
X147429352Y-80113631D01*
X147420698Y-80108487D01*
X147415668Y-80095969D01*
X147413367Y-80072070D01*
X147412889Y-80039903D01*
X147412889Y-79970445D01*
X147187111Y-79970445D01*
X147187111Y-80040216D01*
X147185971Y-80079946D01*
X147181503Y-80103832D01*
X147172132Y-80114762D01*
X147156287Y-80115625D01*
X147147130Y-80113631D01*
X147138476Y-80108487D01*
X147133445Y-80095969D01*
X147131145Y-80072070D01*
X147130667Y-80039903D01*
X147130667Y-79970445D01*
X146904889Y-79970445D01*
X146904889Y-80040216D01*
X146903749Y-80079946D01*
X146899280Y-80103832D01*
X146889910Y-80114762D01*
X146874065Y-80115625D01*
X146864907Y-80113631D01*
X146856253Y-80108487D01*
X146851223Y-80095969D01*
X146848922Y-80072070D01*
X146848444Y-80039903D01*
X146848444Y-79970445D01*
X146622667Y-79970445D01*
X146622667Y-80040216D01*
X146621527Y-80079946D01*
X146617058Y-80103832D01*
X146607688Y-80114762D01*
X146591842Y-80115625D01*
X146582685Y-80113631D01*
X146574031Y-80108487D01*
X146569001Y-80095969D01*
X146566700Y-80072070D01*
X146566222Y-80039903D01*
X146566222Y-79970445D01*
X146340444Y-79970445D01*
X146340444Y-80037294D01*
X146339765Y-80073264D01*
X146336743Y-80095796D01*
X146329901Y-80110250D01*
X146317763Y-80121981D01*
X146316926Y-80122644D01*
X146308447Y-80129765D01*
X146302298Y-80137693D01*
X146298106Y-80149328D01*
X146295496Y-80167571D01*
X146294092Y-80195322D01*
X146293521Y-80235481D01*
X146293408Y-80290948D01*
X146293407Y-80304734D01*
X146293407Y-80468325D01*
X145652421Y-80473741D01*
X145610729Y-80517878D01*
X145569037Y-80562016D01*
X145569048Y-80880064D01*
X145569059Y-81198111D01*
X145400715Y-81195356D01*
X145232370Y-81192602D01*
X145213553Y-81216523D01*
X145201158Y-81229613D01*
X145186259Y-81236838D01*
X145163155Y-81239884D01*
X145132590Y-81240444D01*
X145070444Y-81240445D01*
X145070444Y-81475630D01*
X145135290Y-81475630D01*
X145174635Y-81477226D01*
X145197742Y-81482816D01*
X145206980Y-81493606D01*
X145204720Y-81510799D01*
X145204682Y-81510907D01*
X145192526Y-81518240D01*
X145162254Y-81522052D01*
X145135512Y-81522667D01*
X145070444Y-81522667D01*
X145070444Y-81757852D01*
X145135290Y-81757852D01*
X145174635Y-81759448D01*
X145197742Y-81765038D01*
X145206980Y-81775828D01*
X145204720Y-81793022D01*
X145204682Y-81793130D01*
X145192526Y-81800462D01*
X145162254Y-81804274D01*
X145135512Y-81804889D01*
X145070444Y-81804889D01*
X145070444Y-82040074D01*
X145135290Y-82040074D01*
X145174635Y-82041670D01*
X145197742Y-82047261D01*
X145206980Y-82058050D01*
X145204720Y-82075244D01*
X145204682Y-82075352D01*
X145192526Y-82082684D01*
X145162254Y-82086497D01*
X145135512Y-82087111D01*
X145070444Y-82087111D01*
X145070444Y-82322296D01*
X145135290Y-82322296D01*
X145174635Y-82323892D01*
X145197742Y-82329483D01*
X145206980Y-82340273D01*
X145204720Y-82357466D01*
X145204682Y-82357574D01*
X145192526Y-82364906D01*
X145162254Y-82368719D01*
X145135512Y-82369333D01*
X145070444Y-82369333D01*
X145070444Y-82604519D01*
X145135290Y-82604519D01*
X145174635Y-82606114D01*
X145197742Y-82611705D01*
X145206980Y-82622495D01*
X145204720Y-82639688D01*
X145204682Y-82639796D01*
X145192526Y-82647129D01*
X145162254Y-82650941D01*
X145135512Y-82651556D01*
X145070444Y-82651556D01*
X145070444Y-82886741D01*
X145135290Y-82886741D01*
X145174635Y-82888337D01*
X145197742Y-82893927D01*
X145206980Y-82904717D01*
X145204720Y-82921910D01*
X145204682Y-82922019D01*
X145192526Y-82929351D01*
X145162254Y-82933163D01*
X145135512Y-82933778D01*
X145070444Y-82933778D01*
X145070444Y-83159556D01*
X145136296Y-83159556D01*
X145173240Y-83160599D01*
X145194210Y-83164079D01*
X145201947Y-83170524D01*
X145202148Y-83172209D01*
X145208590Y-83187788D01*
X145219825Y-83200859D01*
X145228273Y-83206668D01*
X145240642Y-83210781D01*
X145259764Y-83213402D01*
X145288469Y-83214736D01*
X145329589Y-83214986D01*
X145385953Y-83214356D01*
X145403281Y-83214077D01*
X145569060Y-83211296D01*
X145569049Y-83529344D01*
X145569037Y-83847392D01*
X145610729Y-83891529D01*
X145652421Y-83935667D01*
X145972914Y-83938375D01*
X146293407Y-83941082D01*
X146293407Y-84104673D01*
X146293472Y-84163704D01*
X146293917Y-84206821D01*
X146295115Y-84236923D01*
X146297443Y-84256912D01*
X146301274Y-84269687D01*
X146306983Y-84278150D01*
X146314944Y-84285200D01*
X146316926Y-84286764D01*
X146329392Y-84298501D01*
X146336483Y-84312670D01*
X146339675Y-84334627D01*
X146340443Y-84369732D01*
X146340444Y-84372113D01*
X146340444Y-84438963D01*
X146566222Y-84438963D01*
X146566222Y-84369505D01*
X146566909Y-84332815D01*
X146569567Y-84310903D01*
X146575090Y-84299763D01*
X146582685Y-84295777D01*
X146601785Y-84293212D01*
X146613736Y-84299476D01*
X146620112Y-84317459D01*
X146622485Y-84350049D01*
X146622667Y-84369191D01*
X146622667Y-84438963D01*
X146848444Y-84438963D01*
X146848444Y-84369505D01*
X146849132Y-84332815D01*
X146851789Y-84310903D01*
X146857313Y-84299763D01*
X146864907Y-84295777D01*
X146884007Y-84293212D01*
X146895958Y-84299476D01*
X146902334Y-84317459D01*
X146904707Y-84350049D01*
X146904889Y-84369191D01*
X146904889Y-84438963D01*
X147130667Y-84438963D01*
X147130667Y-84369505D01*
X147131354Y-84332815D01*
X147134012Y-84310903D01*
X147139535Y-84299763D01*
X147147130Y-84295777D01*
X147166230Y-84293212D01*
X147178181Y-84299476D01*
X147184556Y-84317459D01*
X147186929Y-84350049D01*
X147187111Y-84369191D01*
X147187111Y-84438963D01*
X147412889Y-84438963D01*
X147412889Y-84369414D01*
X147413876Y-84330901D01*
X147417268Y-84307686D01*
X147423712Y-84296332D01*
X147427000Y-84294450D01*
X147446692Y-84290543D01*
X147459496Y-84298305D01*
X147466611Y-84319860D01*
X147469237Y-84357335D01*
X147469333Y-84369414D01*
X147469333Y-84438963D01*
X147695111Y-84438963D01*
X147695111Y-84369414D01*
X147696098Y-84330901D01*
X147699490Y-84307686D01*
X147705934Y-84296332D01*
X147709222Y-84294450D01*
X147728915Y-84290543D01*
X147741718Y-84298305D01*
X147748833Y-84319860D01*
X147751459Y-84357335D01*
X147751555Y-84369414D01*
X147751555Y-84438963D01*
X147977333Y-84438963D01*
X147977333Y-84369414D01*
X147978320Y-84330901D01*
X147981712Y-84307686D01*
X147988156Y-84296332D01*
X147991444Y-84294450D01*
X148011137Y-84290543D01*
X148023940Y-84298305D01*
X148031055Y-84319860D01*
X148033682Y-84357335D01*
X148033778Y-84369414D01*
X148033778Y-84438963D01*
X148259555Y-84438963D01*
X148259555Y-84372113D01*
X148260235Y-84336144D01*
X148263257Y-84313611D01*
X148270099Y-84299158D01*
X148282237Y-84287426D01*
X148283074Y-84286764D01*
X148291553Y-84279643D01*
X148297702Y-84271714D01*
X148301894Y-84260079D01*
X148304504Y-84241837D01*
X148305908Y-84214086D01*
X148306479Y-84173927D01*
X148306592Y-84118459D01*
X148306593Y-84104673D01*
X148306593Y-83941082D01*
X148627086Y-83938375D01*
X148947579Y-83935667D01*
X148989271Y-83891529D01*
X149030963Y-83847392D01*
X149030951Y-83529344D01*
X149030940Y-83211296D01*
X149196718Y-83214077D01*
X149257467Y-83214900D01*
X149302242Y-83214896D01*
X149333873Y-83213860D01*
X149355193Y-83211590D01*
X149369030Y-83207881D01*
X149378217Y-83202529D01*
X149380175Y-83200859D01*
X149393796Y-83183922D01*
X149397852Y-83172209D01*
X149403280Y-83165110D01*
X149421394Y-83161081D01*
X149454936Y-83159594D01*
X149463704Y-83159556D01*
X149529555Y-83159556D01*
X149529555Y-82933778D01*
X149464710Y-82933778D01*
X149425365Y-82932182D01*
X149402258Y-82926591D01*
X149393019Y-82915802D01*
X149395280Y-82898608D01*
X149395318Y-82898500D01*
X149407474Y-82891168D01*
X149437746Y-82887355D01*
X149464488Y-82886741D01*
X149529555Y-82886741D01*
X149529555Y-82651556D01*
X149464710Y-82651556D01*
X149425365Y-82649960D01*
X149402258Y-82644369D01*
X149393019Y-82633579D01*
X149395280Y-82616386D01*
X149395318Y-82616278D01*
X149407474Y-82608945D01*
X149437746Y-82605133D01*
X149464488Y-82604519D01*
X149529555Y-82604519D01*
X149529555Y-82369333D01*
X149464710Y-82369333D01*
X149425365Y-82367737D01*
X149402258Y-82362147D01*
X149393019Y-82351357D01*
X149395280Y-82334164D01*
X149395318Y-82334056D01*
X149407474Y-82326723D01*
X149437746Y-82322911D01*
X149464488Y-82322296D01*
X149529555Y-82322296D01*
X149529555Y-82087111D01*
X149464710Y-82087111D01*
X149425365Y-82085515D01*
X149402258Y-82079925D01*
X149393019Y-82069135D01*
X149395280Y-82051942D01*
X149395318Y-82051833D01*
X149407474Y-82044501D01*
X149437746Y-82040689D01*
X149464488Y-82040074D01*
X149529555Y-82040074D01*
X149529555Y-81804889D01*
X149464710Y-81804889D01*
X149425365Y-81803293D01*
X149402258Y-81797702D01*
X149393019Y-81786913D01*
X149395280Y-81769719D01*
X149395318Y-81769611D01*
X149407474Y-81762279D01*
X149437746Y-81758466D01*
X149464488Y-81757852D01*
X149529555Y-81757852D01*
X149529555Y-81522667D01*
X149464710Y-81522667D01*
X149425365Y-81521071D01*
X149402258Y-81515480D01*
X149393019Y-81504690D01*
X149395280Y-81487497D01*
X149395318Y-81487389D01*
X149407474Y-81480057D01*
X149437746Y-81476244D01*
X149464488Y-81475630D01*
X149529555Y-81475630D01*
X149529555Y-81240445D01*
X149467409Y-81240444D01*
X149432767Y-81239637D01*
X149411206Y-81236090D01*
X149397024Y-81228118D01*
X149386447Y-81216523D01*
X149367630Y-81192602D01*
X149199285Y-81195356D01*
X149030940Y-81198111D01*
X149030952Y-81160431D01*
X149030643Y-81151550D01*
X149028980Y-81142724D01*
X149024865Y-81132729D01*
X149017201Y-81120344D01*
X149004892Y-81104344D01*
X148986841Y-81083506D01*
X148961949Y-81056607D01*
X148929121Y-81022425D01*
X148887259Y-80979735D01*
X148835266Y-80927315D01*
X148772046Y-80863941D01*
X148704006Y-80795894D01*
X148629480Y-80721444D01*
X148567013Y-80659232D01*
X148515389Y-80608163D01*
X148473395Y-80567140D01*
X148439814Y-80535067D01*
X148413434Y-80510848D01*
X148393038Y-80493386D01*
X148377412Y-80481586D01*
X148365342Y-80474351D01*
X148355613Y-80470584D01*
X148347009Y-80469191D01*
X148341821Y-80469037D01*
X148306593Y-80469037D01*
X148306593Y-80305090D01*
X148306528Y-80245987D01*
X148306086Y-80202801D01*
X148304892Y-80172638D01*
X148302573Y-80152600D01*
X148298757Y-80139790D01*
X148293069Y-80131313D01*
X148285136Y-80124271D01*
X148283074Y-80122644D01*
X148270608Y-80110906D01*
X148263517Y-80096738D01*
X148260325Y-80074780D01*
X148259557Y-80039675D01*
X148259555Y-80037294D01*
X148259555Y-79970445D01*
X148033778Y-79970445D01*
X148033778Y-80039994D01*
X148033778Y-80039994D01*
G37*
X148033778Y-80039994D02*
X148032084Y-80081772D01*
X148026201Y-80107100D01*
X148014929Y-80118103D01*
X147997068Y-80116908D01*
X147991444Y-80114958D01*
X147983707Y-80107124D01*
X147979261Y-80088700D01*
X147977459Y-80056249D01*
X147977333Y-80039994D01*
X147977333Y-79970445D01*
X147751555Y-79970445D01*
X147751555Y-80039994D01*
X147749861Y-80081772D01*
X147743979Y-80107100D01*
X147732707Y-80118103D01*
X147714846Y-80116908D01*
X147709222Y-80114958D01*
X147701485Y-80107124D01*
X147697039Y-80088700D01*
X147695237Y-80056249D01*
X147695111Y-80039994D01*
X147695111Y-79970445D01*
X147469333Y-79970445D01*
X147469333Y-80040216D01*
X147468193Y-80079946D01*
X147463725Y-80103832D01*
X147454354Y-80114762D01*
X147438509Y-80115625D01*
X147429352Y-80113631D01*
X147420698Y-80108487D01*
X147415668Y-80095969D01*
X147413367Y-80072070D01*
X147412889Y-80039903D01*
X147412889Y-79970445D01*
X147187111Y-79970445D01*
X147187111Y-80040216D01*
X147185971Y-80079946D01*
X147181503Y-80103832D01*
X147172132Y-80114762D01*
X147156287Y-80115625D01*
X147147130Y-80113631D01*
X147138476Y-80108487D01*
X147133445Y-80095969D01*
X147131145Y-80072070D01*
X147130667Y-80039903D01*
X147130667Y-79970445D01*
X146904889Y-79970445D01*
X146904889Y-80040216D01*
X146903749Y-80079946D01*
X146899280Y-80103832D01*
X146889910Y-80114762D01*
X146874065Y-80115625D01*
X146864907Y-80113631D01*
X146856253Y-80108487D01*
X146851223Y-80095969D01*
X146848922Y-80072070D01*
X146848444Y-80039903D01*
X146848444Y-79970445D01*
X146622667Y-79970445D01*
X146622667Y-80040216D01*
X146621527Y-80079946D01*
X146617058Y-80103832D01*
X146607688Y-80114762D01*
X146591842Y-80115625D01*
X146582685Y-80113631D01*
X146574031Y-80108487D01*
X146569001Y-80095969D01*
X146566700Y-80072070D01*
X146566222Y-80039903D01*
X146566222Y-79970445D01*
X146340444Y-79970445D01*
X146340444Y-80037294D01*
X146339765Y-80073264D01*
X146336743Y-80095796D01*
X146329901Y-80110250D01*
X146317763Y-80121981D01*
X146316926Y-80122644D01*
X146308447Y-80129765D01*
X146302298Y-80137693D01*
X146298106Y-80149328D01*
X146295496Y-80167571D01*
X146294092Y-80195322D01*
X146293521Y-80235481D01*
X146293408Y-80290948D01*
X146293407Y-80304734D01*
X146293407Y-80468325D01*
X145652421Y-80473741D01*
X145610729Y-80517878D01*
X145569037Y-80562016D01*
X145569048Y-80880064D01*
X145569059Y-81198111D01*
X145400715Y-81195356D01*
X145232370Y-81192602D01*
X145213553Y-81216523D01*
X145201158Y-81229613D01*
X145186259Y-81236838D01*
X145163155Y-81239884D01*
X145132590Y-81240444D01*
X145070444Y-81240445D01*
X145070444Y-81475630D01*
X145135290Y-81475630D01*
X145174635Y-81477226D01*
X145197742Y-81482816D01*
X145206980Y-81493606D01*
X145204720Y-81510799D01*
X145204682Y-81510907D01*
X145192526Y-81518240D01*
X145162254Y-81522052D01*
X145135512Y-81522667D01*
X145070444Y-81522667D01*
X145070444Y-81757852D01*
X145135290Y-81757852D01*
X145174635Y-81759448D01*
X145197742Y-81765038D01*
X145206980Y-81775828D01*
X145204720Y-81793022D01*
X145204682Y-81793130D01*
X145192526Y-81800462D01*
X145162254Y-81804274D01*
X145135512Y-81804889D01*
X145070444Y-81804889D01*
X145070444Y-82040074D01*
X145135290Y-82040074D01*
X145174635Y-82041670D01*
X145197742Y-82047261D01*
X145206980Y-82058050D01*
X145204720Y-82075244D01*
X145204682Y-82075352D01*
X145192526Y-82082684D01*
X145162254Y-82086497D01*
X145135512Y-82087111D01*
X145070444Y-82087111D01*
X145070444Y-82322296D01*
X145135290Y-82322296D01*
X145174635Y-82323892D01*
X145197742Y-82329483D01*
X145206980Y-82340273D01*
X145204720Y-82357466D01*
X145204682Y-82357574D01*
X145192526Y-82364906D01*
X145162254Y-82368719D01*
X145135512Y-82369333D01*
X145070444Y-82369333D01*
X145070444Y-82604519D01*
X145135290Y-82604519D01*
X145174635Y-82606114D01*
X145197742Y-82611705D01*
X145206980Y-82622495D01*
X145204720Y-82639688D01*
X145204682Y-82639796D01*
X145192526Y-82647129D01*
X145162254Y-82650941D01*
X145135512Y-82651556D01*
X145070444Y-82651556D01*
X145070444Y-82886741D01*
X145135290Y-82886741D01*
X145174635Y-82888337D01*
X145197742Y-82893927D01*
X145206980Y-82904717D01*
X145204720Y-82921910D01*
X145204682Y-82922019D01*
X145192526Y-82929351D01*
X145162254Y-82933163D01*
X145135512Y-82933778D01*
X145070444Y-82933778D01*
X145070444Y-83159556D01*
X145136296Y-83159556D01*
X145173240Y-83160599D01*
X145194210Y-83164079D01*
X145201947Y-83170524D01*
X145202148Y-83172209D01*
X145208590Y-83187788D01*
X145219825Y-83200859D01*
X145228273Y-83206668D01*
X145240642Y-83210781D01*
X145259764Y-83213402D01*
X145288469Y-83214736D01*
X145329589Y-83214986D01*
X145385953Y-83214356D01*
X145403281Y-83214077D01*
X145569060Y-83211296D01*
X145569049Y-83529344D01*
X145569037Y-83847392D01*
X145610729Y-83891529D01*
X145652421Y-83935667D01*
X145972914Y-83938375D01*
X146293407Y-83941082D01*
X146293407Y-84104673D01*
X146293472Y-84163704D01*
X146293917Y-84206821D01*
X146295115Y-84236923D01*
X146297443Y-84256912D01*
X146301274Y-84269687D01*
X146306983Y-84278150D01*
X146314944Y-84285200D01*
X146316926Y-84286764D01*
X146329392Y-84298501D01*
X146336483Y-84312670D01*
X146339675Y-84334627D01*
X146340443Y-84369732D01*
X146340444Y-84372113D01*
X146340444Y-84438963D01*
X146566222Y-84438963D01*
X146566222Y-84369505D01*
X146566909Y-84332815D01*
X146569567Y-84310903D01*
X146575090Y-84299763D01*
X146582685Y-84295777D01*
X146601785Y-84293212D01*
X146613736Y-84299476D01*
X146620112Y-84317459D01*
X146622485Y-84350049D01*
X146622667Y-84369191D01*
X146622667Y-84438963D01*
X146848444Y-84438963D01*
X146848444Y-84369505D01*
X146849132Y-84332815D01*
X146851789Y-84310903D01*
X146857313Y-84299763D01*
X146864907Y-84295777D01*
X146884007Y-84293212D01*
X146895958Y-84299476D01*
X146902334Y-84317459D01*
X146904707Y-84350049D01*
X146904889Y-84369191D01*
X146904889Y-84438963D01*
X147130667Y-84438963D01*
X147130667Y-84369505D01*
X147131354Y-84332815D01*
X147134012Y-84310903D01*
X147139535Y-84299763D01*
X147147130Y-84295777D01*
X147166230Y-84293212D01*
X147178181Y-84299476D01*
X147184556Y-84317459D01*
X147186929Y-84350049D01*
X147187111Y-84369191D01*
X147187111Y-84438963D01*
X147412889Y-84438963D01*
X147412889Y-84369414D01*
X147413876Y-84330901D01*
X147417268Y-84307686D01*
X147423712Y-84296332D01*
X147427000Y-84294450D01*
X147446692Y-84290543D01*
X147459496Y-84298305D01*
X147466611Y-84319860D01*
X147469237Y-84357335D01*
X147469333Y-84369414D01*
X147469333Y-84438963D01*
X147695111Y-84438963D01*
X147695111Y-84369414D01*
X147696098Y-84330901D01*
X147699490Y-84307686D01*
X147705934Y-84296332D01*
X147709222Y-84294450D01*
X147728915Y-84290543D01*
X147741718Y-84298305D01*
X147748833Y-84319860D01*
X147751459Y-84357335D01*
X147751555Y-84369414D01*
X147751555Y-84438963D01*
X147977333Y-84438963D01*
X147977333Y-84369414D01*
X147978320Y-84330901D01*
X147981712Y-84307686D01*
X147988156Y-84296332D01*
X147991444Y-84294450D01*
X148011137Y-84290543D01*
X148023940Y-84298305D01*
X148031055Y-84319860D01*
X148033682Y-84357335D01*
X148033778Y-84369414D01*
X148033778Y-84438963D01*
X148259555Y-84438963D01*
X148259555Y-84372113D01*
X148260235Y-84336144D01*
X148263257Y-84313611D01*
X148270099Y-84299158D01*
X148282237Y-84287426D01*
X148283074Y-84286764D01*
X148291553Y-84279643D01*
X148297702Y-84271714D01*
X148301894Y-84260079D01*
X148304504Y-84241837D01*
X148305908Y-84214086D01*
X148306479Y-84173927D01*
X148306592Y-84118459D01*
X148306593Y-84104673D01*
X148306593Y-83941082D01*
X148627086Y-83938375D01*
X148947579Y-83935667D01*
X148989271Y-83891529D01*
X149030963Y-83847392D01*
X149030951Y-83529344D01*
X149030940Y-83211296D01*
X149196718Y-83214077D01*
X149257467Y-83214900D01*
X149302242Y-83214896D01*
X149333873Y-83213860D01*
X149355193Y-83211590D01*
X149369030Y-83207881D01*
X149378217Y-83202529D01*
X149380175Y-83200859D01*
X149393796Y-83183922D01*
X149397852Y-83172209D01*
X149403280Y-83165110D01*
X149421394Y-83161081D01*
X149454936Y-83159594D01*
X149463704Y-83159556D01*
X149529555Y-83159556D01*
X149529555Y-82933778D01*
X149464710Y-82933778D01*
X149425365Y-82932182D01*
X149402258Y-82926591D01*
X149393019Y-82915802D01*
X149395280Y-82898608D01*
X149395318Y-82898500D01*
X149407474Y-82891168D01*
X149437746Y-82887355D01*
X149464488Y-82886741D01*
X149529555Y-82886741D01*
X149529555Y-82651556D01*
X149464710Y-82651556D01*
X149425365Y-82649960D01*
X149402258Y-82644369D01*
X149393019Y-82633579D01*
X149395280Y-82616386D01*
X149395318Y-82616278D01*
X149407474Y-82608945D01*
X149437746Y-82605133D01*
X149464488Y-82604519D01*
X149529555Y-82604519D01*
X149529555Y-82369333D01*
X149464710Y-82369333D01*
X149425365Y-82367737D01*
X149402258Y-82362147D01*
X149393019Y-82351357D01*
X149395280Y-82334164D01*
X149395318Y-82334056D01*
X149407474Y-82326723D01*
X149437746Y-82322911D01*
X149464488Y-82322296D01*
X149529555Y-82322296D01*
X149529555Y-82087111D01*
X149464710Y-82087111D01*
X149425365Y-82085515D01*
X149402258Y-82079925D01*
X149393019Y-82069135D01*
X149395280Y-82051942D01*
X149395318Y-82051833D01*
X149407474Y-82044501D01*
X149437746Y-82040689D01*
X149464488Y-82040074D01*
X149529555Y-82040074D01*
X149529555Y-81804889D01*
X149464710Y-81804889D01*
X149425365Y-81803293D01*
X149402258Y-81797702D01*
X149393019Y-81786913D01*
X149395280Y-81769719D01*
X149395318Y-81769611D01*
X149407474Y-81762279D01*
X149437746Y-81758466D01*
X149464488Y-81757852D01*
X149529555Y-81757852D01*
X149529555Y-81522667D01*
X149464710Y-81522667D01*
X149425365Y-81521071D01*
X149402258Y-81515480D01*
X149393019Y-81504690D01*
X149395280Y-81487497D01*
X149395318Y-81487389D01*
X149407474Y-81480057D01*
X149437746Y-81476244D01*
X149464488Y-81475630D01*
X149529555Y-81475630D01*
X149529555Y-81240445D01*
X149467409Y-81240444D01*
X149432767Y-81239637D01*
X149411206Y-81236090D01*
X149397024Y-81228118D01*
X149386447Y-81216523D01*
X149367630Y-81192602D01*
X149199285Y-81195356D01*
X149030940Y-81198111D01*
X149030952Y-81160431D01*
X149030643Y-81151550D01*
X149028980Y-81142724D01*
X149024865Y-81132729D01*
X149017201Y-81120344D01*
X149004892Y-81104344D01*
X148986841Y-81083506D01*
X148961949Y-81056607D01*
X148929121Y-81022425D01*
X148887259Y-80979735D01*
X148835266Y-80927315D01*
X148772046Y-80863941D01*
X148704006Y-80795894D01*
X148629480Y-80721444D01*
X148567013Y-80659232D01*
X148515389Y-80608163D01*
X148473395Y-80567140D01*
X148439814Y-80535067D01*
X148413434Y-80510848D01*
X148393038Y-80493386D01*
X148377412Y-80481586D01*
X148365342Y-80474351D01*
X148355613Y-80470584D01*
X148347009Y-80469191D01*
X148341821Y-80469037D01*
X148306593Y-80469037D01*
X148306593Y-80305090D01*
X148306528Y-80245987D01*
X148306086Y-80202801D01*
X148304892Y-80172638D01*
X148302573Y-80152600D01*
X148298757Y-80139790D01*
X148293069Y-80131313D01*
X148285136Y-80124271D01*
X148283074Y-80122644D01*
X148270608Y-80110906D01*
X148263517Y-80096738D01*
X148260325Y-80074780D01*
X148259557Y-80039675D01*
X148259555Y-80037294D01*
X148259555Y-79970445D01*
X148033778Y-79970445D01*
X148033778Y-80039994D01*
D11*
G36*
X138783480Y-121881001D02*
X138839712Y-121898059D01*
X138891538Y-121925761D01*
X138936961Y-121963039D01*
X138974239Y-122008462D01*
X139001941Y-122060288D01*
X139018999Y-122116520D01*
X139025000Y-122177454D01*
X139025000Y-123222546D01*
X139018999Y-123283480D01*
X139001941Y-123339712D01*
X138974239Y-123391538D01*
X138936961Y-123436961D01*
X138891538Y-123474239D01*
X138839712Y-123501941D01*
X138783480Y-123518999D01*
X138722546Y-123525000D01*
X136277454Y-123525000D01*
X136216520Y-123518999D01*
X136160288Y-123501941D01*
X136108462Y-123474239D01*
X136063039Y-123436961D01*
X136025761Y-123391538D01*
X135998059Y-123339712D01*
X135981001Y-123283480D01*
X135975000Y-123222546D01*
X135975000Y-122177454D01*
X135981001Y-122116520D01*
X135998059Y-122060288D01*
X136025761Y-122008462D01*
X136063039Y-121963039D01*
X136108462Y-121925761D01*
X136160288Y-121898059D01*
X136216520Y-121881001D01*
X136277454Y-121875000D01*
X138722546Y-121875000D01*
X138783480Y-121881001D01*
X138783480Y-121881001D01*
G37*
G36*
X143728602Y-121855521D02*
X143780145Y-121871156D01*
X143827648Y-121896547D01*
X143869284Y-121930716D01*
X143903453Y-121972352D01*
X143928844Y-122019855D01*
X143944479Y-122071398D01*
X143950000Y-122127454D01*
X143950000Y-122872546D01*
X143944479Y-122928602D01*
X143928844Y-122980145D01*
X143903453Y-123027648D01*
X143869284Y-123069284D01*
X143827648Y-123103453D01*
X143780145Y-123128844D01*
X143728602Y-123144479D01*
X143672546Y-123150000D01*
X143027454Y-123150000D01*
X142971398Y-123144479D01*
X142919855Y-123128844D01*
X142872352Y-123103453D01*
X142830716Y-123069284D01*
X142796547Y-123027648D01*
X142771156Y-122980145D01*
X142755521Y-122928602D01*
X142750000Y-122872546D01*
X142750000Y-122127454D01*
X142755521Y-122071398D01*
X142771156Y-122019855D01*
X142796547Y-121972352D01*
X142830716Y-121930716D01*
X142872352Y-121896547D01*
X142919855Y-121871156D01*
X142971398Y-121855521D01*
X143027454Y-121850000D01*
X143672546Y-121850000D01*
X143728602Y-121855521D01*
X143728602Y-121855521D01*
G37*
G36*
X141828602Y-121855521D02*
X141880145Y-121871156D01*
X141927648Y-121896547D01*
X141969284Y-121930716D01*
X142003453Y-121972352D01*
X142028844Y-122019855D01*
X142044479Y-122071398D01*
X142050000Y-122127454D01*
X142050000Y-122872546D01*
X142044479Y-122928602D01*
X142028844Y-122980145D01*
X142003453Y-123027648D01*
X141969284Y-123069284D01*
X141927648Y-123103453D01*
X141880145Y-123128844D01*
X141828602Y-123144479D01*
X141772546Y-123150000D01*
X141127454Y-123150000D01*
X141071398Y-123144479D01*
X141019855Y-123128844D01*
X140972352Y-123103453D01*
X140930716Y-123069284D01*
X140896547Y-123027648D01*
X140871156Y-122980145D01*
X140855521Y-122928602D01*
X140850000Y-122872546D01*
X140850000Y-122127454D01*
X140855521Y-122071398D01*
X140871156Y-122019855D01*
X140896547Y-121972352D01*
X140930716Y-121930716D01*
X140972352Y-121896547D01*
X141019855Y-121871156D01*
X141071398Y-121855521D01*
X141127454Y-121850000D01*
X141772546Y-121850000D01*
X141828602Y-121855521D01*
X141828602Y-121855521D01*
G37*
G36*
X124793388Y-120806361D02*
X124853138Y-120824486D01*
X124908204Y-120853921D01*
X124956470Y-120893530D01*
X124996079Y-120941796D01*
X125025514Y-120996862D01*
X125043639Y-121056612D01*
X125050000Y-121121204D01*
X125050000Y-122278796D01*
X125043639Y-122343388D01*
X125025514Y-122403138D01*
X124996079Y-122458204D01*
X124956470Y-122506470D01*
X124908204Y-122546079D01*
X124853138Y-122575514D01*
X124793388Y-122593639D01*
X124728796Y-122600000D01*
X123996204Y-122600000D01*
X123931612Y-122593639D01*
X123871862Y-122575514D01*
X123816796Y-122546079D01*
X123768530Y-122506470D01*
X123728921Y-122458204D01*
X123699486Y-122403138D01*
X123681361Y-122343388D01*
X123675000Y-122278796D01*
X123675000Y-121121204D01*
X123681361Y-121056612D01*
X123699486Y-120996862D01*
X123728921Y-120941796D01*
X123768530Y-120893530D01*
X123816796Y-120853921D01*
X123871862Y-120824486D01*
X123931612Y-120806361D01*
X123996204Y-120800000D01*
X124728796Y-120800000D01*
X124793388Y-120806361D01*
X124793388Y-120806361D01*
G37*
G36*
X130468388Y-120806361D02*
X130528138Y-120824486D01*
X130583204Y-120853921D01*
X130631470Y-120893530D01*
X130671079Y-120941796D01*
X130700514Y-120996862D01*
X130718639Y-121056612D01*
X130725000Y-121121204D01*
X130725000Y-122278796D01*
X130718639Y-122343388D01*
X130700514Y-122403138D01*
X130671079Y-122458204D01*
X130631470Y-122506470D01*
X130583204Y-122546079D01*
X130528138Y-122575514D01*
X130468388Y-122593639D01*
X130403796Y-122600000D01*
X129671204Y-122600000D01*
X129606612Y-122593639D01*
X129546862Y-122575514D01*
X129491796Y-122546079D01*
X129443530Y-122506470D01*
X129403921Y-122458204D01*
X129374486Y-122403138D01*
X129356361Y-122343388D01*
X129350000Y-122278796D01*
X129350000Y-121121204D01*
X129356361Y-121056612D01*
X129374486Y-120996862D01*
X129403921Y-120941796D01*
X129443530Y-120893530D01*
X129491796Y-120853921D01*
X129546862Y-120824486D01*
X129606612Y-120806361D01*
X129671204Y-120800000D01*
X130403796Y-120800000D01*
X130468388Y-120806361D01*
X130468388Y-120806361D01*
G37*
G36*
X126668388Y-120806361D02*
X126728138Y-120824486D01*
X126783204Y-120853921D01*
X126831470Y-120893530D01*
X126871079Y-120941796D01*
X126900514Y-120996862D01*
X126918639Y-121056612D01*
X126925000Y-121121204D01*
X126925000Y-122278796D01*
X126918639Y-122343388D01*
X126900514Y-122403138D01*
X126871079Y-122458204D01*
X126831470Y-122506470D01*
X126783204Y-122546079D01*
X126728138Y-122575514D01*
X126668388Y-122593639D01*
X126603796Y-122600000D01*
X125871204Y-122600000D01*
X125806612Y-122593639D01*
X125746862Y-122575514D01*
X125691796Y-122546079D01*
X125643530Y-122506470D01*
X125603921Y-122458204D01*
X125574486Y-122403138D01*
X125556361Y-122343388D01*
X125550000Y-122278796D01*
X125550000Y-121121204D01*
X125556361Y-121056612D01*
X125574486Y-120996862D01*
X125603921Y-120941796D01*
X125643530Y-120893530D01*
X125691796Y-120853921D01*
X125746862Y-120824486D01*
X125806612Y-120806361D01*
X125871204Y-120800000D01*
X126603796Y-120800000D01*
X126668388Y-120806361D01*
X126668388Y-120806361D01*
G37*
G36*
X128593388Y-120806361D02*
X128653138Y-120824486D01*
X128708204Y-120853921D01*
X128756470Y-120893530D01*
X128796079Y-120941796D01*
X128825514Y-120996862D01*
X128843639Y-121056612D01*
X128850000Y-121121204D01*
X128850000Y-122278796D01*
X128843639Y-122343388D01*
X128825514Y-122403138D01*
X128796079Y-122458204D01*
X128756470Y-122506470D01*
X128708204Y-122546079D01*
X128653138Y-122575514D01*
X128593388Y-122593639D01*
X128528796Y-122600000D01*
X127796204Y-122600000D01*
X127731612Y-122593639D01*
X127671862Y-122575514D01*
X127616796Y-122546079D01*
X127568530Y-122506470D01*
X127528921Y-122458204D01*
X127499486Y-122403138D01*
X127481361Y-122343388D01*
X127475000Y-122278796D01*
X127475000Y-121121204D01*
X127481361Y-121056612D01*
X127499486Y-120996862D01*
X127528921Y-120941796D01*
X127568530Y-120893530D01*
X127616796Y-120853921D01*
X127671862Y-120824486D01*
X127731612Y-120806361D01*
X127796204Y-120800000D01*
X128528796Y-120800000D01*
X128593388Y-120806361D01*
X128593388Y-120806361D01*
G37*
G36*
X131956848Y-120084560D02*
X131999011Y-120097350D01*
X132037870Y-120118121D01*
X132071927Y-120146071D01*
X132074349Y-120149023D01*
X132081280Y-120155954D01*
X132089430Y-120161400D01*
X132098485Y-120165151D01*
X132108098Y-120167063D01*
X132117900Y-120167063D01*
X132127514Y-120165151D01*
X132136569Y-120161400D01*
X132144719Y-120155955D01*
X132151651Y-120149023D01*
X132154073Y-120146071D01*
X132188130Y-120118121D01*
X132226989Y-120097350D01*
X132269152Y-120084560D01*
X132315454Y-120080000D01*
X132860546Y-120080000D01*
X132906848Y-120084560D01*
X132949011Y-120097350D01*
X132987870Y-120118121D01*
X133021927Y-120146071D01*
X133024349Y-120149023D01*
X133031280Y-120155954D01*
X133039430Y-120161400D01*
X133048485Y-120165151D01*
X133058098Y-120167063D01*
X133067900Y-120167063D01*
X133077514Y-120165151D01*
X133086569Y-120161400D01*
X133094719Y-120155955D01*
X133101651Y-120149023D01*
X133104073Y-120146071D01*
X133138130Y-120118121D01*
X133176989Y-120097350D01*
X133219152Y-120084560D01*
X133265454Y-120080000D01*
X133810546Y-120080000D01*
X133856848Y-120084560D01*
X133899011Y-120097350D01*
X133937870Y-120118121D01*
X133971928Y-120146072D01*
X133999879Y-120180130D01*
X134020650Y-120218989D01*
X134033440Y-120261152D01*
X134038000Y-120307454D01*
X134038000Y-121352546D01*
X134033440Y-121398848D01*
X134020650Y-121441011D01*
X133999879Y-121479870D01*
X133971928Y-121513928D01*
X133937870Y-121541879D01*
X133899011Y-121562650D01*
X133856848Y-121575440D01*
X133810546Y-121580000D01*
X133265454Y-121580000D01*
X133219152Y-121575440D01*
X133176989Y-121562650D01*
X133138130Y-121541879D01*
X133104073Y-121513929D01*
X133101651Y-121510977D01*
X133094720Y-121504046D01*
X133086570Y-121498600D01*
X133077515Y-121494849D01*
X133067902Y-121492937D01*
X133058100Y-121492937D01*
X133048486Y-121494849D01*
X133039431Y-121498600D01*
X133031281Y-121504045D01*
X133024349Y-121510977D01*
X133021927Y-121513929D01*
X132987870Y-121541879D01*
X132949011Y-121562650D01*
X132906848Y-121575440D01*
X132860546Y-121580000D01*
X132315454Y-121580000D01*
X132269152Y-121575440D01*
X132226989Y-121562650D01*
X132188130Y-121541879D01*
X132154073Y-121513929D01*
X132151651Y-121510977D01*
X132144720Y-121504046D01*
X132136570Y-121498600D01*
X132127515Y-121494849D01*
X132117902Y-121492937D01*
X132108100Y-121492937D01*
X132098486Y-121494849D01*
X132089431Y-121498600D01*
X132081281Y-121504045D01*
X132074349Y-121510977D01*
X132071927Y-121513929D01*
X132037870Y-121541879D01*
X131999011Y-121562650D01*
X131956848Y-121575440D01*
X131910546Y-121580000D01*
X131365454Y-121580000D01*
X131319152Y-121575440D01*
X131276989Y-121562650D01*
X131238130Y-121541879D01*
X131204072Y-121513928D01*
X131176121Y-121479870D01*
X131155350Y-121441011D01*
X131142560Y-121398848D01*
X131138000Y-121352546D01*
X131138000Y-120307454D01*
X131142560Y-120261152D01*
X131155350Y-120218989D01*
X131176121Y-120180130D01*
X131204072Y-120146072D01*
X131238130Y-120118121D01*
X131276989Y-120097350D01*
X131319152Y-120084560D01*
X131365454Y-120080000D01*
X131910546Y-120080000D01*
X131956848Y-120084560D01*
X131956848Y-120084560D01*
G37*
G36*
X145505836Y-119405192D02*
X145657695Y-119451259D01*
X145703762Y-119465233D01*
X145770291Y-119500794D01*
X145886169Y-119562731D01*
X146046054Y-119693946D01*
X146177269Y-119853831D01*
X146213525Y-119921662D01*
X146274767Y-120036238D01*
X146274767Y-120036239D01*
X146334808Y-120234164D01*
X146355080Y-120440000D01*
X146334808Y-120645836D01*
X146310793Y-120725000D01*
X146274767Y-120843762D01*
X146240149Y-120908527D01*
X146177269Y-121026169D01*
X146046054Y-121186054D01*
X145886169Y-121317269D01*
X145779584Y-121374239D01*
X145703762Y-121414767D01*
X145670028Y-121425000D01*
X145505836Y-121474808D01*
X145351582Y-121490000D01*
X145248418Y-121490000D01*
X145094164Y-121474808D01*
X144929972Y-121425000D01*
X144896238Y-121414767D01*
X144820416Y-121374239D01*
X144713831Y-121317269D01*
X144553946Y-121186054D01*
X144422731Y-121026169D01*
X144359851Y-120908527D01*
X144325233Y-120843762D01*
X144289207Y-120725000D01*
X144265192Y-120645836D01*
X144244920Y-120440000D01*
X144265192Y-120234164D01*
X144325233Y-120036239D01*
X144325233Y-120036238D01*
X144386475Y-119921662D01*
X144422731Y-119853831D01*
X144553946Y-119693946D01*
X144713831Y-119562731D01*
X144829709Y-119500794D01*
X144896238Y-119465233D01*
X144942305Y-119451259D01*
X145094164Y-119405192D01*
X145248418Y-119390000D01*
X145351582Y-119390000D01*
X145505836Y-119405192D01*
X145505836Y-119405192D01*
G37*
G36*
X153433480Y-119781001D02*
X153489712Y-119798059D01*
X153541538Y-119825761D01*
X153586961Y-119863039D01*
X153624239Y-119908462D01*
X153651941Y-119960288D01*
X153668999Y-120016520D01*
X153675000Y-120077454D01*
X153675000Y-121122546D01*
X153668999Y-121183480D01*
X153651941Y-121239712D01*
X153624239Y-121291538D01*
X153586961Y-121336961D01*
X153541538Y-121374239D01*
X153489712Y-121401941D01*
X153433480Y-121418999D01*
X153372546Y-121425000D01*
X151827454Y-121425000D01*
X151766520Y-121418999D01*
X151710288Y-121401941D01*
X151658462Y-121374239D01*
X151613039Y-121336961D01*
X151575761Y-121291538D01*
X151548059Y-121239712D01*
X151531001Y-121183480D01*
X151525000Y-121122546D01*
X151525000Y-120077454D01*
X151531001Y-120016520D01*
X151548059Y-119960288D01*
X151575761Y-119908462D01*
X151613039Y-119863039D01*
X151658462Y-119825761D01*
X151710288Y-119798059D01*
X151766520Y-119781001D01*
X151827454Y-119775000D01*
X153372546Y-119775000D01*
X153433480Y-119781001D01*
X153433480Y-119781001D01*
G37*
G36*
X150133480Y-119781001D02*
X150189712Y-119798059D01*
X150241538Y-119825761D01*
X150286961Y-119863039D01*
X150324239Y-119908462D01*
X150351941Y-119960288D01*
X150368999Y-120016520D01*
X150375000Y-120077454D01*
X150375000Y-121122546D01*
X150368999Y-121183480D01*
X150351941Y-121239712D01*
X150324239Y-121291538D01*
X150286961Y-121336961D01*
X150241538Y-121374239D01*
X150189712Y-121401941D01*
X150133480Y-121418999D01*
X150072546Y-121425000D01*
X148527454Y-121425000D01*
X148466520Y-121418999D01*
X148410288Y-121401941D01*
X148358462Y-121374239D01*
X148313039Y-121336961D01*
X148275761Y-121291538D01*
X148248059Y-121239712D01*
X148231001Y-121183480D01*
X148225000Y-121122546D01*
X148225000Y-120077454D01*
X148231001Y-120016520D01*
X148248059Y-119960288D01*
X148275761Y-119908462D01*
X148313039Y-119863039D01*
X148358462Y-119825761D01*
X148410288Y-119798059D01*
X148466520Y-119781001D01*
X148527454Y-119775000D01*
X150072546Y-119775000D01*
X150133480Y-119781001D01*
X150133480Y-119781001D01*
G37*
G36*
X142778602Y-119855521D02*
X142830145Y-119871156D01*
X142877648Y-119896547D01*
X142919284Y-119930716D01*
X142953453Y-119972352D01*
X142978844Y-120019855D01*
X142994479Y-120071398D01*
X143000000Y-120127454D01*
X143000000Y-120872546D01*
X142994479Y-120928602D01*
X142978844Y-120980145D01*
X142953453Y-121027648D01*
X142919284Y-121069284D01*
X142877648Y-121103453D01*
X142830145Y-121128844D01*
X142778602Y-121144479D01*
X142722546Y-121150000D01*
X142077454Y-121150000D01*
X142021398Y-121144479D01*
X141969855Y-121128844D01*
X141922352Y-121103453D01*
X141880716Y-121069284D01*
X141846547Y-121027648D01*
X141821156Y-120980145D01*
X141805521Y-120928602D01*
X141800000Y-120872546D01*
X141800000Y-120127454D01*
X141805521Y-120071398D01*
X141821156Y-120019855D01*
X141846547Y-119972352D01*
X141880716Y-119930716D01*
X141922352Y-119896547D01*
X141969855Y-119871156D01*
X142021398Y-119855521D01*
X142077454Y-119850000D01*
X142722546Y-119850000D01*
X142778602Y-119855521D01*
X142778602Y-119855521D01*
G37*
G36*
X138783480Y-119081001D02*
X138839712Y-119098059D01*
X138891538Y-119125761D01*
X138936961Y-119163039D01*
X138974239Y-119208462D01*
X139001941Y-119260288D01*
X139018999Y-119316520D01*
X139025000Y-119377454D01*
X139025000Y-120422546D01*
X139018999Y-120483480D01*
X139001941Y-120539712D01*
X138974239Y-120591538D01*
X138936961Y-120636961D01*
X138891538Y-120674239D01*
X138839712Y-120701941D01*
X138783480Y-120718999D01*
X138722546Y-120725000D01*
X136277454Y-120725000D01*
X136216520Y-120718999D01*
X136160288Y-120701941D01*
X136108462Y-120674239D01*
X136063039Y-120636961D01*
X136025761Y-120591538D01*
X135998059Y-120539712D01*
X135981001Y-120483480D01*
X135975000Y-120422546D01*
X135975000Y-119377454D01*
X135981001Y-119316520D01*
X135998059Y-119260288D01*
X136025761Y-119208462D01*
X136063039Y-119163039D01*
X136108462Y-119125761D01*
X136160288Y-119098059D01*
X136216520Y-119081001D01*
X136277454Y-119075000D01*
X138722546Y-119075000D01*
X138783480Y-119081001D01*
X138783480Y-119081001D01*
G37*
G36*
X130433480Y-118281001D02*
X130489712Y-118298059D01*
X130541538Y-118325761D01*
X130586961Y-118363039D01*
X130624239Y-118408462D01*
X130651941Y-118460288D01*
X130668999Y-118516520D01*
X130675000Y-118577454D01*
X130675000Y-119622546D01*
X130668999Y-119683480D01*
X130651941Y-119739712D01*
X130624239Y-119791538D01*
X130586961Y-119836961D01*
X130541538Y-119874239D01*
X130489712Y-119901941D01*
X130433480Y-119918999D01*
X130372546Y-119925000D01*
X128827454Y-119925000D01*
X128766520Y-119918999D01*
X128710288Y-119901941D01*
X128658462Y-119874239D01*
X128613039Y-119836961D01*
X128575761Y-119791538D01*
X128548059Y-119739712D01*
X128531001Y-119683480D01*
X128525000Y-119622546D01*
X128525000Y-118577454D01*
X128531001Y-118516520D01*
X128548059Y-118460288D01*
X128575761Y-118408462D01*
X128613039Y-118363039D01*
X128658462Y-118325761D01*
X128710288Y-118298059D01*
X128766520Y-118281001D01*
X128827454Y-118275000D01*
X130372546Y-118275000D01*
X130433480Y-118281001D01*
X130433480Y-118281001D01*
G37*
G36*
X127733480Y-118281001D02*
X127789712Y-118298059D01*
X127841538Y-118325761D01*
X127886961Y-118363039D01*
X127924239Y-118408462D01*
X127951941Y-118460288D01*
X127968999Y-118516520D01*
X127975000Y-118577454D01*
X127975000Y-119622546D01*
X127968999Y-119683480D01*
X127951941Y-119739712D01*
X127924239Y-119791538D01*
X127886961Y-119836961D01*
X127841538Y-119874239D01*
X127789712Y-119901941D01*
X127733480Y-119918999D01*
X127672546Y-119925000D01*
X126127454Y-119925000D01*
X126066520Y-119918999D01*
X126010288Y-119901941D01*
X125958462Y-119874239D01*
X125913039Y-119836961D01*
X125875761Y-119791538D01*
X125848059Y-119739712D01*
X125831001Y-119683480D01*
X125825000Y-119622546D01*
X125825000Y-118577454D01*
X125831001Y-118516520D01*
X125848059Y-118460288D01*
X125875761Y-118408462D01*
X125913039Y-118363039D01*
X125958462Y-118325761D01*
X126010288Y-118298059D01*
X126066520Y-118281001D01*
X126127454Y-118275000D01*
X127672546Y-118275000D01*
X127733480Y-118281001D01*
X127733480Y-118281001D01*
G37*
G36*
X139904182Y-117776900D02*
X139994261Y-117814213D01*
X140031574Y-117829668D01*
X140146224Y-117906274D01*
X140243726Y-118003776D01*
X140320332Y-118118426D01*
X140320332Y-118118427D01*
X140373100Y-118245818D01*
X140400000Y-118381055D01*
X140400000Y-118518945D01*
X140373100Y-118654182D01*
X140367006Y-118668893D01*
X140320332Y-118781574D01*
X140243726Y-118896224D01*
X140146224Y-118993726D01*
X140031574Y-119070332D01*
X139994261Y-119085787D01*
X139904182Y-119123100D01*
X139768945Y-119150000D01*
X139631055Y-119150000D01*
X139495818Y-119123100D01*
X139405739Y-119085787D01*
X139368426Y-119070332D01*
X139253776Y-118993726D01*
X139156274Y-118896224D01*
X139079668Y-118781574D01*
X139032994Y-118668893D01*
X139026900Y-118654182D01*
X139000000Y-118518945D01*
X139000000Y-118381055D01*
X139026900Y-118245818D01*
X139079668Y-118118427D01*
X139079668Y-118118426D01*
X139156274Y-118003776D01*
X139253776Y-117906274D01*
X139368426Y-117829668D01*
X139405739Y-117814213D01*
X139495818Y-117776900D01*
X139631055Y-117750000D01*
X139768945Y-117750000D01*
X139904182Y-117776900D01*
X139904182Y-117776900D01*
G37*
G36*
X135504182Y-117776900D02*
X135594261Y-117814213D01*
X135631574Y-117829668D01*
X135746224Y-117906274D01*
X135843726Y-118003776D01*
X135920332Y-118118426D01*
X135920332Y-118118427D01*
X135973100Y-118245818D01*
X136000000Y-118381055D01*
X136000000Y-118518945D01*
X135973100Y-118654182D01*
X135967006Y-118668893D01*
X135920332Y-118781574D01*
X135843726Y-118896224D01*
X135746224Y-118993726D01*
X135631574Y-119070332D01*
X135594261Y-119085787D01*
X135504182Y-119123100D01*
X135368945Y-119150000D01*
X135231055Y-119150000D01*
X135095818Y-119123100D01*
X135005739Y-119085787D01*
X134968426Y-119070332D01*
X134853776Y-118993726D01*
X134756274Y-118896224D01*
X134679668Y-118781574D01*
X134632994Y-118668893D01*
X134626900Y-118654182D01*
X134600000Y-118518945D01*
X134600000Y-118381055D01*
X134626900Y-118245818D01*
X134679668Y-118118427D01*
X134679668Y-118118426D01*
X134756274Y-118003776D01*
X134853776Y-117906274D01*
X134968426Y-117829668D01*
X135005739Y-117814213D01*
X135095818Y-117776900D01*
X135231055Y-117750000D01*
X135368945Y-117750000D01*
X135504182Y-117776900D01*
X135504182Y-117776900D01*
G37*
G36*
X146350000Y-118950000D02*
X144250000Y-118950000D01*
X144250000Y-116850000D01*
X146350000Y-116850000D01*
X146350000Y-118950000D01*
X146350000Y-118950000D01*
G37*
G36*
X131956848Y-117284560D02*
X131999011Y-117297350D01*
X132037870Y-117318121D01*
X132071928Y-117346072D01*
X132099879Y-117380130D01*
X132120650Y-117418989D01*
X132133440Y-117461152D01*
X132138000Y-117507454D01*
X132138000Y-118552546D01*
X132133440Y-118598848D01*
X132120650Y-118641011D01*
X132099879Y-118679870D01*
X132071928Y-118713928D01*
X132037870Y-118741879D01*
X131999011Y-118762650D01*
X131956848Y-118775440D01*
X131910546Y-118780000D01*
X131365454Y-118780000D01*
X131319152Y-118775440D01*
X131276989Y-118762650D01*
X131238130Y-118741879D01*
X131204072Y-118713928D01*
X131176121Y-118679870D01*
X131155350Y-118641011D01*
X131142560Y-118598848D01*
X131138000Y-118552546D01*
X131138000Y-117507454D01*
X131142560Y-117461152D01*
X131155350Y-117418989D01*
X131176121Y-117380130D01*
X131204072Y-117346072D01*
X131238130Y-117318121D01*
X131276989Y-117297350D01*
X131319152Y-117284560D01*
X131365454Y-117280000D01*
X131910546Y-117280000D01*
X131956848Y-117284560D01*
X131956848Y-117284560D01*
G37*
G36*
X133856848Y-117284560D02*
X133899011Y-117297350D01*
X133937870Y-117318121D01*
X133971928Y-117346072D01*
X133999879Y-117380130D01*
X134020650Y-117418989D01*
X134033440Y-117461152D01*
X134038000Y-117507454D01*
X134038000Y-118552546D01*
X134033440Y-118598848D01*
X134020650Y-118641011D01*
X133999879Y-118679870D01*
X133971928Y-118713928D01*
X133937870Y-118741879D01*
X133899011Y-118762650D01*
X133856848Y-118775440D01*
X133810546Y-118780000D01*
X133265454Y-118780000D01*
X133219152Y-118775440D01*
X133176989Y-118762650D01*
X133138130Y-118741879D01*
X133104072Y-118713928D01*
X133076121Y-118679870D01*
X133055350Y-118641011D01*
X133042560Y-118598848D01*
X133038000Y-118552546D01*
X133038000Y-117507454D01*
X133042560Y-117461152D01*
X133055350Y-117418989D01*
X133076121Y-117380130D01*
X133104072Y-117346072D01*
X133138130Y-117318121D01*
X133176989Y-117297350D01*
X133219152Y-117284560D01*
X133265454Y-117280000D01*
X133810546Y-117280000D01*
X133856848Y-117284560D01*
X133856848Y-117284560D01*
G37*
G36*
X153433480Y-116981001D02*
X153489712Y-116998059D01*
X153541538Y-117025761D01*
X153586961Y-117063039D01*
X153624239Y-117108462D01*
X153651941Y-117160288D01*
X153668999Y-117216520D01*
X153675000Y-117277454D01*
X153675000Y-118322546D01*
X153668999Y-118383480D01*
X153651941Y-118439712D01*
X153624239Y-118491538D01*
X153586961Y-118536961D01*
X153541538Y-118574239D01*
X153489712Y-118601941D01*
X153433480Y-118618999D01*
X153372546Y-118625000D01*
X151827454Y-118625000D01*
X151766520Y-118618999D01*
X151710288Y-118601941D01*
X151658462Y-118574239D01*
X151613039Y-118536961D01*
X151575761Y-118491538D01*
X151548059Y-118439712D01*
X151531001Y-118383480D01*
X151525000Y-118322546D01*
X151525000Y-117277454D01*
X151531001Y-117216520D01*
X151548059Y-117160288D01*
X151575761Y-117108462D01*
X151613039Y-117063039D01*
X151658462Y-117025761D01*
X151710288Y-116998059D01*
X151766520Y-116981001D01*
X151827454Y-116975000D01*
X153372546Y-116975000D01*
X153433480Y-116981001D01*
X153433480Y-116981001D01*
G37*
G36*
X150133480Y-116981001D02*
X150189712Y-116998059D01*
X150241538Y-117025761D01*
X150286961Y-117063039D01*
X150324239Y-117108462D01*
X150351941Y-117160288D01*
X150368999Y-117216520D01*
X150375000Y-117277454D01*
X150375000Y-118322546D01*
X150368999Y-118383480D01*
X150351941Y-118439712D01*
X150324239Y-118491538D01*
X150286961Y-118536961D01*
X150241538Y-118574239D01*
X150189712Y-118601941D01*
X150133480Y-118618999D01*
X150072546Y-118625000D01*
X148527454Y-118625000D01*
X148466520Y-118618999D01*
X148410288Y-118601941D01*
X148358462Y-118574239D01*
X148313039Y-118536961D01*
X148275761Y-118491538D01*
X148248059Y-118439712D01*
X148231001Y-118383480D01*
X148225000Y-118322546D01*
X148225000Y-117277454D01*
X148231001Y-117216520D01*
X148248059Y-117160288D01*
X148275761Y-117108462D01*
X148313039Y-117063039D01*
X148358462Y-117025761D01*
X148410288Y-116998059D01*
X148466520Y-116981001D01*
X148527454Y-116975000D01*
X150072546Y-116975000D01*
X150133480Y-116981001D01*
X150133480Y-116981001D01*
G37*
G36*
X124838510Y-117055881D02*
X124893570Y-117072583D01*
X124944312Y-117099705D01*
X124988791Y-117136209D01*
X125025295Y-117180688D01*
X125052417Y-117231430D01*
X125069119Y-117286490D01*
X125075000Y-117346204D01*
X125075000Y-118028796D01*
X125069119Y-118088510D01*
X125052417Y-118143570D01*
X125025295Y-118194312D01*
X124988791Y-118238791D01*
X124944312Y-118275295D01*
X124893570Y-118302417D01*
X124838510Y-118319119D01*
X124778796Y-118325000D01*
X124021204Y-118325000D01*
X123961490Y-118319119D01*
X123906430Y-118302417D01*
X123855688Y-118275295D01*
X123811209Y-118238791D01*
X123774705Y-118194312D01*
X123747583Y-118143570D01*
X123730881Y-118088510D01*
X123725000Y-118028796D01*
X123725000Y-117346204D01*
X123730881Y-117286490D01*
X123747583Y-117231430D01*
X123774705Y-117180688D01*
X123811209Y-117136209D01*
X123855688Y-117099705D01*
X123906430Y-117072583D01*
X123961490Y-117055881D01*
X124021204Y-117050000D01*
X124778796Y-117050000D01*
X124838510Y-117055881D01*
X124838510Y-117055881D01*
G37*
G36*
X127733480Y-115481001D02*
X127789712Y-115498059D01*
X127841538Y-115525761D01*
X127886961Y-115563039D01*
X127924239Y-115608462D01*
X127951941Y-115660288D01*
X127968999Y-115716520D01*
X127975000Y-115777454D01*
X127975000Y-116822546D01*
X127968999Y-116883480D01*
X127951941Y-116939712D01*
X127924239Y-116991538D01*
X127886961Y-117036961D01*
X127841538Y-117074239D01*
X127789712Y-117101941D01*
X127733480Y-117118999D01*
X127672546Y-117125000D01*
X126127454Y-117125000D01*
X126066520Y-117118999D01*
X126010288Y-117101941D01*
X125958462Y-117074239D01*
X125913039Y-117036961D01*
X125875761Y-116991538D01*
X125848059Y-116939712D01*
X125831001Y-116883480D01*
X125825000Y-116822546D01*
X125825000Y-115777454D01*
X125831001Y-115716520D01*
X125848059Y-115660288D01*
X125875761Y-115608462D01*
X125913039Y-115563039D01*
X125958462Y-115525761D01*
X126010288Y-115498059D01*
X126066520Y-115481001D01*
X126127454Y-115475000D01*
X127672546Y-115475000D01*
X127733480Y-115481001D01*
X127733480Y-115481001D01*
G37*
G36*
X130433480Y-115481001D02*
X130489712Y-115498059D01*
X130541538Y-115525761D01*
X130586961Y-115563039D01*
X130624239Y-115608462D01*
X130651941Y-115660288D01*
X130668999Y-115716520D01*
X130675000Y-115777454D01*
X130675000Y-116822546D01*
X130668999Y-116883480D01*
X130651941Y-116939712D01*
X130624239Y-116991538D01*
X130586961Y-117036961D01*
X130541538Y-117074239D01*
X130489712Y-117101941D01*
X130433480Y-117118999D01*
X130372546Y-117125000D01*
X128827454Y-117125000D01*
X128766520Y-117118999D01*
X128710288Y-117101941D01*
X128658462Y-117074239D01*
X128613039Y-117036961D01*
X128575761Y-116991538D01*
X128548059Y-116939712D01*
X128531001Y-116883480D01*
X128525000Y-116822546D01*
X128525000Y-115777454D01*
X128531001Y-115716520D01*
X128548059Y-115660288D01*
X128575761Y-115608462D01*
X128613039Y-115563039D01*
X128658462Y-115525761D01*
X128710288Y-115498059D01*
X128766520Y-115481001D01*
X128827454Y-115475000D01*
X130372546Y-115475000D01*
X130433480Y-115481001D01*
X130433480Y-115481001D01*
G37*
G36*
X124838510Y-115480881D02*
X124893570Y-115497583D01*
X124944312Y-115524705D01*
X124988791Y-115561209D01*
X125025295Y-115605688D01*
X125052417Y-115656430D01*
X125069119Y-115711490D01*
X125075000Y-115771204D01*
X125075000Y-116453796D01*
X125069119Y-116513510D01*
X125052417Y-116568570D01*
X125025295Y-116619312D01*
X124988791Y-116663791D01*
X124944312Y-116700295D01*
X124893570Y-116727417D01*
X124838510Y-116744119D01*
X124778796Y-116750000D01*
X124021204Y-116750000D01*
X123961490Y-116744119D01*
X123906430Y-116727417D01*
X123855688Y-116700295D01*
X123811209Y-116663791D01*
X123774705Y-116619312D01*
X123747583Y-116568570D01*
X123730881Y-116513510D01*
X123725000Y-116453796D01*
X123725000Y-115771204D01*
X123730881Y-115711490D01*
X123747583Y-115656430D01*
X123774705Y-115605688D01*
X123811209Y-115561209D01*
X123855688Y-115524705D01*
X123906430Y-115497583D01*
X123961490Y-115480881D01*
X124021204Y-115475000D01*
X124778796Y-115475000D01*
X124838510Y-115480881D01*
X124838510Y-115480881D01*
G37*
G36*
X144332989Y-114945923D02*
X144407981Y-114968671D01*
X144477095Y-115005614D01*
X144537672Y-115055328D01*
X144587386Y-115115905D01*
X144624329Y-115185019D01*
X144647077Y-115260011D01*
X144655000Y-115340454D01*
X144655000Y-116235546D01*
X144647077Y-116315989D01*
X144624329Y-116390981D01*
X144587386Y-116460095D01*
X144537672Y-116520672D01*
X144477095Y-116570386D01*
X144407981Y-116607329D01*
X144332989Y-116630077D01*
X144252546Y-116638000D01*
X143107454Y-116638000D01*
X143027011Y-116630077D01*
X142952019Y-116607329D01*
X142882905Y-116570386D01*
X142822328Y-116520672D01*
X142772614Y-116460095D01*
X142735671Y-116390981D01*
X142712923Y-116315989D01*
X142705000Y-116235546D01*
X142705000Y-115340454D01*
X142712923Y-115260011D01*
X142735671Y-115185019D01*
X142772614Y-115115905D01*
X142822328Y-115055328D01*
X142882905Y-115005614D01*
X142952019Y-114968671D01*
X143027011Y-114945923D01*
X143107454Y-114938000D01*
X144252546Y-114938000D01*
X144332989Y-114945923D01*
X144332989Y-114945923D01*
G37*
G36*
X136372989Y-114945923D02*
X136447981Y-114968671D01*
X136517095Y-115005614D01*
X136577672Y-115055328D01*
X136627386Y-115115905D01*
X136664329Y-115185019D01*
X136687077Y-115260011D01*
X136695000Y-115340454D01*
X136695000Y-116235546D01*
X136687077Y-116315989D01*
X136664329Y-116390981D01*
X136627386Y-116460095D01*
X136577672Y-116520672D01*
X136517095Y-116570386D01*
X136447981Y-116607329D01*
X136372989Y-116630077D01*
X136292546Y-116638000D01*
X135147454Y-116638000D01*
X135067011Y-116630077D01*
X134992019Y-116607329D01*
X134922905Y-116570386D01*
X134862328Y-116520672D01*
X134812614Y-116460095D01*
X134775671Y-116390981D01*
X134752923Y-116315989D01*
X134745000Y-116235546D01*
X134745000Y-115340454D01*
X134752923Y-115260011D01*
X134775671Y-115185019D01*
X134812614Y-115115905D01*
X134862328Y-115055328D01*
X134922905Y-115005614D01*
X134992019Y-114968671D01*
X135067011Y-114945923D01*
X135147454Y-114938000D01*
X136292546Y-114938000D01*
X136372989Y-114945923D01*
X136372989Y-114945923D01*
G37*
G36*
X147294989Y-113167923D02*
X147369981Y-113190671D01*
X147439095Y-113227614D01*
X147499672Y-113277328D01*
X147549386Y-113337905D01*
X147586329Y-113407019D01*
X147609077Y-113482011D01*
X147617000Y-113562454D01*
X147617000Y-114457546D01*
X147609077Y-114537989D01*
X147586329Y-114612981D01*
X147549386Y-114682095D01*
X147499672Y-114742672D01*
X147439095Y-114792386D01*
X147369981Y-114829329D01*
X147294989Y-114852077D01*
X147214546Y-114860000D01*
X146069454Y-114860000D01*
X145989011Y-114852077D01*
X145914019Y-114829329D01*
X145844905Y-114792386D01*
X145784328Y-114742672D01*
X145734614Y-114682095D01*
X145697671Y-114612981D01*
X145674923Y-114537989D01*
X145667000Y-114457546D01*
X145667000Y-113562454D01*
X145674923Y-113482011D01*
X145697671Y-113407019D01*
X145734614Y-113337905D01*
X145784328Y-113277328D01*
X145844905Y-113227614D01*
X145914019Y-113190671D01*
X145989011Y-113167923D01*
X146069454Y-113160000D01*
X147214546Y-113160000D01*
X147294989Y-113167923D01*
X147294989Y-113167923D01*
G37*
G36*
X155254989Y-113167923D02*
X155329981Y-113190671D01*
X155399095Y-113227614D01*
X155459672Y-113277328D01*
X155509386Y-113337905D01*
X155546329Y-113407019D01*
X155569077Y-113482011D01*
X155577000Y-113562454D01*
X155577000Y-114457546D01*
X155569077Y-114537989D01*
X155546329Y-114612981D01*
X155509386Y-114682095D01*
X155459672Y-114742672D01*
X155399095Y-114792386D01*
X155329981Y-114829329D01*
X155254989Y-114852077D01*
X155174546Y-114860000D01*
X154029454Y-114860000D01*
X153949011Y-114852077D01*
X153874019Y-114829329D01*
X153804905Y-114792386D01*
X153744328Y-114742672D01*
X153694614Y-114682095D01*
X153657671Y-114612981D01*
X153634923Y-114537989D01*
X153627000Y-114457546D01*
X153627000Y-113562454D01*
X153634923Y-113482011D01*
X153657671Y-113407019D01*
X153694614Y-113337905D01*
X153744328Y-113277328D01*
X153804905Y-113227614D01*
X153874019Y-113190671D01*
X153949011Y-113167923D01*
X154029454Y-113160000D01*
X155174546Y-113160000D01*
X155254989Y-113167923D01*
X155254989Y-113167923D01*
G37*
G36*
X125450989Y-113167923D02*
X125525981Y-113190671D01*
X125595095Y-113227614D01*
X125655672Y-113277328D01*
X125705386Y-113337905D01*
X125742329Y-113407019D01*
X125765077Y-113482011D01*
X125773000Y-113562454D01*
X125773000Y-114457546D01*
X125765077Y-114537989D01*
X125742329Y-114612981D01*
X125705386Y-114682095D01*
X125655672Y-114742672D01*
X125595095Y-114792386D01*
X125525981Y-114829329D01*
X125450989Y-114852077D01*
X125370546Y-114860000D01*
X124225454Y-114860000D01*
X124145011Y-114852077D01*
X124070019Y-114829329D01*
X124000905Y-114792386D01*
X123940328Y-114742672D01*
X123890614Y-114682095D01*
X123853671Y-114612981D01*
X123830923Y-114537989D01*
X123823000Y-114457546D01*
X123823000Y-113562454D01*
X123830923Y-113482011D01*
X123853671Y-113407019D01*
X123890614Y-113337905D01*
X123940328Y-113277328D01*
X124000905Y-113227614D01*
X124070019Y-113190671D01*
X124145011Y-113167923D01*
X124225454Y-113160000D01*
X125370546Y-113160000D01*
X125450989Y-113167923D01*
X125450989Y-113167923D01*
G37*
G36*
X133410989Y-113167923D02*
X133485981Y-113190671D01*
X133555095Y-113227614D01*
X133615672Y-113277328D01*
X133665386Y-113337905D01*
X133702329Y-113407019D01*
X133725077Y-113482011D01*
X133733000Y-113562454D01*
X133733000Y-114457546D01*
X133725077Y-114537989D01*
X133702329Y-114612981D01*
X133665386Y-114682095D01*
X133615672Y-114742672D01*
X133555095Y-114792386D01*
X133485981Y-114829329D01*
X133410989Y-114852077D01*
X133330546Y-114860000D01*
X132185454Y-114860000D01*
X132105011Y-114852077D01*
X132030019Y-114829329D01*
X131960905Y-114792386D01*
X131900328Y-114742672D01*
X131850614Y-114682095D01*
X131813671Y-114612981D01*
X131790923Y-114537989D01*
X131783000Y-114457546D01*
X131783000Y-113562454D01*
X131790923Y-113482011D01*
X131813671Y-113407019D01*
X131850614Y-113337905D01*
X131900328Y-113277328D01*
X131960905Y-113227614D01*
X132030019Y-113190671D01*
X132105011Y-113167923D01*
X132185454Y-113160000D01*
X133330546Y-113160000D01*
X133410989Y-113167923D01*
X133410989Y-113167923D01*
G37*
G36*
X136372989Y-110445923D02*
X136447981Y-110468671D01*
X136517095Y-110505614D01*
X136577672Y-110555328D01*
X136627386Y-110615905D01*
X136664329Y-110685019D01*
X136687077Y-110760011D01*
X136695000Y-110840454D01*
X136695000Y-111735546D01*
X136687077Y-111815989D01*
X136664329Y-111890981D01*
X136627386Y-111960095D01*
X136577672Y-112020672D01*
X136517095Y-112070386D01*
X136447981Y-112107329D01*
X136372989Y-112130077D01*
X136292546Y-112138000D01*
X135147454Y-112138000D01*
X135067011Y-112130077D01*
X134992019Y-112107329D01*
X134922905Y-112070386D01*
X134862328Y-112020672D01*
X134812614Y-111960095D01*
X134775671Y-111890981D01*
X134752923Y-111815989D01*
X134745000Y-111735546D01*
X134745000Y-110840454D01*
X134752923Y-110760011D01*
X134775671Y-110685019D01*
X134812614Y-110615905D01*
X134862328Y-110555328D01*
X134922905Y-110505614D01*
X134992019Y-110468671D01*
X135067011Y-110445923D01*
X135147454Y-110438000D01*
X136292546Y-110438000D01*
X136372989Y-110445923D01*
X136372989Y-110445923D01*
G37*
G36*
X144332989Y-110445923D02*
X144407981Y-110468671D01*
X144477095Y-110505614D01*
X144537672Y-110555328D01*
X144587386Y-110615905D01*
X144624329Y-110685019D01*
X144647077Y-110760011D01*
X144655000Y-110840454D01*
X144655000Y-111735546D01*
X144647077Y-111815989D01*
X144624329Y-111890981D01*
X144587386Y-111960095D01*
X144537672Y-112020672D01*
X144477095Y-112070386D01*
X144407981Y-112107329D01*
X144332989Y-112130077D01*
X144252546Y-112138000D01*
X143107454Y-112138000D01*
X143027011Y-112130077D01*
X142952019Y-112107329D01*
X142882905Y-112070386D01*
X142822328Y-112020672D01*
X142772614Y-111960095D01*
X142735671Y-111890981D01*
X142712923Y-111815989D01*
X142705000Y-111735546D01*
X142705000Y-110840454D01*
X142712923Y-110760011D01*
X142735671Y-110685019D01*
X142772614Y-110615905D01*
X142822328Y-110555328D01*
X142882905Y-110505614D01*
X142952019Y-110468671D01*
X143027011Y-110445923D01*
X143107454Y-110438000D01*
X144252546Y-110438000D01*
X144332989Y-110445923D01*
X144332989Y-110445923D01*
G37*
G36*
X155254989Y-108667923D02*
X155329981Y-108690671D01*
X155399095Y-108727614D01*
X155459672Y-108777328D01*
X155509386Y-108837905D01*
X155546329Y-108907019D01*
X155569077Y-108982011D01*
X155577000Y-109062454D01*
X155577000Y-109957546D01*
X155569077Y-110037989D01*
X155546329Y-110112981D01*
X155509386Y-110182095D01*
X155459672Y-110242672D01*
X155399095Y-110292386D01*
X155329981Y-110329329D01*
X155254989Y-110352077D01*
X155174546Y-110360000D01*
X154029454Y-110360000D01*
X153949011Y-110352077D01*
X153874019Y-110329329D01*
X153804905Y-110292386D01*
X153744328Y-110242672D01*
X153694614Y-110182095D01*
X153657671Y-110112981D01*
X153634923Y-110037989D01*
X153627000Y-109957546D01*
X153627000Y-109062454D01*
X153634923Y-108982011D01*
X153657671Y-108907019D01*
X153694614Y-108837905D01*
X153744328Y-108777328D01*
X153804905Y-108727614D01*
X153874019Y-108690671D01*
X153949011Y-108667923D01*
X154029454Y-108660000D01*
X155174546Y-108660000D01*
X155254989Y-108667923D01*
X155254989Y-108667923D01*
G37*
G36*
X147294989Y-108667923D02*
X147369981Y-108690671D01*
X147439095Y-108727614D01*
X147499672Y-108777328D01*
X147549386Y-108837905D01*
X147586329Y-108907019D01*
X147609077Y-108982011D01*
X147617000Y-109062454D01*
X147617000Y-109957546D01*
X147609077Y-110037989D01*
X147586329Y-110112981D01*
X147549386Y-110182095D01*
X147499672Y-110242672D01*
X147439095Y-110292386D01*
X147369981Y-110329329D01*
X147294989Y-110352077D01*
X147214546Y-110360000D01*
X146069454Y-110360000D01*
X145989011Y-110352077D01*
X145914019Y-110329329D01*
X145844905Y-110292386D01*
X145784328Y-110242672D01*
X145734614Y-110182095D01*
X145697671Y-110112981D01*
X145674923Y-110037989D01*
X145667000Y-109957546D01*
X145667000Y-109062454D01*
X145674923Y-108982011D01*
X145697671Y-108907019D01*
X145734614Y-108837905D01*
X145784328Y-108777328D01*
X145844905Y-108727614D01*
X145914019Y-108690671D01*
X145989011Y-108667923D01*
X146069454Y-108660000D01*
X147214546Y-108660000D01*
X147294989Y-108667923D01*
X147294989Y-108667923D01*
G37*
G36*
X133410989Y-108667923D02*
X133485981Y-108690671D01*
X133555095Y-108727614D01*
X133615672Y-108777328D01*
X133665386Y-108837905D01*
X133702329Y-108907019D01*
X133725077Y-108982011D01*
X133733000Y-109062454D01*
X133733000Y-109957546D01*
X133725077Y-110037989D01*
X133702329Y-110112981D01*
X133665386Y-110182095D01*
X133615672Y-110242672D01*
X133555095Y-110292386D01*
X133485981Y-110329329D01*
X133410989Y-110352077D01*
X133330546Y-110360000D01*
X132185454Y-110360000D01*
X132105011Y-110352077D01*
X132030019Y-110329329D01*
X131960905Y-110292386D01*
X131900328Y-110242672D01*
X131850614Y-110182095D01*
X131813671Y-110112981D01*
X131790923Y-110037989D01*
X131783000Y-109957546D01*
X131783000Y-109062454D01*
X131790923Y-108982011D01*
X131813671Y-108907019D01*
X131850614Y-108837905D01*
X131900328Y-108777328D01*
X131960905Y-108727614D01*
X132030019Y-108690671D01*
X132105011Y-108667923D01*
X132185454Y-108660000D01*
X133330546Y-108660000D01*
X133410989Y-108667923D01*
X133410989Y-108667923D01*
G37*
G36*
X125450989Y-108667923D02*
X125525981Y-108690671D01*
X125595095Y-108727614D01*
X125655672Y-108777328D01*
X125705386Y-108837905D01*
X125742329Y-108907019D01*
X125765077Y-108982011D01*
X125773000Y-109062454D01*
X125773000Y-109957546D01*
X125765077Y-110037989D01*
X125742329Y-110112981D01*
X125705386Y-110182095D01*
X125655672Y-110242672D01*
X125595095Y-110292386D01*
X125525981Y-110329329D01*
X125450989Y-110352077D01*
X125370546Y-110360000D01*
X124225454Y-110360000D01*
X124145011Y-110352077D01*
X124070019Y-110329329D01*
X124000905Y-110292386D01*
X123940328Y-110242672D01*
X123890614Y-110182095D01*
X123853671Y-110112981D01*
X123830923Y-110037989D01*
X123823000Y-109957546D01*
X123823000Y-109062454D01*
X123830923Y-108982011D01*
X123853671Y-108907019D01*
X123890614Y-108837905D01*
X123940328Y-108777328D01*
X124000905Y-108727614D01*
X124070019Y-108690671D01*
X124145011Y-108667923D01*
X124225454Y-108660000D01*
X125370546Y-108660000D01*
X125450989Y-108667923D01*
X125450989Y-108667923D01*
G37*
G36*
X142893388Y-107906361D02*
X142953138Y-107924486D01*
X143008204Y-107953921D01*
X143056470Y-107993530D01*
X143096079Y-108041796D01*
X143125514Y-108096862D01*
X143143639Y-108156612D01*
X143150000Y-108221204D01*
X143150000Y-109378796D01*
X143143639Y-109443388D01*
X143125514Y-109503138D01*
X143096079Y-109558204D01*
X143056470Y-109606470D01*
X143008204Y-109646079D01*
X142953138Y-109675514D01*
X142893388Y-109693639D01*
X142828796Y-109700000D01*
X142096204Y-109700000D01*
X142031612Y-109693639D01*
X141971862Y-109675514D01*
X141916796Y-109646079D01*
X141868530Y-109606470D01*
X141828921Y-109558204D01*
X141799486Y-109503138D01*
X141781361Y-109443388D01*
X141775000Y-109378796D01*
X141775000Y-108221204D01*
X141781361Y-108156612D01*
X141799486Y-108096862D01*
X141828921Y-108041796D01*
X141868530Y-107993530D01*
X141916796Y-107953921D01*
X141971862Y-107924486D01*
X142031612Y-107906361D01*
X142096204Y-107900000D01*
X142828796Y-107900000D01*
X142893388Y-107906361D01*
X142893388Y-107906361D01*
G37*
G36*
X144768388Y-107906361D02*
X144828138Y-107924486D01*
X144883204Y-107953921D01*
X144931470Y-107993530D01*
X144971079Y-108041796D01*
X145000514Y-108096862D01*
X145018639Y-108156612D01*
X145025000Y-108221204D01*
X145025000Y-109378796D01*
X145018639Y-109443388D01*
X145000514Y-109503138D01*
X144971079Y-109558204D01*
X144931470Y-109606470D01*
X144883204Y-109646079D01*
X144828138Y-109675514D01*
X144768388Y-109693639D01*
X144703796Y-109700000D01*
X143971204Y-109700000D01*
X143906612Y-109693639D01*
X143846862Y-109675514D01*
X143791796Y-109646079D01*
X143743530Y-109606470D01*
X143703921Y-109558204D01*
X143674486Y-109503138D01*
X143656361Y-109443388D01*
X143650000Y-109378796D01*
X143650000Y-108221204D01*
X143656361Y-108156612D01*
X143674486Y-108096862D01*
X143703921Y-108041796D01*
X143743530Y-107993530D01*
X143791796Y-107953921D01*
X143846862Y-107924486D01*
X143906612Y-107906361D01*
X143971204Y-107900000D01*
X144703796Y-107900000D01*
X144768388Y-107906361D01*
X144768388Y-107906361D01*
G37*
G36*
X143325000Y-98275000D02*
X143325961Y-98284755D01*
X143328806Y-98294134D01*
X143333427Y-98302779D01*
X143339645Y-98310355D01*
X143347221Y-98316573D01*
X143355866Y-98321194D01*
X143365245Y-98324039D01*
X143375000Y-98325000D01*
X145300000Y-98325000D01*
X145300000Y-104875000D01*
X143375000Y-104875000D01*
X143365245Y-104875961D01*
X143355866Y-104878806D01*
X143347221Y-104883427D01*
X143339645Y-104889645D01*
X143333427Y-104897221D01*
X143328806Y-104905866D01*
X143325961Y-104915245D01*
X143325000Y-104925000D01*
X143325000Y-106850000D01*
X136775000Y-106850000D01*
X136775000Y-104925000D01*
X136774039Y-104915245D01*
X136771194Y-104905866D01*
X136766573Y-104897221D01*
X136760355Y-104889645D01*
X136752779Y-104883427D01*
X136744134Y-104878806D01*
X136734755Y-104875961D01*
X136725000Y-104875000D01*
X134800000Y-104875000D01*
X134800000Y-98400000D01*
X136800000Y-98400000D01*
X136800000Y-104800000D01*
X136800961Y-104809755D01*
X136803806Y-104819134D01*
X136808427Y-104827779D01*
X136814645Y-104835355D01*
X136822221Y-104841573D01*
X136830866Y-104846194D01*
X136840245Y-104849039D01*
X136850000Y-104850000D01*
X143250000Y-104850000D01*
X143259755Y-104849039D01*
X143269134Y-104846194D01*
X143277779Y-104841573D01*
X143285355Y-104835355D01*
X143291573Y-104827779D01*
X143296194Y-104819134D01*
X143299039Y-104809755D01*
X143300000Y-104800000D01*
X143300000Y-98400000D01*
X143299039Y-98390245D01*
X143296194Y-98380866D01*
X143291573Y-98372221D01*
X143285355Y-98364645D01*
X143277779Y-98358427D01*
X143269134Y-98353806D01*
X143259755Y-98350961D01*
X143250000Y-98350000D01*
X136850000Y-98350000D01*
X136840245Y-98350961D01*
X136830866Y-98353806D01*
X136822221Y-98358427D01*
X136814645Y-98364645D01*
X136808427Y-98372221D01*
X136803806Y-98380866D01*
X136800961Y-98390245D01*
X136800000Y-98400000D01*
X134800000Y-98400000D01*
X134800000Y-98325000D01*
X136725000Y-98325000D01*
X136734755Y-98324039D01*
X136744134Y-98321194D01*
X136752779Y-98316573D01*
X136760355Y-98310355D01*
X136766573Y-98302779D01*
X136771194Y-98294134D01*
X136774039Y-98284755D01*
X136775000Y-98275000D01*
X136775000Y-96350000D01*
X143325000Y-96350000D01*
X143325000Y-98275000D01*
X143325000Y-98275000D01*
G37*
G36*
X152623600Y-103853600D02*
X150496400Y-103853600D01*
X150496400Y-101726400D01*
X152623600Y-101726400D01*
X152623600Y-103853600D01*
X152623600Y-103853600D01*
G37*
G36*
X154308502Y-101741789D02*
X154508991Y-101802607D01*
X154693761Y-101901368D01*
X154693763Y-101901370D01*
X154855718Y-102034282D01*
X154966758Y-102169586D01*
X154988632Y-102196239D01*
X155087393Y-102381009D01*
X155148211Y-102581498D01*
X155168746Y-102790000D01*
X155148211Y-102998502D01*
X155087393Y-103198991D01*
X154988632Y-103383761D01*
X154988630Y-103383763D01*
X154855718Y-103545718D01*
X154720414Y-103656758D01*
X154693761Y-103678632D01*
X154508991Y-103777393D01*
X154308502Y-103838211D01*
X154152251Y-103853600D01*
X154047749Y-103853600D01*
X153891498Y-103838211D01*
X153691009Y-103777393D01*
X153506239Y-103678632D01*
X153479586Y-103656758D01*
X153344282Y-103545718D01*
X153211370Y-103383763D01*
X153211368Y-103383761D01*
X153112607Y-103198991D01*
X153051789Y-102998502D01*
X153031254Y-102790000D01*
X153051789Y-102581498D01*
X153112607Y-102381009D01*
X153211368Y-102196239D01*
X153233242Y-102169586D01*
X153344282Y-102034282D01*
X153506237Y-101901370D01*
X153506239Y-101901368D01*
X153691009Y-101802607D01*
X153891498Y-101741789D01*
X154047749Y-101726400D01*
X154152251Y-101726400D01*
X154308502Y-101741789D01*
X154308502Y-101741789D01*
G37*
G36*
X131837743Y-101158883D02*
X131922115Y-101184477D01*
X131999873Y-101226040D01*
X132068027Y-101281973D01*
X132123960Y-101350127D01*
X132165523Y-101427885D01*
X132191117Y-101512257D01*
X132200000Y-101602454D01*
X132200000Y-103297546D01*
X132191117Y-103387743D01*
X132165523Y-103472115D01*
X132123960Y-103549873D01*
X132068027Y-103618027D01*
X131999873Y-103673960D01*
X131922115Y-103715523D01*
X131837743Y-103741117D01*
X131747546Y-103750000D01*
X130752454Y-103750000D01*
X130662257Y-103741117D01*
X130577885Y-103715523D01*
X130500127Y-103673960D01*
X130431973Y-103618027D01*
X130376040Y-103549873D01*
X130334477Y-103472115D01*
X130308883Y-103387743D01*
X130300000Y-103297546D01*
X130300000Y-101602454D01*
X130308883Y-101512257D01*
X130334477Y-101427885D01*
X130376040Y-101350127D01*
X130431973Y-101281973D01*
X130500127Y-101226040D01*
X130577885Y-101184477D01*
X130662257Y-101158883D01*
X130752454Y-101150000D01*
X131747546Y-101150000D01*
X131837743Y-101158883D01*
X131837743Y-101158883D01*
G37*
G36*
X125437743Y-101158883D02*
X125522115Y-101184477D01*
X125599873Y-101226040D01*
X125668027Y-101281973D01*
X125723960Y-101350127D01*
X125765523Y-101427885D01*
X125791117Y-101512257D01*
X125800000Y-101602454D01*
X125800000Y-103297546D01*
X125791117Y-103387743D01*
X125765523Y-103472115D01*
X125723960Y-103549873D01*
X125668027Y-103618027D01*
X125599873Y-103673960D01*
X125522115Y-103715523D01*
X125437743Y-103741117D01*
X125347546Y-103750000D01*
X124352454Y-103750000D01*
X124262257Y-103741117D01*
X124177885Y-103715523D01*
X124100127Y-103673960D01*
X124031973Y-103618027D01*
X123976040Y-103549873D01*
X123934477Y-103472115D01*
X123908883Y-103387743D01*
X123900000Y-103297546D01*
X123900000Y-101602454D01*
X123908883Y-101512257D01*
X123934477Y-101427885D01*
X123976040Y-101350127D01*
X124031973Y-101281973D01*
X124100127Y-101226040D01*
X124177885Y-101184477D01*
X124262257Y-101158883D01*
X124352454Y-101150000D01*
X125347546Y-101150000D01*
X125437743Y-101158883D01*
X125437743Y-101158883D01*
G37*
G36*
X151768502Y-99201789D02*
X151968991Y-99262607D01*
X152153761Y-99361368D01*
X152153763Y-99361370D01*
X152315718Y-99494282D01*
X152426758Y-99629586D01*
X152448632Y-99656239D01*
X152547393Y-99841009D01*
X152608211Y-100041498D01*
X152628746Y-100250000D01*
X152608211Y-100458502D01*
X152547393Y-100658991D01*
X152448632Y-100843761D01*
X152448630Y-100843763D01*
X152315718Y-101005718D01*
X152180414Y-101116758D01*
X152153761Y-101138632D01*
X151968991Y-101237393D01*
X151768502Y-101298211D01*
X151612251Y-101313600D01*
X151507749Y-101313600D01*
X151351498Y-101298211D01*
X151151009Y-101237393D01*
X150966239Y-101138632D01*
X150939586Y-101116758D01*
X150804282Y-101005718D01*
X150671370Y-100843763D01*
X150671368Y-100843761D01*
X150572607Y-100658991D01*
X150511789Y-100458502D01*
X150491254Y-100250000D01*
X150511789Y-100041498D01*
X150572607Y-99841009D01*
X150671368Y-99656239D01*
X150693242Y-99629586D01*
X150804282Y-99494282D01*
X150966237Y-99361370D01*
X150966239Y-99361368D01*
X151151009Y-99262607D01*
X151351498Y-99201789D01*
X151507749Y-99186400D01*
X151612251Y-99186400D01*
X151768502Y-99201789D01*
X151768502Y-99201789D01*
G37*
G36*
X154308502Y-99201789D02*
X154508991Y-99262607D01*
X154693761Y-99361368D01*
X154693763Y-99361370D01*
X154855718Y-99494282D01*
X154966758Y-99629586D01*
X154988632Y-99656239D01*
X155087393Y-99841009D01*
X155148211Y-100041498D01*
X155168746Y-100250000D01*
X155148211Y-100458502D01*
X155087393Y-100658991D01*
X154988632Y-100843761D01*
X154988630Y-100843763D01*
X154855718Y-101005718D01*
X154720414Y-101116758D01*
X154693761Y-101138632D01*
X154508991Y-101237393D01*
X154308502Y-101298211D01*
X154152251Y-101313600D01*
X154047749Y-101313600D01*
X153891498Y-101298211D01*
X153691009Y-101237393D01*
X153506239Y-101138632D01*
X153479586Y-101116758D01*
X153344282Y-101005718D01*
X153211370Y-100843763D01*
X153211368Y-100843761D01*
X153112607Y-100658991D01*
X153051789Y-100458502D01*
X153031254Y-100250000D01*
X153051789Y-100041498D01*
X153112607Y-99841009D01*
X153211368Y-99656239D01*
X153233242Y-99629586D01*
X153344282Y-99494282D01*
X153506237Y-99361370D01*
X153506239Y-99361368D01*
X153691009Y-99262607D01*
X153891498Y-99201789D01*
X154047749Y-99186400D01*
X154152251Y-99186400D01*
X154308502Y-99201789D01*
X154308502Y-99201789D01*
G37*
G36*
X151768502Y-96661789D02*
X151968991Y-96722607D01*
X152153761Y-96821368D01*
X152153763Y-96821370D01*
X152315718Y-96954282D01*
X152426758Y-97089586D01*
X152448632Y-97116239D01*
X152547393Y-97301009D01*
X152608211Y-97501498D01*
X152628746Y-97710000D01*
X152608211Y-97918502D01*
X152547393Y-98118991D01*
X152448632Y-98303761D01*
X152448630Y-98303763D01*
X152315718Y-98465718D01*
X152180414Y-98576758D01*
X152153761Y-98598632D01*
X151968991Y-98697393D01*
X151768502Y-98758211D01*
X151612251Y-98773600D01*
X151507749Y-98773600D01*
X151351498Y-98758211D01*
X151151009Y-98697393D01*
X150966239Y-98598632D01*
X150939586Y-98576758D01*
X150804282Y-98465718D01*
X150671370Y-98303763D01*
X150671368Y-98303761D01*
X150572607Y-98118991D01*
X150511789Y-97918502D01*
X150491254Y-97710000D01*
X150511789Y-97501498D01*
X150572607Y-97301009D01*
X150671368Y-97116239D01*
X150693242Y-97089586D01*
X150804282Y-96954282D01*
X150966237Y-96821370D01*
X150966239Y-96821368D01*
X151151009Y-96722607D01*
X151351498Y-96661789D01*
X151507749Y-96646400D01*
X151612251Y-96646400D01*
X151768502Y-96661789D01*
X151768502Y-96661789D01*
G37*
G36*
X154308502Y-96661789D02*
X154508991Y-96722607D01*
X154693761Y-96821368D01*
X154693763Y-96821370D01*
X154855718Y-96954282D01*
X154966758Y-97089586D01*
X154988632Y-97116239D01*
X155087393Y-97301009D01*
X155148211Y-97501498D01*
X155168746Y-97710000D01*
X155148211Y-97918502D01*
X155087393Y-98118991D01*
X154988632Y-98303761D01*
X154988630Y-98303763D01*
X154855718Y-98465718D01*
X154720414Y-98576758D01*
X154693761Y-98598632D01*
X154508991Y-98697393D01*
X154308502Y-98758211D01*
X154152251Y-98773600D01*
X154047749Y-98773600D01*
X153891498Y-98758211D01*
X153691009Y-98697393D01*
X153506239Y-98598632D01*
X153479586Y-98576758D01*
X153344282Y-98465718D01*
X153211370Y-98303763D01*
X153211368Y-98303761D01*
X153112607Y-98118991D01*
X153051789Y-97918502D01*
X153031254Y-97710000D01*
X153051789Y-97501498D01*
X153112607Y-97301009D01*
X153211368Y-97116239D01*
X153233242Y-97089586D01*
X153344282Y-96954282D01*
X153506237Y-96821370D01*
X153506239Y-96821368D01*
X153691009Y-96722607D01*
X153891498Y-96661789D01*
X154047749Y-96646400D01*
X154152251Y-96646400D01*
X154308502Y-96661789D01*
X154308502Y-96661789D01*
G37*
G36*
X125154844Y-92938809D02*
X125325560Y-92990596D01*
X125399896Y-93013145D01*
X125437674Y-93033338D01*
X125625734Y-93133858D01*
X125625736Y-93133860D01*
X125823687Y-93296313D01*
X125959406Y-93461689D01*
X125986142Y-93494266D01*
X126062827Y-93637733D01*
X126106855Y-93720104D01*
X126122381Y-93771286D01*
X126181191Y-93965156D01*
X126206290Y-94220000D01*
X126181191Y-94474844D01*
X126129404Y-94645560D01*
X126106855Y-94719896D01*
X126062827Y-94802267D01*
X125986142Y-94945734D01*
X125986140Y-94945736D01*
X125823687Y-95143687D01*
X125658311Y-95279406D01*
X125625734Y-95306142D01*
X125482267Y-95382827D01*
X125399896Y-95426855D01*
X125325560Y-95449404D01*
X125154844Y-95501191D01*
X124963867Y-95520000D01*
X124836133Y-95520000D01*
X124645156Y-95501191D01*
X124474440Y-95449404D01*
X124400104Y-95426855D01*
X124317733Y-95382827D01*
X124174266Y-95306142D01*
X124141689Y-95279406D01*
X123976313Y-95143687D01*
X123813860Y-94945736D01*
X123813858Y-94945734D01*
X123737173Y-94802267D01*
X123693145Y-94719896D01*
X123670596Y-94645560D01*
X123618809Y-94474844D01*
X123593710Y-94220000D01*
X123618809Y-93965156D01*
X123677619Y-93771286D01*
X123693145Y-93720104D01*
X123737173Y-93637733D01*
X123813858Y-93494266D01*
X123840594Y-93461689D01*
X123976313Y-93296313D01*
X124174264Y-93133860D01*
X124174266Y-93133858D01*
X124362326Y-93033338D01*
X124400104Y-93013145D01*
X124474440Y-92990596D01*
X124645156Y-92938809D01*
X124836133Y-92920000D01*
X124963867Y-92920000D01*
X125154844Y-92938809D01*
X125154844Y-92938809D01*
G37*
G36*
X128454844Y-92938809D02*
X128625560Y-92990596D01*
X128699896Y-93013145D01*
X128737674Y-93033338D01*
X128925734Y-93133858D01*
X128925736Y-93133860D01*
X129123687Y-93296313D01*
X129259406Y-93461689D01*
X129286142Y-93494266D01*
X129362827Y-93637733D01*
X129406855Y-93720104D01*
X129422381Y-93771286D01*
X129481191Y-93965156D01*
X129506290Y-94220000D01*
X129481191Y-94474844D01*
X129429404Y-94645560D01*
X129406855Y-94719896D01*
X129362827Y-94802267D01*
X129286142Y-94945734D01*
X129286140Y-94945736D01*
X129123687Y-95143687D01*
X128958311Y-95279406D01*
X128925734Y-95306142D01*
X128782267Y-95382827D01*
X128699896Y-95426855D01*
X128625560Y-95449404D01*
X128454844Y-95501191D01*
X128263867Y-95520000D01*
X128136133Y-95520000D01*
X127945156Y-95501191D01*
X127774440Y-95449404D01*
X127700104Y-95426855D01*
X127617733Y-95382827D01*
X127474266Y-95306142D01*
X127441689Y-95279406D01*
X127276313Y-95143687D01*
X127113860Y-94945736D01*
X127113858Y-94945734D01*
X127037173Y-94802267D01*
X126993145Y-94719896D01*
X126970596Y-94645560D01*
X126918809Y-94474844D01*
X126893710Y-94220000D01*
X126918809Y-93965156D01*
X126977619Y-93771286D01*
X126993145Y-93720104D01*
X127037173Y-93637733D01*
X127113858Y-93494266D01*
X127140594Y-93461689D01*
X127276313Y-93296313D01*
X127474264Y-93133860D01*
X127474266Y-93133858D01*
X127662326Y-93033338D01*
X127700104Y-93013145D01*
X127774440Y-92990596D01*
X127945156Y-92938809D01*
X128136133Y-92920000D01*
X128263867Y-92920000D01*
X128454844Y-92938809D01*
X128454844Y-92938809D01*
G37*
G36*
X135033480Y-92331001D02*
X135089712Y-92348059D01*
X135141538Y-92375761D01*
X135186961Y-92413039D01*
X135224239Y-92458462D01*
X135251941Y-92510288D01*
X135268999Y-92566520D01*
X135275000Y-92627454D01*
X135275000Y-93672546D01*
X135268999Y-93733480D01*
X135251941Y-93789712D01*
X135224239Y-93841538D01*
X135186961Y-93886961D01*
X135141538Y-93924239D01*
X135089712Y-93951941D01*
X135033480Y-93968999D01*
X134972546Y-93975000D01*
X133427454Y-93975000D01*
X133366520Y-93968999D01*
X133310288Y-93951941D01*
X133258462Y-93924239D01*
X133213039Y-93886961D01*
X133175761Y-93841538D01*
X133148059Y-93789712D01*
X133131001Y-93733480D01*
X133125000Y-93672546D01*
X133125000Y-92627454D01*
X133131001Y-92566520D01*
X133148059Y-92510288D01*
X133175761Y-92458462D01*
X133213039Y-92413039D01*
X133258462Y-92375761D01*
X133310288Y-92348059D01*
X133366520Y-92331001D01*
X133427454Y-92325000D01*
X134972546Y-92325000D01*
X135033480Y-92331001D01*
X135033480Y-92331001D01*
G37*
G36*
X137791480Y-92331001D02*
X137847712Y-92348059D01*
X137899538Y-92375761D01*
X137944961Y-92413039D01*
X137982239Y-92458462D01*
X138009941Y-92510288D01*
X138026999Y-92566520D01*
X138033000Y-92627454D01*
X138033000Y-93672546D01*
X138026999Y-93733480D01*
X138009941Y-93789712D01*
X137982239Y-93841538D01*
X137944961Y-93886961D01*
X137899538Y-93924239D01*
X137847712Y-93951941D01*
X137791480Y-93968999D01*
X137730546Y-93975000D01*
X136185454Y-93975000D01*
X136124520Y-93968999D01*
X136068288Y-93951941D01*
X136016462Y-93924239D01*
X135971039Y-93886961D01*
X135933761Y-93841538D01*
X135906059Y-93789712D01*
X135889001Y-93733480D01*
X135883000Y-93672546D01*
X135883000Y-92627454D01*
X135889001Y-92566520D01*
X135906059Y-92510288D01*
X135933761Y-92458462D01*
X135971039Y-92413039D01*
X136016462Y-92375761D01*
X136068288Y-92348059D01*
X136124520Y-92331001D01*
X136185454Y-92325000D01*
X137730546Y-92325000D01*
X137791480Y-92331001D01*
X137791480Y-92331001D01*
G37*
G36*
X140433480Y-92331001D02*
X140489712Y-92348059D01*
X140541538Y-92375761D01*
X140586961Y-92413039D01*
X140624239Y-92458462D01*
X140651941Y-92510288D01*
X140668999Y-92566520D01*
X140675000Y-92627454D01*
X140675000Y-93672546D01*
X140668999Y-93733480D01*
X140651941Y-93789712D01*
X140624239Y-93841538D01*
X140586961Y-93886961D01*
X140541538Y-93924239D01*
X140489712Y-93951941D01*
X140433480Y-93968999D01*
X140372546Y-93975000D01*
X138827454Y-93975000D01*
X138766520Y-93968999D01*
X138710288Y-93951941D01*
X138658462Y-93924239D01*
X138613039Y-93886961D01*
X138575761Y-93841538D01*
X138548059Y-93789712D01*
X138531001Y-93733480D01*
X138525000Y-93672546D01*
X138525000Y-92627454D01*
X138531001Y-92566520D01*
X138548059Y-92510288D01*
X138575761Y-92458462D01*
X138613039Y-92413039D01*
X138658462Y-92375761D01*
X138710288Y-92348059D01*
X138766520Y-92331001D01*
X138827454Y-92325000D01*
X140372546Y-92325000D01*
X140433480Y-92331001D01*
X140433480Y-92331001D01*
G37*
G36*
X142538510Y-91905881D02*
X142593570Y-91922583D01*
X142644312Y-91949705D01*
X142688791Y-91986209D01*
X142725295Y-92030688D01*
X142752417Y-92081430D01*
X142769119Y-92136490D01*
X142775000Y-92196204D01*
X142775000Y-92878796D01*
X142769119Y-92938510D01*
X142752417Y-92993570D01*
X142725295Y-93044312D01*
X142688791Y-93088791D01*
X142644312Y-93125295D01*
X142593570Y-93152417D01*
X142538510Y-93169119D01*
X142478796Y-93175000D01*
X141721204Y-93175000D01*
X141661490Y-93169119D01*
X141606430Y-93152417D01*
X141555688Y-93125295D01*
X141511209Y-93088791D01*
X141474705Y-93044312D01*
X141447583Y-92993570D01*
X141430881Y-92938510D01*
X141425000Y-92878796D01*
X141425000Y-92196204D01*
X141430881Y-92136490D01*
X141447583Y-92081430D01*
X141474705Y-92030688D01*
X141511209Y-91986209D01*
X141555688Y-91949705D01*
X141606430Y-91922583D01*
X141661490Y-91905881D01*
X141721204Y-91900000D01*
X142478796Y-91900000D01*
X142538510Y-91905881D01*
X142538510Y-91905881D01*
G37*
G36*
X142538510Y-90330881D02*
X142593570Y-90347583D01*
X142644312Y-90374705D01*
X142688791Y-90411209D01*
X142725295Y-90455688D01*
X142752417Y-90506430D01*
X142769119Y-90561490D01*
X142775000Y-90621204D01*
X142775000Y-91303796D01*
X142769119Y-91363510D01*
X142752417Y-91418570D01*
X142725295Y-91469312D01*
X142688791Y-91513791D01*
X142644312Y-91550295D01*
X142593570Y-91577417D01*
X142538510Y-91594119D01*
X142478796Y-91600000D01*
X141721204Y-91600000D01*
X141661490Y-91594119D01*
X141606430Y-91577417D01*
X141555688Y-91550295D01*
X141511209Y-91513791D01*
X141474705Y-91469312D01*
X141447583Y-91418570D01*
X141430881Y-91363510D01*
X141425000Y-91303796D01*
X141425000Y-90621204D01*
X141430881Y-90561490D01*
X141447583Y-90506430D01*
X141474705Y-90455688D01*
X141511209Y-90411209D01*
X141555688Y-90374705D01*
X141606430Y-90347583D01*
X141661490Y-90330881D01*
X141721204Y-90325000D01*
X142478796Y-90325000D01*
X142538510Y-90330881D01*
X142538510Y-90330881D01*
G37*
G36*
X135033480Y-89531001D02*
X135089712Y-89548059D01*
X135141538Y-89575761D01*
X135186961Y-89613039D01*
X135224239Y-89658462D01*
X135251941Y-89710288D01*
X135268999Y-89766520D01*
X135275000Y-89827454D01*
X135275000Y-90872546D01*
X135268999Y-90933480D01*
X135251941Y-90989712D01*
X135224239Y-91041538D01*
X135186961Y-91086961D01*
X135141538Y-91124239D01*
X135089712Y-91151941D01*
X135033480Y-91168999D01*
X134972546Y-91175000D01*
X133427454Y-91175000D01*
X133366520Y-91168999D01*
X133310288Y-91151941D01*
X133258462Y-91124239D01*
X133213039Y-91086961D01*
X133175761Y-91041538D01*
X133148059Y-90989712D01*
X133131001Y-90933480D01*
X133125000Y-90872546D01*
X133125000Y-89827454D01*
X133131001Y-89766520D01*
X133148059Y-89710288D01*
X133175761Y-89658462D01*
X133213039Y-89613039D01*
X133258462Y-89575761D01*
X133310288Y-89548059D01*
X133366520Y-89531001D01*
X133427454Y-89525000D01*
X134972546Y-89525000D01*
X135033480Y-89531001D01*
X135033480Y-89531001D01*
G37*
G36*
X140433480Y-89531001D02*
X140489712Y-89548059D01*
X140541538Y-89575761D01*
X140586961Y-89613039D01*
X140624239Y-89658462D01*
X140651941Y-89710288D01*
X140668999Y-89766520D01*
X140675000Y-89827454D01*
X140675000Y-90872546D01*
X140668999Y-90933480D01*
X140651941Y-90989712D01*
X140624239Y-91041538D01*
X140586961Y-91086961D01*
X140541538Y-91124239D01*
X140489712Y-91151941D01*
X140433480Y-91168999D01*
X140372546Y-91175000D01*
X138827454Y-91175000D01*
X138766520Y-91168999D01*
X138710288Y-91151941D01*
X138658462Y-91124239D01*
X138613039Y-91086961D01*
X138575761Y-91041538D01*
X138548059Y-90989712D01*
X138531001Y-90933480D01*
X138525000Y-90872546D01*
X138525000Y-89827454D01*
X138531001Y-89766520D01*
X138548059Y-89710288D01*
X138575761Y-89658462D01*
X138613039Y-89613039D01*
X138658462Y-89575761D01*
X138710288Y-89548059D01*
X138766520Y-89531001D01*
X138827454Y-89525000D01*
X140372546Y-89525000D01*
X140433480Y-89531001D01*
X140433480Y-89531001D01*
G37*
G36*
X137791480Y-89531001D02*
X137847712Y-89548059D01*
X137899538Y-89575761D01*
X137944961Y-89613039D01*
X137982239Y-89658462D01*
X138009941Y-89710288D01*
X138026999Y-89766520D01*
X138033000Y-89827454D01*
X138033000Y-90872546D01*
X138026999Y-90933480D01*
X138009941Y-90989712D01*
X137982239Y-91041538D01*
X137944961Y-91086961D01*
X137899538Y-91124239D01*
X137847712Y-91151941D01*
X137791480Y-91168999D01*
X137730546Y-91175000D01*
X136185454Y-91175000D01*
X136124520Y-91168999D01*
X136068288Y-91151941D01*
X136016462Y-91124239D01*
X135971039Y-91086961D01*
X135933761Y-91041538D01*
X135906059Y-90989712D01*
X135889001Y-90933480D01*
X135883000Y-90872546D01*
X135883000Y-89827454D01*
X135889001Y-89766520D01*
X135906059Y-89710288D01*
X135933761Y-89658462D01*
X135971039Y-89613039D01*
X136016462Y-89575761D01*
X136068288Y-89548059D01*
X136124520Y-89531001D01*
X136185454Y-89525000D01*
X137730546Y-89525000D01*
X137791480Y-89531001D01*
X137791480Y-89531001D01*
G37*
G36*
X154127339Y-86858829D02*
X154249785Y-86895973D01*
X154362632Y-86956291D01*
X154461545Y-87037465D01*
X154542719Y-87136377D01*
X154603037Y-87249224D01*
X154640181Y-87371670D01*
X154649580Y-87467099D01*
X154649580Y-88132901D01*
X154640181Y-88228330D01*
X154603037Y-88350776D01*
X154542719Y-88463623D01*
X154461545Y-88562535D01*
X154362633Y-88643709D01*
X154249786Y-88704027D01*
X154127340Y-88741171D01*
X154000000Y-88753713D01*
X153872661Y-88741171D01*
X153750215Y-88704027D01*
X153637368Y-88643709D01*
X153538456Y-88562535D01*
X153457282Y-88463623D01*
X153409094Y-88373471D01*
X153403650Y-88365324D01*
X153396719Y-88358393D01*
X153388569Y-88352948D01*
X153379514Y-88349197D01*
X153369900Y-88347285D01*
X153360099Y-88347285D01*
X153350485Y-88349197D01*
X153341430Y-88352948D01*
X153333280Y-88358394D01*
X153326349Y-88365325D01*
X153320907Y-88373469D01*
X153272719Y-88463623D01*
X153191545Y-88562535D01*
X153092633Y-88643709D01*
X152979786Y-88704027D01*
X152857340Y-88741171D01*
X152730000Y-88753713D01*
X152602661Y-88741171D01*
X152480215Y-88704027D01*
X152367368Y-88643709D01*
X152268456Y-88562535D01*
X152187282Y-88463623D01*
X152139094Y-88373471D01*
X152133650Y-88365324D01*
X152126719Y-88358393D01*
X152118569Y-88352948D01*
X152109514Y-88349197D01*
X152099900Y-88347285D01*
X152090099Y-88347285D01*
X152080485Y-88349197D01*
X152071430Y-88352948D01*
X152063280Y-88358394D01*
X152056349Y-88365325D01*
X152050907Y-88373469D01*
X152002719Y-88463623D01*
X151921545Y-88562535D01*
X151822633Y-88643709D01*
X151709786Y-88704027D01*
X151587340Y-88741171D01*
X151460000Y-88753713D01*
X151332661Y-88741171D01*
X151210215Y-88704027D01*
X151097368Y-88643709D01*
X150998456Y-88562535D01*
X150917282Y-88463623D01*
X150856963Y-88350776D01*
X150819819Y-88228330D01*
X150810420Y-88132901D01*
X150810420Y-87467100D01*
X150819819Y-87371671D01*
X150856963Y-87249225D01*
X150917281Y-87136378D01*
X150998455Y-87037465D01*
X151097367Y-86956291D01*
X151210214Y-86895973D01*
X151332660Y-86858829D01*
X151460000Y-86846287D01*
X151587339Y-86858829D01*
X151709785Y-86895973D01*
X151822632Y-86956291D01*
X151921545Y-87037465D01*
X152002719Y-87136377D01*
X152050907Y-87226531D01*
X152056349Y-87234676D01*
X152063280Y-87241607D01*
X152071430Y-87247052D01*
X152080486Y-87250803D01*
X152090099Y-87252715D01*
X152099901Y-87252715D01*
X152109514Y-87250803D01*
X152118570Y-87247052D01*
X152126720Y-87241607D01*
X152133651Y-87234676D01*
X152139096Y-87226526D01*
X152187281Y-87136378D01*
X152268455Y-87037465D01*
X152367367Y-86956291D01*
X152480214Y-86895973D01*
X152602660Y-86858829D01*
X152730000Y-86846287D01*
X152857339Y-86858829D01*
X152979785Y-86895973D01*
X153092632Y-86956291D01*
X153191545Y-87037465D01*
X153272719Y-87136377D01*
X153320907Y-87226531D01*
X153326349Y-87234676D01*
X153333280Y-87241607D01*
X153341430Y-87247052D01*
X153350486Y-87250803D01*
X153360099Y-87252715D01*
X153369901Y-87252715D01*
X153379514Y-87250803D01*
X153388570Y-87247052D01*
X153396720Y-87241607D01*
X153403651Y-87234676D01*
X153409096Y-87226526D01*
X153457281Y-87136378D01*
X153538455Y-87037465D01*
X153637367Y-86956291D01*
X153750214Y-86895973D01*
X153872660Y-86858829D01*
X154000000Y-86846287D01*
X154127339Y-86858829D01*
X154127339Y-86858829D01*
G37*
G36*
X129500000Y-87900000D02*
X126900000Y-87900000D01*
X126900000Y-85300000D01*
X129500000Y-85300000D01*
X129500000Y-87900000D01*
X129500000Y-87900000D01*
G37*
G36*
X126200000Y-87900000D02*
X123600000Y-87900000D01*
X123600000Y-85300000D01*
X126200000Y-85300000D01*
X126200000Y-87900000D01*
X126200000Y-87900000D01*
G37*
G36*
X154025496Y-77861487D02*
X154180054Y-77892230D01*
X154616826Y-78073147D01*
X154805771Y-78199396D01*
X155009913Y-78335799D01*
X155344201Y-78670087D01*
X155412799Y-78772751D01*
X155606853Y-79063174D01*
X155787770Y-79499946D01*
X155800141Y-79562138D01*
X155880000Y-79963619D01*
X155880000Y-80436381D01*
X155842041Y-80627213D01*
X155787770Y-80900054D01*
X155606853Y-81336826D01*
X155498227Y-81499396D01*
X155344201Y-81729913D01*
X155009913Y-82064201D01*
X154940587Y-82110523D01*
X154616826Y-82326853D01*
X154180054Y-82507770D01*
X154025496Y-82538513D01*
X153716381Y-82600000D01*
X153243619Y-82600000D01*
X152934504Y-82538513D01*
X152779946Y-82507770D01*
X152343174Y-82326853D01*
X152019413Y-82110523D01*
X151950087Y-82064201D01*
X151615799Y-81729913D01*
X151461773Y-81499396D01*
X151353147Y-81336826D01*
X151172230Y-80900054D01*
X151117959Y-80627213D01*
X151080000Y-80436381D01*
X151080000Y-79963619D01*
X151159859Y-79562138D01*
X151172230Y-79499946D01*
X151353147Y-79063174D01*
X151547201Y-78772751D01*
X151615799Y-78670087D01*
X151950087Y-78335799D01*
X152154229Y-78199396D01*
X152343174Y-78073147D01*
X152779946Y-77892230D01*
X152934504Y-77861487D01*
X153243619Y-77800000D01*
X153716381Y-77800000D01*
X154025496Y-77861487D01*
X154025496Y-77861487D01*
G37*
G36*
X126465496Y-77861487D02*
X126620054Y-77892230D01*
X127056826Y-78073147D01*
X127245771Y-78199396D01*
X127449913Y-78335799D01*
X127784201Y-78670087D01*
X127852799Y-78772751D01*
X128046853Y-79063174D01*
X128227770Y-79499946D01*
X128240141Y-79562138D01*
X128320000Y-79963619D01*
X128320000Y-80436381D01*
X128282041Y-80627213D01*
X128227770Y-80900054D01*
X128046853Y-81336826D01*
X127938227Y-81499396D01*
X127784201Y-81729913D01*
X127449913Y-82064201D01*
X127380587Y-82110523D01*
X127056826Y-82326853D01*
X126620054Y-82507770D01*
X126465496Y-82538513D01*
X126156381Y-82600000D01*
X125683619Y-82600000D01*
X125374504Y-82538513D01*
X125219946Y-82507770D01*
X124783174Y-82326853D01*
X124459413Y-82110523D01*
X124390087Y-82064201D01*
X124055799Y-81729913D01*
X123901773Y-81499396D01*
X123793147Y-81336826D01*
X123612230Y-80900054D01*
X123557959Y-80627213D01*
X123520000Y-80436381D01*
X123520000Y-79963619D01*
X123599859Y-79562138D01*
X123612230Y-79499946D01*
X123793147Y-79063174D01*
X123987201Y-78772751D01*
X124055799Y-78670087D01*
X124390087Y-78335799D01*
X124594229Y-78199396D01*
X124783174Y-78073147D01*
X125219946Y-77892230D01*
X125374504Y-77861487D01*
X125683619Y-77800000D01*
X126156381Y-77800000D01*
X126465496Y-77861487D01*
X126465496Y-77861487D01*
G37*
M02*
