M48
;DRILL file {KiCad 5.0.2+dfsg1-1} date Sun 20 Oct 2019 13:45:58 CEST
;FORMAT={-:-/ absolute / inch / decimal}
FMAT,2
INCH,TZ
T1C0.0157
T2C0.0236
T3C0.0335
%
G90
G05
T1
X2.09Y-1.835
X2.09Y-2.05
X2.09Y-2.25
X2.09Y-2.45
X2.09Y-2.65
X2.09Y-2.85
X2.09Y-3.05
X2.09Y-3.25
X2.1306Y-2.1519
X2.14Y-3.005
X2.2Y-3.07
X2.21Y-2.59
X2.255Y-3.36
X2.3425Y-1.7925
X2.37Y-2.71
X2.372Y-3.162
X2.395Y-1.585
X2.436Y-2.1754
X2.495Y-2.33
X2.51Y-2.54
X2.57Y-2.31
X2.5725Y-2.7375
X2.575Y-2.245
X2.606Y-3.144
X2.62Y-3.048
X2.625Y-1.615
X2.63Y-2.245
X2.666Y-3.048
X2.675Y-1.8575
X2.68Y-2.245
X2.7025Y-1.83
X2.73Y-1.855
X2.752Y-2.888
X2.775Y-2.0625
X2.775Y-2.485
X2.7925Y-2.7225
X2.81Y-2.235
X2.84Y-2.0625
X2.85Y-3.36
X2.86Y-1.615
X2.88Y-2.235
X2.91Y-2.958
X2.955Y-2.4575
X2.98Y-2.9575
X3.0125Y-2.6875
X3.045Y-2.93
X3.085Y-1.585
X3.115Y-2.605
X3.154Y-1.806
X3.165Y-2.36
X3.21Y-2.595
X3.22Y-2.425
X3.235Y-2.915
X3.3Y-2.7475
X3.32Y-2.55
X3.3375Y-2.78
X3.355Y-3.35
X3.394Y-1.836
X3.395Y-2.
X3.395Y-2.2
X3.395Y-2.4
X3.395Y-2.6
X3.395Y-2.8
X3.395Y-3.
X3.395Y-3.15
T3
X2.452Y-3.2145
X2.6489Y-3.2145
T2
X2.4127Y-3.3345G85X2.4127Y-3.307
G05
X2.6883Y-3.307G85X2.6883Y-3.3345
G05
T0
M30
