G04 #@! TF.GenerationSoftware,KiCad,Pcbnew,5.0.2+dfsg1-1*
G04 #@! TF.CreationDate,2019-09-05T11:37:23+02:00*
G04 #@! TF.ProjectId,xling,786c696e-672e-46b6-9963-61645f706362,0.3*
G04 #@! TF.SameCoordinates,Original*
G04 #@! TF.FileFunction,Paste,Top*
G04 #@! TF.FilePolarity,Positive*
%FSLAX46Y46*%
G04 Gerber Fmt 4.6, Leading zero omitted, Abs format (unit mm)*
G04 Created by KiCad (PCBNEW 5.0.2+dfsg1-1) date Thu 05 Sep 2019 11:37:23 CEST*
%MOMM*%
%LPD*%
G01*
G04 APERTURE LIST*
%ADD10R,0.315000X2.250000*%
%ADD11C,0.100000*%
%ADD12C,1.350000*%
%ADD13R,1.440000X1.260000*%
%ADD14R,1.125000X2.385000*%
%ADD15R,1.080000X0.810000*%
%ADD16C,0.787500*%
%ADD17R,0.855000X0.787500*%
%ADD18R,0.787500X0.855000*%
%ADD19C,0.495000*%
%ADD20R,1.125000X1.620000*%
%ADD21R,0.540000X0.900000*%
%ADD22R,1.350000X1.710000*%
%ADD23R,0.360000X1.215000*%
%ADD24C,0.720000*%
%ADD25R,0.540000X0.990000*%
%ADD26R,0.900000X0.630000*%
G04 APERTURE END LIST*
D10*
G04 #@! TO.C,U1*
X79132000Y-49310000D03*
X79832000Y-49310000D03*
X72832000Y-49310000D03*
X77732000Y-49310000D03*
X78432000Y-49310000D03*
X77032000Y-49310000D03*
X76332000Y-49310000D03*
X75632000Y-49310000D03*
X74932000Y-49310000D03*
X74232000Y-49310000D03*
X73532000Y-49310000D03*
X72132000Y-49310000D03*
X71432000Y-49310000D03*
X70732000Y-49310000D03*
X70032000Y-49310000D03*
X69332000Y-49310000D03*
X67932000Y-49310000D03*
X68632000Y-49310000D03*
X67232000Y-49310000D03*
X66532000Y-49310000D03*
X65832000Y-49310000D03*
X65132000Y-49310000D03*
X64432000Y-49310000D03*
X63732000Y-49310000D03*
X63032000Y-49310000D03*
X62332000Y-49310000D03*
X61632000Y-49310000D03*
X60932000Y-49310000D03*
X60232000Y-49310000D03*
X59532000Y-49310000D03*
G04 #@! TD*
D11*
G04 #@! TO.C,J3*
G36*
X58005081Y-53305125D02*
X58037843Y-53309985D01*
X58069971Y-53318033D01*
X58101156Y-53329191D01*
X58131096Y-53343352D01*
X58159505Y-53360379D01*
X58186108Y-53380109D01*
X58210649Y-53402351D01*
X58232891Y-53426892D01*
X58252621Y-53453495D01*
X58269648Y-53481904D01*
X58283809Y-53511844D01*
X58294967Y-53543029D01*
X58303015Y-53575157D01*
X58307875Y-53607919D01*
X58309500Y-53641000D01*
X58309500Y-54316000D01*
X58307875Y-54349081D01*
X58303015Y-54381843D01*
X58294967Y-54413971D01*
X58283809Y-54445156D01*
X58269648Y-54475096D01*
X58252621Y-54503505D01*
X58232891Y-54530108D01*
X58210649Y-54554649D01*
X58186108Y-54576891D01*
X58159505Y-54596621D01*
X58131096Y-54613648D01*
X58101156Y-54627809D01*
X58069971Y-54638967D01*
X58037843Y-54647015D01*
X58005081Y-54651875D01*
X57972000Y-54653500D01*
X55947000Y-54653500D01*
X55913919Y-54651875D01*
X55881157Y-54647015D01*
X55849029Y-54638967D01*
X55817844Y-54627809D01*
X55787904Y-54613648D01*
X55759495Y-54596621D01*
X55732892Y-54576891D01*
X55708351Y-54554649D01*
X55686109Y-54530108D01*
X55666379Y-54503505D01*
X55649352Y-54475096D01*
X55635191Y-54445156D01*
X55624033Y-54413971D01*
X55615985Y-54381843D01*
X55611125Y-54349081D01*
X55609500Y-54316000D01*
X55609500Y-53641000D01*
X55611125Y-53607919D01*
X55615985Y-53575157D01*
X55624033Y-53543029D01*
X55635191Y-53511844D01*
X55649352Y-53481904D01*
X55666379Y-53453495D01*
X55686109Y-53426892D01*
X55708351Y-53402351D01*
X55732892Y-53380109D01*
X55759495Y-53360379D01*
X55787904Y-53343352D01*
X55817844Y-53329191D01*
X55849029Y-53318033D01*
X55881157Y-53309985D01*
X55913919Y-53305125D01*
X55947000Y-53303500D01*
X57972000Y-53303500D01*
X58005081Y-53305125D01*
X58005081Y-53305125D01*
G37*
D12*
X56959500Y-53978500D03*
D11*
G36*
X58005081Y-55905125D02*
X58037843Y-55909985D01*
X58069971Y-55918033D01*
X58101156Y-55929191D01*
X58131096Y-55943352D01*
X58159505Y-55960379D01*
X58186108Y-55980109D01*
X58210649Y-56002351D01*
X58232891Y-56026892D01*
X58252621Y-56053495D01*
X58269648Y-56081904D01*
X58283809Y-56111844D01*
X58294967Y-56143029D01*
X58303015Y-56175157D01*
X58307875Y-56207919D01*
X58309500Y-56241000D01*
X58309500Y-56916000D01*
X58307875Y-56949081D01*
X58303015Y-56981843D01*
X58294967Y-57013971D01*
X58283809Y-57045156D01*
X58269648Y-57075096D01*
X58252621Y-57103505D01*
X58232891Y-57130108D01*
X58210649Y-57154649D01*
X58186108Y-57176891D01*
X58159505Y-57196621D01*
X58131096Y-57213648D01*
X58101156Y-57227809D01*
X58069971Y-57238967D01*
X58037843Y-57247015D01*
X58005081Y-57251875D01*
X57972000Y-57253500D01*
X55947000Y-57253500D01*
X55913919Y-57251875D01*
X55881157Y-57247015D01*
X55849029Y-57238967D01*
X55817844Y-57227809D01*
X55787904Y-57213648D01*
X55759495Y-57196621D01*
X55732892Y-57176891D01*
X55708351Y-57154649D01*
X55686109Y-57130108D01*
X55666379Y-57103505D01*
X55649352Y-57075096D01*
X55635191Y-57045156D01*
X55624033Y-57013971D01*
X55615985Y-56981843D01*
X55611125Y-56949081D01*
X55609500Y-56916000D01*
X55609500Y-56241000D01*
X55611125Y-56207919D01*
X55615985Y-56175157D01*
X55624033Y-56143029D01*
X55635191Y-56111844D01*
X55649352Y-56081904D01*
X55666379Y-56053495D01*
X55686109Y-56026892D01*
X55708351Y-56002351D01*
X55732892Y-55980109D01*
X55759495Y-55960379D01*
X55787904Y-55943352D01*
X55817844Y-55929191D01*
X55849029Y-55918033D01*
X55881157Y-55909985D01*
X55913919Y-55905125D01*
X55947000Y-55903500D01*
X57972000Y-55903500D01*
X58005081Y-55905125D01*
X58005081Y-55905125D01*
G37*
D12*
X56959500Y-56578500D03*
G04 #@! TD*
D13*
G04 #@! TO.C,Y1*
X84242000Y-55642000D03*
X80042000Y-55642000D03*
X80042000Y-57842000D03*
X84242000Y-57842000D03*
G04 #@! TD*
D14*
G04 #@! TO.C,L1*
X55877000Y-80010000D03*
X58677000Y-80010000D03*
G04 #@! TD*
G04 #@! TO.C,L2*
X58677000Y-83820000D03*
X55877000Y-83820000D03*
G04 #@! TD*
D15*
G04 #@! TO.C,D1*
X58547000Y-75056000D03*
X58547000Y-71756000D03*
G04 #@! TD*
D16*
G04 #@! TO.C,C1*
X65102153Y-60754847D03*
D11*
G36*
X65078288Y-60174136D02*
X65682864Y-60778712D01*
X65126018Y-61335558D01*
X64521442Y-60730982D01*
X65078288Y-60174136D01*
X65078288Y-60174136D01*
G37*
D16*
X66215847Y-59641153D03*
D11*
G36*
X66191982Y-59060442D02*
X66796558Y-59665018D01*
X66239712Y-60221864D01*
X65635136Y-59617288D01*
X66191982Y-59060442D01*
X66191982Y-59060442D01*
G37*
G04 #@! TD*
D17*
G04 #@! TO.C,C2*
X82296000Y-50063500D03*
X82296000Y-48488500D03*
G04 #@! TD*
D16*
G04 #@! TO.C,C3*
X68628847Y-72629347D03*
D11*
G36*
X68048136Y-72653212D02*
X68652712Y-72048636D01*
X69209558Y-72605482D01*
X68604982Y-73210058D01*
X68048136Y-72653212D01*
X68048136Y-72653212D01*
G37*
D16*
X67515153Y-71515653D03*
D11*
G36*
X66934442Y-71539518D02*
X67539018Y-70934942D01*
X68095864Y-71491788D01*
X67491288Y-72096364D01*
X66934442Y-71539518D01*
X66934442Y-71539518D01*
G37*
G04 #@! TD*
D18*
G04 #@! TO.C,C5*
X82715000Y-59817000D03*
X84290000Y-59817000D03*
G04 #@! TD*
G04 #@! TO.C,C6*
X84353500Y-53467000D03*
X82778500Y-53467000D03*
G04 #@! TD*
D16*
G04 #@! TO.C,C7*
X66372153Y-62024847D03*
D11*
G36*
X66348288Y-61444136D02*
X66952864Y-62048712D01*
X66396018Y-62605558D01*
X65791442Y-62000982D01*
X66348288Y-61444136D01*
X66348288Y-61444136D01*
G37*
D16*
X67485847Y-60911153D03*
D11*
G36*
X67461982Y-60330442D02*
X68066558Y-60935018D01*
X67509712Y-61491864D01*
X66905136Y-60887288D01*
X67461982Y-60330442D01*
X67461982Y-60330442D01*
G37*
G04 #@! TD*
D17*
G04 #@! TO.C,C8*
X56959500Y-48552000D03*
X56959500Y-50127000D03*
G04 #@! TD*
G04 #@! TO.C,C9*
X54610000Y-48552000D03*
X54610000Y-50127000D03*
G04 #@! TD*
D16*
G04 #@! TO.C,C10*
X80503347Y-62088347D03*
D11*
G36*
X79922636Y-62112212D02*
X80527212Y-61507636D01*
X81084058Y-62064482D01*
X80479482Y-62669058D01*
X79922636Y-62112212D01*
X79922636Y-62112212D01*
G37*
D16*
X79389653Y-60974653D03*
D11*
G36*
X78808942Y-60998518D02*
X79413518Y-60393942D01*
X79970364Y-60950788D01*
X79365788Y-61555364D01*
X78808942Y-60998518D01*
X78808942Y-60998518D01*
G37*
G04 #@! TD*
D17*
G04 #@! TO.C,C11*
X84201000Y-50063500D03*
X84201000Y-48488500D03*
G04 #@! TD*
G04 #@! TO.C,C12*
X83058000Y-75920500D03*
X83058000Y-77495500D03*
G04 #@! TD*
D16*
G04 #@! TO.C,C13*
X82852847Y-64437847D03*
D11*
G36*
X82272136Y-64461712D02*
X82876712Y-63857136D01*
X83433558Y-64413982D01*
X82828982Y-65018558D01*
X82272136Y-64461712D01*
X82272136Y-64461712D01*
G37*
D16*
X81739153Y-63324153D03*
D11*
G36*
X81158442Y-63348018D02*
X81763018Y-62743442D01*
X82319864Y-63300288D01*
X81715288Y-63904864D01*
X81158442Y-63348018D01*
X81158442Y-63348018D01*
G37*
G04 #@! TD*
D17*
G04 #@! TO.C,C14*
X85090000Y-67538500D03*
X85090000Y-69113500D03*
G04 #@! TD*
D18*
G04 #@! TO.C,C15*
X69316500Y-78333600D03*
X70891500Y-78333600D03*
G04 #@! TD*
G04 #@! TO.C,C16*
X60299500Y-60706000D03*
X61874500Y-60706000D03*
G04 #@! TD*
G04 #@! TO.C,C17*
X56540500Y-58864500D03*
X54965500Y-58864500D03*
G04 #@! TD*
G04 #@! TO.C,C18*
X57124500Y-77216000D03*
X58699500Y-77216000D03*
G04 #@! TD*
G04 #@! TO.C,C19*
X56870500Y-68961000D03*
X58445500Y-68961000D03*
G04 #@! TD*
G04 #@! TO.C,C20*
X61442500Y-78994000D03*
X63017500Y-78994000D03*
G04 #@! TD*
D16*
G04 #@! TO.C,C22*
X64818847Y-63167847D03*
D11*
G36*
X64238136Y-63191712D02*
X64842712Y-62587136D01*
X65399558Y-63143982D01*
X64794982Y-63748558D01*
X64238136Y-63191712D01*
X64238136Y-63191712D01*
G37*
D16*
X63705153Y-62054153D03*
D11*
G36*
X63124442Y-62078018D02*
X63729018Y-61473442D01*
X64285864Y-62030288D01*
X63681288Y-62634864D01*
X63124442Y-62078018D01*
X63124442Y-62078018D01*
G37*
G04 #@! TD*
D17*
G04 #@! TO.C,R1*
X69278500Y-55207000D03*
X69278500Y-53632000D03*
G04 #@! TD*
G04 #@! TO.C,R2*
X67437000Y-55207000D03*
X67437000Y-53632000D03*
G04 #@! TD*
D16*
G04 #@! TO.C,R3*
X78564153Y-73200847D03*
D11*
G36*
X78540288Y-72620136D02*
X79144864Y-73224712D01*
X78588018Y-73781558D01*
X77983442Y-73176982D01*
X78540288Y-72620136D01*
X78540288Y-72620136D01*
G37*
D16*
X79677847Y-72087153D03*
D11*
G36*
X79653982Y-71506442D02*
X80258558Y-72111018D01*
X79701712Y-72667864D01*
X79097136Y-72063288D01*
X79653982Y-71506442D01*
X79653982Y-71506442D01*
G37*
G04 #@! TD*
D17*
G04 #@! TO.C,R4*
X75692000Y-53695500D03*
X75692000Y-55270500D03*
G04 #@! TD*
D16*
G04 #@! TO.C,R5*
X82120153Y-72184847D03*
D11*
G36*
X82096288Y-71604136D02*
X82700864Y-72208712D01*
X82144018Y-72765558D01*
X81539442Y-72160982D01*
X82096288Y-71604136D01*
X82096288Y-71604136D01*
G37*
D16*
X83233847Y-71071153D03*
D11*
G36*
X83209982Y-70490442D02*
X83814558Y-71095018D01*
X83257712Y-71651864D01*
X82653136Y-71047288D01*
X83209982Y-70490442D01*
X83209982Y-70490442D01*
G37*
G04 #@! TD*
D16*
G04 #@! TO.C,R6*
X79834153Y-74470847D03*
D11*
G36*
X79810288Y-73890136D02*
X80414864Y-74494712D01*
X79858018Y-75051558D01*
X79253442Y-74446982D01*
X79810288Y-73890136D01*
X79810288Y-73890136D01*
G37*
D16*
X80947847Y-73357153D03*
D11*
G36*
X80923982Y-72776442D02*
X81528558Y-73381018D01*
X80971712Y-73937864D01*
X80367136Y-73333288D01*
X80923982Y-72776442D01*
X80923982Y-72776442D01*
G37*
G04 #@! TD*
D18*
G04 #@! TO.C,R7*
X67741700Y-74828400D03*
X69316700Y-74828400D03*
G04 #@! TD*
D16*
G04 #@! TO.C,R8*
X84122847Y-63167847D03*
D11*
G36*
X83542136Y-63191712D02*
X84146712Y-62587136D01*
X84703558Y-63143982D01*
X84098982Y-63748558D01*
X83542136Y-63191712D01*
X83542136Y-63191712D01*
G37*
D16*
X83009153Y-62054153D03*
D11*
G36*
X82428442Y-62078018D02*
X83033018Y-61473442D01*
X83589864Y-62030288D01*
X82985288Y-62634864D01*
X82428442Y-62078018D01*
X82428442Y-62078018D01*
G37*
G04 #@! TD*
D16*
G04 #@! TO.C,R9*
X83390153Y-73454847D03*
D11*
G36*
X83366288Y-72874136D02*
X83970864Y-73478712D01*
X83414018Y-74035558D01*
X82809442Y-73430982D01*
X83366288Y-72874136D01*
X83366288Y-72874136D01*
G37*
D16*
X84503847Y-72341153D03*
D11*
G36*
X84479982Y-71760442D02*
X85084558Y-72365018D01*
X84527712Y-72921864D01*
X83923136Y-72317288D01*
X84479982Y-71760442D01*
X84479982Y-71760442D01*
G37*
G04 #@! TD*
D18*
G04 #@! TO.C,R10*
X69316500Y-76555600D03*
X70891500Y-76555600D03*
G04 #@! TD*
G04 #@! TO.C,R11*
X58445500Y-67183000D03*
X56870500Y-67183000D03*
G04 #@! TD*
G04 #@! TO.C,R12*
X61874500Y-58801000D03*
X60299500Y-58801000D03*
G04 #@! TD*
G04 #@! TO.C,R13*
X60680500Y-64770000D03*
X62255500Y-64770000D03*
G04 #@! TD*
G04 #@! TO.C,R14*
X62204500Y-68834000D03*
X63779500Y-68834000D03*
G04 #@! TD*
G04 #@! TO.C,R15*
X63017500Y-77216000D03*
X61442500Y-77216000D03*
G04 #@! TD*
D17*
G04 #@! TO.C,R16*
X65125600Y-76631900D03*
X65125600Y-75056900D03*
G04 #@! TD*
D18*
G04 #@! TO.C,R17*
X62204500Y-67056000D03*
X63779500Y-67056000D03*
G04 #@! TD*
G04 #@! TO.C,R18*
X58064500Y-60706000D03*
X56489500Y-60706000D03*
G04 #@! TD*
D17*
G04 #@! TO.C,R19*
X72117048Y-53673611D03*
X72117048Y-55248611D03*
G04 #@! TD*
G04 #@! TO.C,R20*
X73895048Y-53673611D03*
X73895048Y-55248611D03*
G04 #@! TD*
D19*
G04 #@! TO.C,U2*
X72203918Y-72898936D03*
D11*
G36*
X72506206Y-72246630D02*
X72856224Y-72596648D01*
X71901630Y-73551242D01*
X71551612Y-73201224D01*
X72506206Y-72246630D01*
X72506206Y-72246630D01*
G37*
D19*
X71638233Y-72333250D03*
D11*
G36*
X71940521Y-71680944D02*
X72290539Y-72030962D01*
X71335945Y-72985556D01*
X70985927Y-72635538D01*
X71940521Y-71680944D01*
X71940521Y-71680944D01*
G37*
D19*
X71072548Y-71767565D03*
D11*
G36*
X71374836Y-71115259D02*
X71724854Y-71465277D01*
X70770260Y-72419871D01*
X70420242Y-72069853D01*
X71374836Y-71115259D01*
X71374836Y-71115259D01*
G37*
D19*
X70506862Y-71201880D03*
D11*
G36*
X70809150Y-70549574D02*
X71159168Y-70899592D01*
X70204574Y-71854186D01*
X69854556Y-71504168D01*
X70809150Y-70549574D01*
X70809150Y-70549574D01*
G37*
D19*
X69941177Y-70636194D03*
D11*
G36*
X70243465Y-69983888D02*
X70593483Y-70333906D01*
X69638889Y-71288500D01*
X69288871Y-70938482D01*
X70243465Y-69983888D01*
X70243465Y-69983888D01*
G37*
D19*
X69375491Y-70070509D03*
D11*
G36*
X69677779Y-69418203D02*
X70027797Y-69768221D01*
X69073203Y-70722815D01*
X68723185Y-70372797D01*
X69677779Y-69418203D01*
X69677779Y-69418203D01*
G37*
D19*
X68809806Y-69504823D03*
D11*
G36*
X69112094Y-68852517D02*
X69462112Y-69202535D01*
X68507518Y-70157129D01*
X68157500Y-69807111D01*
X69112094Y-68852517D01*
X69112094Y-68852517D01*
G37*
D19*
X68244120Y-68939138D03*
D11*
G36*
X68546408Y-68286832D02*
X68896426Y-68636850D01*
X67941832Y-69591444D01*
X67591814Y-69241426D01*
X68546408Y-68286832D01*
X68546408Y-68286832D01*
G37*
D19*
X67678435Y-68373452D03*
D11*
G36*
X67980723Y-67721146D02*
X68330741Y-68071164D01*
X67376147Y-69025758D01*
X67026129Y-68675740D01*
X67980723Y-67721146D01*
X67980723Y-67721146D01*
G37*
D19*
X67112750Y-67807767D03*
D11*
G36*
X67415038Y-67155461D02*
X67765056Y-67505479D01*
X66810462Y-68460073D01*
X66460444Y-68110055D01*
X67415038Y-67155461D01*
X67415038Y-67155461D01*
G37*
D19*
X66547064Y-67242082D03*
D11*
G36*
X66849352Y-66589776D02*
X67199370Y-66939794D01*
X66244776Y-67894388D01*
X65894758Y-67544370D01*
X66849352Y-66589776D01*
X66849352Y-66589776D01*
G37*
D19*
X66547064Y-64837918D03*
D11*
G36*
X67199370Y-65140206D02*
X66849352Y-65490224D01*
X65894758Y-64535630D01*
X66244776Y-64185612D01*
X67199370Y-65140206D01*
X67199370Y-65140206D01*
G37*
D19*
X67112750Y-64272233D03*
D11*
G36*
X67765056Y-64574521D02*
X67415038Y-64924539D01*
X66460444Y-63969945D01*
X66810462Y-63619927D01*
X67765056Y-64574521D01*
X67765056Y-64574521D01*
G37*
D19*
X67678435Y-63706548D03*
D11*
G36*
X68330741Y-64008836D02*
X67980723Y-64358854D01*
X67026129Y-63404260D01*
X67376147Y-63054242D01*
X68330741Y-64008836D01*
X68330741Y-64008836D01*
G37*
D19*
X68244120Y-63140862D03*
D11*
G36*
X68896426Y-63443150D02*
X68546408Y-63793168D01*
X67591814Y-62838574D01*
X67941832Y-62488556D01*
X68896426Y-63443150D01*
X68896426Y-63443150D01*
G37*
D19*
X68809806Y-62575177D03*
D11*
G36*
X69462112Y-62877465D02*
X69112094Y-63227483D01*
X68157500Y-62272889D01*
X68507518Y-61922871D01*
X69462112Y-62877465D01*
X69462112Y-62877465D01*
G37*
D19*
X69375491Y-62009491D03*
D11*
G36*
X70027797Y-62311779D02*
X69677779Y-62661797D01*
X68723185Y-61707203D01*
X69073203Y-61357185D01*
X70027797Y-62311779D01*
X70027797Y-62311779D01*
G37*
D19*
X69941177Y-61443806D03*
D11*
G36*
X70593483Y-61746094D02*
X70243465Y-62096112D01*
X69288871Y-61141518D01*
X69638889Y-60791500D01*
X70593483Y-61746094D01*
X70593483Y-61746094D01*
G37*
D19*
X70506862Y-60878120D03*
D11*
G36*
X71159168Y-61180408D02*
X70809150Y-61530426D01*
X69854556Y-60575832D01*
X70204574Y-60225814D01*
X71159168Y-61180408D01*
X71159168Y-61180408D01*
G37*
D19*
X71072548Y-60312435D03*
D11*
G36*
X71724854Y-60614723D02*
X71374836Y-60964741D01*
X70420242Y-60010147D01*
X70770260Y-59660129D01*
X71724854Y-60614723D01*
X71724854Y-60614723D01*
G37*
D19*
X71638233Y-59746750D03*
D11*
G36*
X72290539Y-60049038D02*
X71940521Y-60399056D01*
X70985927Y-59444462D01*
X71335945Y-59094444D01*
X72290539Y-60049038D01*
X72290539Y-60049038D01*
G37*
D19*
X72203918Y-59181064D03*
D11*
G36*
X72856224Y-59483352D02*
X72506206Y-59833370D01*
X71551612Y-58878776D01*
X71901630Y-58528758D01*
X72856224Y-59483352D01*
X72856224Y-59483352D01*
G37*
D19*
X74608082Y-59181064D03*
D11*
G36*
X74910370Y-58528758D02*
X75260388Y-58878776D01*
X74305794Y-59833370D01*
X73955776Y-59483352D01*
X74910370Y-58528758D01*
X74910370Y-58528758D01*
G37*
D19*
X75173767Y-59746750D03*
D11*
G36*
X75476055Y-59094444D02*
X75826073Y-59444462D01*
X74871479Y-60399056D01*
X74521461Y-60049038D01*
X75476055Y-59094444D01*
X75476055Y-59094444D01*
G37*
D19*
X75739452Y-60312435D03*
D11*
G36*
X76041740Y-59660129D02*
X76391758Y-60010147D01*
X75437164Y-60964741D01*
X75087146Y-60614723D01*
X76041740Y-59660129D01*
X76041740Y-59660129D01*
G37*
D19*
X76305138Y-60878120D03*
D11*
G36*
X76607426Y-60225814D02*
X76957444Y-60575832D01*
X76002850Y-61530426D01*
X75652832Y-61180408D01*
X76607426Y-60225814D01*
X76607426Y-60225814D01*
G37*
D19*
X76870823Y-61443806D03*
D11*
G36*
X77173111Y-60791500D02*
X77523129Y-61141518D01*
X76568535Y-62096112D01*
X76218517Y-61746094D01*
X77173111Y-60791500D01*
X77173111Y-60791500D01*
G37*
D19*
X77436509Y-62009491D03*
D11*
G36*
X77738797Y-61357185D02*
X78088815Y-61707203D01*
X77134221Y-62661797D01*
X76784203Y-62311779D01*
X77738797Y-61357185D01*
X77738797Y-61357185D01*
G37*
D19*
X78002194Y-62575177D03*
D11*
G36*
X78304482Y-61922871D02*
X78654500Y-62272889D01*
X77699906Y-63227483D01*
X77349888Y-62877465D01*
X78304482Y-61922871D01*
X78304482Y-61922871D01*
G37*
D19*
X78567880Y-63140862D03*
D11*
G36*
X78870168Y-62488556D02*
X79220186Y-62838574D01*
X78265592Y-63793168D01*
X77915574Y-63443150D01*
X78870168Y-62488556D01*
X78870168Y-62488556D01*
G37*
D19*
X79133565Y-63706548D03*
D11*
G36*
X79435853Y-63054242D02*
X79785871Y-63404260D01*
X78831277Y-64358854D01*
X78481259Y-64008836D01*
X79435853Y-63054242D01*
X79435853Y-63054242D01*
G37*
D19*
X79699250Y-64272233D03*
D11*
G36*
X80001538Y-63619927D02*
X80351556Y-63969945D01*
X79396962Y-64924539D01*
X79046944Y-64574521D01*
X80001538Y-63619927D01*
X80001538Y-63619927D01*
G37*
D19*
X80264936Y-64837918D03*
D11*
G36*
X80567224Y-64185612D02*
X80917242Y-64535630D01*
X79962648Y-65490224D01*
X79612630Y-65140206D01*
X80567224Y-64185612D01*
X80567224Y-64185612D01*
G37*
D19*
X80264936Y-67242082D03*
D11*
G36*
X80917242Y-67544370D02*
X80567224Y-67894388D01*
X79612630Y-66939794D01*
X79962648Y-66589776D01*
X80917242Y-67544370D01*
X80917242Y-67544370D01*
G37*
D19*
X79699250Y-67807767D03*
D11*
G36*
X80351556Y-68110055D02*
X80001538Y-68460073D01*
X79046944Y-67505479D01*
X79396962Y-67155461D01*
X80351556Y-68110055D01*
X80351556Y-68110055D01*
G37*
D19*
X79133565Y-68373452D03*
D11*
G36*
X79785871Y-68675740D02*
X79435853Y-69025758D01*
X78481259Y-68071164D01*
X78831277Y-67721146D01*
X79785871Y-68675740D01*
X79785871Y-68675740D01*
G37*
D19*
X78567880Y-68939138D03*
D11*
G36*
X79220186Y-69241426D02*
X78870168Y-69591444D01*
X77915574Y-68636850D01*
X78265592Y-68286832D01*
X79220186Y-69241426D01*
X79220186Y-69241426D01*
G37*
D19*
X78002194Y-69504823D03*
D11*
G36*
X78654500Y-69807111D02*
X78304482Y-70157129D01*
X77349888Y-69202535D01*
X77699906Y-68852517D01*
X78654500Y-69807111D01*
X78654500Y-69807111D01*
G37*
D19*
X77436509Y-70070509D03*
D11*
G36*
X78088815Y-70372797D02*
X77738797Y-70722815D01*
X76784203Y-69768221D01*
X77134221Y-69418203D01*
X78088815Y-70372797D01*
X78088815Y-70372797D01*
G37*
D19*
X76870823Y-70636194D03*
D11*
G36*
X77523129Y-70938482D02*
X77173111Y-71288500D01*
X76218517Y-70333906D01*
X76568535Y-69983888D01*
X77523129Y-70938482D01*
X77523129Y-70938482D01*
G37*
D19*
X76305138Y-71201880D03*
D11*
G36*
X76957444Y-71504168D02*
X76607426Y-71854186D01*
X75652832Y-70899592D01*
X76002850Y-70549574D01*
X76957444Y-71504168D01*
X76957444Y-71504168D01*
G37*
D19*
X75739452Y-71767565D03*
D11*
G36*
X76391758Y-72069853D02*
X76041740Y-72419871D01*
X75087146Y-71465277D01*
X75437164Y-71115259D01*
X76391758Y-72069853D01*
X76391758Y-72069853D01*
G37*
D19*
X75173767Y-72333250D03*
D11*
G36*
X75826073Y-72635538D02*
X75476055Y-72985556D01*
X74521461Y-72030962D01*
X74871479Y-71680944D01*
X75826073Y-72635538D01*
X75826073Y-72635538D01*
G37*
D19*
X74608082Y-72898936D03*
D11*
G36*
X75260388Y-73201224D02*
X74910370Y-73551242D01*
X73955776Y-72596648D01*
X74305794Y-72246630D01*
X75260388Y-73201224D01*
X75260388Y-73201224D01*
G37*
G04 #@! TD*
D20*
G04 #@! TO.C,J1*
X70927000Y-84855000D03*
X83637000Y-84855000D03*
D21*
X73532000Y-79665000D03*
X75032000Y-79665000D03*
X76532000Y-79665000D03*
X78032000Y-79665000D03*
X79532000Y-79665000D03*
X81032000Y-79665000D03*
G04 #@! TD*
D22*
G04 #@! TO.C,J2*
X63782000Y-84347500D03*
D23*
X64782000Y-81647500D03*
X65432000Y-81647500D03*
X66082000Y-81647500D03*
X63482000Y-81647500D03*
X64132000Y-81647500D03*
D22*
X65782000Y-84347500D03*
G04 #@! TD*
D11*
G04 #@! TO.C,Q1*
G36*
X54360643Y-72792867D02*
X54378116Y-72795459D01*
X54395251Y-72799751D01*
X54411883Y-72805702D01*
X54427851Y-72813254D01*
X54443003Y-72822335D01*
X54457191Y-72832858D01*
X54470279Y-72844721D01*
X54482142Y-72857809D01*
X54492665Y-72871997D01*
X54501746Y-72887149D01*
X54509298Y-72903117D01*
X54515249Y-72919749D01*
X54519541Y-72936884D01*
X54522133Y-72954357D01*
X54523000Y-72972000D01*
X54523000Y-73332000D01*
X54522133Y-73349643D01*
X54519541Y-73367116D01*
X54515249Y-73384251D01*
X54509298Y-73400883D01*
X54501746Y-73416851D01*
X54492665Y-73432003D01*
X54482142Y-73446191D01*
X54470279Y-73459279D01*
X54457191Y-73471142D01*
X54443003Y-73481665D01*
X54427851Y-73490746D01*
X54411883Y-73498298D01*
X54395251Y-73504249D01*
X54378116Y-73508541D01*
X54360643Y-73511133D01*
X54343000Y-73512000D01*
X53893000Y-73512000D01*
X53875357Y-73511133D01*
X53857884Y-73508541D01*
X53840749Y-73504249D01*
X53824117Y-73498298D01*
X53808149Y-73490746D01*
X53792997Y-73481665D01*
X53778809Y-73471142D01*
X53765721Y-73459279D01*
X53753858Y-73446191D01*
X53743335Y-73432003D01*
X53734254Y-73416851D01*
X53726702Y-73400883D01*
X53720751Y-73384251D01*
X53716459Y-73367116D01*
X53713867Y-73349643D01*
X53713000Y-73332000D01*
X53713000Y-72972000D01*
X53713867Y-72954357D01*
X53716459Y-72936884D01*
X53720751Y-72919749D01*
X53726702Y-72903117D01*
X53734254Y-72887149D01*
X53743335Y-72871997D01*
X53753858Y-72857809D01*
X53765721Y-72844721D01*
X53778809Y-72832858D01*
X53792997Y-72822335D01*
X53808149Y-72813254D01*
X53824117Y-72805702D01*
X53840749Y-72799751D01*
X53857884Y-72795459D01*
X53875357Y-72792867D01*
X53893000Y-72792000D01*
X54343000Y-72792000D01*
X54360643Y-72792867D01*
X54360643Y-72792867D01*
G37*
D24*
X54118000Y-73152000D03*
D11*
G36*
X56360643Y-71842867D02*
X56378116Y-71845459D01*
X56395251Y-71849751D01*
X56411883Y-71855702D01*
X56427851Y-71863254D01*
X56443003Y-71872335D01*
X56457191Y-71882858D01*
X56470279Y-71894721D01*
X56482142Y-71907809D01*
X56492665Y-71921997D01*
X56501746Y-71937149D01*
X56509298Y-71953117D01*
X56515249Y-71969749D01*
X56519541Y-71986884D01*
X56522133Y-72004357D01*
X56523000Y-72022000D01*
X56523000Y-72382000D01*
X56522133Y-72399643D01*
X56519541Y-72417116D01*
X56515249Y-72434251D01*
X56509298Y-72450883D01*
X56501746Y-72466851D01*
X56492665Y-72482003D01*
X56482142Y-72496191D01*
X56470279Y-72509279D01*
X56457191Y-72521142D01*
X56443003Y-72531665D01*
X56427851Y-72540746D01*
X56411883Y-72548298D01*
X56395251Y-72554249D01*
X56378116Y-72558541D01*
X56360643Y-72561133D01*
X56343000Y-72562000D01*
X55893000Y-72562000D01*
X55875357Y-72561133D01*
X55857884Y-72558541D01*
X55840749Y-72554249D01*
X55824117Y-72548298D01*
X55808149Y-72540746D01*
X55792997Y-72531665D01*
X55778809Y-72521142D01*
X55765721Y-72509279D01*
X55753858Y-72496191D01*
X55743335Y-72482003D01*
X55734254Y-72466851D01*
X55726702Y-72450883D01*
X55720751Y-72434251D01*
X55716459Y-72417116D01*
X55713867Y-72399643D01*
X55713000Y-72382000D01*
X55713000Y-72022000D01*
X55713867Y-72004357D01*
X55716459Y-71986884D01*
X55720751Y-71969749D01*
X55726702Y-71953117D01*
X55734254Y-71937149D01*
X55743335Y-71921997D01*
X55753858Y-71907809D01*
X55765721Y-71894721D01*
X55778809Y-71882858D01*
X55792997Y-71872335D01*
X55808149Y-71863254D01*
X55824117Y-71855702D01*
X55840749Y-71849751D01*
X55857884Y-71845459D01*
X55875357Y-71842867D01*
X55893000Y-71842000D01*
X56343000Y-71842000D01*
X56360643Y-71842867D01*
X56360643Y-71842867D01*
G37*
D24*
X56118000Y-72202000D03*
D11*
G36*
X56360643Y-73742867D02*
X56378116Y-73745459D01*
X56395251Y-73749751D01*
X56411883Y-73755702D01*
X56427851Y-73763254D01*
X56443003Y-73772335D01*
X56457191Y-73782858D01*
X56470279Y-73794721D01*
X56482142Y-73807809D01*
X56492665Y-73821997D01*
X56501746Y-73837149D01*
X56509298Y-73853117D01*
X56515249Y-73869749D01*
X56519541Y-73886884D01*
X56522133Y-73904357D01*
X56523000Y-73922000D01*
X56523000Y-74282000D01*
X56522133Y-74299643D01*
X56519541Y-74317116D01*
X56515249Y-74334251D01*
X56509298Y-74350883D01*
X56501746Y-74366851D01*
X56492665Y-74382003D01*
X56482142Y-74396191D01*
X56470279Y-74409279D01*
X56457191Y-74421142D01*
X56443003Y-74431665D01*
X56427851Y-74440746D01*
X56411883Y-74448298D01*
X56395251Y-74454249D01*
X56378116Y-74458541D01*
X56360643Y-74461133D01*
X56343000Y-74462000D01*
X55893000Y-74462000D01*
X55875357Y-74461133D01*
X55857884Y-74458541D01*
X55840749Y-74454249D01*
X55824117Y-74448298D01*
X55808149Y-74440746D01*
X55792997Y-74431665D01*
X55778809Y-74421142D01*
X55765721Y-74409279D01*
X55753858Y-74396191D01*
X55743335Y-74382003D01*
X55734254Y-74366851D01*
X55726702Y-74350883D01*
X55720751Y-74334251D01*
X55716459Y-74317116D01*
X55713867Y-74299643D01*
X55713000Y-74282000D01*
X55713000Y-73922000D01*
X55713867Y-73904357D01*
X55716459Y-73886884D01*
X55720751Y-73869749D01*
X55726702Y-73853117D01*
X55734254Y-73837149D01*
X55743335Y-73821997D01*
X55753858Y-73807809D01*
X55765721Y-73794721D01*
X55778809Y-73782858D01*
X55792997Y-73772335D01*
X55808149Y-73763254D01*
X55824117Y-73755702D01*
X55840749Y-73749751D01*
X55857884Y-73745459D01*
X55875357Y-73742867D01*
X55893000Y-73742000D01*
X56343000Y-73742000D01*
X56360643Y-73742867D01*
X56360643Y-73742867D01*
G37*
D24*
X56118000Y-74102000D03*
G04 #@! TD*
D25*
G04 #@! TO.C,U3*
X61534000Y-75010000D03*
X61534000Y-72210000D03*
X62484000Y-72210000D03*
X63434000Y-72210000D03*
X63434000Y-75010000D03*
G04 #@! TD*
D26*
G04 #@! TO.C,U4*
X58757500Y-63754000D03*
X58757500Y-62804000D03*
X58757500Y-64704000D03*
X56558500Y-64704000D03*
X56558500Y-63754000D03*
X56558500Y-62804000D03*
G04 #@! TD*
D16*
G04 #@! TO.C,C4*
X80850153Y-70914847D03*
D11*
G36*
X80874018Y-71495558D02*
X80269442Y-70890982D01*
X80826288Y-70334136D01*
X81430864Y-70938712D01*
X80874018Y-71495558D01*
X80874018Y-71495558D01*
G37*
D16*
X81963847Y-69801153D03*
D11*
G36*
X81987712Y-70381864D02*
X81383136Y-69777288D01*
X81939982Y-69220442D01*
X82544558Y-69825018D01*
X81987712Y-70381864D01*
X81987712Y-70381864D01*
G37*
G04 #@! TD*
D18*
G04 #@! TO.C,C21*
X61823500Y-53340000D03*
X63398500Y-53340000D03*
G04 #@! TD*
M02*
