G04 #@! TF.GenerationSoftware,KiCad,Pcbnew,5.0.2+dfsg1-1*
G04 #@! TF.CreationDate,2019-09-05T11:37:23+02:00*
G04 #@! TF.ProjectId,xling,786c696e-672e-46b6-9963-61645f706362,0.3*
G04 #@! TF.SameCoordinates,Original*
G04 #@! TF.FileFunction,Copper,L1,Top*
G04 #@! TF.FilePolarity,Positive*
%FSLAX46Y46*%
G04 Gerber Fmt 4.6, Leading zero omitted, Abs format (unit mm)*
G04 Created by KiCad (PCBNEW 5.0.2+dfsg1-1) date Thu 05 Sep 2019 11:37:23 CEST*
%MOMM*%
%LPD*%
G01*
G04 APERTURE LIST*
G04 #@! TA.AperFunction,SMDPad,CuDef*
%ADD10R,0.350000X2.500000*%
G04 #@! TD*
G04 #@! TA.AperFunction,Conductor*
%ADD11C,0.100000*%
G04 #@! TD*
G04 #@! TA.AperFunction,SMDPad,CuDef*
%ADD12C,1.500000*%
G04 #@! TD*
G04 #@! TA.AperFunction,SMDPad,CuDef*
%ADD13R,1.600000X1.400000*%
G04 #@! TD*
G04 #@! TA.AperFunction,SMDPad,CuDef*
%ADD14R,1.250000X2.650000*%
G04 #@! TD*
G04 #@! TA.AperFunction,SMDPad,CuDef*
%ADD15R,1.200000X0.900000*%
G04 #@! TD*
G04 #@! TA.AperFunction,SMDPad,CuDef*
%ADD16C,0.875000*%
G04 #@! TD*
G04 #@! TA.AperFunction,SMDPad,CuDef*
%ADD17R,0.950000X0.875000*%
G04 #@! TD*
G04 #@! TA.AperFunction,SMDPad,CuDef*
%ADD18R,0.875000X0.950000*%
G04 #@! TD*
G04 #@! TA.AperFunction,SMDPad,CuDef*
%ADD19C,0.550000*%
G04 #@! TD*
G04 #@! TA.AperFunction,SMDPad,CuDef*
%ADD20R,1.250000X1.800000*%
G04 #@! TD*
G04 #@! TA.AperFunction,SMDPad,CuDef*
%ADD21R,0.600000X1.000000*%
G04 #@! TD*
G04 #@! TA.AperFunction,SMDPad,CuDef*
%ADD22R,1.200000X1.900000*%
G04 #@! TD*
G04 #@! TA.AperFunction,ComponentPad*
%ADD23O,1.200000X1.900000*%
G04 #@! TD*
G04 #@! TA.AperFunction,SMDPad,CuDef*
%ADD24R,1.500000X1.900000*%
G04 #@! TD*
G04 #@! TA.AperFunction,ComponentPad*
%ADD25C,1.450000*%
G04 #@! TD*
G04 #@! TA.AperFunction,SMDPad,CuDef*
%ADD26R,0.400000X1.350000*%
G04 #@! TD*
G04 #@! TA.AperFunction,SMDPad,CuDef*
%ADD27C,0.800000*%
G04 #@! TD*
G04 #@! TA.AperFunction,SMDPad,CuDef*
%ADD28R,0.600000X1.100000*%
G04 #@! TD*
G04 #@! TA.AperFunction,SMDPad,CuDef*
%ADD29R,1.000000X0.700000*%
G04 #@! TD*
G04 #@! TA.AperFunction,ViaPad*
%ADD30C,0.600000*%
G04 #@! TD*
G04 #@! TA.AperFunction,Conductor*
%ADD31C,0.600000*%
G04 #@! TD*
G04 #@! TA.AperFunction,Conductor*
%ADD32C,0.200000*%
G04 #@! TD*
G04 #@! TA.AperFunction,Conductor*
%ADD33C,0.400000*%
G04 #@! TD*
G04 #@! TA.AperFunction,Conductor*
%ADD34C,0.254000*%
G04 #@! TD*
G04 APERTURE END LIST*
D10*
G04 #@! TO.P,U1,29*
G04 #@! TO.N,GND*
X79132000Y-49310000D03*
G04 #@! TO.P,U1,30*
G04 #@! TO.N,N/C*
X79832000Y-49310000D03*
G04 #@! TO.P,U1,20*
G04 #@! TO.N,GND*
X72832000Y-49310000D03*
G04 #@! TO.P,U1,27*
G04 #@! TO.N,Net-(C11-Pad1)*
X77732000Y-49310000D03*
G04 #@! TO.P,U1,28*
G04 #@! TO.N,Net-(C2-Pad1)*
X78432000Y-49310000D03*
G04 #@! TO.P,U1,26*
G04 #@! TO.N,Net-(R4-Pad2)*
X77032000Y-49310000D03*
G04 #@! TO.P,U1,25*
G04 #@! TO.N,GND*
X76332000Y-49310000D03*
G04 #@! TO.P,U1,24*
X75632000Y-49310000D03*
G04 #@! TO.P,U1,23*
X74932000Y-49310000D03*
G04 #@! TO.P,U1,22*
X74232000Y-49310000D03*
G04 #@! TO.P,U1,21*
X73532000Y-49310000D03*
G04 #@! TO.P,U1,19*
G04 #@! TO.N,Net-(R20-Pad2)*
X72132000Y-49310000D03*
G04 #@! TO.P,U1,18*
G04 #@! TO.N,Net-(R19-Pad2)*
X71432000Y-49310000D03*
G04 #@! TO.P,U1,17*
G04 #@! TO.N,+3V3*
X70732000Y-49310000D03*
G04 #@! TO.P,U1,16*
X70032000Y-49310000D03*
G04 #@! TO.P,U1,15*
G04 #@! TO.N,GND*
X69332000Y-49310000D03*
G04 #@! TO.P,U1,13*
G04 #@! TO.N,OLED_CS*
X67932000Y-49310000D03*
G04 #@! TO.P,U1,14*
G04 #@! TO.N,OLED_RST*
X68632000Y-49310000D03*
G04 #@! TO.P,U1,12*
G04 #@! TO.N,GND*
X67232000Y-49310000D03*
G04 #@! TO.P,U1,11*
X66532000Y-49310000D03*
G04 #@! TO.P,U1,10*
G04 #@! TO.N,+3V3*
X65832000Y-49310000D03*
G04 #@! TO.P,U1,9*
X65132000Y-49310000D03*
G04 #@! TO.P,U1,8*
G04 #@! TO.N,GND*
X64432000Y-49310000D03*
G04 #@! TO.P,U1,7*
G04 #@! TO.N,N/C*
X63732000Y-49310000D03*
G04 #@! TO.P,U1,6*
G04 #@! TO.N,+3V3*
X63032000Y-49310000D03*
G04 #@! TO.P,U1,5*
G04 #@! TO.N,Net-(C9-Pad2)*
X62332000Y-49310000D03*
G04 #@! TO.P,U1,4*
G04 #@! TO.N,Net-(C9-Pad1)*
X61632000Y-49310000D03*
G04 #@! TO.P,U1,3*
G04 #@! TO.N,Net-(C8-Pad2)*
X60932000Y-49310000D03*
G04 #@! TO.P,U1,2*
G04 #@! TO.N,Net-(C8-Pad1)*
X60232000Y-49310000D03*
G04 #@! TO.P,U1,1*
G04 #@! TO.N,N/C*
X59532000Y-49310000D03*
G04 #@! TD*
D11*
G04 #@! TO.N,/BAT*
G04 #@! TO.C,J3*
G36*
X58121256Y-53230306D02*
X58157659Y-53235706D01*
X58193357Y-53244647D01*
X58228006Y-53257045D01*
X58261274Y-53272780D01*
X58292839Y-53291699D01*
X58322397Y-53313621D01*
X58349665Y-53338335D01*
X58374379Y-53365603D01*
X58396301Y-53395161D01*
X58415220Y-53426726D01*
X58430955Y-53459994D01*
X58443353Y-53494643D01*
X58452294Y-53530341D01*
X58457694Y-53566744D01*
X58459500Y-53603500D01*
X58459500Y-54353500D01*
X58457694Y-54390256D01*
X58452294Y-54426659D01*
X58443353Y-54462357D01*
X58430955Y-54497006D01*
X58415220Y-54530274D01*
X58396301Y-54561839D01*
X58374379Y-54591397D01*
X58349665Y-54618665D01*
X58322397Y-54643379D01*
X58292839Y-54665301D01*
X58261274Y-54684220D01*
X58228006Y-54699955D01*
X58193357Y-54712353D01*
X58157659Y-54721294D01*
X58121256Y-54726694D01*
X58084500Y-54728500D01*
X55834500Y-54728500D01*
X55797744Y-54726694D01*
X55761341Y-54721294D01*
X55725643Y-54712353D01*
X55690994Y-54699955D01*
X55657726Y-54684220D01*
X55626161Y-54665301D01*
X55596603Y-54643379D01*
X55569335Y-54618665D01*
X55544621Y-54591397D01*
X55522699Y-54561839D01*
X55503780Y-54530274D01*
X55488045Y-54497006D01*
X55475647Y-54462357D01*
X55466706Y-54426659D01*
X55461306Y-54390256D01*
X55459500Y-54353500D01*
X55459500Y-53603500D01*
X55461306Y-53566744D01*
X55466706Y-53530341D01*
X55475647Y-53494643D01*
X55488045Y-53459994D01*
X55503780Y-53426726D01*
X55522699Y-53395161D01*
X55544621Y-53365603D01*
X55569335Y-53338335D01*
X55596603Y-53313621D01*
X55626161Y-53291699D01*
X55657726Y-53272780D01*
X55690994Y-53257045D01*
X55725643Y-53244647D01*
X55761341Y-53235706D01*
X55797744Y-53230306D01*
X55834500Y-53228500D01*
X58084500Y-53228500D01*
X58121256Y-53230306D01*
X58121256Y-53230306D01*
G37*
D12*
G04 #@! TD*
G04 #@! TO.P,J3,1*
G04 #@! TO.N,/BAT*
X56959500Y-53978500D03*
D11*
G04 #@! TO.N,GND*
G04 #@! TO.C,J3*
G36*
X58121256Y-55830306D02*
X58157659Y-55835706D01*
X58193357Y-55844647D01*
X58228006Y-55857045D01*
X58261274Y-55872780D01*
X58292839Y-55891699D01*
X58322397Y-55913621D01*
X58349665Y-55938335D01*
X58374379Y-55965603D01*
X58396301Y-55995161D01*
X58415220Y-56026726D01*
X58430955Y-56059994D01*
X58443353Y-56094643D01*
X58452294Y-56130341D01*
X58457694Y-56166744D01*
X58459500Y-56203500D01*
X58459500Y-56953500D01*
X58457694Y-56990256D01*
X58452294Y-57026659D01*
X58443353Y-57062357D01*
X58430955Y-57097006D01*
X58415220Y-57130274D01*
X58396301Y-57161839D01*
X58374379Y-57191397D01*
X58349665Y-57218665D01*
X58322397Y-57243379D01*
X58292839Y-57265301D01*
X58261274Y-57284220D01*
X58228006Y-57299955D01*
X58193357Y-57312353D01*
X58157659Y-57321294D01*
X58121256Y-57326694D01*
X58084500Y-57328500D01*
X55834500Y-57328500D01*
X55797744Y-57326694D01*
X55761341Y-57321294D01*
X55725643Y-57312353D01*
X55690994Y-57299955D01*
X55657726Y-57284220D01*
X55626161Y-57265301D01*
X55596603Y-57243379D01*
X55569335Y-57218665D01*
X55544621Y-57191397D01*
X55522699Y-57161839D01*
X55503780Y-57130274D01*
X55488045Y-57097006D01*
X55475647Y-57062357D01*
X55466706Y-57026659D01*
X55461306Y-56990256D01*
X55459500Y-56953500D01*
X55459500Y-56203500D01*
X55461306Y-56166744D01*
X55466706Y-56130341D01*
X55475647Y-56094643D01*
X55488045Y-56059994D01*
X55503780Y-56026726D01*
X55522699Y-55995161D01*
X55544621Y-55965603D01*
X55569335Y-55938335D01*
X55596603Y-55913621D01*
X55626161Y-55891699D01*
X55657726Y-55872780D01*
X55690994Y-55857045D01*
X55725643Y-55844647D01*
X55761341Y-55835706D01*
X55797744Y-55830306D01*
X55834500Y-55828500D01*
X58084500Y-55828500D01*
X58121256Y-55830306D01*
X58121256Y-55830306D01*
G37*
D12*
G04 #@! TD*
G04 #@! TO.P,J3,2*
G04 #@! TO.N,GND*
X56959500Y-56578500D03*
D13*
G04 #@! TO.P,Y1,1*
G04 #@! TO.N,Net-(C6-Pad2)*
X84242000Y-55642000D03*
G04 #@! TO.P,Y1,2*
G04 #@! TO.N,GND*
X80042000Y-55642000D03*
G04 #@! TO.P,Y1,3*
G04 #@! TO.N,Net-(C5-Pad2)*
X80042000Y-57842000D03*
G04 #@! TO.P,Y1,4*
G04 #@! TO.N,GND*
X84242000Y-57842000D03*
G04 #@! TD*
D14*
G04 #@! TO.P,L1,2*
G04 #@! TO.N,Net-(C1-Pad1)*
X55877000Y-80010000D03*
G04 #@! TO.P,L1,1*
G04 #@! TO.N,+3V3*
X58677000Y-80010000D03*
G04 #@! TD*
G04 #@! TO.P,L2,2*
G04 #@! TO.N,+3V3*
X58677000Y-83820000D03*
G04 #@! TO.P,L2,1*
G04 #@! TO.N,Net-(L2-Pad1)*
X55877000Y-83820000D03*
G04 #@! TD*
D15*
G04 #@! TO.P,D1,2*
G04 #@! TO.N,/USB*
X58547000Y-75056000D03*
G04 #@! TO.P,D1,1*
G04 #@! TO.N,/PWR*
X58547000Y-71756000D03*
G04 #@! TD*
D16*
G04 #@! TO.P,C1,2*
G04 #@! TO.N,GND*
X65102153Y-60754847D03*
D11*
G04 #@! TD*
G04 #@! TO.N,GND*
G04 #@! TO.C,C1*
G36*
X65075636Y-60109612D02*
X65747388Y-60781364D01*
X65128670Y-61400082D01*
X64456918Y-60728330D01*
X65075636Y-60109612D01*
X65075636Y-60109612D01*
G37*
D16*
G04 #@! TO.P,C1,1*
G04 #@! TO.N,Net-(C1-Pad1)*
X66215847Y-59641153D03*
D11*
G04 #@! TD*
G04 #@! TO.N,Net-(C1-Pad1)*
G04 #@! TO.C,C1*
G36*
X66189330Y-58995918D02*
X66861082Y-59667670D01*
X66242364Y-60286388D01*
X65570612Y-59614636D01*
X66189330Y-58995918D01*
X66189330Y-58995918D01*
G37*
D17*
G04 #@! TO.P,C2,2*
G04 #@! TO.N,GND*
X82296000Y-50063500D03*
G04 #@! TO.P,C2,1*
G04 #@! TO.N,Net-(C2-Pad1)*
X82296000Y-48488500D03*
G04 #@! TD*
D16*
G04 #@! TO.P,C3,2*
G04 #@! TO.N,GND*
X68628847Y-72629347D03*
D11*
G04 #@! TD*
G04 #@! TO.N,GND*
G04 #@! TO.C,C3*
G36*
X67983612Y-72655864D02*
X68655364Y-71984112D01*
X69274082Y-72602830D01*
X68602330Y-73274582D01*
X67983612Y-72655864D01*
X67983612Y-72655864D01*
G37*
D16*
G04 #@! TO.P,C3,1*
G04 #@! TO.N,+3V3*
X67515153Y-71515653D03*
D11*
G04 #@! TD*
G04 #@! TO.N,+3V3*
G04 #@! TO.C,C3*
G36*
X66869918Y-71542170D02*
X67541670Y-70870418D01*
X68160388Y-71489136D01*
X67488636Y-72160888D01*
X66869918Y-71542170D01*
X66869918Y-71542170D01*
G37*
D18*
G04 #@! TO.P,C5,2*
G04 #@! TO.N,Net-(C5-Pad2)*
X82715000Y-59817000D03*
G04 #@! TO.P,C5,1*
G04 #@! TO.N,GND*
X84290000Y-59817000D03*
G04 #@! TD*
G04 #@! TO.P,C6,2*
G04 #@! TO.N,Net-(C6-Pad2)*
X84353500Y-53467000D03*
G04 #@! TO.P,C6,1*
G04 #@! TO.N,GND*
X82778500Y-53467000D03*
G04 #@! TD*
D16*
G04 #@! TO.P,C7,2*
G04 #@! TO.N,GND*
X66372153Y-62024847D03*
D11*
G04 #@! TD*
G04 #@! TO.N,GND*
G04 #@! TO.C,C7*
G36*
X66345636Y-61379612D02*
X67017388Y-62051364D01*
X66398670Y-62670082D01*
X65726918Y-61998330D01*
X66345636Y-61379612D01*
X66345636Y-61379612D01*
G37*
D16*
G04 #@! TO.P,C7,1*
G04 #@! TO.N,Net-(C7-Pad1)*
X67485847Y-60911153D03*
D11*
G04 #@! TD*
G04 #@! TO.N,Net-(C7-Pad1)*
G04 #@! TO.C,C7*
G36*
X67459330Y-60265918D02*
X68131082Y-60937670D01*
X67512364Y-61556388D01*
X66840612Y-60884636D01*
X67459330Y-60265918D01*
X67459330Y-60265918D01*
G37*
D17*
G04 #@! TO.P,C8,2*
G04 #@! TO.N,Net-(C8-Pad2)*
X56959500Y-48552000D03*
G04 #@! TO.P,C8,1*
G04 #@! TO.N,Net-(C8-Pad1)*
X56959500Y-50127000D03*
G04 #@! TD*
G04 #@! TO.P,C9,2*
G04 #@! TO.N,Net-(C9-Pad2)*
X54610000Y-48552000D03*
G04 #@! TO.P,C9,1*
G04 #@! TO.N,Net-(C9-Pad1)*
X54610000Y-50127000D03*
G04 #@! TD*
D16*
G04 #@! TO.P,C10,2*
G04 #@! TO.N,GND*
X80503347Y-62088347D03*
D11*
G04 #@! TD*
G04 #@! TO.N,GND*
G04 #@! TO.C,C10*
G36*
X79858112Y-62114864D02*
X80529864Y-61443112D01*
X81148582Y-62061830D01*
X80476830Y-62733582D01*
X79858112Y-62114864D01*
X79858112Y-62114864D01*
G37*
D16*
G04 #@! TO.P,C10,1*
G04 #@! TO.N,+3V3*
X79389653Y-60974653D03*
D11*
G04 #@! TD*
G04 #@! TO.N,+3V3*
G04 #@! TO.C,C10*
G36*
X78744418Y-61001170D02*
X79416170Y-60329418D01*
X80034888Y-60948136D01*
X79363136Y-61619888D01*
X78744418Y-61001170D01*
X78744418Y-61001170D01*
G37*
D17*
G04 #@! TO.P,C11,2*
G04 #@! TO.N,GND*
X84201000Y-50063500D03*
G04 #@! TO.P,C11,1*
G04 #@! TO.N,Net-(C11-Pad1)*
X84201000Y-48488500D03*
G04 #@! TD*
G04 #@! TO.P,C12,2*
G04 #@! TO.N,GND*
X83058000Y-75920500D03*
G04 #@! TO.P,C12,1*
G04 #@! TO.N,RST*
X83058000Y-77495500D03*
G04 #@! TD*
D16*
G04 #@! TO.P,C13,2*
G04 #@! TO.N,GND*
X82852847Y-64437847D03*
D11*
G04 #@! TD*
G04 #@! TO.N,GND*
G04 #@! TO.C,C13*
G36*
X82207612Y-64464364D02*
X82879364Y-63792612D01*
X83498082Y-64411330D01*
X82826330Y-65083082D01*
X82207612Y-64464364D01*
X82207612Y-64464364D01*
G37*
D16*
G04 #@! TO.P,C13,1*
G04 #@! TO.N,BTN1*
X81739153Y-63324153D03*
D11*
G04 #@! TD*
G04 #@! TO.N,BTN1*
G04 #@! TO.C,C13*
G36*
X81093918Y-63350670D02*
X81765670Y-62678918D01*
X82384388Y-63297636D01*
X81712636Y-63969388D01*
X81093918Y-63350670D01*
X81093918Y-63350670D01*
G37*
D17*
G04 #@! TO.P,C14,2*
G04 #@! TO.N,GND*
X85090000Y-67538500D03*
G04 #@! TO.P,C14,1*
G04 #@! TO.N,BTN2*
X85090000Y-69113500D03*
G04 #@! TD*
D18*
G04 #@! TO.P,C15,2*
G04 #@! TO.N,GND*
X69316500Y-78333600D03*
G04 #@! TO.P,C15,1*
G04 #@! TO.N,BTN3*
X70891500Y-78333600D03*
G04 #@! TD*
G04 #@! TO.P,C16,2*
G04 #@! TO.N,Net-(C16-Pad2)*
X60299500Y-60706000D03*
G04 #@! TO.P,C16,1*
G04 #@! TO.N,+3V3*
X61874500Y-60706000D03*
G04 #@! TD*
G04 #@! TO.P,C17,2*
G04 #@! TO.N,GND*
X56540500Y-58864500D03*
G04 #@! TO.P,C17,1*
G04 #@! TO.N,/BAT*
X54965500Y-58864500D03*
G04 #@! TD*
G04 #@! TO.P,C18,2*
G04 #@! TO.N,GND*
X57124500Y-77216000D03*
G04 #@! TO.P,C18,1*
G04 #@! TO.N,+3V3*
X58699500Y-77216000D03*
G04 #@! TD*
G04 #@! TO.P,C19,2*
G04 #@! TO.N,GND*
X56870500Y-68961000D03*
G04 #@! TO.P,C19,1*
G04 #@! TO.N,/PWR*
X58445500Y-68961000D03*
G04 #@! TD*
G04 #@! TO.P,C20,2*
G04 #@! TO.N,GND*
X61442500Y-78994000D03*
G04 #@! TO.P,C20,1*
G04 #@! TO.N,/USB*
X63017500Y-78994000D03*
G04 #@! TD*
D16*
G04 #@! TO.P,C22,2*
G04 #@! TO.N,BAT_LVL*
X64818847Y-63167847D03*
D11*
G04 #@! TD*
G04 #@! TO.N,BAT_LVL*
G04 #@! TO.C,C22*
G36*
X64173612Y-63194364D02*
X64845364Y-62522612D01*
X65464082Y-63141330D01*
X64792330Y-63813082D01*
X64173612Y-63194364D01*
X64173612Y-63194364D01*
G37*
D16*
G04 #@! TO.P,C22,1*
G04 #@! TO.N,GND*
X63705153Y-62054153D03*
D11*
G04 #@! TD*
G04 #@! TO.N,GND*
G04 #@! TO.C,C22*
G36*
X63059918Y-62080670D02*
X63731670Y-61408918D01*
X64350388Y-62027636D01*
X63678636Y-62699388D01*
X63059918Y-62080670D01*
X63059918Y-62080670D01*
G37*
D17*
G04 #@! TO.P,R1,2*
G04 #@! TO.N,OLED_RST*
X69278500Y-55207000D03*
G04 #@! TO.P,R1,1*
G04 #@! TO.N,+3V3*
X69278500Y-53632000D03*
G04 #@! TD*
G04 #@! TO.P,R2,2*
G04 #@! TO.N,OLED_CS*
X67437000Y-55207000D03*
G04 #@! TO.P,R2,1*
G04 #@! TO.N,+3V3*
X67437000Y-53632000D03*
G04 #@! TD*
D16*
G04 #@! TO.P,R3,2*
G04 #@! TO.N,RST*
X78564153Y-73200847D03*
D11*
G04 #@! TD*
G04 #@! TO.N,RST*
G04 #@! TO.C,R3*
G36*
X78537636Y-72555612D02*
X79209388Y-73227364D01*
X78590670Y-73846082D01*
X77918918Y-73174330D01*
X78537636Y-72555612D01*
X78537636Y-72555612D01*
G37*
D16*
G04 #@! TO.P,R3,1*
G04 #@! TO.N,+3V3*
X79677847Y-72087153D03*
D11*
G04 #@! TD*
G04 #@! TO.N,+3V3*
G04 #@! TO.C,R3*
G36*
X79651330Y-71441918D02*
X80323082Y-72113670D01*
X79704364Y-72732388D01*
X79032612Y-72060636D01*
X79651330Y-71441918D01*
X79651330Y-71441918D01*
G37*
D17*
G04 #@! TO.P,R4,2*
G04 #@! TO.N,Net-(R4-Pad2)*
X75692000Y-53695500D03*
G04 #@! TO.P,R4,1*
G04 #@! TO.N,GND*
X75692000Y-55270500D03*
G04 #@! TD*
D16*
G04 #@! TO.P,R5,2*
G04 #@! TO.N,+3V3*
X82120153Y-72184847D03*
D11*
G04 #@! TD*
G04 #@! TO.N,+3V3*
G04 #@! TO.C,R5*
G36*
X82093636Y-71539612D02*
X82765388Y-72211364D01*
X82146670Y-72830082D01*
X81474918Y-72158330D01*
X82093636Y-71539612D01*
X82093636Y-71539612D01*
G37*
D16*
G04 #@! TO.P,R5,1*
G04 #@! TO.N,Net-(R5-Pad1)*
X83233847Y-71071153D03*
D11*
G04 #@! TD*
G04 #@! TO.N,Net-(R5-Pad1)*
G04 #@! TO.C,R5*
G36*
X83207330Y-70425918D02*
X83879082Y-71097670D01*
X83260364Y-71716388D01*
X82588612Y-71044636D01*
X83207330Y-70425918D01*
X83207330Y-70425918D01*
G37*
D16*
G04 #@! TO.P,R6,2*
G04 #@! TO.N,+3V3*
X79834153Y-74470847D03*
D11*
G04 #@! TD*
G04 #@! TO.N,+3V3*
G04 #@! TO.C,R6*
G36*
X79807636Y-73825612D02*
X80479388Y-74497364D01*
X79860670Y-75116082D01*
X79188918Y-74444330D01*
X79807636Y-73825612D01*
X79807636Y-73825612D01*
G37*
D16*
G04 #@! TO.P,R6,1*
G04 #@! TO.N,Net-(R6-Pad1)*
X80947847Y-73357153D03*
D11*
G04 #@! TD*
G04 #@! TO.N,Net-(R6-Pad1)*
G04 #@! TO.C,R6*
G36*
X80921330Y-72711918D02*
X81593082Y-73383670D01*
X80974364Y-74002388D01*
X80302612Y-73330636D01*
X80921330Y-72711918D01*
X80921330Y-72711918D01*
G37*
D18*
G04 #@! TO.P,R7,2*
G04 #@! TO.N,+3V3*
X67741700Y-74828400D03*
G04 #@! TO.P,R7,1*
G04 #@! TO.N,Net-(R10-Pad2)*
X69316700Y-74828400D03*
G04 #@! TD*
D16*
G04 #@! TO.P,R8,2*
G04 #@! TO.N,Net-(R5-Pad1)*
X84122847Y-63167847D03*
D11*
G04 #@! TD*
G04 #@! TO.N,Net-(R5-Pad1)*
G04 #@! TO.C,R8*
G36*
X83477612Y-63194364D02*
X84149364Y-62522612D01*
X84768082Y-63141330D01*
X84096330Y-63813082D01*
X83477612Y-63194364D01*
X83477612Y-63194364D01*
G37*
D16*
G04 #@! TO.P,R8,1*
G04 #@! TO.N,BTN1*
X83009153Y-62054153D03*
D11*
G04 #@! TD*
G04 #@! TO.N,BTN1*
G04 #@! TO.C,R8*
G36*
X82363918Y-62080670D02*
X83035670Y-61408918D01*
X83654388Y-62027636D01*
X82982636Y-62699388D01*
X82363918Y-62080670D01*
X82363918Y-62080670D01*
G37*
D16*
G04 #@! TO.P,R9,2*
G04 #@! TO.N,Net-(R6-Pad1)*
X83390153Y-73454847D03*
D11*
G04 #@! TD*
G04 #@! TO.N,Net-(R6-Pad1)*
G04 #@! TO.C,R9*
G36*
X83363636Y-72809612D02*
X84035388Y-73481364D01*
X83416670Y-74100082D01*
X82744918Y-73428330D01*
X83363636Y-72809612D01*
X83363636Y-72809612D01*
G37*
D16*
G04 #@! TO.P,R9,1*
G04 #@! TO.N,BTN2*
X84503847Y-72341153D03*
D11*
G04 #@! TD*
G04 #@! TO.N,BTN2*
G04 #@! TO.C,R9*
G36*
X84477330Y-71695918D02*
X85149082Y-72367670D01*
X84530364Y-72986388D01*
X83858612Y-72314636D01*
X84477330Y-71695918D01*
X84477330Y-71695918D01*
G37*
D18*
G04 #@! TO.P,R10,2*
G04 #@! TO.N,Net-(R10-Pad2)*
X69316500Y-76555600D03*
G04 #@! TO.P,R10,1*
G04 #@! TO.N,BTN3*
X70891500Y-76555600D03*
G04 #@! TD*
G04 #@! TO.P,R11,2*
G04 #@! TO.N,/PWR*
X58445500Y-67183000D03*
G04 #@! TO.P,R11,1*
G04 #@! TO.N,Net-(R11-Pad1)*
X56870500Y-67183000D03*
G04 #@! TD*
G04 #@! TO.P,R12,2*
G04 #@! TO.N,+3V3*
X61874500Y-58801000D03*
G04 #@! TO.P,R12,1*
G04 #@! TO.N,Net-(C16-Pad2)*
X60299500Y-58801000D03*
G04 #@! TD*
G04 #@! TO.P,R13,2*
G04 #@! TO.N,/PWR*
X60680500Y-64770000D03*
G04 #@! TO.P,R13,1*
G04 #@! TO.N,Net-(R13-Pad1)*
X62255500Y-64770000D03*
G04 #@! TD*
G04 #@! TO.P,R14,2*
G04 #@! TO.N,/BAT*
X62204500Y-68834000D03*
G04 #@! TO.P,R14,1*
G04 #@! TO.N,BAT_LVL*
X63779500Y-68834000D03*
G04 #@! TD*
G04 #@! TO.P,R15,2*
G04 #@! TO.N,/USB*
X63017500Y-77216000D03*
G04 #@! TO.P,R15,1*
G04 #@! TO.N,GND*
X61442500Y-77216000D03*
G04 #@! TD*
D17*
G04 #@! TO.P,R16,2*
G04 #@! TO.N,GND*
X65125600Y-76631900D03*
G04 #@! TO.P,R16,1*
G04 #@! TO.N,Net-(R16-Pad1)*
X65125600Y-75056900D03*
G04 #@! TD*
D18*
G04 #@! TO.P,R17,2*
G04 #@! TO.N,GND*
X62204500Y-67056000D03*
G04 #@! TO.P,R17,1*
G04 #@! TO.N,BAT_LVL*
X63779500Y-67056000D03*
G04 #@! TD*
G04 #@! TO.P,R18,2*
G04 #@! TO.N,Net-(C16-Pad2)*
X58064500Y-60706000D03*
G04 #@! TO.P,R18,1*
G04 #@! TO.N,GND*
X56489500Y-60706000D03*
G04 #@! TD*
D17*
G04 #@! TO.P,R19,2*
G04 #@! TO.N,Net-(R19-Pad2)*
X72117048Y-53673611D03*
G04 #@! TO.P,R19,1*
G04 #@! TO.N,SCK*
X72117048Y-55248611D03*
G04 #@! TD*
G04 #@! TO.P,R20,2*
G04 #@! TO.N,Net-(R20-Pad2)*
X73895048Y-53673611D03*
G04 #@! TO.P,R20,1*
G04 #@! TO.N,MOSI*
X73895048Y-55248611D03*
G04 #@! TD*
D19*
G04 #@! TO.P,U2,44*
G04 #@! TO.N,BTN3*
X72203918Y-72898936D03*
D11*
G04 #@! TD*
G04 #@! TO.N,BTN3*
G04 #@! TO.C,U2*
G36*
X72539794Y-72174152D02*
X72928702Y-72563060D01*
X71868042Y-73623720D01*
X71479134Y-73234812D01*
X72539794Y-72174152D01*
X72539794Y-72174152D01*
G37*
D19*
G04 #@! TO.P,U2,43*
G04 #@! TO.N,N/C*
X71638233Y-72333250D03*
D11*
G04 #@! TD*
G04 #@! TO.N,N/C*
G04 #@! TO.C,U2*
G36*
X71974109Y-71608466D02*
X72363017Y-71997374D01*
X71302357Y-73058034D01*
X70913449Y-72669126D01*
X71974109Y-71608466D01*
X71974109Y-71608466D01*
G37*
D19*
G04 #@! TO.P,U2,42*
G04 #@! TO.N,N/C*
X71072548Y-71767565D03*
D11*
G04 #@! TD*
G04 #@! TO.N,N/C*
G04 #@! TO.C,U2*
G36*
X71408424Y-71042781D02*
X71797332Y-71431689D01*
X70736672Y-72492349D01*
X70347764Y-72103441D01*
X71408424Y-71042781D01*
X71408424Y-71042781D01*
G37*
D19*
G04 #@! TO.P,U2,41*
G04 #@! TO.N,N/C*
X70506862Y-71201880D03*
D11*
G04 #@! TD*
G04 #@! TO.N,N/C*
G04 #@! TO.C,U2*
G36*
X70842738Y-70477096D02*
X71231646Y-70866004D01*
X70170986Y-71926664D01*
X69782078Y-71537756D01*
X70842738Y-70477096D01*
X70842738Y-70477096D01*
G37*
D19*
G04 #@! TO.P,U2,40*
G04 #@! TO.N,N/C*
X69941177Y-70636194D03*
D11*
G04 #@! TD*
G04 #@! TO.N,N/C*
G04 #@! TO.C,U2*
G36*
X70277053Y-69911410D02*
X70665961Y-70300318D01*
X69605301Y-71360978D01*
X69216393Y-70972070D01*
X70277053Y-69911410D01*
X70277053Y-69911410D01*
G37*
D19*
G04 #@! TO.P,U2,39*
G04 #@! TO.N,GND*
X69375491Y-70070509D03*
D11*
G04 #@! TD*
G04 #@! TO.N,GND*
G04 #@! TO.C,U2*
G36*
X69711367Y-69345725D02*
X70100275Y-69734633D01*
X69039615Y-70795293D01*
X68650707Y-70406385D01*
X69711367Y-69345725D01*
X69711367Y-69345725D01*
G37*
D19*
G04 #@! TO.P,U2,38*
G04 #@! TO.N,+3V3*
X68809806Y-69504823D03*
D11*
G04 #@! TD*
G04 #@! TO.N,+3V3*
G04 #@! TO.C,U2*
G36*
X69145682Y-68780039D02*
X69534590Y-69168947D01*
X68473930Y-70229607D01*
X68085022Y-69840699D01*
X69145682Y-68780039D01*
X69145682Y-68780039D01*
G37*
D19*
G04 #@! TO.P,U2,37*
G04 #@! TO.N,BAT_STAT*
X68244120Y-68939138D03*
D11*
G04 #@! TD*
G04 #@! TO.N,BAT_STAT*
G04 #@! TO.C,U2*
G36*
X68579996Y-68214354D02*
X68968904Y-68603262D01*
X67908244Y-69663922D01*
X67519336Y-69275014D01*
X68579996Y-68214354D01*
X68579996Y-68214354D01*
G37*
D19*
G04 #@! TO.P,U2,36*
G04 #@! TO.N,N/C*
X67678435Y-68373452D03*
D11*
G04 #@! TD*
G04 #@! TO.N,N/C*
G04 #@! TO.C,U2*
G36*
X68014311Y-67648668D02*
X68403219Y-68037576D01*
X67342559Y-69098236D01*
X66953651Y-68709328D01*
X68014311Y-67648668D01*
X68014311Y-67648668D01*
G37*
D19*
G04 #@! TO.P,U2,35*
G04 #@! TO.N,N/C*
X67112750Y-67807767D03*
D11*
G04 #@! TD*
G04 #@! TO.N,N/C*
G04 #@! TO.C,U2*
G36*
X67448626Y-67082983D02*
X67837534Y-67471891D01*
X66776874Y-68532551D01*
X66387966Y-68143643D01*
X67448626Y-67082983D01*
X67448626Y-67082983D01*
G37*
D19*
G04 #@! TO.P,U2,34*
G04 #@! TO.N,BAT_LVL*
X66547064Y-67242082D03*
D11*
G04 #@! TD*
G04 #@! TO.N,BAT_LVL*
G04 #@! TO.C,U2*
G36*
X66882940Y-66517298D02*
X67271848Y-66906206D01*
X66211188Y-67966866D01*
X65822280Y-67577958D01*
X66882940Y-66517298D01*
X66882940Y-66517298D01*
G37*
D19*
G04 #@! TO.P,U2,33*
G04 #@! TO.N,N/C*
X66547064Y-64837918D03*
D11*
G04 #@! TD*
G04 #@! TO.N,N/C*
G04 #@! TO.C,U2*
G36*
X67271848Y-65173794D02*
X66882940Y-65562702D01*
X65822280Y-64502042D01*
X66211188Y-64113134D01*
X67271848Y-65173794D01*
X67271848Y-65173794D01*
G37*
D19*
G04 #@! TO.P,U2,32*
G04 #@! TO.N,N/C*
X67112750Y-64272233D03*
D11*
G04 #@! TD*
G04 #@! TO.N,N/C*
G04 #@! TO.C,U2*
G36*
X67837534Y-64608109D02*
X67448626Y-64997017D01*
X66387966Y-63936357D01*
X66776874Y-63547449D01*
X67837534Y-64608109D01*
X67837534Y-64608109D01*
G37*
D19*
G04 #@! TO.P,U2,31*
G04 #@! TO.N,N/C*
X67678435Y-63706548D03*
D11*
G04 #@! TD*
G04 #@! TO.N,N/C*
G04 #@! TO.C,U2*
G36*
X68403219Y-64042424D02*
X68014311Y-64431332D01*
X66953651Y-63370672D01*
X67342559Y-62981764D01*
X68403219Y-64042424D01*
X68403219Y-64042424D01*
G37*
D19*
G04 #@! TO.P,U2,30*
G04 #@! TO.N,N/C*
X68244120Y-63140862D03*
D11*
G04 #@! TD*
G04 #@! TO.N,N/C*
G04 #@! TO.C,U2*
G36*
X68968904Y-63476738D02*
X68579996Y-63865646D01*
X67519336Y-62804986D01*
X67908244Y-62416078D01*
X68968904Y-63476738D01*
X68968904Y-63476738D01*
G37*
D19*
G04 #@! TO.P,U2,29*
G04 #@! TO.N,Net-(C7-Pad1)*
X68809806Y-62575177D03*
D11*
G04 #@! TD*
G04 #@! TO.N,Net-(C7-Pad1)*
G04 #@! TO.C,U2*
G36*
X69534590Y-62911053D02*
X69145682Y-63299961D01*
X68085022Y-62239301D01*
X68473930Y-61850393D01*
X69534590Y-62911053D01*
X69534590Y-62911053D01*
G37*
D19*
G04 #@! TO.P,U2,28*
G04 #@! TO.N,GND*
X69375491Y-62009491D03*
D11*
G04 #@! TD*
G04 #@! TO.N,GND*
G04 #@! TO.C,U2*
G36*
X70100275Y-62345367D02*
X69711367Y-62734275D01*
X68650707Y-61673615D01*
X69039615Y-61284707D01*
X70100275Y-62345367D01*
X70100275Y-62345367D01*
G37*
D19*
G04 #@! TO.P,U2,27*
G04 #@! TO.N,Net-(C1-Pad1)*
X69941177Y-61443806D03*
D11*
G04 #@! TD*
G04 #@! TO.N,Net-(C1-Pad1)*
G04 #@! TO.C,U2*
G36*
X70665961Y-61779682D02*
X70277053Y-62168590D01*
X69216393Y-61107930D01*
X69605301Y-60719022D01*
X70665961Y-61779682D01*
X70665961Y-61779682D01*
G37*
D19*
G04 #@! TO.P,U2,26*
G04 #@! TO.N,OLED_CS*
X70506862Y-60878120D03*
D11*
G04 #@! TD*
G04 #@! TO.N,OLED_CS*
G04 #@! TO.C,U2*
G36*
X71231646Y-61213996D02*
X70842738Y-61602904D01*
X69782078Y-60542244D01*
X70170986Y-60153336D01*
X71231646Y-61213996D01*
X71231646Y-61213996D01*
G37*
D19*
G04 #@! TO.P,U2,25*
G04 #@! TO.N,OLED_RST*
X71072548Y-60312435D03*
D11*
G04 #@! TD*
G04 #@! TO.N,OLED_RST*
G04 #@! TO.C,U2*
G36*
X71797332Y-60648311D02*
X71408424Y-61037219D01*
X70347764Y-59976559D01*
X70736672Y-59587651D01*
X71797332Y-60648311D01*
X71797332Y-60648311D01*
G37*
D19*
G04 #@! TO.P,U2,24*
G04 #@! TO.N,N/C*
X71638233Y-59746750D03*
D11*
G04 #@! TD*
G04 #@! TO.N,N/C*
G04 #@! TO.C,U2*
G36*
X72363017Y-60082626D02*
X71974109Y-60471534D01*
X70913449Y-59410874D01*
X71302357Y-59021966D01*
X72363017Y-60082626D01*
X72363017Y-60082626D01*
G37*
D19*
G04 #@! TO.P,U2,23*
G04 #@! TO.N,N/C*
X72203918Y-59181064D03*
D11*
G04 #@! TD*
G04 #@! TO.N,N/C*
G04 #@! TO.C,U2*
G36*
X72928702Y-59516940D02*
X72539794Y-59905848D01*
X71479134Y-58845188D01*
X71868042Y-58456280D01*
X72928702Y-59516940D01*
X72928702Y-59516940D01*
G37*
D19*
G04 #@! TO.P,U2,22*
G04 #@! TO.N,N/C*
X74608082Y-59181064D03*
D11*
G04 #@! TD*
G04 #@! TO.N,N/C*
G04 #@! TO.C,U2*
G36*
X74943958Y-58456280D02*
X75332866Y-58845188D01*
X74272206Y-59905848D01*
X73883298Y-59516940D01*
X74943958Y-58456280D01*
X74943958Y-58456280D01*
G37*
D19*
G04 #@! TO.P,U2,21*
G04 #@! TO.N,N/C*
X75173767Y-59746750D03*
D11*
G04 #@! TD*
G04 #@! TO.N,N/C*
G04 #@! TO.C,U2*
G36*
X75509643Y-59021966D02*
X75898551Y-59410874D01*
X74837891Y-60471534D01*
X74448983Y-60082626D01*
X75509643Y-59021966D01*
X75509643Y-59021966D01*
G37*
D19*
G04 #@! TO.P,U2,20*
G04 #@! TO.N,N/C*
X75739452Y-60312435D03*
D11*
G04 #@! TD*
G04 #@! TO.N,N/C*
G04 #@! TO.C,U2*
G36*
X76075328Y-59587651D02*
X76464236Y-59976559D01*
X75403576Y-61037219D01*
X75014668Y-60648311D01*
X76075328Y-59587651D01*
X76075328Y-59587651D01*
G37*
D19*
G04 #@! TO.P,U2,19*
G04 #@! TO.N,N/C*
X76305138Y-60878120D03*
D11*
G04 #@! TD*
G04 #@! TO.N,N/C*
G04 #@! TO.C,U2*
G36*
X76641014Y-60153336D02*
X77029922Y-60542244D01*
X75969262Y-61602904D01*
X75580354Y-61213996D01*
X76641014Y-60153336D01*
X76641014Y-60153336D01*
G37*
D19*
G04 #@! TO.P,U2,18*
G04 #@! TO.N,GND*
X76870823Y-61443806D03*
D11*
G04 #@! TD*
G04 #@! TO.N,GND*
G04 #@! TO.C,U2*
G36*
X77206699Y-60719022D02*
X77595607Y-61107930D01*
X76534947Y-62168590D01*
X76146039Y-61779682D01*
X77206699Y-60719022D01*
X77206699Y-60719022D01*
G37*
D19*
G04 #@! TO.P,U2,17*
G04 #@! TO.N,+3V3*
X77436509Y-62009491D03*
D11*
G04 #@! TD*
G04 #@! TO.N,+3V3*
G04 #@! TO.C,U2*
G36*
X77772385Y-61284707D02*
X78161293Y-61673615D01*
X77100633Y-62734275D01*
X76711725Y-62345367D01*
X77772385Y-61284707D01*
X77772385Y-61284707D01*
G37*
D19*
G04 #@! TO.P,U2,16*
G04 #@! TO.N,N/C*
X78002194Y-62575177D03*
D11*
G04 #@! TD*
G04 #@! TO.N,N/C*
G04 #@! TO.C,U2*
G36*
X78338070Y-61850393D02*
X78726978Y-62239301D01*
X77666318Y-63299961D01*
X77277410Y-62911053D01*
X78338070Y-61850393D01*
X78338070Y-61850393D01*
G37*
D19*
G04 #@! TO.P,U2,15*
G04 #@! TO.N,N/C*
X78567880Y-63140862D03*
D11*
G04 #@! TD*
G04 #@! TO.N,N/C*
G04 #@! TO.C,U2*
G36*
X78903756Y-62416078D02*
X79292664Y-62804986D01*
X78232004Y-63865646D01*
X77843096Y-63476738D01*
X78903756Y-62416078D01*
X78903756Y-62416078D01*
G37*
D19*
G04 #@! TO.P,U2,14*
G04 #@! TO.N,N/C*
X79133565Y-63706548D03*
D11*
G04 #@! TD*
G04 #@! TO.N,N/C*
G04 #@! TO.C,U2*
G36*
X79469441Y-62981764D02*
X79858349Y-63370672D01*
X78797689Y-64431332D01*
X78408781Y-64042424D01*
X79469441Y-62981764D01*
X79469441Y-62981764D01*
G37*
D19*
G04 #@! TO.P,U2,13*
G04 #@! TO.N,N/C*
X79699250Y-64272233D03*
D11*
G04 #@! TD*
G04 #@! TO.N,N/C*
G04 #@! TO.C,U2*
G36*
X80035126Y-63547449D02*
X80424034Y-63936357D01*
X79363374Y-64997017D01*
X78974466Y-64608109D01*
X80035126Y-63547449D01*
X80035126Y-63547449D01*
G37*
D19*
G04 #@! TO.P,U2,12*
G04 #@! TO.N,BTN1*
X80264936Y-64837918D03*
D11*
G04 #@! TD*
G04 #@! TO.N,BTN1*
G04 #@! TO.C,U2*
G36*
X80600812Y-64113134D02*
X80989720Y-64502042D01*
X79929060Y-65562702D01*
X79540152Y-65173794D01*
X80600812Y-64113134D01*
X80600812Y-64113134D01*
G37*
D19*
G04 #@! TO.P,U2,11*
G04 #@! TO.N,BTN2*
X80264936Y-67242082D03*
D11*
G04 #@! TD*
G04 #@! TO.N,BTN2*
G04 #@! TO.C,U2*
G36*
X80989720Y-67577958D02*
X80600812Y-67966866D01*
X79540152Y-66906206D01*
X79929060Y-66517298D01*
X80989720Y-67577958D01*
X80989720Y-67577958D01*
G37*
D19*
G04 #@! TO.P,U2,10*
G04 #@! TO.N,N/C*
X79699250Y-67807767D03*
D11*
G04 #@! TD*
G04 #@! TO.N,N/C*
G04 #@! TO.C,U2*
G36*
X80424034Y-68143643D02*
X80035126Y-68532551D01*
X78974466Y-67471891D01*
X79363374Y-67082983D01*
X80424034Y-68143643D01*
X80424034Y-68143643D01*
G37*
D19*
G04 #@! TO.P,U2,9*
G04 #@! TO.N,N/C*
X79133565Y-68373452D03*
D11*
G04 #@! TD*
G04 #@! TO.N,N/C*
G04 #@! TO.C,U2*
G36*
X79858349Y-68709328D02*
X79469441Y-69098236D01*
X78408781Y-68037576D01*
X78797689Y-67648668D01*
X79858349Y-68709328D01*
X79858349Y-68709328D01*
G37*
D19*
G04 #@! TO.P,U2,8*
G04 #@! TO.N,Net-(C5-Pad2)*
X78567880Y-68939138D03*
D11*
G04 #@! TD*
G04 #@! TO.N,Net-(C5-Pad2)*
G04 #@! TO.C,U2*
G36*
X79292664Y-69275014D02*
X78903756Y-69663922D01*
X77843096Y-68603262D01*
X78232004Y-68214354D01*
X79292664Y-69275014D01*
X79292664Y-69275014D01*
G37*
D19*
G04 #@! TO.P,U2,7*
G04 #@! TO.N,Net-(C6-Pad2)*
X78002194Y-69504823D03*
D11*
G04 #@! TD*
G04 #@! TO.N,Net-(C6-Pad2)*
G04 #@! TO.C,U2*
G36*
X78726978Y-69840699D02*
X78338070Y-70229607D01*
X77277410Y-69168947D01*
X77666318Y-68780039D01*
X78726978Y-69840699D01*
X78726978Y-69840699D01*
G37*
D19*
G04 #@! TO.P,U2,6*
G04 #@! TO.N,GND*
X77436509Y-70070509D03*
D11*
G04 #@! TD*
G04 #@! TO.N,GND*
G04 #@! TO.C,U2*
G36*
X78161293Y-70406385D02*
X77772385Y-70795293D01*
X76711725Y-69734633D01*
X77100633Y-69345725D01*
X78161293Y-70406385D01*
X78161293Y-70406385D01*
G37*
D19*
G04 #@! TO.P,U2,5*
G04 #@! TO.N,+3V3*
X76870823Y-70636194D03*
D11*
G04 #@! TD*
G04 #@! TO.N,+3V3*
G04 #@! TO.C,U2*
G36*
X77595607Y-70972070D02*
X77206699Y-71360978D01*
X76146039Y-70300318D01*
X76534947Y-69911410D01*
X77595607Y-70972070D01*
X77595607Y-70972070D01*
G37*
D19*
G04 #@! TO.P,U2,4*
G04 #@! TO.N,RST*
X76305138Y-71201880D03*
D11*
G04 #@! TD*
G04 #@! TO.N,RST*
G04 #@! TO.C,U2*
G36*
X77029922Y-71537756D02*
X76641014Y-71926664D01*
X75580354Y-70866004D01*
X75969262Y-70477096D01*
X77029922Y-71537756D01*
X77029922Y-71537756D01*
G37*
D19*
G04 #@! TO.P,U2,3*
G04 #@! TO.N,SCK*
X75739452Y-71767565D03*
D11*
G04 #@! TD*
G04 #@! TO.N,SCK*
G04 #@! TO.C,U2*
G36*
X76464236Y-72103441D02*
X76075328Y-72492349D01*
X75014668Y-71431689D01*
X75403576Y-71042781D01*
X76464236Y-72103441D01*
X76464236Y-72103441D01*
G37*
D19*
G04 #@! TO.P,U2,2*
G04 #@! TO.N,MISO*
X75173767Y-72333250D03*
D11*
G04 #@! TD*
G04 #@! TO.N,MISO*
G04 #@! TO.C,U2*
G36*
X75898551Y-72669126D02*
X75509643Y-73058034D01*
X74448983Y-71997374D01*
X74837891Y-71608466D01*
X75898551Y-72669126D01*
X75898551Y-72669126D01*
G37*
D19*
G04 #@! TO.P,U2,1*
G04 #@! TO.N,MOSI*
X74608082Y-72898936D03*
D11*
G04 #@! TD*
G04 #@! TO.N,MOSI*
G04 #@! TO.C,U2*
G36*
X75332866Y-73234812D02*
X74943958Y-73623720D01*
X73883298Y-72563060D01*
X74272206Y-72174152D01*
X75332866Y-73234812D01*
X75332866Y-73234812D01*
G37*
D20*
G04 #@! TO.P,J1,MP*
G04 #@! TO.N,N/C*
X70927000Y-84855000D03*
X83637000Y-84855000D03*
D21*
G04 #@! TO.P,J1,6*
G04 #@! TO.N,+3V3*
X73532000Y-79665000D03*
G04 #@! TO.P,J1,5*
G04 #@! TO.N,MOSI*
X75032000Y-79665000D03*
G04 #@! TO.P,J1,4*
G04 #@! TO.N,MISO*
X76532000Y-79665000D03*
G04 #@! TO.P,J1,3*
G04 #@! TO.N,SCK*
X78032000Y-79665000D03*
G04 #@! TO.P,J1,2*
G04 #@! TO.N,GND*
X79532000Y-79665000D03*
G04 #@! TO.P,J1,1*
G04 #@! TO.N,RST*
X81032000Y-79665000D03*
G04 #@! TD*
D22*
G04 #@! TO.P,J2,6*
G04 #@! TO.N,GND*
X61882000Y-84347500D03*
X67682000Y-84347500D03*
D23*
X68282000Y-84347500D03*
X61282000Y-84347500D03*
D24*
X63782000Y-84347500D03*
D25*
X67282000Y-81647500D03*
D26*
G04 #@! TO.P,J2,3*
G04 #@! TO.N,N/C*
X64782000Y-81647500D03*
G04 #@! TO.P,J2,4*
X65432000Y-81647500D03*
G04 #@! TO.P,J2,5*
G04 #@! TO.N,GND*
X66082000Y-81647500D03*
G04 #@! TO.P,J2,1*
G04 #@! TO.N,/USB*
X63482000Y-81647500D03*
G04 #@! TO.P,J2,2*
G04 #@! TO.N,N/C*
X64132000Y-81647500D03*
D25*
G04 #@! TO.P,J2,6*
G04 #@! TO.N,GND*
X62282000Y-81647500D03*
D24*
X65782000Y-84347500D03*
G04 #@! TD*
D11*
G04 #@! TO.N,/BAT*
G04 #@! TO.C,Q1*
G36*
X54387603Y-72752963D02*
X54407018Y-72755843D01*
X54426057Y-72760612D01*
X54444537Y-72767224D01*
X54462279Y-72775616D01*
X54479114Y-72785706D01*
X54494879Y-72797398D01*
X54509421Y-72810579D01*
X54522602Y-72825121D01*
X54534294Y-72840886D01*
X54544384Y-72857721D01*
X54552776Y-72875463D01*
X54559388Y-72893943D01*
X54564157Y-72912982D01*
X54567037Y-72932397D01*
X54568000Y-72952000D01*
X54568000Y-73352000D01*
X54567037Y-73371603D01*
X54564157Y-73391018D01*
X54559388Y-73410057D01*
X54552776Y-73428537D01*
X54544384Y-73446279D01*
X54534294Y-73463114D01*
X54522602Y-73478879D01*
X54509421Y-73493421D01*
X54494879Y-73506602D01*
X54479114Y-73518294D01*
X54462279Y-73528384D01*
X54444537Y-73536776D01*
X54426057Y-73543388D01*
X54407018Y-73548157D01*
X54387603Y-73551037D01*
X54368000Y-73552000D01*
X53868000Y-73552000D01*
X53848397Y-73551037D01*
X53828982Y-73548157D01*
X53809943Y-73543388D01*
X53791463Y-73536776D01*
X53773721Y-73528384D01*
X53756886Y-73518294D01*
X53741121Y-73506602D01*
X53726579Y-73493421D01*
X53713398Y-73478879D01*
X53701706Y-73463114D01*
X53691616Y-73446279D01*
X53683224Y-73428537D01*
X53676612Y-73410057D01*
X53671843Y-73391018D01*
X53668963Y-73371603D01*
X53668000Y-73352000D01*
X53668000Y-72952000D01*
X53668963Y-72932397D01*
X53671843Y-72912982D01*
X53676612Y-72893943D01*
X53683224Y-72875463D01*
X53691616Y-72857721D01*
X53701706Y-72840886D01*
X53713398Y-72825121D01*
X53726579Y-72810579D01*
X53741121Y-72797398D01*
X53756886Y-72785706D01*
X53773721Y-72775616D01*
X53791463Y-72767224D01*
X53809943Y-72760612D01*
X53828982Y-72755843D01*
X53848397Y-72752963D01*
X53868000Y-72752000D01*
X54368000Y-72752000D01*
X54387603Y-72752963D01*
X54387603Y-72752963D01*
G37*
D27*
G04 #@! TD*
G04 #@! TO.P,Q1,3*
G04 #@! TO.N,/BAT*
X54118000Y-73152000D03*
D11*
G04 #@! TO.N,/PWR*
G04 #@! TO.C,Q1*
G36*
X56387603Y-71802963D02*
X56407018Y-71805843D01*
X56426057Y-71810612D01*
X56444537Y-71817224D01*
X56462279Y-71825616D01*
X56479114Y-71835706D01*
X56494879Y-71847398D01*
X56509421Y-71860579D01*
X56522602Y-71875121D01*
X56534294Y-71890886D01*
X56544384Y-71907721D01*
X56552776Y-71925463D01*
X56559388Y-71943943D01*
X56564157Y-71962982D01*
X56567037Y-71982397D01*
X56568000Y-72002000D01*
X56568000Y-72402000D01*
X56567037Y-72421603D01*
X56564157Y-72441018D01*
X56559388Y-72460057D01*
X56552776Y-72478537D01*
X56544384Y-72496279D01*
X56534294Y-72513114D01*
X56522602Y-72528879D01*
X56509421Y-72543421D01*
X56494879Y-72556602D01*
X56479114Y-72568294D01*
X56462279Y-72578384D01*
X56444537Y-72586776D01*
X56426057Y-72593388D01*
X56407018Y-72598157D01*
X56387603Y-72601037D01*
X56368000Y-72602000D01*
X55868000Y-72602000D01*
X55848397Y-72601037D01*
X55828982Y-72598157D01*
X55809943Y-72593388D01*
X55791463Y-72586776D01*
X55773721Y-72578384D01*
X55756886Y-72568294D01*
X55741121Y-72556602D01*
X55726579Y-72543421D01*
X55713398Y-72528879D01*
X55701706Y-72513114D01*
X55691616Y-72496279D01*
X55683224Y-72478537D01*
X55676612Y-72460057D01*
X55671843Y-72441018D01*
X55668963Y-72421603D01*
X55668000Y-72402000D01*
X55668000Y-72002000D01*
X55668963Y-71982397D01*
X55671843Y-71962982D01*
X55676612Y-71943943D01*
X55683224Y-71925463D01*
X55691616Y-71907721D01*
X55701706Y-71890886D01*
X55713398Y-71875121D01*
X55726579Y-71860579D01*
X55741121Y-71847398D01*
X55756886Y-71835706D01*
X55773721Y-71825616D01*
X55791463Y-71817224D01*
X55809943Y-71810612D01*
X55828982Y-71805843D01*
X55848397Y-71802963D01*
X55868000Y-71802000D01*
X56368000Y-71802000D01*
X56387603Y-71802963D01*
X56387603Y-71802963D01*
G37*
D27*
G04 #@! TD*
G04 #@! TO.P,Q1,2*
G04 #@! TO.N,/PWR*
X56118000Y-72202000D03*
D11*
G04 #@! TO.N,/USB*
G04 #@! TO.C,Q1*
G36*
X56387603Y-73702963D02*
X56407018Y-73705843D01*
X56426057Y-73710612D01*
X56444537Y-73717224D01*
X56462279Y-73725616D01*
X56479114Y-73735706D01*
X56494879Y-73747398D01*
X56509421Y-73760579D01*
X56522602Y-73775121D01*
X56534294Y-73790886D01*
X56544384Y-73807721D01*
X56552776Y-73825463D01*
X56559388Y-73843943D01*
X56564157Y-73862982D01*
X56567037Y-73882397D01*
X56568000Y-73902000D01*
X56568000Y-74302000D01*
X56567037Y-74321603D01*
X56564157Y-74341018D01*
X56559388Y-74360057D01*
X56552776Y-74378537D01*
X56544384Y-74396279D01*
X56534294Y-74413114D01*
X56522602Y-74428879D01*
X56509421Y-74443421D01*
X56494879Y-74456602D01*
X56479114Y-74468294D01*
X56462279Y-74478384D01*
X56444537Y-74486776D01*
X56426057Y-74493388D01*
X56407018Y-74498157D01*
X56387603Y-74501037D01*
X56368000Y-74502000D01*
X55868000Y-74502000D01*
X55848397Y-74501037D01*
X55828982Y-74498157D01*
X55809943Y-74493388D01*
X55791463Y-74486776D01*
X55773721Y-74478384D01*
X55756886Y-74468294D01*
X55741121Y-74456602D01*
X55726579Y-74443421D01*
X55713398Y-74428879D01*
X55701706Y-74413114D01*
X55691616Y-74396279D01*
X55683224Y-74378537D01*
X55676612Y-74360057D01*
X55671843Y-74341018D01*
X55668963Y-74321603D01*
X55668000Y-74302000D01*
X55668000Y-73902000D01*
X55668963Y-73882397D01*
X55671843Y-73862982D01*
X55676612Y-73843943D01*
X55683224Y-73825463D01*
X55691616Y-73807721D01*
X55701706Y-73790886D01*
X55713398Y-73775121D01*
X55726579Y-73760579D01*
X55741121Y-73747398D01*
X55756886Y-73735706D01*
X55773721Y-73725616D01*
X55791463Y-73717224D01*
X55809943Y-73710612D01*
X55828982Y-73705843D01*
X55848397Y-73702963D01*
X55868000Y-73702000D01*
X56368000Y-73702000D01*
X56387603Y-73702963D01*
X56387603Y-73702963D01*
G37*
D27*
G04 #@! TD*
G04 #@! TO.P,Q1,1*
G04 #@! TO.N,/USB*
X56118000Y-74102000D03*
D28*
G04 #@! TO.P,U3,4*
G04 #@! TO.N,/USB*
X61534000Y-75010000D03*
G04 #@! TO.P,U3,3*
G04 #@! TO.N,/BAT*
X61534000Y-72210000D03*
G04 #@! TO.P,U3,2*
G04 #@! TO.N,GND*
X62484000Y-72210000D03*
G04 #@! TO.P,U3,1*
G04 #@! TO.N,BAT_STAT*
X63434000Y-72210000D03*
G04 #@! TO.P,U3,5*
G04 #@! TO.N,Net-(R16-Pad1)*
X63434000Y-75010000D03*
G04 #@! TD*
D29*
G04 #@! TO.P,U4,5*
G04 #@! TO.N,Net-(R13-Pad1)*
X58757500Y-63754000D03*
G04 #@! TO.P,U4,6*
G04 #@! TO.N,Net-(C16-Pad2)*
X58757500Y-62804000D03*
G04 #@! TO.P,U4,4*
G04 #@! TO.N,/PWR*
X58757500Y-64704000D03*
G04 #@! TO.P,U4,3*
G04 #@! TO.N,Net-(L2-Pad1)*
X56558500Y-64704000D03*
G04 #@! TO.P,U4,2*
G04 #@! TO.N,GND*
X56558500Y-63754000D03*
G04 #@! TO.P,U4,1*
G04 #@! TO.N,Net-(R11-Pad1)*
X56558500Y-62804000D03*
G04 #@! TD*
D16*
G04 #@! TO.P,C4,1*
G04 #@! TO.N,+3V3*
X80850153Y-70914847D03*
D11*
G04 #@! TD*
G04 #@! TO.N,+3V3*
G04 #@! TO.C,C4*
G36*
X80876670Y-71560082D02*
X80204918Y-70888330D01*
X80823636Y-70269612D01*
X81495388Y-70941364D01*
X80876670Y-71560082D01*
X80876670Y-71560082D01*
G37*
D16*
G04 #@! TO.P,C4,2*
G04 #@! TO.N,GND*
X81963847Y-69801153D03*
D11*
G04 #@! TD*
G04 #@! TO.N,GND*
G04 #@! TO.C,C4*
G36*
X81990364Y-70446388D02*
X81318612Y-69774636D01*
X81937330Y-69155918D01*
X82609082Y-69827670D01*
X81990364Y-70446388D01*
X81990364Y-70446388D01*
G37*
D18*
G04 #@! TO.P,C21,1*
G04 #@! TO.N,+3V3*
X61823500Y-53340000D03*
G04 #@! TO.P,C21,2*
G04 #@! TO.N,GND*
X63398500Y-53340000D03*
G04 #@! TD*
D30*
G04 #@! TO.N,+3V3*
X70485000Y-52387500D03*
X60248800Y-80314800D03*
X66548000Y-77419200D03*
X62992000Y-51435000D03*
X80391000Y-59944000D03*
G04 #@! TO.N,GND*
X70485000Y-63119000D03*
X75057000Y-62420500D03*
X76517500Y-68262500D03*
X70929500Y-69151500D03*
X78359000Y-40259000D03*
X69900800Y-73355200D03*
X53086000Y-57150000D03*
X53086000Y-62230000D03*
X53086000Y-67310000D03*
X53086000Y-72390000D03*
X53086000Y-77470000D03*
X53086000Y-82550000D03*
X57277000Y-85344000D03*
X53086000Y-52070000D03*
X53086000Y-46609000D03*
X59436000Y-45593000D03*
X60833000Y-40259000D03*
X80111600Y-45872400D03*
X86207600Y-46634400D03*
X72644000Y-41021000D03*
X66675000Y-41021000D03*
X86233000Y-50800000D03*
X86233000Y-66040000D03*
X86233000Y-71120000D03*
X86233000Y-76200000D03*
X86233000Y-80010000D03*
X72390000Y-85344000D03*
X66192400Y-79857600D03*
X65341500Y-69532500D03*
X81534000Y-65913000D03*
X73914000Y-75133200D03*
X85217000Y-85090000D03*
X86233000Y-60960000D03*
X86233000Y-55880000D03*
X81788000Y-61595000D03*
X63119000Y-55245000D03*
X63119000Y-57404000D03*
X63754000Y-64516000D03*
X60198000Y-68834000D03*
G04 #@! TO.N,Net-(R6-Pad1)*
X82169000Y-74041000D03*
G04 #@! TO.N,Net-(L2-Pad1)*
X56134000Y-65786000D03*
X54356000Y-76327000D03*
G04 #@! TO.N,Net-(R5-Pad1)*
X84328000Y-64770000D03*
X84201000Y-70104000D03*
G04 #@! TO.N,Net-(R10-Pad2)*
X67716400Y-77419200D03*
G04 #@! TO.N,Net-(C1-Pad1)*
X65278000Y-58674000D03*
X55880000Y-77978000D03*
G04 #@! TO.N,BTN2*
X79121000Y-66167000D03*
X83566000Y-69596000D03*
G04 #@! TO.N,MOSI*
X73914000Y-56578500D03*
X75692000Y-75120500D03*
G04 #@! TO.N,SCK*
X72136000Y-56578500D03*
X77343000Y-74422000D03*
G04 #@! TO.N,OLED_RST*
X68326000Y-56959500D03*
X68680437Y-51455087D03*
G04 #@! TO.N,OLED_CS*
X67437000Y-56959500D03*
X67945000Y-51308000D03*
G04 #@! TO.N,/BAT*
X54102000Y-55118000D03*
G04 #@! TD*
D31*
G04 #@! TO.N,+3V3*
X61874500Y-60706000D02*
X61874500Y-58801000D01*
D32*
X58699500Y-79987500D02*
X58677000Y-80010000D01*
X58677000Y-77238500D02*
X58699500Y-77216000D01*
D31*
X58677000Y-83820000D02*
X58677000Y-77238500D01*
X67515153Y-70799476D02*
X67515153Y-71515653D01*
X68809806Y-69504823D02*
X67515153Y-70799476D01*
D33*
X63032000Y-49310000D02*
X63032000Y-51423500D01*
X65132000Y-49310000D02*
X65132000Y-51402500D01*
D31*
X72782629Y-65532000D02*
X68809806Y-69504823D01*
X73914000Y-65532000D02*
X72782629Y-65532000D01*
X77436509Y-62009491D02*
X73914000Y-65532000D01*
X73914000Y-65532000D02*
X73914000Y-67679371D01*
X73914000Y-67679371D02*
X76870823Y-70636194D01*
X61874500Y-55255500D02*
X61874500Y-58801000D01*
D32*
X69253000Y-53606500D02*
X69278500Y-53632000D01*
X65111000Y-51423500D02*
X65132000Y-51402500D01*
X64198500Y-51614000D02*
X64008000Y-51423500D01*
D31*
X63032000Y-51423500D02*
X64008000Y-51423500D01*
X64008000Y-51423500D02*
X65111000Y-51423500D01*
D32*
X69316000Y-53632000D02*
X69278500Y-53632000D01*
X69278500Y-53632000D02*
X69278500Y-53594000D01*
D31*
X69278500Y-53594000D02*
X70485000Y-52387500D01*
D33*
X70732000Y-52140500D02*
X70485000Y-52387500D01*
X70732000Y-49310000D02*
X70732000Y-52140500D01*
X70032000Y-51934500D02*
X70485000Y-52387500D01*
X70032000Y-49310000D02*
X70032000Y-51934500D01*
D32*
X79389653Y-60974653D02*
X79389653Y-60818347D01*
D31*
X66751200Y-72279606D02*
X67515153Y-71515653D01*
X66751200Y-73352600D02*
X66751200Y-72279606D01*
X58677000Y-80010000D02*
X59944000Y-80010000D01*
X59944000Y-80010000D02*
X60248800Y-80314800D01*
X67741700Y-76225500D02*
X66548000Y-77419200D01*
X67741700Y-74828400D02*
X67741700Y-76225500D01*
D32*
X67741700Y-74790900D02*
X67741700Y-74828400D01*
D31*
X66751200Y-73800400D02*
X67741700Y-74790900D01*
X66751200Y-73352600D02*
X66751200Y-73800400D01*
D32*
X66847999Y-77719199D02*
X66847999Y-78481199D01*
X66548000Y-77419200D02*
X66847999Y-77719199D01*
X66847999Y-78481199D02*
X69697600Y-81330800D01*
X69697600Y-81330800D02*
X73050400Y-81330800D01*
X73532000Y-80849200D02*
X73532000Y-79665000D01*
X73050400Y-81330800D02*
X73532000Y-80849200D01*
X67399500Y-53632000D02*
X67437000Y-53632000D01*
X65111000Y-51423500D02*
X65191000Y-51423500D01*
D31*
X65191000Y-51423500D02*
X65735900Y-51968400D01*
X65735900Y-51968400D02*
X67399500Y-53632000D01*
D32*
X65832000Y-51872300D02*
X65735900Y-51968400D01*
D33*
X65832000Y-49310000D02*
X65832000Y-51872300D01*
D31*
X61874500Y-52581000D02*
X63032000Y-51423500D01*
X61874500Y-55255500D02*
X61874500Y-52581000D01*
X67437000Y-53632000D02*
X69278500Y-53632000D01*
D32*
X76870823Y-70636194D02*
X78321782Y-72087153D01*
X78321782Y-72087153D02*
X79677847Y-72087153D01*
X79677847Y-74314541D02*
X79834153Y-74470847D01*
X79677847Y-72087153D02*
X79677847Y-74314541D01*
X79677847Y-72087153D02*
X80850153Y-70914847D01*
X80850153Y-70914847D02*
X82120153Y-72184847D01*
X79389653Y-60974653D02*
X79389653Y-60945347D01*
D31*
X79389653Y-60945347D02*
X80391000Y-59944000D01*
X78471347Y-60974653D02*
X79389653Y-60974653D01*
X77436509Y-62009491D02*
X78471347Y-60974653D01*
D32*
G04 #@! TO.N,GND*
X64432000Y-49310000D02*
X64432000Y-46947000D01*
X66532000Y-46847000D02*
X66532000Y-49310000D01*
X67232000Y-46658000D02*
X67232000Y-49310000D01*
X69332000Y-46853000D02*
X69332000Y-49310000D01*
X72832000Y-47305000D02*
X72832000Y-49310000D01*
X73532000Y-46989000D02*
X73532000Y-49310000D01*
X74232000Y-46546000D02*
X74232000Y-49310000D01*
X74932000Y-46611000D02*
X74932000Y-49310000D01*
X75632000Y-46803000D02*
X75632000Y-49310000D01*
X76332000Y-47122000D02*
X76332000Y-49310000D01*
X56558500Y-63754000D02*
X55858500Y-63754000D01*
X55858500Y-63754000D02*
X55499000Y-63754000D01*
X84201000Y-50063500D02*
X84163500Y-50063500D01*
X79132000Y-49310000D02*
X79132000Y-51297000D01*
D33*
X69375491Y-62009491D02*
X70485000Y-63119000D01*
D32*
X76870823Y-61443806D02*
X76859194Y-61443806D01*
D33*
X76870823Y-61443806D02*
X75894129Y-62420500D01*
X75894129Y-62420500D02*
X75057000Y-62420500D01*
X77436509Y-70070509D02*
X76517500Y-69151500D01*
X76517500Y-69151500D02*
X76517500Y-68262500D01*
X69375491Y-70070509D02*
X70294500Y-69151500D01*
X70294500Y-69151500D02*
X70929500Y-69151500D01*
D32*
X73532000Y-50760000D02*
X73533000Y-50761000D01*
X73532000Y-49310000D02*
X73532000Y-50760000D01*
X73533000Y-50761000D02*
X73533000Y-51244500D01*
X74232000Y-50760000D02*
X74231500Y-50760500D01*
X74232000Y-49310000D02*
X74232000Y-50760000D01*
X74231500Y-50760500D02*
X74231500Y-51244500D01*
X74932000Y-50760000D02*
X74930000Y-50762000D01*
X74932000Y-49310000D02*
X74932000Y-50760000D01*
X74930000Y-50762000D02*
X74930000Y-51244500D01*
X75632000Y-50760000D02*
X75628500Y-50763500D01*
X75632000Y-49310000D02*
X75632000Y-50760000D01*
X75628500Y-50763500D02*
X75628500Y-51244500D01*
X66082000Y-81647500D02*
X67282000Y-81647500D01*
D33*
X77471863Y-60842766D02*
X77471863Y-60577137D01*
X76870823Y-61443806D02*
X77471863Y-60842766D01*
X77471863Y-60577137D02*
X77978000Y-60071000D01*
D32*
G04 #@! TO.N,Net-(C11-Pad1)*
X77732000Y-49310000D02*
X77732000Y-47860000D01*
X78507510Y-47084490D02*
X81120490Y-47084490D01*
X77732000Y-47860000D02*
X78507510Y-47084490D01*
X81120490Y-47084490D02*
X81724500Y-47688500D01*
X84163500Y-48488500D02*
X84201000Y-48488500D01*
X83363500Y-47688500D02*
X84163500Y-48488500D01*
X81724500Y-47688500D02*
X83363500Y-47688500D01*
G04 #@! TO.N,Net-(R6-Pad1)*
X81631694Y-74041000D02*
X80947847Y-73357153D01*
X82169000Y-74041000D02*
X81631694Y-74041000D01*
X82804000Y-74041000D02*
X83390153Y-73454847D01*
X82169000Y-74041000D02*
X82804000Y-74041000D01*
G04 #@! TO.N,Net-(R13-Pad1)*
X62255500Y-64732500D02*
X62255500Y-64770000D01*
X61277000Y-63754000D02*
X62255500Y-64732500D01*
X58757500Y-63754000D02*
X61277000Y-63754000D01*
G04 #@! TO.N,Net-(C2-Pad1)*
X78432000Y-47860000D02*
X78857500Y-47434500D01*
X78432000Y-49310000D02*
X78432000Y-47860000D01*
X81621000Y-48488500D02*
X82296000Y-48488500D01*
X80567000Y-47434500D02*
X81621000Y-48488500D01*
X78857500Y-47434500D02*
X80567000Y-47434500D01*
G04 #@! TO.N,Net-(C5-Pad2)*
X80042000Y-57842000D02*
X80142000Y-57842000D01*
X78567880Y-68939138D02*
X79168920Y-69540178D01*
X85018092Y-64893910D02*
X85018092Y-62157592D01*
X82715000Y-59854500D02*
X82715000Y-59817000D01*
X80371824Y-69540178D02*
X85018092Y-64893910D01*
X79168920Y-69540178D02*
X80371824Y-69540178D01*
X85018092Y-62157592D02*
X82715000Y-59854500D01*
X81042000Y-57842000D02*
X80042000Y-57842000D01*
X82715000Y-59142000D02*
X81415000Y-57842000D01*
X81415000Y-57842000D02*
X81042000Y-57842000D01*
X82715000Y-59817000D02*
X82715000Y-59142000D01*
G04 #@! TO.N,Net-(C7-Pad1)*
X67485847Y-61251218D02*
X67485847Y-60911153D01*
X68809806Y-62575177D02*
X67485847Y-61251218D01*
G04 #@! TO.N,Net-(C8-Pad2)*
X58726511Y-47459989D02*
X57634500Y-48552000D01*
X60256991Y-47459989D02*
X58726511Y-47459989D01*
X57634500Y-48552000D02*
X56959500Y-48552000D01*
X60932000Y-48134998D02*
X60256991Y-47459989D01*
X60932000Y-49310000D02*
X60932000Y-48134998D01*
G04 #@! TO.N,Net-(C16-Pad2)*
X60299500Y-58801000D02*
X60299500Y-60706000D01*
X60198000Y-60604500D02*
X60299500Y-60706000D01*
X58057500Y-62254000D02*
X58607500Y-62804000D01*
X58057500Y-62118000D02*
X58057500Y-62254000D01*
X58607500Y-62804000D02*
X58757500Y-62804000D01*
X58064500Y-62111000D02*
X58057500Y-62118000D01*
X58064500Y-60706000D02*
X58064500Y-62111000D01*
X58702000Y-60706000D02*
X60299500Y-60706000D01*
X58064500Y-60706000D02*
X58702000Y-60706000D01*
D31*
G04 #@! TO.N,Net-(L2-Pad1)*
X56558500Y-64704000D02*
X56558500Y-65361500D01*
X56558500Y-65361500D02*
X56134000Y-65786000D01*
D32*
X55877000Y-83820000D02*
X55877000Y-83120000D01*
D31*
X55877000Y-83120000D02*
X54356000Y-81599000D01*
X54356000Y-81599000D02*
X54356000Y-76327000D01*
D32*
G04 #@! TO.N,Net-(R4-Pad2)*
X77032000Y-50760000D02*
X77032000Y-49310000D01*
X77032000Y-51718000D02*
X77032000Y-50760000D01*
X75692000Y-53058000D02*
X77032000Y-51718000D01*
X75692000Y-53695500D02*
X75692000Y-53058000D01*
G04 #@! TO.N,Net-(R5-Pad1)*
X84328000Y-63373000D02*
X84122847Y-63167847D01*
X84328000Y-64770000D02*
X84328000Y-63373000D01*
X84201000Y-70104000D02*
X83233847Y-71071153D01*
G04 #@! TO.N,Net-(R10-Pad2)*
X69316500Y-74828600D02*
X69316700Y-74828400D01*
X69316500Y-76555600D02*
X69316500Y-74828600D01*
X69316500Y-76555600D02*
X68580000Y-76555600D01*
X68580000Y-76555600D02*
X67716400Y-77419200D01*
G04 #@! TO.N,Net-(R11-Pad1)*
X57258500Y-62804000D02*
X57658000Y-63203500D01*
X56558500Y-62804000D02*
X57258500Y-62804000D01*
X57658000Y-63203500D02*
X57658000Y-65278000D01*
X56870500Y-66065500D02*
X56870500Y-67183000D01*
X57658000Y-65278000D02*
X56870500Y-66065500D01*
G04 #@! TO.N,Net-(R16-Pad1)*
X63480900Y-75056900D02*
X63434000Y-75010000D01*
X65125600Y-75056900D02*
X63480900Y-75056900D01*
G04 #@! TO.N,Net-(C1-Pad1)*
X68138524Y-59641153D02*
X69941177Y-61443806D01*
X66215847Y-59641153D02*
X68138524Y-59641153D01*
X66215847Y-59641153D02*
X66215847Y-59611847D01*
X66215847Y-59611847D02*
X65278000Y-58674000D01*
X55877000Y-80010000D02*
X55877000Y-77981000D01*
X55877000Y-77981000D02*
X55880000Y-77978000D01*
G04 #@! TO.N,Net-(C6-Pad2)*
X78603234Y-70105863D02*
X79842725Y-70105863D01*
X78002194Y-69504823D02*
X78603234Y-70105863D01*
X84342000Y-55642000D02*
X84242000Y-55642000D01*
X85368102Y-56668102D02*
X84342000Y-55642000D01*
X85368102Y-65038888D02*
X85368102Y-56668102D01*
X80301127Y-70105863D02*
X85368102Y-65038888D01*
X79842725Y-70105863D02*
X80301127Y-70105863D01*
X84353500Y-55530500D02*
X84242000Y-55642000D01*
X84353500Y-53467000D02*
X84353500Y-55530500D01*
G04 #@! TO.N,Net-(C8-Pad1)*
X56997000Y-50127000D02*
X56959500Y-50127000D01*
X57634500Y-49489500D02*
X56997000Y-50127000D01*
X59907001Y-47809999D02*
X59156999Y-47809999D01*
X57634500Y-49332498D02*
X57634500Y-49489500D01*
X59156999Y-47809999D02*
X57634500Y-49332498D01*
X60232000Y-48134998D02*
X59907001Y-47809999D01*
X60232000Y-49310000D02*
X60232000Y-48134998D01*
G04 #@! TO.N,Net-(C9-Pad2)*
X61231969Y-46759969D02*
X58332531Y-46759969D01*
X62332000Y-49310000D02*
X62332000Y-47860000D01*
X62332000Y-47860000D02*
X61231969Y-46759969D01*
X54647500Y-48552000D02*
X54610000Y-48552000D01*
X55734010Y-47465490D02*
X54647500Y-48552000D01*
X57627010Y-47465490D02*
X55734010Y-47465490D01*
X58332531Y-46759969D02*
X57627010Y-47465490D01*
G04 #@! TO.N,Net-(C9-Pad1)*
X61632000Y-49310000D02*
X61632000Y-47860000D01*
X60881979Y-47109979D02*
X58490521Y-47109979D01*
X61632000Y-47860000D02*
X60881979Y-47109979D01*
X58490521Y-47109979D02*
X57785000Y-47815500D01*
X56333498Y-47815500D02*
X55943500Y-48205498D01*
X57785000Y-47815500D02*
X56333498Y-47815500D01*
X54647500Y-50127000D02*
X54610000Y-50127000D01*
X55943500Y-48831000D02*
X54647500Y-50127000D01*
X55943500Y-48205498D02*
X55943500Y-48831000D01*
G04 #@! TO.N,RST*
X78304105Y-73200847D02*
X78564153Y-73200847D01*
X76305138Y-71201880D02*
X78304105Y-73200847D01*
X78564153Y-73200847D02*
X78564153Y-75135153D01*
X81032000Y-77603000D02*
X81032000Y-79665000D01*
X78564153Y-75135153D02*
X81032000Y-77603000D01*
X81139500Y-77495500D02*
X83058000Y-77495500D01*
X81032000Y-77603000D02*
X81139500Y-77495500D01*
G04 #@! TO.N,BTN1*
X83009153Y-62093701D02*
X83009153Y-62054153D01*
X80264936Y-64837918D02*
X83009153Y-62093701D01*
G04 #@! TO.N,BTN2*
X79189854Y-66167000D02*
X80264936Y-67242082D01*
X79121000Y-66167000D02*
X79189854Y-66167000D01*
X85090000Y-71755000D02*
X85090000Y-69113500D01*
X84503847Y-72341153D02*
X85090000Y-71755000D01*
X85090000Y-69113500D02*
X84048500Y-69113500D01*
X84048500Y-69113500D02*
X83566000Y-69596000D01*
G04 #@! TO.N,BTN3*
X70891500Y-74211354D02*
X72203918Y-72898936D01*
X70891500Y-78333600D02*
X70891500Y-74211354D01*
G04 #@! TO.N,MOSI*
X73895048Y-55248611D02*
X73895048Y-56559548D01*
X73895048Y-56559548D02*
X73914000Y-56578500D01*
X75032000Y-78965000D02*
X75692000Y-78305000D01*
X75032000Y-79665000D02*
X75032000Y-78965000D01*
X75692000Y-73982854D02*
X74608082Y-72898936D01*
X75692000Y-75120500D02*
X75692000Y-73982854D01*
X75692000Y-78305000D02*
X75692000Y-75120500D01*
G04 #@! TO.N,MISO*
X76532000Y-73691483D02*
X76532000Y-79665000D01*
X75173767Y-72333250D02*
X76532000Y-73691483D01*
G04 #@! TO.N,SCK*
X72117048Y-55248611D02*
X72117048Y-56559548D01*
X72117048Y-56559548D02*
X72136000Y-56578500D01*
X75739452Y-71767565D02*
X77343000Y-73371113D01*
X77343000Y-73371113D02*
X77343000Y-77724000D01*
X78032000Y-78413000D02*
X78032000Y-79665000D01*
X77343000Y-77724000D02*
X78032000Y-78413000D01*
G04 #@! TO.N,OLED_RST*
X71072548Y-60312435D02*
X68326000Y-57565887D01*
X68326000Y-57565887D02*
X68326000Y-56959500D01*
X69241000Y-55207000D02*
X69278500Y-55207000D01*
X68326000Y-56122000D02*
X69241000Y-55207000D01*
X68326000Y-56959500D02*
X68326000Y-56122000D01*
X68632000Y-51406650D02*
X68680437Y-51455087D01*
X68632000Y-49310000D02*
X68632000Y-51406650D01*
G04 #@! TO.N,OLED_CS*
X67437000Y-56959500D02*
X67437000Y-55207000D01*
X67437000Y-57808258D02*
X70506862Y-60878120D01*
X67437000Y-56959500D02*
X67437000Y-57808258D01*
X67945000Y-49323000D02*
X67932000Y-49310000D01*
X67945000Y-51308000D02*
X67945000Y-49323000D01*
G04 #@! TO.N,BAT_LVL*
X64955146Y-68834000D02*
X66547064Y-67242082D01*
X63779500Y-68834000D02*
X64955146Y-68834000D01*
X64818847Y-66654153D02*
X64818847Y-63886565D01*
X64417000Y-67056000D02*
X64818847Y-66654153D01*
X64818847Y-63886565D02*
X64818847Y-63167847D01*
X63779500Y-67056000D02*
X64417000Y-67056000D01*
X63779500Y-68834000D02*
X63779500Y-67056000D01*
G04 #@! TO.N,BAT_STAT*
X64973258Y-72210000D02*
X63434000Y-72210000D01*
X68244120Y-68939138D02*
X64973258Y-72210000D01*
G04 #@! TO.N,Net-(R19-Pad2)*
X72079548Y-53673611D02*
X72117048Y-53673611D01*
X72117048Y-51445048D02*
X72117048Y-53673611D01*
X71432000Y-49310000D02*
X71432000Y-50760000D01*
X71432000Y-50760000D02*
X72117048Y-51445048D01*
G04 #@! TO.N,Net-(R20-Pad2)*
X73857548Y-53673611D02*
X73895048Y-53673611D01*
X73895048Y-52523048D02*
X73895048Y-53673611D01*
X72132000Y-49310000D02*
X72132000Y-50760000D01*
X72132000Y-50760000D02*
X73895048Y-52523048D01*
G04 #@! TO.N,/BAT*
X54668000Y-73152000D02*
X54118000Y-73152000D01*
D31*
X60092000Y-73152000D02*
X54668000Y-73152000D01*
X61034000Y-72210000D02*
X60092000Y-73152000D01*
X61534000Y-72210000D02*
X61034000Y-72210000D01*
X54118000Y-60148500D02*
X54118000Y-73152000D01*
X56959500Y-53978500D02*
X54797000Y-53978500D01*
X54797000Y-53978500D02*
X54118000Y-54657500D01*
X54965500Y-58864500D02*
X54328000Y-58864500D01*
X54328000Y-58864500D02*
X54118000Y-58864500D01*
X54118000Y-54657500D02*
X54118000Y-58864500D01*
X54118000Y-58864500D02*
X54118000Y-60148500D01*
X61534000Y-70179500D02*
X61534000Y-71460000D01*
X61534000Y-71460000D02*
X61534000Y-72210000D01*
X62204500Y-69509000D02*
X61534000Y-70179500D01*
X62204500Y-68834000D02*
X62204500Y-69509000D01*
D32*
G04 #@! TO.N,/PWR*
X58397000Y-71756000D02*
X58547000Y-71756000D01*
D31*
X56564000Y-71756000D02*
X56118000Y-72202000D01*
X58547000Y-71756000D02*
X56564000Y-71756000D01*
D32*
X60614500Y-64704000D02*
X60680500Y-64770000D01*
D31*
X58757500Y-64704000D02*
X60614500Y-64704000D01*
X58445500Y-67183000D02*
X58445500Y-66014500D01*
X58757500Y-65702500D02*
X58757500Y-64704000D01*
X58445500Y-66014500D02*
X58757500Y-65702500D01*
X58445500Y-68961000D02*
X58445500Y-67183000D01*
D32*
X58445500Y-71654500D02*
X58547000Y-71756000D01*
D31*
X58445500Y-68961000D02*
X58445500Y-71654500D01*
G04 #@! TO.N,/USB*
X56118000Y-74102000D02*
X57072000Y-75056000D01*
X57072000Y-75056000D02*
X58547000Y-75056000D01*
D32*
X61488000Y-75056000D02*
X61534000Y-75010000D01*
D31*
X58547000Y-75056000D02*
X61488000Y-75056000D01*
D33*
X63482000Y-79458500D02*
X63017500Y-78994000D01*
X63482000Y-81647500D02*
X63482000Y-79458500D01*
D31*
X63017500Y-78994000D02*
X63017500Y-77216000D01*
D32*
X63017500Y-76743500D02*
X63017500Y-77216000D01*
D31*
X61534000Y-75260000D02*
X63017500Y-76743500D01*
D32*
X61534000Y-75010000D02*
X61534000Y-75260000D01*
G04 #@! TD*
D34*
G04 #@! TO.N,GND*
G36*
X86447000Y-46342159D02*
X86447001Y-76625000D01*
X86109612Y-76625000D01*
X86038611Y-76639123D01*
X86038610Y-76639123D01*
X85847268Y-76677183D01*
X85847266Y-76677184D01*
X85847263Y-76677184D01*
X85649985Y-76758900D01*
X85582315Y-76786930D01*
X85582314Y-76786931D01*
X85582311Y-76786932D01*
X85420100Y-76895319D01*
X85298432Y-77016988D01*
X85217319Y-77098100D01*
X85108932Y-77260311D01*
X85108931Y-77260314D01*
X85108930Y-77260315D01*
X85074681Y-77343000D01*
X84999184Y-77525263D01*
X84999184Y-77525265D01*
X84999183Y-77525267D01*
X84961123Y-77716610D01*
X84961123Y-78003390D01*
X84999183Y-78194733D01*
X84999184Y-78194735D01*
X84999184Y-78194737D01*
X85059608Y-78340612D01*
X85098745Y-78435095D01*
X85108932Y-78459689D01*
X85217319Y-78621900D01*
X85268774Y-78673354D01*
X85420100Y-78824681D01*
X85582311Y-78933068D01*
X85582314Y-78933069D01*
X85582315Y-78933070D01*
X85646600Y-78959697D01*
X85847263Y-79042816D01*
X85847266Y-79042816D01*
X85847268Y-79042817D01*
X86038610Y-79080877D01*
X86038611Y-79080877D01*
X86109612Y-79095000D01*
X86447000Y-79095000D01*
X86447001Y-83317290D01*
X86381405Y-83879918D01*
X86202809Y-84371944D01*
X85915810Y-84809689D01*
X85535807Y-85169670D01*
X85083180Y-85432576D01*
X84909440Y-85485196D01*
X84909440Y-83955000D01*
X84860157Y-83707235D01*
X84719809Y-83497191D01*
X84509765Y-83356843D01*
X84262000Y-83307560D01*
X83012000Y-83307560D01*
X82764235Y-83356843D01*
X82554191Y-83497191D01*
X82413843Y-83707235D01*
X82364560Y-83955000D01*
X82364560Y-85625000D01*
X72199440Y-85625000D01*
X72199440Y-83955000D01*
X72150157Y-83707235D01*
X72009809Y-83497191D01*
X71799765Y-83356843D01*
X71552000Y-83307560D01*
X70302000Y-83307560D01*
X70054235Y-83356843D01*
X69844191Y-83497191D01*
X69703843Y-83707235D01*
X69654560Y-83955000D01*
X69654560Y-85625000D01*
X69094931Y-85625000D01*
X69374390Y-85287447D01*
X69517000Y-84824500D01*
X69517000Y-84474500D01*
X65909000Y-84474500D01*
X65909000Y-84494500D01*
X65655000Y-84494500D01*
X65655000Y-84474500D01*
X63909000Y-84474500D01*
X63909000Y-84494500D01*
X63655000Y-84494500D01*
X63655000Y-84474500D01*
X60047000Y-84474500D01*
X60047000Y-84824500D01*
X60189610Y-85287447D01*
X60469069Y-85625000D01*
X59726598Y-85625000D01*
X59759809Y-85602809D01*
X59900157Y-85392765D01*
X59949440Y-85145000D01*
X59949440Y-82495000D01*
X59900157Y-82247235D01*
X59759809Y-82037191D01*
X59612000Y-81938427D01*
X59612000Y-81891573D01*
X59759809Y-81792809D01*
X59900157Y-81582765D01*
X59926834Y-81448646D01*
X60909688Y-81448646D01*
X60938051Y-81988944D01*
X61090247Y-82356378D01*
X61328602Y-82421293D01*
X62102395Y-81647500D01*
X61328602Y-80873707D01*
X61090247Y-80938622D01*
X60909688Y-81448646D01*
X59926834Y-81448646D01*
X59949440Y-81335000D01*
X59949440Y-81208570D01*
X59976065Y-81213866D01*
X60062817Y-81249800D01*
X60156717Y-81249800D01*
X60248799Y-81268116D01*
X60340881Y-81249800D01*
X60434783Y-81249800D01*
X60521535Y-81213866D01*
X60613618Y-81195550D01*
X60691681Y-81143389D01*
X60778435Y-81107455D01*
X60844835Y-81041055D01*
X60922896Y-80988896D01*
X60975055Y-80910835D01*
X61041455Y-80844435D01*
X61077389Y-80757681D01*
X61129550Y-80679618D01*
X61147866Y-80587535D01*
X61183800Y-80500783D01*
X61183800Y-80406881D01*
X61202116Y-80314799D01*
X61183800Y-80222717D01*
X61183800Y-80128817D01*
X61168609Y-80092141D01*
X61315500Y-79945250D01*
X61315500Y-79121000D01*
X60528750Y-79121000D01*
X60435712Y-79214038D01*
X60308819Y-79129250D01*
X60036086Y-79075000D01*
X59949440Y-79057765D01*
X59949440Y-78685000D01*
X59900157Y-78437235D01*
X59759809Y-78227191D01*
X59612000Y-78128427D01*
X59612000Y-78123081D01*
X59735157Y-77938765D01*
X59784440Y-77691000D01*
X59784440Y-77501750D01*
X60370000Y-77501750D01*
X60370000Y-77817310D01*
X60466673Y-78050699D01*
X60520974Y-78105000D01*
X60466673Y-78159301D01*
X60370000Y-78392690D01*
X60370000Y-78708250D01*
X60528750Y-78867000D01*
X61315500Y-78867000D01*
X61315500Y-77343000D01*
X60528750Y-77343000D01*
X60370000Y-77501750D01*
X59784440Y-77501750D01*
X59784440Y-76741000D01*
X59735157Y-76493235D01*
X59594809Y-76283191D01*
X59384765Y-76142843D01*
X59292520Y-76124495D01*
X59394765Y-76104157D01*
X59564115Y-75991000D01*
X60758278Y-75991000D01*
X60776191Y-76017809D01*
X60908177Y-76106000D01*
X60878691Y-76106000D01*
X60645302Y-76202673D01*
X60466673Y-76381301D01*
X60370000Y-76614690D01*
X60370000Y-76930250D01*
X60528750Y-77089000D01*
X61315500Y-77089000D01*
X61315500Y-77069000D01*
X61569500Y-77069000D01*
X61569500Y-77089000D01*
X61589500Y-77089000D01*
X61589500Y-77343000D01*
X61569500Y-77343000D01*
X61569500Y-78867000D01*
X61589500Y-78867000D01*
X61589500Y-79121000D01*
X61569500Y-79121000D01*
X61569500Y-79945250D01*
X61728250Y-80104000D01*
X62006309Y-80104000D01*
X62239698Y-80007327D01*
X62240898Y-80006127D01*
X62332235Y-80067157D01*
X62580000Y-80116440D01*
X62647001Y-80116440D01*
X62647001Y-80334007D01*
X62480854Y-80275188D01*
X61940556Y-80303551D01*
X61573122Y-80455747D01*
X61508207Y-80694102D01*
X62282000Y-81467895D01*
X62296143Y-81453753D01*
X62475748Y-81633358D01*
X62461605Y-81647500D01*
X62475748Y-81661643D01*
X62296143Y-81841248D01*
X62282000Y-81827105D01*
X61508207Y-82600898D01*
X61552219Y-82762500D01*
X61154998Y-82762500D01*
X61154998Y-82762787D01*
X60999672Y-82827125D01*
X60964391Y-82804038D01*
X60926719Y-82807908D01*
X60498526Y-83034420D01*
X60189610Y-83407553D01*
X60047000Y-83870500D01*
X60047000Y-84220500D01*
X63655000Y-84220500D01*
X63655000Y-84200500D01*
X63909000Y-84200500D01*
X63909000Y-84220500D01*
X65655000Y-84220500D01*
X65655000Y-84200500D01*
X65909000Y-84200500D01*
X65909000Y-84220500D01*
X69517000Y-84220500D01*
X69517000Y-83870500D01*
X69374390Y-83407553D01*
X69065474Y-83034420D01*
X68637281Y-82807908D01*
X68599609Y-82804038D01*
X68564328Y-82827125D01*
X68409002Y-82762787D01*
X68409002Y-82762500D01*
X68011781Y-82762500D01*
X68055793Y-82600898D01*
X67282000Y-81827105D01*
X67267858Y-81841248D01*
X67088253Y-81661643D01*
X67102395Y-81647500D01*
X67088253Y-81633358D01*
X67267858Y-81453753D01*
X67282000Y-81467895D01*
X67296143Y-81453753D01*
X67475748Y-81633358D01*
X67461605Y-81647500D01*
X68235398Y-82421293D01*
X68473753Y-82356378D01*
X68654312Y-81846354D01*
X68625949Y-81306056D01*
X68620674Y-81293321D01*
X69126691Y-81799337D01*
X69167695Y-81860705D01*
X69410817Y-82023154D01*
X69625212Y-82065800D01*
X69625215Y-82065800D01*
X69697599Y-82080198D01*
X69769983Y-82065800D01*
X72978016Y-82065800D01*
X73050400Y-82080198D01*
X73122784Y-82065800D01*
X73122788Y-82065800D01*
X73337183Y-82023154D01*
X73580305Y-81860705D01*
X73621311Y-81799335D01*
X74000538Y-81420109D01*
X74061905Y-81379105D01*
X74224354Y-81135983D01*
X74267000Y-80921588D01*
X74267000Y-80921585D01*
X74281398Y-80849201D01*
X74267000Y-80776817D01*
X74267000Y-80638050D01*
X74282000Y-80628027D01*
X74484235Y-80763157D01*
X74732000Y-80812440D01*
X75332000Y-80812440D01*
X75579765Y-80763157D01*
X75782000Y-80628027D01*
X75984235Y-80763157D01*
X76232000Y-80812440D01*
X76832000Y-80812440D01*
X77079765Y-80763157D01*
X77282000Y-80628027D01*
X77484235Y-80763157D01*
X77732000Y-80812440D01*
X78332000Y-80812440D01*
X78579765Y-80763157D01*
X78789809Y-80622809D01*
X78790600Y-80621625D01*
X78872302Y-80703327D01*
X79105691Y-80800000D01*
X79246250Y-80800000D01*
X79405000Y-80641250D01*
X79405000Y-79792000D01*
X79385000Y-79792000D01*
X79385000Y-79538000D01*
X79405000Y-79538000D01*
X79405000Y-78688750D01*
X79246250Y-78530000D01*
X79105691Y-78530000D01*
X78872302Y-78626673D01*
X78790600Y-78708375D01*
X78789809Y-78707191D01*
X78767000Y-78691950D01*
X78767000Y-78485383D01*
X78781398Y-78412999D01*
X78767000Y-78340613D01*
X78767000Y-78340612D01*
X78724354Y-78126217D01*
X78561905Y-77883095D01*
X78500538Y-77842091D01*
X78078000Y-77419554D01*
X78078000Y-75694291D01*
X78095616Y-75706062D01*
X80297000Y-77907447D01*
X80297001Y-78691950D01*
X80274191Y-78707191D01*
X80273400Y-78708375D01*
X80191698Y-78626673D01*
X79958309Y-78530000D01*
X79817750Y-78530000D01*
X79659000Y-78688750D01*
X79659000Y-79538000D01*
X79679000Y-79538000D01*
X79679000Y-79792000D01*
X79659000Y-79792000D01*
X79659000Y-80641250D01*
X79817750Y-80800000D01*
X79958309Y-80800000D01*
X80191698Y-80703327D01*
X80273400Y-80621625D01*
X80274191Y-80622809D01*
X80484235Y-80763157D01*
X80732000Y-80812440D01*
X81332000Y-80812440D01*
X81579765Y-80763157D01*
X81789809Y-80622809D01*
X81930157Y-80412765D01*
X81979440Y-80165000D01*
X81979440Y-79165000D01*
X81930157Y-78917235D01*
X81789809Y-78707191D01*
X81767000Y-78691950D01*
X81767000Y-78230500D01*
X82018075Y-78230500D01*
X82125191Y-78390809D01*
X82335235Y-78531157D01*
X82583000Y-78580440D01*
X83533000Y-78580440D01*
X83780765Y-78531157D01*
X83990809Y-78390809D01*
X84131157Y-78180765D01*
X84180440Y-77933000D01*
X84180440Y-77058000D01*
X84131157Y-76810235D01*
X84070127Y-76718898D01*
X84071327Y-76717698D01*
X84168000Y-76484309D01*
X84168000Y-76206250D01*
X84009250Y-76047500D01*
X83185000Y-76047500D01*
X83185000Y-76067500D01*
X82931000Y-76067500D01*
X82931000Y-76047500D01*
X82106750Y-76047500D01*
X81948000Y-76206250D01*
X81948000Y-76484309D01*
X82044673Y-76717698D01*
X82045873Y-76718898D01*
X82018075Y-76760500D01*
X81228947Y-76760500D01*
X80152945Y-75684498D01*
X80318479Y-75573891D01*
X80937197Y-74955173D01*
X81077545Y-74745129D01*
X81101533Y-74624533D01*
X81163578Y-74612191D01*
X81344911Y-74733354D01*
X81559306Y-74776000D01*
X81587273Y-74781563D01*
X81639365Y-74833655D01*
X81983017Y-74976000D01*
X82191974Y-74976000D01*
X82044673Y-75123302D01*
X81948000Y-75356691D01*
X81948000Y-75634750D01*
X82106750Y-75793500D01*
X82931000Y-75793500D01*
X82931000Y-75006750D01*
X83185000Y-75006750D01*
X83185000Y-75793500D01*
X84009250Y-75793500D01*
X84168000Y-75634750D01*
X84168000Y-75356691D01*
X84071327Y-75123302D01*
X83892699Y-74944673D01*
X83659310Y-74848000D01*
X83343750Y-74848000D01*
X83185000Y-75006750D01*
X82931000Y-75006750D01*
X82772250Y-74848000D01*
X82664003Y-74848000D01*
X82698635Y-74833655D01*
X82752196Y-74780094D01*
X82804000Y-74790398D01*
X82876384Y-74776000D01*
X82876388Y-74776000D01*
X83090783Y-74733354D01*
X83156121Y-74689697D01*
X83168905Y-74698239D01*
X83416670Y-74747522D01*
X83664435Y-74698239D01*
X83874479Y-74557891D01*
X84493197Y-73939173D01*
X84633545Y-73729129D01*
X84657533Y-73608533D01*
X84778129Y-73584545D01*
X84988173Y-73444197D01*
X85606891Y-72825479D01*
X85747239Y-72615435D01*
X85796522Y-72367670D01*
X85747239Y-72119905D01*
X85738697Y-72107121D01*
X85782354Y-72041783D01*
X85825000Y-71827388D01*
X85825000Y-71827387D01*
X85839399Y-71755000D01*
X85825000Y-71682612D01*
X85825000Y-70140982D01*
X86022809Y-70008809D01*
X86163157Y-69798765D01*
X86212440Y-69551000D01*
X86212440Y-68676000D01*
X86163157Y-68428235D01*
X86102127Y-68336898D01*
X86103327Y-68335698D01*
X86200000Y-68102309D01*
X86200000Y-67824250D01*
X86041250Y-67665500D01*
X85217000Y-67665500D01*
X85217000Y-67685500D01*
X84963000Y-67685500D01*
X84963000Y-67665500D01*
X84138750Y-67665500D01*
X83980000Y-67824250D01*
X83980000Y-68102309D01*
X84076673Y-68335698D01*
X84077873Y-68336898D01*
X84058382Y-68366068D01*
X84048499Y-68364102D01*
X83976115Y-68378500D01*
X83976112Y-68378500D01*
X83761717Y-68421146D01*
X83518595Y-68583595D01*
X83477590Y-68644963D01*
X83461553Y-68661000D01*
X83380017Y-68661000D01*
X83036365Y-68803345D01*
X82773345Y-69066365D01*
X82699173Y-69245432D01*
X82143452Y-69801153D01*
X82157595Y-69815296D01*
X81977990Y-69994901D01*
X81963847Y-69980758D01*
X81949705Y-69994901D01*
X81770100Y-69815296D01*
X81784242Y-69801153D01*
X81770100Y-69787011D01*
X81949705Y-69607406D01*
X81963847Y-69621548D01*
X82520163Y-69065232D01*
X82520163Y-68926273D01*
X84086843Y-67359593D01*
X84138750Y-67411500D01*
X84963000Y-67411500D01*
X84963000Y-66624750D01*
X85217000Y-66624750D01*
X85217000Y-67411500D01*
X86041250Y-67411500D01*
X86200000Y-67252750D01*
X86200000Y-66974691D01*
X86103327Y-66741302D01*
X85924699Y-66562673D01*
X85691310Y-66466000D01*
X85375750Y-66466000D01*
X85217000Y-66624750D01*
X84963000Y-66624750D01*
X84892343Y-66554093D01*
X85836640Y-65609797D01*
X85898007Y-65568793D01*
X86060456Y-65325671D01*
X86103102Y-65111276D01*
X86103102Y-65111275D01*
X86117501Y-65038888D01*
X86103102Y-64966500D01*
X86103102Y-56740485D01*
X86117500Y-56668101D01*
X86103102Y-56595717D01*
X86103102Y-56595714D01*
X86060456Y-56381319D01*
X85898007Y-56138197D01*
X85836639Y-56097192D01*
X85689440Y-55949993D01*
X85689440Y-54942000D01*
X85640157Y-54694235D01*
X85499809Y-54484191D01*
X85289765Y-54343843D01*
X85286622Y-54343218D01*
X85389157Y-54189765D01*
X85438440Y-53942000D01*
X85438440Y-52992000D01*
X85389157Y-52744235D01*
X85248809Y-52534191D01*
X85100445Y-52435057D01*
X85100445Y-51435000D01*
X85090778Y-51386399D01*
X85063248Y-51345197D01*
X85022046Y-51317667D01*
X84973445Y-51308000D01*
X80899000Y-51308000D01*
X80850399Y-51317667D01*
X80809197Y-51345197D01*
X80781667Y-51386399D01*
X80772000Y-51435000D01*
X80772000Y-53213000D01*
X77597000Y-53213000D01*
X77548399Y-53222667D01*
X77507197Y-53250197D01*
X77479667Y-53291399D01*
X77470000Y-53340000D01*
X77470000Y-58748394D01*
X76810845Y-59407550D01*
X76533137Y-59129842D01*
X76427167Y-59059035D01*
X76356360Y-58953065D01*
X75967452Y-58564157D01*
X75861483Y-58493351D01*
X75790675Y-58387379D01*
X75401767Y-57998471D01*
X75191723Y-57858123D01*
X74943958Y-57808840D01*
X74696193Y-57858123D01*
X74486149Y-57998471D01*
X73425489Y-59059131D01*
X73406000Y-59088298D01*
X73386511Y-59059131D01*
X72325851Y-57998471D01*
X72115807Y-57858123D01*
X71868042Y-57808840D01*
X71620277Y-57858123D01*
X71410233Y-57998471D01*
X71021325Y-58387379D01*
X70950517Y-58493351D01*
X70844548Y-58564157D01*
X70604132Y-58804573D01*
X69168458Y-57368899D01*
X69261000Y-57145483D01*
X69261000Y-56773517D01*
X69118655Y-56429865D01*
X69088118Y-56399328D01*
X69195506Y-56291940D01*
X69753500Y-56291940D01*
X70001265Y-56242657D01*
X70211309Y-56102309D01*
X70351657Y-55892265D01*
X70400940Y-55644500D01*
X70400940Y-54769500D01*
X70351657Y-54521735D01*
X70283345Y-54419500D01*
X70351657Y-54317265D01*
X70400940Y-54069500D01*
X70400940Y-53793849D01*
X71003529Y-53191260D01*
X70994608Y-53236111D01*
X70994608Y-54111111D01*
X71043891Y-54358876D01*
X71112203Y-54461111D01*
X71043891Y-54563346D01*
X70994608Y-54811111D01*
X70994608Y-55686111D01*
X71043891Y-55933876D01*
X71184239Y-56143920D01*
X71278017Y-56206581D01*
X71201000Y-56392517D01*
X71201000Y-56764483D01*
X71343345Y-57108135D01*
X71606365Y-57371155D01*
X71950017Y-57513500D01*
X72321983Y-57513500D01*
X72665635Y-57371155D01*
X72928655Y-57108135D01*
X73025000Y-56875537D01*
X73121345Y-57108135D01*
X73384365Y-57371155D01*
X73728017Y-57513500D01*
X74099983Y-57513500D01*
X74443635Y-57371155D01*
X74706655Y-57108135D01*
X74849000Y-56764483D01*
X74849000Y-56392517D01*
X74763766Y-56186744D01*
X74784119Y-56173145D01*
X74857301Y-56246327D01*
X75090690Y-56343000D01*
X75406250Y-56343000D01*
X75565000Y-56184250D01*
X75565000Y-55397500D01*
X75819000Y-55397500D01*
X75819000Y-56184250D01*
X75977750Y-56343000D01*
X76293310Y-56343000D01*
X76526699Y-56246327D01*
X76705327Y-56067698D01*
X76802000Y-55834309D01*
X76802000Y-55556250D01*
X76643250Y-55397500D01*
X75819000Y-55397500D01*
X75565000Y-55397500D01*
X75545000Y-55397500D01*
X75545000Y-55143500D01*
X75565000Y-55143500D01*
X75565000Y-55123500D01*
X75819000Y-55123500D01*
X75819000Y-55143500D01*
X76643250Y-55143500D01*
X76802000Y-54984750D01*
X76802000Y-54706691D01*
X76705327Y-54473302D01*
X76704127Y-54472102D01*
X76765157Y-54380765D01*
X76814440Y-54133000D01*
X76814440Y-53258000D01*
X76767489Y-53021958D01*
X77500538Y-52288909D01*
X77561905Y-52247905D01*
X77724354Y-52004783D01*
X77767000Y-51790388D01*
X77767000Y-51790385D01*
X77781398Y-51718001D01*
X77767000Y-51645617D01*
X77767000Y-51207440D01*
X77907000Y-51207440D01*
X78082000Y-51172631D01*
X78257000Y-51207440D01*
X78607000Y-51207440D01*
X78778411Y-51173345D01*
X78830691Y-51195000D01*
X78885750Y-51195000D01*
X79044500Y-51036250D01*
X79044500Y-51031379D01*
X79064809Y-51017809D01*
X79132000Y-50917251D01*
X79199191Y-51017809D01*
X79219500Y-51031379D01*
X79219500Y-51036250D01*
X79378250Y-51195000D01*
X79433309Y-51195000D01*
X79485589Y-51173345D01*
X79657000Y-51207440D01*
X80007000Y-51207440D01*
X80254765Y-51158157D01*
X80464809Y-51017809D01*
X80605157Y-50807765D01*
X80654440Y-50560000D01*
X80654440Y-50349250D01*
X81186000Y-50349250D01*
X81186000Y-50627309D01*
X81282673Y-50860698D01*
X81461301Y-51039327D01*
X81694690Y-51136000D01*
X82010250Y-51136000D01*
X82169000Y-50977250D01*
X82169000Y-50190500D01*
X82423000Y-50190500D01*
X82423000Y-50977250D01*
X82581750Y-51136000D01*
X82897310Y-51136000D01*
X83130699Y-51039327D01*
X83248500Y-50921525D01*
X83366301Y-51039327D01*
X83599690Y-51136000D01*
X83915250Y-51136000D01*
X84074000Y-50977250D01*
X84074000Y-50190500D01*
X84328000Y-50190500D01*
X84328000Y-50977250D01*
X84486750Y-51136000D01*
X84802310Y-51136000D01*
X85035699Y-51039327D01*
X85214327Y-50860698D01*
X85311000Y-50627309D01*
X85311000Y-50349250D01*
X85152250Y-50190500D01*
X84328000Y-50190500D01*
X84074000Y-50190500D01*
X83249750Y-50190500D01*
X83248500Y-50191750D01*
X83247250Y-50190500D01*
X82423000Y-50190500D01*
X82169000Y-50190500D01*
X81344750Y-50190500D01*
X81186000Y-50349250D01*
X80654440Y-50349250D01*
X80654440Y-48561387D01*
X81050090Y-48957037D01*
X81091095Y-49018405D01*
X81207398Y-49096116D01*
X81222843Y-49173765D01*
X81283873Y-49265102D01*
X81282673Y-49266302D01*
X81186000Y-49499691D01*
X81186000Y-49777750D01*
X81344750Y-49936500D01*
X82169000Y-49936500D01*
X82169000Y-49916500D01*
X82423000Y-49916500D01*
X82423000Y-49936500D01*
X83247250Y-49936500D01*
X83248500Y-49935250D01*
X83249750Y-49936500D01*
X84074000Y-49936500D01*
X84074000Y-49916500D01*
X84328000Y-49916500D01*
X84328000Y-49936500D01*
X85152250Y-49936500D01*
X85311000Y-49777750D01*
X85311000Y-49499691D01*
X85214327Y-49266302D01*
X85213127Y-49265102D01*
X85274157Y-49173765D01*
X85323440Y-48926000D01*
X85323440Y-48051000D01*
X85274157Y-47803235D01*
X85133809Y-47593191D01*
X84923765Y-47452843D01*
X84676000Y-47403560D01*
X84118006Y-47403560D01*
X83934411Y-47219965D01*
X83893405Y-47158595D01*
X83711324Y-47036932D01*
X84067316Y-46984469D01*
X84105780Y-46974138D01*
X84145221Y-46968642D01*
X84231722Y-46940313D01*
X84877379Y-46683589D01*
X84912428Y-46664691D01*
X84949553Y-46650266D01*
X85027217Y-46602797D01*
X85405439Y-46338125D01*
X86447000Y-46342159D01*
X86447000Y-46342159D01*
G37*
X86447000Y-46342159D02*
X86447001Y-76625000D01*
X86109612Y-76625000D01*
X86038611Y-76639123D01*
X86038610Y-76639123D01*
X85847268Y-76677183D01*
X85847266Y-76677184D01*
X85847263Y-76677184D01*
X85649985Y-76758900D01*
X85582315Y-76786930D01*
X85582314Y-76786931D01*
X85582311Y-76786932D01*
X85420100Y-76895319D01*
X85298432Y-77016988D01*
X85217319Y-77098100D01*
X85108932Y-77260311D01*
X85108931Y-77260314D01*
X85108930Y-77260315D01*
X85074681Y-77343000D01*
X84999184Y-77525263D01*
X84999184Y-77525265D01*
X84999183Y-77525267D01*
X84961123Y-77716610D01*
X84961123Y-78003390D01*
X84999183Y-78194733D01*
X84999184Y-78194735D01*
X84999184Y-78194737D01*
X85059608Y-78340612D01*
X85098745Y-78435095D01*
X85108932Y-78459689D01*
X85217319Y-78621900D01*
X85268774Y-78673354D01*
X85420100Y-78824681D01*
X85582311Y-78933068D01*
X85582314Y-78933069D01*
X85582315Y-78933070D01*
X85646600Y-78959697D01*
X85847263Y-79042816D01*
X85847266Y-79042816D01*
X85847268Y-79042817D01*
X86038610Y-79080877D01*
X86038611Y-79080877D01*
X86109612Y-79095000D01*
X86447000Y-79095000D01*
X86447001Y-83317290D01*
X86381405Y-83879918D01*
X86202809Y-84371944D01*
X85915810Y-84809689D01*
X85535807Y-85169670D01*
X85083180Y-85432576D01*
X84909440Y-85485196D01*
X84909440Y-83955000D01*
X84860157Y-83707235D01*
X84719809Y-83497191D01*
X84509765Y-83356843D01*
X84262000Y-83307560D01*
X83012000Y-83307560D01*
X82764235Y-83356843D01*
X82554191Y-83497191D01*
X82413843Y-83707235D01*
X82364560Y-83955000D01*
X82364560Y-85625000D01*
X72199440Y-85625000D01*
X72199440Y-83955000D01*
X72150157Y-83707235D01*
X72009809Y-83497191D01*
X71799765Y-83356843D01*
X71552000Y-83307560D01*
X70302000Y-83307560D01*
X70054235Y-83356843D01*
X69844191Y-83497191D01*
X69703843Y-83707235D01*
X69654560Y-83955000D01*
X69654560Y-85625000D01*
X69094931Y-85625000D01*
X69374390Y-85287447D01*
X69517000Y-84824500D01*
X69517000Y-84474500D01*
X65909000Y-84474500D01*
X65909000Y-84494500D01*
X65655000Y-84494500D01*
X65655000Y-84474500D01*
X63909000Y-84474500D01*
X63909000Y-84494500D01*
X63655000Y-84494500D01*
X63655000Y-84474500D01*
X60047000Y-84474500D01*
X60047000Y-84824500D01*
X60189610Y-85287447D01*
X60469069Y-85625000D01*
X59726598Y-85625000D01*
X59759809Y-85602809D01*
X59900157Y-85392765D01*
X59949440Y-85145000D01*
X59949440Y-82495000D01*
X59900157Y-82247235D01*
X59759809Y-82037191D01*
X59612000Y-81938427D01*
X59612000Y-81891573D01*
X59759809Y-81792809D01*
X59900157Y-81582765D01*
X59926834Y-81448646D01*
X60909688Y-81448646D01*
X60938051Y-81988944D01*
X61090247Y-82356378D01*
X61328602Y-82421293D01*
X62102395Y-81647500D01*
X61328602Y-80873707D01*
X61090247Y-80938622D01*
X60909688Y-81448646D01*
X59926834Y-81448646D01*
X59949440Y-81335000D01*
X59949440Y-81208570D01*
X59976065Y-81213866D01*
X60062817Y-81249800D01*
X60156717Y-81249800D01*
X60248799Y-81268116D01*
X60340881Y-81249800D01*
X60434783Y-81249800D01*
X60521535Y-81213866D01*
X60613618Y-81195550D01*
X60691681Y-81143389D01*
X60778435Y-81107455D01*
X60844835Y-81041055D01*
X60922896Y-80988896D01*
X60975055Y-80910835D01*
X61041455Y-80844435D01*
X61077389Y-80757681D01*
X61129550Y-80679618D01*
X61147866Y-80587535D01*
X61183800Y-80500783D01*
X61183800Y-80406881D01*
X61202116Y-80314799D01*
X61183800Y-80222717D01*
X61183800Y-80128817D01*
X61168609Y-80092141D01*
X61315500Y-79945250D01*
X61315500Y-79121000D01*
X60528750Y-79121000D01*
X60435712Y-79214038D01*
X60308819Y-79129250D01*
X60036086Y-79075000D01*
X59949440Y-79057765D01*
X59949440Y-78685000D01*
X59900157Y-78437235D01*
X59759809Y-78227191D01*
X59612000Y-78128427D01*
X59612000Y-78123081D01*
X59735157Y-77938765D01*
X59784440Y-77691000D01*
X59784440Y-77501750D01*
X60370000Y-77501750D01*
X60370000Y-77817310D01*
X60466673Y-78050699D01*
X60520974Y-78105000D01*
X60466673Y-78159301D01*
X60370000Y-78392690D01*
X60370000Y-78708250D01*
X60528750Y-78867000D01*
X61315500Y-78867000D01*
X61315500Y-77343000D01*
X60528750Y-77343000D01*
X60370000Y-77501750D01*
X59784440Y-77501750D01*
X59784440Y-76741000D01*
X59735157Y-76493235D01*
X59594809Y-76283191D01*
X59384765Y-76142843D01*
X59292520Y-76124495D01*
X59394765Y-76104157D01*
X59564115Y-75991000D01*
X60758278Y-75991000D01*
X60776191Y-76017809D01*
X60908177Y-76106000D01*
X60878691Y-76106000D01*
X60645302Y-76202673D01*
X60466673Y-76381301D01*
X60370000Y-76614690D01*
X60370000Y-76930250D01*
X60528750Y-77089000D01*
X61315500Y-77089000D01*
X61315500Y-77069000D01*
X61569500Y-77069000D01*
X61569500Y-77089000D01*
X61589500Y-77089000D01*
X61589500Y-77343000D01*
X61569500Y-77343000D01*
X61569500Y-78867000D01*
X61589500Y-78867000D01*
X61589500Y-79121000D01*
X61569500Y-79121000D01*
X61569500Y-79945250D01*
X61728250Y-80104000D01*
X62006309Y-80104000D01*
X62239698Y-80007327D01*
X62240898Y-80006127D01*
X62332235Y-80067157D01*
X62580000Y-80116440D01*
X62647001Y-80116440D01*
X62647001Y-80334007D01*
X62480854Y-80275188D01*
X61940556Y-80303551D01*
X61573122Y-80455747D01*
X61508207Y-80694102D01*
X62282000Y-81467895D01*
X62296143Y-81453753D01*
X62475748Y-81633358D01*
X62461605Y-81647500D01*
X62475748Y-81661643D01*
X62296143Y-81841248D01*
X62282000Y-81827105D01*
X61508207Y-82600898D01*
X61552219Y-82762500D01*
X61154998Y-82762500D01*
X61154998Y-82762787D01*
X60999672Y-82827125D01*
X60964391Y-82804038D01*
X60926719Y-82807908D01*
X60498526Y-83034420D01*
X60189610Y-83407553D01*
X60047000Y-83870500D01*
X60047000Y-84220500D01*
X63655000Y-84220500D01*
X63655000Y-84200500D01*
X63909000Y-84200500D01*
X63909000Y-84220500D01*
X65655000Y-84220500D01*
X65655000Y-84200500D01*
X65909000Y-84200500D01*
X65909000Y-84220500D01*
X69517000Y-84220500D01*
X69517000Y-83870500D01*
X69374390Y-83407553D01*
X69065474Y-83034420D01*
X68637281Y-82807908D01*
X68599609Y-82804038D01*
X68564328Y-82827125D01*
X68409002Y-82762787D01*
X68409002Y-82762500D01*
X68011781Y-82762500D01*
X68055793Y-82600898D01*
X67282000Y-81827105D01*
X67267858Y-81841248D01*
X67088253Y-81661643D01*
X67102395Y-81647500D01*
X67088253Y-81633358D01*
X67267858Y-81453753D01*
X67282000Y-81467895D01*
X67296143Y-81453753D01*
X67475748Y-81633358D01*
X67461605Y-81647500D01*
X68235398Y-82421293D01*
X68473753Y-82356378D01*
X68654312Y-81846354D01*
X68625949Y-81306056D01*
X68620674Y-81293321D01*
X69126691Y-81799337D01*
X69167695Y-81860705D01*
X69410817Y-82023154D01*
X69625212Y-82065800D01*
X69625215Y-82065800D01*
X69697599Y-82080198D01*
X69769983Y-82065800D01*
X72978016Y-82065800D01*
X73050400Y-82080198D01*
X73122784Y-82065800D01*
X73122788Y-82065800D01*
X73337183Y-82023154D01*
X73580305Y-81860705D01*
X73621311Y-81799335D01*
X74000538Y-81420109D01*
X74061905Y-81379105D01*
X74224354Y-81135983D01*
X74267000Y-80921588D01*
X74267000Y-80921585D01*
X74281398Y-80849201D01*
X74267000Y-80776817D01*
X74267000Y-80638050D01*
X74282000Y-80628027D01*
X74484235Y-80763157D01*
X74732000Y-80812440D01*
X75332000Y-80812440D01*
X75579765Y-80763157D01*
X75782000Y-80628027D01*
X75984235Y-80763157D01*
X76232000Y-80812440D01*
X76832000Y-80812440D01*
X77079765Y-80763157D01*
X77282000Y-80628027D01*
X77484235Y-80763157D01*
X77732000Y-80812440D01*
X78332000Y-80812440D01*
X78579765Y-80763157D01*
X78789809Y-80622809D01*
X78790600Y-80621625D01*
X78872302Y-80703327D01*
X79105691Y-80800000D01*
X79246250Y-80800000D01*
X79405000Y-80641250D01*
X79405000Y-79792000D01*
X79385000Y-79792000D01*
X79385000Y-79538000D01*
X79405000Y-79538000D01*
X79405000Y-78688750D01*
X79246250Y-78530000D01*
X79105691Y-78530000D01*
X78872302Y-78626673D01*
X78790600Y-78708375D01*
X78789809Y-78707191D01*
X78767000Y-78691950D01*
X78767000Y-78485383D01*
X78781398Y-78412999D01*
X78767000Y-78340613D01*
X78767000Y-78340612D01*
X78724354Y-78126217D01*
X78561905Y-77883095D01*
X78500538Y-77842091D01*
X78078000Y-77419554D01*
X78078000Y-75694291D01*
X78095616Y-75706062D01*
X80297000Y-77907447D01*
X80297001Y-78691950D01*
X80274191Y-78707191D01*
X80273400Y-78708375D01*
X80191698Y-78626673D01*
X79958309Y-78530000D01*
X79817750Y-78530000D01*
X79659000Y-78688750D01*
X79659000Y-79538000D01*
X79679000Y-79538000D01*
X79679000Y-79792000D01*
X79659000Y-79792000D01*
X79659000Y-80641250D01*
X79817750Y-80800000D01*
X79958309Y-80800000D01*
X80191698Y-80703327D01*
X80273400Y-80621625D01*
X80274191Y-80622809D01*
X80484235Y-80763157D01*
X80732000Y-80812440D01*
X81332000Y-80812440D01*
X81579765Y-80763157D01*
X81789809Y-80622809D01*
X81930157Y-80412765D01*
X81979440Y-80165000D01*
X81979440Y-79165000D01*
X81930157Y-78917235D01*
X81789809Y-78707191D01*
X81767000Y-78691950D01*
X81767000Y-78230500D01*
X82018075Y-78230500D01*
X82125191Y-78390809D01*
X82335235Y-78531157D01*
X82583000Y-78580440D01*
X83533000Y-78580440D01*
X83780765Y-78531157D01*
X83990809Y-78390809D01*
X84131157Y-78180765D01*
X84180440Y-77933000D01*
X84180440Y-77058000D01*
X84131157Y-76810235D01*
X84070127Y-76718898D01*
X84071327Y-76717698D01*
X84168000Y-76484309D01*
X84168000Y-76206250D01*
X84009250Y-76047500D01*
X83185000Y-76047500D01*
X83185000Y-76067500D01*
X82931000Y-76067500D01*
X82931000Y-76047500D01*
X82106750Y-76047500D01*
X81948000Y-76206250D01*
X81948000Y-76484309D01*
X82044673Y-76717698D01*
X82045873Y-76718898D01*
X82018075Y-76760500D01*
X81228947Y-76760500D01*
X80152945Y-75684498D01*
X80318479Y-75573891D01*
X80937197Y-74955173D01*
X81077545Y-74745129D01*
X81101533Y-74624533D01*
X81163578Y-74612191D01*
X81344911Y-74733354D01*
X81559306Y-74776000D01*
X81587273Y-74781563D01*
X81639365Y-74833655D01*
X81983017Y-74976000D01*
X82191974Y-74976000D01*
X82044673Y-75123302D01*
X81948000Y-75356691D01*
X81948000Y-75634750D01*
X82106750Y-75793500D01*
X82931000Y-75793500D01*
X82931000Y-75006750D01*
X83185000Y-75006750D01*
X83185000Y-75793500D01*
X84009250Y-75793500D01*
X84168000Y-75634750D01*
X84168000Y-75356691D01*
X84071327Y-75123302D01*
X83892699Y-74944673D01*
X83659310Y-74848000D01*
X83343750Y-74848000D01*
X83185000Y-75006750D01*
X82931000Y-75006750D01*
X82772250Y-74848000D01*
X82664003Y-74848000D01*
X82698635Y-74833655D01*
X82752196Y-74780094D01*
X82804000Y-74790398D01*
X82876384Y-74776000D01*
X82876388Y-74776000D01*
X83090783Y-74733354D01*
X83156121Y-74689697D01*
X83168905Y-74698239D01*
X83416670Y-74747522D01*
X83664435Y-74698239D01*
X83874479Y-74557891D01*
X84493197Y-73939173D01*
X84633545Y-73729129D01*
X84657533Y-73608533D01*
X84778129Y-73584545D01*
X84988173Y-73444197D01*
X85606891Y-72825479D01*
X85747239Y-72615435D01*
X85796522Y-72367670D01*
X85747239Y-72119905D01*
X85738697Y-72107121D01*
X85782354Y-72041783D01*
X85825000Y-71827388D01*
X85825000Y-71827387D01*
X85839399Y-71755000D01*
X85825000Y-71682612D01*
X85825000Y-70140982D01*
X86022809Y-70008809D01*
X86163157Y-69798765D01*
X86212440Y-69551000D01*
X86212440Y-68676000D01*
X86163157Y-68428235D01*
X86102127Y-68336898D01*
X86103327Y-68335698D01*
X86200000Y-68102309D01*
X86200000Y-67824250D01*
X86041250Y-67665500D01*
X85217000Y-67665500D01*
X85217000Y-67685500D01*
X84963000Y-67685500D01*
X84963000Y-67665500D01*
X84138750Y-67665500D01*
X83980000Y-67824250D01*
X83980000Y-68102309D01*
X84076673Y-68335698D01*
X84077873Y-68336898D01*
X84058382Y-68366068D01*
X84048499Y-68364102D01*
X83976115Y-68378500D01*
X83976112Y-68378500D01*
X83761717Y-68421146D01*
X83518595Y-68583595D01*
X83477590Y-68644963D01*
X83461553Y-68661000D01*
X83380017Y-68661000D01*
X83036365Y-68803345D01*
X82773345Y-69066365D01*
X82699173Y-69245432D01*
X82143452Y-69801153D01*
X82157595Y-69815296D01*
X81977990Y-69994901D01*
X81963847Y-69980758D01*
X81949705Y-69994901D01*
X81770100Y-69815296D01*
X81784242Y-69801153D01*
X81770100Y-69787011D01*
X81949705Y-69607406D01*
X81963847Y-69621548D01*
X82520163Y-69065232D01*
X82520163Y-68926273D01*
X84086843Y-67359593D01*
X84138750Y-67411500D01*
X84963000Y-67411500D01*
X84963000Y-66624750D01*
X85217000Y-66624750D01*
X85217000Y-67411500D01*
X86041250Y-67411500D01*
X86200000Y-67252750D01*
X86200000Y-66974691D01*
X86103327Y-66741302D01*
X85924699Y-66562673D01*
X85691310Y-66466000D01*
X85375750Y-66466000D01*
X85217000Y-66624750D01*
X84963000Y-66624750D01*
X84892343Y-66554093D01*
X85836640Y-65609797D01*
X85898007Y-65568793D01*
X86060456Y-65325671D01*
X86103102Y-65111276D01*
X86103102Y-65111275D01*
X86117501Y-65038888D01*
X86103102Y-64966500D01*
X86103102Y-56740485D01*
X86117500Y-56668101D01*
X86103102Y-56595717D01*
X86103102Y-56595714D01*
X86060456Y-56381319D01*
X85898007Y-56138197D01*
X85836639Y-56097192D01*
X85689440Y-55949993D01*
X85689440Y-54942000D01*
X85640157Y-54694235D01*
X85499809Y-54484191D01*
X85289765Y-54343843D01*
X85286622Y-54343218D01*
X85389157Y-54189765D01*
X85438440Y-53942000D01*
X85438440Y-52992000D01*
X85389157Y-52744235D01*
X85248809Y-52534191D01*
X85100445Y-52435057D01*
X85100445Y-51435000D01*
X85090778Y-51386399D01*
X85063248Y-51345197D01*
X85022046Y-51317667D01*
X84973445Y-51308000D01*
X80899000Y-51308000D01*
X80850399Y-51317667D01*
X80809197Y-51345197D01*
X80781667Y-51386399D01*
X80772000Y-51435000D01*
X80772000Y-53213000D01*
X77597000Y-53213000D01*
X77548399Y-53222667D01*
X77507197Y-53250197D01*
X77479667Y-53291399D01*
X77470000Y-53340000D01*
X77470000Y-58748394D01*
X76810845Y-59407550D01*
X76533137Y-59129842D01*
X76427167Y-59059035D01*
X76356360Y-58953065D01*
X75967452Y-58564157D01*
X75861483Y-58493351D01*
X75790675Y-58387379D01*
X75401767Y-57998471D01*
X75191723Y-57858123D01*
X74943958Y-57808840D01*
X74696193Y-57858123D01*
X74486149Y-57998471D01*
X73425489Y-59059131D01*
X73406000Y-59088298D01*
X73386511Y-59059131D01*
X72325851Y-57998471D01*
X72115807Y-57858123D01*
X71868042Y-57808840D01*
X71620277Y-57858123D01*
X71410233Y-57998471D01*
X71021325Y-58387379D01*
X70950517Y-58493351D01*
X70844548Y-58564157D01*
X70604132Y-58804573D01*
X69168458Y-57368899D01*
X69261000Y-57145483D01*
X69261000Y-56773517D01*
X69118655Y-56429865D01*
X69088118Y-56399328D01*
X69195506Y-56291940D01*
X69753500Y-56291940D01*
X70001265Y-56242657D01*
X70211309Y-56102309D01*
X70351657Y-55892265D01*
X70400940Y-55644500D01*
X70400940Y-54769500D01*
X70351657Y-54521735D01*
X70283345Y-54419500D01*
X70351657Y-54317265D01*
X70400940Y-54069500D01*
X70400940Y-53793849D01*
X71003529Y-53191260D01*
X70994608Y-53236111D01*
X70994608Y-54111111D01*
X71043891Y-54358876D01*
X71112203Y-54461111D01*
X71043891Y-54563346D01*
X70994608Y-54811111D01*
X70994608Y-55686111D01*
X71043891Y-55933876D01*
X71184239Y-56143920D01*
X71278017Y-56206581D01*
X71201000Y-56392517D01*
X71201000Y-56764483D01*
X71343345Y-57108135D01*
X71606365Y-57371155D01*
X71950017Y-57513500D01*
X72321983Y-57513500D01*
X72665635Y-57371155D01*
X72928655Y-57108135D01*
X73025000Y-56875537D01*
X73121345Y-57108135D01*
X73384365Y-57371155D01*
X73728017Y-57513500D01*
X74099983Y-57513500D01*
X74443635Y-57371155D01*
X74706655Y-57108135D01*
X74849000Y-56764483D01*
X74849000Y-56392517D01*
X74763766Y-56186744D01*
X74784119Y-56173145D01*
X74857301Y-56246327D01*
X75090690Y-56343000D01*
X75406250Y-56343000D01*
X75565000Y-56184250D01*
X75565000Y-55397500D01*
X75819000Y-55397500D01*
X75819000Y-56184250D01*
X75977750Y-56343000D01*
X76293310Y-56343000D01*
X76526699Y-56246327D01*
X76705327Y-56067698D01*
X76802000Y-55834309D01*
X76802000Y-55556250D01*
X76643250Y-55397500D01*
X75819000Y-55397500D01*
X75565000Y-55397500D01*
X75545000Y-55397500D01*
X75545000Y-55143500D01*
X75565000Y-55143500D01*
X75565000Y-55123500D01*
X75819000Y-55123500D01*
X75819000Y-55143500D01*
X76643250Y-55143500D01*
X76802000Y-54984750D01*
X76802000Y-54706691D01*
X76705327Y-54473302D01*
X76704127Y-54472102D01*
X76765157Y-54380765D01*
X76814440Y-54133000D01*
X76814440Y-53258000D01*
X76767489Y-53021958D01*
X77500538Y-52288909D01*
X77561905Y-52247905D01*
X77724354Y-52004783D01*
X77767000Y-51790388D01*
X77767000Y-51790385D01*
X77781398Y-51718001D01*
X77767000Y-51645617D01*
X77767000Y-51207440D01*
X77907000Y-51207440D01*
X78082000Y-51172631D01*
X78257000Y-51207440D01*
X78607000Y-51207440D01*
X78778411Y-51173345D01*
X78830691Y-51195000D01*
X78885750Y-51195000D01*
X79044500Y-51036250D01*
X79044500Y-51031379D01*
X79064809Y-51017809D01*
X79132000Y-50917251D01*
X79199191Y-51017809D01*
X79219500Y-51031379D01*
X79219500Y-51036250D01*
X79378250Y-51195000D01*
X79433309Y-51195000D01*
X79485589Y-51173345D01*
X79657000Y-51207440D01*
X80007000Y-51207440D01*
X80254765Y-51158157D01*
X80464809Y-51017809D01*
X80605157Y-50807765D01*
X80654440Y-50560000D01*
X80654440Y-50349250D01*
X81186000Y-50349250D01*
X81186000Y-50627309D01*
X81282673Y-50860698D01*
X81461301Y-51039327D01*
X81694690Y-51136000D01*
X82010250Y-51136000D01*
X82169000Y-50977250D01*
X82169000Y-50190500D01*
X82423000Y-50190500D01*
X82423000Y-50977250D01*
X82581750Y-51136000D01*
X82897310Y-51136000D01*
X83130699Y-51039327D01*
X83248500Y-50921525D01*
X83366301Y-51039327D01*
X83599690Y-51136000D01*
X83915250Y-51136000D01*
X84074000Y-50977250D01*
X84074000Y-50190500D01*
X84328000Y-50190500D01*
X84328000Y-50977250D01*
X84486750Y-51136000D01*
X84802310Y-51136000D01*
X85035699Y-51039327D01*
X85214327Y-50860698D01*
X85311000Y-50627309D01*
X85311000Y-50349250D01*
X85152250Y-50190500D01*
X84328000Y-50190500D01*
X84074000Y-50190500D01*
X83249750Y-50190500D01*
X83248500Y-50191750D01*
X83247250Y-50190500D01*
X82423000Y-50190500D01*
X82169000Y-50190500D01*
X81344750Y-50190500D01*
X81186000Y-50349250D01*
X80654440Y-50349250D01*
X80654440Y-48561387D01*
X81050090Y-48957037D01*
X81091095Y-49018405D01*
X81207398Y-49096116D01*
X81222843Y-49173765D01*
X81283873Y-49265102D01*
X81282673Y-49266302D01*
X81186000Y-49499691D01*
X81186000Y-49777750D01*
X81344750Y-49936500D01*
X82169000Y-49936500D01*
X82169000Y-49916500D01*
X82423000Y-49916500D01*
X82423000Y-49936500D01*
X83247250Y-49936500D01*
X83248500Y-49935250D01*
X83249750Y-49936500D01*
X84074000Y-49936500D01*
X84074000Y-49916500D01*
X84328000Y-49916500D01*
X84328000Y-49936500D01*
X85152250Y-49936500D01*
X85311000Y-49777750D01*
X85311000Y-49499691D01*
X85214327Y-49266302D01*
X85213127Y-49265102D01*
X85274157Y-49173765D01*
X85323440Y-48926000D01*
X85323440Y-48051000D01*
X85274157Y-47803235D01*
X85133809Y-47593191D01*
X84923765Y-47452843D01*
X84676000Y-47403560D01*
X84118006Y-47403560D01*
X83934411Y-47219965D01*
X83893405Y-47158595D01*
X83711324Y-47036932D01*
X84067316Y-46984469D01*
X84105780Y-46974138D01*
X84145221Y-46968642D01*
X84231722Y-46940313D01*
X84877379Y-46683589D01*
X84912428Y-46664691D01*
X84949553Y-46650266D01*
X85027217Y-46602797D01*
X85405439Y-46338125D01*
X86447000Y-46342159D01*
G36*
X54261917Y-46572056D02*
X54292921Y-46589254D01*
X54321308Y-46610490D01*
X54402695Y-46651246D01*
X55044262Y-46924236D01*
X55082467Y-46935480D01*
X55118988Y-46951360D01*
X55183392Y-46966585D01*
X55163100Y-46996953D01*
X54692993Y-47467060D01*
X54135000Y-47467060D01*
X53887235Y-47516343D01*
X53677191Y-47656691D01*
X53536843Y-47866735D01*
X53487560Y-48114500D01*
X53487560Y-48989500D01*
X53536843Y-49237265D01*
X53605155Y-49339500D01*
X53536843Y-49441735D01*
X53487560Y-49689500D01*
X53487560Y-50564500D01*
X53536843Y-50812265D01*
X53677191Y-51022309D01*
X53887235Y-51162657D01*
X54135000Y-51211940D01*
X55085000Y-51211940D01*
X55332765Y-51162657D01*
X55542809Y-51022309D01*
X55683157Y-50812265D01*
X55732440Y-50564500D01*
X55732440Y-50081506D01*
X55837060Y-49976887D01*
X55837060Y-50564500D01*
X55886343Y-50812265D01*
X56026691Y-51022309D01*
X56236735Y-51162657D01*
X56484500Y-51211940D01*
X57434500Y-51211940D01*
X57682265Y-51162657D01*
X57892309Y-51022309D01*
X58032657Y-50812265D01*
X58081940Y-50564500D01*
X58081940Y-50081507D01*
X58103037Y-50060410D01*
X58164405Y-50019405D01*
X58241912Y-49903407D01*
X58326854Y-49776283D01*
X58350863Y-49655581D01*
X58709560Y-49296884D01*
X58709560Y-50560000D01*
X58758843Y-50807765D01*
X58899191Y-51017809D01*
X59109235Y-51158157D01*
X59357000Y-51207440D01*
X59707000Y-51207440D01*
X59882000Y-51172631D01*
X60057000Y-51207440D01*
X60407000Y-51207440D01*
X60582000Y-51172631D01*
X60757000Y-51207440D01*
X61107000Y-51207440D01*
X61282000Y-51172631D01*
X61457000Y-51207440D01*
X61807000Y-51207440D01*
X61955261Y-51177949D01*
X61278470Y-51854741D01*
X61200404Y-51906903D01*
X61148242Y-51984969D01*
X61148241Y-51984970D01*
X60993750Y-52216182D01*
X60959981Y-52385949D01*
X60928191Y-52407191D01*
X60787843Y-52617235D01*
X60738560Y-52865000D01*
X60738560Y-53815000D01*
X60787843Y-54062765D01*
X60928191Y-54272809D01*
X60939500Y-54280366D01*
X60939500Y-55163415D01*
X60939501Y-57718839D01*
X60737000Y-57678560D01*
X59862000Y-57678560D01*
X59614235Y-57727843D01*
X59404191Y-57868191D01*
X59263843Y-58078235D01*
X59214560Y-58326000D01*
X59214560Y-59276000D01*
X59263843Y-59523765D01*
X59404191Y-59733809D01*
X59433660Y-59753500D01*
X59404191Y-59773191D01*
X59272018Y-59971000D01*
X59091982Y-59971000D01*
X58959809Y-59773191D01*
X58749765Y-59632843D01*
X58502000Y-59583560D01*
X57627000Y-59583560D01*
X57558590Y-59597167D01*
X57613000Y-59465810D01*
X57613000Y-59150250D01*
X57454250Y-58991500D01*
X56667500Y-58991500D01*
X56667500Y-59703750D01*
X56616500Y-59754750D01*
X56616500Y-60579000D01*
X56636500Y-60579000D01*
X56636500Y-60833000D01*
X56616500Y-60833000D01*
X56616500Y-60853000D01*
X56362500Y-60853000D01*
X56362500Y-60833000D01*
X55575750Y-60833000D01*
X55417000Y-60991750D01*
X55417000Y-61307310D01*
X55513673Y-61540699D01*
X55692302Y-61719327D01*
X55925691Y-61816000D01*
X56011041Y-61816000D01*
X55810735Y-61855843D01*
X55600691Y-61996191D01*
X55460343Y-62206235D01*
X55411060Y-62454000D01*
X55411060Y-63154000D01*
X55431717Y-63257853D01*
X55423500Y-63277691D01*
X55423500Y-63468250D01*
X55582250Y-63627000D01*
X55623426Y-63627000D01*
X55810735Y-63752157D01*
X55820000Y-63754000D01*
X55810735Y-63755843D01*
X55623426Y-63881000D01*
X55582250Y-63881000D01*
X55423500Y-64039750D01*
X55423500Y-64230309D01*
X55431717Y-64250147D01*
X55411060Y-64354000D01*
X55411060Y-65054000D01*
X55433068Y-65164642D01*
X55341345Y-65256365D01*
X55305411Y-65343118D01*
X55253250Y-65421182D01*
X55234933Y-65513266D01*
X55199000Y-65600017D01*
X55199000Y-65693914D01*
X55180683Y-65786000D01*
X55199000Y-65878086D01*
X55199000Y-65971983D01*
X55234933Y-66058734D01*
X55253250Y-66150818D01*
X55305411Y-66228881D01*
X55341345Y-66315635D01*
X55407745Y-66382035D01*
X55459904Y-66460096D01*
X55537965Y-66512255D01*
X55604365Y-66578655D01*
X55691119Y-66614589D01*
X55769182Y-66666750D01*
X55792829Y-66671454D01*
X55785560Y-66708000D01*
X55785560Y-67658000D01*
X55834843Y-67905765D01*
X55947143Y-68073832D01*
X55894673Y-68126301D01*
X55798000Y-68359690D01*
X55798000Y-68675250D01*
X55956750Y-68834000D01*
X56743500Y-68834000D01*
X56743500Y-68814000D01*
X56997500Y-68814000D01*
X56997500Y-68834000D01*
X57017500Y-68834000D01*
X57017500Y-69088000D01*
X56997500Y-69088000D01*
X56997500Y-69912250D01*
X57156250Y-70071000D01*
X57434309Y-70071000D01*
X57510500Y-70039440D01*
X57510501Y-70821000D01*
X56656081Y-70821000D01*
X56563999Y-70802684D01*
X56471917Y-70821000D01*
X56471914Y-70821000D01*
X56199181Y-70875250D01*
X55889903Y-71081903D01*
X55837739Y-71159972D01*
X55836981Y-71160730D01*
X55543699Y-71219068D01*
X55268769Y-71402769D01*
X55085068Y-71677699D01*
X55053000Y-71838914D01*
X55053000Y-69246750D01*
X55798000Y-69246750D01*
X55798000Y-69562310D01*
X55894673Y-69795699D01*
X56073302Y-69974327D01*
X56306691Y-70071000D01*
X56584750Y-70071000D01*
X56743500Y-69912250D01*
X56743500Y-69088000D01*
X55956750Y-69088000D01*
X55798000Y-69246750D01*
X55053000Y-69246750D01*
X55053000Y-59986940D01*
X55403000Y-59986940D01*
X55471410Y-59973333D01*
X55417000Y-60104690D01*
X55417000Y-60420250D01*
X55575750Y-60579000D01*
X56362500Y-60579000D01*
X56362500Y-59866750D01*
X56413500Y-59815750D01*
X56413500Y-58991500D01*
X56393500Y-58991500D01*
X56393500Y-58737500D01*
X56413500Y-58737500D01*
X56413500Y-58717500D01*
X56667500Y-58717500D01*
X56667500Y-58737500D01*
X57454250Y-58737500D01*
X57613000Y-58578750D01*
X57613000Y-58263190D01*
X57516327Y-58029801D01*
X57450026Y-57963500D01*
X58585810Y-57963500D01*
X58819199Y-57866827D01*
X58997827Y-57688198D01*
X59094500Y-57454809D01*
X59094500Y-56864250D01*
X58935750Y-56705500D01*
X57086500Y-56705500D01*
X57086500Y-56725500D01*
X56832500Y-56725500D01*
X56832500Y-56705500D01*
X56812500Y-56705500D01*
X56812500Y-56451500D01*
X56832500Y-56451500D01*
X56832500Y-56431500D01*
X57086500Y-56431500D01*
X57086500Y-56451500D01*
X58935750Y-56451500D01*
X59094500Y-56292750D01*
X59094500Y-55702191D01*
X58997827Y-55468802D01*
X58819199Y-55290173D01*
X58614529Y-55205396D01*
X58807474Y-55076474D01*
X59029111Y-54744771D01*
X59106940Y-54353500D01*
X59106940Y-53603500D01*
X59029111Y-53212229D01*
X58807474Y-52880526D01*
X58475771Y-52658889D01*
X58084500Y-52581060D01*
X55834500Y-52581060D01*
X55443229Y-52658889D01*
X55111526Y-52880526D01*
X55002630Y-53043500D01*
X54889085Y-53043500D01*
X54796999Y-53025183D01*
X54601376Y-53064095D01*
X54432181Y-53097750D01*
X54122903Y-53304403D01*
X54070741Y-53382470D01*
X53521972Y-53931239D01*
X53443903Y-53983403D01*
X53282203Y-54225405D01*
X53237250Y-54292682D01*
X53164683Y-54657500D01*
X53183000Y-54749586D01*
X53183000Y-54893389D01*
X53167000Y-54932017D01*
X53167000Y-55303983D01*
X53183000Y-55342611D01*
X53183001Y-58772409D01*
X53164683Y-58864500D01*
X53183000Y-58956586D01*
X53183001Y-60056411D01*
X53183000Y-60056415D01*
X53183001Y-72481131D01*
X53085068Y-72627699D01*
X53020560Y-72952000D01*
X53020560Y-73352000D01*
X53085068Y-73676301D01*
X53268769Y-73951231D01*
X53543699Y-74134932D01*
X53868000Y-74199440D01*
X54368000Y-74199440D01*
X54692301Y-74134932D01*
X54764037Y-74087000D01*
X55020560Y-74087000D01*
X55020560Y-74302000D01*
X55085068Y-74626301D01*
X55268769Y-74901231D01*
X55543699Y-75084932D01*
X55836980Y-75143270D01*
X56345741Y-75652031D01*
X56397903Y-75730097D01*
X56475969Y-75782259D01*
X56707181Y-75936750D01*
X57072000Y-76009317D01*
X57164086Y-75991000D01*
X57529885Y-75991000D01*
X57699235Y-76104157D01*
X57947000Y-76153440D01*
X57998376Y-76153440D01*
X57922898Y-76203873D01*
X57921698Y-76202673D01*
X57688309Y-76106000D01*
X57410250Y-76106000D01*
X57251500Y-76264750D01*
X57251500Y-77089000D01*
X57271500Y-77089000D01*
X57271500Y-77343000D01*
X57251500Y-77343000D01*
X57251500Y-78167250D01*
X57410250Y-78326000D01*
X57528168Y-78326000D01*
X57453843Y-78437235D01*
X57404560Y-78685000D01*
X57404560Y-81335000D01*
X57453843Y-81582765D01*
X57594191Y-81792809D01*
X57742000Y-81891573D01*
X57742000Y-81938427D01*
X57594191Y-82037191D01*
X57453843Y-82247235D01*
X57404560Y-82495000D01*
X57404560Y-85145000D01*
X57453843Y-85392765D01*
X57594191Y-85602809D01*
X57627402Y-85625000D01*
X56926598Y-85625000D01*
X56959809Y-85602809D01*
X57100157Y-85392765D01*
X57149440Y-85145000D01*
X57149440Y-82495000D01*
X57100157Y-82247235D01*
X56959809Y-82037191D01*
X56776939Y-81915000D01*
X56959809Y-81792809D01*
X57100157Y-81582765D01*
X57149440Y-81335000D01*
X57149440Y-78685000D01*
X57100157Y-78437235D01*
X56959809Y-78227191D01*
X56946471Y-78218279D01*
X56997500Y-78167250D01*
X56997500Y-77343000D01*
X56977500Y-77343000D01*
X56977500Y-77089000D01*
X56997500Y-77089000D01*
X56997500Y-76264750D01*
X56838750Y-76106000D01*
X56560691Y-76106000D01*
X56327302Y-76202673D01*
X56148673Y-76381301D01*
X56052000Y-76614690D01*
X56052000Y-76930250D01*
X56210748Y-77088998D01*
X56177032Y-77088998D01*
X56065983Y-77043000D01*
X55694017Y-77043000D01*
X55350365Y-77185345D01*
X55291000Y-77244710D01*
X55291000Y-76141017D01*
X55255067Y-76054267D01*
X55236750Y-75962181D01*
X55184588Y-75884115D01*
X55148655Y-75797365D01*
X55082259Y-75730969D01*
X55030097Y-75652903D01*
X54952031Y-75600741D01*
X54885635Y-75534345D01*
X54798885Y-75498412D01*
X54720819Y-75446250D01*
X54628733Y-75427933D01*
X54541983Y-75392000D01*
X54448086Y-75392000D01*
X54356000Y-75373683D01*
X54263914Y-75392000D01*
X54170017Y-75392000D01*
X54083266Y-75427933D01*
X53991182Y-75446250D01*
X53913118Y-75498411D01*
X53826365Y-75534345D01*
X53759967Y-75600743D01*
X53681904Y-75652903D01*
X53629744Y-75730966D01*
X53563345Y-75797365D01*
X53527410Y-75884119D01*
X53475251Y-75962181D01*
X53456935Y-76054262D01*
X53421000Y-76141017D01*
X53421000Y-76512983D01*
X53421001Y-76512985D01*
X53421000Y-81506914D01*
X53402683Y-81599000D01*
X53461928Y-81896843D01*
X53475250Y-81963818D01*
X53681903Y-82273097D01*
X53759972Y-82325261D01*
X54604560Y-83169850D01*
X54604560Y-85145000D01*
X54653843Y-85392765D01*
X54773900Y-85572442D01*
X54662082Y-85559405D01*
X54170056Y-85380809D01*
X53732311Y-85093810D01*
X53372330Y-84713807D01*
X53109424Y-84261180D01*
X52954780Y-83750584D01*
X52917000Y-83327269D01*
X52917000Y-46344999D01*
X53945546Y-46344998D01*
X54261917Y-46572056D01*
X54261917Y-46572056D01*
G37*
X54261917Y-46572056D02*
X54292921Y-46589254D01*
X54321308Y-46610490D01*
X54402695Y-46651246D01*
X55044262Y-46924236D01*
X55082467Y-46935480D01*
X55118988Y-46951360D01*
X55183392Y-46966585D01*
X55163100Y-46996953D01*
X54692993Y-47467060D01*
X54135000Y-47467060D01*
X53887235Y-47516343D01*
X53677191Y-47656691D01*
X53536843Y-47866735D01*
X53487560Y-48114500D01*
X53487560Y-48989500D01*
X53536843Y-49237265D01*
X53605155Y-49339500D01*
X53536843Y-49441735D01*
X53487560Y-49689500D01*
X53487560Y-50564500D01*
X53536843Y-50812265D01*
X53677191Y-51022309D01*
X53887235Y-51162657D01*
X54135000Y-51211940D01*
X55085000Y-51211940D01*
X55332765Y-51162657D01*
X55542809Y-51022309D01*
X55683157Y-50812265D01*
X55732440Y-50564500D01*
X55732440Y-50081506D01*
X55837060Y-49976887D01*
X55837060Y-50564500D01*
X55886343Y-50812265D01*
X56026691Y-51022309D01*
X56236735Y-51162657D01*
X56484500Y-51211940D01*
X57434500Y-51211940D01*
X57682265Y-51162657D01*
X57892309Y-51022309D01*
X58032657Y-50812265D01*
X58081940Y-50564500D01*
X58081940Y-50081507D01*
X58103037Y-50060410D01*
X58164405Y-50019405D01*
X58241912Y-49903407D01*
X58326854Y-49776283D01*
X58350863Y-49655581D01*
X58709560Y-49296884D01*
X58709560Y-50560000D01*
X58758843Y-50807765D01*
X58899191Y-51017809D01*
X59109235Y-51158157D01*
X59357000Y-51207440D01*
X59707000Y-51207440D01*
X59882000Y-51172631D01*
X60057000Y-51207440D01*
X60407000Y-51207440D01*
X60582000Y-51172631D01*
X60757000Y-51207440D01*
X61107000Y-51207440D01*
X61282000Y-51172631D01*
X61457000Y-51207440D01*
X61807000Y-51207440D01*
X61955261Y-51177949D01*
X61278470Y-51854741D01*
X61200404Y-51906903D01*
X61148242Y-51984969D01*
X61148241Y-51984970D01*
X60993750Y-52216182D01*
X60959981Y-52385949D01*
X60928191Y-52407191D01*
X60787843Y-52617235D01*
X60738560Y-52865000D01*
X60738560Y-53815000D01*
X60787843Y-54062765D01*
X60928191Y-54272809D01*
X60939500Y-54280366D01*
X60939500Y-55163415D01*
X60939501Y-57718839D01*
X60737000Y-57678560D01*
X59862000Y-57678560D01*
X59614235Y-57727843D01*
X59404191Y-57868191D01*
X59263843Y-58078235D01*
X59214560Y-58326000D01*
X59214560Y-59276000D01*
X59263843Y-59523765D01*
X59404191Y-59733809D01*
X59433660Y-59753500D01*
X59404191Y-59773191D01*
X59272018Y-59971000D01*
X59091982Y-59971000D01*
X58959809Y-59773191D01*
X58749765Y-59632843D01*
X58502000Y-59583560D01*
X57627000Y-59583560D01*
X57558590Y-59597167D01*
X57613000Y-59465810D01*
X57613000Y-59150250D01*
X57454250Y-58991500D01*
X56667500Y-58991500D01*
X56667500Y-59703750D01*
X56616500Y-59754750D01*
X56616500Y-60579000D01*
X56636500Y-60579000D01*
X56636500Y-60833000D01*
X56616500Y-60833000D01*
X56616500Y-60853000D01*
X56362500Y-60853000D01*
X56362500Y-60833000D01*
X55575750Y-60833000D01*
X55417000Y-60991750D01*
X55417000Y-61307310D01*
X55513673Y-61540699D01*
X55692302Y-61719327D01*
X55925691Y-61816000D01*
X56011041Y-61816000D01*
X55810735Y-61855843D01*
X55600691Y-61996191D01*
X55460343Y-62206235D01*
X55411060Y-62454000D01*
X55411060Y-63154000D01*
X55431717Y-63257853D01*
X55423500Y-63277691D01*
X55423500Y-63468250D01*
X55582250Y-63627000D01*
X55623426Y-63627000D01*
X55810735Y-63752157D01*
X55820000Y-63754000D01*
X55810735Y-63755843D01*
X55623426Y-63881000D01*
X55582250Y-63881000D01*
X55423500Y-64039750D01*
X55423500Y-64230309D01*
X55431717Y-64250147D01*
X55411060Y-64354000D01*
X55411060Y-65054000D01*
X55433068Y-65164642D01*
X55341345Y-65256365D01*
X55305411Y-65343118D01*
X55253250Y-65421182D01*
X55234933Y-65513266D01*
X55199000Y-65600017D01*
X55199000Y-65693914D01*
X55180683Y-65786000D01*
X55199000Y-65878086D01*
X55199000Y-65971983D01*
X55234933Y-66058734D01*
X55253250Y-66150818D01*
X55305411Y-66228881D01*
X55341345Y-66315635D01*
X55407745Y-66382035D01*
X55459904Y-66460096D01*
X55537965Y-66512255D01*
X55604365Y-66578655D01*
X55691119Y-66614589D01*
X55769182Y-66666750D01*
X55792829Y-66671454D01*
X55785560Y-66708000D01*
X55785560Y-67658000D01*
X55834843Y-67905765D01*
X55947143Y-68073832D01*
X55894673Y-68126301D01*
X55798000Y-68359690D01*
X55798000Y-68675250D01*
X55956750Y-68834000D01*
X56743500Y-68834000D01*
X56743500Y-68814000D01*
X56997500Y-68814000D01*
X56997500Y-68834000D01*
X57017500Y-68834000D01*
X57017500Y-69088000D01*
X56997500Y-69088000D01*
X56997500Y-69912250D01*
X57156250Y-70071000D01*
X57434309Y-70071000D01*
X57510500Y-70039440D01*
X57510501Y-70821000D01*
X56656081Y-70821000D01*
X56563999Y-70802684D01*
X56471917Y-70821000D01*
X56471914Y-70821000D01*
X56199181Y-70875250D01*
X55889903Y-71081903D01*
X55837739Y-71159972D01*
X55836981Y-71160730D01*
X55543699Y-71219068D01*
X55268769Y-71402769D01*
X55085068Y-71677699D01*
X55053000Y-71838914D01*
X55053000Y-69246750D01*
X55798000Y-69246750D01*
X55798000Y-69562310D01*
X55894673Y-69795699D01*
X56073302Y-69974327D01*
X56306691Y-70071000D01*
X56584750Y-70071000D01*
X56743500Y-69912250D01*
X56743500Y-69088000D01*
X55956750Y-69088000D01*
X55798000Y-69246750D01*
X55053000Y-69246750D01*
X55053000Y-59986940D01*
X55403000Y-59986940D01*
X55471410Y-59973333D01*
X55417000Y-60104690D01*
X55417000Y-60420250D01*
X55575750Y-60579000D01*
X56362500Y-60579000D01*
X56362500Y-59866750D01*
X56413500Y-59815750D01*
X56413500Y-58991500D01*
X56393500Y-58991500D01*
X56393500Y-58737500D01*
X56413500Y-58737500D01*
X56413500Y-58717500D01*
X56667500Y-58717500D01*
X56667500Y-58737500D01*
X57454250Y-58737500D01*
X57613000Y-58578750D01*
X57613000Y-58263190D01*
X57516327Y-58029801D01*
X57450026Y-57963500D01*
X58585810Y-57963500D01*
X58819199Y-57866827D01*
X58997827Y-57688198D01*
X59094500Y-57454809D01*
X59094500Y-56864250D01*
X58935750Y-56705500D01*
X57086500Y-56705500D01*
X57086500Y-56725500D01*
X56832500Y-56725500D01*
X56832500Y-56705500D01*
X56812500Y-56705500D01*
X56812500Y-56451500D01*
X56832500Y-56451500D01*
X56832500Y-56431500D01*
X57086500Y-56431500D01*
X57086500Y-56451500D01*
X58935750Y-56451500D01*
X59094500Y-56292750D01*
X59094500Y-55702191D01*
X58997827Y-55468802D01*
X58819199Y-55290173D01*
X58614529Y-55205396D01*
X58807474Y-55076474D01*
X59029111Y-54744771D01*
X59106940Y-54353500D01*
X59106940Y-53603500D01*
X59029111Y-53212229D01*
X58807474Y-52880526D01*
X58475771Y-52658889D01*
X58084500Y-52581060D01*
X55834500Y-52581060D01*
X55443229Y-52658889D01*
X55111526Y-52880526D01*
X55002630Y-53043500D01*
X54889085Y-53043500D01*
X54796999Y-53025183D01*
X54601376Y-53064095D01*
X54432181Y-53097750D01*
X54122903Y-53304403D01*
X54070741Y-53382470D01*
X53521972Y-53931239D01*
X53443903Y-53983403D01*
X53282203Y-54225405D01*
X53237250Y-54292682D01*
X53164683Y-54657500D01*
X53183000Y-54749586D01*
X53183000Y-54893389D01*
X53167000Y-54932017D01*
X53167000Y-55303983D01*
X53183000Y-55342611D01*
X53183001Y-58772409D01*
X53164683Y-58864500D01*
X53183000Y-58956586D01*
X53183001Y-60056411D01*
X53183000Y-60056415D01*
X53183001Y-72481131D01*
X53085068Y-72627699D01*
X53020560Y-72952000D01*
X53020560Y-73352000D01*
X53085068Y-73676301D01*
X53268769Y-73951231D01*
X53543699Y-74134932D01*
X53868000Y-74199440D01*
X54368000Y-74199440D01*
X54692301Y-74134932D01*
X54764037Y-74087000D01*
X55020560Y-74087000D01*
X55020560Y-74302000D01*
X55085068Y-74626301D01*
X55268769Y-74901231D01*
X55543699Y-75084932D01*
X55836980Y-75143270D01*
X56345741Y-75652031D01*
X56397903Y-75730097D01*
X56475969Y-75782259D01*
X56707181Y-75936750D01*
X57072000Y-76009317D01*
X57164086Y-75991000D01*
X57529885Y-75991000D01*
X57699235Y-76104157D01*
X57947000Y-76153440D01*
X57998376Y-76153440D01*
X57922898Y-76203873D01*
X57921698Y-76202673D01*
X57688309Y-76106000D01*
X57410250Y-76106000D01*
X57251500Y-76264750D01*
X57251500Y-77089000D01*
X57271500Y-77089000D01*
X57271500Y-77343000D01*
X57251500Y-77343000D01*
X57251500Y-78167250D01*
X57410250Y-78326000D01*
X57528168Y-78326000D01*
X57453843Y-78437235D01*
X57404560Y-78685000D01*
X57404560Y-81335000D01*
X57453843Y-81582765D01*
X57594191Y-81792809D01*
X57742000Y-81891573D01*
X57742000Y-81938427D01*
X57594191Y-82037191D01*
X57453843Y-82247235D01*
X57404560Y-82495000D01*
X57404560Y-85145000D01*
X57453843Y-85392765D01*
X57594191Y-85602809D01*
X57627402Y-85625000D01*
X56926598Y-85625000D01*
X56959809Y-85602809D01*
X57100157Y-85392765D01*
X57149440Y-85145000D01*
X57149440Y-82495000D01*
X57100157Y-82247235D01*
X56959809Y-82037191D01*
X56776939Y-81915000D01*
X56959809Y-81792809D01*
X57100157Y-81582765D01*
X57149440Y-81335000D01*
X57149440Y-78685000D01*
X57100157Y-78437235D01*
X56959809Y-78227191D01*
X56946471Y-78218279D01*
X56997500Y-78167250D01*
X56997500Y-77343000D01*
X56977500Y-77343000D01*
X56977500Y-77089000D01*
X56997500Y-77089000D01*
X56997500Y-76264750D01*
X56838750Y-76106000D01*
X56560691Y-76106000D01*
X56327302Y-76202673D01*
X56148673Y-76381301D01*
X56052000Y-76614690D01*
X56052000Y-76930250D01*
X56210748Y-77088998D01*
X56177032Y-77088998D01*
X56065983Y-77043000D01*
X55694017Y-77043000D01*
X55350365Y-77185345D01*
X55291000Y-77244710D01*
X55291000Y-76141017D01*
X55255067Y-76054267D01*
X55236750Y-75962181D01*
X55184588Y-75884115D01*
X55148655Y-75797365D01*
X55082259Y-75730969D01*
X55030097Y-75652903D01*
X54952031Y-75600741D01*
X54885635Y-75534345D01*
X54798885Y-75498412D01*
X54720819Y-75446250D01*
X54628733Y-75427933D01*
X54541983Y-75392000D01*
X54448086Y-75392000D01*
X54356000Y-75373683D01*
X54263914Y-75392000D01*
X54170017Y-75392000D01*
X54083266Y-75427933D01*
X53991182Y-75446250D01*
X53913118Y-75498411D01*
X53826365Y-75534345D01*
X53759967Y-75600743D01*
X53681904Y-75652903D01*
X53629744Y-75730966D01*
X53563345Y-75797365D01*
X53527410Y-75884119D01*
X53475251Y-75962181D01*
X53456935Y-76054262D01*
X53421000Y-76141017D01*
X53421000Y-76512983D01*
X53421001Y-76512985D01*
X53421000Y-81506914D01*
X53402683Y-81599000D01*
X53461928Y-81896843D01*
X53475250Y-81963818D01*
X53681903Y-82273097D01*
X53759972Y-82325261D01*
X54604560Y-83169850D01*
X54604560Y-85145000D01*
X54653843Y-85392765D01*
X54773900Y-85572442D01*
X54662082Y-85559405D01*
X54170056Y-85380809D01*
X53732311Y-85093810D01*
X53372330Y-84713807D01*
X53109424Y-84261180D01*
X52954780Y-83750584D01*
X52917000Y-83327269D01*
X52917000Y-46344999D01*
X53945546Y-46344998D01*
X54261917Y-46572056D01*
G36*
X65252600Y-76504900D02*
X65272600Y-76504900D01*
X65272600Y-76758900D01*
X65252600Y-76758900D01*
X65252600Y-77545650D01*
X65411350Y-77704400D01*
X65651413Y-77704400D01*
X65667250Y-77784018D01*
X65719411Y-77862081D01*
X65755345Y-77948835D01*
X65821745Y-78015235D01*
X65873904Y-78093296D01*
X65951965Y-78145455D01*
X66018365Y-78211855D01*
X66105119Y-78247789D01*
X66112999Y-78253055D01*
X66112999Y-78408815D01*
X66098601Y-78481199D01*
X66112999Y-78553583D01*
X66112999Y-78553587D01*
X66126588Y-78621900D01*
X66155645Y-78767981D01*
X66261375Y-78926217D01*
X66318095Y-79011104D01*
X66379462Y-79052108D01*
X67669231Y-80341877D01*
X67480854Y-80275188D01*
X66940556Y-80303551D01*
X66633452Y-80430757D01*
X66408309Y-80337500D01*
X66340750Y-80337500D01*
X66182000Y-80496250D01*
X66182000Y-80652664D01*
X66089809Y-80514691D01*
X65879765Y-80374343D01*
X65855208Y-80369458D01*
X65823250Y-80337500D01*
X65755691Y-80337500D01*
X65735853Y-80345717D01*
X65632000Y-80325060D01*
X65232000Y-80325060D01*
X65107000Y-80349924D01*
X64982000Y-80325060D01*
X64582000Y-80325060D01*
X64457000Y-80349924D01*
X64332000Y-80325060D01*
X64317000Y-80325060D01*
X64317000Y-79540732D01*
X64333357Y-79458499D01*
X64317000Y-79376266D01*
X64317000Y-79376263D01*
X64268552Y-79132699D01*
X64102440Y-78884095D01*
X64102440Y-78519000D01*
X64053157Y-78271235D01*
X63952500Y-78120592D01*
X63952500Y-78089408D01*
X64053157Y-77938765D01*
X64102440Y-77691000D01*
X64102440Y-77405359D01*
X64112273Y-77429098D01*
X64290901Y-77607727D01*
X64524290Y-77704400D01*
X64839850Y-77704400D01*
X64998600Y-77545650D01*
X64998600Y-76758900D01*
X64978600Y-76758900D01*
X64978600Y-76504900D01*
X64998600Y-76504900D01*
X64998600Y-76484900D01*
X65252600Y-76484900D01*
X65252600Y-76504900D01*
X65252600Y-76504900D01*
G37*
X65252600Y-76504900D02*
X65272600Y-76504900D01*
X65272600Y-76758900D01*
X65252600Y-76758900D01*
X65252600Y-77545650D01*
X65411350Y-77704400D01*
X65651413Y-77704400D01*
X65667250Y-77784018D01*
X65719411Y-77862081D01*
X65755345Y-77948835D01*
X65821745Y-78015235D01*
X65873904Y-78093296D01*
X65951965Y-78145455D01*
X66018365Y-78211855D01*
X66105119Y-78247789D01*
X66112999Y-78253055D01*
X66112999Y-78408815D01*
X66098601Y-78481199D01*
X66112999Y-78553583D01*
X66112999Y-78553587D01*
X66126588Y-78621900D01*
X66155645Y-78767981D01*
X66261375Y-78926217D01*
X66318095Y-79011104D01*
X66379462Y-79052108D01*
X67669231Y-80341877D01*
X67480854Y-80275188D01*
X66940556Y-80303551D01*
X66633452Y-80430757D01*
X66408309Y-80337500D01*
X66340750Y-80337500D01*
X66182000Y-80496250D01*
X66182000Y-80652664D01*
X66089809Y-80514691D01*
X65879765Y-80374343D01*
X65855208Y-80369458D01*
X65823250Y-80337500D01*
X65755691Y-80337500D01*
X65735853Y-80345717D01*
X65632000Y-80325060D01*
X65232000Y-80325060D01*
X65107000Y-80349924D01*
X64982000Y-80325060D01*
X64582000Y-80325060D01*
X64457000Y-80349924D01*
X64332000Y-80325060D01*
X64317000Y-80325060D01*
X64317000Y-79540732D01*
X64333357Y-79458499D01*
X64317000Y-79376266D01*
X64317000Y-79376263D01*
X64268552Y-79132699D01*
X64102440Y-78884095D01*
X64102440Y-78519000D01*
X64053157Y-78271235D01*
X63952500Y-78120592D01*
X63952500Y-78089408D01*
X64053157Y-77938765D01*
X64102440Y-77691000D01*
X64102440Y-77405359D01*
X64112273Y-77429098D01*
X64290901Y-77607727D01*
X64524290Y-77704400D01*
X64839850Y-77704400D01*
X64998600Y-77545650D01*
X64998600Y-76758900D01*
X64978600Y-76758900D01*
X64978600Y-76504900D01*
X64998600Y-76504900D01*
X64998600Y-76484900D01*
X65252600Y-76484900D01*
X65252600Y-76504900D01*
G36*
X73425489Y-73020869D02*
X74486149Y-74081529D01*
X74696193Y-74221877D01*
X74940090Y-74270391D01*
X74957001Y-74287301D01*
X74957001Y-74533209D01*
X74899345Y-74590865D01*
X74757000Y-74934517D01*
X74757000Y-75306483D01*
X74899345Y-75650135D01*
X74957001Y-75707791D01*
X74957000Y-78000553D01*
X74563463Y-78394091D01*
X74502096Y-78435095D01*
X74461092Y-78496462D01*
X74461091Y-78496463D01*
X74357467Y-78651548D01*
X74282000Y-78701973D01*
X74079765Y-78566843D01*
X73832000Y-78517560D01*
X73232000Y-78517560D01*
X72984235Y-78566843D01*
X72774191Y-78707191D01*
X72633843Y-78917235D01*
X72584560Y-79165000D01*
X72584560Y-80165000D01*
X72633843Y-80412765D01*
X72752062Y-80589691D01*
X72745954Y-80595800D01*
X70002047Y-80595800D01*
X68849847Y-79443600D01*
X69030750Y-79443600D01*
X69189500Y-79284850D01*
X69189500Y-78460600D01*
X68402750Y-78460600D01*
X68244000Y-78619350D01*
X68244000Y-78837754D01*
X67760446Y-78354200D01*
X67902383Y-78354200D01*
X68246035Y-78211855D01*
X68327020Y-78130870D01*
X68402750Y-78206600D01*
X69189500Y-78206600D01*
X69189500Y-78186600D01*
X69443500Y-78186600D01*
X69443500Y-78206600D01*
X69463500Y-78206600D01*
X69463500Y-78460600D01*
X69443500Y-78460600D01*
X69443500Y-79284850D01*
X69602250Y-79443600D01*
X69880309Y-79443600D01*
X70113698Y-79346927D01*
X70114898Y-79345727D01*
X70206235Y-79406757D01*
X70454000Y-79456040D01*
X71329000Y-79456040D01*
X71576765Y-79406757D01*
X71786809Y-79266409D01*
X71927157Y-79056365D01*
X71976440Y-78808600D01*
X71976440Y-77858600D01*
X71927157Y-77610835D01*
X71816081Y-77444600D01*
X71927157Y-77278365D01*
X71976440Y-77030600D01*
X71976440Y-76080600D01*
X71927157Y-75832835D01*
X71786809Y-75622791D01*
X71626500Y-75515675D01*
X71626500Y-74515800D01*
X71871910Y-74270391D01*
X72115807Y-74221877D01*
X72325851Y-74081529D01*
X73386511Y-73020869D01*
X73406000Y-72991702D01*
X73425489Y-73020869D01*
X73425489Y-73020869D01*
G37*
X73425489Y-73020869D02*
X74486149Y-74081529D01*
X74696193Y-74221877D01*
X74940090Y-74270391D01*
X74957001Y-74287301D01*
X74957001Y-74533209D01*
X74899345Y-74590865D01*
X74757000Y-74934517D01*
X74757000Y-75306483D01*
X74899345Y-75650135D01*
X74957001Y-75707791D01*
X74957000Y-78000553D01*
X74563463Y-78394091D01*
X74502096Y-78435095D01*
X74461092Y-78496462D01*
X74461091Y-78496463D01*
X74357467Y-78651548D01*
X74282000Y-78701973D01*
X74079765Y-78566843D01*
X73832000Y-78517560D01*
X73232000Y-78517560D01*
X72984235Y-78566843D01*
X72774191Y-78707191D01*
X72633843Y-78917235D01*
X72584560Y-79165000D01*
X72584560Y-80165000D01*
X72633843Y-80412765D01*
X72752062Y-80589691D01*
X72745954Y-80595800D01*
X70002047Y-80595800D01*
X68849847Y-79443600D01*
X69030750Y-79443600D01*
X69189500Y-79284850D01*
X69189500Y-78460600D01*
X68402750Y-78460600D01*
X68244000Y-78619350D01*
X68244000Y-78837754D01*
X67760446Y-78354200D01*
X67902383Y-78354200D01*
X68246035Y-78211855D01*
X68327020Y-78130870D01*
X68402750Y-78206600D01*
X69189500Y-78206600D01*
X69189500Y-78186600D01*
X69443500Y-78186600D01*
X69443500Y-78206600D01*
X69463500Y-78206600D01*
X69463500Y-78460600D01*
X69443500Y-78460600D01*
X69443500Y-79284850D01*
X69602250Y-79443600D01*
X69880309Y-79443600D01*
X70113698Y-79346927D01*
X70114898Y-79345727D01*
X70206235Y-79406757D01*
X70454000Y-79456040D01*
X71329000Y-79456040D01*
X71576765Y-79406757D01*
X71786809Y-79266409D01*
X71927157Y-79056365D01*
X71976440Y-78808600D01*
X71976440Y-77858600D01*
X71927157Y-77610835D01*
X71816081Y-77444600D01*
X71927157Y-77278365D01*
X71976440Y-77030600D01*
X71976440Y-76080600D01*
X71927157Y-75832835D01*
X71786809Y-75622791D01*
X71626500Y-75515675D01*
X71626500Y-74515800D01*
X71871910Y-74270391D01*
X72115807Y-74221877D01*
X72325851Y-74081529D01*
X73386511Y-73020869D01*
X73406000Y-72991702D01*
X73425489Y-73020869D01*
G36*
X62486560Y-72760000D02*
X62535843Y-73007765D01*
X62611000Y-73120245D01*
X62611000Y-73236250D01*
X62769750Y-73395000D01*
X62910309Y-73395000D01*
X62962589Y-73373345D01*
X63134000Y-73407440D01*
X63734000Y-73407440D01*
X63981765Y-73358157D01*
X64191809Y-73217809D01*
X64332157Y-73007765D01*
X64344642Y-72945000D01*
X64900874Y-72945000D01*
X64973258Y-72959398D01*
X65045642Y-72945000D01*
X65045646Y-72945000D01*
X65260041Y-72902354D01*
X65503163Y-72739905D01*
X65544169Y-72678535D01*
X65816201Y-72406503D01*
X65816200Y-73260514D01*
X65816200Y-73708314D01*
X65797883Y-73800400D01*
X65816200Y-73892486D01*
X65841541Y-74019886D01*
X65600600Y-73971960D01*
X64650600Y-73971960D01*
X64402835Y-74021243D01*
X64265746Y-74112844D01*
X64191809Y-74002191D01*
X63981765Y-73861843D01*
X63734000Y-73812560D01*
X63134000Y-73812560D01*
X62886235Y-73861843D01*
X62676191Y-74002191D01*
X62535843Y-74212235D01*
X62486560Y-74460000D01*
X62486560Y-74890271D01*
X62481440Y-74885151D01*
X62481440Y-74460000D01*
X62432157Y-74212235D01*
X62291809Y-74002191D01*
X62081765Y-73861843D01*
X61834000Y-73812560D01*
X61234000Y-73812560D01*
X60986235Y-73861843D01*
X60776191Y-74002191D01*
X60696805Y-74121000D01*
X59564115Y-74121000D01*
X59513231Y-74087000D01*
X59999914Y-74087000D01*
X60092000Y-74105317D01*
X60184086Y-74087000D01*
X60456819Y-74032750D01*
X60766097Y-73826097D01*
X60818261Y-73748028D01*
X61171318Y-73394972D01*
X61234000Y-73407440D01*
X61834000Y-73407440D01*
X62005411Y-73373345D01*
X62057691Y-73395000D01*
X62198250Y-73395000D01*
X62357000Y-73236250D01*
X62357000Y-73120245D01*
X62432157Y-73007765D01*
X62481440Y-72760000D01*
X62481440Y-72239546D01*
X62486560Y-72213806D01*
X62486560Y-72760000D01*
X62486560Y-72760000D01*
G37*
X62486560Y-72760000D02*
X62535843Y-73007765D01*
X62611000Y-73120245D01*
X62611000Y-73236250D01*
X62769750Y-73395000D01*
X62910309Y-73395000D01*
X62962589Y-73373345D01*
X63134000Y-73407440D01*
X63734000Y-73407440D01*
X63981765Y-73358157D01*
X64191809Y-73217809D01*
X64332157Y-73007765D01*
X64344642Y-72945000D01*
X64900874Y-72945000D01*
X64973258Y-72959398D01*
X65045642Y-72945000D01*
X65045646Y-72945000D01*
X65260041Y-72902354D01*
X65503163Y-72739905D01*
X65544169Y-72678535D01*
X65816201Y-72406503D01*
X65816200Y-73260514D01*
X65816200Y-73708314D01*
X65797883Y-73800400D01*
X65816200Y-73892486D01*
X65841541Y-74019886D01*
X65600600Y-73971960D01*
X64650600Y-73971960D01*
X64402835Y-74021243D01*
X64265746Y-74112844D01*
X64191809Y-74002191D01*
X63981765Y-73861843D01*
X63734000Y-73812560D01*
X63134000Y-73812560D01*
X62886235Y-73861843D01*
X62676191Y-74002191D01*
X62535843Y-74212235D01*
X62486560Y-74460000D01*
X62486560Y-74890271D01*
X62481440Y-74885151D01*
X62481440Y-74460000D01*
X62432157Y-74212235D01*
X62291809Y-74002191D01*
X62081765Y-73861843D01*
X61834000Y-73812560D01*
X61234000Y-73812560D01*
X60986235Y-73861843D01*
X60776191Y-74002191D01*
X60696805Y-74121000D01*
X59564115Y-74121000D01*
X59513231Y-74087000D01*
X59999914Y-74087000D01*
X60092000Y-74105317D01*
X60184086Y-74087000D01*
X60456819Y-74032750D01*
X60766097Y-73826097D01*
X60818261Y-73748028D01*
X61171318Y-73394972D01*
X61234000Y-73407440D01*
X61834000Y-73407440D01*
X62005411Y-73373345D01*
X62057691Y-73395000D01*
X62198250Y-73395000D01*
X62357000Y-73236250D01*
X62357000Y-73120245D01*
X62432157Y-73007765D01*
X62481440Y-72760000D01*
X62481440Y-72239546D01*
X62486560Y-72213806D01*
X62486560Y-72760000D01*
G36*
X68822595Y-72615205D02*
X68808452Y-72629347D01*
X69364768Y-73185663D01*
X69589275Y-73185663D01*
X69812409Y-72962529D01*
X69909082Y-72729140D01*
X69909082Y-72580377D01*
X70278863Y-72950158D01*
X70384833Y-73020965D01*
X70455640Y-73126935D01*
X70696056Y-73367351D01*
X70422963Y-73640445D01*
X70361596Y-73681449D01*
X70320592Y-73742816D01*
X70320591Y-73742817D01*
X70215260Y-73900456D01*
X70212009Y-73895591D01*
X70001965Y-73755243D01*
X69754200Y-73705960D01*
X69068978Y-73705960D01*
X69185163Y-73589775D01*
X69185163Y-73365268D01*
X68628847Y-72808952D01*
X68046014Y-73391785D01*
X68046014Y-73616291D01*
X68135683Y-73705960D01*
X67979049Y-73705960D01*
X67686200Y-73413111D01*
X67686200Y-73212180D01*
X67866409Y-73212180D01*
X68449242Y-72629347D01*
X68435100Y-72615205D01*
X68614705Y-72435600D01*
X68628847Y-72449742D01*
X68642990Y-72435600D01*
X68822595Y-72615205D01*
X68822595Y-72615205D01*
G37*
X68822595Y-72615205D02*
X68808452Y-72629347D01*
X69364768Y-73185663D01*
X69589275Y-73185663D01*
X69812409Y-72962529D01*
X69909082Y-72729140D01*
X69909082Y-72580377D01*
X70278863Y-72950158D01*
X70384833Y-73020965D01*
X70455640Y-73126935D01*
X70696056Y-73367351D01*
X70422963Y-73640445D01*
X70361596Y-73681449D01*
X70320592Y-73742816D01*
X70320591Y-73742817D01*
X70215260Y-73900456D01*
X70212009Y-73895591D01*
X70001965Y-73755243D01*
X69754200Y-73705960D01*
X69068978Y-73705960D01*
X69185163Y-73589775D01*
X69185163Y-73365268D01*
X68628847Y-72808952D01*
X68046014Y-73391785D01*
X68046014Y-73616291D01*
X68135683Y-73705960D01*
X67979049Y-73705960D01*
X67686200Y-73413111D01*
X67686200Y-73212180D01*
X67866409Y-73212180D01*
X68449242Y-72629347D01*
X68435100Y-72615205D01*
X68614705Y-72435600D01*
X68628847Y-72449742D01*
X68642990Y-72435600D01*
X68822595Y-72615205D01*
G36*
X66319065Y-68990360D02*
X66425035Y-69061167D01*
X66495842Y-69167137D01*
X66736258Y-69407553D01*
X64668812Y-71475000D01*
X64344642Y-71475000D01*
X64332157Y-71412235D01*
X64191809Y-71202191D01*
X63981765Y-71061843D01*
X63734000Y-71012560D01*
X63134000Y-71012560D01*
X62962589Y-71046655D01*
X62910309Y-71025000D01*
X62769750Y-71025000D01*
X62611000Y-71183750D01*
X62611000Y-71299755D01*
X62535843Y-71412235D01*
X62486560Y-71660000D01*
X62486560Y-72206194D01*
X62481440Y-72180454D01*
X62481440Y-71660000D01*
X62469000Y-71597459D01*
X62469000Y-70566789D01*
X62800530Y-70235259D01*
X62878597Y-70183097D01*
X63072623Y-69892716D01*
X63094235Y-69907157D01*
X63342000Y-69956440D01*
X64217000Y-69956440D01*
X64464765Y-69907157D01*
X64674809Y-69766809D01*
X64806982Y-69569000D01*
X64882762Y-69569000D01*
X64955146Y-69583398D01*
X65027530Y-69569000D01*
X65027534Y-69569000D01*
X65241929Y-69526354D01*
X65485051Y-69363905D01*
X65526057Y-69302535D01*
X66078649Y-68749944D01*
X66319065Y-68990360D01*
X66319065Y-68990360D01*
G37*
X66319065Y-68990360D02*
X66425035Y-69061167D01*
X66495842Y-69167137D01*
X66736258Y-69407553D01*
X64668812Y-71475000D01*
X64344642Y-71475000D01*
X64332157Y-71412235D01*
X64191809Y-71202191D01*
X63981765Y-71061843D01*
X63734000Y-71012560D01*
X63134000Y-71012560D01*
X62962589Y-71046655D01*
X62910309Y-71025000D01*
X62769750Y-71025000D01*
X62611000Y-71183750D01*
X62611000Y-71299755D01*
X62535843Y-71412235D01*
X62486560Y-71660000D01*
X62486560Y-72206194D01*
X62481440Y-72180454D01*
X62481440Y-71660000D01*
X62469000Y-71597459D01*
X62469000Y-70566789D01*
X62800530Y-70235259D01*
X62878597Y-70183097D01*
X63072623Y-69892716D01*
X63094235Y-69907157D01*
X63342000Y-69956440D01*
X64217000Y-69956440D01*
X64464765Y-69907157D01*
X64674809Y-69766809D01*
X64806982Y-69569000D01*
X64882762Y-69569000D01*
X64955146Y-69583398D01*
X65027530Y-69569000D01*
X65027534Y-69569000D01*
X65241929Y-69526354D01*
X65485051Y-69363905D01*
X65526057Y-69302535D01*
X66078649Y-68749944D01*
X66319065Y-68990360D01*
G36*
X72979001Y-67587281D02*
X72960683Y-67679371D01*
X73033250Y-68044189D01*
X73168620Y-68246784D01*
X73239904Y-68353468D01*
X73317970Y-68405630D01*
X75221540Y-70309200D01*
X75122545Y-70408195D01*
X75051739Y-70514164D01*
X74945767Y-70584972D01*
X74556859Y-70973880D01*
X74486052Y-71079850D01*
X74380082Y-71150657D01*
X73991174Y-71539565D01*
X73920366Y-71645537D01*
X73814397Y-71716343D01*
X73425489Y-72105251D01*
X73406000Y-72134418D01*
X73386511Y-72105251D01*
X72997603Y-71716343D01*
X72891634Y-71645537D01*
X72820826Y-71539565D01*
X72431918Y-71150657D01*
X72325948Y-71079850D01*
X72255141Y-70973880D01*
X71866233Y-70584972D01*
X71760261Y-70514164D01*
X71689455Y-70408195D01*
X71300547Y-70019287D01*
X71194578Y-69948481D01*
X71123770Y-69842509D01*
X70734862Y-69453601D01*
X70646820Y-69394773D01*
X70638603Y-69374935D01*
X70556890Y-69293222D01*
X70424114Y-69293222D01*
X70357038Y-69279880D01*
X72979001Y-66657918D01*
X72979001Y-67587281D01*
X72979001Y-67587281D01*
G37*
X72979001Y-67587281D02*
X72960683Y-67679371D01*
X73033250Y-68044189D01*
X73168620Y-68246784D01*
X73239904Y-68353468D01*
X73317970Y-68405630D01*
X75221540Y-70309200D01*
X75122545Y-70408195D01*
X75051739Y-70514164D01*
X74945767Y-70584972D01*
X74556859Y-70973880D01*
X74486052Y-71079850D01*
X74380082Y-71150657D01*
X73991174Y-71539565D01*
X73920366Y-71645537D01*
X73814397Y-71716343D01*
X73425489Y-72105251D01*
X73406000Y-72134418D01*
X73386511Y-72105251D01*
X72997603Y-71716343D01*
X72891634Y-71645537D01*
X72820826Y-71539565D01*
X72431918Y-71150657D01*
X72325948Y-71079850D01*
X72255141Y-70973880D01*
X71866233Y-70584972D01*
X71760261Y-70514164D01*
X71689455Y-70408195D01*
X71300547Y-70019287D01*
X71194578Y-69948481D01*
X71123770Y-69842509D01*
X70734862Y-69453601D01*
X70646820Y-69394773D01*
X70638603Y-69374935D01*
X70556890Y-69293222D01*
X70424114Y-69293222D01*
X70357038Y-69279880D01*
X72979001Y-66657918D01*
X72979001Y-67587281D01*
G36*
X66314560Y-53869349D02*
X66314560Y-54069500D01*
X66363843Y-54317265D01*
X66432155Y-54419500D01*
X66363843Y-54521735D01*
X66314560Y-54769500D01*
X66314560Y-55644500D01*
X66363843Y-55892265D01*
X66504191Y-56102309D01*
X66702000Y-56234482D01*
X66702000Y-56372210D01*
X66644345Y-56429865D01*
X66502000Y-56773517D01*
X66502000Y-57145483D01*
X66644345Y-57489135D01*
X66702000Y-57546790D01*
X66702000Y-57735874D01*
X66687602Y-57808258D01*
X66702000Y-57880642D01*
X66702000Y-57880646D01*
X66708486Y-57913250D01*
X66744646Y-58095040D01*
X66866091Y-58276795D01*
X66907096Y-58338163D01*
X66968463Y-58379167D01*
X67495449Y-58906153D01*
X67015183Y-58906153D01*
X66647139Y-58538109D01*
X66437095Y-58397761D01*
X66189330Y-58348478D01*
X66157799Y-58354750D01*
X66070655Y-58144365D01*
X65807635Y-57881345D01*
X65463983Y-57739000D01*
X65092017Y-57739000D01*
X64748365Y-57881345D01*
X64485345Y-58144365D01*
X64343000Y-58488017D01*
X64343000Y-58859983D01*
X64485345Y-59203635D01*
X64748365Y-59466655D01*
X64858451Y-59512254D01*
X64715938Y-59571285D01*
X64519320Y-59767903D01*
X64519320Y-59992409D01*
X65102153Y-60575242D01*
X65116296Y-60561100D01*
X65295901Y-60740705D01*
X65281758Y-60754847D01*
X66372153Y-61845242D01*
X66386296Y-61831100D01*
X66565901Y-62010705D01*
X66551758Y-62024847D01*
X66565901Y-62038990D01*
X66386296Y-62218595D01*
X66372153Y-62204452D01*
X66358011Y-62218595D01*
X66178406Y-62038990D01*
X66192548Y-62024847D01*
X65102153Y-60934452D01*
X64565285Y-61471320D01*
X64467591Y-61471320D01*
X63884758Y-62054153D01*
X63898901Y-62068296D01*
X63719296Y-62247901D01*
X63705153Y-62233758D01*
X63122320Y-62816591D01*
X63122320Y-63041097D01*
X63318938Y-63237715D01*
X63552327Y-63334388D01*
X63554024Y-63334388D01*
X63575455Y-63442129D01*
X63715803Y-63652173D01*
X64083848Y-64020218D01*
X64083847Y-65933560D01*
X63342000Y-65933560D01*
X63094235Y-65982843D01*
X63002898Y-66043873D01*
X63001698Y-66042673D01*
X62768309Y-65946000D01*
X62490250Y-65946000D01*
X62331500Y-66104750D01*
X62331500Y-66929000D01*
X62351500Y-66929000D01*
X62351500Y-67183000D01*
X62331500Y-67183000D01*
X62331500Y-67203000D01*
X62077500Y-67203000D01*
X62077500Y-67183000D01*
X61290750Y-67183000D01*
X61132000Y-67341750D01*
X61132000Y-67657310D01*
X61228673Y-67890699D01*
X61281143Y-67943168D01*
X61168843Y-68111235D01*
X61119560Y-68359000D01*
X61119560Y-69271651D01*
X60937972Y-69453239D01*
X60859903Y-69505403D01*
X60764405Y-69648327D01*
X60653250Y-69814682D01*
X60580683Y-70179500D01*
X60599000Y-70271586D01*
X60599001Y-71367911D01*
X60599000Y-71367915D01*
X60599000Y-71376143D01*
X60359903Y-71535903D01*
X60307741Y-71613970D01*
X59794440Y-72127271D01*
X59794440Y-71306000D01*
X59745157Y-71058235D01*
X59604809Y-70848191D01*
X59394765Y-70707843D01*
X59380500Y-70705006D01*
X59380500Y-69834408D01*
X59481157Y-69683765D01*
X59530440Y-69436000D01*
X59530440Y-68486000D01*
X59481157Y-68238235D01*
X59380500Y-68087592D01*
X59380500Y-68056408D01*
X59481157Y-67905765D01*
X59530440Y-67658000D01*
X59530440Y-66708000D01*
X59481157Y-66460235D01*
X59477452Y-66454690D01*
X61132000Y-66454690D01*
X61132000Y-66770250D01*
X61290750Y-66929000D01*
X62077500Y-66929000D01*
X62077500Y-66104750D01*
X61918750Y-65946000D01*
X61640691Y-65946000D01*
X61407302Y-66042673D01*
X61228673Y-66221301D01*
X61132000Y-66454690D01*
X59477452Y-66454690D01*
X59427224Y-66379519D01*
X59431597Y-66376597D01*
X59638250Y-66067319D01*
X59692500Y-65794586D01*
X59692500Y-65794585D01*
X59710817Y-65702500D01*
X59698186Y-65639000D01*
X59742555Y-65639000D01*
X59785191Y-65702809D01*
X59995235Y-65843157D01*
X60243000Y-65892440D01*
X61118000Y-65892440D01*
X61365765Y-65843157D01*
X61468000Y-65774845D01*
X61570235Y-65843157D01*
X61818000Y-65892440D01*
X62693000Y-65892440D01*
X62940765Y-65843157D01*
X63150809Y-65702809D01*
X63291157Y-65492765D01*
X63340440Y-65245000D01*
X63340440Y-64295000D01*
X63291157Y-64047235D01*
X63150809Y-63837191D01*
X62940765Y-63696843D01*
X62693000Y-63647560D01*
X62210006Y-63647560D01*
X61847911Y-63285465D01*
X61806905Y-63224095D01*
X61563783Y-63061646D01*
X61349388Y-63019000D01*
X61349384Y-63019000D01*
X61277000Y-63004602D01*
X61204616Y-63019000D01*
X59904940Y-63019000D01*
X59904940Y-62454000D01*
X59855657Y-62206235D01*
X59715309Y-61996191D01*
X59505265Y-61855843D01*
X59257500Y-61806560D01*
X58799500Y-61806560D01*
X58799500Y-61745925D01*
X58959809Y-61638809D01*
X59091982Y-61441000D01*
X59272018Y-61441000D01*
X59404191Y-61638809D01*
X59614235Y-61779157D01*
X59862000Y-61828440D01*
X60737000Y-61828440D01*
X60984765Y-61779157D01*
X61087000Y-61710845D01*
X61189235Y-61779157D01*
X61437000Y-61828440D01*
X62312000Y-61828440D01*
X62491898Y-61792656D01*
X62424918Y-61954360D01*
X62424918Y-62206979D01*
X62521591Y-62440368D01*
X62718209Y-62636986D01*
X62942715Y-62636986D01*
X63525548Y-62054153D01*
X62969232Y-61497837D01*
X62864004Y-61497837D01*
X62910157Y-61428765D01*
X62959440Y-61181000D01*
X62959440Y-61093725D01*
X63148837Y-61093725D01*
X63148837Y-61318232D01*
X63705153Y-61874548D01*
X64268538Y-61311163D01*
X64366232Y-61311163D01*
X64922548Y-60754847D01*
X64339715Y-60172014D01*
X64115209Y-60172014D01*
X63918591Y-60368632D01*
X63821918Y-60602021D01*
X63821918Y-60773918D01*
X63605360Y-60773918D01*
X63371971Y-60870591D01*
X63148837Y-61093725D01*
X62959440Y-61093725D01*
X62959440Y-60231000D01*
X62910157Y-59983235D01*
X62809500Y-59832592D01*
X62809500Y-59674408D01*
X62910157Y-59523765D01*
X62959440Y-59276000D01*
X62959440Y-58326000D01*
X62910157Y-58078235D01*
X62809500Y-57927592D01*
X62809500Y-54439566D01*
X62834691Y-54450000D01*
X63112750Y-54450000D01*
X63271500Y-54291250D01*
X63271500Y-53467000D01*
X63525500Y-53467000D01*
X63525500Y-54291250D01*
X63684250Y-54450000D01*
X63962309Y-54450000D01*
X64195698Y-54353327D01*
X64374327Y-54174699D01*
X64471000Y-53941310D01*
X64471000Y-53625750D01*
X64312250Y-53467000D01*
X63525500Y-53467000D01*
X63271500Y-53467000D01*
X63251500Y-53467000D01*
X63251500Y-53213000D01*
X63271500Y-53213000D01*
X63271500Y-53193000D01*
X63525500Y-53193000D01*
X63525500Y-53213000D01*
X64312250Y-53213000D01*
X64471000Y-53054250D01*
X64471000Y-52738690D01*
X64374327Y-52505301D01*
X64227525Y-52358500D01*
X64803711Y-52358500D01*
X66314560Y-53869349D01*
X66314560Y-53869349D01*
G37*
X66314560Y-53869349D02*
X66314560Y-54069500D01*
X66363843Y-54317265D01*
X66432155Y-54419500D01*
X66363843Y-54521735D01*
X66314560Y-54769500D01*
X66314560Y-55644500D01*
X66363843Y-55892265D01*
X66504191Y-56102309D01*
X66702000Y-56234482D01*
X66702000Y-56372210D01*
X66644345Y-56429865D01*
X66502000Y-56773517D01*
X66502000Y-57145483D01*
X66644345Y-57489135D01*
X66702000Y-57546790D01*
X66702000Y-57735874D01*
X66687602Y-57808258D01*
X66702000Y-57880642D01*
X66702000Y-57880646D01*
X66708486Y-57913250D01*
X66744646Y-58095040D01*
X66866091Y-58276795D01*
X66907096Y-58338163D01*
X66968463Y-58379167D01*
X67495449Y-58906153D01*
X67015183Y-58906153D01*
X66647139Y-58538109D01*
X66437095Y-58397761D01*
X66189330Y-58348478D01*
X66157799Y-58354750D01*
X66070655Y-58144365D01*
X65807635Y-57881345D01*
X65463983Y-57739000D01*
X65092017Y-57739000D01*
X64748365Y-57881345D01*
X64485345Y-58144365D01*
X64343000Y-58488017D01*
X64343000Y-58859983D01*
X64485345Y-59203635D01*
X64748365Y-59466655D01*
X64858451Y-59512254D01*
X64715938Y-59571285D01*
X64519320Y-59767903D01*
X64519320Y-59992409D01*
X65102153Y-60575242D01*
X65116296Y-60561100D01*
X65295901Y-60740705D01*
X65281758Y-60754847D01*
X66372153Y-61845242D01*
X66386296Y-61831100D01*
X66565901Y-62010705D01*
X66551758Y-62024847D01*
X66565901Y-62038990D01*
X66386296Y-62218595D01*
X66372153Y-62204452D01*
X66358011Y-62218595D01*
X66178406Y-62038990D01*
X66192548Y-62024847D01*
X65102153Y-60934452D01*
X64565285Y-61471320D01*
X64467591Y-61471320D01*
X63884758Y-62054153D01*
X63898901Y-62068296D01*
X63719296Y-62247901D01*
X63705153Y-62233758D01*
X63122320Y-62816591D01*
X63122320Y-63041097D01*
X63318938Y-63237715D01*
X63552327Y-63334388D01*
X63554024Y-63334388D01*
X63575455Y-63442129D01*
X63715803Y-63652173D01*
X64083848Y-64020218D01*
X64083847Y-65933560D01*
X63342000Y-65933560D01*
X63094235Y-65982843D01*
X63002898Y-66043873D01*
X63001698Y-66042673D01*
X62768309Y-65946000D01*
X62490250Y-65946000D01*
X62331500Y-66104750D01*
X62331500Y-66929000D01*
X62351500Y-66929000D01*
X62351500Y-67183000D01*
X62331500Y-67183000D01*
X62331500Y-67203000D01*
X62077500Y-67203000D01*
X62077500Y-67183000D01*
X61290750Y-67183000D01*
X61132000Y-67341750D01*
X61132000Y-67657310D01*
X61228673Y-67890699D01*
X61281143Y-67943168D01*
X61168843Y-68111235D01*
X61119560Y-68359000D01*
X61119560Y-69271651D01*
X60937972Y-69453239D01*
X60859903Y-69505403D01*
X60764405Y-69648327D01*
X60653250Y-69814682D01*
X60580683Y-70179500D01*
X60599000Y-70271586D01*
X60599001Y-71367911D01*
X60599000Y-71367915D01*
X60599000Y-71376143D01*
X60359903Y-71535903D01*
X60307741Y-71613970D01*
X59794440Y-72127271D01*
X59794440Y-71306000D01*
X59745157Y-71058235D01*
X59604809Y-70848191D01*
X59394765Y-70707843D01*
X59380500Y-70705006D01*
X59380500Y-69834408D01*
X59481157Y-69683765D01*
X59530440Y-69436000D01*
X59530440Y-68486000D01*
X59481157Y-68238235D01*
X59380500Y-68087592D01*
X59380500Y-68056408D01*
X59481157Y-67905765D01*
X59530440Y-67658000D01*
X59530440Y-66708000D01*
X59481157Y-66460235D01*
X59477452Y-66454690D01*
X61132000Y-66454690D01*
X61132000Y-66770250D01*
X61290750Y-66929000D01*
X62077500Y-66929000D01*
X62077500Y-66104750D01*
X61918750Y-65946000D01*
X61640691Y-65946000D01*
X61407302Y-66042673D01*
X61228673Y-66221301D01*
X61132000Y-66454690D01*
X59477452Y-66454690D01*
X59427224Y-66379519D01*
X59431597Y-66376597D01*
X59638250Y-66067319D01*
X59692500Y-65794586D01*
X59692500Y-65794585D01*
X59710817Y-65702500D01*
X59698186Y-65639000D01*
X59742555Y-65639000D01*
X59785191Y-65702809D01*
X59995235Y-65843157D01*
X60243000Y-65892440D01*
X61118000Y-65892440D01*
X61365765Y-65843157D01*
X61468000Y-65774845D01*
X61570235Y-65843157D01*
X61818000Y-65892440D01*
X62693000Y-65892440D01*
X62940765Y-65843157D01*
X63150809Y-65702809D01*
X63291157Y-65492765D01*
X63340440Y-65245000D01*
X63340440Y-64295000D01*
X63291157Y-64047235D01*
X63150809Y-63837191D01*
X62940765Y-63696843D01*
X62693000Y-63647560D01*
X62210006Y-63647560D01*
X61847911Y-63285465D01*
X61806905Y-63224095D01*
X61563783Y-63061646D01*
X61349388Y-63019000D01*
X61349384Y-63019000D01*
X61277000Y-63004602D01*
X61204616Y-63019000D01*
X59904940Y-63019000D01*
X59904940Y-62454000D01*
X59855657Y-62206235D01*
X59715309Y-61996191D01*
X59505265Y-61855843D01*
X59257500Y-61806560D01*
X58799500Y-61806560D01*
X58799500Y-61745925D01*
X58959809Y-61638809D01*
X59091982Y-61441000D01*
X59272018Y-61441000D01*
X59404191Y-61638809D01*
X59614235Y-61779157D01*
X59862000Y-61828440D01*
X60737000Y-61828440D01*
X60984765Y-61779157D01*
X61087000Y-61710845D01*
X61189235Y-61779157D01*
X61437000Y-61828440D01*
X62312000Y-61828440D01*
X62491898Y-61792656D01*
X62424918Y-61954360D01*
X62424918Y-62206979D01*
X62521591Y-62440368D01*
X62718209Y-62636986D01*
X62942715Y-62636986D01*
X63525548Y-62054153D01*
X62969232Y-61497837D01*
X62864004Y-61497837D01*
X62910157Y-61428765D01*
X62959440Y-61181000D01*
X62959440Y-61093725D01*
X63148837Y-61093725D01*
X63148837Y-61318232D01*
X63705153Y-61874548D01*
X64268538Y-61311163D01*
X64366232Y-61311163D01*
X64922548Y-60754847D01*
X64339715Y-60172014D01*
X64115209Y-60172014D01*
X63918591Y-60368632D01*
X63821918Y-60602021D01*
X63821918Y-60773918D01*
X63605360Y-60773918D01*
X63371971Y-60870591D01*
X63148837Y-61093725D01*
X62959440Y-61093725D01*
X62959440Y-60231000D01*
X62910157Y-59983235D01*
X62809500Y-59832592D01*
X62809500Y-59674408D01*
X62910157Y-59523765D01*
X62959440Y-59276000D01*
X62959440Y-58326000D01*
X62910157Y-58078235D01*
X62809500Y-57927592D01*
X62809500Y-54439566D01*
X62834691Y-54450000D01*
X63112750Y-54450000D01*
X63271500Y-54291250D01*
X63271500Y-53467000D01*
X63525500Y-53467000D01*
X63525500Y-54291250D01*
X63684250Y-54450000D01*
X63962309Y-54450000D01*
X64195698Y-54353327D01*
X64374327Y-54174699D01*
X64471000Y-53941310D01*
X64471000Y-53625750D01*
X64312250Y-53467000D01*
X63525500Y-53467000D01*
X63271500Y-53467000D01*
X63251500Y-53467000D01*
X63251500Y-53213000D01*
X63271500Y-53213000D01*
X63271500Y-53193000D01*
X63525500Y-53193000D01*
X63525500Y-53213000D01*
X64312250Y-53213000D01*
X64471000Y-53054250D01*
X64471000Y-52738690D01*
X64374327Y-52505301D01*
X64227525Y-52358500D01*
X64803711Y-52358500D01*
X66314560Y-53869349D01*
G36*
X77208509Y-63757770D02*
X77314481Y-63828578D01*
X77385287Y-63934547D01*
X77774195Y-64323455D01*
X77880164Y-64394261D01*
X77950972Y-64500233D01*
X78339880Y-64889141D01*
X78445850Y-64959948D01*
X78516657Y-65065918D01*
X78756629Y-65305890D01*
X78591365Y-65374345D01*
X78328345Y-65637365D01*
X78186000Y-65981017D01*
X78186000Y-66352983D01*
X78328345Y-66696635D01*
X78581225Y-66949515D01*
X78516657Y-67014082D01*
X78445850Y-67120052D01*
X78339880Y-67190859D01*
X77950972Y-67579767D01*
X77880164Y-67685739D01*
X77774195Y-67756545D01*
X77385287Y-68145453D01*
X77314481Y-68251422D01*
X77208509Y-68322230D01*
X76819601Y-68711138D01*
X76760773Y-68799180D01*
X76740935Y-68807397D01*
X76659222Y-68889110D01*
X76659222Y-69021886D01*
X76645880Y-69088961D01*
X74849000Y-67292082D01*
X74849000Y-65919289D01*
X77109514Y-63658775D01*
X77208509Y-63757770D01*
X77208509Y-63757770D01*
G37*
X77208509Y-63757770D02*
X77314481Y-63828578D01*
X77385287Y-63934547D01*
X77774195Y-64323455D01*
X77880164Y-64394261D01*
X77950972Y-64500233D01*
X78339880Y-64889141D01*
X78445850Y-64959948D01*
X78516657Y-65065918D01*
X78756629Y-65305890D01*
X78591365Y-65374345D01*
X78328345Y-65637365D01*
X78186000Y-65981017D01*
X78186000Y-66352983D01*
X78328345Y-66696635D01*
X78581225Y-66949515D01*
X78516657Y-67014082D01*
X78445850Y-67120052D01*
X78339880Y-67190859D01*
X77950972Y-67579767D01*
X77880164Y-67685739D01*
X77774195Y-67756545D01*
X77385287Y-68145453D01*
X77314481Y-68251422D01*
X77208509Y-68322230D01*
X76819601Y-68711138D01*
X76760773Y-68799180D01*
X76740935Y-68807397D01*
X76659222Y-68889110D01*
X76659222Y-69021886D01*
X76645880Y-69088961D01*
X74849000Y-67292082D01*
X74849000Y-65919289D01*
X77109514Y-63658775D01*
X77208509Y-63757770D01*
G36*
X73425489Y-59974749D02*
X73814397Y-60363657D01*
X73920366Y-60434463D01*
X73991174Y-60540435D01*
X74380082Y-60929343D01*
X74486052Y-61000150D01*
X74556859Y-61106120D01*
X74945767Y-61495028D01*
X75051739Y-61565836D01*
X75122545Y-61671805D01*
X75511453Y-62060713D01*
X75599493Y-62119540D01*
X75607711Y-62139380D01*
X75689424Y-62221093D01*
X75822206Y-62221093D01*
X75889276Y-62234434D01*
X73526711Y-64597000D01*
X72874714Y-64597000D01*
X72782628Y-64578683D01*
X72494658Y-64635964D01*
X72417810Y-64651250D01*
X72108532Y-64857903D01*
X72056370Y-64935969D01*
X69136800Y-67855540D01*
X69037805Y-67756545D01*
X68931836Y-67685739D01*
X68861028Y-67579767D01*
X68472120Y-67190859D01*
X68366150Y-67120052D01*
X68295343Y-67014082D01*
X67906435Y-66625174D01*
X67800463Y-66554366D01*
X67729657Y-66448397D01*
X67340749Y-66059489D01*
X67311582Y-66040000D01*
X67340749Y-66020511D01*
X67729657Y-65631603D01*
X67800463Y-65525634D01*
X67906435Y-65454826D01*
X68295343Y-65065918D01*
X68366150Y-64959948D01*
X68472120Y-64889141D01*
X68861028Y-64500233D01*
X68931836Y-64394261D01*
X69037805Y-64323455D01*
X69426713Y-63934547D01*
X69497519Y-63828578D01*
X69603491Y-63757770D01*
X69992399Y-63368862D01*
X70051227Y-63280820D01*
X70071065Y-63272603D01*
X70152778Y-63190890D01*
X70152778Y-63058114D01*
X70182030Y-62911053D01*
X70158436Y-62792436D01*
X70277053Y-62816030D01*
X70424114Y-62786778D01*
X70556890Y-62786778D01*
X70638603Y-62705065D01*
X70646820Y-62685227D01*
X70734862Y-62626399D01*
X71123770Y-62237491D01*
X71194578Y-62131519D01*
X71300547Y-62060713D01*
X71689455Y-61671805D01*
X71760261Y-61565836D01*
X71866233Y-61495028D01*
X72255141Y-61106120D01*
X72325948Y-61000150D01*
X72431918Y-60929343D01*
X72820826Y-60540435D01*
X72891634Y-60434463D01*
X72997603Y-60363657D01*
X73386511Y-59974749D01*
X73406000Y-59945582D01*
X73425489Y-59974749D01*
X73425489Y-59974749D01*
G37*
X73425489Y-59974749D02*
X73814397Y-60363657D01*
X73920366Y-60434463D01*
X73991174Y-60540435D01*
X74380082Y-60929343D01*
X74486052Y-61000150D01*
X74556859Y-61106120D01*
X74945767Y-61495028D01*
X75051739Y-61565836D01*
X75122545Y-61671805D01*
X75511453Y-62060713D01*
X75599493Y-62119540D01*
X75607711Y-62139380D01*
X75689424Y-62221093D01*
X75822206Y-62221093D01*
X75889276Y-62234434D01*
X73526711Y-64597000D01*
X72874714Y-64597000D01*
X72782628Y-64578683D01*
X72494658Y-64635964D01*
X72417810Y-64651250D01*
X72108532Y-64857903D01*
X72056370Y-64935969D01*
X69136800Y-67855540D01*
X69037805Y-67756545D01*
X68931836Y-67685739D01*
X68861028Y-67579767D01*
X68472120Y-67190859D01*
X68366150Y-67120052D01*
X68295343Y-67014082D01*
X67906435Y-66625174D01*
X67800463Y-66554366D01*
X67729657Y-66448397D01*
X67340749Y-66059489D01*
X67311582Y-66040000D01*
X67340749Y-66020511D01*
X67729657Y-65631603D01*
X67800463Y-65525634D01*
X67906435Y-65454826D01*
X68295343Y-65065918D01*
X68366150Y-64959948D01*
X68472120Y-64889141D01*
X68861028Y-64500233D01*
X68931836Y-64394261D01*
X69037805Y-64323455D01*
X69426713Y-63934547D01*
X69497519Y-63828578D01*
X69603491Y-63757770D01*
X69992399Y-63368862D01*
X70051227Y-63280820D01*
X70071065Y-63272603D01*
X70152778Y-63190890D01*
X70152778Y-63058114D01*
X70182030Y-62911053D01*
X70158436Y-62792436D01*
X70277053Y-62816030D01*
X70424114Y-62786778D01*
X70556890Y-62786778D01*
X70638603Y-62705065D01*
X70646820Y-62685227D01*
X70734862Y-62626399D01*
X71123770Y-62237491D01*
X71194578Y-62131519D01*
X71300547Y-62060713D01*
X71689455Y-61671805D01*
X71760261Y-61565836D01*
X71866233Y-61495028D01*
X72255141Y-61106120D01*
X72325948Y-61000150D01*
X72431918Y-60929343D01*
X72820826Y-60540435D01*
X72891634Y-60434463D01*
X72997603Y-60363657D01*
X73386511Y-59974749D01*
X73406000Y-59945582D01*
X73425489Y-59974749D01*
G36*
X83046595Y-64423705D02*
X83032452Y-64437847D01*
X83046595Y-64451990D01*
X82866990Y-64631595D01*
X82852847Y-64617452D01*
X82270014Y-65200285D01*
X82270014Y-65424791D01*
X82466632Y-65621409D01*
X82700021Y-65718082D01*
X82952640Y-65718082D01*
X83186029Y-65621409D01*
X83409163Y-65398275D01*
X83409163Y-65173771D01*
X83521415Y-65286023D01*
X83527278Y-65280160D01*
X83535345Y-65299635D01*
X83554133Y-65318423D01*
X81569646Y-67302909D01*
X81447529Y-67120149D01*
X80386869Y-66059489D01*
X80357702Y-66040000D01*
X80386869Y-66020511D01*
X81447529Y-64959851D01*
X81587877Y-64749807D01*
X81604309Y-64667196D01*
X81669285Y-64824062D01*
X81865903Y-65020680D01*
X82090409Y-65020680D01*
X82673242Y-64437847D01*
X82659100Y-64423705D01*
X82838705Y-64244100D01*
X82852847Y-64258242D01*
X82866990Y-64244100D01*
X83046595Y-64423705D01*
X83046595Y-64423705D01*
G37*
X83046595Y-64423705D02*
X83032452Y-64437847D01*
X83046595Y-64451990D01*
X82866990Y-64631595D01*
X82852847Y-64617452D01*
X82270014Y-65200285D01*
X82270014Y-65424791D01*
X82466632Y-65621409D01*
X82700021Y-65718082D01*
X82952640Y-65718082D01*
X83186029Y-65621409D01*
X83409163Y-65398275D01*
X83409163Y-65173771D01*
X83521415Y-65286023D01*
X83527278Y-65280160D01*
X83535345Y-65299635D01*
X83554133Y-65318423D01*
X81569646Y-67302909D01*
X81447529Y-67120149D01*
X80386869Y-66059489D01*
X80357702Y-66040000D01*
X80386869Y-66020511D01*
X81447529Y-64959851D01*
X81587877Y-64749807D01*
X81604309Y-64667196D01*
X81669285Y-64824062D01*
X81865903Y-65020680D01*
X82090409Y-65020680D01*
X82673242Y-64437847D01*
X82659100Y-64423705D01*
X82838705Y-64244100D01*
X82852847Y-64258242D01*
X82866990Y-64244100D01*
X83046595Y-64423705D01*
G36*
X81670790Y-59137236D02*
X81630060Y-59342000D01*
X81630060Y-60292000D01*
X81679343Y-60539765D01*
X81819691Y-60749809D01*
X82029735Y-60890157D01*
X82277500Y-60939440D01*
X82595325Y-60939440D01*
X82577861Y-60951109D01*
X81906109Y-61622861D01*
X81765761Y-61832905D01*
X81757753Y-61873164D01*
X81686909Y-61702132D01*
X81490291Y-61505514D01*
X81265785Y-61505514D01*
X80682952Y-62088347D01*
X80697095Y-62102490D01*
X80517490Y-62282095D01*
X80503347Y-62267952D01*
X80489205Y-62282095D01*
X80309600Y-62102490D01*
X80323742Y-62088347D01*
X80309600Y-62074205D01*
X80489205Y-61894600D01*
X80503347Y-61908742D01*
X81086180Y-61325909D01*
X81086180Y-61101403D01*
X80889562Y-60904785D01*
X80792647Y-60864642D01*
X80920633Y-60736656D01*
X80920635Y-60736655D01*
X81183655Y-60473635D01*
X81219589Y-60386882D01*
X81271750Y-60308818D01*
X81290067Y-60216734D01*
X81326000Y-60129983D01*
X81326000Y-60036086D01*
X81344317Y-59944000D01*
X81326000Y-59851914D01*
X81326000Y-59758017D01*
X81290067Y-59671266D01*
X81271750Y-59579182D01*
X81219589Y-59501117D01*
X81183655Y-59414365D01*
X81117259Y-59347969D01*
X81065097Y-59269903D01*
X80987031Y-59217741D01*
X80939363Y-59170073D01*
X81089765Y-59140157D01*
X81299809Y-58999809D01*
X81393358Y-58859804D01*
X81670790Y-59137236D01*
X81670790Y-59137236D01*
G37*
X81670790Y-59137236D02*
X81630060Y-59342000D01*
X81630060Y-60292000D01*
X81679343Y-60539765D01*
X81819691Y-60749809D01*
X82029735Y-60890157D01*
X82277500Y-60939440D01*
X82595325Y-60939440D01*
X82577861Y-60951109D01*
X81906109Y-61622861D01*
X81765761Y-61832905D01*
X81757753Y-61873164D01*
X81686909Y-61702132D01*
X81490291Y-61505514D01*
X81265785Y-61505514D01*
X80682952Y-62088347D01*
X80697095Y-62102490D01*
X80517490Y-62282095D01*
X80503347Y-62267952D01*
X80489205Y-62282095D01*
X80309600Y-62102490D01*
X80323742Y-62088347D01*
X80309600Y-62074205D01*
X80489205Y-61894600D01*
X80503347Y-61908742D01*
X81086180Y-61325909D01*
X81086180Y-61101403D01*
X80889562Y-60904785D01*
X80792647Y-60864642D01*
X80920633Y-60736656D01*
X80920635Y-60736655D01*
X81183655Y-60473635D01*
X81219589Y-60386882D01*
X81271750Y-60308818D01*
X81290067Y-60216734D01*
X81326000Y-60129983D01*
X81326000Y-60036086D01*
X81344317Y-59944000D01*
X81326000Y-59851914D01*
X81326000Y-59758017D01*
X81290067Y-59671266D01*
X81271750Y-59579182D01*
X81219589Y-59501117D01*
X81183655Y-59414365D01*
X81117259Y-59347969D01*
X81065097Y-59269903D01*
X80987031Y-59217741D01*
X80939363Y-59170073D01*
X81089765Y-59140157D01*
X81299809Y-58999809D01*
X81393358Y-58859804D01*
X81670790Y-59137236D01*
G36*
X84582000Y-52344560D02*
X83916000Y-52344560D01*
X83668235Y-52393843D01*
X83576898Y-52454873D01*
X83575698Y-52453673D01*
X83342309Y-52357000D01*
X83064250Y-52357000D01*
X82905500Y-52515750D01*
X82905500Y-53340000D01*
X82925500Y-53340000D01*
X82925500Y-53594000D01*
X82905500Y-53594000D01*
X82905500Y-54418250D01*
X82979084Y-54491834D01*
X82843843Y-54694235D01*
X82794560Y-54942000D01*
X82794560Y-56342000D01*
X82843843Y-56589765D01*
X82944927Y-56741047D01*
X82903673Y-56782301D01*
X82807000Y-57015690D01*
X82807000Y-57556250D01*
X82965750Y-57715000D01*
X84115000Y-57715000D01*
X84115000Y-57695000D01*
X84369000Y-57695000D01*
X84369000Y-57715000D01*
X84389000Y-57715000D01*
X84389000Y-57969000D01*
X84369000Y-57969000D01*
X84369000Y-59018250D01*
X84417000Y-59066250D01*
X84417000Y-59690000D01*
X84437000Y-59690000D01*
X84437000Y-59944000D01*
X84417000Y-59944000D01*
X84417000Y-59964000D01*
X84163000Y-59964000D01*
X84163000Y-59944000D01*
X84143000Y-59944000D01*
X84143000Y-59690000D01*
X84163000Y-59690000D01*
X84163000Y-58865750D01*
X84115000Y-58817750D01*
X84115000Y-57969000D01*
X82965750Y-57969000D01*
X82807000Y-58127750D01*
X82807000Y-58194553D01*
X81985911Y-57373465D01*
X81944905Y-57312095D01*
X81701783Y-57149646D01*
X81487388Y-57107000D01*
X81487384Y-57107000D01*
X81482276Y-57105984D01*
X81440157Y-56894235D01*
X81339073Y-56742953D01*
X81380327Y-56701699D01*
X81477000Y-56468310D01*
X81477000Y-55927750D01*
X81318250Y-55769000D01*
X80169000Y-55769000D01*
X80169000Y-55789000D01*
X79915000Y-55789000D01*
X79915000Y-55769000D01*
X78765750Y-55769000D01*
X78607000Y-55927750D01*
X78607000Y-56468310D01*
X78703673Y-56701699D01*
X78744927Y-56742953D01*
X78643843Y-56894235D01*
X78594560Y-57142000D01*
X78594560Y-58542000D01*
X78643843Y-58789765D01*
X78784191Y-58999809D01*
X78994235Y-59140157D01*
X79242000Y-59189440D01*
X79248000Y-59189440D01*
X79248000Y-59715429D01*
X79168405Y-59731261D01*
X78958361Y-59871609D01*
X78790317Y-60039653D01*
X78563433Y-60039653D01*
X78471347Y-60021336D01*
X78379261Y-60039653D01*
X78106528Y-60093903D01*
X77797250Y-60300556D01*
X77745088Y-60378622D01*
X77661452Y-60462258D01*
X77648110Y-60395183D01*
X77648110Y-60262407D01*
X77566397Y-60180694D01*
X77546559Y-60172477D01*
X77487731Y-60084435D01*
X77244451Y-59841155D01*
X77940803Y-59144803D01*
X77968333Y-59103601D01*
X77978000Y-59055000D01*
X77977268Y-59051322D01*
X77978000Y-59047644D01*
X77978000Y-54815690D01*
X78607000Y-54815690D01*
X78607000Y-55356250D01*
X78765750Y-55515000D01*
X79915000Y-55515000D01*
X79915000Y-54465750D01*
X80169000Y-54465750D01*
X80169000Y-55515000D01*
X81318250Y-55515000D01*
X81477000Y-55356250D01*
X81477000Y-54815690D01*
X81380327Y-54582301D01*
X81201698Y-54403673D01*
X80968309Y-54307000D01*
X80327750Y-54307000D01*
X80169000Y-54465750D01*
X79915000Y-54465750D01*
X79756250Y-54307000D01*
X79115691Y-54307000D01*
X78882302Y-54403673D01*
X78703673Y-54582301D01*
X78607000Y-54815690D01*
X77978000Y-54815690D01*
X77978000Y-53752750D01*
X81706000Y-53752750D01*
X81706000Y-54068310D01*
X81802673Y-54301699D01*
X81981302Y-54480327D01*
X82214691Y-54577000D01*
X82492750Y-54577000D01*
X82651500Y-54418250D01*
X82651500Y-53594000D01*
X81864750Y-53594000D01*
X81706000Y-53752750D01*
X77978000Y-53752750D01*
X77978000Y-53721000D01*
X81153000Y-53721000D01*
X81201601Y-53711333D01*
X81242803Y-53683803D01*
X81270333Y-53642601D01*
X81280000Y-53594000D01*
X81280000Y-52865690D01*
X81706000Y-52865690D01*
X81706000Y-53181250D01*
X81864750Y-53340000D01*
X82651500Y-53340000D01*
X82651500Y-52515750D01*
X82492750Y-52357000D01*
X82214691Y-52357000D01*
X81981302Y-52453673D01*
X81802673Y-52632301D01*
X81706000Y-52865690D01*
X81280000Y-52865690D01*
X81280000Y-51816000D01*
X84582000Y-51816000D01*
X84582000Y-52344560D01*
X84582000Y-52344560D01*
G37*
X84582000Y-52344560D02*
X83916000Y-52344560D01*
X83668235Y-52393843D01*
X83576898Y-52454873D01*
X83575698Y-52453673D01*
X83342309Y-52357000D01*
X83064250Y-52357000D01*
X82905500Y-52515750D01*
X82905500Y-53340000D01*
X82925500Y-53340000D01*
X82925500Y-53594000D01*
X82905500Y-53594000D01*
X82905500Y-54418250D01*
X82979084Y-54491834D01*
X82843843Y-54694235D01*
X82794560Y-54942000D01*
X82794560Y-56342000D01*
X82843843Y-56589765D01*
X82944927Y-56741047D01*
X82903673Y-56782301D01*
X82807000Y-57015690D01*
X82807000Y-57556250D01*
X82965750Y-57715000D01*
X84115000Y-57715000D01*
X84115000Y-57695000D01*
X84369000Y-57695000D01*
X84369000Y-57715000D01*
X84389000Y-57715000D01*
X84389000Y-57969000D01*
X84369000Y-57969000D01*
X84369000Y-59018250D01*
X84417000Y-59066250D01*
X84417000Y-59690000D01*
X84437000Y-59690000D01*
X84437000Y-59944000D01*
X84417000Y-59944000D01*
X84417000Y-59964000D01*
X84163000Y-59964000D01*
X84163000Y-59944000D01*
X84143000Y-59944000D01*
X84143000Y-59690000D01*
X84163000Y-59690000D01*
X84163000Y-58865750D01*
X84115000Y-58817750D01*
X84115000Y-57969000D01*
X82965750Y-57969000D01*
X82807000Y-58127750D01*
X82807000Y-58194553D01*
X81985911Y-57373465D01*
X81944905Y-57312095D01*
X81701783Y-57149646D01*
X81487388Y-57107000D01*
X81487384Y-57107000D01*
X81482276Y-57105984D01*
X81440157Y-56894235D01*
X81339073Y-56742953D01*
X81380327Y-56701699D01*
X81477000Y-56468310D01*
X81477000Y-55927750D01*
X81318250Y-55769000D01*
X80169000Y-55769000D01*
X80169000Y-55789000D01*
X79915000Y-55789000D01*
X79915000Y-55769000D01*
X78765750Y-55769000D01*
X78607000Y-55927750D01*
X78607000Y-56468310D01*
X78703673Y-56701699D01*
X78744927Y-56742953D01*
X78643843Y-56894235D01*
X78594560Y-57142000D01*
X78594560Y-58542000D01*
X78643843Y-58789765D01*
X78784191Y-58999809D01*
X78994235Y-59140157D01*
X79242000Y-59189440D01*
X79248000Y-59189440D01*
X79248000Y-59715429D01*
X79168405Y-59731261D01*
X78958361Y-59871609D01*
X78790317Y-60039653D01*
X78563433Y-60039653D01*
X78471347Y-60021336D01*
X78379261Y-60039653D01*
X78106528Y-60093903D01*
X77797250Y-60300556D01*
X77745088Y-60378622D01*
X77661452Y-60462258D01*
X77648110Y-60395183D01*
X77648110Y-60262407D01*
X77566397Y-60180694D01*
X77546559Y-60172477D01*
X77487731Y-60084435D01*
X77244451Y-59841155D01*
X77940803Y-59144803D01*
X77968333Y-59103601D01*
X77978000Y-59055000D01*
X77977268Y-59051322D01*
X77978000Y-59047644D01*
X77978000Y-54815690D01*
X78607000Y-54815690D01*
X78607000Y-55356250D01*
X78765750Y-55515000D01*
X79915000Y-55515000D01*
X79915000Y-54465750D01*
X80169000Y-54465750D01*
X80169000Y-55515000D01*
X81318250Y-55515000D01*
X81477000Y-55356250D01*
X81477000Y-54815690D01*
X81380327Y-54582301D01*
X81201698Y-54403673D01*
X80968309Y-54307000D01*
X80327750Y-54307000D01*
X80169000Y-54465750D01*
X79915000Y-54465750D01*
X79756250Y-54307000D01*
X79115691Y-54307000D01*
X78882302Y-54403673D01*
X78703673Y-54582301D01*
X78607000Y-54815690D01*
X77978000Y-54815690D01*
X77978000Y-53752750D01*
X81706000Y-53752750D01*
X81706000Y-54068310D01*
X81802673Y-54301699D01*
X81981302Y-54480327D01*
X82214691Y-54577000D01*
X82492750Y-54577000D01*
X82651500Y-54418250D01*
X82651500Y-53594000D01*
X81864750Y-53594000D01*
X81706000Y-53752750D01*
X77978000Y-53752750D01*
X77978000Y-53721000D01*
X81153000Y-53721000D01*
X81201601Y-53711333D01*
X81242803Y-53683803D01*
X81270333Y-53642601D01*
X81280000Y-53594000D01*
X81280000Y-52865690D01*
X81706000Y-52865690D01*
X81706000Y-53181250D01*
X81864750Y-53340000D01*
X82651500Y-53340000D01*
X82651500Y-52515750D01*
X82492750Y-52357000D01*
X82214691Y-52357000D01*
X81981302Y-52453673D01*
X81802673Y-52632301D01*
X81706000Y-52865690D01*
X81280000Y-52865690D01*
X81280000Y-51816000D01*
X84582000Y-51816000D01*
X84582000Y-52344560D01*
G36*
X75719500Y-51020525D02*
X75719500Y-51036250D01*
X75878250Y-51195000D01*
X75933309Y-51195000D01*
X75982000Y-51174832D01*
X76030691Y-51195000D01*
X76085750Y-51195000D01*
X76204998Y-51075752D01*
X76204998Y-51195000D01*
X76297000Y-51195000D01*
X76297000Y-51413553D01*
X75223463Y-52487091D01*
X75162096Y-52528095D01*
X75090133Y-52635795D01*
X74969235Y-52659843D01*
X74809903Y-52766306D01*
X74630048Y-52646129D01*
X74630048Y-52595431D01*
X74644446Y-52523047D01*
X74630048Y-52450661D01*
X74630048Y-52450660D01*
X74587402Y-52236265D01*
X74424953Y-51993143D01*
X74363586Y-51952139D01*
X73606446Y-51195000D01*
X73659002Y-51195000D01*
X73659002Y-51075752D01*
X73778250Y-51195000D01*
X73833309Y-51195000D01*
X73882000Y-51174832D01*
X73930691Y-51195000D01*
X73985750Y-51195000D01*
X74144500Y-51036250D01*
X74144500Y-51020525D01*
X74232000Y-50933026D01*
X74319500Y-51020525D01*
X74319500Y-51036250D01*
X74478250Y-51195000D01*
X74533309Y-51195000D01*
X74582000Y-51174832D01*
X74630691Y-51195000D01*
X74685750Y-51195000D01*
X74844500Y-51036250D01*
X74844500Y-51020525D01*
X74932000Y-50933026D01*
X75019500Y-51020525D01*
X75019500Y-51036250D01*
X75178250Y-51195000D01*
X75233309Y-51195000D01*
X75282000Y-51174832D01*
X75330691Y-51195000D01*
X75385750Y-51195000D01*
X75544500Y-51036250D01*
X75544500Y-51020525D01*
X75632000Y-50933026D01*
X75719500Y-51020525D01*
X75719500Y-51020525D01*
G37*
X75719500Y-51020525D02*
X75719500Y-51036250D01*
X75878250Y-51195000D01*
X75933309Y-51195000D01*
X75982000Y-51174832D01*
X76030691Y-51195000D01*
X76085750Y-51195000D01*
X76204998Y-51075752D01*
X76204998Y-51195000D01*
X76297000Y-51195000D01*
X76297000Y-51413553D01*
X75223463Y-52487091D01*
X75162096Y-52528095D01*
X75090133Y-52635795D01*
X74969235Y-52659843D01*
X74809903Y-52766306D01*
X74630048Y-52646129D01*
X74630048Y-52595431D01*
X74644446Y-52523047D01*
X74630048Y-52450661D01*
X74630048Y-52450660D01*
X74587402Y-52236265D01*
X74424953Y-51993143D01*
X74363586Y-51952139D01*
X73606446Y-51195000D01*
X73659002Y-51195000D01*
X73659002Y-51075752D01*
X73778250Y-51195000D01*
X73833309Y-51195000D01*
X73882000Y-51174832D01*
X73930691Y-51195000D01*
X73985750Y-51195000D01*
X74144500Y-51036250D01*
X74144500Y-51020525D01*
X74232000Y-50933026D01*
X74319500Y-51020525D01*
X74319500Y-51036250D01*
X74478250Y-51195000D01*
X74533309Y-51195000D01*
X74582000Y-51174832D01*
X74630691Y-51195000D01*
X74685750Y-51195000D01*
X74844500Y-51036250D01*
X74844500Y-51020525D01*
X74932000Y-50933026D01*
X75019500Y-51020525D01*
X75019500Y-51036250D01*
X75178250Y-51195000D01*
X75233309Y-51195000D01*
X75282000Y-51174832D01*
X75330691Y-51195000D01*
X75385750Y-51195000D01*
X75544500Y-51036250D01*
X75544500Y-51020525D01*
X75632000Y-50933026D01*
X75719500Y-51020525D01*
G36*
X75680750Y-49183000D02*
X75779000Y-49183000D01*
X75779000Y-49437000D01*
X75680750Y-49437000D01*
X75632000Y-49485750D01*
X75583250Y-49437000D01*
X74980750Y-49437000D01*
X74932000Y-49485750D01*
X74883250Y-49437000D01*
X74280750Y-49437000D01*
X74232000Y-49485750D01*
X74183250Y-49437000D01*
X73580750Y-49437000D01*
X73560750Y-49457000D01*
X73503250Y-49457000D01*
X73483250Y-49437000D01*
X73385000Y-49437000D01*
X73385000Y-49183000D01*
X73483250Y-49183000D01*
X73532000Y-49134250D01*
X73580750Y-49183000D01*
X74183250Y-49183000D01*
X74232000Y-49134250D01*
X74280750Y-49183000D01*
X74883250Y-49183000D01*
X74932000Y-49134250D01*
X74980750Y-49183000D01*
X75583250Y-49183000D01*
X75632000Y-49134250D01*
X75680750Y-49183000D01*
X75680750Y-49183000D01*
G37*
X75680750Y-49183000D02*
X75779000Y-49183000D01*
X75779000Y-49437000D01*
X75680750Y-49437000D01*
X75632000Y-49485750D01*
X75583250Y-49437000D01*
X74980750Y-49437000D01*
X74932000Y-49485750D01*
X74883250Y-49437000D01*
X74280750Y-49437000D01*
X74232000Y-49485750D01*
X74183250Y-49437000D01*
X73580750Y-49437000D01*
X73560750Y-49457000D01*
X73503250Y-49457000D01*
X73483250Y-49437000D01*
X73385000Y-49437000D01*
X73385000Y-49183000D01*
X73483250Y-49183000D01*
X73532000Y-49134250D01*
X73580750Y-49183000D01*
X74183250Y-49183000D01*
X74232000Y-49134250D01*
X74280750Y-49183000D01*
X74883250Y-49183000D01*
X74932000Y-49134250D01*
X74980750Y-49183000D01*
X75583250Y-49183000D01*
X75632000Y-49134250D01*
X75680750Y-49183000D01*
G36*
X62938518Y-40743060D02*
X63045217Y-40814354D01*
X63135270Y-40832267D01*
X63221701Y-40863237D01*
X63349853Y-40857000D01*
X76014147Y-40857000D01*
X76142298Y-40863237D01*
X76228728Y-40832267D01*
X76318783Y-40814354D01*
X76425481Y-40743060D01*
X77505583Y-40095000D01*
X79447001Y-40095000D01*
X79447000Y-43432387D01*
X79454506Y-43470123D01*
X79515817Y-44056735D01*
X79523561Y-44091330D01*
X79526548Y-44126660D01*
X79550158Y-44214567D01*
X79771590Y-44873162D01*
X79788567Y-44909185D01*
X79800962Y-44947033D01*
X79844161Y-45027150D01*
X80211163Y-45617141D01*
X80235972Y-45648293D01*
X80256741Y-45682273D01*
X80317213Y-45750303D01*
X80810098Y-46240042D01*
X80841412Y-46264654D01*
X80869439Y-46292943D01*
X80943939Y-46345238D01*
X80950873Y-46349490D01*
X78579898Y-46349490D01*
X78507510Y-46335091D01*
X78435122Y-46349490D01*
X78220727Y-46392136D01*
X77977605Y-46554585D01*
X77936600Y-46615953D01*
X77263463Y-47289091D01*
X77202096Y-47330095D01*
X77161092Y-47391462D01*
X77161091Y-47391463D01*
X77146994Y-47412560D01*
X76857000Y-47412560D01*
X76685589Y-47446655D01*
X76633309Y-47425000D01*
X76578250Y-47425000D01*
X76419500Y-47583750D01*
X76419500Y-47588621D01*
X76399191Y-47602191D01*
X76338318Y-47693292D01*
X76244500Y-47599475D01*
X76244500Y-47583750D01*
X76085750Y-47425000D01*
X76030691Y-47425000D01*
X75982000Y-47445168D01*
X75933309Y-47425000D01*
X75878250Y-47425000D01*
X75719500Y-47583750D01*
X75719500Y-47599475D01*
X75632000Y-47686974D01*
X75544500Y-47599475D01*
X75544500Y-47583750D01*
X75385750Y-47425000D01*
X75330691Y-47425000D01*
X75282000Y-47445168D01*
X75233309Y-47425000D01*
X75178250Y-47425000D01*
X75019500Y-47583750D01*
X75019500Y-47599475D01*
X74932000Y-47686974D01*
X74844500Y-47599475D01*
X74844500Y-47583750D01*
X74685750Y-47425000D01*
X74630691Y-47425000D01*
X74582000Y-47445168D01*
X74533309Y-47425000D01*
X74478250Y-47425000D01*
X74319500Y-47583750D01*
X74319500Y-47599475D01*
X74232000Y-47686974D01*
X74144500Y-47599475D01*
X74144500Y-47583750D01*
X73985750Y-47425000D01*
X73930691Y-47425000D01*
X73882000Y-47445168D01*
X73833309Y-47425000D01*
X73778250Y-47425000D01*
X73619500Y-47583750D01*
X73619500Y-47599475D01*
X73532000Y-47686974D01*
X73444500Y-47599475D01*
X73444500Y-47583750D01*
X73285750Y-47425000D01*
X73230691Y-47425000D01*
X73182000Y-47445168D01*
X73133309Y-47425000D01*
X73078250Y-47425000D01*
X72919500Y-47583750D01*
X72919500Y-47599475D01*
X72825682Y-47693292D01*
X72764809Y-47602191D01*
X72744500Y-47588621D01*
X72744500Y-47583750D01*
X72585750Y-47425000D01*
X72530691Y-47425000D01*
X72478411Y-47446655D01*
X72307000Y-47412560D01*
X71957000Y-47412560D01*
X71782000Y-47447369D01*
X71607000Y-47412560D01*
X71257000Y-47412560D01*
X71082000Y-47447369D01*
X70907000Y-47412560D01*
X70557000Y-47412560D01*
X70382000Y-47447369D01*
X70207000Y-47412560D01*
X69857000Y-47412560D01*
X69685589Y-47446655D01*
X69633309Y-47425000D01*
X69578250Y-47425000D01*
X69419500Y-47583750D01*
X69419500Y-47588621D01*
X69399191Y-47602191D01*
X69332000Y-47702749D01*
X69264809Y-47602191D01*
X69244500Y-47588621D01*
X69244500Y-47583750D01*
X69085750Y-47425000D01*
X69030691Y-47425000D01*
X68978411Y-47446655D01*
X68807000Y-47412560D01*
X68457000Y-47412560D01*
X68282000Y-47447369D01*
X68107000Y-47412560D01*
X67757000Y-47412560D01*
X67585589Y-47446655D01*
X67533309Y-47425000D01*
X67478250Y-47425000D01*
X67319500Y-47583750D01*
X67319500Y-47588621D01*
X67299191Y-47602191D01*
X67238318Y-47693292D01*
X67144500Y-47599475D01*
X67144500Y-47583750D01*
X66985750Y-47425000D01*
X66930691Y-47425000D01*
X66882000Y-47445168D01*
X66833309Y-47425000D01*
X66778250Y-47425000D01*
X66619500Y-47583750D01*
X66619500Y-47599475D01*
X66525682Y-47693292D01*
X66464809Y-47602191D01*
X66444500Y-47588621D01*
X66444500Y-47583750D01*
X66285750Y-47425000D01*
X66230691Y-47425000D01*
X66178411Y-47446655D01*
X66007000Y-47412560D01*
X65657000Y-47412560D01*
X65482000Y-47447369D01*
X65307000Y-47412560D01*
X64957000Y-47412560D01*
X64785589Y-47446655D01*
X64733309Y-47425000D01*
X64678250Y-47425000D01*
X64519500Y-47583750D01*
X64519500Y-47588621D01*
X64499191Y-47602191D01*
X64432000Y-47702749D01*
X64364809Y-47602191D01*
X64344500Y-47588621D01*
X64344500Y-47583750D01*
X64185750Y-47425000D01*
X64130691Y-47425000D01*
X64078411Y-47446655D01*
X63907000Y-47412560D01*
X63557000Y-47412560D01*
X63382000Y-47447369D01*
X63207000Y-47412560D01*
X62917006Y-47412560D01*
X62861905Y-47330095D01*
X62800537Y-47289090D01*
X61802880Y-46291434D01*
X61761874Y-46230064D01*
X61518752Y-46067615D01*
X61304357Y-46024969D01*
X61304353Y-46024969D01*
X61231969Y-46010571D01*
X61159585Y-46024969D01*
X58785443Y-46024969D01*
X58996947Y-45824610D01*
X59022494Y-45794055D01*
X59051618Y-45766897D01*
X59106142Y-45694013D01*
X59488429Y-45110929D01*
X59506260Y-45075320D01*
X59528357Y-45042188D01*
X59564652Y-44958715D01*
X59802548Y-44303323D01*
X59811709Y-44264570D01*
X59825592Y-44227240D01*
X59841710Y-44137657D01*
X59890799Y-43716607D01*
X60461123Y-43716607D01*
X60461123Y-44003391D01*
X60537243Y-44386074D01*
X60646990Y-44651027D01*
X60863762Y-44975451D01*
X60968406Y-45080094D01*
X61066549Y-45178237D01*
X61390973Y-45395010D01*
X61466546Y-45426313D01*
X61655926Y-45504757D01*
X62038609Y-45580877D01*
X62038611Y-45580877D01*
X62109612Y-45595000D01*
X77254388Y-45595000D01*
X77325389Y-45580877D01*
X77325391Y-45580877D01*
X77708074Y-45504757D01*
X77973027Y-45395010D01*
X78297451Y-45178238D01*
X78448538Y-45027150D01*
X78500237Y-44975451D01*
X78717010Y-44651027D01*
X78755780Y-44557428D01*
X78826757Y-44386074D01*
X78902877Y-44003391D01*
X78902877Y-43716607D01*
X78826757Y-43333926D01*
X78717010Y-43068974D01*
X78717010Y-43068973D01*
X78500237Y-42744549D01*
X78412243Y-42656555D01*
X78297451Y-42541762D01*
X77973027Y-42324990D01*
X77708074Y-42215243D01*
X77325391Y-42139123D01*
X77325389Y-42139123D01*
X77254388Y-42125000D01*
X62109612Y-42125000D01*
X62038611Y-42139123D01*
X62038609Y-42139123D01*
X61655926Y-42215243D01*
X61468576Y-42292846D01*
X61390973Y-42324990D01*
X61066549Y-42541763D01*
X60998954Y-42609359D01*
X60863762Y-42744549D01*
X60646990Y-43068973D01*
X60572820Y-43248035D01*
X60537243Y-43333926D01*
X60461123Y-43716607D01*
X59890799Y-43716607D01*
X59919146Y-43473471D01*
X59927582Y-43430477D01*
X59918913Y-40095000D01*
X61858419Y-40095000D01*
X62938518Y-40743060D01*
X62938518Y-40743060D01*
G37*
X62938518Y-40743060D02*
X63045217Y-40814354D01*
X63135270Y-40832267D01*
X63221701Y-40863237D01*
X63349853Y-40857000D01*
X76014147Y-40857000D01*
X76142298Y-40863237D01*
X76228728Y-40832267D01*
X76318783Y-40814354D01*
X76425481Y-40743060D01*
X77505583Y-40095000D01*
X79447001Y-40095000D01*
X79447000Y-43432387D01*
X79454506Y-43470123D01*
X79515817Y-44056735D01*
X79523561Y-44091330D01*
X79526548Y-44126660D01*
X79550158Y-44214567D01*
X79771590Y-44873162D01*
X79788567Y-44909185D01*
X79800962Y-44947033D01*
X79844161Y-45027150D01*
X80211163Y-45617141D01*
X80235972Y-45648293D01*
X80256741Y-45682273D01*
X80317213Y-45750303D01*
X80810098Y-46240042D01*
X80841412Y-46264654D01*
X80869439Y-46292943D01*
X80943939Y-46345238D01*
X80950873Y-46349490D01*
X78579898Y-46349490D01*
X78507510Y-46335091D01*
X78435122Y-46349490D01*
X78220727Y-46392136D01*
X77977605Y-46554585D01*
X77936600Y-46615953D01*
X77263463Y-47289091D01*
X77202096Y-47330095D01*
X77161092Y-47391462D01*
X77161091Y-47391463D01*
X77146994Y-47412560D01*
X76857000Y-47412560D01*
X76685589Y-47446655D01*
X76633309Y-47425000D01*
X76578250Y-47425000D01*
X76419500Y-47583750D01*
X76419500Y-47588621D01*
X76399191Y-47602191D01*
X76338318Y-47693292D01*
X76244500Y-47599475D01*
X76244500Y-47583750D01*
X76085750Y-47425000D01*
X76030691Y-47425000D01*
X75982000Y-47445168D01*
X75933309Y-47425000D01*
X75878250Y-47425000D01*
X75719500Y-47583750D01*
X75719500Y-47599475D01*
X75632000Y-47686974D01*
X75544500Y-47599475D01*
X75544500Y-47583750D01*
X75385750Y-47425000D01*
X75330691Y-47425000D01*
X75282000Y-47445168D01*
X75233309Y-47425000D01*
X75178250Y-47425000D01*
X75019500Y-47583750D01*
X75019500Y-47599475D01*
X74932000Y-47686974D01*
X74844500Y-47599475D01*
X74844500Y-47583750D01*
X74685750Y-47425000D01*
X74630691Y-47425000D01*
X74582000Y-47445168D01*
X74533309Y-47425000D01*
X74478250Y-47425000D01*
X74319500Y-47583750D01*
X74319500Y-47599475D01*
X74232000Y-47686974D01*
X74144500Y-47599475D01*
X74144500Y-47583750D01*
X73985750Y-47425000D01*
X73930691Y-47425000D01*
X73882000Y-47445168D01*
X73833309Y-47425000D01*
X73778250Y-47425000D01*
X73619500Y-47583750D01*
X73619500Y-47599475D01*
X73532000Y-47686974D01*
X73444500Y-47599475D01*
X73444500Y-47583750D01*
X73285750Y-47425000D01*
X73230691Y-47425000D01*
X73182000Y-47445168D01*
X73133309Y-47425000D01*
X73078250Y-47425000D01*
X72919500Y-47583750D01*
X72919500Y-47599475D01*
X72825682Y-47693292D01*
X72764809Y-47602191D01*
X72744500Y-47588621D01*
X72744500Y-47583750D01*
X72585750Y-47425000D01*
X72530691Y-47425000D01*
X72478411Y-47446655D01*
X72307000Y-47412560D01*
X71957000Y-47412560D01*
X71782000Y-47447369D01*
X71607000Y-47412560D01*
X71257000Y-47412560D01*
X71082000Y-47447369D01*
X70907000Y-47412560D01*
X70557000Y-47412560D01*
X70382000Y-47447369D01*
X70207000Y-47412560D01*
X69857000Y-47412560D01*
X69685589Y-47446655D01*
X69633309Y-47425000D01*
X69578250Y-47425000D01*
X69419500Y-47583750D01*
X69419500Y-47588621D01*
X69399191Y-47602191D01*
X69332000Y-47702749D01*
X69264809Y-47602191D01*
X69244500Y-47588621D01*
X69244500Y-47583750D01*
X69085750Y-47425000D01*
X69030691Y-47425000D01*
X68978411Y-47446655D01*
X68807000Y-47412560D01*
X68457000Y-47412560D01*
X68282000Y-47447369D01*
X68107000Y-47412560D01*
X67757000Y-47412560D01*
X67585589Y-47446655D01*
X67533309Y-47425000D01*
X67478250Y-47425000D01*
X67319500Y-47583750D01*
X67319500Y-47588621D01*
X67299191Y-47602191D01*
X67238318Y-47693292D01*
X67144500Y-47599475D01*
X67144500Y-47583750D01*
X66985750Y-47425000D01*
X66930691Y-47425000D01*
X66882000Y-47445168D01*
X66833309Y-47425000D01*
X66778250Y-47425000D01*
X66619500Y-47583750D01*
X66619500Y-47599475D01*
X66525682Y-47693292D01*
X66464809Y-47602191D01*
X66444500Y-47588621D01*
X66444500Y-47583750D01*
X66285750Y-47425000D01*
X66230691Y-47425000D01*
X66178411Y-47446655D01*
X66007000Y-47412560D01*
X65657000Y-47412560D01*
X65482000Y-47447369D01*
X65307000Y-47412560D01*
X64957000Y-47412560D01*
X64785589Y-47446655D01*
X64733309Y-47425000D01*
X64678250Y-47425000D01*
X64519500Y-47583750D01*
X64519500Y-47588621D01*
X64499191Y-47602191D01*
X64432000Y-47702749D01*
X64364809Y-47602191D01*
X64344500Y-47588621D01*
X64344500Y-47583750D01*
X64185750Y-47425000D01*
X64130691Y-47425000D01*
X64078411Y-47446655D01*
X63907000Y-47412560D01*
X63557000Y-47412560D01*
X63382000Y-47447369D01*
X63207000Y-47412560D01*
X62917006Y-47412560D01*
X62861905Y-47330095D01*
X62800537Y-47289090D01*
X61802880Y-46291434D01*
X61761874Y-46230064D01*
X61518752Y-46067615D01*
X61304357Y-46024969D01*
X61304353Y-46024969D01*
X61231969Y-46010571D01*
X61159585Y-46024969D01*
X58785443Y-46024969D01*
X58996947Y-45824610D01*
X59022494Y-45794055D01*
X59051618Y-45766897D01*
X59106142Y-45694013D01*
X59488429Y-45110929D01*
X59506260Y-45075320D01*
X59528357Y-45042188D01*
X59564652Y-44958715D01*
X59802548Y-44303323D01*
X59811709Y-44264570D01*
X59825592Y-44227240D01*
X59841710Y-44137657D01*
X59890799Y-43716607D01*
X60461123Y-43716607D01*
X60461123Y-44003391D01*
X60537243Y-44386074D01*
X60646990Y-44651027D01*
X60863762Y-44975451D01*
X60968406Y-45080094D01*
X61066549Y-45178237D01*
X61390973Y-45395010D01*
X61466546Y-45426313D01*
X61655926Y-45504757D01*
X62038609Y-45580877D01*
X62038611Y-45580877D01*
X62109612Y-45595000D01*
X77254388Y-45595000D01*
X77325389Y-45580877D01*
X77325391Y-45580877D01*
X77708074Y-45504757D01*
X77973027Y-45395010D01*
X78297451Y-45178238D01*
X78448538Y-45027150D01*
X78500237Y-44975451D01*
X78717010Y-44651027D01*
X78755780Y-44557428D01*
X78826757Y-44386074D01*
X78902877Y-44003391D01*
X78902877Y-43716607D01*
X78826757Y-43333926D01*
X78717010Y-43068974D01*
X78717010Y-43068973D01*
X78500237Y-42744549D01*
X78412243Y-42656555D01*
X78297451Y-42541762D01*
X77973027Y-42324990D01*
X77708074Y-42215243D01*
X77325391Y-42139123D01*
X77325389Y-42139123D01*
X77254388Y-42125000D01*
X62109612Y-42125000D01*
X62038611Y-42139123D01*
X62038609Y-42139123D01*
X61655926Y-42215243D01*
X61468576Y-42292846D01*
X61390973Y-42324990D01*
X61066549Y-42541763D01*
X60998954Y-42609359D01*
X60863762Y-42744549D01*
X60646990Y-43068973D01*
X60572820Y-43248035D01*
X60537243Y-43333926D01*
X60461123Y-43716607D01*
X59890799Y-43716607D01*
X59919146Y-43473471D01*
X59927582Y-43430477D01*
X59918913Y-40095000D01*
X61858419Y-40095000D01*
X62938518Y-40743060D01*
G04 #@! TD*
M02*
